<?xml version="1.0" encoding="utf-8" standalone="no"?>
<!DOCTYPE svg PUBLIC "-//W3C//DTD SVG 1.1//EN"
  "http://www.w3.org/Graphics/SVG/1.1/DTD/svg11.dtd">
<svg xmlns:xlink="http://www.w3.org/1999/xlink" width="730.486636pt" height="413.382755pt" viewBox="0 0 730.486636 413.382755" xmlns="http://www.w3.org/2000/svg" version="1.1">
 <metadata>
  <rdf:RDF xmlns:dc="http://purl.org/dc/elements/1.1/" xmlns:cc="http://creativecommons.org/ns#" xmlns:rdf="http://www.w3.org/1999/02/22-rdf-syntax-ns#">
   <cc:Work>
    <dc:type rdf:resource="http://purl.org/dc/dcmitype/StillImage"/>
    <dc:date>2026-03-19T22:07:42.727026</dc:date>
    <dc:format>image/svg+xml</dc:format>
    <dc:creator>
     <cc:Agent>
      <dc:title>Matplotlib v3.10.0, https://matplotlib.org/</dc:title>
     </cc:Agent>
    </dc:creator>
   </cc:Work>
  </rdf:RDF>
 </metadata>
 <defs>
  <style type="text/css">*{stroke-linejoin: round; stroke-linecap: butt}</style>
 </defs>
 <g id="figure_1">
  <g id="patch_1">
   <path d="M 0 413.382755 
L 730.486636 413.382755 
L 730.486636 0 
L 0 0 
L 0 413.382755 
z
" style="fill: none"/>
  </g>
  <g id="axes_1">
   <g id="patch_2">
    <path d="M 90.004323 339.84 
L 424.804323 339.84 
L 424.804323 7.2 
L 90.004323 7.2 
L 90.004323 339.84 
z
" style="fill: none"/>
   </g>
   <g id="matplotlib.axis_1">
    <g id="xtick_1">
     <g id="line2d_1">
      <defs>
       <path id="me129f90816" d="M 0 0 
L 0 -10 
" style="stroke: #000000; stroke-width: 2"/>
      </defs>
      <g>
       <use xlink:href="#me129f90816" x="103.396323" y="339.84" style="stroke: #000000; stroke-width: 2"/>
      </g>
     </g>
     <g id="line2d_2">
      <defs>
       <path id="m54b73af24d" d="M 0 0 
L 0 10 
" style="stroke: #000000; stroke-width: 2"/>
      </defs>
      <g>
       <use xlink:href="#m54b73af24d" x="103.396323" y="7.2" style="stroke: #000000; stroke-width: 2"/>
      </g>
     </g>
     <g id="text_1">
      <!-- $\mathdefault{0}$ -->
      <g transform="translate(97.913466 368.875969) scale(0.24 -0.24)">
       <defs>
        <path id="CMR17-30" d="M 2688 2038 
C 2688 2430 2682 3099 2413 3613 
C 2176 4063 1798 4224 1466 4224 
C 1158 4224 768 4082 525 3620 
C 269 3137 243 2539 243 2038 
C 243 1671 250 1112 448 623 
C 723 -39 1216 -128 1466 -128 
C 1760 -128 2208 -7 2470 604 
C 2662 1048 2688 1568 2688 2038 
z
M 1466 -26 
C 1056 -26 813 328 723 816 
C 653 1196 653 1749 653 2109 
C 653 2604 653 3015 736 3407 
C 858 3954 1216 4121 1466 4121 
C 1728 4121 2067 3947 2189 3420 
C 2272 3054 2278 2623 2278 2109 
C 2278 1691 2278 1176 2202 797 
C 2067 96 1690 -26 1466 -26 
z
" transform="scale(0.015625)"/>
       </defs>
       <use xlink:href="#CMR17-30" transform="scale(0.996264)"/>
      </g>
     </g>
    </g>
    <g id="xtick_2">
     <g id="line2d_3">
      <g>
       <use xlink:href="#me129f90816" x="210.532323" y="339.84" style="stroke: #000000; stroke-width: 2"/>
      </g>
     </g>
     <g id="line2d_4">
      <g>
       <use xlink:href="#m54b73af24d" x="210.532323" y="7.2" style="stroke: #000000; stroke-width: 2"/>
      </g>
     </g>
     <g id="text_2">
      <!-- $\mathdefault{20}$ -->
      <g transform="translate(199.566609 368.875969) scale(0.24 -0.24)">
       <defs>
        <path id="CMR17-32" d="M 2669 990 
L 2554 990 
C 2490 537 2438 460 2413 422 
C 2381 371 1920 371 1830 371 
L 602 371 
C 832 620 1280 1073 1824 1596 
C 2214 1966 2669 2400 2669 3033 
C 2669 3788 2067 4224 1395 4224 
C 691 4224 262 3603 262 3027 
C 262 2777 448 2745 525 2745 
C 589 2745 781 2783 781 3007 
C 781 3206 614 3264 525 3264 
C 486 3264 448 3257 422 3244 
C 544 3788 915 4057 1306 4057 
C 1862 4057 2227 3616 2227 3033 
C 2227 2477 1901 1998 1536 1583 
L 262 147 
L 262 0 
L 2515 0 
L 2669 990 
z
" transform="scale(0.015625)"/>
       </defs>
       <use xlink:href="#CMR17-32" transform="scale(0.996264)"/>
       <use xlink:href="#CMR17-30" transform="translate(45.690477 0) scale(0.996264)"/>
      </g>
     </g>
    </g>
    <g id="xtick_3">
     <g id="line2d_5">
      <g>
       <use xlink:href="#me129f90816" x="317.668323" y="339.84" style="stroke: #000000; stroke-width: 2"/>
      </g>
     </g>
     <g id="line2d_6">
      <g>
       <use xlink:href="#m54b73af24d" x="317.668323" y="7.2" style="stroke: #000000; stroke-width: 2"/>
      </g>
     </g>
     <g id="text_3">
      <!-- $\mathdefault{40}$ -->
      <g transform="translate(306.702609 368.875969) scale(0.24 -0.24)">
       <defs>
        <path id="CMR17-34" d="M 2150 4147 
C 2150 4281 2144 4288 2029 4288 
L 128 1254 
L 128 1088 
L 1779 1088 
L 1779 460 
C 1779 230 1766 166 1318 166 
L 1197 166 
L 1197 0 
C 1402 12 1747 12 1965 12 
C 2182 12 2528 12 2733 0 
L 2733 166 
L 2611 166 
C 2163 166 2150 230 2150 460 
L 2150 1088 
L 2803 1088 
L 2803 1254 
L 2150 1254 
L 2150 4147 
z
M 1798 3723 
L 1798 1254 
L 256 1254 
L 1798 3723 
z
" transform="scale(0.015625)"/>
       </defs>
       <use xlink:href="#CMR17-34" transform="scale(0.996264)"/>
       <use xlink:href="#CMR17-30" transform="translate(45.690477 0) scale(0.996264)"/>
      </g>
     </g>
    </g>
    <g id="xtick_4">
     <g id="line2d_7">
      <g>
       <use xlink:href="#me129f90816" x="424.804323" y="339.84" style="stroke: #000000; stroke-width: 2"/>
      </g>
     </g>
     <g id="line2d_8">
      <g>
       <use xlink:href="#m54b73af24d" x="424.804323" y="7.2" style="stroke: #000000; stroke-width: 2"/>
      </g>
     </g>
     <g id="text_4">
      <!-- $\mathdefault{60}$ -->
      <g transform="translate(413.838609 368.875969) scale(0.24 -0.24)">
       <defs>
        <path id="CMR17-36" d="M 678 2198 
C 678 3712 1395 4076 1811 4076 
C 1946 4076 2272 4049 2400 3782 
C 2298 3782 2106 3782 2106 3558 
C 2106 3385 2246 3328 2336 3328 
C 2394 3328 2566 3353 2566 3571 
C 2566 3987 2246 4224 1805 4224 
C 1043 4224 243 3411 243 2011 
C 243 257 966 -128 1478 -128 
C 2099 -128 2688 431 2688 1295 
C 2688 2101 2170 2688 1517 2688 
C 1126 2688 838 2430 678 1979 
L 678 2198 
z
M 1478 25 
C 691 25 691 1212 691 1450 
C 691 1914 909 2585 1504 2585 
C 1613 2585 1926 2585 2138 2140 
C 2253 1889 2253 1624 2253 1302 
C 2253 954 2253 696 2118 438 
C 1978 173 1773 25 1478 25 
z
" transform="scale(0.015625)"/>
       </defs>
       <use xlink:href="#CMR17-36" transform="scale(0.996264)"/>
       <use xlink:href="#CMR17-30" transform="translate(45.690477 0) scale(0.996264)"/>
      </g>
     </g>
    </g>
    <g id="text_5">
     <!-- Time (s) -->
     <g transform="translate(202.620239 399.816795) scale(0.3 -0.3)">
      <defs>
       <path id="NimbusSanL-Regu-54" d="M 2266 4147 
L 3795 4147 
L 3795 4672 
L 134 4672 
L 134 4147 
L 1670 4147 
L 1670 0 
L 2266 0 
L 2266 4147 
z
" transform="scale(0.015625)"/>
       <path id="NimbusSanL-Regu-69" d="M 960 3358 
L 429 3358 
L 429 0 
L 960 0 
L 960 3358 
z
M 960 4672 
L 422 4672 
L 422 3999 
L 960 3999 
L 960 4672 
z
" transform="scale(0.015625)"/>
       <path id="NimbusSanL-Regu-6d" d="M 448 3328 
L 448 0 
L 986 0 
L 986 2089 
C 986 2597 1338 2988 1773 2988 
C 2170 2988 2394 2744 2394 2315 
L 2394 0 
L 2931 0 
L 2931 2109 
C 2931 2597 3283 2988 3718 2988 
C 4109 2988 4339 2738 4339 2315 
L 4339 0 
L 4877 0 
L 4877 2520 
C 4877 3123 4531 3456 3904 3456 
C 3456 3456 3187 3321 2874 2943 
C 2675 3302 2406 3456 1971 3456 
C 1523 3456 1229 3289 941 2886 
L 941 3328 
L 448 3328 
z
" transform="scale(0.015625)"/>
       <path id="NimbusSanL-Regu-65" d="M 3283 1484 
C 3283 1998 3245 2311 3149 2565 
C 2931 3123 2419 3456 1792 3456 
C 858 3456 256 2734 256 1619 
C 256 545 838 -128 1779 -128 
C 2547 -128 3078 307 3213 1018 
L 2675 1018 
C 2528 588 2227 364 1798 364 
C 1459 364 1171 514 992 787 
C 864 974 819 1161 813 1484 
L 3283 1484 
z
M 826 1920 
C 870 2552 1248 2963 1786 2963 
C 2310 2963 2714 2519 2714 1959 
C 2714 1946 2714 1933 2707 1920 
L 826 1920 
z
" transform="scale(0.015625)"/>
       <path id="NimbusSanL-Regu-28" d="M 1510 4672 
C 870 3833 467 2668 467 1663 
C 467 652 870 -513 1510 -1351 
L 1862 -1351 
C 1299 -436 986 639 986 1663 
C 986 2681 1299 3763 1862 4672 
L 1510 4672 
z
" transform="scale(0.015625)"/>
       <path id="NimbusSanL-Regu-73" d="M 2803 2428 
C 2797 3084 2362 3456 1587 3456 
C 806 3456 301 3052 301 2434 
C 301 1912 570 1663 1363 1472 
L 1862 1351 
C 2234 1262 2381 1129 2381 887 
C 2381 574 2067 364 1600 364 
C 1312 364 1069 447 934 587 
C 851 683 813 778 781 1014 
L 218 1014 
C 243 243 678 -128 1555 -128 
C 2400 -128 2938 288 2938 931 
C 2938 1428 2656 1702 1990 1861 
L 1478 1982 
C 1043 2084 858 2224 858 2459 
C 858 2765 1133 2963 1568 2963 
C 1997 2963 2227 2778 2240 2428 
L 2803 2428 
z
" transform="scale(0.015625)"/>
       <path id="NimbusSanL-Regu-29" d="M 595 -1351 
C 1235 -513 1638 652 1638 1657 
C 1638 2668 1235 3833 595 4672 
L 243 4672 
C 806 3756 1120 2681 1120 1657 
C 1120 639 806 -442 243 -1351 
L 595 -1351 
z
" transform="scale(0.015625)"/>
      </defs>
      <use xlink:href="#NimbusSanL-Regu-54" transform="scale(0.996264)"/>
      <use xlink:href="#NimbusSanL-Regu-69" transform="translate(60.871631 0) scale(0.996264)"/>
      <use xlink:href="#NimbusSanL-Regu-6d" transform="translate(82.988415 0) scale(0.996264)"/>
      <use xlink:href="#NimbusSanL-Regu-65" transform="translate(165.976845 0) scale(0.996264)"/>
      <use xlink:href="#NimbusSanL-Regu-28" transform="translate(249.063692 0) scale(0.996264)"/>
      <use xlink:href="#NimbusSanL-Regu-73" transform="translate(282.238922 0) scale(0.996264)"/>
      <use xlink:href="#NimbusSanL-Regu-29" transform="translate(332.052122 0) scale(0.996264)"/>
     </g>
    </g>
   </g>
   <g id="matplotlib.axis_2">
    <g id="ytick_1">
     <g id="line2d_9">
      <defs>
       <path id="ma0a341dfff" d="M 0 0 
L 10 0 
" style="stroke: #000000; stroke-width: 2"/>
      </defs>
      <g>
       <use xlink:href="#ma0a341dfff" x="90.004323" y="250.362424" style="stroke: #000000; stroke-width: 2"/>
      </g>
     </g>
     <g id="line2d_10">
      <defs>
       <path id="mc3c54b8084" d="M 0 0 
L -10 0 
" style="stroke: #000000; stroke-width: 2"/>
      </defs>
      <g>
       <use xlink:href="#mc3c54b8084" x="424.804323" y="250.362424" style="stroke: #000000; stroke-width: 2"/>
      </g>
     </g>
     <g id="text_6">
      <!-- $\mathdefault{10^{-5}}$ -->
      <g transform="translate(38.86092 258.880409) scale(0.24 -0.24)">
       <defs>
        <path id="CMR17-31" d="M 1702 4083 
C 1702 4217 1696 4224 1606 4224 
C 1357 3927 979 3833 621 3820 
C 602 3820 570 3820 563 3808 
C 557 3795 557 3782 557 3648 
C 755 3648 1088 3686 1344 3839 
L 1344 467 
C 1344 243 1331 166 781 166 
L 589 166 
L 589 0 
C 896 6 1216 12 1523 12 
C 1830 12 2150 6 2458 0 
L 2458 166 
L 2266 166 
C 1715 166 1702 236 1702 467 
L 1702 4083 
z
" transform="scale(0.015625)"/>
        <path id="CMSY10-0" d="M 4218 1472 
C 4326 1472 4442 1472 4442 1600 
C 4442 1728 4326 1728 4218 1728 
L 755 1728 
C 646 1728 531 1728 531 1600 
C 531 1472 646 1472 755 1472 
L 4218 1472 
z
" transform="scale(0.015625)"/>
        <path id="CMR17-35" d="M 730 3750 
C 794 3724 1056 3641 1325 3641 
C 1920 3641 2246 3961 2432 4140 
C 2432 4191 2432 4224 2394 4224 
C 2387 4224 2374 4224 2323 4198 
C 2099 4102 1837 4032 1517 4032 
C 1325 4032 1037 4055 723 4191 
C 653 4224 640 4224 634 4224 
C 602 4224 595 4217 595 4090 
L 595 2231 
C 595 2113 595 2080 659 2080 
C 691 2080 704 2093 736 2139 
C 941 2435 1222 2560 1542 2560 
C 1766 2560 2246 2415 2246 1293 
C 2246 1087 2246 716 2054 422 
C 1894 159 1645 25 1370 25 
C 947 25 518 319 403 812 
C 429 806 480 793 506 793 
C 589 793 749 838 749 1036 
C 749 1209 627 1280 506 1280 
C 358 1280 262 1190 262 1011 
C 262 454 704 -128 1382 -128 
C 2042 -128 2669 441 2669 1267 
C 2669 2054 2170 2662 1549 2662 
C 1222 2662 947 2540 730 2304 
L 730 3750 
z
" transform="scale(0.015625)"/>
       </defs>
       <use xlink:href="#CMR17-31" transform="scale(0.996264)"/>
       <use xlink:href="#CMR17-30" transform="translate(45.690477 0) scale(0.996264)"/>
       <use xlink:href="#CMSY10-0" transform="translate(91.380954 36.153639) scale(0.697382)"/>
       <use xlink:href="#CMR17-35" transform="translate(145.621947 36.153639) scale(0.697382)"/>
      </g>
     </g>
    </g>
    <g id="ytick_2">
     <g id="line2d_11">
      <g>
       <use xlink:href="#ma0a341dfff" x="90.004323" y="69.225419" style="stroke: #000000; stroke-width: 2"/>
      </g>
     </g>
     <g id="line2d_12">
      <g>
       <use xlink:href="#mc3c54b8084" x="424.804323" y="69.225419" style="stroke: #000000; stroke-width: 2"/>
      </g>
     </g>
     <g id="text_7">
      <!-- $\mathdefault{10^{-4}}$ -->
      <g transform="translate(38.86092 77.743403) scale(0.24 -0.24)">
       <use xlink:href="#CMR17-31" transform="scale(0.996264)"/>
       <use xlink:href="#CMR17-30" transform="translate(45.690477 0) scale(0.996264)"/>
       <use xlink:href="#CMSY10-0" transform="translate(91.380954 36.153639) scale(0.697382)"/>
       <use xlink:href="#CMR17-34" transform="translate(145.621947 36.153639) scale(0.697382)"/>
      </g>
     </g>
    </g>
    <g id="ytick_3">
     <g id="line2d_13">
      <defs>
       <path id="mbaaca88917" d="M 0 0 
L 4 0 
" style="stroke: #000000"/>
      </defs>
      <g>
       <use xlink:href="#mbaaca88917" x="90.004323" y="322.444086" style="stroke: #000000"/>
      </g>
     </g>
     <g id="line2d_14">
      <defs>
       <path id="mb330926326" d="M 0 0 
L -4 0 
" style="stroke: #000000"/>
      </defs>
      <g>
       <use xlink:href="#mb330926326" x="424.804323" y="322.444086" style="stroke: #000000"/>
      </g>
     </g>
    </g>
    <g id="ytick_4">
     <g id="line2d_15">
      <g>
       <use xlink:href="#mbaaca88917" x="90.004323" y="304.890096" style="stroke: #000000"/>
      </g>
     </g>
     <g id="line2d_16">
      <g>
       <use xlink:href="#mb330926326" x="424.804323" y="304.890096" style="stroke: #000000"/>
      </g>
     </g>
    </g>
    <g id="ytick_5">
     <g id="line2d_17">
      <g>
       <use xlink:href="#mbaaca88917" x="90.004323" y="290.547442" style="stroke: #000000"/>
      </g>
     </g>
     <g id="line2d_18">
      <g>
       <use xlink:href="#mb330926326" x="424.804323" y="290.547442" style="stroke: #000000"/>
      </g>
     </g>
    </g>
    <g id="ytick_6">
     <g id="line2d_19">
      <g>
       <use xlink:href="#mbaaca88917" x="90.004323" y="278.420901" style="stroke: #000000"/>
      </g>
     </g>
     <g id="line2d_20">
      <g>
       <use xlink:href="#mb330926326" x="424.804323" y="278.420901" style="stroke: #000000"/>
      </g>
     </g>
    </g>
    <g id="ytick_7">
     <g id="line2d_21">
      <g>
       <use xlink:href="#mbaaca88917" x="90.004323" y="267.916414" style="stroke: #000000"/>
      </g>
     </g>
     <g id="line2d_22">
      <g>
       <use xlink:href="#mb330926326" x="424.804323" y="267.916414" style="stroke: #000000"/>
      </g>
     </g>
    </g>
    <g id="ytick_8">
     <g id="line2d_23">
      <g>
       <use xlink:href="#mbaaca88917" x="90.004323" y="258.650799" style="stroke: #000000"/>
      </g>
     </g>
     <g id="line2d_24">
      <g>
       <use xlink:href="#mb330926326" x="424.804323" y="258.650799" style="stroke: #000000"/>
      </g>
     </g>
    </g>
    <g id="ytick_9">
     <g id="line2d_25">
      <g>
       <use xlink:href="#mbaaca88917" x="90.004323" y="195.834752" style="stroke: #000000"/>
      </g>
     </g>
     <g id="line2d_26">
      <g>
       <use xlink:href="#mb330926326" x="424.804323" y="195.834752" style="stroke: #000000"/>
      </g>
     </g>
    </g>
    <g id="ytick_10">
     <g id="line2d_27">
      <g>
       <use xlink:href="#mbaaca88917" x="90.004323" y="163.938109" style="stroke: #000000"/>
      </g>
     </g>
     <g id="line2d_28">
      <g>
       <use xlink:href="#mb330926326" x="424.804323" y="163.938109" style="stroke: #000000"/>
      </g>
     </g>
    </g>
    <g id="ytick_11">
     <g id="line2d_29">
      <g>
       <use xlink:href="#mbaaca88917" x="90.004323" y="141.30708" style="stroke: #000000"/>
      </g>
     </g>
     <g id="line2d_30">
      <g>
       <use xlink:href="#mb330926326" x="424.804323" y="141.30708" style="stroke: #000000"/>
      </g>
     </g>
    </g>
    <g id="ytick_12">
     <g id="line2d_31">
      <g>
       <use xlink:href="#mbaaca88917" x="90.004323" y="123.753091" style="stroke: #000000"/>
      </g>
     </g>
     <g id="line2d_32">
      <g>
       <use xlink:href="#mb330926326" x="424.804323" y="123.753091" style="stroke: #000000"/>
      </g>
     </g>
    </g>
    <g id="ytick_13">
     <g id="line2d_33">
      <g>
       <use xlink:href="#mbaaca88917" x="90.004323" y="109.410437" style="stroke: #000000"/>
      </g>
     </g>
     <g id="line2d_34">
      <g>
       <use xlink:href="#mb330926326" x="424.804323" y="109.410437" style="stroke: #000000"/>
      </g>
     </g>
    </g>
    <g id="ytick_14">
     <g id="line2d_35">
      <g>
       <use xlink:href="#mbaaca88917" x="90.004323" y="97.283896" style="stroke: #000000"/>
      </g>
     </g>
     <g id="line2d_36">
      <g>
       <use xlink:href="#mb330926326" x="424.804323" y="97.283896" style="stroke: #000000"/>
      </g>
     </g>
    </g>
    <g id="ytick_15">
     <g id="line2d_37">
      <g>
       <use xlink:href="#mbaaca88917" x="90.004323" y="86.779408" style="stroke: #000000"/>
      </g>
     </g>
     <g id="line2d_38">
      <g>
       <use xlink:href="#mb330926326" x="424.804323" y="86.779408" style="stroke: #000000"/>
      </g>
     </g>
    </g>
    <g id="ytick_16">
     <g id="line2d_39">
      <g>
       <use xlink:href="#mbaaca88917" x="90.004323" y="77.513794" style="stroke: #000000"/>
      </g>
     </g>
     <g id="line2d_40">
      <g>
       <use xlink:href="#mb330926326" x="424.804323" y="77.513794" style="stroke: #000000"/>
      </g>
     </g>
    </g>
    <g id="ytick_17">
     <g id="line2d_41">
      <g>
       <use xlink:href="#mbaaca88917" x="90.004323" y="14.697747" style="stroke: #000000"/>
      </g>
     </g>
     <g id="line2d_42">
      <g>
       <use xlink:href="#mb330926326" x="424.804323" y="14.697747" style="stroke: #000000"/>
      </g>
     </g>
    </g>
    <g id="text_8">
     <!-- $c_{16}$ -->
     <g transform="translate(28.494961 189.412437) rotate(-90) scale(0.3 -0.3)">
      <defs>
       <path id="CMMI12-63" d="M 2502 2432 
C 2381 2432 2323 2432 2234 2355 
C 2195 2323 2125 2227 2125 2124 
C 2125 1996 2221 1919 2342 1919 
C 2496 1919 2669 2047 2669 2303 
C 2669 2591 2374 2816 1933 2816 
C 1094 2816 256 1932 256 1011 
C 256 446 602 -64 1254 -64 
C 2125 -64 2675 622 2675 706 
C 2675 745 2637 777 2611 777 
C 2592 777 2586 771 2528 712 
C 2118 161 1510 64 1267 64 
C 826 64 685 453 685 777 
C 685 1004 794 1634 1024 2073 
C 1190 2374 1536 2687 1939 2687 
C 2022 2687 2374 2676 2502 2432 
z
" transform="scale(0.015625)"/>
      </defs>
      <use xlink:href="#CMMI12-63" transform="scale(0.996264)"/>
      <use xlink:href="#CMR17-31" transform="translate(41.983234 -14.943915) scale(0.697382)"/>
      <use xlink:href="#CMR17-36" transform="translate(73.966416 -14.943915) scale(0.697382)"/>
     </g>
    </g>
   </g>
   <g id="line2d_43">
    <path d="M 103.396323 44.627601 
L 103.616194 82.858498 
L 104.031534 121.491945 
L 104.413598 139.871101 
L 104.973949 154.625362 
L 105.674883 167.648976 
L 106.534081 179.440029 
L 107.432036 188.789288 
L 108.566192 198.180047 
L 109.804995 206.478277 
L 111.534801 217.753351 
L 113.416099 230.92151 
L 114.333835 235.692478 
L 115.456704 239.786645 
L 116.41347 242.376319 
L 117.51648 244.730774 
L 118.687346 246.764688 
L 121.063143 250.286105 
L 123.09608 252.884042 
L 137.333129 268.441007 
L 139.669135 270.462356 
L 141.567548 271.796617 
L 143.723991 273.059825 
L 146.54628 274.428106 
L 149.781868 275.752978 
L 153.583662 277.050416 
L 158.470895 278.47481 
L 162.140087 279.62927 
L 164.335589 280.55653 
L 165.88364 281.47113 
L 168.104211 283.120723 
L 170.168028 284.549512 
L 172.784465 286.060887 
L 178.398117 288.967792 
L 186.712535 292.941546 
L 189.70608 294.123079 
L 196.400073 296.243638 
L 201.302414 297.471429 
L 209.534232 299.22041 
L 218.924935 300.98195 
L 231.305643 303.358821 
L 258.78974 308.780923 
L 275.382841 312.153905 
L 284.506977 313.708258 
L 294.182721 315.150957 
L 305.205954 316.577306 
L 319.051796 318.1567 
L 335.508357 319.844687 
L 354.935064 321.64592 
L 382.567411 324.074718 
L 402.296874 325.779576 
L 402.296874 325.779576 
" clip-path="url(#p91322ba8ee)" style="fill: none; stroke: #3f90da; stroke-width: 2; stroke-linecap: square"/>
   </g>
   <g id="line2d_44">
    <path d="M 103.396323 44.627601 
L 103.688069 48.988725 
L 103.916872 60.646701 
L 104.514308 83.974072 
L 104.681285 86.679921 
L 104.849201 92.081153 
L 105.043368 94.004602 
L 105.720717 105.475557 
L 105.864195 106.453742 
L 106.120389 109.173051 
L 106.435687 111.964525 
L 106.658428 113.519855 
L 108.075952 124.464263 
L 108.356958 125.305559 
L 108.703544 127.436909 
L 109.125767 132.423719 
L 109.549582 133.811235 
L 110.061728 135.775016 
L 110.696107 137.291818 
L 110.895683 137.652067 
L 111.568528 138.62171 
L 112.075832 139.896582 
L 112.415781 141.36806 
L 113.028039 141.85765 
L 113.306795 142.21064 
L 113.559809 143.109885 
L 114.08415 143.958491 
L 114.521157 144.560865 
L 115.338138 145.251742 
L 115.510081 145.484842 
L 115.81917 146.048615 
L 115.908483 146.14526 
L 116.445998 147.284116 
L 117.490181 148.038157 
L 117.714394 148.250087 
L 117.886065 148.553558 
L 118.868563 149.930715 
L 119.893845 150.501563 
L 120.62066 150.882616 
L 121.202363 151.076133 
L 121.56338 151.257294 
L 122.330972 151.523655 
L 122.763421 151.915503 
L 123.024466 152.583005 
L 123.452615 153.283504 
L 124.208468 153.770865 
L 125.522922 154.039443 
L 125.778695 154.116996 
L 125.86404 154.284095 
L 126.035527 154.363262 
L 126.43865 155.056606 
L 126.92993 155.389398 
L 127.187706 155.712392 
L 128.72149 156.114445 
L 128.947313 156.292077 
L 129.398253 158.260415 
L 129.826929 159.035646 
L 130.257842 159.314865 
L 134.153168 160.198308 
L 135.174232 160.397941 
L 135.993676 161.026031 
L 136.86483 161.16063 
L 137.717954 161.386385 
L 138.144894 161.89187 
L 138.406478 162.572935 
L 139.116137 165.98985 
L 139.431325 166.341279 
L 139.659419 166.656034 
L 139.880809 166.88868 
L 140.505509 167.160441 
L 141.604938 167.31796 
L 142.08785 167.429175 
L 143.848042 167.572928 
L 144.795392 167.818968 
L 144.910347 167.990463 
L 145.329348 170.187952 
L 145.554509 171.487993 
L 145.847341 172.11094 
L 147.340786 173.099202 
L 149.040391 173.448413 
L 150.891152 173.79346 
L 151.388121 173.84314 
L 153.358038 173.995875 
L 153.894885 174.234583 
L 155.247595 174.498798 
L 156.089567 175.033896 
L 157.138722 175.169777 
L 158.742462 175.356027 
L 159.602784 175.443563 
L 162.219078 175.676697 
L 162.975749 175.829025 
L 164.479903 176.019591 
L 164.911899 176.471824 
L 165.193542 176.709161 
L 165.672067 176.873784 
L 165.75536 177.053467 
L 166.231036 177.203773 
L 169.477629 177.407773 
L 170.214966 177.564585 
L 171.497222 177.665967 
L 172.648185 178.184479 
L 175.075998 178.357071 
L 175.643343 179.370931 
L 177.513727 179.830115 
L 183.112703 180.289767 
L 183.831993 180.631951 
L 186.47659 180.830314 
L 188.54369 181.025537 
L 190.055949 181.194684 
L 192.383494 181.359072 
L 195.042626 181.622169 
L 195.935684 181.750055 
L 199.361077 182.084903 
L 199.780517 182.279177 
L 205.710424 182.677062 
L 206.743039 182.819128 
L 211.236045 183.211199 
L 212.049354 183.716732 
L 212.677105 184.734244 
L 213.298934 184.88097 
L 214.473395 184.948652 
L 217.860721 185.186478 
L 219.089117 185.252306 
L 221.477429 185.39803 
L 223.542953 185.488599 
L 224.448498 185.578795 
L 224.929101 186.084058 
L 225.128812 186.944668 
L 225.800866 187.78606 
L 225.965064 187.94385 
L 226.243712 188.294943 
L 231.552647 188.679018 
L 233.730955 188.835737 
L 234.409854 188.965104 
L 235.197242 189.322886 
L 239.141261 189.687851 
L 239.560323 189.82982 
L 241.076245 190.147786 
L 250.422366 190.719481 
L 251.102475 191.136359 
L 251.410824 191.185619 
L 253.310418 191.357075 
L 256.331031 191.706103 
L 256.952718 191.766428 
L 260.432739 192.003421 
L 260.88383 192.241196 
L 261.611787 192.741338 
L 262.109817 192.819814 
L 267.734559 193.11701 
L 268.839325 193.178174 
L 269.876194 193.287323 
L 270.273504 193.459994 
L 270.899743 193.762979 
L 273.242094 194.127347 
L 273.79081 194.277959 
L 276.981423 194.557269 
L 278.279914 194.670369 
L 281.020918 194.804145 
L 281.230401 195.003291 
L 281.316771 195.094371 
L 281.623972 195.776027 
L 282.107507 195.953934 
L 284.102013 196.050069 
L 285.491793 196.172541 
L 287.870139 196.384408 
L 288.904862 196.482379 
L 289.63567 196.778253 
L 290.111144 196.896996 
L 293.230299 197.008523 
L 293.788452 197.084245 
L 294.29899 197.696239 
L 294.701104 198.25706 
L 295.139851 198.393156 
L 296.298897 198.531925 
L 297.222596 198.65735 
L 300.928643 198.881278 
L 301.906377 199.355487 
L 302.386346 199.460035 
L 304.542075 199.640062 
L 306.679398 199.777752 
L 309.145683 199.957849 
L 311.739869 200.107235 
L 312.914245 200.196963 
L 313.500218 200.296039 
L 314.483427 200.561912 
L 316.403965 200.692473 
L 317.803686 200.851724 
L 319.255493 201.186925 
L 324.740304 201.497224 
L 324.995777 201.646421 
L 325.204427 202.09618 
L 325.409555 203.145065 
L 325.662698 204.540574 
L 326.453398 205.2732 
L 326.618164 205.374456 
L 327.284605 205.860344 
L 329.934126 206.151362 
L 333.654234 206.356677 
L 335.70654 206.473138 
L 335.792601 206.546572 
L 335.878884 206.908379 
L 336.06124 207.187513 
L 336.145465 207.760696 
L 336.398804 210.594817 
L 336.790186 212.433868 
L 337.408574 213.27135 
L 339.438917 213.930194 
L 342.100335 214.12094 
L 344.939755 214.252321 
L 345.223862 214.356219 
L 346.218864 214.898529 
L 347.037414 215.064539 
L 350.320266 215.271559 
L 352.472238 215.396087 
L 352.781887 215.549122 
L 354.130989 215.859915 
L 358.195594 216.000951 
L 358.716146 216.122431 
L 358.890785 216.161495 
L 359.147244 216.414535 
L 359.562378 216.654258 
L 361.266617 216.802947 
L 369.363061 217.133432 
L 370.059458 217.326203 
L 370.1449 217.348116 
L 370.605444 218.04134 
L 371.506054 218.240649 
L 375.20256 218.533423 
L 375.812842 218.772568 
L 376.248452 218.846156 
L 377.699158 219.016336 
L 378.587176 219.145871 
L 380.961914 219.209825 
L 382.057944 219.306958 
L 383.0129 219.599515 
L 388.0122 219.877237 
L 388.924938 220.093713 
L 403.134682 220.702878 
L 404.590247 220.777213 
L 404.864869 221.018297 
L 405.197053 221.67793 
L 405.564862 222.100037 
L 405.845174 223.109913 
L 405.957741 224.377234 
L 406.285339 231.898849 
L 406.729219 234.634295 
L 407.496117 236.302352 
L 407.993427 236.782983 
L 408.363639 237.090183 
L 409.05145 237.324367 
L 409.418402 237.597419 
L 409.839575 237.788727 
L 413.427636 238.296892 
L 414.088118 238.393126 
L 414.639625 238.633648 
L 417.032547 238.76783 
L 419.894713 238.996441 
L 424.835835 239.170091 
L 424.835835 239.170091 
" clip-path="url(#p91322ba8ee)" style="fill: none; stroke-dasharray: 10,2; stroke-dashoffset: 0; stroke: #ffa90e; stroke-width: 2"/>
   </g>
   <g id="line2d_45">
    <path d="M 103.396323 44.627601 
L 103.602223 87.547117 
L 103.935804 119.345472 
L 104.392768 140.900705 
L 104.882684 153.259106 
L 105.576928 165.669557 
L 106.315746 175.173287 
L 107.497586 187.048842 
L 108.383495 194.10227 
L 110.494416 207.432359 
L 111.81624 215.093423 
L 111.850856 215.524183 
L 112.748854 218.170698 
L 113.221934 219.109532 
L 113.566039 220.065747 
L 113.793906 220.896864 
L 114.151804 221.355362 
L 114.283897 221.601322 
L 115.105931 222.029648 
L 115.25996 222.227403 
L 115.579491 223.320774 
L 116.01835 223.719466 
L 117.561713 224.289405 
L 118.612221 224.903672 
L 120.141259 225.312176 
L 122.761821 225.911845 
L 123.26309 226.080221 
L 125.108629 226.30221 
L 125.331009 226.420182 
L 125.55023 226.665302 
L 129.080389 227.064071 
L 129.980911 227.312491 
L 130.696767 227.837655 
L 133.137151 228.073717 
L 134.63109 228.183124 
L 135.755345 228.501968 
L 136.138912 228.744102 
L 138.171359 228.877749 
L 139.20015 228.956887 
L 140.203094 229.623925 
L 142.42595 229.860761 
L 145.269491 230.074712 
L 145.698489 230.154555 
L 146.925832 230.889206 
L 159.524393 231.645012 
L 162.939071 231.828867 
L 163.540485 231.88528 
L 167.565328 232.045487 
L 171.38527 232.207985 
L 171.842254 232.272807 
L 173.76218 232.357553 
L 180.003476 232.560355 
L 182.575848 232.685899 
L 188.598065 232.814767 
L 191.195658 232.991066 
L 192.904095 233.033055 
L 194.447132 233.135985 
L 194.604141 233.201401 
L 194.749229 233.398683 
L 195.422388 233.968756 
L 196.162842 236.127206 
L 198.020051 236.64834 
L 200.001835 236.694846 
L 211.98407 236.96789 
L 212.817683 237.248081 
L 213.52387 237.771632 
L 214.455334 238.201133 
L 218.343921 238.264715 
L 223.6196 238.405006 
L 224.606797 238.563096 
L 230.498656 238.860426 
L 237.00663 239.041181 
L 240.887415 239.179723 
L 244.952204 239.276512 
L 253.712457 239.449067 
L 254.078306 239.603114 
L 255.204792 239.924098 
L 266.93572 240.116244 
L 268.568972 240.19585 
L 269.01565 240.576761 
L 269.632956 241.402284 
L 270.216864 242.186538 
L 271.549126 242.80473 
L 275.317275 242.892813 
L 282.217801 243.062435 
L 284.437513 243.481134 
L 286.690617 243.590938 
L 296.438197 243.91118 
L 297.216547 244.04809 
L 299.251724 244.239176 
L 305.869305 244.534768 
L 322.564308 244.816989 
L 323.252505 245.06933 
L 323.404955 245.319882 
L 323.707906 245.452633 
L 323.862956 245.79937 
L 324.747987 246.306197 
L 325.118888 246.454278 
L 327.290847 246.642308 
L 331.566126 246.819083 
L 340.81381 247.052274 
L 341.326227 247.147761 
L 344.890004 247.399605 
L 352.487056 247.521376 
L 358.558412 247.707349 
L 392.004539 248.21774 
L 392.474768 248.456646 
L 392.719523 248.558071 
L 392.887048 248.968925 
L 394.127236 249.670929 
L 399.303858 249.881536 
L 402.819501 249.976452 
L 403.482129 250.335347 
L 403.671925 250.70219 
L 403.923688 252.75342 
L 404.340308 253.246111 
L 405.376857 255.615598 
L 406.140695 256.136593 
L 406.524985 256.472581 
L 409.481887 257.900507 
L 409.847059 258.005251 
L 410.449266 258.29667 
L 414.949849 258.616577 
L 417.846097 258.868756 
L 420.106704 259.024298 
L 421.484102 259.190789 
L 424.827513 259.244953 
L 424.827513 259.244953 
" clip-path="url(#p91322ba8ee)" style="fill: none; stroke-dasharray: 20,6; stroke-dashoffset: 10; stroke: #a96b59; stroke-width: 2"/>
   </g>
   <g id="line2d_46">
    <path d="M 103.396323 44.627601 
L 103.593427 87.547117 
L 103.895592 114.764139 
L 104.385497 137.672475 
L 104.908959 152.557179 
L 105.603148 166.17357 
L 106.423375 177.937346 
L 107.081096 184.905795 
L 109.439942 203.131643 
L 110.697358 209.894458 
L 111.880415 216.623658 
L 112.609096 221.256925 
L 113.552906 227.901587 
L 114.783387 233.45976 
L 115.798438 237.111644 
L 116.859293 239.974469 
L 117.974955 242.30216 
L 119.049581 244.130848 
L 119.947647 245.734125 
L 120.715696 246.864035 
L 120.913588 247.158635 
L 121.740555 247.69379 
L 122.116077 248.387137 
L 122.336068 248.671672 
L 122.67891 249.17829 
L 123.296632 249.473074 
L 124.843759 250.178171 
L 125.753504 250.44463 
L 126.456374 250.615003 
L 126.680316 250.824594 
L 126.998418 251.236249 
L 127.454133 251.564512 
L 128.352233 251.722551 
L 129.110634 252.322294 
L 129.627245 252.410316 
L 135.530961 253.117007 
L 136.8529 254.68467 
L 137.533309 254.772145 
L 140.858218 255.203418 
L 141.414227 255.753402 
L 141.639212 256.106309 
L 142.099287 256.217999 
L 145.379548 256.453379 
L 146.457775 256.504641 
L 147.031008 256.586079 
L 147.673619 256.751574 
L 148.990286 256.827331 
L 150.8535 256.940432 
L 151.739386 257.605953 
L 152.085663 257.952343 
L 152.574745 258.091377 
L 154.057102 258.284282 
L 156.378236 258.383237 
L 160.887106 258.593891 
L 165.004645 258.943698 
L 170.281417 259.073226 
L 171.020387 259.298427 
L 171.855597 259.531166 
L 180.634721 259.745575 
L 180.999716 260.083123 
L 181.083778 260.620622 
L 181.482096 261.063384 
L 181.707132 261.2664 
L 182.482541 261.452413 
L 185.640158 261.58383 
L 188.07571 261.71125 
L 189.51784 261.841776 
L 199.417998 262.030803 
L 212.161455 262.282649 
L 221.778495 262.802143 
L 222.821786 262.827647 
L 252.433276 263.19917 
L 253.020547 263.287915 
L 259.850681 263.374632 
L 263.50663 263.462381 
L 263.946636 263.625672 
L 264.323612 264.811695 
L 264.540264 265.111595 
L 264.889672 266.06576 
L 265.80146 266.489862 
L 266.979206 266.736517 
L 268.457788 266.785609 
L 282.605067 267.031107 
L 283.438999 267.106914 
L 302.270239 267.405279 
L 312.61512 267.52982 
L 315.921686 267.65959 
L 320.905435 267.739222 
L 322.196713 268.13059 
L 326.906787 268.189672 
L 334.914087 268.343008 
L 338.547533 268.395745 
L 348.643915 268.563959 
L 352.078575 268.714745 
L 352.921381 268.78844 
L 361.142704 268.895599 
L 361.805696 269.489167 
L 362.007523 270.149508 
L 362.332296 270.928092 
L 363.205208 272.110239 
L 363.446831 272.405431 
L 363.706708 272.69866 
L 365.293018 272.882429 
L 375.48241 273.203874 
L 376.849235 273.325494 
L 386.378967 273.510185 
L 386.965627 273.615775 
L 392.307439 273.72642 
L 397.333132 273.865686 
L 402.302699 274.030272 
L 413.157065 274.436989 
L 414.764763 274.495438 
L 415.023966 274.81423 
L 415.223742 275.234821 
L 415.584623 276.924623 
L 416.799121 277.586497 
L 417.512216 278.016046 
L 418.395121 278.270886 
L 419.419243 278.666358 
L 419.652971 278.848826 
L 421.269878 279.038179 
L 424.777463 279.334384 
L 424.86811 279.354074 
L 424.86811 279.354074 
" clip-path="url(#p91322ba8ee)" style="fill: none; stroke-dasharray: 2,2; stroke-dashoffset: 0; stroke: #b9ac70; stroke-width: 2"/>
   </g>
   <g id="line2d_47">
    <path d="M 103.396323 44.627601 
L 103.664029 78.440111 
L 104.202153 112.257344 
L 104.740368 130.913252 
L 105.253381 141.89168 
L 105.93607 151.841937 
L 107.033312 164.642049 
L 107.989342 172.659641 
L 109.16959 180.887615 
L 110.493084 188.504769 
L 111.964141 195.826107 
L 113.803268 203.131643 
L 118.794242 221.962125 
L 120.686246 229.453232 
L 121.699609 232.478164 
L 122.880482 235.414808 
L 124.342107 238.261591 
L 125.830621 240.429898 
L 127.620672 242.30216 
L 128.400498 243.157398 
L 130.381926 245.298823 
L 131.430337 246.206926 
L 134.51876 248.653219 
L 141.775411 253.677869 
L 144.298984 255.205759 
L 160.883748 265.015028 
L 160.883748 265.04878 
L 161.444034 266.285661 
L 162.760201 267.725177 
L 162.964937 268.143916 
L 163.258772 268.391563 
L 163.727201 268.66191 
L 165.586082 269.31519 
L 166.125753 269.587039 
L 166.368728 269.696671 
L 169.784006 270.352823 
L 170.251831 270.523645 
L 172.137024 270.689236 
L 172.560849 270.923089 
L 173.120855 271.214461 
L 177.243401 271.40122 
L 180.594171 271.538485 
L 183.29948 271.701181 
L 184.157322 271.918151 
L 185.537329 272.051547 
L 190.066095 272.236895 
L 190.984261 272.862439 
L 191.217009 273.139 
L 191.52306 273.377425 
L 192.468435 273.622435 
L 208.169567 274.04371 
L 214.179172 274.169 
L 214.753552 274.214736 
L 234.075434 274.530592 
L 236.797786 274.590213 
L 246.228263 274.749258 
L 249.764503 274.810602 
L 252.110119 274.927668 
L 252.864654 274.991739 
L 258.40839 275.059338 
L 272.249093 275.236239 
L 273.995233 275.681294 
L 279.942889 275.768109 
L 282.647397 275.880029 
L 302.361799 276.29459 
L 304.59773 276.540979 
L 319.013119 276.650405 
L 331.972309 276.778505 
L 333.255139 277.109595 
L 333.499083 277.396729 
L 334.901708 277.549137 
L 339.572729 277.595151 
L 388.353218 278.008389 
L 390.560817 278.030628 
L 408.835143 278.171672 
L 410.82955 278.229069 
L 423.332117 278.390974 
L 424.896387 278.394598 
L 424.896387 278.394598 
" clip-path="url(#p91322ba8ee)" style="fill: none; stroke-dasharray: 10,2,2,2,2,2; stroke-dashoffset: 0; stroke: #e76300; stroke-width: 2"/>
   </g>
   <g id="patch_3">
    <path d="M 90.004323 339.84 
L 90.004323 7.2 
" style="fill: none; stroke: #000000; stroke-width: 2; stroke-linejoin: miter; stroke-linecap: square"/>
   </g>
   <g id="patch_4">
    <path d="M 424.804323 339.84 
L 424.804323 7.2 
" style="fill: none; stroke: #000000; stroke-width: 2; stroke-linejoin: miter; stroke-linecap: square"/>
   </g>
   <g id="patch_5">
    <path d="M 90.004323 339.84 
L 424.804323 339.84 
" style="fill: none; stroke: #000000; stroke-width: 2; stroke-linejoin: miter; stroke-linecap: square"/>
   </g>
   <g id="patch_6">
    <path d="M 90.004323 7.2 
L 424.804323 7.2 
" style="fill: none; stroke: #000000; stroke-width: 2; stroke-linejoin: miter; stroke-linecap: square"/>
   </g>
   <g id="legend_1">
    <g id="line2d_48">
     <path d="M 463.144323 37.435969 
L 487.144323 37.435969 
L 511.144323 37.435969 
" style="fill: none; stroke: #3f90da; stroke-width: 2; stroke-linecap: square"/>
    </g>
    <g id="text_9">
     <!-- Alt -->
     <g transform="translate(530.344323 45.835969) scale(0.24 -0.24)">
      <defs>
       <path id="NimbusSanL-Regu-41" d="M 3034 1408 
L 3514 0 
L 4179 0 
L 2541 4672 
L 1773 4672 
L 109 0 
L 742 0 
L 1235 1408 
L 3034 1408 
z
M 2867 1907 
L 1382 1907 
L 2150 4032 
L 2867 1907 
z
" transform="scale(0.015625)"/>
       <path id="NimbusSanL-Regu-6c" d="M 973 4672 
L 435 4672 
L 435 0 
L 973 0 
L 973 4672 
z
" transform="scale(0.015625)"/>
       <path id="NimbusSanL-Regu-74" d="M 1626 3328 
L 1075 3328 
L 1075 4249 
L 544 4249 
L 544 3328 
L 90 3328 
L 90 2892 
L 544 2892 
L 544 402 
C 544 64 774 -128 1190 -128 
C 1318 -128 1446 -116 1626 -84 
L 1626 364 
C 1555 345 1472 339 1370 339 
C 1139 339 1075 402 1075 634 
L 1075 2892 
L 1626 2892 
L 1626 3328 
z
" transform="scale(0.015625)"/>
      </defs>
      <use xlink:href="#NimbusSanL-Regu-41" transform="scale(0.996264)"/>
      <use xlink:href="#NimbusSanL-Regu-6c" transform="translate(66.450031 0) scale(0.996264)"/>
      <use xlink:href="#NimbusSanL-Regu-74" transform="translate(88.566815 0) scale(0.996264)"/>
     </g>
    </g>
    <g id="line2d_49">
     <path d="M 463.144323 71.564702 
L 487.144323 71.564702 
L 511.144323 71.564702 
" style="fill: none; stroke-dasharray: 10,2; stroke-dashoffset: 0; stroke: #ffa90e; stroke-width: 2"/>
    </g>
    <g id="text_10">
     <!-- RCG -->
     <g transform="translate(530.344323 79.964702) scale(0.24 -0.24)">
      <defs>
       <path id="NimbusSanL-Regu-52" d="M 1190 2035 
L 2726 2035 
C 3258 2035 3494 1775 3494 1191 
L 3488 770 
C 3488 478 3539 192 3622 0 
L 4346 0 
L 4346 147 
C 4122 303 4077 471 4064 1101 
C 4058 1879 3936 2111 3430 2329 
C 3955 2585 4166 2907 4166 3432 
C 4166 4230 3661 4672 2746 4672 
L 595 4672 
L 595 0 
L 1190 0 
L 1190 2035 
z
M 1190 2560 
L 1190 4147 
L 2630 4147 
C 2963 4147 3155 4096 3302 3970 
C 3462 3837 3546 3628 3546 3350 
C 3546 2806 3264 2560 2630 2560 
L 1190 2560 
z
" transform="scale(0.015625)"/>
       <path id="NimbusSanL-Regu-43" d="M 4237 3219 
C 4051 4236 3462 4736 2438 4736 
C 1811 4736 1306 4537 960 4154 
C 538 3696 307 3035 307 2284 
C 307 1522 544 867 986 415 
C 1344 44 1805 -128 2413 -128 
C 3552 -128 4192 485 4333 1712 
L 3718 1712 
C 3667 1394 3603 1178 3507 994 
C 3315 612 2918 396 2419 396 
C 1491 396 902 1134 902 2291 
C 902 3480 1466 4211 2368 4211 
C 2746 4211 3098 4096 3290 3918 
C 3462 3759 3558 3562 3629 3219 
L 4237 3219 
z
" transform="scale(0.015625)"/>
       <path id="NimbusSanL-Regu-47" d="M 4538 2496 
L 2592 2496 
L 2592 1971 
L 4013 1971 
L 4013 1842 
C 4013 1003 3398 396 2547 396 
C 2074 396 1645 571 1370 874 
C 1062 1209 877 1771 877 2348 
C 877 3472 1530 4211 2515 4211 
C 3226 4211 3738 3854 3866 3265 
L 4474 3265 
C 4307 4192 3590 4736 2522 4736 
C 1952 4736 1491 4588 1126 4287 
C 589 3848 282 3140 282 2316 
C 282 874 1158 -128 2419 -128 
C 3053 -128 3558 108 4013 616 
L 4160 -7 
L 4538 -7 
L 4538 2496 
z
" transform="scale(0.015625)"/>
      </defs>
      <use xlink:href="#NimbusSanL-Regu-52" transform="scale(0.996264)"/>
      <use xlink:href="#NimbusSanL-Regu-43" transform="translate(71.929985 0) scale(0.996264)"/>
      <use xlink:href="#NimbusSanL-Regu-47" transform="translate(143.85997 0) scale(0.996264)"/>
     </g>
    </g>
    <g id="line2d_50">
     <path d="M 463.144323 105.693435 
L 487.144323 105.693435 
L 511.144323 105.693435 
" style="fill: none; stroke-dasharray: 20,6; stroke-dashoffset: 10; stroke: #a96b59; stroke-width: 2"/>
    </g>
    <g id="text_11">
     <!-- Alt-iter250-RCG -->
     <g transform="translate(530.344323 114.093435) scale(0.24 -0.24)">
      <defs>
       <path id="NimbusSanL-Regu-2d" d="M 1818 1996 
L 294 1996 
L 294 1536 
L 1818 1536 
L 1818 1996 
z
" transform="scale(0.015625)"/>
       <path id="NimbusSanL-Regu-72" d="M 442 3328 
L 442 0 
L 979 0 
L 979 1727 
C 979 2203 1101 2514 1357 2698 
C 1523 2819 1683 2857 2054 2863 
L 2054 3404 
C 1965 3449 1920 3456 1850 3456 
C 1504 3456 1242 3251 934 2750 
L 934 3328 
L 442 3328 
z
" transform="scale(0.015625)"/>
       <path id="NimbusSanL-Regu-32" d="M 3238 556 
L 851 556 
C 909 928 1114 1165 1670 1493 
L 2310 1839 
C 2944 2185 3270 2653 3270 3211 
C 3270 3589 3117 3942 2848 4185 
C 2579 4428 2246 4544 1818 4544 
C 1242 4544 813 4339 563 3955 
C 403 3711 333 3429 320 2967 
L 883 2967 
C 902 3275 941 3461 1018 3608 
C 1165 3884 1459 4051 1798 4051 
C 2310 4051 2694 3685 2694 3198 
C 2694 2839 2483 2531 2080 2300 
L 1491 1967 
C 544 1428 269 999 218 0 
L 3238 0 
L 3238 556 
z
" transform="scale(0.015625)"/>
       <path id="NimbusSanL-Regu-35" d="M 3046 4544 
L 704 4544 
L 365 2076 
L 883 2076 
C 1146 2387 1363 2496 1715 2496 
C 2323 2496 2707 2082 2707 1414 
C 2707 765 2330 371 1715 371 
C 1222 371 922 619 787 1128 
L 224 1128 
C 301 759 365 581 499 415 
C 755 70 1216 -128 1728 -128 
C 2643 -128 3283 536 3283 1490 
C 3283 2381 2688 2995 1818 2995 
C 1498 2995 1242 2912 979 2720 
L 1158 3987 
L 3046 3987 
L 3046 4544 
z
" transform="scale(0.015625)"/>
       <path id="NimbusSanL-Regu-30" d="M 1760 4544 
C 1338 4544 954 4358 717 4044 
C 422 3649 275 3043 275 2207 
C 275 683 787 -128 1760 -128 
C 2720 -128 3245 683 3245 2169 
C 3245 3049 3104 3636 2803 4044 
C 2566 4364 2189 4544 1760 4544 
z
M 1760 4044 
C 2368 4044 2669 3432 2669 2220 
C 2669 938 2374 339 1747 339 
C 1152 339 851 964 851 2201 
C 851 3438 1152 4044 1760 4044 
z
" transform="scale(0.015625)"/>
      </defs>
      <use xlink:href="#NimbusSanL-Regu-41" transform="scale(0.996264)"/>
      <use xlink:href="#NimbusSanL-Regu-6c" transform="translate(66.450031 0) scale(0.996264)"/>
      <use xlink:href="#NimbusSanL-Regu-74" transform="translate(88.566815 0) scale(0.996264)"/>
      <use xlink:href="#NimbusSanL-Regu-2d" transform="translate(116.261985 0) scale(0.996264)"/>
      <use xlink:href="#NimbusSanL-Regu-69" transform="translate(149.437215 0) scale(0.996264)"/>
      <use xlink:href="#NimbusSanL-Regu-74" transform="translate(171.553999 0) scale(0.996264)"/>
      <use xlink:href="#NimbusSanL-Regu-65" transform="translate(199.249169 0) scale(0.996264)"/>
      <use xlink:href="#NimbusSanL-Regu-72" transform="translate(254.640846 0) scale(0.996264)"/>
      <use xlink:href="#NimbusSanL-Regu-32" transform="translate(287.816075 0) scale(0.996264)"/>
      <use xlink:href="#NimbusSanL-Regu-35" transform="translate(343.207752 0) scale(0.996264)"/>
      <use xlink:href="#NimbusSanL-Regu-30" transform="translate(398.599429 0) scale(0.996264)"/>
      <use xlink:href="#NimbusSanL-Regu-2d" transform="translate(453.991106 0) scale(0.996264)"/>
      <use xlink:href="#NimbusSanL-Regu-52" transform="translate(487.166336 0) scale(0.996264)"/>
      <use xlink:href="#NimbusSanL-Regu-43" transform="translate(559.096321 0) scale(0.996264)"/>
      <use xlink:href="#NimbusSanL-Regu-47" transform="translate(631.026306 0) scale(0.996264)"/>
     </g>
    </g>
    <g id="line2d_51">
     <path d="M 463.144323 139.822167 
L 487.144323 139.822167 
L 511.144323 139.822167 
" style="fill: none; stroke-dasharray: 2,2; stroke-dashoffset: 0; stroke: #b9ac70; stroke-width: 2"/>
    </g>
    <g id="text_12">
     <!-- Alt-iter500-RCG -->
     <g transform="translate(530.344323 148.222167) scale(0.24 -0.24)">
      <use xlink:href="#NimbusSanL-Regu-41" transform="scale(0.996264)"/>
      <use xlink:href="#NimbusSanL-Regu-6c" transform="translate(66.450031 0) scale(0.996264)"/>
      <use xlink:href="#NimbusSanL-Regu-74" transform="translate(88.566815 0) scale(0.996264)"/>
      <use xlink:href="#NimbusSanL-Regu-2d" transform="translate(116.261985 0) scale(0.996264)"/>
      <use xlink:href="#NimbusSanL-Regu-69" transform="translate(149.437215 0) scale(0.996264)"/>
      <use xlink:href="#NimbusSanL-Regu-74" transform="translate(171.553999 0) scale(0.996264)"/>
      <use xlink:href="#NimbusSanL-Regu-65" transform="translate(199.249169 0) scale(0.996264)"/>
      <use xlink:href="#NimbusSanL-Regu-72" transform="translate(254.640846 0) scale(0.996264)"/>
      <use xlink:href="#NimbusSanL-Regu-35" transform="translate(287.816075 0) scale(0.996264)"/>
      <use xlink:href="#NimbusSanL-Regu-30" transform="translate(343.207752 0) scale(0.996264)"/>
      <use xlink:href="#NimbusSanL-Regu-30" transform="translate(398.599429 0) scale(0.996264)"/>
      <use xlink:href="#NimbusSanL-Regu-2d" transform="translate(453.991106 0) scale(0.996264)"/>
      <use xlink:href="#NimbusSanL-Regu-52" transform="translate(487.166336 0) scale(0.996264)"/>
      <use xlink:href="#NimbusSanL-Regu-43" transform="translate(559.096321 0) scale(0.996264)"/>
      <use xlink:href="#NimbusSanL-Regu-47" transform="translate(631.026306 0) scale(0.996264)"/>
     </g>
    </g>
    <g id="line2d_52">
     <path d="M 463.144323 173.9509 
L 487.144323 173.9509 
L 511.144323 173.9509 
" style="fill: none; stroke-dasharray: 10,2,2,2,2,2; stroke-dashoffset: 0; stroke: #e76300; stroke-width: 2"/>
    </g>
    <g id="text_13">
     <!-- Alt-iter1000-RCG -->
     <g transform="translate(530.344323 182.3509) scale(0.24 -0.24)">
      <defs>
       <path id="NimbusSanL-Regu-31" d="M 1658 3232 
L 1658 0 
L 2221 0 
L 2221 4537 
L 1850 4537 
C 1651 3840 1523 3744 653 3635 
L 653 3232 
L 1658 3232 
z
" transform="scale(0.015625)"/>
      </defs>
      <use xlink:href="#NimbusSanL-Regu-41" transform="scale(0.996264)"/>
      <use xlink:href="#NimbusSanL-Regu-6c" transform="translate(66.450031 0) scale(0.996264)"/>
      <use xlink:href="#NimbusSanL-Regu-74" transform="translate(88.566815 0) scale(0.996264)"/>
      <use xlink:href="#NimbusSanL-Regu-2d" transform="translate(116.261985 0) scale(0.996264)"/>
      <use xlink:href="#NimbusSanL-Regu-69" transform="translate(149.437215 0) scale(0.996264)"/>
      <use xlink:href="#NimbusSanL-Regu-74" transform="translate(171.553999 0) scale(0.996264)"/>
      <use xlink:href="#NimbusSanL-Regu-65" transform="translate(199.249169 0) scale(0.996264)"/>
      <use xlink:href="#NimbusSanL-Regu-72" transform="translate(254.640846 0) scale(0.996264)"/>
      <use xlink:href="#NimbusSanL-Regu-31" transform="translate(287.816075 0) scale(0.996264)"/>
      <use xlink:href="#NimbusSanL-Regu-30" transform="translate(343.207752 0) scale(0.996264)"/>
      <use xlink:href="#NimbusSanL-Regu-30" transform="translate(398.599429 0) scale(0.996264)"/>
      <use xlink:href="#NimbusSanL-Regu-30" transform="translate(453.991106 0) scale(0.996264)"/>
      <use xlink:href="#NimbusSanL-Regu-2d" transform="translate(509.382783 0) scale(0.996264)"/>
      <use xlink:href="#NimbusSanL-Regu-52" transform="translate(542.558013 0) scale(0.996264)"/>
      <use xlink:href="#NimbusSanL-Regu-43" transform="translate(614.487998 0) scale(0.996264)"/>
      <use xlink:href="#NimbusSanL-Regu-47" transform="translate(686.417983 0) scale(0.996264)"/>
     </g>
    </g>
   </g>
  </g>
 </g>
 <defs>
  <clipPath id="p91322ba8ee">
   <rect x="90.004323" y="7.2" width="334.8" height="332.64"/>
  </clipPath>
 </defs>
</svg>
