<?xml version="1.0" encoding="utf-8" standalone="no"?>
<!DOCTYPE svg PUBLIC "-//W3C//DTD SVG 1.1//EN"
  "http://www.w3.org/Graphics/SVG/1.1/DTD/svg11.dtd">
<svg xmlns:xlink="http://www.w3.org/1999/xlink" width="754.804323pt" height="434.646755pt" viewBox="0 0 754.804323 434.646755" xmlns="http://www.w3.org/2000/svg" version="1.1">
 <metadata>
  <rdf:RDF xmlns:dc="http://purl.org/dc/elements/1.1/" xmlns:cc="http://creativecommons.org/ns#" xmlns:rdf="http://www.w3.org/1999/02/22-rdf-syntax-ns#">
   <cc:Work>
    <dc:type rdf:resource="http://purl.org/dc/dcmitype/StillImage"/>
    <dc:date>2026-03-11T15:22:00.545698</dc:date>
    <dc:format>image/svg+xml</dc:format>
    <dc:creator>
     <cc:Agent>
      <dc:title>Matplotlib v3.8.0, https://matplotlib.org/</dc:title>
     </cc:Agent>
    </dc:creator>
   </cc:Work>
  </rdf:RDF>
 </metadata>
 <defs>
  <style type="text/css">*{stroke-linejoin: round; stroke-linecap: butt}</style>
 </defs>
 <g id="figure_1">
  <g id="patch_1">
   <path d="M 0 434.646755 
L 754.804323 434.646755 
L 754.804323 0 
L 0 0 
L 0 434.646755 
z
" style="fill: none"/>
  </g>
  <g id="axes_1">
   <g id="patch_2">
    <path d="M 90.004323 361.104 
L 424.804323 361.104 
L 424.804323 28.464 
L 90.004323 28.464 
L 90.004323 361.104 
z
" style="fill: none"/>
   </g>
   <g id="matplotlib.axis_1">
    <g id="xtick_1">
     <g id="line2d_1">
      <defs>
       <path id="m29f5d5c8a8" d="M 0 0 
L 0 -10 
" style="stroke: #000000; stroke-width: 2"/>
      </defs>
      <g>
       <use xlink:href="#m29f5d5c8a8" x="103.396323" y="361.104" style="stroke: #000000; stroke-width: 2"/>
      </g>
     </g>
     <g id="line2d_2">
      <defs>
       <path id="mbe16ee326a" d="M 0 0 
L 0 10 
" style="stroke: #000000; stroke-width: 2"/>
      </defs>
      <g>
       <use xlink:href="#mbe16ee326a" x="103.396323" y="28.464" style="stroke: #000000; stroke-width: 2"/>
      </g>
     </g>
     <g id="text_1">
      <!-- $\mathdefault{0}$ -->
      <g transform="translate(97.913466 390.139969) scale(0.24 -0.24)">
       <defs>
        <path id="CMR17-30" d="M 2688 2038 
C 2688 2430 2682 3099 2413 3613 
C 2176 4063 1798 4224 1466 4224 
C 1158 4224 768 4082 525 3620 
C 269 3137 243 2539 243 2038 
C 243 1671 250 1112 448 623 
C 723 -39 1216 -128 1466 -128 
C 1760 -128 2208 -7 2470 604 
C 2662 1048 2688 1568 2688 2038 
z
M 1466 -26 
C 1056 -26 813 328 723 816 
C 653 1196 653 1749 653 2109 
C 653 2604 653 3015 736 3407 
C 858 3954 1216 4121 1466 4121 
C 1728 4121 2067 3947 2189 3420 
C 2272 3054 2278 2623 2278 2109 
C 2278 1691 2278 1176 2202 797 
C 2067 96 1690 -26 1466 -26 
z
" transform="scale(0.015625)"/>
       </defs>
       <use xlink:href="#CMR17-30" transform="scale(0.996264)"/>
      </g>
     </g>
    </g>
    <g id="xtick_2">
     <g id="line2d_3">
      <g>
       <use xlink:href="#m29f5d5c8a8" x="210.532323" y="361.104" style="stroke: #000000; stroke-width: 2"/>
      </g>
     </g>
     <g id="line2d_4">
      <g>
       <use xlink:href="#mbe16ee326a" x="210.532323" y="28.464" style="stroke: #000000; stroke-width: 2"/>
      </g>
     </g>
     <g id="text_2">
      <!-- $\mathdefault{20}$ -->
      <g transform="translate(199.566609 390.139969) scale(0.24 -0.24)">
       <defs>
        <path id="CMR17-32" d="M 2669 990 
L 2554 990 
C 2490 537 2438 460 2413 422 
C 2381 371 1920 371 1830 371 
L 602 371 
C 832 620 1280 1073 1824 1596 
C 2214 1966 2669 2400 2669 3033 
C 2669 3788 2067 4224 1395 4224 
C 691 4224 262 3603 262 3027 
C 262 2777 448 2745 525 2745 
C 589 2745 781 2783 781 3007 
C 781 3206 614 3264 525 3264 
C 486 3264 448 3257 422 3244 
C 544 3788 915 4057 1306 4057 
C 1862 4057 2227 3616 2227 3033 
C 2227 2477 1901 1998 1536 1583 
L 262 147 
L 262 0 
L 2515 0 
L 2669 990 
z
" transform="scale(0.015625)"/>
       </defs>
       <use xlink:href="#CMR17-32" transform="scale(0.996264)"/>
       <use xlink:href="#CMR17-30" transform="translate(45.690477 0) scale(0.996264)"/>
      </g>
     </g>
    </g>
    <g id="xtick_3">
     <g id="line2d_5">
      <g>
       <use xlink:href="#m29f5d5c8a8" x="317.668323" y="361.104" style="stroke: #000000; stroke-width: 2"/>
      </g>
     </g>
     <g id="line2d_6">
      <g>
       <use xlink:href="#mbe16ee326a" x="317.668323" y="28.464" style="stroke: #000000; stroke-width: 2"/>
      </g>
     </g>
     <g id="text_3">
      <!-- $\mathdefault{40}$ -->
      <g transform="translate(306.702609 390.139969) scale(0.24 -0.24)">
       <defs>
        <path id="CMR17-34" d="M 2150 4147 
C 2150 4281 2144 4288 2029 4288 
L 128 1254 
L 128 1088 
L 1779 1088 
L 1779 460 
C 1779 230 1766 166 1318 166 
L 1197 166 
L 1197 0 
C 1402 12 1747 12 1965 12 
C 2182 12 2528 12 2733 0 
L 2733 166 
L 2611 166 
C 2163 166 2150 230 2150 460 
L 2150 1088 
L 2803 1088 
L 2803 1254 
L 2150 1254 
L 2150 4147 
z
M 1798 3723 
L 1798 1254 
L 256 1254 
L 1798 3723 
z
" transform="scale(0.015625)"/>
       </defs>
       <use xlink:href="#CMR17-34" transform="scale(0.996264)"/>
       <use xlink:href="#CMR17-30" transform="translate(45.690477 0) scale(0.996264)"/>
      </g>
     </g>
    </g>
    <g id="xtick_4">
     <g id="line2d_7">
      <g>
       <use xlink:href="#m29f5d5c8a8" x="424.804323" y="361.104" style="stroke: #000000; stroke-width: 2"/>
      </g>
     </g>
     <g id="line2d_8">
      <g>
       <use xlink:href="#mbe16ee326a" x="424.804323" y="28.464" style="stroke: #000000; stroke-width: 2"/>
      </g>
     </g>
     <g id="text_4">
      <!-- $\mathdefault{60}$ -->
      <g transform="translate(413.838609 390.139969) scale(0.24 -0.24)">
       <defs>
        <path id="CMR17-36" d="M 678 2198 
C 678 3712 1395 4076 1811 4076 
C 1946 4076 2272 4049 2400 3782 
C 2298 3782 2106 3782 2106 3558 
C 2106 3385 2246 3328 2336 3328 
C 2394 3328 2566 3353 2566 3571 
C 2566 3987 2246 4224 1805 4224 
C 1043 4224 243 3411 243 2011 
C 243 257 966 -128 1478 -128 
C 2099 -128 2688 431 2688 1295 
C 2688 2101 2170 2688 1517 2688 
C 1126 2688 838 2430 678 1979 
L 678 2198 
z
M 1478 25 
C 691 25 691 1212 691 1450 
C 691 1914 909 2585 1504 2585 
C 1613 2585 1926 2585 2138 2140 
C 2253 1889 2253 1624 2253 1302 
C 2253 954 2253 696 2118 438 
C 1978 173 1773 25 1478 25 
z
" transform="scale(0.015625)"/>
       </defs>
       <use xlink:href="#CMR17-36" transform="scale(0.996264)"/>
       <use xlink:href="#CMR17-30" transform="translate(45.690477 0) scale(0.996264)"/>
      </g>
     </g>
    </g>
    <g id="text_5">
     <!-- Time (s) -->
     <g transform="translate(202.620239 421.080795) scale(0.3 -0.3)">
      <defs>
       <path id="NimbusSanL-Regu-54" d="M 2266 4147 
L 3795 4147 
L 3795 4672 
L 134 4672 
L 134 4147 
L 1670 4147 
L 1670 0 
L 2266 0 
L 2266 4147 
z
" transform="scale(0.015625)"/>
       <path id="NimbusSanL-Regu-69" d="M 960 3358 
L 429 3358 
L 429 0 
L 960 0 
L 960 3358 
z
M 960 4672 
L 422 4672 
L 422 3999 
L 960 3999 
L 960 4672 
z
" transform="scale(0.015625)"/>
       <path id="NimbusSanL-Regu-6d" d="M 448 3328 
L 448 0 
L 986 0 
L 986 2089 
C 986 2597 1338 2988 1773 2988 
C 2170 2988 2394 2744 2394 2315 
L 2394 0 
L 2931 0 
L 2931 2109 
C 2931 2597 3283 2988 3718 2988 
C 4109 2988 4339 2738 4339 2315 
L 4339 0 
L 4877 0 
L 4877 2520 
C 4877 3123 4531 3456 3904 3456 
C 3456 3456 3187 3321 2874 2943 
C 2675 3302 2406 3456 1971 3456 
C 1523 3456 1229 3289 941 2886 
L 941 3328 
L 448 3328 
z
" transform="scale(0.015625)"/>
       <path id="NimbusSanL-Regu-65" d="M 3283 1484 
C 3283 1998 3245 2311 3149 2565 
C 2931 3123 2419 3456 1792 3456 
C 858 3456 256 2734 256 1619 
C 256 545 838 -128 1779 -128 
C 2547 -128 3078 307 3213 1018 
L 2675 1018 
C 2528 588 2227 364 1798 364 
C 1459 364 1171 514 992 787 
C 864 974 819 1161 813 1484 
L 3283 1484 
z
M 826 1920 
C 870 2552 1248 2963 1786 2963 
C 2310 2963 2714 2519 2714 1959 
C 2714 1946 2714 1933 2707 1920 
L 826 1920 
z
" transform="scale(0.015625)"/>
       <path id="NimbusSanL-Regu-28" d="M 1510 4672 
C 870 3833 467 2668 467 1663 
C 467 652 870 -513 1510 -1351 
L 1862 -1351 
C 1299 -436 986 639 986 1663 
C 986 2681 1299 3763 1862 4672 
L 1510 4672 
z
" transform="scale(0.015625)"/>
       <path id="NimbusSanL-Regu-73" d="M 2803 2428 
C 2797 3084 2362 3456 1587 3456 
C 806 3456 301 3052 301 2434 
C 301 1912 570 1663 1363 1472 
L 1862 1351 
C 2234 1262 2381 1129 2381 887 
C 2381 574 2067 364 1600 364 
C 1312 364 1069 447 934 587 
C 851 683 813 778 781 1014 
L 218 1014 
C 243 243 678 -128 1555 -128 
C 2400 -128 2938 288 2938 931 
C 2938 1428 2656 1702 1990 1861 
L 1478 1982 
C 1043 2084 858 2224 858 2459 
C 858 2765 1133 2963 1568 2963 
C 1997 2963 2227 2778 2240 2428 
L 2803 2428 
z
" transform="scale(0.015625)"/>
       <path id="NimbusSanL-Regu-29" d="M 595 -1351 
C 1235 -513 1638 652 1638 1657 
C 1638 2668 1235 3833 595 4672 
L 243 4672 
C 806 3756 1120 2681 1120 1657 
C 1120 639 806 -442 243 -1351 
L 595 -1351 
z
" transform="scale(0.015625)"/>
      </defs>
      <use xlink:href="#NimbusSanL-Regu-54" transform="scale(0.996264)"/>
      <use xlink:href="#NimbusSanL-Regu-69" transform="translate(60.871631 0) scale(0.996264)"/>
      <use xlink:href="#NimbusSanL-Regu-6d" transform="translate(82.988415 0) scale(0.996264)"/>
      <use xlink:href="#NimbusSanL-Regu-65" transform="translate(165.976845 0) scale(0.996264)"/>
      <use xlink:href="#NimbusSanL-Regu-28" transform="translate(249.063692 0) scale(0.996264)"/>
      <use xlink:href="#NimbusSanL-Regu-73" transform="translate(282.238922 0) scale(0.996264)"/>
      <use xlink:href="#NimbusSanL-Regu-29" transform="translate(332.052122 0) scale(0.996264)"/>
     </g>
    </g>
   </g>
   <g id="matplotlib.axis_2">
    <g id="ytick_1">
     <g id="line2d_9">
      <defs>
       <path id="m118059617c" d="M 0 0 
L 10 0 
" style="stroke: #000000; stroke-width: 2"/>
      </defs>
      <g>
       <use xlink:href="#m118059617c" x="90.004323" y="271.626424" style="stroke: #000000; stroke-width: 2"/>
      </g>
     </g>
     <g id="line2d_10">
      <defs>
       <path id="mefd84fa711" d="M 0 0 
L -10 0 
" style="stroke: #000000; stroke-width: 2"/>
      </defs>
      <g>
       <use xlink:href="#mefd84fa711" x="424.804323" y="271.626424" style="stroke: #000000; stroke-width: 2"/>
      </g>
     </g>
     <g id="text_6">
      <!-- $\mathdefault{10^{-5}}$ -->
      <g transform="translate(38.86092 280.144409) scale(0.24 -0.24)">
       <defs>
        <path id="CMR17-31" d="M 1702 4083 
C 1702 4217 1696 4224 1606 4224 
C 1357 3927 979 3833 621 3820 
C 602 3820 570 3820 563 3808 
C 557 3795 557 3782 557 3648 
C 755 3648 1088 3686 1344 3839 
L 1344 467 
C 1344 243 1331 166 781 166 
L 589 166 
L 589 0 
C 896 6 1216 12 1523 12 
C 1830 12 2150 6 2458 0 
L 2458 166 
L 2266 166 
C 1715 166 1702 236 1702 467 
L 1702 4083 
z
" transform="scale(0.015625)"/>
        <path id="CMSY10-0" d="M 4218 1472 
C 4326 1472 4442 1472 4442 1600 
C 4442 1728 4326 1728 4218 1728 
L 755 1728 
C 646 1728 531 1728 531 1600 
C 531 1472 646 1472 755 1472 
L 4218 1472 
z
" transform="scale(0.015625)"/>
        <path id="CMR17-35" d="M 730 3750 
C 794 3724 1056 3641 1325 3641 
C 1920 3641 2246 3961 2432 4140 
C 2432 4191 2432 4224 2394 4224 
C 2387 4224 2374 4224 2323 4198 
C 2099 4102 1837 4032 1517 4032 
C 1325 4032 1037 4055 723 4191 
C 653 4224 640 4224 634 4224 
C 602 4224 595 4217 595 4090 
L 595 2231 
C 595 2113 595 2080 659 2080 
C 691 2080 704 2093 736 2139 
C 941 2435 1222 2560 1542 2560 
C 1766 2560 2246 2415 2246 1293 
C 2246 1087 2246 716 2054 422 
C 1894 159 1645 25 1370 25 
C 947 25 518 319 403 812 
C 429 806 480 793 506 793 
C 589 793 749 838 749 1036 
C 749 1209 627 1280 506 1280 
C 358 1280 262 1190 262 1011 
C 262 454 704 -128 1382 -128 
C 2042 -128 2669 441 2669 1267 
C 2669 2054 2170 2662 1549 2662 
C 1222 2662 947 2540 730 2304 
L 730 3750 
z
" transform="scale(0.015625)"/>
       </defs>
       <use xlink:href="#CMR17-31" transform="scale(0.996264)"/>
       <use xlink:href="#CMR17-30" transform="translate(45.690477 0) scale(0.996264)"/>
       <use xlink:href="#CMSY10-0" transform="translate(91.380954 36.153639) scale(0.697382)"/>
       <use xlink:href="#CMR17-35" transform="translate(145.621947 36.153639) scale(0.697382)"/>
      </g>
     </g>
    </g>
    <g id="ytick_2">
     <g id="line2d_11">
      <g>
       <use xlink:href="#m118059617c" x="90.004323" y="90.489419" style="stroke: #000000; stroke-width: 2"/>
      </g>
     </g>
     <g id="line2d_12">
      <g>
       <use xlink:href="#mefd84fa711" x="424.804323" y="90.489419" style="stroke: #000000; stroke-width: 2"/>
      </g>
     </g>
     <g id="text_7">
      <!-- $\mathdefault{10^{-4}}$ -->
      <g transform="translate(38.86092 99.007403) scale(0.24 -0.24)">
       <use xlink:href="#CMR17-31" transform="scale(0.996264)"/>
       <use xlink:href="#CMR17-30" transform="translate(45.690477 0) scale(0.996264)"/>
       <use xlink:href="#CMSY10-0" transform="translate(91.380954 36.153639) scale(0.697382)"/>
       <use xlink:href="#CMR17-34" transform="translate(145.621947 36.153639) scale(0.697382)"/>
      </g>
     </g>
    </g>
    <g id="ytick_3">
     <g id="line2d_13">
      <defs>
       <path id="m93921a7da8" d="M 0 0 
L 4 0 
" style="stroke: #000000"/>
      </defs>
      <g>
       <use xlink:href="#m93921a7da8" x="90.004323" y="343.708086" style="stroke: #000000"/>
      </g>
     </g>
     <g id="line2d_14">
      <defs>
       <path id="m24ab65bd06" d="M 0 0 
L -4 0 
" style="stroke: #000000"/>
      </defs>
      <g>
       <use xlink:href="#m24ab65bd06" x="424.804323" y="343.708086" style="stroke: #000000"/>
      </g>
     </g>
    </g>
    <g id="ytick_4">
     <g id="line2d_15">
      <g>
       <use xlink:href="#m93921a7da8" x="90.004323" y="326.154096" style="stroke: #000000"/>
      </g>
     </g>
     <g id="line2d_16">
      <g>
       <use xlink:href="#m24ab65bd06" x="424.804323" y="326.154096" style="stroke: #000000"/>
      </g>
     </g>
    </g>
    <g id="ytick_5">
     <g id="line2d_17">
      <g>
       <use xlink:href="#m93921a7da8" x="90.004323" y="311.811442" style="stroke: #000000"/>
      </g>
     </g>
     <g id="line2d_18">
      <g>
       <use xlink:href="#m24ab65bd06" x="424.804323" y="311.811442" style="stroke: #000000"/>
      </g>
     </g>
    </g>
    <g id="ytick_6">
     <g id="line2d_19">
      <g>
       <use xlink:href="#m93921a7da8" x="90.004323" y="299.684901" style="stroke: #000000"/>
      </g>
     </g>
     <g id="line2d_20">
      <g>
       <use xlink:href="#m24ab65bd06" x="424.804323" y="299.684901" style="stroke: #000000"/>
      </g>
     </g>
    </g>
    <g id="ytick_7">
     <g id="line2d_21">
      <g>
       <use xlink:href="#m93921a7da8" x="90.004323" y="289.180414" style="stroke: #000000"/>
      </g>
     </g>
     <g id="line2d_22">
      <g>
       <use xlink:href="#m24ab65bd06" x="424.804323" y="289.180414" style="stroke: #000000"/>
      </g>
     </g>
    </g>
    <g id="ytick_8">
     <g id="line2d_23">
      <g>
       <use xlink:href="#m93921a7da8" x="90.004323" y="279.914799" style="stroke: #000000"/>
      </g>
     </g>
     <g id="line2d_24">
      <g>
       <use xlink:href="#m24ab65bd06" x="424.804323" y="279.914799" style="stroke: #000000"/>
      </g>
     </g>
    </g>
    <g id="ytick_9">
     <g id="line2d_25">
      <g>
       <use xlink:href="#m93921a7da8" x="90.004323" y="217.098752" style="stroke: #000000"/>
      </g>
     </g>
     <g id="line2d_26">
      <g>
       <use xlink:href="#m24ab65bd06" x="424.804323" y="217.098752" style="stroke: #000000"/>
      </g>
     </g>
    </g>
    <g id="ytick_10">
     <g id="line2d_27">
      <g>
       <use xlink:href="#m93921a7da8" x="90.004323" y="185.202109" style="stroke: #000000"/>
      </g>
     </g>
     <g id="line2d_28">
      <g>
       <use xlink:href="#m24ab65bd06" x="424.804323" y="185.202109" style="stroke: #000000"/>
      </g>
     </g>
    </g>
    <g id="ytick_11">
     <g id="line2d_29">
      <g>
       <use xlink:href="#m93921a7da8" x="90.004323" y="162.57108" style="stroke: #000000"/>
      </g>
     </g>
     <g id="line2d_30">
      <g>
       <use xlink:href="#m24ab65bd06" x="424.804323" y="162.57108" style="stroke: #000000"/>
      </g>
     </g>
    </g>
    <g id="ytick_12">
     <g id="line2d_31">
      <g>
       <use xlink:href="#m93921a7da8" x="90.004323" y="145.017091" style="stroke: #000000"/>
      </g>
     </g>
     <g id="line2d_32">
      <g>
       <use xlink:href="#m24ab65bd06" x="424.804323" y="145.017091" style="stroke: #000000"/>
      </g>
     </g>
    </g>
    <g id="ytick_13">
     <g id="line2d_33">
      <g>
       <use xlink:href="#m93921a7da8" x="90.004323" y="130.674437" style="stroke: #000000"/>
      </g>
     </g>
     <g id="line2d_34">
      <g>
       <use xlink:href="#m24ab65bd06" x="424.804323" y="130.674437" style="stroke: #000000"/>
      </g>
     </g>
    </g>
    <g id="ytick_14">
     <g id="line2d_35">
      <g>
       <use xlink:href="#m93921a7da8" x="90.004323" y="118.547896" style="stroke: #000000"/>
      </g>
     </g>
     <g id="line2d_36">
      <g>
       <use xlink:href="#m24ab65bd06" x="424.804323" y="118.547896" style="stroke: #000000"/>
      </g>
     </g>
    </g>
    <g id="ytick_15">
     <g id="line2d_37">
      <g>
       <use xlink:href="#m93921a7da8" x="90.004323" y="108.043408" style="stroke: #000000"/>
      </g>
     </g>
     <g id="line2d_38">
      <g>
       <use xlink:href="#m24ab65bd06" x="424.804323" y="108.043408" style="stroke: #000000"/>
      </g>
     </g>
    </g>
    <g id="ytick_16">
     <g id="line2d_39">
      <g>
       <use xlink:href="#m93921a7da8" x="90.004323" y="98.777794" style="stroke: #000000"/>
      </g>
     </g>
     <g id="line2d_40">
      <g>
       <use xlink:href="#m24ab65bd06" x="424.804323" y="98.777794" style="stroke: #000000"/>
      </g>
     </g>
    </g>
    <g id="ytick_17">
     <g id="line2d_41">
      <g>
       <use xlink:href="#m93921a7da8" x="90.004323" y="35.961747" style="stroke: #000000"/>
      </g>
     </g>
     <g id="line2d_42">
      <g>
       <use xlink:href="#m24ab65bd06" x="424.804323" y="35.961747" style="stroke: #000000"/>
      </g>
     </g>
    </g>
    <g id="text_8">
     <!-- $c_{16}$ -->
     <g transform="translate(28.494961 210.676437) rotate(-90) scale(0.3 -0.3)">
      <defs>
       <path id="CMMI12-63" d="M 2502 2432 
C 2381 2432 2323 2432 2234 2355 
C 2195 2323 2125 2227 2125 2124 
C 2125 1996 2221 1919 2342 1919 
C 2496 1919 2669 2047 2669 2303 
C 2669 2591 2374 2816 1933 2816 
C 1094 2816 256 1932 256 1011 
C 256 446 602 -64 1254 -64 
C 2125 -64 2675 622 2675 706 
C 2675 745 2637 777 2611 777 
C 2592 777 2586 771 2528 712 
C 2118 161 1510 64 1267 64 
C 826 64 685 453 685 777 
C 685 1004 794 1634 1024 2073 
C 1190 2374 1536 2687 1939 2687 
C 2022 2687 2374 2676 2502 2432 
z
" transform="scale(0.015625)"/>
      </defs>
      <use xlink:href="#CMMI12-63" transform="scale(0.996264)"/>
      <use xlink:href="#CMR17-31" transform="translate(41.983234 -14.943915) scale(0.697382)"/>
      <use xlink:href="#CMR17-36" transform="translate(73.966416 -14.943915) scale(0.697382)"/>
     </g>
    </g>
   </g>
   <g id="line2d_43">
    <path d="M 103.396323 65.891601 
L 103.616194 104.122498 
L 104.031534 142.755945 
L 104.413598 161.135101 
L 104.973949 175.889362 
L 105.674883 188.912976 
L 106.534081 200.704029 
L 107.432036 210.053288 
L 108.566192 219.444047 
L 109.804995 227.742277 
L 111.534801 239.017351 
L 113.416099 252.18551 
L 114.333835 256.956478 
L 115.456704 261.050645 
L 116.41347 263.640319 
L 117.51648 265.994774 
L 118.687346 268.028688 
L 121.063143 271.550105 
L 123.09608 274.148042 
L 137.333129 289.705007 
L 139.669135 291.726356 
L 141.567548 293.060617 
L 143.723991 294.323825 
L 146.54628 295.692106 
L 149.781868 297.016978 
L 153.583662 298.314416 
L 158.470895 299.73881 
L 162.140087 300.89327 
L 164.335589 301.82053 
L 165.88364 302.73513 
L 168.104211 304.384723 
L 170.168028 305.813512 
L 172.784465 307.324887 
L 178.398117 310.231792 
L 186.712535 314.205546 
L 189.70608 315.387079 
L 196.400073 317.507638 
L 201.302414 318.735429 
L 209.534232 320.48441 
L 218.924935 322.24595 
L 231.305643 324.622821 
L 258.78974 330.044923 
L 275.382841 333.417905 
L 284.506977 334.972258 
L 294.182721 336.414957 
L 305.205954 337.841306 
L 319.051796 339.4207 
L 335.508357 341.108687 
L 354.935064 342.90992 
L 382.567411 345.338718 
L 402.296874 347.043576 
L 402.296874 347.043576 
" clip-path="url(#p361d7c7e54)" style="fill: none; stroke: #3f90da; stroke-width: 2; stroke-linecap: square"/>
   </g>
   <g id="line2d_44">
    <path d="M 103.396323 65.891601 
L 103.688069 70.252725 
L 103.916872 81.910701 
L 104.514308 105.238072 
L 104.681285 107.943921 
L 104.849201 113.345153 
L 105.043368 115.268602 
L 105.720717 126.739557 
L 105.864195 127.717742 
L 106.120389 130.437051 
L 106.435687 133.228525 
L 106.658428 134.783855 
L 108.075952 145.728263 
L 108.356958 146.569559 
L 108.703544 148.700909 
L 109.125767 153.687719 
L 109.549582 155.075235 
L 110.061728 157.039016 
L 110.696107 158.555818 
L 110.895683 158.916067 
L 111.568528 159.88571 
L 112.075832 161.160582 
L 112.415781 162.63206 
L 113.028039 163.12165 
L 113.306795 163.47464 
L 113.559809 164.373885 
L 114.08415 165.222491 
L 114.521157 165.824865 
L 115.338138 166.515742 
L 115.510081 166.748842 
L 115.81917 167.312615 
L 115.908483 167.40926 
L 116.445998 168.548116 
L 117.490181 169.302157 
L 117.714394 169.514087 
L 117.886065 169.817558 
L 118.868563 171.194715 
L 119.893845 171.765563 
L 120.62066 172.146616 
L 121.202363 172.340133 
L 121.56338 172.521294 
L 122.330972 172.787655 
L 122.763421 173.179503 
L 123.024466 173.847005 
L 123.452615 174.547504 
L 124.208468 175.034865 
L 125.522922 175.303443 
L 125.778695 175.380996 
L 125.86404 175.548095 
L 126.035527 175.627262 
L 126.43865 176.320606 
L 126.92993 176.653398 
L 127.187706 176.976392 
L 128.72149 177.378445 
L 128.947313 177.556077 
L 129.398253 179.524415 
L 129.826929 180.299646 
L 130.257842 180.578865 
L 134.153168 181.462308 
L 135.174232 181.661941 
L 135.993676 182.290031 
L 136.86483 182.42463 
L 137.717954 182.650385 
L 138.144894 183.15587 
L 138.406478 183.836935 
L 139.116137 187.25385 
L 139.431325 187.605279 
L 139.659419 187.920034 
L 139.880809 188.15268 
L 140.505509 188.424441 
L 141.604938 188.58196 
L 142.08785 188.693175 
L 143.848042 188.836928 
L 144.795392 189.082968 
L 144.910347 189.254463 
L 145.329348 191.451952 
L 145.554509 192.751993 
L 145.847341 193.37494 
L 147.340786 194.363202 
L 149.040391 194.712413 
L 150.891152 195.05746 
L 151.388121 195.10714 
L 153.358038 195.259875 
L 153.894885 195.498583 
L 155.247595 195.762798 
L 156.089567 196.297896 
L 157.138722 196.433777 
L 158.742462 196.620027 
L 159.602784 196.707563 
L 162.219078 196.940697 
L 162.975749 197.093025 
L 164.479903 197.283591 
L 164.911899 197.735824 
L 165.193542 197.973161 
L 165.672067 198.137784 
L 165.75536 198.317467 
L 166.231036 198.467773 
L 169.477629 198.671773 
L 170.214966 198.828585 
L 171.497222 198.929967 
L 172.648185 199.448479 
L 175.075998 199.621071 
L 175.643343 200.634931 
L 177.513727 201.094115 
L 183.112703 201.553767 
L 183.831993 201.895951 
L 186.47659 202.094314 
L 188.54369 202.289537 
L 190.055949 202.458684 
L 192.383494 202.623072 
L 195.042626 202.886169 
L 195.935684 203.014055 
L 199.361077 203.348903 
L 199.780517 203.543177 
L 205.710424 203.941062 
L 206.743039 204.083128 
L 211.236045 204.475199 
L 212.049354 204.980732 
L 212.677105 205.998244 
L 213.298934 206.14497 
L 214.473395 206.212652 
L 217.860721 206.450478 
L 219.089117 206.516306 
L 221.477429 206.66203 
L 223.542953 206.752599 
L 224.448498 206.842795 
L 224.929101 207.348058 
L 225.128812 208.208668 
L 225.800866 209.05006 
L 225.965064 209.20785 
L 226.243712 209.558943 
L 231.552647 209.943018 
L 233.730955 210.099737 
L 234.409854 210.229104 
L 235.197242 210.586886 
L 239.141261 210.951851 
L 239.560323 211.09382 
L 241.076245 211.411786 
L 250.422366 211.983481 
L 251.102475 212.400359 
L 251.410824 212.449619 
L 253.310418 212.621075 
L 256.331031 212.970103 
L 256.952718 213.030428 
L 260.432739 213.267421 
L 260.88383 213.505196 
L 261.611787 214.005338 
L 262.109817 214.083814 
L 267.734559 214.38101 
L 268.839325 214.442174 
L 269.876194 214.551323 
L 270.273504 214.723994 
L 270.899743 215.026979 
L 273.242094 215.391347 
L 273.79081 215.541959 
L 276.981423 215.821269 
L 278.279914 215.934369 
L 281.020918 216.068145 
L 281.230401 216.267291 
L 281.316771 216.358371 
L 281.623972 217.040027 
L 282.107507 217.217934 
L 284.102013 217.314069 
L 285.491793 217.436541 
L 287.870139 217.648408 
L 288.904862 217.746379 
L 289.63567 218.042253 
L 290.111144 218.160996 
L 293.230299 218.272523 
L 293.788452 218.348245 
L 294.29899 218.960239 
L 294.701104 219.52106 
L 295.139851 219.657156 
L 296.298897 219.795925 
L 297.222596 219.92135 
L 300.928643 220.145278 
L 301.906377 220.619487 
L 302.386346 220.724035 
L 304.542075 220.904062 
L 306.679398 221.041752 
L 309.145683 221.221849 
L 311.739869 221.371235 
L 312.914245 221.460963 
L 313.500218 221.560039 
L 314.483427 221.825912 
L 316.403965 221.956473 
L 317.803686 222.115724 
L 319.255493 222.450925 
L 324.740304 222.761224 
L 324.995777 222.910421 
L 325.204427 223.36018 
L 325.409555 224.409065 
L 325.662698 225.804574 
L 326.453398 226.5372 
L 326.618164 226.638456 
L 327.284605 227.124344 
L 329.934126 227.415362 
L 333.654234 227.620677 
L 335.70654 227.737138 
L 335.792601 227.810572 
L 335.878884 228.172379 
L 336.06124 228.451513 
L 336.145465 229.024696 
L 336.398804 231.858817 
L 336.790186 233.697868 
L 337.408574 234.53535 
L 339.438917 235.194194 
L 342.100335 235.38494 
L 344.939755 235.516321 
L 345.223862 235.620219 
L 346.218864 236.162529 
L 347.037414 236.328539 
L 350.320266 236.535559 
L 352.472238 236.660087 
L 352.781887 236.813122 
L 354.130989 237.123915 
L 358.195594 237.264951 
L 358.716146 237.386431 
L 358.890785 237.425495 
L 359.147244 237.678535 
L 359.562378 237.918258 
L 361.266617 238.066947 
L 369.363061 238.397432 
L 370.059458 238.590203 
L 370.1449 238.612116 
L 370.605444 239.30534 
L 371.506054 239.504649 
L 375.20256 239.797423 
L 375.812842 240.036568 
L 376.248452 240.110156 
L 377.699158 240.280336 
L 378.587176 240.409871 
L 380.961914 240.473825 
L 382.057944 240.570958 
L 383.0129 240.863515 
L 388.0122 241.141237 
L 388.924938 241.357713 
L 403.134682 241.966878 
L 404.590247 242.041213 
L 404.864869 242.282297 
L 405.197053 242.94193 
L 405.564862 243.364037 
L 405.845174 244.373913 
L 405.957741 245.641234 
L 406.285339 253.162849 
L 406.729219 255.898295 
L 407.496117 257.566352 
L 407.993427 258.046983 
L 408.363639 258.354183 
L 409.05145 258.588367 
L 409.418402 258.861419 
L 409.839575 259.052727 
L 413.427636 259.560892 
L 414.088118 259.657126 
L 414.639625 259.897648 
L 417.032547 260.03183 
L 419.894713 260.260441 
L 424.835835 260.434091 
L 424.835835 260.434091 
" clip-path="url(#p361d7c7e54)" style="fill: none; stroke-dasharray: 10,2; stroke-dashoffset: 0; stroke: #ffa90e; stroke-width: 2"/>
   </g>
   <g id="line2d_45">
    <path d="M 103.396323 65.891601 
L 103.602223 108.811117 
L 103.935804 140.609472 
L 104.392768 162.164705 
L 104.882684 174.523106 
L 105.576928 186.933557 
L 106.315746 196.437287 
L 107.497586 208.312842 
L 108.383495 215.36627 
L 110.494416 228.696359 
L 111.81624 236.357423 
L 111.850856 236.788183 
L 112.748854 239.434698 
L 113.221934 240.373532 
L 113.566039 241.329747 
L 113.793906 242.160864 
L 114.151804 242.619362 
L 114.283897 242.865322 
L 115.105931 243.293648 
L 115.25996 243.491403 
L 115.579491 244.584774 
L 116.01835 244.983466 
L 117.561713 245.553405 
L 118.612221 246.167672 
L 120.141259 246.576176 
L 122.761821 247.175845 
L 123.26309 247.344221 
L 125.108629 247.56621 
L 125.331009 247.684182 
L 125.55023 247.929302 
L 129.080389 248.328071 
L 129.980911 248.576491 
L 130.696767 249.101655 
L 133.137151 249.337717 
L 134.63109 249.447124 
L 135.755345 249.765968 
L 136.138912 250.008102 
L 138.171359 250.141749 
L 139.20015 250.220887 
L 140.203094 250.887925 
L 142.42595 251.124761 
L 145.269491 251.338712 
L 145.698489 251.418555 
L 146.925832 252.153206 
L 159.524393 252.909012 
L 162.939071 253.092867 
L 163.540485 253.14928 
L 167.565328 253.309487 
L 171.38527 253.471985 
L 171.842254 253.536807 
L 173.76218 253.621553 
L 180.003476 253.824355 
L 182.575848 253.949899 
L 188.598065 254.078767 
L 191.195658 254.255066 
L 192.904095 254.297055 
L 194.447132 254.399985 
L 194.604141 254.465401 
L 194.749229 254.662683 
L 195.422388 255.232756 
L 196.162842 257.391206 
L 198.020051 257.91234 
L 200.001835 257.958846 
L 211.98407 258.23189 
L 212.817683 258.512081 
L 213.52387 259.035632 
L 214.455334 259.465133 
L 218.343921 259.528715 
L 223.6196 259.669006 
L 224.606797 259.827096 
L 230.498656 260.124426 
L 237.00663 260.305181 
L 240.887415 260.443723 
L 244.952204 260.540512 
L 253.712457 260.713067 
L 254.078306 260.867114 
L 255.204792 261.188098 
L 266.93572 261.380244 
L 268.568972 261.45985 
L 269.01565 261.840761 
L 269.632956 262.666284 
L 270.216864 263.450538 
L 271.549126 264.06873 
L 275.317275 264.156813 
L 282.217801 264.326435 
L 284.437513 264.745134 
L 286.690617 264.854938 
L 296.438197 265.17518 
L 297.216547 265.31209 
L 299.251724 265.503176 
L 305.869305 265.798768 
L 322.564308 266.080989 
L 323.252505 266.33333 
L 323.404955 266.583882 
L 323.707906 266.716633 
L 323.862956 267.06337 
L 324.747987 267.570197 
L 325.118888 267.718278 
L 327.290847 267.906308 
L 331.566126 268.083083 
L 340.81381 268.316274 
L 341.326227 268.411761 
L 344.890004 268.663605 
L 352.487056 268.785376 
L 358.558412 268.971349 
L 392.004539 269.48174 
L 392.474768 269.720646 
L 392.719523 269.822071 
L 392.887048 270.232925 
L 394.127236 270.934929 
L 399.303858 271.145536 
L 402.819501 271.240452 
L 403.482129 271.599347 
L 403.671925 271.96619 
L 403.923688 274.01742 
L 404.340308 274.510111 
L 405.376857 276.879598 
L 406.140695 277.400593 
L 406.524985 277.736581 
L 409.481887 279.164507 
L 409.847059 279.269251 
L 410.449266 279.56067 
L 414.949849 279.880577 
L 417.846097 280.132756 
L 420.106704 280.288298 
L 421.484102 280.454789 
L 424.827513 280.508953 
L 424.827513 280.508953 
" clip-path="url(#p361d7c7e54)" style="fill: none; stroke-dasharray: 20,6; stroke-dashoffset: 10; stroke: #a96b59; stroke-width: 2"/>
   </g>
   <g id="line2d_46">
    <path d="M 103.396323 65.891601 
L 103.593427 108.811117 
L 103.895592 136.028139 
L 104.385497 158.936475 
L 104.908959 173.821179 
L 105.603148 187.43757 
L 106.423375 199.201346 
L 107.081096 206.169795 
L 109.439942 224.395643 
L 110.697358 231.158458 
L 111.880415 237.887658 
L 112.609096 242.520925 
L 113.552906 249.165587 
L 114.783387 254.72376 
L 115.798438 258.375644 
L 116.859293 261.238469 
L 117.974955 263.56616 
L 119.049581 265.394848 
L 119.947647 266.998125 
L 120.715696 268.128035 
L 120.913588 268.422635 
L 121.740555 268.95779 
L 122.116077 269.651137 
L 122.336068 269.935672 
L 122.67891 270.44229 
L 123.296632 270.737074 
L 124.843759 271.442171 
L 125.753504 271.70863 
L 126.456374 271.879003 
L 126.680316 272.088594 
L 126.998418 272.500249 
L 127.454133 272.828512 
L 128.352233 272.986551 
L 129.110634 273.586294 
L 129.627245 273.674316 
L 135.530961 274.381007 
L 136.8529 275.94867 
L 137.533309 276.036145 
L 140.858218 276.467418 
L 141.414227 277.017402 
L 141.639212 277.370309 
L 142.099287 277.481999 
L 145.379548 277.717379 
L 146.457775 277.768641 
L 147.031008 277.850079 
L 147.673619 278.015574 
L 148.990286 278.091331 
L 150.8535 278.204432 
L 151.739386 278.869953 
L 152.085663 279.216343 
L 152.574745 279.355377 
L 154.057102 279.548282 
L 156.378236 279.647237 
L 160.887106 279.857891 
L 165.004645 280.207698 
L 170.281417 280.337226 
L 171.020387 280.562427 
L 171.855597 280.795166 
L 180.634721 281.009575 
L 180.999716 281.347123 
L 181.083778 281.884622 
L 181.482096 282.327384 
L 181.707132 282.5304 
L 182.482541 282.716413 
L 185.640158 282.84783 
L 188.07571 282.97525 
L 189.51784 283.105776 
L 199.417998 283.294803 
L 212.161455 283.546649 
L 221.778495 284.066143 
L 222.821786 284.091647 
L 252.433276 284.46317 
L 253.020547 284.551915 
L 259.850681 284.638632 
L 263.50663 284.726381 
L 263.946636 284.889672 
L 264.323612 286.075695 
L 264.540264 286.375595 
L 264.889672 287.32976 
L 265.80146 287.753862 
L 266.979206 288.000517 
L 268.457788 288.049609 
L 282.605067 288.295107 
L 283.438999 288.370914 
L 302.270239 288.669279 
L 312.61512 288.79382 
L 315.921686 288.92359 
L 320.905435 289.003222 
L 322.196713 289.39459 
L 326.906787 289.453672 
L 334.914087 289.607008 
L 338.547533 289.659745 
L 348.643915 289.827959 
L 352.078575 289.978745 
L 352.921381 290.05244 
L 361.142704 290.159599 
L 361.805696 290.753167 
L 362.007523 291.413508 
L 362.332296 292.192092 
L 363.205208 293.374239 
L 363.446831 293.669431 
L 363.706708 293.96266 
L 365.293018 294.146429 
L 375.48241 294.467874 
L 376.849235 294.589494 
L 386.378967 294.774185 
L 386.965627 294.879775 
L 392.307439 294.99042 
L 397.333132 295.129686 
L 402.302699 295.294272 
L 413.157065 295.700989 
L 414.764763 295.759438 
L 415.023966 296.07823 
L 415.223742 296.498821 
L 415.584623 298.188623 
L 416.799121 298.850497 
L 417.512216 299.280046 
L 418.395121 299.534886 
L 419.419243 299.930358 
L 419.652971 300.112826 
L 421.269878 300.302179 
L 424.777463 300.598384 
L 424.86811 300.618074 
L 424.86811 300.618074 
" clip-path="url(#p361d7c7e54)" style="fill: none; stroke-dasharray: 2,2; stroke-dashoffset: 0; stroke: #b9ac70; stroke-width: 2"/>
   </g>
   <g id="line2d_47">
    <path d="M 103.396323 65.891601 
L 103.664029 99.704111 
L 104.202153 133.521344 
L 104.740368 152.177252 
L 105.253381 163.15568 
L 105.93607 173.105937 
L 107.033312 185.906049 
L 107.989342 193.923641 
L 109.16959 202.151615 
L 110.493084 209.768769 
L 111.964141 217.090107 
L 113.803268 224.395643 
L 118.794242 243.226125 
L 120.686246 250.717232 
L 121.699609 253.742164 
L 122.880482 256.678808 
L 124.342107 259.525591 
L 125.830621 261.693898 
L 127.620672 263.56616 
L 128.400498 264.421398 
L 130.381926 266.562823 
L 131.430337 267.470926 
L 134.51876 269.917219 
L 141.775411 274.941869 
L 144.298984 276.469759 
L 160.883748 286.279028 
L 160.883748 286.31278 
L 161.444034 287.549661 
L 162.760201 288.989177 
L 162.964937 289.407916 
L 163.258772 289.655563 
L 163.727201 289.92591 
L 165.586082 290.57919 
L 166.125753 290.851039 
L 166.368728 290.960671 
L 169.784006 291.616823 
L 170.251831 291.787645 
L 172.137024 291.953236 
L 172.560849 292.187089 
L 173.120855 292.478461 
L 177.243401 292.66522 
L 180.594171 292.802485 
L 183.29948 292.965181 
L 184.157322 293.182151 
L 185.537329 293.315547 
L 190.066095 293.500895 
L 190.984261 294.126439 
L 191.217009 294.403 
L 191.52306 294.641425 
L 192.468435 294.886435 
L 208.169567 295.30771 
L 214.179172 295.433 
L 214.753552 295.478736 
L 234.075434 295.794592 
L 236.797786 295.854213 
L 246.228263 296.013258 
L 249.764503 296.074602 
L 252.110119 296.191668 
L 252.864654 296.255739 
L 258.40839 296.323338 
L 272.249093 296.500239 
L 273.995233 296.945294 
L 279.942889 297.032109 
L 282.647397 297.144029 
L 302.361799 297.55859 
L 304.59773 297.804979 
L 319.013119 297.914405 
L 331.972309 298.042505 
L 333.255139 298.373595 
L 333.499083 298.660729 
L 334.901708 298.813137 
L 339.572729 298.859151 
L 388.353218 299.272389 
L 390.560817 299.294628 
L 408.835143 299.435672 
L 410.82955 299.493069 
L 423.332117 299.654974 
L 424.896387 299.658598 
L 424.896387 299.658598 
" clip-path="url(#p361d7c7e54)" style="fill: none; stroke-dasharray: 10,2,2,2,2,2; stroke-dashoffset: 0; stroke: #e76300; stroke-width: 2"/>
   </g>
   <g id="patch_3">
    <path d="M 90.004323 361.104 
L 90.004323 28.464 
" style="fill: none; stroke: #000000; stroke-width: 2; stroke-linejoin: miter; stroke-linecap: square"/>
   </g>
   <g id="patch_4">
    <path d="M 424.804323 361.104 
L 424.804323 28.464 
" style="fill: none; stroke: #000000; stroke-width: 2; stroke-linejoin: miter; stroke-linecap: square"/>
   </g>
   <g id="patch_5">
    <path d="M 90.004323 361.104 
L 424.804323 361.104 
" style="fill: none; stroke: #000000; stroke-width: 2; stroke-linejoin: miter; stroke-linecap: square"/>
   </g>
   <g id="patch_6">
    <path d="M 90.004323 28.464 
L 424.804323 28.464 
" style="fill: none; stroke: #000000; stroke-width: 2; stroke-linejoin: miter; stroke-linecap: square"/>
   </g>
   <g id="legend_1">
    <g id="line2d_48">
     <path d="M 514.050019 25.435969 
L 538.050019 25.435969 
L 562.050019 25.435969 
" style="fill: none; stroke: #3f90da; stroke-width: 2; stroke-linecap: square"/>
    </g>
    <g id="text_9">
     <!-- Alt -->
     <g transform="translate(581.250019 33.835969) scale(0.24 -0.24)">
      <defs>
       <path id="NimbusSanL-Regu-41" d="M 3034 1408 
L 3514 0 
L 4179 0 
L 2541 4672 
L 1773 4672 
L 109 0 
L 742 0 
L 1235 1408 
L 3034 1408 
z
M 2867 1907 
L 1382 1907 
L 2150 4032 
L 2867 1907 
z
" transform="scale(0.015625)"/>
       <path id="NimbusSanL-Regu-6c" d="M 973 4672 
L 435 4672 
L 435 0 
L 973 0 
L 973 4672 
z
" transform="scale(0.015625)"/>
       <path id="NimbusSanL-Regu-74" d="M 1626 3328 
L 1075 3328 
L 1075 4249 
L 544 4249 
L 544 3328 
L 90 3328 
L 90 2892 
L 544 2892 
L 544 402 
C 544 64 774 -128 1190 -128 
C 1318 -128 1446 -116 1626 -84 
L 1626 364 
C 1555 345 1472 339 1370 339 
C 1139 339 1075 402 1075 634 
L 1075 2892 
L 1626 2892 
L 1626 3328 
z
" transform="scale(0.015625)"/>
      </defs>
      <use xlink:href="#NimbusSanL-Regu-41" transform="scale(0.996264)"/>
      <use xlink:href="#NimbusSanL-Regu-6c" transform="translate(66.450031 0) scale(0.996264)"/>
      <use xlink:href="#NimbusSanL-Regu-74" transform="translate(88.566815 0) scale(0.996264)"/>
     </g>
    </g>
    <g id="line2d_49">
     <path d="M 514.050019 59.564702 
L 538.050019 59.564702 
L 562.050019 59.564702 
" style="fill: none; stroke-dasharray: 10,2; stroke-dashoffset: 0; stroke: #ffa90e; stroke-width: 2"/>
    </g>
    <g id="text_10">
     <!-- RCG -->
     <g transform="translate(581.250019 67.964702) scale(0.24 -0.24)">
      <defs>
       <path id="NimbusSanL-Regu-52" d="M 1190 2035 
L 2726 2035 
C 3258 2035 3494 1775 3494 1191 
L 3488 770 
C 3488 478 3539 192 3622 0 
L 4346 0 
L 4346 147 
C 4122 303 4077 471 4064 1101 
C 4058 1879 3936 2111 3430 2329 
C 3955 2585 4166 2907 4166 3432 
C 4166 4230 3661 4672 2746 4672 
L 595 4672 
L 595 0 
L 1190 0 
L 1190 2035 
z
M 1190 2560 
L 1190 4147 
L 2630 4147 
C 2963 4147 3155 4096 3302 3970 
C 3462 3837 3546 3628 3546 3350 
C 3546 2806 3264 2560 2630 2560 
L 1190 2560 
z
" transform="scale(0.015625)"/>
       <path id="NimbusSanL-Regu-43" d="M 4237 3219 
C 4051 4236 3462 4736 2438 4736 
C 1811 4736 1306 4537 960 4154 
C 538 3696 307 3035 307 2284 
C 307 1522 544 867 986 415 
C 1344 44 1805 -128 2413 -128 
C 3552 -128 4192 485 4333 1712 
L 3718 1712 
C 3667 1394 3603 1178 3507 994 
C 3315 612 2918 396 2419 396 
C 1491 396 902 1134 902 2291 
C 902 3480 1466 4211 2368 4211 
C 2746 4211 3098 4096 3290 3918 
C 3462 3759 3558 3562 3629 3219 
L 4237 3219 
z
" transform="scale(0.015625)"/>
       <path id="NimbusSanL-Regu-47" d="M 4538 2496 
L 2592 2496 
L 2592 1971 
L 4013 1971 
L 4013 1842 
C 4013 1003 3398 396 2547 396 
C 2074 396 1645 571 1370 874 
C 1062 1209 877 1771 877 2348 
C 877 3472 1530 4211 2515 4211 
C 3226 4211 3738 3854 3866 3265 
L 4474 3265 
C 4307 4192 3590 4736 2522 4736 
C 1952 4736 1491 4588 1126 4287 
C 589 3848 282 3140 282 2316 
C 282 874 1158 -128 2419 -128 
C 3053 -128 3558 108 4013 616 
L 4160 -7 
L 4538 -7 
L 4538 2496 
z
" transform="scale(0.015625)"/>
      </defs>
      <use xlink:href="#NimbusSanL-Regu-52" transform="scale(0.996264)"/>
      <use xlink:href="#NimbusSanL-Regu-43" transform="translate(71.929985 0) scale(0.996264)"/>
      <use xlink:href="#NimbusSanL-Regu-47" transform="translate(143.85997 0) scale(0.996264)"/>
     </g>
    </g>
    <g id="line2d_50">
     <path d="M 514.050019 93.693435 
L 538.050019 93.693435 
L 562.050019 93.693435 
" style="fill: none; stroke-dasharray: 20,6; stroke-dashoffset: 10; stroke: #a96b59; stroke-width: 2"/>
    </g>
    <g id="text_11">
     <!-- Alt-iter5-RCG -->
     <g transform="translate(581.250019 102.093435) scale(0.24 -0.24)">
      <defs>
       <path id="NimbusSanL-Regu-2d" d="M 1818 1996 
L 294 1996 
L 294 1536 
L 1818 1536 
L 1818 1996 
z
" transform="scale(0.015625)"/>
       <path id="NimbusSanL-Regu-72" d="M 442 3328 
L 442 0 
L 979 0 
L 979 1727 
C 979 2203 1101 2514 1357 2698 
C 1523 2819 1683 2857 2054 2863 
L 2054 3404 
C 1965 3449 1920 3456 1850 3456 
C 1504 3456 1242 3251 934 2750 
L 934 3328 
L 442 3328 
z
" transform="scale(0.015625)"/>
       <path id="NimbusSanL-Regu-35" d="M 3046 4544 
L 704 4544 
L 365 2076 
L 883 2076 
C 1146 2387 1363 2496 1715 2496 
C 2323 2496 2707 2082 2707 1414 
C 2707 765 2330 371 1715 371 
C 1222 371 922 619 787 1128 
L 224 1128 
C 301 759 365 581 499 415 
C 755 70 1216 -128 1728 -128 
C 2643 -128 3283 536 3283 1490 
C 3283 2381 2688 2995 1818 2995 
C 1498 2995 1242 2912 979 2720 
L 1158 3987 
L 3046 3987 
L 3046 4544 
z
" transform="scale(0.015625)"/>
      </defs>
      <use xlink:href="#NimbusSanL-Regu-41" transform="scale(0.996264)"/>
      <use xlink:href="#NimbusSanL-Regu-6c" transform="translate(66.450031 0) scale(0.996264)"/>
      <use xlink:href="#NimbusSanL-Regu-74" transform="translate(88.566815 0) scale(0.996264)"/>
      <use xlink:href="#NimbusSanL-Regu-2d" transform="translate(116.261985 0) scale(0.996264)"/>
      <use xlink:href="#NimbusSanL-Regu-69" transform="translate(149.437215 0) scale(0.996264)"/>
      <use xlink:href="#NimbusSanL-Regu-74" transform="translate(171.553999 0) scale(0.996264)"/>
      <use xlink:href="#NimbusSanL-Regu-65" transform="translate(199.249169 0) scale(0.996264)"/>
      <use xlink:href="#NimbusSanL-Regu-72" transform="translate(254.640846 0) scale(0.996264)"/>
      <use xlink:href="#NimbusSanL-Regu-35" transform="translate(287.816075 0) scale(0.996264)"/>
      <use xlink:href="#NimbusSanL-Regu-2d" transform="translate(343.207752 0) scale(0.996264)"/>
      <use xlink:href="#NimbusSanL-Regu-52" transform="translate(376.382982 0) scale(0.996264)"/>
      <use xlink:href="#NimbusSanL-Regu-43" transform="translate(448.312967 0) scale(0.996264)"/>
      <use xlink:href="#NimbusSanL-Regu-47" transform="translate(520.242952 0) scale(0.996264)"/>
     </g>
    </g>
    <g id="line2d_51">
     <path d="M 514.050019 127.822167 
L 538.050019 127.822167 
L 562.050019 127.822167 
" style="fill: none; stroke-dasharray: 2,2; stroke-dashoffset: 0; stroke: #b9ac70; stroke-width: 2"/>
    </g>
    <g id="text_12">
     <!-- Alt-iter10-RCG -->
     <g transform="translate(581.250019 136.222167) scale(0.24 -0.24)">
      <defs>
       <path id="NimbusSanL-Regu-31" d="M 1658 3232 
L 1658 0 
L 2221 0 
L 2221 4537 
L 1850 4537 
C 1651 3840 1523 3744 653 3635 
L 653 3232 
L 1658 3232 
z
" transform="scale(0.015625)"/>
       <path id="NimbusSanL-Regu-30" d="M 1760 4544 
C 1338 4544 954 4358 717 4044 
C 422 3649 275 3043 275 2207 
C 275 683 787 -128 1760 -128 
C 2720 -128 3245 683 3245 2169 
C 3245 3049 3104 3636 2803 4044 
C 2566 4364 2189 4544 1760 4544 
z
M 1760 4044 
C 2368 4044 2669 3432 2669 2220 
C 2669 938 2374 339 1747 339 
C 1152 339 851 964 851 2201 
C 851 3438 1152 4044 1760 4044 
z
" transform="scale(0.015625)"/>
      </defs>
      <use xlink:href="#NimbusSanL-Regu-41" transform="scale(0.996264)"/>
      <use xlink:href="#NimbusSanL-Regu-6c" transform="translate(66.450031 0) scale(0.996264)"/>
      <use xlink:href="#NimbusSanL-Regu-74" transform="translate(88.566815 0) scale(0.996264)"/>
      <use xlink:href="#NimbusSanL-Regu-2d" transform="translate(116.261985 0) scale(0.996264)"/>
      <use xlink:href="#NimbusSanL-Regu-69" transform="translate(149.437215 0) scale(0.996264)"/>
      <use xlink:href="#NimbusSanL-Regu-74" transform="translate(171.553999 0) scale(0.996264)"/>
      <use xlink:href="#NimbusSanL-Regu-65" transform="translate(199.249169 0) scale(0.996264)"/>
      <use xlink:href="#NimbusSanL-Regu-72" transform="translate(254.640846 0) scale(0.996264)"/>
      <use xlink:href="#NimbusSanL-Regu-31" transform="translate(287.816075 0) scale(0.996264)"/>
      <use xlink:href="#NimbusSanL-Regu-30" transform="translate(343.207752 0) scale(0.996264)"/>
      <use xlink:href="#NimbusSanL-Regu-2d" transform="translate(398.599429 0) scale(0.996264)"/>
      <use xlink:href="#NimbusSanL-Regu-52" transform="translate(431.774659 0) scale(0.996264)"/>
      <use xlink:href="#NimbusSanL-Regu-43" transform="translate(503.704644 0) scale(0.996264)"/>
      <use xlink:href="#NimbusSanL-Regu-47" transform="translate(575.634629 0) scale(0.996264)"/>
     </g>
    </g>
    <g id="line2d_52">
     <path d="M 514.050019 161.9509 
L 538.050019 161.9509 
L 562.050019 161.9509 
" style="fill: none; stroke-dasharray: 10,2,2,2,2,2; stroke-dashoffset: 0; stroke: #e76300; stroke-width: 2"/>
    </g>
    <g id="text_13">
     <!-- Alt-iter20-RCG -->
     <g transform="translate(581.250019 170.3509) scale(0.24 -0.24)">
      <defs>
       <path id="NimbusSanL-Regu-32" d="M 3238 556 
L 851 556 
C 909 928 1114 1165 1670 1493 
L 2310 1839 
C 2944 2185 3270 2653 3270 3211 
C 3270 3589 3117 3942 2848 4185 
C 2579 4428 2246 4544 1818 4544 
C 1242 4544 813 4339 563 3955 
C 403 3711 333 3429 320 2967 
L 883 2967 
C 902 3275 941 3461 1018 3608 
C 1165 3884 1459 4051 1798 4051 
C 2310 4051 2694 3685 2694 3198 
C 2694 2839 2483 2531 2080 2300 
L 1491 1967 
C 544 1428 269 999 218 0 
L 3238 0 
L 3238 556 
z
" transform="scale(0.015625)"/>
      </defs>
      <use xlink:href="#NimbusSanL-Regu-41" transform="scale(0.996264)"/>
      <use xlink:href="#NimbusSanL-Regu-6c" transform="translate(66.450031 0) scale(0.996264)"/>
      <use xlink:href="#NimbusSanL-Regu-74" transform="translate(88.566815 0) scale(0.996264)"/>
      <use xlink:href="#NimbusSanL-Regu-2d" transform="translate(116.261985 0) scale(0.996264)"/>
      <use xlink:href="#NimbusSanL-Regu-69" transform="translate(149.437215 0) scale(0.996264)"/>
      <use xlink:href="#NimbusSanL-Regu-74" transform="translate(171.553999 0) scale(0.996264)"/>
      <use xlink:href="#NimbusSanL-Regu-65" transform="translate(199.249169 0) scale(0.996264)"/>
      <use xlink:href="#NimbusSanL-Regu-72" transform="translate(254.640846 0) scale(0.996264)"/>
      <use xlink:href="#NimbusSanL-Regu-32" transform="translate(287.816075 0) scale(0.996264)"/>
      <use xlink:href="#NimbusSanL-Regu-30" transform="translate(343.207752 0) scale(0.996264)"/>
      <use xlink:href="#NimbusSanL-Regu-2d" transform="translate(398.599429 0) scale(0.996264)"/>
      <use xlink:href="#NimbusSanL-Regu-52" transform="translate(431.774659 0) scale(0.996264)"/>
      <use xlink:href="#NimbusSanL-Regu-43" transform="translate(503.704644 0) scale(0.996264)"/>
      <use xlink:href="#NimbusSanL-Regu-47" transform="translate(575.634629 0) scale(0.996264)"/>
     </g>
    </g>
   </g>
  </g>
 </g>
 <defs>
  <clipPath id="p361d7c7e54">
   <rect x="90.004323" y="28.464" width="334.8" height="332.64"/>
  </clipPath>
 </defs>
</svg>
