<?xml version="1.0" encoding="utf-8" standalone="no"?>
<!DOCTYPE svg PUBLIC "-//W3C//DTD SVG 1.1//EN"
  "http://www.w3.org/Graphics/SVG/1.1/DTD/svg11.dtd">
<svg xmlns:xlink="http://www.w3.org/1999/xlink" width="718.678849pt" height="421.900739pt" viewBox="0 0 718.678849 421.900739" xmlns="http://www.w3.org/2000/svg" version="1.1">
 <metadata>
  <rdf:RDF xmlns:dc="http://purl.org/dc/elements/1.1/" xmlns:cc="http://creativecommons.org/ns#" xmlns:rdf="http://www.w3.org/1999/02/22-rdf-syntax-ns#">
   <cc:Work>
    <dc:type rdf:resource="http://purl.org/dc/dcmitype/StillImage"/>
    <dc:date>2026-03-19T22:09:07.654787</dc:date>
    <dc:format>image/svg+xml</dc:format>
    <dc:creator>
     <cc:Agent>
      <dc:title>Matplotlib v3.10.0, https://matplotlib.org/</dc:title>
     </cc:Agent>
    </dc:creator>
   </cc:Work>
  </rdf:RDF>
 </metadata>
 <defs>
  <style type="text/css">*{stroke-linejoin: round; stroke-linecap: butt}</style>
 </defs>
 <g id="figure_1">
  <g id="patch_1">
   <path d="M 0 421.900739 
L 718.678849 421.900739 
L 718.678849 0 
L 0 0 
L 0 421.900739 
z
" style="fill: none"/>
  </g>
  <g id="axes_1">
   <g id="patch_2">
    <path d="M 92.231324 348.357984 
L 427.031324 348.357984 
L 427.031324 15.717984 
L 92.231324 15.717984 
L 92.231324 348.357984 
z
" style="fill: none"/>
   </g>
   <g id="matplotlib.axis_1">
    <g id="xtick_1">
     <g id="line2d_1">
      <defs>
       <path id="m8bf1af922e" d="M 0 0 
L 0 -10 
" style="stroke: #000000; stroke-width: 2"/>
      </defs>
      <g>
       <use xlink:href="#m8bf1af922e" x="107.449505" y="348.357984" style="stroke: #000000; stroke-width: 2"/>
      </g>
     </g>
     <g id="line2d_2">
      <defs>
       <path id="ma77e1143cd" d="M 0 0 
L 0 10 
" style="stroke: #000000; stroke-width: 2"/>
      </defs>
      <g>
       <use xlink:href="#ma77e1143cd" x="107.449505" y="15.717984" style="stroke: #000000; stroke-width: 2"/>
      </g>
     </g>
     <g id="text_1">
      <!-- $\mathdefault{0}$ -->
      <g transform="translate(101.966648 377.393953) scale(0.24 -0.24)">
       <defs>
        <path id="CMR17-30" d="M 2688 2038 
C 2688 2430 2682 3099 2413 3613 
C 2176 4063 1798 4224 1466 4224 
C 1158 4224 768 4082 525 3620 
C 269 3137 243 2539 243 2038 
C 243 1671 250 1112 448 623 
C 723 -39 1216 -128 1466 -128 
C 1760 -128 2208 -7 2470 604 
C 2662 1048 2688 1568 2688 2038 
z
M 1466 -26 
C 1056 -26 813 328 723 816 
C 653 1196 653 1749 653 2109 
C 653 2604 653 3015 736 3407 
C 858 3954 1216 4121 1466 4121 
C 1728 4121 2067 3947 2189 3420 
C 2272 3054 2278 2623 2278 2109 
C 2278 1691 2278 1176 2202 797 
C 2067 96 1690 -26 1466 -26 
z
" transform="scale(0.015625)"/>
       </defs>
       <use xlink:href="#CMR17-30" transform="scale(0.996264)"/>
      </g>
     </g>
    </g>
    <g id="xtick_2">
     <g id="line2d_3">
      <g>
       <use xlink:href="#m8bf1af922e" x="400.106848" y="348.357984" style="stroke: #000000; stroke-width: 2"/>
      </g>
     </g>
     <g id="line2d_4">
      <g>
       <use xlink:href="#ma77e1143cd" x="400.106848" y="15.717984" style="stroke: #000000; stroke-width: 2"/>
      </g>
     </g>
     <g id="text_2">
      <!-- $\mathdefault{150}$ -->
      <g transform="translate(383.658276 377.393953) scale(0.24 -0.24)">
       <defs>
        <path id="CMR17-31" d="M 1702 4083 
C 1702 4217 1696 4224 1606 4224 
C 1357 3927 979 3833 621 3820 
C 602 3820 570 3820 563 3808 
C 557 3795 557 3782 557 3648 
C 755 3648 1088 3686 1344 3839 
L 1344 467 
C 1344 243 1331 166 781 166 
L 589 166 
L 589 0 
C 896 6 1216 12 1523 12 
C 1830 12 2150 6 2458 0 
L 2458 166 
L 2266 166 
C 1715 166 1702 236 1702 467 
L 1702 4083 
z
" transform="scale(0.015625)"/>
        <path id="CMR17-35" d="M 730 3750 
C 794 3724 1056 3641 1325 3641 
C 1920 3641 2246 3961 2432 4140 
C 2432 4191 2432 4224 2394 4224 
C 2387 4224 2374 4224 2323 4198 
C 2099 4102 1837 4032 1517 4032 
C 1325 4032 1037 4055 723 4191 
C 653 4224 640 4224 634 4224 
C 602 4224 595 4217 595 4090 
L 595 2231 
C 595 2113 595 2080 659 2080 
C 691 2080 704 2093 736 2139 
C 941 2435 1222 2560 1542 2560 
C 1766 2560 2246 2415 2246 1293 
C 2246 1087 2246 716 2054 422 
C 1894 159 1645 25 1370 25 
C 947 25 518 319 403 812 
C 429 806 480 793 506 793 
C 589 793 749 838 749 1036 
C 749 1209 627 1280 506 1280 
C 358 1280 262 1190 262 1011 
C 262 454 704 -128 1382 -128 
C 2042 -128 2669 441 2669 1267 
C 2669 2054 2170 2662 1549 2662 
C 1222 2662 947 2540 730 2304 
L 730 3750 
z
" transform="scale(0.015625)"/>
       </defs>
       <use xlink:href="#CMR17-31" transform="scale(0.996264)"/>
       <use xlink:href="#CMR17-35" transform="translate(45.690477 0) scale(0.996264)"/>
       <use xlink:href="#CMR17-30" transform="translate(91.380954 0) scale(0.996264)"/>
      </g>
     </g>
    </g>
    <g id="text_3">
     <!-- Time (s) -->
     <g transform="translate(204.847239 408.33478) scale(0.3 -0.3)">
      <defs>
       <path id="NimbusSanL-Regu-54" d="M 2266 4147 
L 3795 4147 
L 3795 4672 
L 134 4672 
L 134 4147 
L 1670 4147 
L 1670 0 
L 2266 0 
L 2266 4147 
z
" transform="scale(0.015625)"/>
       <path id="NimbusSanL-Regu-69" d="M 960 3358 
L 429 3358 
L 429 0 
L 960 0 
L 960 3358 
z
M 960 4672 
L 422 4672 
L 422 3999 
L 960 3999 
L 960 4672 
z
" transform="scale(0.015625)"/>
       <path id="NimbusSanL-Regu-6d" d="M 448 3328 
L 448 0 
L 986 0 
L 986 2089 
C 986 2597 1338 2988 1773 2988 
C 2170 2988 2394 2744 2394 2315 
L 2394 0 
L 2931 0 
L 2931 2109 
C 2931 2597 3283 2988 3718 2988 
C 4109 2988 4339 2738 4339 2315 
L 4339 0 
L 4877 0 
L 4877 2520 
C 4877 3123 4531 3456 3904 3456 
C 3456 3456 3187 3321 2874 2943 
C 2675 3302 2406 3456 1971 3456 
C 1523 3456 1229 3289 941 2886 
L 941 3328 
L 448 3328 
z
" transform="scale(0.015625)"/>
       <path id="NimbusSanL-Regu-65" d="M 3283 1484 
C 3283 1998 3245 2311 3149 2565 
C 2931 3123 2419 3456 1792 3456 
C 858 3456 256 2734 256 1619 
C 256 545 838 -128 1779 -128 
C 2547 -128 3078 307 3213 1018 
L 2675 1018 
C 2528 588 2227 364 1798 364 
C 1459 364 1171 514 992 787 
C 864 974 819 1161 813 1484 
L 3283 1484 
z
M 826 1920 
C 870 2552 1248 2963 1786 2963 
C 2310 2963 2714 2519 2714 1959 
C 2714 1946 2714 1933 2707 1920 
L 826 1920 
z
" transform="scale(0.015625)"/>
       <path id="NimbusSanL-Regu-28" d="M 1510 4672 
C 870 3833 467 2668 467 1663 
C 467 652 870 -513 1510 -1351 
L 1862 -1351 
C 1299 -436 986 639 986 1663 
C 986 2681 1299 3763 1862 4672 
L 1510 4672 
z
" transform="scale(0.015625)"/>
       <path id="NimbusSanL-Regu-73" d="M 2803 2428 
C 2797 3084 2362 3456 1587 3456 
C 806 3456 301 3052 301 2434 
C 301 1912 570 1663 1363 1472 
L 1862 1351 
C 2234 1262 2381 1129 2381 887 
C 2381 574 2067 364 1600 364 
C 1312 364 1069 447 934 587 
C 851 683 813 778 781 1014 
L 218 1014 
C 243 243 678 -128 1555 -128 
C 2400 -128 2938 288 2938 931 
C 2938 1428 2656 1702 1990 1861 
L 1478 1982 
C 1043 2084 858 2224 858 2459 
C 858 2765 1133 2963 1568 2963 
C 1997 2963 2227 2778 2240 2428 
L 2803 2428 
z
" transform="scale(0.015625)"/>
       <path id="NimbusSanL-Regu-29" d="M 595 -1351 
C 1235 -513 1638 652 1638 1657 
C 1638 2668 1235 3833 595 4672 
L 243 4672 
C 806 3756 1120 2681 1120 1657 
C 1120 639 806 -442 243 -1351 
L 595 -1351 
z
" transform="scale(0.015625)"/>
      </defs>
      <use xlink:href="#NimbusSanL-Regu-54" transform="scale(0.996264)"/>
      <use xlink:href="#NimbusSanL-Regu-69" transform="translate(60.871631 0) scale(0.996264)"/>
      <use xlink:href="#NimbusSanL-Regu-6d" transform="translate(82.988415 0) scale(0.996264)"/>
      <use xlink:href="#NimbusSanL-Regu-65" transform="translate(165.976845 0) scale(0.996264)"/>
      <use xlink:href="#NimbusSanL-Regu-28" transform="translate(249.063692 0) scale(0.996264)"/>
      <use xlink:href="#NimbusSanL-Regu-73" transform="translate(282.238922 0) scale(0.996264)"/>
      <use xlink:href="#NimbusSanL-Regu-29" transform="translate(332.052122 0) scale(0.996264)"/>
     </g>
    </g>
   </g>
   <g id="matplotlib.axis_2">
    <g id="ytick_1">
     <g id="line2d_5">
      <defs>
       <path id="m84345ae946" d="M 0 0 
L 10 0 
" style="stroke: #000000; stroke-width: 2"/>
      </defs>
      <g>
       <use xlink:href="#m84345ae946" x="92.231324" y="15.717984" style="stroke: #000000; stroke-width: 2"/>
      </g>
     </g>
     <g id="line2d_6">
      <defs>
       <path id="mf60e5abe4e" d="M 0 0 
L -10 0 
" style="stroke: #000000; stroke-width: 2"/>
      </defs>
      <g>
       <use xlink:href="#mf60e5abe4e" x="427.031324" y="15.717984" style="stroke: #000000; stroke-width: 2"/>
      </g>
     </g>
     <g id="text_4">
      <!-- $\mathdefault{10^{-1}}$ -->
      <g transform="translate(41.08792 24.235969) scale(0.24 -0.24)">
       <defs>
        <path id="CMSY10-0" d="M 4218 1472 
C 4326 1472 4442 1472 4442 1600 
C 4442 1728 4326 1728 4218 1728 
L 755 1728 
C 646 1728 531 1728 531 1600 
C 531 1472 646 1472 755 1472 
L 4218 1472 
z
" transform="scale(0.015625)"/>
       </defs>
       <use xlink:href="#CMR17-31" transform="scale(0.996264)"/>
       <use xlink:href="#CMR17-30" transform="translate(45.690477 0) scale(0.996264)"/>
       <use xlink:href="#CMSY10-0" transform="translate(91.380954 36.153639) scale(0.697382)"/>
       <use xlink:href="#CMR17-31" transform="translate(145.621947 36.153639) scale(0.697382)"/>
      </g>
     </g>
    </g>
    <g id="ytick_2">
     <g id="line2d_7">
      <g>
       <use xlink:href="#m84345ae946" x="92.231324" y="348.357984" style="stroke: #000000; stroke-width: 2"/>
      </g>
     </g>
     <g id="line2d_8">
      <g>
       <use xlink:href="#mf60e5abe4e" x="427.031324" y="348.357984" style="stroke: #000000; stroke-width: 2"/>
      </g>
     </g>
     <g id="text_5">
      <!-- $\mathdefault{10^{-8}}$ -->
      <g transform="translate(41.08792 356.875969) scale(0.24 -0.24)">
       <defs>
        <path id="CMR17-38" d="M 1741 2289 
C 2144 2494 2554 2803 2554 3298 
C 2554 3884 1990 4224 1472 4224 
C 890 4224 378 3800 378 3215 
C 378 3054 416 2777 666 2533 
C 730 2469 998 2276 1171 2154 
C 883 2006 211 1652 211 945 
C 211 282 838 -128 1459 -128 
C 2144 -128 2720 366 2720 1022 
C 2720 1607 2330 1877 2074 2051 
L 1741 2289 
z
M 902 2855 
C 851 2887 595 3086 595 3388 
C 595 3781 998 4076 1459 4076 
C 1965 4076 2336 3716 2336 3298 
C 2336 2700 1670 2359 1638 2359 
C 1632 2359 1626 2359 1574 2398 
L 902 2855 
z
M 2080 1536 
C 2176 1466 2483 1253 2483 861 
C 2483 385 2010 25 1472 25 
C 890 25 448 443 448 951 
C 448 1459 838 1884 1280 2083 
L 2080 1536 
z
" transform="scale(0.015625)"/>
       </defs>
       <use xlink:href="#CMR17-31" transform="scale(0.996264)"/>
       <use xlink:href="#CMR17-30" transform="translate(45.690477 0) scale(0.996264)"/>
       <use xlink:href="#CMSY10-0" transform="translate(91.380954 36.153639) scale(0.697382)"/>
       <use xlink:href="#CMR17-38" transform="translate(145.621947 36.153639) scale(0.697382)"/>
      </g>
     </g>
    </g>
    <g id="text_6">
     <!-- $|\mathrm{grad} \ c_{44}|$ -->
     <g transform="translate(29.61594 237.269549) rotate(-90) scale(0.3 -0.3)">
      <defs>
       <path id="CMSY10-6a" d="M 1018 4569 
C 1018 4684 1018 4800 890 4800 
C 762 4800 762 4684 762 4569 
L 762 -1370 
C 762 -1485 762 -1600 890 -1600 
C 1018 -1600 1018 -1485 1018 -1370 
L 1018 4569 
z
" transform="scale(0.015625)"/>
       <path id="CMR17-67" d="M 710 1165 
C 832 1068 1043 960 1299 960 
C 1805 960 2240 1359 2240 1895 
C 2240 2063 2189 2321 1997 2521 
C 2176 2713 2438 2777 2586 2777 
C 2611 2777 2650 2777 2682 2758 
C 2656 2751 2598 2726 2598 2623 
C 2598 2540 2656 2483 2739 2483 
C 2835 2483 2886 2547 2886 2630 
C 2886 2751 2790 2880 2586 2880 
C 2330 2880 2106 2758 1926 2591 
C 1734 2764 1504 2828 1299 2828 
C 794 2828 358 2431 358 1895 
C 358 1527 570 1294 634 1230 
C 442 1004 442 742 442 710 
C 442 544 506 300 723 166 
C 390 82 128 -184 128 -517 
C 128 -996 736 -1344 1466 -1344 
C 2170 -1344 2803 -1009 2803 -510 
C 2803 384 1856 384 1363 384 
C 1216 384 954 384 922 390 
C 723 422 589 601 589 825 
C 589 883 589 1024 710 1165 
z
M 1299 1068 
C 736 1068 736 1766 736 1895 
C 736 2024 736 2719 1299 2719 
C 1862 2719 1862 2024 1862 1895 
C 1862 1766 1862 1068 1299 1068 
z
M 1466 -1236 
C 826 -1236 384 -883 384 -517 
C 384 -311 493 -118 634 -11 
C 794 102 858 102 1293 102 
C 1818 102 2547 102 2547 -517 
C 2547 -883 2106 -1236 1466 -1236 
z
" transform="scale(0.015625)"/>
       <path id="CMR17-72" d="M 960 1517 
C 960 2134 1222 2713 1702 2713 
C 1747 2713 1792 2707 1837 2687 
C 1837 2687 1696 2642 1696 2475 
C 1696 2321 1818 2257 1914 2257 
C 1990 2257 2131 2302 2131 2482 
C 2131 2687 1926 2816 1709 2816 
C 1222 2816 1011 2340 947 2115 
L 941 2115 
L 941 2816 
L 198 2745 
L 198 2578 
C 576 2578 634 2540 634 2231 
L 634 443 
C 634 198 608 166 198 166 
L 198 0 
C 352 12 646 12 813 12 
C 998 12 1325 12 1498 0 
L 1498 166 
C 1037 166 960 166 960 455 
L 960 1517 
z
" transform="scale(0.015625)"/>
       <path id="CMR17-61" d="M 2304 1656 
C 2304 2048 2304 2275 2035 2534 
C 1798 2751 1523 2816 1306 2816 
C 800 2816 435 2408 435 1977 
C 435 1740 627 1728 666 1728 
C 749 1728 896 1779 896 1958 
C 896 2118 774 2188 666 2188 
C 640 2188 608 2182 589 2176 
C 723 2594 1069 2713 1293 2713 
C 1613 2713 1965 2421 1965 1875 
L 1965 1632 
C 1587 1619 1133 1568 774 1373 
C 371 1147 256 822 256 576 
C 256 77 832 -64 1171 -64 
C 1523 -64 1850 135 1990 505 
C 2003 219 2182 -39 2464 -39 
C 2598 -39 2938 51 2938 563 
L 2938 926 
L 2822 926 
L 2822 557 
C 2822 161 2650 109 2566 109 
C 2304 109 2304 446 2304 732 
L 2304 1656 
z
M 1965 887 
C 1965 323 1568 38 1216 38 
C 896 38 646 278 646 576 
C 646 771 730 1114 1101 1322 
C 1408 1497 1760 1523 1965 1536 
L 1965 887 
z
" transform="scale(0.015625)"/>
       <path id="CMR17-64" d="M 1869 4345 
L 1869 4179 
C 2246 4179 2304 4141 2304 3843 
L 2304 2371 
C 2278 2403 2016 2816 1498 2816 
C 845 2816 211 2228 211 1376 
C 211 529 806 -64 1434 -64 
C 1978 -64 2259 361 2291 406 
L 2291 -64 
L 3066 -13 
L 3066 154 
C 2688 154 2630 193 2630 503 
L 2630 4416 
L 1869 4345 
z
M 2291 762 
C 2291 568 2176 393 2029 264 
C 1811 70 1594 38 1472 38 
C 1286 38 621 135 621 1369 
C 621 2636 1363 2713 1530 2713 
C 1824 2713 2061 2545 2208 2313 
C 2291 2177 2291 2157 2291 2041 
L 2291 762 
z
" transform="scale(0.015625)"/>
       <path id="CMMI12-63" d="M 2502 2432 
C 2381 2432 2323 2432 2234 2355 
C 2195 2323 2125 2227 2125 2124 
C 2125 1996 2221 1919 2342 1919 
C 2496 1919 2669 2047 2669 2303 
C 2669 2591 2374 2816 1933 2816 
C 1094 2816 256 1932 256 1011 
C 256 446 602 -64 1254 -64 
C 2125 -64 2675 622 2675 706 
C 2675 745 2637 777 2611 777 
C 2592 777 2586 771 2528 712 
C 2118 161 1510 64 1267 64 
C 826 64 685 453 685 777 
C 685 1004 794 1634 1024 2073 
C 1190 2374 1536 2687 1939 2687 
C 2022 2687 2374 2676 2502 2432 
z
" transform="scale(0.015625)"/>
       <path id="CMR17-34" d="M 2150 4147 
C 2150 4281 2144 4288 2029 4288 
L 128 1254 
L 128 1088 
L 1779 1088 
L 1779 460 
C 1779 230 1766 166 1318 166 
L 1197 166 
L 1197 0 
C 1402 12 1747 12 1965 12 
C 2182 12 2528 12 2733 0 
L 2733 166 
L 2611 166 
C 2163 166 2150 230 2150 460 
L 2150 1088 
L 2803 1088 
L 2803 1254 
L 2150 1254 
L 2150 4147 
z
M 1798 3723 
L 1798 1254 
L 256 1254 
L 1798 3723 
z
" transform="scale(0.015625)"/>
      </defs>
      <use xlink:href="#CMSY10-6a" transform="scale(0.996264)"/>
      <use xlink:href="#CMR17-67" transform="translate(27.674085 0) scale(0.996264)"/>
      <use xlink:href="#CMR17-72" transform="translate(73.364562 0) scale(0.996264)"/>
      <use xlink:href="#CMR17-61" transform="translate(108.64533 0) scale(0.996264)"/>
      <use xlink:href="#CMR17-64" transform="translate(154.335807 0) scale(0.996264)"/>
      <use xlink:href="#CMMI12-63" transform="translate(232.926346 0) scale(0.996264)"/>
      <use xlink:href="#CMR17-34" transform="translate(274.90958 -14.943915) scale(0.697382)"/>
      <use xlink:href="#CMR17-34" transform="translate(306.892762 -14.943915) scale(0.697382)"/>
      <use xlink:href="#CMSY10-6a" transform="translate(339.374076 0) scale(0.996264)"/>
     </g>
    </g>
   </g>
   <g id="line2d_9">
    <path d="M 107.449505 28.602741 
L 107.569776 40.599083 
L 107.680699 43.946979 
L 107.865831 50.249375 
L 108.116862 56.830046 
L 108.435082 59.026244 
L 108.889097 64.254113 
L 109.478655 63.735009 
L 109.723977 94.68995 
L 110.382198 93.581205 
L 111.176433 96.270325 
L 112.183858 97.395468 
L 113.393742 99.042 
L 114.899554 99.186163 
L 116.523951 99.240879 
L 117.326801 142.688108 
L 118.958681 129.144506 
L 120.990123 129.685413 
L 123.740516 130.905208 
L 127.309802 131.887902 
L 131.870008 131.943489 
L 136.766705 130.278356 
L 138.865326 178.190154 
L 142.296753 160.289059 
L 146.726773 161.375475 
L 152.976573 161.721891 
L 159.921556 175.82858 
L 166.87829 175.223032 
L 173.839565 186.505077 
L 180.765394 183.201516 
L 187.706965 199.332494 
L 194.621113 190.532814 
L 201.609022 215.152888 
L 208.512058 197.083611 
L 215.457936 230.33931 
L 222.36429 200.465033 
L 229.304849 243.984745 
L 236.21424 202.148207 
L 243.161864 258.001445 
L 250.103073 204.601001 
L 257.069519 271.49625 
L 264.002858 271.49625 
L 269.478253 244.475627 
L 276.482863 254.451243 
L 283.41014 246.530525 
L 290.327855 267.575709 
L 297.20971 245.1537 
L 304.136206 278.316112 
L 311.075821 246.274592 
L 317.97037 286.376378 
L 324.934885 252.166427 
L 331.802139 288.012107 
L 338.730763 256.124012 
L 345.705806 292.483848 
L 352.589034 259.011655 
L 359.534888 300.883224 
L 366.432071 261.876911 
L 373.382185 304.921191 
L 380.294504 257.910937 
L 387.207075 311.981237 
L 394.214402 265.548953 
L 401.132758 316.972885 
L 408.058616 271.016653 
L 415.012643 321.214851 
L 421.954735 275.632003 
L 428.89961 323.408444 
L 435.848163 279.894323 
L 442.784385 326.579922 
L 449.795487 283.71589 
L 456.7795 325.294092 
L 463.734215 289.948751 
L 470.650643 331.487582 
L 477.586853 293.82794 
L 484.495881 338.679947 
L 491.450027 296.424371 
L 498.372253 343.211491 
L 505.294145 299.24732 
L 512.182194 331.374807 
L 519.082266 309.208691 
L 525.959872 343.011794 
L 532.863945 314.444393 
L 539.763711 343.15829 
L 546.657146 318.877347 
L 553.544662 342.967026 
L 560.454632 324.0581 
" clip-path="url(#p3acd7daea8)" style="fill: none; stroke-dasharray: 12.8,3.2,2,3.2; stroke-dashoffset: 0; stroke: #bd1f01; stroke-width: 2"/>
   </g>
   <g id="line2d_10">
    <path d="M 107.556515 68.020246 
L 107.800097 57.215433 
L 108.183575 61.151699 
L 108.634306 63.123957 
L 109.218196 65.179205 
L 109.45701 95.670216 
L 110.128861 93.789737 
L 110.927567 96.120547 
L 111.935416 98.58865 
L 113.223913 98.405041 
L 114.729489 98.876716 
L 115.464406 141.876262 
L 116.896504 127.97584 
L 118.728408 129.45202 
L 121.159974 131.760384 
L 125.278941 131.760384 
L 127.336986 156.038769 
L 129.654118 156.038769 
L 131.022352 171.560588 
L 132.512562 154.592693 
L 135.385078 154.592693 
L 137.161176 171.145311 
L 139.034285 153.385488 
L 141.918119 159.18461 
L 148.227792 159.18461 
L 150.732453 182.496813 
L 153.451226 160.277825 
L 158.17771 162.373143 
L 165.302321 159.32026 
L 172.514812 181.133348 
L 179.603852 181.133348 
L 182.751953 185.916295 
L 188.332925 162.01541 
L 195.413234 194.308072 
L 202.441089 194.308072 
L 205.479255 211.503328 
L 210.058622 189.961069 
L 217.076627 192.605473 
L 224.156184 197.962543 
L 231.229218 202.127736 
L 238.323452 208.087943 
L 245.396933 210.866586 
L 252.484942 218.465526 
L 259.538337 218.973636 
L 266.678535 229.078432 
L 273.738172 227.456468 
L 280.788924 239.509941 
L 287.828529 236.469235 
L 294.855858 250.552496 
L 301.930791 244.199766 
L 308.926709 259.759024 
L 315.990807 251.543443 
L 323.052974 267.900508 
L 330.138157 258.415446 
L 337.217482 275.210875 
L 344.315244 264.92756 
L 351.409153 280.652501 
L 358.452523 271.382193 
L 365.53065 289.180935 
L 372.601182 277.237374 
L 379.64706 295.299116 
L 386.688947 282.952812 
L 393.750196 301.194342 
L 400.786296 288.568845 
L 407.84697 306.935969 
L 414.888286 294.105037 
L 421.895406 312.56463 
L 428.952577 299.578667 
L 435.968722 318.1064 
L 442.979199 305.001823 
L 450.010231 323.587385 
L 457.027533 310.380705 
L 464.014285 329.00664 
L 471.012351 315.716697 
L 478.009586 334.408635 
L 484.990868 320.993125 
L 491.984695 339.771785 
L 498.953402 326.216461 
L 505.973288 345.114028 
L 512.944379 331.307802 
" clip-path="url(#p3acd7daea8)" style="fill: none; stroke-dasharray: 20,6; stroke-dashoffset: 10; stroke: #a96b59; stroke-width: 2"/>
   </g>
   <g id="line2d_11">
    <path d="M 107.817251 80.42487 
L 108.126559 80.42487 
L 108.299423 74.635325 
L 108.539097 76.76654 
L 108.9066 76.76654 
L 109.216742 86.877862 
L 109.522103 83.679722 
L 109.969258 90.533407 
L 110.703408 90.533407 
L 111.156556 104.807095 
L 111.679492 92.524517 
L 112.46997 96.723035 
L 113.534776 98.007002 
L 114.810788 98.889545 
L 116.366785 99.685968 
L 118.21504 99.632012 
L 119.077235 143.781755 
L 121.059928 130.538957 
L 123.459574 129.821695 
L 126.598225 131.126691 
L 130.562238 131.389316 
L 135.108725 130.765829 
L 137.146151 178.54591 
L 139.792982 160.050677 
L 144.155671 160.366863 
L 151.165743 158.416942 
L 158.223354 176.246821 
L 165.385512 163.465984 
L 172.458567 185.281545 
L 179.467508 169.95071 
L 186.617031 197.830267 
L 193.567358 177.767649 
L 200.532361 214.857723 
L 207.593964 214.857723 
L 214.190358 190.99851 
L 221.410729 226.33051 
L 228.667996 226.33051 
L 232.751625 236.776471 
L 238.50294 218.048412 
L 245.423153 217.588748 
L 252.373268 232.005015 
L 259.272568 230.238289 
L 266.267645 242.081733 
L 273.21609 239.196889 
L 280.188178 250.597993 
L 287.158976 246.995507 
L 294.079034 258.077158 
L 301.006155 253.947524 
L 307.935498 264.342451 
L 314.865792 260.042145 
L 321.794937 268.611836 
L 328.704744 265.980264 
L 335.627339 276.709601 
L 342.653449 271.260111 
L 349.636912 282.270393 
L 356.575877 276.614137 
L 363.515361 287.672831 
L 370.518944 281.334712 
L 377.491342 292.297626 
L 384.429249 285.789478 
L 391.395775 296.818801 
L 398.369245 290.12548 
L 405.358433 301.246829 
L 412.374128 294.347348 
L 419.309949 305.694924 
L 426.262074 298.507875 
L 433.151448 310.025406 
L 440.192635 302.6102 
L 447.423893 314.187081 
L 454.339788 306.67898 
L 461.1961 318.303626 
L 468.26549 310.724788 
L 475.316189 322.390174 
L 482.441749 314.753846 
L 489.604921 326.453988 
L 496.783916 318.770485 
L 504.130687 330.500173 
L 511.383894 322.777478 
L 518.616756 334.532134 
L 525.727586 326.776441 
L 532.978862 338.551909 
L 540.271223 330.768361 
L 547.534197 342.560915 
L 555.155139 334.754152 
L 562.893249 346.560611 
L 570.646635 338.734763 
" clip-path="url(#p3acd7daea8)" style="fill: none; stroke-dasharray: 2,2; stroke-dashoffset: 0; stroke: #b9ac70; stroke-width: 2"/>
   </g>
   <g id="line2d_12">
    <path d="M 108.120812 93.000783 
L 108.489922 93.000783 
L 108.662304 88.656166 
L 108.97263 85.576487 
L 109.551003 85.576487 
L 109.933046 101.98574 
L 110.312953 84.789964 
L 110.973938 94.520687 
L 111.834266 95.632195 
L 112.912624 97.502676 
L 114.299926 99.069781 
L 115.882225 99.588687 
L 116.676831 140.103512 
L 118.256762 129.462872 
L 120.238971 129.410759 
L 122.694708 130.678493 
L 125.841144 131.465303 
L 130.180352 131.761577 
L 135.013415 130.855498 
L 137.0446 179.913091 
L 140.45996 159.979222 
L 145.183122 161.265572 
L 152.100638 160.274302 
L 158.997709 179.379912 
L 165.923422 165.753999 
L 172.807753 186.522261 
L 179.733438 172.174513 
L 186.677973 200.455247 
L 193.591739 200.455247 
L 199.061608 189.058851 
L 205.962931 201.848114 
L 212.868466 195.213739 
L 219.784624 216.993107 
L 226.736161 197.320472 
L 233.685788 229.695462 
L 240.660098 196.733724 
L 247.528247 241.8348 
L 254.422194 241.8348 
L 258.865091 238.793379 
L 265.45765 218.646519 
L 272.354349 241.366378 
L 279.264292 220.399109 
L 286.135032 254.053054 
L 293.245687 223.663207 
L 300.281645 263.901036 
L 307.316937 228.01192 
L 314.293865 273.506976 
L 321.290954 233.657781 
L 328.278407 282.985605 
L 335.226767 239.924899 
L 342.1725 291.940794 
L 349.152055 246.940436 
L 356.140523 300.692274 
L 363.11238 254.460757 
L 370.068095 310.234098 
L 377.012186 262.141566 
L 383.952598 319.159513 
L 390.891726 270.26251 
L 397.888512 327.45249 
L 404.767968 278.788944 
L 411.751038 334.689783 
L 418.717771 287.100341 
L 425.652562 341.776242 
L 432.571232 294.728801 
" clip-path="url(#p3acd7daea8)" style="fill: none; stroke-dasharray: 10,2,2,2,2,2; stroke-dashoffset: 0; stroke: #e76300; stroke-width: 2"/>
   </g>
   <g id="patch_3">
    <path d="M 92.231324 348.357984 
L 92.231324 15.717984 
" style="fill: none; stroke: #000000; stroke-width: 2; stroke-linejoin: miter; stroke-linecap: square"/>
   </g>
   <g id="patch_4">
    <path d="M 427.031324 348.357984 
L 427.031324 15.717984 
" style="fill: none; stroke: #000000; stroke-width: 2; stroke-linejoin: miter; stroke-linecap: square"/>
   </g>
   <g id="patch_5">
    <path d="M 92.231324 348.357984 
L 427.031324 348.357984 
" style="fill: none; stroke: #000000; stroke-width: 2; stroke-linejoin: miter; stroke-linecap: square"/>
   </g>
   <g id="patch_6">
    <path d="M 92.231324 15.717984 
L 427.031324 15.717984 
" style="fill: none; stroke: #000000; stroke-width: 2; stroke-linejoin: miter; stroke-linecap: square"/>
   </g>
   <g id="legend_1">
    <g id="line2d_13">
     <path d="M 465.371324 45.953953 
L 489.371324 45.953953 
L 513.371324 45.953953 
" style="fill: none; stroke-dasharray: 12.8,3.2,2,3.2; stroke-dashoffset: 0; stroke: #bd1f01; stroke-width: 2"/>
    </g>
    <g id="text_7">
     <!-- RTRN -->
     <g transform="translate(532.571324 54.353953) scale(0.24 -0.24)">
      <defs>
       <path id="NimbusSanL-Regu-52" d="M 1190 2035 
L 2726 2035 
C 3258 2035 3494 1775 3494 1191 
L 3488 770 
C 3488 478 3539 192 3622 0 
L 4346 0 
L 4346 147 
C 4122 303 4077 471 4064 1101 
C 4058 1879 3936 2111 3430 2329 
C 3955 2585 4166 2907 4166 3432 
C 4166 4230 3661 4672 2746 4672 
L 595 4672 
L 595 0 
L 1190 0 
L 1190 2035 
z
M 1190 2560 
L 1190 4147 
L 2630 4147 
C 2963 4147 3155 4096 3302 3970 
C 3462 3837 3546 3628 3546 3350 
C 3546 2806 3264 2560 2630 2560 
L 1190 2560 
z
" transform="scale(0.015625)"/>
       <path id="NimbusSanL-Regu-4e" d="M 4134 4672 
L 3571 4672 
L 3571 852 
L 1133 4672 
L 486 4672 
L 486 0 
L 1050 0 
L 1050 3787 
L 3462 0 
L 4134 0 
L 4134 4672 
z
" transform="scale(0.015625)"/>
      </defs>
      <use xlink:href="#NimbusSanL-Regu-52" transform="scale(0.996264)"/>
      <use xlink:href="#NimbusSanL-Regu-54" transform="translate(68.941877 0) scale(0.996264)"/>
      <use xlink:href="#NimbusSanL-Regu-52" transform="translate(129.813508 0) scale(0.996264)"/>
      <use xlink:href="#NimbusSanL-Regu-4e" transform="translate(201.743492 0) scale(0.996264)"/>
     </g>
    </g>
    <g id="line2d_14">
     <path d="M 465.371324 80.082686 
L 489.371324 80.082686 
L 513.371324 80.082686 
" style="fill: none; stroke-dasharray: 20,6; stroke-dashoffset: 10; stroke: #a96b59; stroke-width: 2"/>
    </g>
    <g id="text_8">
     <!-- Alt-iter5-RTRN -->
     <g transform="translate(532.571324 88.482686) scale(0.24 -0.24)">
      <defs>
       <path id="NimbusSanL-Regu-41" d="M 3034 1408 
L 3514 0 
L 4179 0 
L 2541 4672 
L 1773 4672 
L 109 0 
L 742 0 
L 1235 1408 
L 3034 1408 
z
M 2867 1907 
L 1382 1907 
L 2150 4032 
L 2867 1907 
z
" transform="scale(0.015625)"/>
       <path id="NimbusSanL-Regu-6c" d="M 973 4672 
L 435 4672 
L 435 0 
L 973 0 
L 973 4672 
z
" transform="scale(0.015625)"/>
       <path id="NimbusSanL-Regu-74" d="M 1626 3328 
L 1075 3328 
L 1075 4249 
L 544 4249 
L 544 3328 
L 90 3328 
L 90 2892 
L 544 2892 
L 544 402 
C 544 64 774 -128 1190 -128 
C 1318 -128 1446 -116 1626 -84 
L 1626 364 
C 1555 345 1472 339 1370 339 
C 1139 339 1075 402 1075 634 
L 1075 2892 
L 1626 2892 
L 1626 3328 
z
" transform="scale(0.015625)"/>
       <path id="NimbusSanL-Regu-2d" d="M 1818 1996 
L 294 1996 
L 294 1536 
L 1818 1536 
L 1818 1996 
z
" transform="scale(0.015625)"/>
       <path id="NimbusSanL-Regu-72" d="M 442 3328 
L 442 0 
L 979 0 
L 979 1727 
C 979 2203 1101 2514 1357 2698 
C 1523 2819 1683 2857 2054 2863 
L 2054 3404 
C 1965 3449 1920 3456 1850 3456 
C 1504 3456 1242 3251 934 2750 
L 934 3328 
L 442 3328 
z
" transform="scale(0.015625)"/>
       <path id="NimbusSanL-Regu-35" d="M 3046 4544 
L 704 4544 
L 365 2076 
L 883 2076 
C 1146 2387 1363 2496 1715 2496 
C 2323 2496 2707 2082 2707 1414 
C 2707 765 2330 371 1715 371 
C 1222 371 922 619 787 1128 
L 224 1128 
C 301 759 365 581 499 415 
C 755 70 1216 -128 1728 -128 
C 2643 -128 3283 536 3283 1490 
C 3283 2381 2688 2995 1818 2995 
C 1498 2995 1242 2912 979 2720 
L 1158 3987 
L 3046 3987 
L 3046 4544 
z
" transform="scale(0.015625)"/>
      </defs>
      <use xlink:href="#NimbusSanL-Regu-41" transform="scale(0.996264)"/>
      <use xlink:href="#NimbusSanL-Regu-6c" transform="translate(66.450031 0) scale(0.996264)"/>
      <use xlink:href="#NimbusSanL-Regu-74" transform="translate(88.566815 0) scale(0.996264)"/>
      <use xlink:href="#NimbusSanL-Regu-2d" transform="translate(116.261985 0) scale(0.996264)"/>
      <use xlink:href="#NimbusSanL-Regu-69" transform="translate(149.437215 0) scale(0.996264)"/>
      <use xlink:href="#NimbusSanL-Regu-74" transform="translate(171.553999 0) scale(0.996264)"/>
      <use xlink:href="#NimbusSanL-Regu-65" transform="translate(199.249169 0) scale(0.996264)"/>
      <use xlink:href="#NimbusSanL-Regu-72" transform="translate(254.640846 0) scale(0.996264)"/>
      <use xlink:href="#NimbusSanL-Regu-35" transform="translate(287.816075 0) scale(0.996264)"/>
      <use xlink:href="#NimbusSanL-Regu-2d" transform="translate(343.207752 0) scale(0.996264)"/>
      <use xlink:href="#NimbusSanL-Regu-52" transform="translate(376.382982 0) scale(0.996264)"/>
      <use xlink:href="#NimbusSanL-Regu-54" transform="translate(445.324859 0) scale(0.996264)"/>
      <use xlink:href="#NimbusSanL-Regu-52" transform="translate(506.19649 0) scale(0.996264)"/>
      <use xlink:href="#NimbusSanL-Regu-4e" transform="translate(578.126475 0) scale(0.996264)"/>
     </g>
    </g>
    <g id="line2d_15">
     <path d="M 465.371324 114.211419 
L 489.371324 114.211419 
L 513.371324 114.211419 
" style="fill: none; stroke-dasharray: 2,2; stroke-dashoffset: 0; stroke: #b9ac70; stroke-width: 2"/>
    </g>
    <g id="text_9">
     <!-- Alt-iter10-RTRN -->
     <g transform="translate(532.571324 122.611419) scale(0.24 -0.24)">
      <defs>
       <path id="NimbusSanL-Regu-31" d="M 1658 3232 
L 1658 0 
L 2221 0 
L 2221 4537 
L 1850 4537 
C 1651 3840 1523 3744 653 3635 
L 653 3232 
L 1658 3232 
z
" transform="scale(0.015625)"/>
       <path id="NimbusSanL-Regu-30" d="M 1760 4544 
C 1338 4544 954 4358 717 4044 
C 422 3649 275 3043 275 2207 
C 275 683 787 -128 1760 -128 
C 2720 -128 3245 683 3245 2169 
C 3245 3049 3104 3636 2803 4044 
C 2566 4364 2189 4544 1760 4544 
z
M 1760 4044 
C 2368 4044 2669 3432 2669 2220 
C 2669 938 2374 339 1747 339 
C 1152 339 851 964 851 2201 
C 851 3438 1152 4044 1760 4044 
z
" transform="scale(0.015625)"/>
      </defs>
      <use xlink:href="#NimbusSanL-Regu-41" transform="scale(0.996264)"/>
      <use xlink:href="#NimbusSanL-Regu-6c" transform="translate(66.450031 0) scale(0.996264)"/>
      <use xlink:href="#NimbusSanL-Regu-74" transform="translate(88.566815 0) scale(0.996264)"/>
      <use xlink:href="#NimbusSanL-Regu-2d" transform="translate(116.261985 0) scale(0.996264)"/>
      <use xlink:href="#NimbusSanL-Regu-69" transform="translate(149.437215 0) scale(0.996264)"/>
      <use xlink:href="#NimbusSanL-Regu-74" transform="translate(171.553999 0) scale(0.996264)"/>
      <use xlink:href="#NimbusSanL-Regu-65" transform="translate(199.249169 0) scale(0.996264)"/>
      <use xlink:href="#NimbusSanL-Regu-72" transform="translate(254.640846 0) scale(0.996264)"/>
      <use xlink:href="#NimbusSanL-Regu-31" transform="translate(287.816075 0) scale(0.996264)"/>
      <use xlink:href="#NimbusSanL-Regu-30" transform="translate(343.207752 0) scale(0.996264)"/>
      <use xlink:href="#NimbusSanL-Regu-2d" transform="translate(398.599429 0) scale(0.996264)"/>
      <use xlink:href="#NimbusSanL-Regu-52" transform="translate(431.774659 0) scale(0.996264)"/>
      <use xlink:href="#NimbusSanL-Regu-54" transform="translate(500.716536 0) scale(0.996264)"/>
      <use xlink:href="#NimbusSanL-Regu-52" transform="translate(561.588167 0) scale(0.996264)"/>
      <use xlink:href="#NimbusSanL-Regu-4e" transform="translate(633.518152 0) scale(0.996264)"/>
     </g>
    </g>
    <g id="line2d_16">
     <path d="M 465.371324 148.340152 
L 489.371324 148.340152 
L 513.371324 148.340152 
" style="fill: none; stroke-dasharray: 10,2,2,2,2,2; stroke-dashoffset: 0; stroke: #e76300; stroke-width: 2"/>
    </g>
    <g id="text_10">
     <!-- Alt-iter20-RTRN -->
     <g transform="translate(532.571324 156.740152) scale(0.24 -0.24)">
      <defs>
       <path id="NimbusSanL-Regu-32" d="M 3238 556 
L 851 556 
C 909 928 1114 1165 1670 1493 
L 2310 1839 
C 2944 2185 3270 2653 3270 3211 
C 3270 3589 3117 3942 2848 4185 
C 2579 4428 2246 4544 1818 4544 
C 1242 4544 813 4339 563 3955 
C 403 3711 333 3429 320 2967 
L 883 2967 
C 902 3275 941 3461 1018 3608 
C 1165 3884 1459 4051 1798 4051 
C 2310 4051 2694 3685 2694 3198 
C 2694 2839 2483 2531 2080 2300 
L 1491 1967 
C 544 1428 269 999 218 0 
L 3238 0 
L 3238 556 
z
" transform="scale(0.015625)"/>
      </defs>
      <use xlink:href="#NimbusSanL-Regu-41" transform="scale(0.996264)"/>
      <use xlink:href="#NimbusSanL-Regu-6c" transform="translate(66.450031 0) scale(0.996264)"/>
      <use xlink:href="#NimbusSanL-Regu-74" transform="translate(88.566815 0) scale(0.996264)"/>
      <use xlink:href="#NimbusSanL-Regu-2d" transform="translate(116.261985 0) scale(0.996264)"/>
      <use xlink:href="#NimbusSanL-Regu-69" transform="translate(149.437215 0) scale(0.996264)"/>
      <use xlink:href="#NimbusSanL-Regu-74" transform="translate(171.553999 0) scale(0.996264)"/>
      <use xlink:href="#NimbusSanL-Regu-65" transform="translate(199.249169 0) scale(0.996264)"/>
      <use xlink:href="#NimbusSanL-Regu-72" transform="translate(254.640846 0) scale(0.996264)"/>
      <use xlink:href="#NimbusSanL-Regu-32" transform="translate(287.816075 0) scale(0.996264)"/>
      <use xlink:href="#NimbusSanL-Regu-30" transform="translate(343.207752 0) scale(0.996264)"/>
      <use xlink:href="#NimbusSanL-Regu-2d" transform="translate(398.599429 0) scale(0.996264)"/>
      <use xlink:href="#NimbusSanL-Regu-52" transform="translate(431.774659 0) scale(0.996264)"/>
      <use xlink:href="#NimbusSanL-Regu-54" transform="translate(500.716536 0) scale(0.996264)"/>
      <use xlink:href="#NimbusSanL-Regu-52" transform="translate(561.588167 0) scale(0.996264)"/>
      <use xlink:href="#NimbusSanL-Regu-4e" transform="translate(633.518152 0) scale(0.996264)"/>
     </g>
    </g>
   </g>
  </g>
 </g>
 <defs>
  <clipPath id="p3acd7daea8">
   <rect x="92.231324" y="15.717984" width="334.8" height="332.64"/>
  </clipPath>
 </defs>
</svg>
