<?xml version="1.0" encoding="utf-8" standalone="no"?>
<!DOCTYPE svg PUBLIC "-//W3C//DTD SVG 1.1//EN"
  "http://www.w3.org/Graphics/SVG/1.1/DTD/svg11.dtd">
<svg xmlns:xlink="http://www.w3.org/1999/xlink" width="1063.326858pt" height="434.646755pt" viewBox="0 0 1063.326858 434.646755" xmlns="http://www.w3.org/2000/svg" version="1.1">
 <metadata>
  <rdf:RDF xmlns:dc="http://purl.org/dc/elements/1.1/" xmlns:cc="http://creativecommons.org/ns#" xmlns:rdf="http://www.w3.org/1999/02/22-rdf-syntax-ns#">
   <cc:Work>
    <dc:type rdf:resource="http://purl.org/dc/dcmitype/StillImage"/>
    <dc:date>2026-03-11T15:35:29.864765</dc:date>
    <dc:format>image/svg+xml</dc:format>
    <dc:creator>
     <cc:Agent>
      <dc:title>Matplotlib v3.8.0, https://matplotlib.org/</dc:title>
     </cc:Agent>
    </dc:creator>
   </cc:Work>
  </rdf:RDF>
 </metadata>
 <defs>
  <style type="text/css">*{stroke-linejoin: round; stroke-linecap: butt}</style>
 </defs>
 <g id="figure_1">
  <g id="patch_1">
   <path d="M 0 434.646755 
L 1063.326858 434.646755 
L 1063.326858 0 
L 0 0 
L 0 434.646755 
z
" style="fill: none"/>
  </g>
  <g id="axes_1">
   <g id="patch_2">
    <path d="M 92.231324 361.104 
L 427.031324 361.104 
L 427.031324 28.464 
L 92.231324 28.464 
L 92.231324 361.104 
z
" style="fill: none"/>
   </g>
   <g id="matplotlib.axis_1">
    <g id="xtick_1">
     <g id="line2d_1">
      <defs>
       <path id="m9383822468" d="M 0 0 
L 0 -10 
" style="stroke: #000000; stroke-width: 2"/>
      </defs>
      <g>
       <use xlink:href="#m9383822468" x="105.623324" y="361.104" style="stroke: #000000; stroke-width: 2"/>
      </g>
     </g>
     <g id="line2d_2">
      <defs>
       <path id="madb6f4c41e" d="M 0 0 
L 0 10 
" style="stroke: #000000; stroke-width: 2"/>
      </defs>
      <g>
       <use xlink:href="#madb6f4c41e" x="105.623324" y="28.464" style="stroke: #000000; stroke-width: 2"/>
      </g>
     </g>
     <g id="text_1">
      <!-- $\mathdefault{0}$ -->
      <g transform="translate(100.140466 390.139969) scale(0.24 -0.24)">
       <defs>
        <path id="CMR17-30" d="M 2688 2038 
C 2688 2430 2682 3099 2413 3613 
C 2176 4063 1798 4224 1466 4224 
C 1158 4224 768 4082 525 3620 
C 269 3137 243 2539 243 2038 
C 243 1671 250 1112 448 623 
C 723 -39 1216 -128 1466 -128 
C 1760 -128 2208 -7 2470 604 
C 2662 1048 2688 1568 2688 2038 
z
M 1466 -26 
C 1056 -26 813 328 723 816 
C 653 1196 653 1749 653 2109 
C 653 2604 653 3015 736 3407 
C 858 3954 1216 4121 1466 4121 
C 1728 4121 2067 3947 2189 3420 
C 2272 3054 2278 2623 2278 2109 
C 2278 1691 2278 1176 2202 797 
C 2067 96 1690 -26 1466 -26 
z
" transform="scale(0.015625)"/>
       </defs>
       <use xlink:href="#CMR17-30" transform="scale(0.996264)"/>
      </g>
     </g>
    </g>
    <g id="xtick_2">
     <g id="line2d_3">
      <g>
       <use xlink:href="#m9383822468" x="427.031324" y="361.104" style="stroke: #000000; stroke-width: 2"/>
      </g>
     </g>
     <g id="line2d_4">
      <g>
       <use xlink:href="#madb6f4c41e" x="427.031324" y="28.464" style="stroke: #000000; stroke-width: 2"/>
      </g>
     </g>
     <g id="text_2">
      <!-- $\mathdefault{60}$ -->
      <g transform="translate(416.065609 390.139969) scale(0.24 -0.24)">
       <defs>
        <path id="CMR17-36" d="M 678 2198 
C 678 3712 1395 4076 1811 4076 
C 1946 4076 2272 4049 2400 3782 
C 2298 3782 2106 3782 2106 3558 
C 2106 3385 2246 3328 2336 3328 
C 2394 3328 2566 3353 2566 3571 
C 2566 3987 2246 4224 1805 4224 
C 1043 4224 243 3411 243 2011 
C 243 257 966 -128 1478 -128 
C 2099 -128 2688 431 2688 1295 
C 2688 2101 2170 2688 1517 2688 
C 1126 2688 838 2430 678 1979 
L 678 2198 
z
M 1478 25 
C 691 25 691 1212 691 1450 
C 691 1914 909 2585 1504 2585 
C 1613 2585 1926 2585 2138 2140 
C 2253 1889 2253 1624 2253 1302 
C 2253 954 2253 696 2118 438 
C 1978 173 1773 25 1478 25 
z
" transform="scale(0.015625)"/>
       </defs>
       <use xlink:href="#CMR17-36" transform="scale(0.996264)"/>
       <use xlink:href="#CMR17-30" transform="translate(45.690477 0) scale(0.996264)"/>
      </g>
     </g>
    </g>
    <g id="text_3">
     <!-- Time (s) -->
     <g transform="translate(204.847239 421.080795) scale(0.3 -0.3)">
      <defs>
       <path id="NimbusSanL-Regu-54" d="M 2266 4147 
L 3795 4147 
L 3795 4672 
L 134 4672 
L 134 4147 
L 1670 4147 
L 1670 0 
L 2266 0 
L 2266 4147 
z
" transform="scale(0.015625)"/>
       <path id="NimbusSanL-Regu-69" d="M 960 3358 
L 429 3358 
L 429 0 
L 960 0 
L 960 3358 
z
M 960 4672 
L 422 4672 
L 422 3999 
L 960 3999 
L 960 4672 
z
" transform="scale(0.015625)"/>
       <path id="NimbusSanL-Regu-6d" d="M 448 3328 
L 448 0 
L 986 0 
L 986 2089 
C 986 2597 1338 2988 1773 2988 
C 2170 2988 2394 2744 2394 2315 
L 2394 0 
L 2931 0 
L 2931 2109 
C 2931 2597 3283 2988 3718 2988 
C 4109 2988 4339 2738 4339 2315 
L 4339 0 
L 4877 0 
L 4877 2520 
C 4877 3123 4531 3456 3904 3456 
C 3456 3456 3187 3321 2874 2943 
C 2675 3302 2406 3456 1971 3456 
C 1523 3456 1229 3289 941 2886 
L 941 3328 
L 448 3328 
z
" transform="scale(0.015625)"/>
       <path id="NimbusSanL-Regu-65" d="M 3283 1484 
C 3283 1998 3245 2311 3149 2565 
C 2931 3123 2419 3456 1792 3456 
C 858 3456 256 2734 256 1619 
C 256 545 838 -128 1779 -128 
C 2547 -128 3078 307 3213 1018 
L 2675 1018 
C 2528 588 2227 364 1798 364 
C 1459 364 1171 514 992 787 
C 864 974 819 1161 813 1484 
L 3283 1484 
z
M 826 1920 
C 870 2552 1248 2963 1786 2963 
C 2310 2963 2714 2519 2714 1959 
C 2714 1946 2714 1933 2707 1920 
L 826 1920 
z
" transform="scale(0.015625)"/>
       <path id="NimbusSanL-Regu-28" d="M 1510 4672 
C 870 3833 467 2668 467 1663 
C 467 652 870 -513 1510 -1351 
L 1862 -1351 
C 1299 -436 986 639 986 1663 
C 986 2681 1299 3763 1862 4672 
L 1510 4672 
z
" transform="scale(0.015625)"/>
       <path id="NimbusSanL-Regu-73" d="M 2803 2428 
C 2797 3084 2362 3456 1587 3456 
C 806 3456 301 3052 301 2434 
C 301 1912 570 1663 1363 1472 
L 1862 1351 
C 2234 1262 2381 1129 2381 887 
C 2381 574 2067 364 1600 364 
C 1312 364 1069 447 934 587 
C 851 683 813 778 781 1014 
L 218 1014 
C 243 243 678 -128 1555 -128 
C 2400 -128 2938 288 2938 931 
C 2938 1428 2656 1702 1990 1861 
L 1478 1982 
C 1043 2084 858 2224 858 2459 
C 858 2765 1133 2963 1568 2963 
C 1997 2963 2227 2778 2240 2428 
L 2803 2428 
z
" transform="scale(0.015625)"/>
       <path id="NimbusSanL-Regu-29" d="M 595 -1351 
C 1235 -513 1638 652 1638 1657 
C 1638 2668 1235 3833 595 4672 
L 243 4672 
C 806 3756 1120 2681 1120 1657 
C 1120 639 806 -442 243 -1351 
L 595 -1351 
z
" transform="scale(0.015625)"/>
      </defs>
      <use xlink:href="#NimbusSanL-Regu-54" transform="scale(0.996264)"/>
      <use xlink:href="#NimbusSanL-Regu-69" transform="translate(60.871631 0) scale(0.996264)"/>
      <use xlink:href="#NimbusSanL-Regu-6d" transform="translate(82.988415 0) scale(0.996264)"/>
      <use xlink:href="#NimbusSanL-Regu-65" transform="translate(165.976845 0) scale(0.996264)"/>
      <use xlink:href="#NimbusSanL-Regu-28" transform="translate(249.063692 0) scale(0.996264)"/>
      <use xlink:href="#NimbusSanL-Regu-73" transform="translate(282.238922 0) scale(0.996264)"/>
      <use xlink:href="#NimbusSanL-Regu-29" transform="translate(332.052122 0) scale(0.996264)"/>
     </g>
    </g>
   </g>
   <g id="matplotlib.axis_2">
    <g id="ytick_1">
     <g id="line2d_5">
      <defs>
       <path id="m1fed5fe766" d="M 0 0 
L 10 0 
" style="stroke: #000000; stroke-width: 2"/>
      </defs>
      <g>
       <use xlink:href="#m1fed5fe766" x="92.231324" y="92.817507" style="stroke: #000000; stroke-width: 2"/>
      </g>
     </g>
     <g id="line2d_6">
      <defs>
       <path id="m098c9a29e0" d="M 0 0 
L -10 0 
" style="stroke: #000000; stroke-width: 2"/>
      </defs>
      <g>
       <use xlink:href="#m098c9a29e0" x="427.031324" y="92.817507" style="stroke: #000000; stroke-width: 2"/>
      </g>
     </g>
     <g id="text_4">
      <!-- $\mathdefault{10^{-3}}$ -->
      <g transform="translate(41.08792 101.335491) scale(0.24 -0.24)">
       <defs>
        <path id="CMR17-31" d="M 1702 4083 
C 1702 4217 1696 4224 1606 4224 
C 1357 3927 979 3833 621 3820 
C 602 3820 570 3820 563 3808 
C 557 3795 557 3782 557 3648 
C 755 3648 1088 3686 1344 3839 
L 1344 467 
C 1344 243 1331 166 781 166 
L 589 166 
L 589 0 
C 896 6 1216 12 1523 12 
C 1830 12 2150 6 2458 0 
L 2458 166 
L 2266 166 
C 1715 166 1702 236 1702 467 
L 1702 4083 
z
" transform="scale(0.015625)"/>
        <path id="CMSY10-0" d="M 4218 1472 
C 4326 1472 4442 1472 4442 1600 
C 4442 1728 4326 1728 4218 1728 
L 755 1728 
C 646 1728 531 1728 531 1600 
C 531 1472 646 1472 755 1472 
L 4218 1472 
z
" transform="scale(0.015625)"/>
        <path id="CMR17-33" d="M 1414 2176 
C 1984 2176 2234 1673 2234 1094 
C 2234 322 1824 25 1453 25 
C 1114 25 563 193 390 691 
C 422 678 454 678 486 678 
C 640 678 755 780 755 947 
C 755 1132 614 1216 486 1216 
C 378 1216 211 1164 211 927 
C 211 335 787 -128 1466 -128 
C 2176 -128 2720 432 2720 1087 
C 2720 1718 2208 2176 1600 2246 
C 2086 2347 2554 2776 2554 3353 
C 2554 3856 2048 4224 1472 4224 
C 890 4224 378 3862 378 3347 
C 378 3123 544 3084 627 3084 
C 762 3084 877 3167 877 3334 
C 877 3500 762 3584 627 3584 
C 602 3584 570 3584 544 3571 
C 730 3999 1235 4076 1459 4076 
C 1683 4076 2106 3966 2106 3347 
C 2106 3167 2080 2851 1862 2574 
C 1670 2329 1453 2316 1242 2297 
C 1210 2297 1062 2284 1037 2284 
C 992 2278 966 2272 966 2227 
C 966 2182 973 2176 1101 2176 
L 1414 2176 
z
" transform="scale(0.015625)"/>
       </defs>
       <use xlink:href="#CMR17-31" transform="scale(0.996264)"/>
       <use xlink:href="#CMR17-30" transform="translate(45.690477 0) scale(0.996264)"/>
       <use xlink:href="#CMSY10-0" transform="translate(91.380954 36.153639) scale(0.697382)"/>
       <use xlink:href="#CMR17-33" transform="translate(145.621947 36.153639) scale(0.697382)"/>
      </g>
     </g>
    </g>
    <g id="ytick_2">
     <g id="line2d_7">
      <g>
       <use xlink:href="#m1fed5fe766" x="92.231324" y="326.005682" style="stroke: #000000; stroke-width: 2"/>
      </g>
     </g>
     <g id="line2d_8">
      <g>
       <use xlink:href="#m098c9a29e0" x="427.031324" y="326.005682" style="stroke: #000000; stroke-width: 2"/>
      </g>
     </g>
     <g id="text_5">
      <!-- $\mathdefault{10^{-5}}$ -->
      <g transform="translate(41.08792 334.523667) scale(0.24 -0.24)">
       <defs>
        <path id="CMR17-35" d="M 730 3750 
C 794 3724 1056 3641 1325 3641 
C 1920 3641 2246 3961 2432 4140 
C 2432 4191 2432 4224 2394 4224 
C 2387 4224 2374 4224 2323 4198 
C 2099 4102 1837 4032 1517 4032 
C 1325 4032 1037 4055 723 4191 
C 653 4224 640 4224 634 4224 
C 602 4224 595 4217 595 4090 
L 595 2231 
C 595 2113 595 2080 659 2080 
C 691 2080 704 2093 736 2139 
C 941 2435 1222 2560 1542 2560 
C 1766 2560 2246 2415 2246 1293 
C 2246 1087 2246 716 2054 422 
C 1894 159 1645 25 1370 25 
C 947 25 518 319 403 812 
C 429 806 480 793 506 793 
C 589 793 749 838 749 1036 
C 749 1209 627 1280 506 1280 
C 358 1280 262 1190 262 1011 
C 262 454 704 -128 1382 -128 
C 2042 -128 2669 441 2669 1267 
C 2669 2054 2170 2662 1549 2662 
C 1222 2662 947 2540 730 2304 
L 730 3750 
z
" transform="scale(0.015625)"/>
       </defs>
       <use xlink:href="#CMR17-31" transform="scale(0.996264)"/>
       <use xlink:href="#CMR17-30" transform="translate(45.690477 0) scale(0.996264)"/>
       <use xlink:href="#CMSY10-0" transform="translate(91.380954 36.153639) scale(0.697382)"/>
       <use xlink:href="#CMR17-35" transform="translate(145.621947 36.153639) scale(0.697382)"/>
      </g>
     </g>
    </g>
    <g id="ytick_3">
     <g id="line2d_9">
      <defs>
       <path id="m5b36e53c28" d="M 0 0 
L 4 0 
" style="stroke: #000000"/>
      </defs>
      <g>
       <use xlink:href="#m5b36e53c28" x="92.231324" y="361.104" style="stroke: #000000"/>
      </g>
     </g>
     <g id="line2d_10">
      <defs>
       <path id="me98a8b7285" d="M 0 0 
L -4 0 
" style="stroke: #000000"/>
      </defs>
      <g>
       <use xlink:href="#me98a8b7285" x="427.031324" y="361.104" style="stroke: #000000"/>
      </g>
     </g>
    </g>
    <g id="ytick_4">
     <g id="line2d_11">
      <g>
       <use xlink:href="#m5b36e53c28" x="92.231324" y="351.871935" style="stroke: #000000"/>
      </g>
     </g>
     <g id="line2d_12">
      <g>
       <use xlink:href="#me98a8b7285" x="427.031324" y="351.871935" style="stroke: #000000"/>
      </g>
     </g>
    </g>
    <g id="ytick_5">
     <g id="line2d_13">
      <g>
       <use xlink:href="#m5b36e53c28" x="92.231324" y="344.066335" style="stroke: #000000"/>
      </g>
     </g>
     <g id="line2d_14">
      <g>
       <use xlink:href="#me98a8b7285" x="427.031324" y="344.066335" style="stroke: #000000"/>
      </g>
     </g>
    </g>
    <g id="ytick_6">
     <g id="line2d_15">
      <g>
       <use xlink:href="#m5b36e53c28" x="92.231324" y="337.304817" style="stroke: #000000"/>
      </g>
     </g>
     <g id="line2d_16">
      <g>
       <use xlink:href="#me98a8b7285" x="427.031324" y="337.304817" style="stroke: #000000"/>
      </g>
     </g>
    </g>
    <g id="ytick_7">
     <g id="line2d_17">
      <g>
       <use xlink:href="#m5b36e53c28" x="92.231324" y="331.340735" style="stroke: #000000"/>
      </g>
     </g>
     <g id="line2d_18">
      <g>
       <use xlink:href="#me98a8b7285" x="427.031324" y="331.340735" style="stroke: #000000"/>
      </g>
     </g>
    </g>
    <g id="ytick_8">
     <g id="line2d_19">
      <g>
       <use xlink:href="#m5b36e53c28" x="92.231324" y="290.907365" style="stroke: #000000"/>
      </g>
     </g>
     <g id="line2d_20">
      <g>
       <use xlink:href="#me98a8b7285" x="427.031324" y="290.907365" style="stroke: #000000"/>
      </g>
     </g>
    </g>
    <g id="ytick_9">
     <g id="line2d_21">
      <g>
       <use xlink:href="#m5b36e53c28" x="92.231324" y="270.376165" style="stroke: #000000"/>
      </g>
     </g>
     <g id="line2d_22">
      <g>
       <use xlink:href="#me98a8b7285" x="427.031324" y="270.376165" style="stroke: #000000"/>
      </g>
     </g>
    </g>
    <g id="ytick_10">
     <g id="line2d_23">
      <g>
       <use xlink:href="#m5b36e53c28" x="92.231324" y="255.809047" style="stroke: #000000"/>
      </g>
     </g>
     <g id="line2d_24">
      <g>
       <use xlink:href="#me98a8b7285" x="427.031324" y="255.809047" style="stroke: #000000"/>
      </g>
     </g>
    </g>
    <g id="ytick_11">
     <g id="line2d_25">
      <g>
       <use xlink:href="#m5b36e53c28" x="92.231324" y="244.509912" style="stroke: #000000"/>
      </g>
     </g>
     <g id="line2d_26">
      <g>
       <use xlink:href="#me98a8b7285" x="427.031324" y="244.509912" style="stroke: #000000"/>
      </g>
     </g>
    </g>
    <g id="ytick_12">
     <g id="line2d_27">
      <g>
       <use xlink:href="#m5b36e53c28" x="92.231324" y="235.277847" style="stroke: #000000"/>
      </g>
     </g>
     <g id="line2d_28">
      <g>
       <use xlink:href="#me98a8b7285" x="427.031324" y="235.277847" style="stroke: #000000"/>
      </g>
     </g>
    </g>
    <g id="ytick_13">
     <g id="line2d_29">
      <g>
       <use xlink:href="#m5b36e53c28" x="92.231324" y="227.472247" style="stroke: #000000"/>
      </g>
     </g>
     <g id="line2d_30">
      <g>
       <use xlink:href="#me98a8b7285" x="427.031324" y="227.472247" style="stroke: #000000"/>
      </g>
     </g>
    </g>
    <g id="ytick_14">
     <g id="line2d_31">
      <g>
       <use xlink:href="#m5b36e53c28" x="92.231324" y="220.710729" style="stroke: #000000"/>
      </g>
     </g>
     <g id="line2d_32">
      <g>
       <use xlink:href="#me98a8b7285" x="427.031324" y="220.710729" style="stroke: #000000"/>
      </g>
     </g>
    </g>
    <g id="ytick_15">
     <g id="line2d_33">
      <g>
       <use xlink:href="#m5b36e53c28" x="92.231324" y="214.746647" style="stroke: #000000"/>
      </g>
     </g>
     <g id="line2d_34">
      <g>
       <use xlink:href="#me98a8b7285" x="427.031324" y="214.746647" style="stroke: #000000"/>
      </g>
     </g>
    </g>
    <g id="ytick_16">
     <g id="line2d_35">
      <g>
       <use xlink:href="#m5b36e53c28" x="92.231324" y="174.313277" style="stroke: #000000"/>
      </g>
     </g>
     <g id="line2d_36">
      <g>
       <use xlink:href="#me98a8b7285" x="427.031324" y="174.313277" style="stroke: #000000"/>
      </g>
     </g>
    </g>
    <g id="ytick_17">
     <g id="line2d_37">
      <g>
       <use xlink:href="#m5b36e53c28" x="92.231324" y="153.782077" style="stroke: #000000"/>
      </g>
     </g>
     <g id="line2d_38">
      <g>
       <use xlink:href="#me98a8b7285" x="427.031324" y="153.782077" style="stroke: #000000"/>
      </g>
     </g>
    </g>
    <g id="ytick_18">
     <g id="line2d_39">
      <g>
       <use xlink:href="#m5b36e53c28" x="92.231324" y="139.214959" style="stroke: #000000"/>
      </g>
     </g>
     <g id="line2d_40">
      <g>
       <use xlink:href="#me98a8b7285" x="427.031324" y="139.214959" style="stroke: #000000"/>
      </g>
     </g>
    </g>
    <g id="ytick_19">
     <g id="line2d_41">
      <g>
       <use xlink:href="#m5b36e53c28" x="92.231324" y="127.915825" style="stroke: #000000"/>
      </g>
     </g>
     <g id="line2d_42">
      <g>
       <use xlink:href="#me98a8b7285" x="427.031324" y="127.915825" style="stroke: #000000"/>
      </g>
     </g>
    </g>
    <g id="ytick_20">
     <g id="line2d_43">
      <g>
       <use xlink:href="#m5b36e53c28" x="92.231324" y="118.683759" style="stroke: #000000"/>
      </g>
     </g>
     <g id="line2d_44">
      <g>
       <use xlink:href="#me98a8b7285" x="427.031324" y="118.683759" style="stroke: #000000"/>
      </g>
     </g>
    </g>
    <g id="ytick_21">
     <g id="line2d_45">
      <g>
       <use xlink:href="#m5b36e53c28" x="92.231324" y="110.878159" style="stroke: #000000"/>
      </g>
     </g>
     <g id="line2d_46">
      <g>
       <use xlink:href="#me98a8b7285" x="427.031324" y="110.878159" style="stroke: #000000"/>
      </g>
     </g>
    </g>
    <g id="ytick_22">
     <g id="line2d_47">
      <g>
       <use xlink:href="#m5b36e53c28" x="92.231324" y="104.116641" style="stroke: #000000"/>
      </g>
     </g>
     <g id="line2d_48">
      <g>
       <use xlink:href="#me98a8b7285" x="427.031324" y="104.116641" style="stroke: #000000"/>
      </g>
     </g>
    </g>
    <g id="ytick_23">
     <g id="line2d_49">
      <g>
       <use xlink:href="#m5b36e53c28" x="92.231324" y="98.15256" style="stroke: #000000"/>
      </g>
     </g>
     <g id="line2d_50">
      <g>
       <use xlink:href="#me98a8b7285" x="427.031324" y="98.15256" style="stroke: #000000"/>
      </g>
     </g>
    </g>
    <g id="ytick_24">
     <g id="line2d_51">
      <g>
       <use xlink:href="#m5b36e53c28" x="92.231324" y="57.719189" style="stroke: #000000"/>
      </g>
     </g>
     <g id="line2d_52">
      <g>
       <use xlink:href="#me98a8b7285" x="427.031324" y="57.719189" style="stroke: #000000"/>
      </g>
     </g>
    </g>
    <g id="ytick_25">
     <g id="line2d_53">
      <g>
       <use xlink:href="#m5b36e53c28" x="92.231324" y="37.187989" style="stroke: #000000"/>
      </g>
     </g>
     <g id="line2d_54">
      <g>
       <use xlink:href="#me98a8b7285" x="427.031324" y="37.187989" style="stroke: #000000"/>
      </g>
     </g>
    </g>
    <g id="text_6">
     <!-- $|\mathrm{grad} \ c_{16}|$ -->
     <g transform="translate(29.61594 250.015564) rotate(-90) scale(0.3 -0.3)">
      <defs>
       <path id="CMSY10-6a" d="M 1018 4569 
C 1018 4684 1018 4800 890 4800 
C 762 4800 762 4684 762 4569 
L 762 -1370 
C 762 -1485 762 -1600 890 -1600 
C 1018 -1600 1018 -1485 1018 -1370 
L 1018 4569 
z
" transform="scale(0.015625)"/>
       <path id="CMR17-67" d="M 710 1165 
C 832 1068 1043 960 1299 960 
C 1805 960 2240 1359 2240 1895 
C 2240 2063 2189 2321 1997 2521 
C 2176 2713 2438 2777 2586 2777 
C 2611 2777 2650 2777 2682 2758 
C 2656 2751 2598 2726 2598 2623 
C 2598 2540 2656 2483 2739 2483 
C 2835 2483 2886 2547 2886 2630 
C 2886 2751 2790 2880 2586 2880 
C 2330 2880 2106 2758 1926 2591 
C 1734 2764 1504 2828 1299 2828 
C 794 2828 358 2431 358 1895 
C 358 1527 570 1294 634 1230 
C 442 1004 442 742 442 710 
C 442 544 506 300 723 166 
C 390 82 128 -184 128 -517 
C 128 -996 736 -1344 1466 -1344 
C 2170 -1344 2803 -1009 2803 -510 
C 2803 384 1856 384 1363 384 
C 1216 384 954 384 922 390 
C 723 422 589 601 589 825 
C 589 883 589 1024 710 1165 
z
M 1299 1068 
C 736 1068 736 1766 736 1895 
C 736 2024 736 2719 1299 2719 
C 1862 2719 1862 2024 1862 1895 
C 1862 1766 1862 1068 1299 1068 
z
M 1466 -1236 
C 826 -1236 384 -883 384 -517 
C 384 -311 493 -118 634 -11 
C 794 102 858 102 1293 102 
C 1818 102 2547 102 2547 -517 
C 2547 -883 2106 -1236 1466 -1236 
z
" transform="scale(0.015625)"/>
       <path id="CMR17-72" d="M 960 1517 
C 960 2134 1222 2713 1702 2713 
C 1747 2713 1792 2707 1837 2687 
C 1837 2687 1696 2642 1696 2475 
C 1696 2321 1818 2257 1914 2257 
C 1990 2257 2131 2302 2131 2482 
C 2131 2687 1926 2816 1709 2816 
C 1222 2816 1011 2340 947 2115 
L 941 2115 
L 941 2816 
L 198 2745 
L 198 2578 
C 576 2578 634 2540 634 2231 
L 634 443 
C 634 198 608 166 198 166 
L 198 0 
C 352 12 646 12 813 12 
C 998 12 1325 12 1498 0 
L 1498 166 
C 1037 166 960 166 960 455 
L 960 1517 
z
" transform="scale(0.015625)"/>
       <path id="CMR17-61" d="M 2304 1656 
C 2304 2048 2304 2275 2035 2534 
C 1798 2751 1523 2816 1306 2816 
C 800 2816 435 2408 435 1977 
C 435 1740 627 1728 666 1728 
C 749 1728 896 1779 896 1958 
C 896 2118 774 2188 666 2188 
C 640 2188 608 2182 589 2176 
C 723 2594 1069 2713 1293 2713 
C 1613 2713 1965 2421 1965 1875 
L 1965 1632 
C 1587 1619 1133 1568 774 1373 
C 371 1147 256 822 256 576 
C 256 77 832 -64 1171 -64 
C 1523 -64 1850 135 1990 505 
C 2003 219 2182 -39 2464 -39 
C 2598 -39 2938 51 2938 563 
L 2938 926 
L 2822 926 
L 2822 557 
C 2822 161 2650 109 2566 109 
C 2304 109 2304 446 2304 732 
L 2304 1656 
z
M 1965 887 
C 1965 323 1568 38 1216 38 
C 896 38 646 278 646 576 
C 646 771 730 1114 1101 1322 
C 1408 1497 1760 1523 1965 1536 
L 1965 887 
z
" transform="scale(0.015625)"/>
       <path id="CMR17-64" d="M 1869 4345 
L 1869 4179 
C 2246 4179 2304 4141 2304 3843 
L 2304 2371 
C 2278 2403 2016 2816 1498 2816 
C 845 2816 211 2228 211 1376 
C 211 529 806 -64 1434 -64 
C 1978 -64 2259 361 2291 406 
L 2291 -64 
L 3066 -13 
L 3066 154 
C 2688 154 2630 193 2630 503 
L 2630 4416 
L 1869 4345 
z
M 2291 762 
C 2291 568 2176 393 2029 264 
C 1811 70 1594 38 1472 38 
C 1286 38 621 135 621 1369 
C 621 2636 1363 2713 1530 2713 
C 1824 2713 2061 2545 2208 2313 
C 2291 2177 2291 2157 2291 2041 
L 2291 762 
z
" transform="scale(0.015625)"/>
       <path id="CMMI12-63" d="M 2502 2432 
C 2381 2432 2323 2432 2234 2355 
C 2195 2323 2125 2227 2125 2124 
C 2125 1996 2221 1919 2342 1919 
C 2496 1919 2669 2047 2669 2303 
C 2669 2591 2374 2816 1933 2816 
C 1094 2816 256 1932 256 1011 
C 256 446 602 -64 1254 -64 
C 2125 -64 2675 622 2675 706 
C 2675 745 2637 777 2611 777 
C 2592 777 2586 771 2528 712 
C 2118 161 1510 64 1267 64 
C 826 64 685 453 685 777 
C 685 1004 794 1634 1024 2073 
C 1190 2374 1536 2687 1939 2687 
C 2022 2687 2374 2676 2502 2432 
z
" transform="scale(0.015625)"/>
      </defs>
      <use xlink:href="#CMSY10-6a" transform="scale(0.996264)"/>
      <use xlink:href="#CMR17-67" transform="translate(27.674085 0) scale(0.996264)"/>
      <use xlink:href="#CMR17-72" transform="translate(73.364562 0) scale(0.996264)"/>
      <use xlink:href="#CMR17-61" transform="translate(108.64533 0) scale(0.996264)"/>
      <use xlink:href="#CMR17-64" transform="translate(154.335807 0) scale(0.996264)"/>
      <use xlink:href="#CMMI12-63" transform="translate(232.926346 0) scale(0.996264)"/>
      <use xlink:href="#CMR17-31" transform="translate(274.90958 -14.943915) scale(0.697382)"/>
      <use xlink:href="#CMR17-36" transform="translate(306.892762 -14.943915) scale(0.697382)"/>
      <use xlink:href="#CMSY10-6a" transform="translate(339.374076 0) scale(0.996264)"/>
     </g>
    </g>
   </g>
   <g id="line2d_55">
    <path d="M 105.623324 77.272686 
L 106.694211 77.272686 
L 107.075755 84.828665 
L 107.46273 75.473944 
L 107.844421 52.761628 
L 108.22672 85.99729 
L 108.44534 75.802644 
L 108.827207 110.294042 
L 109.213292 67.294382 
L 109.568616 67.294382 
L 109.788517 86.519687 
L 110.175638 94.02564 
L 110.721995 120.042563 
L 111.268844 112.487678 
L 111.980963 75.624144 
L 112.831678 75.624144 
L 113.419342 143.269236 
L 115.195076 97.472169 
L 115.575134 106.361609 
L 116.455679 109.315704 
L 116.678573 115.744404 
L 117.426365 142.610852 
L 118.137268 129.095558 
L 118.869502 145.867882 
L 119.578886 105.68933 
L 120.614138 104.751965 
L 121.158472 104.751965 
L 121.539453 103.293347 
L 122.426041 148.686046 
L 124.507876 139.534472 
L 126.354656 139.534472 
L 127.711993 148.356007 
L 129.098936 175.594871 
L 130.819725 160.857229 
L 132.84628 145.438078 
L 134.703044 145.438078 
L 135.746123 191.585241 
L 137.281518 205.987278 
L 139.321546 170.884024 
L 141.884079 161.581104 
L 144.884408 161.581104 
L 146.406509 174.079934 
L 148.440051 196.542584 
L 154.911565 154.428395 
L 161.547742 154.428395 
L 163.229001 191.109184 
L 166.244528 215.494052 
L 169.610911 184.796941 
L 173.430243 184.796941 
L 176.816654 225.898552 
L 180.183898 192.490215 
L 183.841009 192.490215 
L 187.200043 206.521107 
L 190.737433 183.697203 
L 194.388686 183.697203 
L 197.561731 182.905497 
L 201.051804 161.171479 
L 204.697665 133.426109 
L 208.584402 203.098365 
L 212.927317 196.727628 
L 219.113093 168.126729 
L 227.556236 168.126729 
L 233.973709 178.404706 
L 240.799156 227.908294 
L 247.835143 203.470992 
L 257.655377 168.315974 
L 263.114199 161.48866 
L 268.159912 161.48866 
L 271.865245 192.86776 
L 276.018541 230.224101 
L 280.374194 203.481535 
L 286.676793 237.393753 
L 294.57436 186.97781 
L 304.876566 144.473146 
L 310.003836 144.473146 
L 312.217781 167.257041 
L 315.379384 202.954 
L 323.237791 222.52397 
L 332.030121 239.303309 
L 343.633615 163.373838 
L 356.738366 163.373838 
L 365.3307 237.455897 
L 374.705401 201.243278 
L 387.175666 170.731232 
L 400.745407 170.731232 
L 412.824413 135.411372 
L 423.427502 135.411372 
L 429.311924 247.358275 
L 437.560804 282.356259 
L 448.561417 219.53289 
L 462.10737 138.705197 
L 473.442324 138.705197 
L 482.583506 179.994627 
L 493.653673 143.830648 
L 505.086926 143.830648 
L 512.641605 263.416767 
L 521.356443 201.720001 
L 532.996289 206.832157 
L 549.005352 206.832157 
L 560.954465 159.44767 
L 572.256752 159.44767 
L 580.609532 287.325677 
L 589.78645 239.276751 
L 603.046956 204.06293 
L 618.827573 204.06293 
L 632.424083 207.106701 
L 646.181569 190.267457 
L 662.684373 190.267457 
L 676.335904 223.321221 
L 690.433973 238.072158 
L 706.960404 196.485352 
L 723.418264 146.750526 
L 734.532469 146.750526 
L 744.796374 157.981635 
L 756.346893 139.642359 
L 762.698645 283.560143 
L 771.478542 245.977468 
L 782.811052 255.003701 
L 798.664865 158.298842 
L 812.037012 158.298842 
L 821.855173 246.912353 
L 833.463364 242.035742 
L 848.732639 213.938588 
L 865.2571 201.469867 
L 881.919736 207.224873 
L 898.311845 221.008507 
L 914.970819 255.136588 
L 931.462989 252.078181 
L 948.057287 247.761757 
L 964.600519 294.210877 
L 981.263068 306.363592 
L 997.720368 279.239222 
L 1014.302003 254.324016 
L 1030.856038 301.572227 
L 1047.329865 292.093376 
L 1063.901879 307.358683 
L 1064.326858 306.114962 
L 1064.326858 306.114962 
" clip-path="url(#pd3cfbc456f)" style="fill: none; stroke-dasharray: 12.8,3.2,2,3.2; stroke-dashoffset: 0; stroke: #bd1f01; stroke-width: 2"/>
   </g>
   <g id="line2d_56">
    <path d="M 114.077856 191.256419 
L 133.03483 191.256419 
L 136.841001 157.078927 
L 141.792104 207.019617 
L 147.422325 219.619948 
L 154.415105 228.371558 
L 164.886208 162.753968 
L 180.00179 162.753968 
L 190.640997 208.155942 
L 203.283251 181.259897 
L 220.044284 181.259897 
L 232.068927 220.363442 
L 245.011317 214.512374 
L 260.953201 159.397322 
L 270.098244 159.397322 
L 277.152664 175.162856 
L 291.007145 152.464286 
L 304.245536 152.464286 
L 311.879258 225.728365 
L 321.599204 224.88057 
L 335.459584 210.723528 
L 353.086633 198.088607 
L 370.192666 149.263352 
L 384.553709 149.263352 
L 396.964271 183.416114 
L 411.334976 242.877686 
L 428.125457 219.654476 
L 445.149689 234.070627 
L 462.989647 239.099056 
L 480.053134 250.673153 
L 497.231208 255.573399 
L 514.336864 277.049189 
L 531.468767 287.690243 
L 548.599506 253.408406 
L 565.866283 282.608179 
L 582.804759 283.893506 
L 599.791936 309.949114 
L 616.860742 306.704694 
L 633.824479 295.28006 
L 650.694453 298.485796 
L 667.818545 309.487983 
L 685.158537 304.478638 
L 702.054159 275.90025 
L 719.006328 308.278851 
L 736.004221 299.042711 
L 752.608608 311.183625 
L 769.557705 265.956474 
L 786.269296 307.293177 
L 803.38509 312.367873 
L 820.240402 348.93354 
L 836.925663 327.371105 
L 854.63461 284.926197 
L 873.512824 274.143221 
L 890.878928 361.390344 
L 907.570415 363.542448 
L 924.623995 290.001024 
L 941.552321 359.60678 
L 958.492674 297.562172 
L 975.45319 359.827932 
L 992.364982 343.709267 
L 1009.450044 373.691237 
L 1026.913494 367.719558 
L 1045.700115 366.862672 
L 1064.326858 345.851555 
L 1064.326858 345.851555 
" clip-path="url(#pd3cfbc456f)" style="fill: none; stroke-dasharray: 20,6; stroke-dashoffset: 10; stroke: #a96b59; stroke-width: 2"/>
   </g>
   <g id="line2d_57">
    <path d="M 123.140588 253.15597 
L 183.808981 253.15597 
L 191.705383 232.080505 
L 199.514792 254.131632 
L 209.235418 231.255461 
L 227.77303 188.17566 
L 251.070179 166.15141 
L 275.391854 169.089375 
L 298.650245 169.089375 
L 313.567154 271.970974 
L 331.097664 246.91801 
L 352.277373 225.574712 
L 375.36651 271.59151 
L 398.131817 253.400226 
L 420.482972 245.241708 
L 443.109952 163.230121 
L 465.206828 163.230121 
L 471.571666 260.365475 
L 479.901437 248.381672 
L 492.983662 223.785165 
L 511.484847 195.674095 
L 533.924907 162.04316 
L 567.085255 162.04316 
L 575.245842 284.452002 
L 587.946787 253.020254 
L 603.872837 263.975635 
L 627.442378 214.055321 
L 649.672617 229.780737 
L 671.586631 214.892098 
L 694.073852 223.271707 
L 716.218762 239.400272 
L 738.840401 281.597754 
L 761.17482 215.2316 
L 783.437165 231.636752 
L 805.571498 298.999891 
L 828.039837 256.345695 
L 851.295447 320.464528 
L 873.89847 240.903887 
L 896.082454 327.228148 
L 918.306778 337.724365 
L 940.728606 259.284609 
L 964.605696 306.268604 
L 986.76893 334.397127 
L 1008.291414 305.975285 
L 1030.908874 323.367779 
L 1053.014641 319.583243 
L 1064.326858 327.201871 
L 1064.326858 327.201871 
" clip-path="url(#pd3cfbc456f)" style="fill: none; stroke-dasharray: 2,2; stroke-dashoffset: 0; stroke: #b9ac70; stroke-width: 2"/>
   </g>
   <g id="line2d_58">
    <path d="M 163.110748 260.401835 
L 216.881818 260.401835 
L 222.985802 246.654597 
L 231.151678 223.029668 
L 243.694885 246.413545 
L 261.340665 229.315395 
L 280.366947 312.244747 
L 298.924403 286.548093 
L 317.506932 345.266361 
L 336.390754 318.133016 
L 355.14878 341.527823 
L 374.050737 309.119247 
L 392.83135 327.506074 
L 411.701553 300.83807 
L 430.515145 332.940786 
L 449.583048 293.609915 
L 468.400907 297.135751 
L 488.364149 252.487912 
L 512.150152 174.64031 
L 541.430804 174.64031 
L 550.017196 307.170563 
L 558.530651 280.536078 
L 570.550556 220.00603 
L 586.563055 185.643211 
L 607.939894 185.643211 
L 626.375638 209.274297 
L 645.327284 214.669692 
L 667.697999 166.249707 
L 686.284036 166.249707 
L 701.660956 161.14917 
L 718.54745 148.122043 
L 728.387744 256.325216 
L 742.492014 224.24963 
L 758.449349 202.265471 
L 779.41345 156.941513 
L 790.641801 294.10549 
L 805.24482 232.928103 
L 824.146865 248.810032 
L 846.424254 227.422108 
L 867.579491 286.533751 
L 889.228977 284.712356 
L 911.135938 279.870548 
L 934.464231 341.691731 
L 957.053819 240.320728 
L 979.86894 304.274308 
L 1002.19844 328.761356 
L 1025.325014 322.181061 
L 1049.123271 311.398544 
L 1064.326858 316.631116 
L 1064.326858 316.631116 
" clip-path="url(#pd3cfbc456f)" style="fill: none; stroke-dasharray: 10,2,2,2,2,2; stroke-dashoffset: 0; stroke: #e76300; stroke-width: 2"/>
   </g>
   <g id="patch_3">
    <path d="M 92.231324 361.104 
L 92.231324 28.464 
" style="fill: none; stroke: #000000; stroke-width: 2; stroke-linejoin: miter; stroke-linecap: square"/>
   </g>
   <g id="patch_4">
    <path d="M 427.031324 361.104 
L 427.031324 28.464 
" style="fill: none; stroke: #000000; stroke-width: 2; stroke-linejoin: miter; stroke-linecap: square"/>
   </g>
   <g id="patch_5">
    <path d="M 92.231324 361.104 
L 427.031324 361.104 
" style="fill: none; stroke: #000000; stroke-width: 2; stroke-linejoin: miter; stroke-linecap: square"/>
   </g>
   <g id="patch_6">
    <path d="M 92.231324 28.464 
L 427.031324 28.464 
" style="fill: none; stroke: #000000; stroke-width: 2; stroke-linejoin: miter; stroke-linecap: square"/>
   </g>
   <g id="legend_1">
    <g id="line2d_59">
     <path d="M 783.431324 25.435969 
L 807.431324 25.435969 
L 831.431324 25.435969 
" style="fill: none; stroke-dasharray: 12.8,3.2,2,3.2; stroke-dashoffset: 0; stroke: #bd1f01; stroke-width: 2"/>
    </g>
    <g id="text_7">
     <!-- RTRN -->
     <g transform="translate(850.631324 33.835969) scale(0.24 -0.24)">
      <defs>
       <path id="NimbusSanL-Regu-52" d="M 1190 2035 
L 2726 2035 
C 3258 2035 3494 1775 3494 1191 
L 3488 770 
C 3488 478 3539 192 3622 0 
L 4346 0 
L 4346 147 
C 4122 303 4077 471 4064 1101 
C 4058 1879 3936 2111 3430 2329 
C 3955 2585 4166 2907 4166 3432 
C 4166 4230 3661 4672 2746 4672 
L 595 4672 
L 595 0 
L 1190 0 
L 1190 2035 
z
M 1190 2560 
L 1190 4147 
L 2630 4147 
C 2963 4147 3155 4096 3302 3970 
C 3462 3837 3546 3628 3546 3350 
C 3546 2806 3264 2560 2630 2560 
L 1190 2560 
z
" transform="scale(0.015625)"/>
       <path id="NimbusSanL-Regu-4e" d="M 4134 4672 
L 3571 4672 
L 3571 852 
L 1133 4672 
L 486 4672 
L 486 0 
L 1050 0 
L 1050 3787 
L 3462 0 
L 4134 0 
L 4134 4672 
z
" transform="scale(0.015625)"/>
      </defs>
      <use xlink:href="#NimbusSanL-Regu-52" transform="scale(0.996264)"/>
      <use xlink:href="#NimbusSanL-Regu-54" transform="translate(68.941877 0) scale(0.996264)"/>
      <use xlink:href="#NimbusSanL-Regu-52" transform="translate(129.813508 0) scale(0.996264)"/>
      <use xlink:href="#NimbusSanL-Regu-4e" transform="translate(201.743492 0) scale(0.996264)"/>
     </g>
    </g>
    <g id="line2d_60">
     <path d="M 783.431324 59.564702 
L 807.431324 59.564702 
L 831.431324 59.564702 
" style="fill: none; stroke-dasharray: 20,6; stroke-dashoffset: 10; stroke: #a96b59; stroke-width: 2"/>
    </g>
    <g id="text_8">
     <!-- Alt-iter250-RTRN -->
     <g transform="translate(850.631324 67.964702) scale(0.24 -0.24)">
      <defs>
       <path id="NimbusSanL-Regu-41" d="M 3034 1408 
L 3514 0 
L 4179 0 
L 2541 4672 
L 1773 4672 
L 109 0 
L 742 0 
L 1235 1408 
L 3034 1408 
z
M 2867 1907 
L 1382 1907 
L 2150 4032 
L 2867 1907 
z
" transform="scale(0.015625)"/>
       <path id="NimbusSanL-Regu-6c" d="M 973 4672 
L 435 4672 
L 435 0 
L 973 0 
L 973 4672 
z
" transform="scale(0.015625)"/>
       <path id="NimbusSanL-Regu-74" d="M 1626 3328 
L 1075 3328 
L 1075 4249 
L 544 4249 
L 544 3328 
L 90 3328 
L 90 2892 
L 544 2892 
L 544 402 
C 544 64 774 -128 1190 -128 
C 1318 -128 1446 -116 1626 -84 
L 1626 364 
C 1555 345 1472 339 1370 339 
C 1139 339 1075 402 1075 634 
L 1075 2892 
L 1626 2892 
L 1626 3328 
z
" transform="scale(0.015625)"/>
       <path id="NimbusSanL-Regu-2d" d="M 1818 1996 
L 294 1996 
L 294 1536 
L 1818 1536 
L 1818 1996 
z
" transform="scale(0.015625)"/>
       <path id="NimbusSanL-Regu-72" d="M 442 3328 
L 442 0 
L 979 0 
L 979 1727 
C 979 2203 1101 2514 1357 2698 
C 1523 2819 1683 2857 2054 2863 
L 2054 3404 
C 1965 3449 1920 3456 1850 3456 
C 1504 3456 1242 3251 934 2750 
L 934 3328 
L 442 3328 
z
" transform="scale(0.015625)"/>
       <path id="NimbusSanL-Regu-32" d="M 3238 556 
L 851 556 
C 909 928 1114 1165 1670 1493 
L 2310 1839 
C 2944 2185 3270 2653 3270 3211 
C 3270 3589 3117 3942 2848 4185 
C 2579 4428 2246 4544 1818 4544 
C 1242 4544 813 4339 563 3955 
C 403 3711 333 3429 320 2967 
L 883 2967 
C 902 3275 941 3461 1018 3608 
C 1165 3884 1459 4051 1798 4051 
C 2310 4051 2694 3685 2694 3198 
C 2694 2839 2483 2531 2080 2300 
L 1491 1967 
C 544 1428 269 999 218 0 
L 3238 0 
L 3238 556 
z
" transform="scale(0.015625)"/>
       <path id="NimbusSanL-Regu-35" d="M 3046 4544 
L 704 4544 
L 365 2076 
L 883 2076 
C 1146 2387 1363 2496 1715 2496 
C 2323 2496 2707 2082 2707 1414 
C 2707 765 2330 371 1715 371 
C 1222 371 922 619 787 1128 
L 224 1128 
C 301 759 365 581 499 415 
C 755 70 1216 -128 1728 -128 
C 2643 -128 3283 536 3283 1490 
C 3283 2381 2688 2995 1818 2995 
C 1498 2995 1242 2912 979 2720 
L 1158 3987 
L 3046 3987 
L 3046 4544 
z
" transform="scale(0.015625)"/>
       <path id="NimbusSanL-Regu-30" d="M 1760 4544 
C 1338 4544 954 4358 717 4044 
C 422 3649 275 3043 275 2207 
C 275 683 787 -128 1760 -128 
C 2720 -128 3245 683 3245 2169 
C 3245 3049 3104 3636 2803 4044 
C 2566 4364 2189 4544 1760 4544 
z
M 1760 4044 
C 2368 4044 2669 3432 2669 2220 
C 2669 938 2374 339 1747 339 
C 1152 339 851 964 851 2201 
C 851 3438 1152 4044 1760 4044 
z
" transform="scale(0.015625)"/>
      </defs>
      <use xlink:href="#NimbusSanL-Regu-41" transform="scale(0.996264)"/>
      <use xlink:href="#NimbusSanL-Regu-6c" transform="translate(66.450031 0) scale(0.996264)"/>
      <use xlink:href="#NimbusSanL-Regu-74" transform="translate(88.566815 0) scale(0.996264)"/>
      <use xlink:href="#NimbusSanL-Regu-2d" transform="translate(116.261985 0) scale(0.996264)"/>
      <use xlink:href="#NimbusSanL-Regu-69" transform="translate(149.437215 0) scale(0.996264)"/>
      <use xlink:href="#NimbusSanL-Regu-74" transform="translate(171.553999 0) scale(0.996264)"/>
      <use xlink:href="#NimbusSanL-Regu-65" transform="translate(199.249169 0) scale(0.996264)"/>
      <use xlink:href="#NimbusSanL-Regu-72" transform="translate(254.640846 0) scale(0.996264)"/>
      <use xlink:href="#NimbusSanL-Regu-32" transform="translate(287.816075 0) scale(0.996264)"/>
      <use xlink:href="#NimbusSanL-Regu-35" transform="translate(343.207752 0) scale(0.996264)"/>
      <use xlink:href="#NimbusSanL-Regu-30" transform="translate(398.599429 0) scale(0.996264)"/>
      <use xlink:href="#NimbusSanL-Regu-2d" transform="translate(453.991106 0) scale(0.996264)"/>
      <use xlink:href="#NimbusSanL-Regu-52" transform="translate(487.166336 0) scale(0.996264)"/>
      <use xlink:href="#NimbusSanL-Regu-54" transform="translate(556.108213 0) scale(0.996264)"/>
      <use xlink:href="#NimbusSanL-Regu-52" transform="translate(616.979844 0) scale(0.996264)"/>
      <use xlink:href="#NimbusSanL-Regu-4e" transform="translate(688.909828 0) scale(0.996264)"/>
     </g>
    </g>
    <g id="line2d_61">
     <path d="M 783.431324 93.693435 
L 807.431324 93.693435 
L 831.431324 93.693435 
" style="fill: none; stroke-dasharray: 2,2; stroke-dashoffset: 0; stroke: #b9ac70; stroke-width: 2"/>
    </g>
    <g id="text_9">
     <!-- Alt-iter500-RTRN -->
     <g transform="translate(850.631324 102.093435) scale(0.24 -0.24)">
      <use xlink:href="#NimbusSanL-Regu-41" transform="scale(0.996264)"/>
      <use xlink:href="#NimbusSanL-Regu-6c" transform="translate(66.450031 0) scale(0.996264)"/>
      <use xlink:href="#NimbusSanL-Regu-74" transform="translate(88.566815 0) scale(0.996264)"/>
      <use xlink:href="#NimbusSanL-Regu-2d" transform="translate(116.261985 0) scale(0.996264)"/>
      <use xlink:href="#NimbusSanL-Regu-69" transform="translate(149.437215 0) scale(0.996264)"/>
      <use xlink:href="#NimbusSanL-Regu-74" transform="translate(171.553999 0) scale(0.996264)"/>
      <use xlink:href="#NimbusSanL-Regu-65" transform="translate(199.249169 0) scale(0.996264)"/>
      <use xlink:href="#NimbusSanL-Regu-72" transform="translate(254.640846 0) scale(0.996264)"/>
      <use xlink:href="#NimbusSanL-Regu-35" transform="translate(287.816075 0) scale(0.996264)"/>
      <use xlink:href="#NimbusSanL-Regu-30" transform="translate(343.207752 0) scale(0.996264)"/>
      <use xlink:href="#NimbusSanL-Regu-30" transform="translate(398.599429 0) scale(0.996264)"/>
      <use xlink:href="#NimbusSanL-Regu-2d" transform="translate(453.991106 0) scale(0.996264)"/>
      <use xlink:href="#NimbusSanL-Regu-52" transform="translate(487.166336 0) scale(0.996264)"/>
      <use xlink:href="#NimbusSanL-Regu-54" transform="translate(556.108213 0) scale(0.996264)"/>
      <use xlink:href="#NimbusSanL-Regu-52" transform="translate(616.979844 0) scale(0.996264)"/>
      <use xlink:href="#NimbusSanL-Regu-4e" transform="translate(688.909828 0) scale(0.996264)"/>
     </g>
    </g>
    <g id="line2d_62">
     <path d="M 783.431324 127.822167 
L 807.431324 127.822167 
L 831.431324 127.822167 
" style="fill: none; stroke-dasharray: 10,2,2,2,2,2; stroke-dashoffset: 0; stroke: #e76300; stroke-width: 2"/>
    </g>
    <g id="text_10">
     <!-- Alt-iter1000-RTRN -->
     <g transform="translate(850.631324 136.222167) scale(0.24 -0.24)">
      <defs>
       <path id="NimbusSanL-Regu-31" d="M 1658 3232 
L 1658 0 
L 2221 0 
L 2221 4537 
L 1850 4537 
C 1651 3840 1523 3744 653 3635 
L 653 3232 
L 1658 3232 
z
" transform="scale(0.015625)"/>
      </defs>
      <use xlink:href="#NimbusSanL-Regu-41" transform="scale(0.996264)"/>
      <use xlink:href="#NimbusSanL-Regu-6c" transform="translate(66.450031 0) scale(0.996264)"/>
      <use xlink:href="#NimbusSanL-Regu-74" transform="translate(88.566815 0) scale(0.996264)"/>
      <use xlink:href="#NimbusSanL-Regu-2d" transform="translate(116.261985 0) scale(0.996264)"/>
      <use xlink:href="#NimbusSanL-Regu-69" transform="translate(149.437215 0) scale(0.996264)"/>
      <use xlink:href="#NimbusSanL-Regu-74" transform="translate(171.553999 0) scale(0.996264)"/>
      <use xlink:href="#NimbusSanL-Regu-65" transform="translate(199.249169 0) scale(0.996264)"/>
      <use xlink:href="#NimbusSanL-Regu-72" transform="translate(254.640846 0) scale(0.996264)"/>
      <use xlink:href="#NimbusSanL-Regu-31" transform="translate(287.816075 0) scale(0.996264)"/>
      <use xlink:href="#NimbusSanL-Regu-30" transform="translate(343.207752 0) scale(0.996264)"/>
      <use xlink:href="#NimbusSanL-Regu-30" transform="translate(398.599429 0) scale(0.996264)"/>
      <use xlink:href="#NimbusSanL-Regu-30" transform="translate(453.991106 0) scale(0.996264)"/>
      <use xlink:href="#NimbusSanL-Regu-2d" transform="translate(509.382783 0) scale(0.996264)"/>
      <use xlink:href="#NimbusSanL-Regu-52" transform="translate(542.558013 0) scale(0.996264)"/>
      <use xlink:href="#NimbusSanL-Regu-54" transform="translate(611.49989 0) scale(0.996264)"/>
      <use xlink:href="#NimbusSanL-Regu-52" transform="translate(672.371521 0) scale(0.996264)"/>
      <use xlink:href="#NimbusSanL-Regu-4e" transform="translate(744.301505 0) scale(0.996264)"/>
     </g>
    </g>
   </g>
  </g>
 </g>
 <defs>
  <clipPath id="pd3cfbc456f">
   <rect x="92.231324" y="28.464" width="334.8" height="332.64"/>
  </clipPath>
 </defs>
</svg>
