<?xml version="1.0" encoding="utf-8" standalone="no"?>
<!DOCTYPE svg PUBLIC "-//W3C//DTD SVG 1.1//EN"
  "http://www.w3.org/Graphics/SVG/1.1/DTD/svg11.dtd">
<svg xmlns:xlink="http://www.w3.org/1999/xlink" width="754.527647pt" height="412.829653pt" viewBox="0 0 754.527647 412.829653" xmlns="http://www.w3.org/2000/svg" version="1.1">
 <metadata>
  <rdf:RDF xmlns:dc="http://purl.org/dc/elements/1.1/" xmlns:cc="http://creativecommons.org/ns#" xmlns:rdf="http://www.w3.org/1999/02/22-rdf-syntax-ns#">
   <cc:Work>
    <dc:type rdf:resource="http://purl.org/dc/dcmitype/StillImage"/>
    <dc:date>2026-03-19T22:11:35.421483</dc:date>
    <dc:format>image/svg+xml</dc:format>
    <dc:creator>
     <cc:Agent>
      <dc:title>Matplotlib v3.10.0, https://matplotlib.org/</dc:title>
     </cc:Agent>
    </dc:creator>
   </cc:Work>
  </rdf:RDF>
 </metadata>
 <defs>
  <style type="text/css">*{stroke-linejoin: round; stroke-linecap: butt}</style>
 </defs>
 <g id="figure_1">
  <g id="patch_1">
   <path d="M 0 412.829653 
L 754.527647 412.829653 
L 754.527647 0 
L 0 0 
L 0 412.829653 
z
" style="fill: none"/>
  </g>
  <g id="axes_1">
   <g id="patch_2">
    <path d="M 90.004323 339.84 
L 424.804323 339.84 
L 424.804323 7.2 
L 90.004323 7.2 
L 90.004323 339.84 
z
" style="fill: none"/>
   </g>
   <g id="matplotlib.axis_1">
    <g id="xtick_1">
     <g id="line2d_1">
      <defs>
       <path id="m3a4e64c331" d="M 0 0 
L 0 -10 
" style="stroke: #000000; stroke-width: 2"/>
      </defs>
      <g>
       <use xlink:href="#m3a4e64c331" x="105.222505" y="339.84" style="stroke: #000000; stroke-width: 2"/>
      </g>
     </g>
     <g id="line2d_2">
      <defs>
       <path id="m3978166f79" d="M 0 0 
L 0 10 
" style="stroke: #000000; stroke-width: 2"/>
      </defs>
      <g>
       <use xlink:href="#m3978166f79" x="105.222505" y="7.2" style="stroke: #000000; stroke-width: 2"/>
      </g>
     </g>
     <g id="text_1">
      <!-- $\mathdefault{0}$ -->
      <g transform="translate(99.739648 368.875969) scale(0.24 -0.24)">
       <defs>
        <path id="CMR17-30" d="M 2688 2038 
C 2688 2430 2682 3099 2413 3613 
C 2176 4063 1798 4224 1466 4224 
C 1158 4224 768 4082 525 3620 
C 269 3137 243 2539 243 2038 
C 243 1671 250 1112 448 623 
C 723 -39 1216 -128 1466 -128 
C 1760 -128 2208 -7 2470 604 
C 2662 1048 2688 1568 2688 2038 
z
M 1466 -26 
C 1056 -26 813 328 723 816 
C 653 1196 653 1749 653 2109 
C 653 2604 653 3015 736 3407 
C 858 3954 1216 4121 1466 4121 
C 1728 4121 2067 3947 2189 3420 
C 2272 3054 2278 2623 2278 2109 
C 2278 1691 2278 1176 2202 797 
C 2067 96 1690 -26 1466 -26 
z
" transform="scale(0.015625)"/>
       </defs>
       <use xlink:href="#CMR17-30" transform="scale(0.996264)"/>
      </g>
     </g>
    </g>
    <g id="xtick_2">
     <g id="line2d_3">
      <g>
       <use xlink:href="#m3a4e64c331" x="185.318199" y="339.84" style="stroke: #000000; stroke-width: 2"/>
      </g>
     </g>
     <g id="line2d_4">
      <g>
       <use xlink:href="#m3978166f79" x="185.318199" y="7.2" style="stroke: #000000; stroke-width: 2"/>
      </g>
     </g>
     <g id="text_2">
      <!-- $\mathdefault{25}$ -->
      <g transform="translate(174.352484 368.875969) scale(0.24 -0.24)">
       <defs>
        <path id="CMR17-32" d="M 2669 990 
L 2554 990 
C 2490 537 2438 460 2413 422 
C 2381 371 1920 371 1830 371 
L 602 371 
C 832 620 1280 1073 1824 1596 
C 2214 1966 2669 2400 2669 3033 
C 2669 3788 2067 4224 1395 4224 
C 691 4224 262 3603 262 3027 
C 262 2777 448 2745 525 2745 
C 589 2745 781 2783 781 3007 
C 781 3206 614 3264 525 3264 
C 486 3264 448 3257 422 3244 
C 544 3788 915 4057 1306 4057 
C 1862 4057 2227 3616 2227 3033 
C 2227 2477 1901 1998 1536 1583 
L 262 147 
L 262 0 
L 2515 0 
L 2669 990 
z
" transform="scale(0.015625)"/>
        <path id="CMR17-35" d="M 730 3750 
C 794 3724 1056 3641 1325 3641 
C 1920 3641 2246 3961 2432 4140 
C 2432 4191 2432 4224 2394 4224 
C 2387 4224 2374 4224 2323 4198 
C 2099 4102 1837 4032 1517 4032 
C 1325 4032 1037 4055 723 4191 
C 653 4224 640 4224 634 4224 
C 602 4224 595 4217 595 4090 
L 595 2231 
C 595 2113 595 2080 659 2080 
C 691 2080 704 2093 736 2139 
C 941 2435 1222 2560 1542 2560 
C 1766 2560 2246 2415 2246 1293 
C 2246 1087 2246 716 2054 422 
C 1894 159 1645 25 1370 25 
C 947 25 518 319 403 812 
C 429 806 480 793 506 793 
C 589 793 749 838 749 1036 
C 749 1209 627 1280 506 1280 
C 358 1280 262 1190 262 1011 
C 262 454 704 -128 1382 -128 
C 2042 -128 2669 441 2669 1267 
C 2669 2054 2170 2662 1549 2662 
C 1222 2662 947 2540 730 2304 
L 730 3750 
z
" transform="scale(0.015625)"/>
       </defs>
       <use xlink:href="#CMR17-32" transform="scale(0.996264)"/>
       <use xlink:href="#CMR17-35" transform="translate(45.690477 0) scale(0.996264)"/>
      </g>
     </g>
    </g>
    <g id="xtick_3">
     <g id="line2d_5">
      <g>
       <use xlink:href="#m3a4e64c331" x="265.413893" y="339.84" style="stroke: #000000; stroke-width: 2"/>
      </g>
     </g>
     <g id="line2d_6">
      <g>
       <use xlink:href="#m3978166f79" x="265.413893" y="7.2" style="stroke: #000000; stroke-width: 2"/>
      </g>
     </g>
     <g id="text_3">
      <!-- $\mathdefault{50}$ -->
      <g transform="translate(254.448178 368.875969) scale(0.24 -0.24)">
       <use xlink:href="#CMR17-35" transform="scale(0.996264)"/>
       <use xlink:href="#CMR17-30" transform="translate(45.690477 0) scale(0.996264)"/>
      </g>
     </g>
    </g>
    <g id="xtick_4">
     <g id="line2d_7">
      <g>
       <use xlink:href="#m3a4e64c331" x="345.509586" y="339.84" style="stroke: #000000; stroke-width: 2"/>
      </g>
     </g>
     <g id="line2d_8">
      <g>
       <use xlink:href="#m3978166f79" x="345.509586" y="7.2" style="stroke: #000000; stroke-width: 2"/>
      </g>
     </g>
     <g id="text_4">
      <!-- $\mathdefault{75}$ -->
      <g transform="translate(334.543872 368.875969) scale(0.24 -0.24)">
       <defs>
        <path id="CMR17-37" d="M 2886 3955 
L 2886 4096 
L 1382 4096 
C 634 4096 621 4166 595 4288 
L 480 4288 
L 294 3104 
L 410 3104 
C 429 3226 474 3552 550 3673 
C 589 3724 1062 3724 1171 3724 
L 2579 3724 
L 1869 2670 
C 1395 1961 1069 1003 1069 166 
C 1069 89 1069 -128 1299 -128 
C 1530 -128 1530 89 1530 172 
L 1530 466 
C 1530 1514 1709 2204 2003 2644 
L 2886 3955 
z
" transform="scale(0.015625)"/>
       </defs>
       <use xlink:href="#CMR17-37" transform="scale(0.996264)"/>
       <use xlink:href="#CMR17-35" transform="translate(45.690477 0) scale(0.996264)"/>
      </g>
     </g>
    </g>
    <g id="text_5">
     <!-- $i$ -->
     <g transform="translate(252.412537 399.263694) scale(0.3 -0.3)">
      <defs>
       <path id="CMMI12-69" d="M 1811 913 
C 1811 945 1786 970 1747 970 
C 1690 970 1683 951 1651 842 
C 1485 261 1222 64 1011 64 
C 934 64 845 83 845 274 
C 845 447 922 638 992 830 
L 1440 2017 
C 1459 2068 1504 2183 1504 2305 
C 1504 2573 1312 2816 998 2816 
C 410 2816 173 1890 173 1838 
C 173 1813 198 1781 243 1781 
C 301 1781 307 1807 333 1896 
C 486 2432 730 2687 979 2687 
C 1037 2687 1146 2681 1146 2477 
C 1146 2311 1062 2100 1011 1960 
L 563 772 
C 525 670 486 568 486 453 
C 486 166 685 -64 992 -64 
C 1581 -64 1811 868 1811 913 
z
M 1760 4012 
C 1760 4108 1683 4224 1542 4224 
C 1395 4224 1229 4083 1229 3916 
C 1229 3756 1363 3705 1440 3705 
C 1613 3705 1760 3871 1760 4012 
z
" transform="scale(0.015625)"/>
      </defs>
      <use xlink:href="#CMMI12-69" transform="scale(0.996264)"/>
     </g>
    </g>
   </g>
   <g id="matplotlib.axis_2">
    <g id="ytick_1">
     <g id="line2d_9">
      <defs>
       <path id="me7144e3f14" d="M 0 0 
L 10 0 
" style="stroke: #000000; stroke-width: 2"/>
      </defs>
      <g>
       <use xlink:href="#me7144e3f14" x="90.004323" y="314.807071" style="stroke: #000000; stroke-width: 2"/>
      </g>
     </g>
     <g id="line2d_10">
      <defs>
       <path id="m0227cae1a8" d="M 0 0 
L -10 0 
" style="stroke: #000000; stroke-width: 2"/>
      </defs>
      <g>
       <use xlink:href="#m0227cae1a8" x="424.804323" y="314.807071" style="stroke: #000000; stroke-width: 2"/>
      </g>
     </g>
     <g id="text_6">
      <!-- $\mathdefault{10^{-5}}$ -->
      <g transform="translate(38.86092 323.325055) scale(0.24 -0.24)">
       <defs>
        <path id="CMR17-31" d="M 1702 4083 
C 1702 4217 1696 4224 1606 4224 
C 1357 3927 979 3833 621 3820 
C 602 3820 570 3820 563 3808 
C 557 3795 557 3782 557 3648 
C 755 3648 1088 3686 1344 3839 
L 1344 467 
C 1344 243 1331 166 781 166 
L 589 166 
L 589 0 
C 896 6 1216 12 1523 12 
C 1830 12 2150 6 2458 0 
L 2458 166 
L 2266 166 
C 1715 166 1702 236 1702 467 
L 1702 4083 
z
" transform="scale(0.015625)"/>
        <path id="CMSY10-0" d="M 4218 1472 
C 4326 1472 4442 1472 4442 1600 
C 4442 1728 4326 1728 4218 1728 
L 755 1728 
C 646 1728 531 1728 531 1600 
C 531 1472 646 1472 755 1472 
L 4218 1472 
z
" transform="scale(0.015625)"/>
       </defs>
       <use xlink:href="#CMR17-31" transform="scale(0.996264)"/>
       <use xlink:href="#CMR17-30" transform="translate(45.690477 0) scale(0.996264)"/>
       <use xlink:href="#CMSY10-0" transform="translate(91.380954 36.153639) scale(0.697382)"/>
       <use xlink:href="#CMR17-35" transform="translate(145.621947 36.153639) scale(0.697382)"/>
      </g>
     </g>
    </g>
    <g id="ytick_2">
     <g id="line2d_11">
      <g>
       <use xlink:href="#me7144e3f14" x="90.004323" y="256.249189" style="stroke: #000000; stroke-width: 2"/>
      </g>
     </g>
     <g id="line2d_12">
      <g>
       <use xlink:href="#m0227cae1a8" x="424.804323" y="256.249189" style="stroke: #000000; stroke-width: 2"/>
      </g>
     </g>
     <g id="text_7">
      <!-- $\mathdefault{10^{-4}}$ -->
      <g transform="translate(38.86092 264.767173) scale(0.24 -0.24)">
       <defs>
        <path id="CMR17-34" d="M 2150 4147 
C 2150 4281 2144 4288 2029 4288 
L 128 1254 
L 128 1088 
L 1779 1088 
L 1779 460 
C 1779 230 1766 166 1318 166 
L 1197 166 
L 1197 0 
C 1402 12 1747 12 1965 12 
C 2182 12 2528 12 2733 0 
L 2733 166 
L 2611 166 
C 2163 166 2150 230 2150 460 
L 2150 1088 
L 2803 1088 
L 2803 1254 
L 2150 1254 
L 2150 4147 
z
M 1798 3723 
L 1798 1254 
L 256 1254 
L 1798 3723 
z
" transform="scale(0.015625)"/>
       </defs>
       <use xlink:href="#CMR17-31" transform="scale(0.996264)"/>
       <use xlink:href="#CMR17-30" transform="translate(45.690477 0) scale(0.996264)"/>
       <use xlink:href="#CMSY10-0" transform="translate(91.380954 36.153639) scale(0.697382)"/>
       <use xlink:href="#CMR17-34" transform="translate(145.621947 36.153639) scale(0.697382)"/>
      </g>
     </g>
    </g>
    <g id="ytick_3">
     <g id="line2d_13">
      <g>
       <use xlink:href="#me7144e3f14" x="90.004323" y="197.691307" style="stroke: #000000; stroke-width: 2"/>
      </g>
     </g>
     <g id="line2d_14">
      <g>
       <use xlink:href="#m0227cae1a8" x="424.804323" y="197.691307" style="stroke: #000000; stroke-width: 2"/>
      </g>
     </g>
     <g id="text_8">
      <!-- $\mathdefault{10^{-3}}$ -->
      <g transform="translate(38.86092 206.209291) scale(0.24 -0.24)">
       <defs>
        <path id="CMR17-33" d="M 1414 2176 
C 1984 2176 2234 1673 2234 1094 
C 2234 322 1824 25 1453 25 
C 1114 25 563 193 390 691 
C 422 678 454 678 486 678 
C 640 678 755 780 755 947 
C 755 1132 614 1216 486 1216 
C 378 1216 211 1164 211 927 
C 211 335 787 -128 1466 -128 
C 2176 -128 2720 432 2720 1087 
C 2720 1718 2208 2176 1600 2246 
C 2086 2347 2554 2776 2554 3353 
C 2554 3856 2048 4224 1472 4224 
C 890 4224 378 3862 378 3347 
C 378 3123 544 3084 627 3084 
C 762 3084 877 3167 877 3334 
C 877 3500 762 3584 627 3584 
C 602 3584 570 3584 544 3571 
C 730 3999 1235 4076 1459 4076 
C 1683 4076 2106 3966 2106 3347 
C 2106 3167 2080 2851 1862 2574 
C 1670 2329 1453 2316 1242 2297 
C 1210 2297 1062 2284 1037 2284 
C 992 2278 966 2272 966 2227 
C 966 2182 973 2176 1101 2176 
L 1414 2176 
z
" transform="scale(0.015625)"/>
       </defs>
       <use xlink:href="#CMR17-31" transform="scale(0.996264)"/>
       <use xlink:href="#CMR17-30" transform="translate(45.690477 0) scale(0.996264)"/>
       <use xlink:href="#CMSY10-0" transform="translate(91.380954 36.153639) scale(0.697382)"/>
       <use xlink:href="#CMR17-33" transform="translate(145.621947 36.153639) scale(0.697382)"/>
      </g>
     </g>
    </g>
    <g id="ytick_4">
     <g id="line2d_15">
      <g>
       <use xlink:href="#me7144e3f14" x="90.004323" y="139.133425" style="stroke: #000000; stroke-width: 2"/>
      </g>
     </g>
     <g id="line2d_16">
      <g>
       <use xlink:href="#m0227cae1a8" x="424.804323" y="139.133425" style="stroke: #000000; stroke-width: 2"/>
      </g>
     </g>
     <g id="text_9">
      <!-- $\mathdefault{10^{-2}}$ -->
      <g transform="translate(38.86092 147.651409) scale(0.24 -0.24)">
       <use xlink:href="#CMR17-31" transform="scale(0.996264)"/>
       <use xlink:href="#CMR17-30" transform="translate(45.690477 0) scale(0.996264)"/>
       <use xlink:href="#CMSY10-0" transform="translate(91.380954 36.153639) scale(0.697382)"/>
       <use xlink:href="#CMR17-32" transform="translate(145.621947 36.153639) scale(0.697382)"/>
      </g>
     </g>
    </g>
    <g id="ytick_5">
     <g id="line2d_17">
      <g>
       <use xlink:href="#me7144e3f14" x="90.004323" y="80.575543" style="stroke: #000000; stroke-width: 2"/>
      </g>
     </g>
     <g id="line2d_18">
      <g>
       <use xlink:href="#m0227cae1a8" x="424.804323" y="80.575543" style="stroke: #000000; stroke-width: 2"/>
      </g>
     </g>
     <g id="text_10">
      <!-- $\mathdefault{10^{-1}}$ -->
      <g transform="translate(38.86092 89.093527) scale(0.24 -0.24)">
       <use xlink:href="#CMR17-31" transform="scale(0.996264)"/>
       <use xlink:href="#CMR17-30" transform="translate(45.690477 0) scale(0.996264)"/>
       <use xlink:href="#CMSY10-0" transform="translate(91.380954 36.153639) scale(0.697382)"/>
       <use xlink:href="#CMR17-31" transform="translate(145.621947 36.153639) scale(0.697382)"/>
      </g>
     </g>
    </g>
    <g id="ytick_6">
     <g id="line2d_19">
      <g>
       <use xlink:href="#me7144e3f14" x="90.004323" y="22.017661" style="stroke: #000000; stroke-width: 2"/>
      </g>
     </g>
     <g id="line2d_20">
      <g>
       <use xlink:href="#m0227cae1a8" x="424.804323" y="22.017661" style="stroke: #000000; stroke-width: 2"/>
      </g>
     </g>
     <g id="text_11">
      <!-- $\mathdefault{10^{0}}$ -->
      <g transform="translate(51.878754 30.535645) scale(0.24 -0.24)">
       <use xlink:href="#CMR17-31" transform="scale(0.996264)"/>
       <use xlink:href="#CMR17-30" transform="translate(45.690477 0) scale(0.996264)"/>
       <use xlink:href="#CMR17-30" transform="translate(91.380954 36.153639) scale(0.697382)"/>
      </g>
     </g>
    </g>
    <g id="ytick_7">
     <g id="line2d_21">
      <defs>
       <path id="m41e3425993" d="M 0 0 
L 4 0 
" style="stroke: #000000"/>
      </defs>
      <g>
       <use xlink:href="#m41e3425993" x="90.004323" y="338.109595" style="stroke: #000000"/>
      </g>
     </g>
     <g id="line2d_22">
      <defs>
       <path id="mde4705be95" d="M 0 0 
L -4 0 
" style="stroke: #000000"/>
      </defs>
      <g>
       <use xlink:href="#mde4705be95" x="424.804323" y="338.109595" style="stroke: #000000"/>
      </g>
     </g>
    </g>
    <g id="ytick_8">
     <g id="line2d_23">
      <g>
       <use xlink:href="#m41e3425993" x="90.004323" y="332.43475" style="stroke: #000000"/>
      </g>
     </g>
     <g id="line2d_24">
      <g>
       <use xlink:href="#mde4705be95" x="424.804323" y="332.43475" style="stroke: #000000"/>
      </g>
     </g>
    </g>
    <g id="ytick_9">
     <g id="line2d_25">
      <g>
       <use xlink:href="#m41e3425993" x="90.004323" y="327.798063" style="stroke: #000000"/>
      </g>
     </g>
     <g id="line2d_26">
      <g>
       <use xlink:href="#mde4705be95" x="424.804323" y="327.798063" style="stroke: #000000"/>
      </g>
     </g>
    </g>
    <g id="ytick_10">
     <g id="line2d_27">
      <g>
       <use xlink:href="#m41e3425993" x="90.004323" y="323.877801" style="stroke: #000000"/>
      </g>
     </g>
     <g id="line2d_28">
      <g>
       <use xlink:href="#mde4705be95" x="424.804323" y="323.877801" style="stroke: #000000"/>
      </g>
     </g>
    </g>
    <g id="ytick_11">
     <g id="line2d_29">
      <g>
       <use xlink:href="#m41e3425993" x="90.004323" y="320.481916" style="stroke: #000000"/>
      </g>
     </g>
     <g id="line2d_30">
      <g>
       <use xlink:href="#mde4705be95" x="424.804323" y="320.481916" style="stroke: #000000"/>
      </g>
     </g>
    </g>
    <g id="ytick_12">
     <g id="line2d_31">
      <g>
       <use xlink:href="#m41e3425993" x="90.004323" y="317.486532" style="stroke: #000000"/>
      </g>
     </g>
     <g id="line2d_32">
      <g>
       <use xlink:href="#mde4705be95" x="424.804323" y="317.486532" style="stroke: #000000"/>
      </g>
     </g>
    </g>
    <g id="ytick_13">
     <g id="line2d_33">
      <g>
       <use xlink:href="#m41e3425993" x="90.004323" y="297.179392" style="stroke: #000000"/>
      </g>
     </g>
     <g id="line2d_34">
      <g>
       <use xlink:href="#mde4705be95" x="424.804323" y="297.179392" style="stroke: #000000"/>
      </g>
     </g>
    </g>
    <g id="ytick_14">
     <g id="line2d_35">
      <g>
       <use xlink:href="#m41e3425993" x="90.004323" y="286.86786" style="stroke: #000000"/>
      </g>
     </g>
     <g id="line2d_36">
      <g>
       <use xlink:href="#mde4705be95" x="424.804323" y="286.86786" style="stroke: #000000"/>
      </g>
     </g>
    </g>
    <g id="ytick_15">
     <g id="line2d_37">
      <g>
       <use xlink:href="#m41e3425993" x="90.004323" y="279.551713" style="stroke: #000000"/>
      </g>
     </g>
     <g id="line2d_38">
      <g>
       <use xlink:href="#mde4705be95" x="424.804323" y="279.551713" style="stroke: #000000"/>
      </g>
     </g>
    </g>
    <g id="ytick_16">
     <g id="line2d_39">
      <g>
       <use xlink:href="#m41e3425993" x="90.004323" y="273.876868" style="stroke: #000000"/>
      </g>
     </g>
     <g id="line2d_40">
      <g>
       <use xlink:href="#mde4705be95" x="424.804323" y="273.876868" style="stroke: #000000"/>
      </g>
     </g>
    </g>
    <g id="ytick_17">
     <g id="line2d_41">
      <g>
       <use xlink:href="#m41e3425993" x="90.004323" y="269.240181" style="stroke: #000000"/>
      </g>
     </g>
     <g id="line2d_42">
      <g>
       <use xlink:href="#mde4705be95" x="424.804323" y="269.240181" style="stroke: #000000"/>
      </g>
     </g>
    </g>
    <g id="ytick_18">
     <g id="line2d_43">
      <g>
       <use xlink:href="#m41e3425993" x="90.004323" y="265.319919" style="stroke: #000000"/>
      </g>
     </g>
     <g id="line2d_44">
      <g>
       <use xlink:href="#mde4705be95" x="424.804323" y="265.319919" style="stroke: #000000"/>
      </g>
     </g>
    </g>
    <g id="ytick_19">
     <g id="line2d_45">
      <g>
       <use xlink:href="#m41e3425993" x="90.004323" y="261.924034" style="stroke: #000000"/>
      </g>
     </g>
     <g id="line2d_46">
      <g>
       <use xlink:href="#mde4705be95" x="424.804323" y="261.924034" style="stroke: #000000"/>
      </g>
     </g>
    </g>
    <g id="ytick_20">
     <g id="line2d_47">
      <g>
       <use xlink:href="#m41e3425993" x="90.004323" y="258.92865" style="stroke: #000000"/>
      </g>
     </g>
     <g id="line2d_48">
      <g>
       <use xlink:href="#mde4705be95" x="424.804323" y="258.92865" style="stroke: #000000"/>
      </g>
     </g>
    </g>
    <g id="ytick_21">
     <g id="line2d_49">
      <g>
       <use xlink:href="#m41e3425993" x="90.004323" y="238.62151" style="stroke: #000000"/>
      </g>
     </g>
     <g id="line2d_50">
      <g>
       <use xlink:href="#mde4705be95" x="424.804323" y="238.62151" style="stroke: #000000"/>
      </g>
     </g>
    </g>
    <g id="ytick_22">
     <g id="line2d_51">
      <g>
       <use xlink:href="#m41e3425993" x="90.004323" y="228.309978" style="stroke: #000000"/>
      </g>
     </g>
     <g id="line2d_52">
      <g>
       <use xlink:href="#mde4705be95" x="424.804323" y="228.309978" style="stroke: #000000"/>
      </g>
     </g>
    </g>
    <g id="ytick_23">
     <g id="line2d_53">
      <g>
       <use xlink:href="#m41e3425993" x="90.004323" y="220.993831" style="stroke: #000000"/>
      </g>
     </g>
     <g id="line2d_54">
      <g>
       <use xlink:href="#mde4705be95" x="424.804323" y="220.993831" style="stroke: #000000"/>
      </g>
     </g>
    </g>
    <g id="ytick_24">
     <g id="line2d_55">
      <g>
       <use xlink:href="#m41e3425993" x="90.004323" y="215.318986" style="stroke: #000000"/>
      </g>
     </g>
     <g id="line2d_56">
      <g>
       <use xlink:href="#mde4705be95" x="424.804323" y="215.318986" style="stroke: #000000"/>
      </g>
     </g>
    </g>
    <g id="ytick_25">
     <g id="line2d_57">
      <g>
       <use xlink:href="#m41e3425993" x="90.004323" y="210.682299" style="stroke: #000000"/>
      </g>
     </g>
     <g id="line2d_58">
      <g>
       <use xlink:href="#mde4705be95" x="424.804323" y="210.682299" style="stroke: #000000"/>
      </g>
     </g>
    </g>
    <g id="ytick_26">
     <g id="line2d_59">
      <g>
       <use xlink:href="#m41e3425993" x="90.004323" y="206.762037" style="stroke: #000000"/>
      </g>
     </g>
     <g id="line2d_60">
      <g>
       <use xlink:href="#mde4705be95" x="424.804323" y="206.762037" style="stroke: #000000"/>
      </g>
     </g>
    </g>
    <g id="ytick_27">
     <g id="line2d_61">
      <g>
       <use xlink:href="#m41e3425993" x="90.004323" y="203.366152" style="stroke: #000000"/>
      </g>
     </g>
     <g id="line2d_62">
      <g>
       <use xlink:href="#mde4705be95" x="424.804323" y="203.366152" style="stroke: #000000"/>
      </g>
     </g>
    </g>
    <g id="ytick_28">
     <g id="line2d_63">
      <g>
       <use xlink:href="#m41e3425993" x="90.004323" y="200.370768" style="stroke: #000000"/>
      </g>
     </g>
     <g id="line2d_64">
      <g>
       <use xlink:href="#mde4705be95" x="424.804323" y="200.370768" style="stroke: #000000"/>
      </g>
     </g>
    </g>
    <g id="ytick_29">
     <g id="line2d_65">
      <g>
       <use xlink:href="#m41e3425993" x="90.004323" y="180.063628" style="stroke: #000000"/>
      </g>
     </g>
     <g id="line2d_66">
      <g>
       <use xlink:href="#mde4705be95" x="424.804323" y="180.063628" style="stroke: #000000"/>
      </g>
     </g>
    </g>
    <g id="ytick_30">
     <g id="line2d_67">
      <g>
       <use xlink:href="#m41e3425993" x="90.004323" y="169.752096" style="stroke: #000000"/>
      </g>
     </g>
     <g id="line2d_68">
      <g>
       <use xlink:href="#mde4705be95" x="424.804323" y="169.752096" style="stroke: #000000"/>
      </g>
     </g>
    </g>
    <g id="ytick_31">
     <g id="line2d_69">
      <g>
       <use xlink:href="#m41e3425993" x="90.004323" y="162.435949" style="stroke: #000000"/>
      </g>
     </g>
     <g id="line2d_70">
      <g>
       <use xlink:href="#mde4705be95" x="424.804323" y="162.435949" style="stroke: #000000"/>
      </g>
     </g>
    </g>
    <g id="ytick_32">
     <g id="line2d_71">
      <g>
       <use xlink:href="#m41e3425993" x="90.004323" y="156.761104" style="stroke: #000000"/>
      </g>
     </g>
     <g id="line2d_72">
      <g>
       <use xlink:href="#mde4705be95" x="424.804323" y="156.761104" style="stroke: #000000"/>
      </g>
     </g>
    </g>
    <g id="ytick_33">
     <g id="line2d_73">
      <g>
       <use xlink:href="#m41e3425993" x="90.004323" y="152.124417" style="stroke: #000000"/>
      </g>
     </g>
     <g id="line2d_74">
      <g>
       <use xlink:href="#mde4705be95" x="424.804323" y="152.124417" style="stroke: #000000"/>
      </g>
     </g>
    </g>
    <g id="ytick_34">
     <g id="line2d_75">
      <g>
       <use xlink:href="#m41e3425993" x="90.004323" y="148.204155" style="stroke: #000000"/>
      </g>
     </g>
     <g id="line2d_76">
      <g>
       <use xlink:href="#mde4705be95" x="424.804323" y="148.204155" style="stroke: #000000"/>
      </g>
     </g>
    </g>
    <g id="ytick_35">
     <g id="line2d_77">
      <g>
       <use xlink:href="#m41e3425993" x="90.004323" y="144.80827" style="stroke: #000000"/>
      </g>
     </g>
     <g id="line2d_78">
      <g>
       <use xlink:href="#mde4705be95" x="424.804323" y="144.80827" style="stroke: #000000"/>
      </g>
     </g>
    </g>
    <g id="ytick_36">
     <g id="line2d_79">
      <g>
       <use xlink:href="#m41e3425993" x="90.004323" y="141.812886" style="stroke: #000000"/>
      </g>
     </g>
     <g id="line2d_80">
      <g>
       <use xlink:href="#mde4705be95" x="424.804323" y="141.812886" style="stroke: #000000"/>
      </g>
     </g>
    </g>
    <g id="ytick_37">
     <g id="line2d_81">
      <g>
       <use xlink:href="#m41e3425993" x="90.004323" y="121.505746" style="stroke: #000000"/>
      </g>
     </g>
     <g id="line2d_82">
      <g>
       <use xlink:href="#mde4705be95" x="424.804323" y="121.505746" style="stroke: #000000"/>
      </g>
     </g>
    </g>
    <g id="ytick_38">
     <g id="line2d_83">
      <g>
       <use xlink:href="#m41e3425993" x="90.004323" y="111.194214" style="stroke: #000000"/>
      </g>
     </g>
     <g id="line2d_84">
      <g>
       <use xlink:href="#mde4705be95" x="424.804323" y="111.194214" style="stroke: #000000"/>
      </g>
     </g>
    </g>
    <g id="ytick_39">
     <g id="line2d_85">
      <g>
       <use xlink:href="#m41e3425993" x="90.004323" y="103.878067" style="stroke: #000000"/>
      </g>
     </g>
     <g id="line2d_86">
      <g>
       <use xlink:href="#mde4705be95" x="424.804323" y="103.878067" style="stroke: #000000"/>
      </g>
     </g>
    </g>
    <g id="ytick_40">
     <g id="line2d_87">
      <g>
       <use xlink:href="#m41e3425993" x="90.004323" y="98.203222" style="stroke: #000000"/>
      </g>
     </g>
     <g id="line2d_88">
      <g>
       <use xlink:href="#mde4705be95" x="424.804323" y="98.203222" style="stroke: #000000"/>
      </g>
     </g>
    </g>
    <g id="ytick_41">
     <g id="line2d_89">
      <g>
       <use xlink:href="#m41e3425993" x="90.004323" y="93.566535" style="stroke: #000000"/>
      </g>
     </g>
     <g id="line2d_90">
      <g>
       <use xlink:href="#mde4705be95" x="424.804323" y="93.566535" style="stroke: #000000"/>
      </g>
     </g>
    </g>
    <g id="ytick_42">
     <g id="line2d_91">
      <g>
       <use xlink:href="#m41e3425993" x="90.004323" y="89.646273" style="stroke: #000000"/>
      </g>
     </g>
     <g id="line2d_92">
      <g>
       <use xlink:href="#mde4705be95" x="424.804323" y="89.646273" style="stroke: #000000"/>
      </g>
     </g>
    </g>
    <g id="ytick_43">
     <g id="line2d_93">
      <g>
       <use xlink:href="#m41e3425993" x="90.004323" y="86.250388" style="stroke: #000000"/>
      </g>
     </g>
     <g id="line2d_94">
      <g>
       <use xlink:href="#mde4705be95" x="424.804323" y="86.250388" style="stroke: #000000"/>
      </g>
     </g>
    </g>
    <g id="ytick_44">
     <g id="line2d_95">
      <g>
       <use xlink:href="#m41e3425993" x="90.004323" y="83.255004" style="stroke: #000000"/>
      </g>
     </g>
     <g id="line2d_96">
      <g>
       <use xlink:href="#mde4705be95" x="424.804323" y="83.255004" style="stroke: #000000"/>
      </g>
     </g>
    </g>
    <g id="ytick_45">
     <g id="line2d_97">
      <g>
       <use xlink:href="#m41e3425993" x="90.004323" y="62.947864" style="stroke: #000000"/>
      </g>
     </g>
     <g id="line2d_98">
      <g>
       <use xlink:href="#mde4705be95" x="424.804323" y="62.947864" style="stroke: #000000"/>
      </g>
     </g>
    </g>
    <g id="ytick_46">
     <g id="line2d_99">
      <g>
       <use xlink:href="#m41e3425993" x="90.004323" y="52.636332" style="stroke: #000000"/>
      </g>
     </g>
     <g id="line2d_100">
      <g>
       <use xlink:href="#mde4705be95" x="424.804323" y="52.636332" style="stroke: #000000"/>
      </g>
     </g>
    </g>
    <g id="ytick_47">
     <g id="line2d_101">
      <g>
       <use xlink:href="#m41e3425993" x="90.004323" y="45.320185" style="stroke: #000000"/>
      </g>
     </g>
     <g id="line2d_102">
      <g>
       <use xlink:href="#mde4705be95" x="424.804323" y="45.320185" style="stroke: #000000"/>
      </g>
     </g>
    </g>
    <g id="ytick_48">
     <g id="line2d_103">
      <g>
       <use xlink:href="#m41e3425993" x="90.004323" y="39.64534" style="stroke: #000000"/>
      </g>
     </g>
     <g id="line2d_104">
      <g>
       <use xlink:href="#mde4705be95" x="424.804323" y="39.64534" style="stroke: #000000"/>
      </g>
     </g>
    </g>
    <g id="ytick_49">
     <g id="line2d_105">
      <g>
       <use xlink:href="#m41e3425993" x="90.004323" y="35.008653" style="stroke: #000000"/>
      </g>
     </g>
     <g id="line2d_106">
      <g>
       <use xlink:href="#mde4705be95" x="424.804323" y="35.008653" style="stroke: #000000"/>
      </g>
     </g>
    </g>
    <g id="ytick_50">
     <g id="line2d_107">
      <g>
       <use xlink:href="#m41e3425993" x="90.004323" y="31.088391" style="stroke: #000000"/>
      </g>
     </g>
     <g id="line2d_108">
      <g>
       <use xlink:href="#mde4705be95" x="424.804323" y="31.088391" style="stroke: #000000"/>
      </g>
     </g>
    </g>
    <g id="ytick_51">
     <g id="line2d_109">
      <g>
       <use xlink:href="#m41e3425993" x="90.004323" y="27.692506" style="stroke: #000000"/>
      </g>
     </g>
     <g id="line2d_110">
      <g>
       <use xlink:href="#mde4705be95" x="424.804323" y="27.692506" style="stroke: #000000"/>
      </g>
     </g>
    </g>
    <g id="ytick_52">
     <g id="line2d_111">
      <g>
       <use xlink:href="#m41e3425993" x="90.004323" y="24.697122" style="stroke: #000000"/>
      </g>
     </g>
     <g id="line2d_112">
      <g>
       <use xlink:href="#mde4705be95" x="424.804323" y="24.697122" style="stroke: #000000"/>
      </g>
     </g>
    </g>
    <g id="text_12">
     <!-- $\sigma_i$ -->
     <g transform="translate(28.494961 185.331055) rotate(-90) scale(0.3 -0.3)">
      <defs>
       <path id="CMMI12-1b" d="M 3251 2406 
C 3334 2406 3546 2406 3546 2611 
C 3546 2752 3424 2752 3309 2752 
L 1894 2752 
C 934 2752 243 1685 243 932 
C 243 389 595 -64 1171 -64 
C 1926 -64 2752 746 2752 1704 
C 2752 1953 2694 2195 2541 2406 
L 3251 2406 
z
M 1178 64 
C 851 64 614 312 614 753 
C 614 1136 845 2406 1786 2406 
C 2061 2406 2368 2272 2368 1780 
C 2368 1557 2266 1021 2042 651 
C 1811 274 1466 64 1178 64 
z
" transform="scale(0.015625)"/>
      </defs>
      <use xlink:href="#CMMI12-1b" transform="scale(0.996264)"/>
      <use xlink:href="#CMMI12-69" transform="translate(55.445461 -14.943915) scale(0.697382)"/>
     </g>
    </g>
   </g>
   <g id="line2d_113">
    <path d="M 105.222505 22.557277 
L 108.426333 70.617576 
L 111.630161 78.831429 
L 114.833988 96.835488 
L 118.037816 104.008949 
L 121.241644 106.374233 
L 124.445472 111.99957 
L 127.649299 112.966917 
L 130.853127 124.798796 
L 134.056955 136.303551 
L 137.260783 137.015436 
L 140.46461 143.948893 
L 143.668438 150.100624 
L 146.872266 152.274201 
L 150.076094 156.106276 
L 153.279921 156.759364 
L 156.483749 158.373397 
L 159.687577 161.897526 
L 162.891405 163.641222 
L 166.095232 164.19517 
L 169.29906 167.063315 
L 172.502888 171.402514 
L 175.706716 173.40402 
L 178.910543 176.257255 
L 182.114371 176.942222 
L 185.318199 179.117071 
L 188.522027 181.420505 
L 191.725854 186.232573 
L 194.929682 188.589691 
L 198.13351 189.694641 
L 201.337338 190.281637 
L 204.541165 191.229333 
L 207.744993 192.237309 
L 210.948821 193.948587 
L 214.152649 194.771058 
L 217.356476 195.803359 
L 220.560304 196.317437 
L 223.764132 200.056858 
L 226.96796 200.764579 
L 230.171787 202.694798 
L 233.375615 203.810805 
L 236.579443 204.956861 
L 239.783271 205.943613 
L 242.987098 207.41854 
L 246.190926 208.632352 
L 249.394754 208.919946 
L 252.598582 210.479123 
L 255.802409 210.696955 
L 259.006237 215.05232 
L 262.210065 215.121342 
L 265.413893 216.744733 
L 268.61772 218.645931 
L 271.821548 219.032696 
L 275.025376 219.753682 
L 278.229204 221.61304 
L 281.433031 222.040216 
L 284.636859 224.131662 
L 287.840687 225.367281 
L 291.044515 226.16844 
L 294.248342 227.94207 
L 297.45217 228.474759 
L 300.655998 230.471895 
L 303.859826 231.01965 
L 307.063653 231.432164 
L 310.267481 232.399971 
L 313.471309 233.129638 
L 316.675137 234.420142 
L 319.878964 235.126311 
L 323.082792 236.423814 
L 326.28662 239.243403 
L 329.490448 239.931288 
L 332.694275 240.69914 
L 335.898103 240.715786 
L 339.101931 241.702763 
L 342.305759 243.153701 
L 345.509586 245.12087 
L 348.713414 245.356363 
L 351.917242 246.636371 
L 355.12107 248.476779 
L 358.324897 248.774907 
L 361.528725 250.668437 
L 364.732553 251.984777 
L 367.936381 252.528901 
L 371.140208 253.221121 
L 374.344036 254.71119 
L 377.547864 256.14599 
L 380.751692 257.361495 
L 383.955519 258.045004 
L 387.159347 259.630475 
L 390.363175 263.059779 
L 393.567003 266.859196 
L 396.77083 270.322516 
L 399.974658 272.085485 
L 403.178486 273.24408 
L 406.382314 276.709676 
L 409.586141 277.49102 
" clip-path="url(#p6c461e65ce)" style="fill: none; stroke-dasharray: 10,2,2,2,2,2; stroke-dashoffset: 0; stroke: #94a4a2; stroke-width: 2"/>
   </g>
   <g id="line2d_114">
    <path d="M 105.222505 22.32435 
L 108.426333 72.242889 
L 111.630161 100.134101 
L 114.833988 108.039004 
L 118.037816 112.367413 
L 121.241644 134.142607 
L 124.445472 138.636962 
L 127.649299 145.66966 
L 130.853127 152.102467 
L 134.056955 160.642662 
L 137.260783 160.996624 
L 140.46461 162.060358 
L 143.668438 164.977781 
L 146.872266 167.482168 
L 150.076094 172.240754 
L 153.279921 181.288374 
L 156.483749 187.627425 
L 159.687577 189.311701 
L 162.891405 192.473628 
L 166.095232 194.207058 
L 169.29906 196.064908 
L 172.502888 196.969614 
L 175.706716 198.410606 
L 178.910543 203.721208 
L 182.114371 204.640804 
L 185.318199 205.464833 
L 188.522027 207.208472 
L 191.725854 209.835812 
L 194.929682 212.086371 
L 198.13351 213.557947 
L 201.337338 215.837523 
L 204.541165 217.800583 
L 207.744993 219.381837 
L 210.948821 220.51352 
L 214.152649 221.933951 
L 217.356476 223.733474 
L 220.560304 223.904427 
L 223.764132 224.281815 
L 226.96796 227.93959 
L 230.171787 229.104169 
L 233.375615 230.784271 
L 236.579443 233.279263 
L 239.783271 234.174049 
L 242.987098 236.023236 
L 246.190926 238.088534 
L 249.394754 238.498907 
L 252.598582 239.530632 
L 255.802409 240.373589 
L 259.006237 241.608493 
L 262.210065 242.489714 
L 265.413893 243.594276 
L 268.61772 243.645544 
L 271.821548 246.576864 
L 275.025376 246.825191 
L 278.229204 248.671367 
L 281.433031 249.682544 
L 284.636859 250.836096 
L 287.840687 251.241903 
L 291.044515 254.079975 
L 294.248342 254.924918 
L 297.45217 255.771789 
L 300.655998 256.617949 
L 303.859826 257.889376 
L 307.063653 259.256981 
L 310.267481 261.133077 
L 313.471309 262.903769 
L 316.675137 264.275139 
L 319.878964 266.293848 
L 323.082792 266.676598 
L 326.28662 267.72203 
L 329.490448 270.481213 
L 332.694275 271.469058 
L 335.898103 272.287599 
L 339.101931 273.376872 
L 342.305759 274.952437 
L 345.509586 277.457353 
L 348.713414 277.682484 
L 351.917242 279.052146 
L 355.12107 279.445934 
L 358.324897 281.367308 
L 361.528725 283.278079 
L 364.732553 284.208411 
L 367.936381 286.299098 
L 371.140208 287.389505 
L 374.344036 288.993154 
L 377.547864 292.117401 
L 380.751692 293.123759 
L 383.955519 294.003372 
L 387.159347 296.407975 
L 390.363175 298.088682 
L 393.567003 302.000202 
L 396.77083 304.571213 
L 399.974658 307.32625 
L 403.178486 308.576991 
L 406.382314 313.558281 
L 409.586141 323.000107 
" clip-path="url(#p6c461e65ce)" style="fill: none; stroke-dasharray: 10,2; stroke-dashoffset: 0; stroke: #3f90da; stroke-width: 2"/>
   </g>
   <g id="line2d_115">
    <path d="M 105.222505 22.32 
L 108.426333 72.434837 
L 111.630161 100.128458 
L 114.833988 109.454308 
L 118.037816 112.641658 
L 121.241644 134.508891 
L 124.445472 135.608991 
L 127.649299 139.678515 
L 130.853127 149.920771 
L 134.056955 152.115765 
L 137.260783 160.38736 
L 140.46461 162.608132 
L 143.668438 163.173434 
L 146.872266 166.245042 
L 150.076094 171.982366 
L 153.279921 180.324021 
L 156.483749 183.690792 
L 159.687577 186.412571 
L 162.891405 189.742269 
L 166.095232 191.405979 
L 169.29906 192.925598 
L 172.502888 193.315928 
L 175.706716 195.81806 
L 178.910543 198.421208 
L 182.114371 201.462173 
L 185.318199 202.628361 
L 188.522027 204.07844 
L 191.725854 205.983791 
L 194.929682 208.004153 
L 198.13351 208.625623 
L 201.337338 210.304376 
L 204.541165 212.331875 
L 207.744993 215.346189 
L 210.948821 218.109176 
L 214.152649 218.656995 
L 217.356476 219.835327 
L 220.560304 221.864128 
L 223.764132 222.102978 
L 226.96796 226.138964 
L 230.171787 226.832639 
L 233.375615 228.484351 
L 236.579443 229.735951 
L 239.783271 231.564263 
L 242.987098 232.577085 
L 246.190926 233.561852 
L 249.394754 234.863271 
L 252.598582 237.184382 
L 255.802409 238.243921 
L 259.006237 239.663136 
L 262.210065 240.309181 
L 265.413893 240.673821 
L 268.61772 241.158087 
L 271.821548 242.575881 
L 275.025376 243.438789 
L 278.229204 243.672789 
L 281.433031 246.207471 
L 284.636859 247.287152 
L 287.840687 247.566318 
L 291.044515 248.932568 
L 294.248342 249.980938 
L 297.45217 250.23891 
L 300.655998 252.190608 
L 303.859826 252.846014 
L 307.063653 254.481158 
L 310.267481 255.078149 
L 313.471309 256.295821 
L 316.675137 256.573307 
L 319.878964 258.653954 
L 323.082792 261.220383 
L 326.28662 261.361068 
L 329.490448 263.243952 
L 332.694275 264.163518 
L 335.898103 264.65895 
L 339.101931 266.412372 
L 342.305759 266.977394 
L 345.509586 268.398257 
L 348.713414 268.852874 
L 351.917242 268.879728 
L 355.12107 273.148684 
L 358.324897 273.336528 
L 361.528725 274.376398 
L 364.732553 275.982612 
L 367.936381 277.598636 
L 371.140208 278.163508 
L 374.344036 279.089353 
L 377.547864 280.222573 
L 380.751692 282.213004 
L 383.955519 283.021856 
L 387.159347 283.97357 
L 390.363175 287.025727 
L 393.567003 290.463339 
L 396.77083 290.773829 
L 399.974658 295.04473 
L 403.178486 296.631435 
L 406.382314 301.168726 
L 409.586141 306.291187 
" clip-path="url(#p6c461e65ce)" style="fill: none; stroke-dasharray: 12.8,3.2,2,3.2; stroke-dashoffset: 0; stroke: #bd1f01; stroke-width: 2"/>
   </g>
   <g id="line2d_116">
    <path d="M 105.222505 22.331378 
L 108.426333 72.290514 
L 111.630161 100.166606 
L 114.833988 106.583457 
L 118.037816 110.849552 
L 121.241644 121.927901 
L 124.445472 129.333158 
L 127.649299 134.543042 
L 130.853127 159.786848 
L 134.056955 160.616353 
L 137.260783 168.017527 
L 140.46461 173.744177 
L 143.668438 178.287644 
L 146.872266 181.112379 
L 150.076094 184.229723 
L 153.279921 186.941722 
L 156.483749 192.619959 
L 159.687577 195.558794 
L 162.891405 197.208427 
L 166.095232 200.60685 
L 169.29906 204.922202 
L 172.502888 207.649434 
L 175.706716 209.2688 
L 178.910543 210.733977 
L 182.114371 212.837517 
L 185.318199 214.310016 
L 188.522027 215.232783 
L 191.725854 215.950212 
L 194.929682 220.104198 
L 198.13351 220.663567 
L 201.337338 221.889268 
L 204.541165 223.278466 
L 207.744993 224.52407 
L 210.948821 227.131883 
L 214.152649 228.15321 
L 217.356476 229.051814 
L 220.560304 230.787249 
L 223.764132 231.630264 
L 226.96796 234.129871 
L 230.171787 236.075409 
L 233.375615 237.472328 
L 236.579443 239.745526 
L 239.783271 240.55924 
L 242.987098 242.854376 
L 246.190926 245.325704 
L 249.394754 246.104488 
L 252.598582 246.810095 
L 255.802409 249.674111 
L 259.006237 249.865963 
L 262.210065 251.834392 
L 265.413893 252.011058 
L 268.61772 252.786389 
L 271.821548 255.222805 
L 275.025376 255.37836 
L 278.229204 256.296309 
L 281.433031 258.07524 
L 284.636859 258.396422 
L 287.840687 259.40531 
L 291.044515 260.617025 
L 294.248342 261.87238 
L 297.45217 262.41543 
L 300.655998 265.173768 
L 303.859826 265.609628 
L 307.063653 266.31735 
L 310.267481 268.207626 
L 313.471309 268.68814 
L 316.675137 269.380739 
L 319.878964 271.267765 
L 323.082792 272.279931 
L 326.28662 273.636699 
L 329.490448 274.535389 
L 332.694275 275.017065 
L 335.898103 275.618063 
L 339.101931 277.40626 
L 342.305759 279.293044 
L 345.509586 281.015014 
L 348.713414 281.852765 
L 351.917242 282.505439 
L 355.12107 285.145086 
L 358.324897 286.65857 
L 361.528725 288.987993 
L 364.732553 289.540494 
L 367.936381 292.238251 
L 371.140208 292.581937 
L 374.344036 293.953512 
L 377.547864 295.105528 
L 380.751692 296.654442 
L 383.955519 298.020156 
L 387.159347 298.634428 
L 390.363175 300.565972 
L 393.567003 302.246191 
L 396.77083 303.472554 
L 399.974658 305.64738 
L 403.178486 308.241228 
L 406.382314 311.646644 
L 409.586141 313.969946 
" clip-path="url(#p6c461e65ce)" style="fill: none; stroke: #d3acea; stroke-width: 2; stroke-linecap: square"/>
   </g>
   <g id="line2d_117">
    <path d="M 105.222505 22.424953 
L 108.426333 73.131578 
L 111.630161 82.680447 
L 114.833988 99.25055 
L 118.037816 106.791801 
L 121.241644 114.491925 
L 124.445472 124.059543 
L 127.649299 130.887271 
L 130.853127 139.49933 
L 134.056955 144.471283 
L 137.260783 149.810337 
L 140.46461 154.199776 
L 143.668438 155.138146 
L 146.872266 158.057154 
L 150.076094 170.842069 
L 153.279921 179.653599 
L 156.483749 205.359181 
L 159.687577 207.486342 
L 162.891405 208.511449 
L 166.095232 211.871198 
L 169.29906 214.474557 
L 172.502888 215.810299 
L 175.706716 218.724703 
L 178.910543 220.958897 
L 182.114371 225.142504 
L 185.318199 225.443451 
L 188.522027 227.895077 
L 191.725854 228.834038 
L 194.929682 231.735365 
L 198.13351 231.953501 
L 201.337338 235.055547 
L 204.541165 235.783135 
L 207.744993 237.230157 
L 210.948821 238.834624 
L 214.152649 239.279557 
L 217.356476 241.149008 
L 220.560304 242.309571 
L 223.764132 242.795645 
L 226.96796 244.284238 
L 230.171787 244.829862 
L 233.375615 245.692974 
L 236.579443 247.360138 
L 239.783271 248.049204 
L 242.987098 248.575169 
L 246.190926 248.638552 
L 249.394754 250.453783 
L 252.598582 250.927844 
L 255.802409 251.872232 
L 259.006237 253.202801 
L 262.210065 254.391506 
L 265.413893 255.263068 
L 268.61772 255.705456 
L 271.821548 257.931343 
L 275.025376 258.539202 
L 278.229204 259.257459 
L 281.433031 260.151752 
L 284.636859 260.752995 
L 287.840687 261.425088 
L 291.044515 263.424706 
L 294.248342 264.545506 
L 297.45217 265.000242 
L 300.655998 266.7647 
L 303.859826 267.237958 
L 307.063653 268.183046 
L 310.267481 270.161954 
L 313.471309 270.339766 
L 316.675137 272.009125 
L 319.878964 273.251388 
L 323.082792 274.348912 
L 326.28662 274.805299 
L 329.490448 276.41938 
L 332.694275 277.719427 
L 335.898103 278.776734 
L 339.101931 279.991533 
L 342.305759 282.029437 
L 345.509586 283.27651 
L 348.713414 284.342592 
L 351.917242 285.045787 
L 355.12107 285.653267 
L 358.324897 286.706512 
L 361.528725 288.649523 
L 364.732553 291.426059 
L 367.936381 292.999473 
L 371.140208 293.770536 
L 374.344036 295.423099 
L 377.547864 299.39787 
L 380.751692 301.035297 
L 383.955519 302.813803 
L 387.159347 304.240288 
L 390.363175 306.099185 
L 393.567003 307.009862 
L 396.77083 309.903213 
L 399.974658 313.935894 
L 403.178486 316.80633 
L 406.382314 319.569294 
L 409.586141 321.39763 
" clip-path="url(#p6c461e65ce)" style="fill: none; stroke: #a759d6; stroke-width: 2; stroke-linecap: square"/>
   </g>
   <g id="line2d_118">
    <path d="M 105.222505 22.473389 
L 108.426333 70.967864 
L 111.630161 81.93141 
L 114.833988 100.237226 
L 118.037816 109.229659 
L 121.241644 112.341206 
L 124.445472 121.204692 
L 127.649299 127.925323 
L 130.853127 139.033478 
L 134.056955 149.471371 
L 137.260783 153.863836 
L 140.46461 157.42597 
L 143.668438 159.576856 
L 146.872266 165.920534 
L 150.076094 168.118432 
L 153.279921 169.6827 
L 156.483749 173.358356 
L 159.687577 175.977177 
L 162.891405 183.519724 
L 166.095232 188.76918 
L 169.29906 192.699163 
L 172.502888 195.673763 
L 175.706716 198.274336 
L 178.910543 205.519213 
L 182.114371 227.528901 
L 185.318199 230.423855 
L 188.522027 231.462742 
L 191.725854 233.197277 
L 194.929682 234.653297 
L 198.13351 236.429263 
L 201.337338 239.532651 
L 204.541165 240.354563 
L 207.744993 242.19916 
L 210.948821 242.872003 
L 214.152649 246.339788 
L 217.356476 246.556296 
L 220.560304 248.449092 
L 223.764132 249.092956 
L 226.96796 250.291833 
L 230.171787 250.806226 
L 233.375615 252.604809 
L 236.579443 254.011334 
L 239.783271 254.824956 
L 242.987098 256.382729 
L 246.190926 256.826524 
L 249.394754 257.645964 
L 252.598582 259.166356 
L 255.802409 259.743124 
L 259.006237 261.035455 
L 262.210065 261.189079 
L 265.413893 262.320019 
L 268.61772 263.35126 
L 271.821548 264.139968 
L 275.025376 264.676224 
L 278.229204 265.431303 
L 281.433031 266.394269 
L 284.636859 267.646218 
L 287.840687 268.338948 
L 291.044515 268.581807 
L 294.248342 269.447608 
L 297.45217 270.337452 
L 300.655998 271.825134 
L 303.859826 272.633721 
L 307.063653 273.986697 
L 310.267481 274.925706 
L 313.471309 276.467028 
L 316.675137 277.029592 
L 319.878964 278.042309 
L 323.082792 278.815787 
L 326.28662 280.046933 
L 329.490448 280.750674 
L 332.694275 280.97865 
L 335.898103 282.230952 
L 339.101931 282.829111 
L 342.305759 284.279426 
L 345.509586 285.409559 
L 348.713414 287.563231 
L 351.917242 289.208573 
L 355.12107 290.975864 
L 358.324897 291.48944 
L 361.528725 293.509191 
L 364.732553 297.780387 
L 367.936381 298.401464 
L 371.140208 299.817591 
L 374.344036 300.354644 
L 377.547864 301.456737 
L 380.751692 303.658355 
L 383.955519 305.804837 
L 387.159347 307.291005 
L 390.363175 309.131114 
L 393.567003 310.186791 
L 396.77083 313.052174 
L 399.974658 315.490273 
L 403.178486 321.896307 
L 406.382314 324.336673 
L 409.586141 324.72 
" clip-path="url(#p6c461e65ce)" style="fill: none; stroke: #7328a0; stroke-width: 2; stroke-linecap: square"/>
   </g>
   <g id="patch_3">
    <path d="M 90.004323 339.84 
L 90.004323 7.2 
" style="fill: none; stroke: #000000; stroke-width: 2; stroke-linejoin: miter; stroke-linecap: square"/>
   </g>
   <g id="patch_4">
    <path d="M 424.804323 339.84 
L 424.804323 7.2 
" style="fill: none; stroke: #000000; stroke-width: 2; stroke-linejoin: miter; stroke-linecap: square"/>
   </g>
   <g id="patch_5">
    <path d="M 90.004323 339.84 
L 424.804323 339.84 
" style="fill: none; stroke: #000000; stroke-width: 2; stroke-linejoin: miter; stroke-linecap: square"/>
   </g>
   <g id="patch_6">
    <path d="M 90.004323 7.2 
L 424.804323 7.2 
" style="fill: none; stroke: #000000; stroke-width: 2; stroke-linejoin: miter; stroke-linecap: square"/>
   </g>
   <g id="legend_1">
    <g id="line2d_119">
     <path d="M 463.144323 37.435969 
L 487.144323 37.435969 
L 511.144323 37.435969 
" style="fill: none; stroke-dasharray: 10,2,2,2,2,2; stroke-dashoffset: 0; stroke: #94a4a2; stroke-width: 2"/>
    </g>
    <g id="text_13">
     <!-- Initial -->
     <g transform="translate(530.344323 45.835969) scale(0.24 -0.24)">
      <defs>
       <path id="NimbusSanL-Regu-49" d="M 1242 4672 
L 640 4672 
L 640 0 
L 1242 0 
L 1242 4672 
z
" transform="scale(0.015625)"/>
       <path id="NimbusSanL-Regu-6e" d="M 448 3328 
L 448 0 
L 986 0 
L 986 1835 
C 986 2539 1344 2988 1894 2988 
C 2317 2988 2586 2732 2586 2328 
L 2586 0 
L 3117 0 
L 3117 2539 
C 3117 3097 2701 3456 2054 3456 
C 1555 3456 1235 3263 941 2796 
L 941 3328 
L 448 3328 
z
" transform="scale(0.015625)"/>
       <path id="NimbusSanL-Regu-69" d="M 960 3358 
L 429 3358 
L 429 0 
L 960 0 
L 960 3358 
z
M 960 4672 
L 422 4672 
L 422 3999 
L 960 3999 
L 960 4672 
z
" transform="scale(0.015625)"/>
       <path id="NimbusSanL-Regu-74" d="M 1626 3328 
L 1075 3328 
L 1075 4249 
L 544 4249 
L 544 3328 
L 90 3328 
L 90 2892 
L 544 2892 
L 544 402 
C 544 64 774 -128 1190 -128 
C 1318 -128 1446 -116 1626 -84 
L 1626 364 
C 1555 345 1472 339 1370 339 
C 1139 339 1075 402 1075 634 
L 1075 2892 
L 1626 2892 
L 1626 3328 
z
" transform="scale(0.015625)"/>
       <path id="NimbusSanL-Regu-61" d="M 3424 332 
C 3366 320 3341 320 3309 320 
C 3123 320 3021 415 3021 581 
L 3021 2542 
C 3021 3135 2586 3456 1760 3456 
C 1274 3456 870 3315 646 3065 
C 493 2893 429 2702 416 2370 
L 954 2370 
C 998 2778 1242 2963 1741 2963 
C 2221 2963 2490 2784 2490 2466 
L 2490 2326 
C 2490 2103 2355 2007 1933 1956 
C 1178 1861 1062 1835 858 1753 
C 467 1593 269 1294 269 861 
C 269 256 691 -128 1370 -128 
C 1792 -128 2131 19 2509 364 
C 2547 25 2714 -128 3059 -128 
C 3168 -128 3251 -116 3424 -71 
L 3424 332 
z
M 2490 1071 
C 2490 893 2438 785 2278 638 
C 2061 441 1798 339 1485 339 
C 1069 339 826 536 826 874 
C 826 1224 1062 1402 1632 1485 
C 2195 1562 2310 1587 2490 1670 
L 2490 1071 
z
" transform="scale(0.015625)"/>
       <path id="NimbusSanL-Regu-6c" d="M 973 4672 
L 435 4672 
L 435 0 
L 973 0 
L 973 4672 
z
" transform="scale(0.015625)"/>
      </defs>
      <use xlink:href="#NimbusSanL-Regu-49" transform="scale(0.996264)"/>
      <use xlink:href="#NimbusSanL-Regu-6e" transform="translate(27.69517 0) scale(0.996264)"/>
      <use xlink:href="#NimbusSanL-Regu-69" transform="translate(83.086847 0) scale(0.996264)"/>
      <use xlink:href="#NimbusSanL-Regu-74" transform="translate(105.203631 0) scale(0.996264)"/>
      <use xlink:href="#NimbusSanL-Regu-69" transform="translate(132.898801 0) scale(0.996264)"/>
      <use xlink:href="#NimbusSanL-Regu-61" transform="translate(155.015585 0) scale(0.996264)"/>
      <use xlink:href="#NimbusSanL-Regu-6c" transform="translate(210.407262 0) scale(0.996264)"/>
     </g>
    </g>
    <g id="line2d_120">
     <path d="M 463.144323 72.00718 
L 487.144323 72.00718 
L 511.144323 72.00718 
" style="fill: none; stroke-dasharray: 10,2; stroke-dashoffset: 0; stroke: #3f90da; stroke-width: 2"/>
    </g>
    <g id="text_14">
     <!-- Renyi-1/2 -->
     <g transform="translate(530.344323 80.40718) scale(0.24 -0.24)">
      <defs>
       <path id="NimbusSanL-Regu-52" d="M 1190 2035 
L 2726 2035 
C 3258 2035 3494 1775 3494 1191 
L 3488 770 
C 3488 478 3539 192 3622 0 
L 4346 0 
L 4346 147 
C 4122 303 4077 471 4064 1101 
C 4058 1879 3936 2111 3430 2329 
C 3955 2585 4166 2907 4166 3432 
C 4166 4230 3661 4672 2746 4672 
L 595 4672 
L 595 0 
L 1190 0 
L 1190 2035 
z
M 1190 2560 
L 1190 4147 
L 2630 4147 
C 2963 4147 3155 4096 3302 3970 
C 3462 3837 3546 3628 3546 3350 
C 3546 2806 3264 2560 2630 2560 
L 1190 2560 
z
" transform="scale(0.015625)"/>
       <path id="NimbusSanL-Regu-65" d="M 3283 1484 
C 3283 1998 3245 2311 3149 2565 
C 2931 3123 2419 3456 1792 3456 
C 858 3456 256 2734 256 1619 
C 256 545 838 -128 1779 -128 
C 2547 -128 3078 307 3213 1018 
L 2675 1018 
C 2528 588 2227 364 1798 364 
C 1459 364 1171 514 992 787 
C 864 974 819 1161 813 1484 
L 3283 1484 
z
M 826 1920 
C 870 2552 1248 2963 1786 2963 
C 2310 2963 2714 2519 2714 1959 
C 2714 1946 2714 1933 2707 1920 
L 826 1920 
z
" transform="scale(0.015625)"/>
       <path id="NimbusSanL-Regu-79" d="M 2483 3328 
L 1555 724 
L 698 3328 
L 128 3328 
L 1261 -29 
L 1056 -558 
C 973 -794 851 -884 627 -884 
C 550 -884 461 -871 346 -845 
L 346 -1325 
C 454 -1383 563 -1408 704 -1408 
C 877 -1408 1062 -1351 1203 -1248 
C 1370 -1127 1466 -986 1568 -718 
L 3059 3328 
L 2483 3328 
z
" transform="scale(0.015625)"/>
       <path id="NimbusSanL-Regu-2d" d="M 1818 1996 
L 294 1996 
L 294 1536 
L 1818 1536 
L 1818 1996 
z
" transform="scale(0.015625)"/>
       <path id="NimbusSanL-Regu-31" d="M 1658 3232 
L 1658 0 
L 2221 0 
L 2221 4537 
L 1850 4537 
C 1651 3840 1523 3744 653 3635 
L 653 3232 
L 1658 3232 
z
" transform="scale(0.015625)"/>
       <path id="NimbusSanL-Regu-2f" d="M 1466 4672 
L -51 -128 
L 301 -128 
L 1818 4672 
L 1466 4672 
z
" transform="scale(0.015625)"/>
       <path id="NimbusSanL-Regu-32" d="M 3238 556 
L 851 556 
C 909 928 1114 1165 1670 1493 
L 2310 1839 
C 2944 2185 3270 2653 3270 3211 
C 3270 3589 3117 3942 2848 4185 
C 2579 4428 2246 4544 1818 4544 
C 1242 4544 813 4339 563 3955 
C 403 3711 333 3429 320 2967 
L 883 2967 
C 902 3275 941 3461 1018 3608 
C 1165 3884 1459 4051 1798 4051 
C 2310 4051 2694 3685 2694 3198 
C 2694 2839 2483 2531 2080 2300 
L 1491 1967 
C 544 1428 269 999 218 0 
L 3238 0 
L 3238 556 
z
" transform="scale(0.015625)"/>
      </defs>
      <use xlink:href="#NimbusSanL-Regu-52" transform="scale(0.996264)"/>
      <use xlink:href="#NimbusSanL-Regu-65" transform="translate(71.929985 0) scale(0.996264)"/>
      <use xlink:href="#NimbusSanL-Regu-6e" transform="translate(127.321662 0) scale(0.996264)"/>
      <use xlink:href="#NimbusSanL-Regu-79" transform="translate(181.219946 0) scale(0.996264)"/>
      <use xlink:href="#NimbusSanL-Regu-69" transform="translate(231.033147 0) scale(0.996264)"/>
      <use xlink:href="#NimbusSanL-Regu-2d" transform="translate(253.149931 0) scale(0.996264)"/>
      <use xlink:href="#NimbusSanL-Regu-31" transform="translate(286.325161 0) scale(0.996264)"/>
      <use xlink:href="#NimbusSanL-Regu-2f" transform="translate(341.716838 0) scale(0.996264)"/>
      <use xlink:href="#NimbusSanL-Regu-32" transform="translate(369.412007 0) scale(0.996264)"/>
     </g>
    </g>
    <g id="line2d_121">
     <path d="M 463.144323 106.135913 
L 487.144323 106.135913 
L 511.144323 106.135913 
" style="fill: none; stroke-dasharray: 12.8,3.2,2,3.2; stroke-dashoffset: 0; stroke: #bd1f01; stroke-width: 2"/>
    </g>
    <g id="text_15">
     <!-- Von Neumann -->
     <g transform="translate(530.344323 114.535913) scale(0.24 -0.24)">
      <defs>
       <path id="NimbusSanL-Regu-56" d="M 2509 0 
L 4128 4672 
L 3494 4672 
L 2202 717 
L 832 4672 
L 192 4672 
L 1869 0 
L 2509 0 
z
" transform="scale(0.015625)"/>
       <path id="NimbusSanL-Regu-6f" d="M 1741 3456 
C 800 3456 230 2784 230 1663 
C 230 543 794 -128 1747 -128 
C 2688 -128 3264 543 3264 1638 
C 3264 2791 2707 3456 1741 3456 
z
M 1747 2963 
C 2349 2963 2707 2472 2707 1644 
C 2707 861 2336 364 1747 364 
C 1152 364 787 855 787 1663 
C 787 2466 1152 2963 1747 2963 
z
" transform="scale(0.015625)"/>
       <path id="NimbusSanL-Regu-4e" d="M 4134 4672 
L 3571 4672 
L 3571 852 
L 1133 4672 
L 486 4672 
L 486 0 
L 1050 0 
L 1050 3787 
L 3462 0 
L 4134 0 
L 4134 4672 
z
" transform="scale(0.015625)"/>
       <path id="NimbusSanL-Regu-75" d="M 3085 19 
L 3085 3328 
L 2554 3328 
L 2554 1454 
C 2554 780 2195 339 1638 339 
C 1216 339 947 591 947 988 
L 947 3328 
L 416 3328 
L 416 780 
C 416 230 832 -128 1485 -128 
C 1978 -128 2291 44 2605 484 
L 2605 19 
L 3085 19 
z
" transform="scale(0.015625)"/>
       <path id="NimbusSanL-Regu-6d" d="M 448 3328 
L 448 0 
L 986 0 
L 986 2089 
C 986 2597 1338 2988 1773 2988 
C 2170 2988 2394 2744 2394 2315 
L 2394 0 
L 2931 0 
L 2931 2109 
C 2931 2597 3283 2988 3718 2988 
C 4109 2988 4339 2738 4339 2315 
L 4339 0 
L 4877 0 
L 4877 2520 
C 4877 3123 4531 3456 3904 3456 
C 3456 3456 3187 3321 2874 2943 
C 2675 3302 2406 3456 1971 3456 
C 1523 3456 1229 3289 941 2886 
L 941 3328 
L 448 3328 
z
" transform="scale(0.015625)"/>
      </defs>
      <use xlink:href="#NimbusSanL-Regu-56" transform="scale(0.996264)"/>
      <use xlink:href="#NimbusSanL-Regu-6f" transform="translate(58.480588 0) scale(0.996264)"/>
      <use xlink:href="#NimbusSanL-Regu-6e" transform="translate(113.872265 0) scale(0.996264)"/>
      <use xlink:href="#NimbusSanL-Regu-4e" transform="translate(196.959111 0) scale(0.996264)"/>
      <use xlink:href="#NimbusSanL-Regu-65" transform="translate(268.889096 0) scale(0.996264)"/>
      <use xlink:href="#NimbusSanL-Regu-75" transform="translate(324.280773 0) scale(0.996264)"/>
      <use xlink:href="#NimbusSanL-Regu-6d" transform="translate(379.67245 0) scale(0.996264)"/>
      <use xlink:href="#NimbusSanL-Regu-61" transform="translate(462.66088 0) scale(0.996264)"/>
      <use xlink:href="#NimbusSanL-Regu-6e" transform="translate(518.052557 0) scale(0.996264)"/>
      <use xlink:href="#NimbusSanL-Regu-6e" transform="translate(573.444234 0) scale(0.996264)"/>
     </g>
    </g>
    <g id="line2d_122">
     <path d="M 463.144323 140.264646 
L 487.144323 140.264646 
L 511.144323 140.264646 
" style="fill: none; stroke: #d3acea; stroke-width: 2; stroke-linecap: square"/>
    </g>
    <g id="text_16">
     <!-- Target Rank, $k=8$ -->
     <g transform="translate(530.344323 148.664646) scale(0.24 -0.24)">
      <defs>
       <path id="NimbusSanL-Regu-54" d="M 2266 4147 
L 3795 4147 
L 3795 4672 
L 134 4672 
L 134 4147 
L 1670 4147 
L 1670 0 
L 2266 0 
L 2266 4147 
z
" transform="scale(0.015625)"/>
       <path id="NimbusSanL-Regu-72" d="M 442 3328 
L 442 0 
L 979 0 
L 979 1727 
C 979 2203 1101 2514 1357 2698 
C 1523 2819 1683 2857 2054 2863 
L 2054 3404 
C 1965 3449 1920 3456 1850 3456 
C 1504 3456 1242 3251 934 2750 
L 934 3328 
L 442 3328 
z
" transform="scale(0.015625)"/>
       <path id="NimbusSanL-Regu-67" d="M 2637 3359 
L 2637 2873 
C 2368 3270 2042 3456 1613 3456 
C 762 3456 186 2714 186 1632 
C 186 1084 333 638 608 320 
C 858 38 1216 -128 1568 -128 
C 1990 -128 2285 51 2586 473 
L 2586 300 
C 2586 -155 2528 -441 2394 -634 
C 2253 -841 1978 -960 1651 -960 
C 1408 -960 1190 -894 1043 -774 
C 922 -674 870 -581 838 -375 
L 294 -375 
C 352 -1031 845 -1408 1632 -1408 
C 2131 -1408 2560 -1248 2778 -980 
C 3034 -661 3130 -222 3130 568 
L 3130 3359 
L 2637 3359 
z
M 1670 2963 
C 2246 2963 2586 2479 2586 1644 
C 2586 848 2240 364 1677 364 
C 1094 364 742 855 742 1663 
C 742 2466 1101 2963 1670 2963 
z
" transform="scale(0.015625)"/>
       <path id="NimbusSanL-Regu-6b" d="M 902 4672 
L 371 4672 
L 371 0 
L 902 0 
L 902 1307 
L 1421 1820 
L 2554 0 
L 3213 0 
L 1843 2198 
L 3008 3358 
L 2323 3358 
L 902 1935 
L 902 4672 
z
" transform="scale(0.015625)"/>
       <path id="NimbusSanL-Regu-2c" d="M 557 665 
L 557 0 
L 941 0 
L 941 -116 
C 941 -557 858 -685 557 -698 
L 557 -941 
C 1005 -941 1229 -653 1229 -103 
L 1229 665 
L 557 665 
z
" transform="scale(0.015625)"/>
       <path id="CMMI12-6b" d="M 1798 4255 
C 1805 4281 1818 4319 1818 4351 
C 1818 4416 1754 4416 1741 4416 
C 1734 4416 1504 4396 1389 4383 
C 1280 4377 1184 4364 1069 4358 
C 915 4345 870 4339 870 4223 
C 870 4159 934 4159 998 4159 
C 1325 4159 1325 4103 1325 4040 
C 1325 4014 1325 4002 1293 3888 
L 378 250 
C 352 153 352 141 352 102 
C 352 -39 461 -64 525 -64 
C 704 -64 742 76 794 275 
L 1094 1476 
C 1555 1425 1830 1232 1830 924 
C 1830 885 1830 860 1811 763 
C 1786 667 1786 590 1786 558 
C 1786 185 2029 -64 2355 -64 
C 2650 -64 2803 205 2854 295 
C 2989 532 3072 892 3072 917 
C 3072 949 3046 975 3008 975 
C 2950 975 2944 949 2918 847 
C 2829 513 2694 64 2368 64 
C 2240 64 2157 128 2157 372 
C 2157 494 2182 635 2208 731 
C 2234 847 2234 853 2234 930 
C 2234 1309 1894 1521 1306 1598 
C 1536 1739 1766 1989 1856 2086 
C 2221 2495 2470 2687 2765 2687 
C 2912 2687 2950 2655 2995 2624 
C 2758 2598 2669 2431 2669 2303 
C 2669 2150 2790 2099 2880 2099 
C 3053 2099 3206 2246 3206 2451 
C 3206 2634 3059 2816 2771 2816 
C 2419 2816 2131 2579 1677 2067 
C 1613 1989 1376 1746 1139 1656 
L 1798 4255 
z
" transform="scale(0.015625)"/>
       <path id="CMR17-3d" d="M 4115 2048 
C 4211 2048 4307 2048 4307 2156 
C 4307 2272 4198 2272 4090 2272 
L 512 2272 
C 403 2272 294 2272 294 2156 
C 294 2048 390 2048 486 2048 
L 4115 2048 
z
M 4090 927 
C 4198 927 4307 927 4307 1043 
C 4307 1152 4211 1152 4115 1152 
L 486 1152 
C 390 1152 294 1152 294 1043 
C 294 927 403 927 512 927 
L 4090 927 
z
" transform="scale(0.015625)"/>
       <path id="CMR17-38" d="M 1741 2289 
C 2144 2494 2554 2803 2554 3298 
C 2554 3884 1990 4224 1472 4224 
C 890 4224 378 3800 378 3215 
C 378 3054 416 2777 666 2533 
C 730 2469 998 2276 1171 2154 
C 883 2006 211 1652 211 945 
C 211 282 838 -128 1459 -128 
C 2144 -128 2720 366 2720 1022 
C 2720 1607 2330 1877 2074 2051 
L 1741 2289 
z
M 902 2855 
C 851 2887 595 3086 595 3388 
C 595 3781 998 4076 1459 4076 
C 1965 4076 2336 3716 2336 3298 
C 2336 2700 1670 2359 1638 2359 
C 1632 2359 1626 2359 1574 2398 
L 902 2855 
z
M 2080 1536 
C 2176 1466 2483 1253 2483 861 
C 2483 385 2010 25 1472 25 
C 890 25 448 443 448 951 
C 448 1459 838 1884 1280 2083 
L 2080 1536 
z
" transform="scale(0.015625)"/>
      </defs>
      <use xlink:href="#NimbusSanL-Regu-54" transform="scale(0.996264)"/>
      <use xlink:href="#NimbusSanL-Regu-61" transform="translate(48.916949 0) scale(0.996264)"/>
      <use xlink:href="#NimbusSanL-Regu-72" transform="translate(104.308626 0) scale(0.996264)"/>
      <use xlink:href="#NimbusSanL-Regu-67" transform="translate(137.483856 0) scale(0.996264)"/>
      <use xlink:href="#NimbusSanL-Regu-65" transform="translate(192.875533 0) scale(0.996264)"/>
      <use xlink:href="#NimbusSanL-Regu-74" transform="translate(248.26721 0) scale(0.996264)"/>
      <use xlink:href="#NimbusSanL-Regu-52" transform="translate(303.657549 0) scale(0.996264)"/>
      <use xlink:href="#NimbusSanL-Regu-61" transform="translate(375.587534 0) scale(0.996264)"/>
      <use xlink:href="#NimbusSanL-Regu-6e" transform="translate(430.979211 0) scale(0.996264)"/>
      <use xlink:href="#NimbusSanL-Regu-6b" transform="translate(486.370888 0) scale(0.996264)"/>
      <use xlink:href="#NimbusSanL-Regu-2c" transform="translate(536.184088 0) scale(0.996264)"/>
      <use xlink:href="#CMMI12-6b" transform="translate(591.574427 0) scale(0.996264)"/>
      <use xlink:href="#CMR17-3d" transform="translate(673.327637 0) scale(0.996264)"/>
      <use xlink:href="#CMR17-38" transform="translate(772.716434 0) scale(0.996264)"/>
     </g>
    </g>
    <g id="line2d_123">
     <path d="M 463.144323 174.393379 
L 487.144323 174.393379 
L 511.144323 174.393379 
" style="fill: none; stroke: #a759d6; stroke-width: 2; stroke-linecap: square"/>
    </g>
    <g id="text_17">
     <!-- Target Rank, $k=16$ -->
     <g transform="translate(530.344323 182.793379) scale(0.24 -0.24)">
      <defs>
       <path id="CMR17-36" d="M 678 2198 
C 678 3712 1395 4076 1811 4076 
C 1946 4076 2272 4049 2400 3782 
C 2298 3782 2106 3782 2106 3558 
C 2106 3385 2246 3328 2336 3328 
C 2394 3328 2566 3353 2566 3571 
C 2566 3987 2246 4224 1805 4224 
C 1043 4224 243 3411 243 2011 
C 243 257 966 -128 1478 -128 
C 2099 -128 2688 431 2688 1295 
C 2688 2101 2170 2688 1517 2688 
C 1126 2688 838 2430 678 1979 
L 678 2198 
z
M 1478 25 
C 691 25 691 1212 691 1450 
C 691 1914 909 2585 1504 2585 
C 1613 2585 1926 2585 2138 2140 
C 2253 1889 2253 1624 2253 1302 
C 2253 954 2253 696 2118 438 
C 1978 173 1773 25 1478 25 
z
" transform="scale(0.015625)"/>
      </defs>
      <use xlink:href="#NimbusSanL-Regu-54" transform="scale(0.996264)"/>
      <use xlink:href="#NimbusSanL-Regu-61" transform="translate(48.916949 0) scale(0.996264)"/>
      <use xlink:href="#NimbusSanL-Regu-72" transform="translate(104.308626 0) scale(0.996264)"/>
      <use xlink:href="#NimbusSanL-Regu-67" transform="translate(137.483856 0) scale(0.996264)"/>
      <use xlink:href="#NimbusSanL-Regu-65" transform="translate(192.875533 0) scale(0.996264)"/>
      <use xlink:href="#NimbusSanL-Regu-74" transform="translate(248.26721 0) scale(0.996264)"/>
      <use xlink:href="#NimbusSanL-Regu-52" transform="translate(303.657549 0) scale(0.996264)"/>
      <use xlink:href="#NimbusSanL-Regu-61" transform="translate(375.587534 0) scale(0.996264)"/>
      <use xlink:href="#NimbusSanL-Regu-6e" transform="translate(430.979211 0) scale(0.996264)"/>
      <use xlink:href="#NimbusSanL-Regu-6b" transform="translate(486.370888 0) scale(0.996264)"/>
      <use xlink:href="#NimbusSanL-Regu-2c" transform="translate(536.184088 0) scale(0.996264)"/>
      <use xlink:href="#CMMI12-6b" transform="translate(591.574427 0) scale(0.996264)"/>
      <use xlink:href="#CMR17-3d" transform="translate(673.327637 0) scale(0.996264)"/>
      <use xlink:href="#CMR17-31" transform="translate(772.716434 0) scale(0.996264)"/>
      <use xlink:href="#CMR17-36" transform="translate(818.406911 0) scale(0.996264)"/>
     </g>
    </g>
    <g id="line2d_124">
     <path d="M 463.144323 208.522112 
L 487.144323 208.522112 
L 511.144323 208.522112 
" style="fill: none; stroke: #7328a0; stroke-width: 2; stroke-linecap: square"/>
    </g>
    <g id="text_18">
     <!-- Target Rank, $k=24$ -->
     <g transform="translate(530.344323 216.922112) scale(0.24 -0.24)">
      <use xlink:href="#NimbusSanL-Regu-54" transform="scale(0.996264)"/>
      <use xlink:href="#NimbusSanL-Regu-61" transform="translate(48.916949 0) scale(0.996264)"/>
      <use xlink:href="#NimbusSanL-Regu-72" transform="translate(104.308626 0) scale(0.996264)"/>
      <use xlink:href="#NimbusSanL-Regu-67" transform="translate(137.483856 0) scale(0.996264)"/>
      <use xlink:href="#NimbusSanL-Regu-65" transform="translate(192.875533 0) scale(0.996264)"/>
      <use xlink:href="#NimbusSanL-Regu-74" transform="translate(248.26721 0) scale(0.996264)"/>
      <use xlink:href="#NimbusSanL-Regu-52" transform="translate(303.657549 0) scale(0.996264)"/>
      <use xlink:href="#NimbusSanL-Regu-61" transform="translate(375.587534 0) scale(0.996264)"/>
      <use xlink:href="#NimbusSanL-Regu-6e" transform="translate(430.979211 0) scale(0.996264)"/>
      <use xlink:href="#NimbusSanL-Regu-6b" transform="translate(486.370888 0) scale(0.996264)"/>
      <use xlink:href="#NimbusSanL-Regu-2c" transform="translate(536.184088 0) scale(0.996264)"/>
      <use xlink:href="#CMMI12-6b" transform="translate(591.574427 0) scale(0.996264)"/>
      <use xlink:href="#CMR17-3d" transform="translate(673.327637 0) scale(0.996264)"/>
      <use xlink:href="#CMR17-32" transform="translate(772.716434 0) scale(0.996264)"/>
      <use xlink:href="#CMR17-34" transform="translate(818.406911 0) scale(0.996264)"/>
     </g>
    </g>
   </g>
  </g>
 </g>
 <defs>
  <clipPath id="p6c461e65ce">
   <rect x="90.004323" y="7.2" width="334.8" height="332.64"/>
  </clipPath>
 </defs>
</svg>
