<?xml version="1.0" encoding="utf-8" standalone="no"?>
<!DOCTYPE svg PUBLIC "-//W3C//DTD SVG 1.1//EN"
  "http://www.w3.org/Graphics/SVG/1.1/DTD/svg11.dtd">
<svg xmlns:xlink="http://www.w3.org/1999/xlink" width="756.074945pt" height="412.829653pt" viewBox="0 0 756.074945 412.829653" xmlns="http://www.w3.org/2000/svg" version="1.1">
 <metadata>
  <rdf:RDF xmlns:dc="http://purl.org/dc/elements/1.1/" xmlns:cc="http://creativecommons.org/ns#" xmlns:rdf="http://www.w3.org/1999/02/22-rdf-syntax-ns#">
   <cc:Work>
    <dc:type rdf:resource="http://purl.org/dc/dcmitype/StillImage"/>
    <dc:date>2026-03-10T14:43:41.833225</dc:date>
    <dc:format>image/svg+xml</dc:format>
    <dc:creator>
     <cc:Agent>
      <dc:title>Matplotlib v3.8.0, https://matplotlib.org/</dc:title>
     </cc:Agent>
    </dc:creator>
   </cc:Work>
  </rdf:RDF>
 </metadata>
 <defs>
  <style type="text/css">*{stroke-linejoin: round; stroke-linecap: butt}</style>
 </defs>
 <g id="figure_1">
  <g id="patch_1">
   <path d="M 0 412.829653 
L 756.074945 412.829653 
L 756.074945 0 
L 0 0 
L 0 412.829653 
z
" style="fill: none"/>
  </g>
  <g id="axes_1">
   <g id="patch_2">
    <path d="M 98.198464 339.84 
L 432.998464 339.84 
L 432.998464 7.2 
L 98.198464 7.2 
L 98.198464 339.84 
z
" style="fill: none"/>
   </g>
   <g id="matplotlib.axis_1">
    <g id="xtick_1">
     <g id="line2d_1">
      <defs>
       <path id="m6cda7b0a89" d="M 0 0 
L 0 -10 
" style="stroke: #000000; stroke-width: 2"/>
      </defs>
      <g>
       <use xlink:href="#m6cda7b0a89" x="113.416646" y="339.84" style="stroke: #000000; stroke-width: 2"/>
      </g>
     </g>
     <g id="line2d_2">
      <defs>
       <path id="m4ee0f2b194" d="M 0 0 
L 0 10 
" style="stroke: #000000; stroke-width: 2"/>
      </defs>
      <g>
       <use xlink:href="#m4ee0f2b194" x="113.416646" y="7.2" style="stroke: #000000; stroke-width: 2"/>
      </g>
     </g>
     <g id="text_1">
      <!-- $\mathdefault{0}$ -->
      <g transform="translate(107.933789 368.875969) scale(0.24 -0.24)">
       <defs>
        <path id="CMR17-30" d="M 2688 2038 
C 2688 2430 2682 3099 2413 3613 
C 2176 4063 1798 4224 1466 4224 
C 1158 4224 768 4082 525 3620 
C 269 3137 243 2539 243 2038 
C 243 1671 250 1112 448 623 
C 723 -39 1216 -128 1466 -128 
C 1760 -128 2208 -7 2470 604 
C 2662 1048 2688 1568 2688 2038 
z
M 1466 -26 
C 1056 -26 813 328 723 816 
C 653 1196 653 1749 653 2109 
C 653 2604 653 3015 736 3407 
C 858 3954 1216 4121 1466 4121 
C 1728 4121 2067 3947 2189 3420 
C 2272 3054 2278 2623 2278 2109 
C 2278 1691 2278 1176 2202 797 
C 2067 96 1690 -26 1466 -26 
z
" transform="scale(0.015625)"/>
       </defs>
       <use xlink:href="#CMR17-30" transform="scale(0.996264)"/>
      </g>
     </g>
    </g>
    <g id="xtick_2">
     <g id="line2d_3">
      <g>
       <use xlink:href="#m6cda7b0a89" x="219.837498" y="339.84" style="stroke: #000000; stroke-width: 2"/>
      </g>
     </g>
     <g id="line2d_4">
      <g>
       <use xlink:href="#m4ee0f2b194" x="219.837498" y="7.2" style="stroke: #000000; stroke-width: 2"/>
      </g>
     </g>
     <g id="text_2">
      <!-- $\mathdefault{50}$ -->
      <g transform="translate(208.871783 368.875969) scale(0.24 -0.24)">
       <defs>
        <path id="CMR17-35" d="M 730 3750 
C 794 3724 1056 3641 1325 3641 
C 1920 3641 2246 3961 2432 4140 
C 2432 4191 2432 4224 2394 4224 
C 2387 4224 2374 4224 2323 4198 
C 2099 4102 1837 4032 1517 4032 
C 1325 4032 1037 4055 723 4191 
C 653 4224 640 4224 634 4224 
C 602 4224 595 4217 595 4090 
L 595 2231 
C 595 2113 595 2080 659 2080 
C 691 2080 704 2093 736 2139 
C 941 2435 1222 2560 1542 2560 
C 1766 2560 2246 2415 2246 1293 
C 2246 1087 2246 716 2054 422 
C 1894 159 1645 25 1370 25 
C 947 25 518 319 403 812 
C 429 806 480 793 506 793 
C 589 793 749 838 749 1036 
C 749 1209 627 1280 506 1280 
C 358 1280 262 1190 262 1011 
C 262 454 704 -128 1382 -128 
C 2042 -128 2669 441 2669 1267 
C 2669 2054 2170 2662 1549 2662 
C 1222 2662 947 2540 730 2304 
L 730 3750 
z
" transform="scale(0.015625)"/>
       </defs>
       <use xlink:href="#CMR17-35" transform="scale(0.996264)"/>
       <use xlink:href="#CMR17-30" transform="translate(45.690477 0) scale(0.996264)"/>
      </g>
     </g>
    </g>
    <g id="xtick_3">
     <g id="line2d_5">
      <g>
       <use xlink:href="#m6cda7b0a89" x="326.25835" y="339.84" style="stroke: #000000; stroke-width: 2"/>
      </g>
     </g>
     <g id="line2d_6">
      <g>
       <use xlink:href="#m4ee0f2b194" x="326.25835" y="7.2" style="stroke: #000000; stroke-width: 2"/>
      </g>
     </g>
     <g id="text_3">
      <!-- $\mathdefault{100}$ -->
      <g transform="translate(309.809778 368.875969) scale(0.24 -0.24)">
       <defs>
        <path id="CMR17-31" d="M 1702 4083 
C 1702 4217 1696 4224 1606 4224 
C 1357 3927 979 3833 621 3820 
C 602 3820 570 3820 563 3808 
C 557 3795 557 3782 557 3648 
C 755 3648 1088 3686 1344 3839 
L 1344 467 
C 1344 243 1331 166 781 166 
L 589 166 
L 589 0 
C 896 6 1216 12 1523 12 
C 1830 12 2150 6 2458 0 
L 2458 166 
L 2266 166 
C 1715 166 1702 236 1702 467 
L 1702 4083 
z
" transform="scale(0.015625)"/>
       </defs>
       <use xlink:href="#CMR17-31" transform="scale(0.996264)"/>
       <use xlink:href="#CMR17-30" transform="translate(45.690477 0) scale(0.996264)"/>
       <use xlink:href="#CMR17-30" transform="translate(91.380954 0) scale(0.996264)"/>
      </g>
     </g>
    </g>
    <g id="text_4">
     <!-- $i$ -->
     <g transform="translate(260.606678 399.263694) scale(0.3 -0.3)">
      <defs>
       <path id="CMMI12-69" d="M 1811 913 
C 1811 945 1786 970 1747 970 
C 1690 970 1683 951 1651 842 
C 1485 261 1222 64 1011 64 
C 934 64 845 83 845 274 
C 845 447 922 638 992 830 
L 1440 2017 
C 1459 2068 1504 2183 1504 2305 
C 1504 2573 1312 2816 998 2816 
C 410 2816 173 1890 173 1838 
C 173 1813 198 1781 243 1781 
C 301 1781 307 1807 333 1896 
C 486 2432 730 2687 979 2687 
C 1037 2687 1146 2681 1146 2477 
C 1146 2311 1062 2100 1011 1960 
L 563 772 
C 525 670 486 568 486 453 
C 486 166 685 -64 992 -64 
C 1581 -64 1811 868 1811 913 
z
M 1760 4012 
C 1760 4108 1683 4224 1542 4224 
C 1395 4224 1229 4083 1229 3916 
C 1229 3756 1363 3705 1440 3705 
C 1613 3705 1760 3871 1760 4012 
z
" transform="scale(0.015625)"/>
      </defs>
      <use xlink:href="#CMMI12-69" transform="scale(0.996264)"/>
     </g>
    </g>
   </g>
   <g id="matplotlib.axis_2">
    <g id="ytick_1">
     <g id="line2d_7">
      <defs>
       <path id="m5f1b850c37" d="M 0 0 
L 10 0 
" style="stroke: #000000; stroke-width: 2"/>
      </defs>
      <g>
       <use xlink:href="#m5f1b850c37" x="98.198464" y="275.941219" style="stroke: #000000; stroke-width: 2"/>
      </g>
     </g>
     <g id="line2d_8">
      <defs>
       <path id="md204a37615" d="M 0 0 
L -10 0 
" style="stroke: #000000; stroke-width: 2"/>
      </defs>
      <g>
       <use xlink:href="#md204a37615" x="432.998464" y="275.941219" style="stroke: #000000; stroke-width: 2"/>
      </g>
     </g>
     <g id="text_5">
      <!-- $\mathdefault{10^{-11}}$ -->
      <g transform="translate(38.86092 284.459203) scale(0.24 -0.24)">
       <defs>
        <path id="CMSY10-0" d="M 4218 1472 
C 4326 1472 4442 1472 4442 1600 
C 4442 1728 4326 1728 4218 1728 
L 755 1728 
C 646 1728 531 1728 531 1600 
C 531 1472 646 1472 755 1472 
L 4218 1472 
z
" transform="scale(0.015625)"/>
       </defs>
       <use xlink:href="#CMR17-31" transform="scale(0.996264)"/>
       <use xlink:href="#CMR17-30" transform="translate(45.690477 0) scale(0.996264)"/>
       <use xlink:href="#CMSY10-0" transform="translate(91.380954 36.153639) scale(0.697382)"/>
       <use xlink:href="#CMR17-31" transform="translate(145.621947 36.153639) scale(0.697382)"/>
       <use xlink:href="#CMR17-31" transform="translate(177.605129 36.153639) scale(0.697382)"/>
      </g>
     </g>
    </g>
    <g id="ytick_2">
     <g id="line2d_9">
      <g>
       <use xlink:href="#m5f1b850c37" x="98.198464" y="206.327988" style="stroke: #000000; stroke-width: 2"/>
      </g>
     </g>
     <g id="line2d_10">
      <g>
       <use xlink:href="#md204a37615" x="432.998464" y="206.327988" style="stroke: #000000; stroke-width: 2"/>
      </g>
     </g>
     <g id="text_6">
      <!-- $\mathdefault{10^{-8}}$ -->
      <g transform="translate(47.055061 214.845972) scale(0.24 -0.24)">
       <defs>
        <path id="CMR17-38" d="M 1741 2289 
C 2144 2494 2554 2803 2554 3298 
C 2554 3884 1990 4224 1472 4224 
C 890 4224 378 3800 378 3215 
C 378 3054 416 2777 666 2533 
C 730 2469 998 2276 1171 2154 
C 883 2006 211 1652 211 945 
C 211 282 838 -128 1459 -128 
C 2144 -128 2720 366 2720 1022 
C 2720 1607 2330 1877 2074 2051 
L 1741 2289 
z
M 902 2855 
C 851 2887 595 3086 595 3388 
C 595 3781 998 4076 1459 4076 
C 1965 4076 2336 3716 2336 3298 
C 2336 2700 1670 2359 1638 2359 
C 1632 2359 1626 2359 1574 2398 
L 902 2855 
z
M 2080 1536 
C 2176 1466 2483 1253 2483 861 
C 2483 385 2010 25 1472 25 
C 890 25 448 443 448 951 
C 448 1459 838 1884 1280 2083 
L 2080 1536 
z
" transform="scale(0.015625)"/>
       </defs>
       <use xlink:href="#CMR17-31" transform="scale(0.996264)"/>
       <use xlink:href="#CMR17-30" transform="translate(45.690477 0) scale(0.996264)"/>
       <use xlink:href="#CMSY10-0" transform="translate(91.380954 36.153639) scale(0.697382)"/>
       <use xlink:href="#CMR17-38" transform="translate(145.621947 36.153639) scale(0.697382)"/>
      </g>
     </g>
    </g>
    <g id="ytick_3">
     <g id="line2d_11">
      <g>
       <use xlink:href="#m5f1b850c37" x="98.198464" y="136.714756" style="stroke: #000000; stroke-width: 2"/>
      </g>
     </g>
     <g id="line2d_12">
      <g>
       <use xlink:href="#md204a37615" x="432.998464" y="136.714756" style="stroke: #000000; stroke-width: 2"/>
      </g>
     </g>
     <g id="text_7">
      <!-- $\mathdefault{10^{-5}}$ -->
      <g transform="translate(47.055061 145.232741) scale(0.24 -0.24)">
       <use xlink:href="#CMR17-31" transform="scale(0.996264)"/>
       <use xlink:href="#CMR17-30" transform="translate(45.690477 0) scale(0.996264)"/>
       <use xlink:href="#CMSY10-0" transform="translate(91.380954 36.153639) scale(0.697382)"/>
       <use xlink:href="#CMR17-35" transform="translate(145.621947 36.153639) scale(0.697382)"/>
      </g>
     </g>
    </g>
    <g id="ytick_4">
     <g id="line2d_13">
      <g>
       <use xlink:href="#m5f1b850c37" x="98.198464" y="67.101525" style="stroke: #000000; stroke-width: 2"/>
      </g>
     </g>
     <g id="line2d_14">
      <g>
       <use xlink:href="#md204a37615" x="432.998464" y="67.101525" style="stroke: #000000; stroke-width: 2"/>
      </g>
     </g>
     <g id="text_8">
      <!-- $\mathdefault{10^{-2}}$ -->
      <g transform="translate(47.055061 75.619509) scale(0.24 -0.24)">
       <defs>
        <path id="CMR17-32" d="M 2669 990 
L 2554 990 
C 2490 537 2438 460 2413 422 
C 2381 371 1920 371 1830 371 
L 602 371 
C 832 620 1280 1073 1824 1596 
C 2214 1966 2669 2400 2669 3033 
C 2669 3788 2067 4224 1395 4224 
C 691 4224 262 3603 262 3027 
C 262 2777 448 2745 525 2745 
C 589 2745 781 2783 781 3007 
C 781 3206 614 3264 525 3264 
C 486 3264 448 3257 422 3244 
C 544 3788 915 4057 1306 4057 
C 1862 4057 2227 3616 2227 3033 
C 2227 2477 1901 1998 1536 1583 
L 262 147 
L 262 0 
L 2515 0 
L 2669 990 
z
" transform="scale(0.015625)"/>
       </defs>
       <use xlink:href="#CMR17-31" transform="scale(0.996264)"/>
       <use xlink:href="#CMR17-30" transform="translate(45.690477 0) scale(0.996264)"/>
       <use xlink:href="#CMSY10-0" transform="translate(91.380954 36.153639) scale(0.697382)"/>
       <use xlink:href="#CMR17-32" transform="translate(145.621947 36.153639) scale(0.697382)"/>
      </g>
     </g>
    </g>
    <g id="text_9">
     <!-- $\sigma_i$ -->
     <g transform="translate(28.494961 185.331055) rotate(-90) scale(0.3 -0.3)">
      <defs>
       <path id="CMMI12-1b" d="M 3251 2406 
C 3334 2406 3546 2406 3546 2611 
C 3546 2752 3424 2752 3309 2752 
L 1894 2752 
C 934 2752 243 1685 243 932 
C 243 389 595 -64 1171 -64 
C 1926 -64 2752 746 2752 1704 
C 2752 1953 2694 2195 2541 2406 
L 3251 2406 
z
M 1178 64 
C 851 64 614 312 614 753 
C 614 1136 845 2406 1786 2406 
C 2061 2406 2368 2272 2368 1780 
C 2368 1557 2266 1021 2042 651 
C 1811 274 1466 64 1178 64 
z
" transform="scale(0.015625)"/>
      </defs>
      <use xlink:href="#CMMI12-1b" transform="scale(0.996264)"/>
      <use xlink:href="#CMMI12-69" transform="translate(55.445461 -14.943915) scale(0.697382)"/>
     </g>
    </g>
   </g>
   <g id="line2d_15">
    <path d="M 113.416646 39.159746 
L 117.67348 39.383797 
L 130.443982 40.234484 
L 145.342901 41.042241 
L 151.728153 41.397668 
L 153.85657 41.483142 
L 155.984987 41.703328 
L 162.370238 41.958209 
L 187.911242 43.250795 
L 194.296493 43.433491 
L 196.42491 43.69419 
L 198.553327 43.753455 
L 200.681744 44.046368 
L 202.810161 44.05832 
L 209.195413 44.448378 
L 224.094332 45.196663 
L 230.479583 45.457651 
L 232.608 45.679383 
L 234.736417 45.706353 
L 236.864834 45.99927 
L 241.121668 46.203842 
L 253.89217 47.099652 
L 258.149004 47.427261 
L 262.405838 47.497973 
L 264.534255 47.794613 
L 277.304758 48.666654 
L 279.433175 48.722344 
L 287.946843 49.577597 
L 290.07526 49.588632 
L 294.332094 49.958831 
L 296.460511 50.055218 
L 298.588928 50.475023 
L 304.974179 51.062692 
L 307.102596 51.391101 
L 315.616264 52.08585 
L 326.25835 53.553877 
L 328.386767 53.645816 
L 330.515184 53.987534 
L 343.285686 55.303293 
L 345.414103 55.738756 
L 347.54252 55.823626 
L 351.799354 56.717957 
L 353.927771 57.155606 
L 356.056188 57.236018 
L 358.184605 57.466792 
L 360.313022 58.102706 
L 366.698273 58.61426 
L 368.82669 58.836775 
L 370.955107 59.674426 
L 373.083524 60.186677 
L 375.211941 60.48311 
L 377.340358 61.125833 
L 381.597193 61.654437 
L 383.72561 62.139844 
L 387.982444 63.4453 
L 390.110861 64.620055 
L 392.239278 64.997929 
L 394.367695 66.626162 
L 396.496112 67.301952 
L 398.624529 68.573906 
L 400.752946 69.599054 
L 402.881363 70.865992 
L 407.138197 72.375312 
L 409.266614 74.613208 
L 411.395031 80.15626 
L 413.523448 82.115249 
L 415.651865 95.839785 
L 417.780282 103.981398 
L 417.780282 103.981398 
" clip-path="url(#pa0493146a3)" style="fill: none; stroke-dasharray: 10,2,2,2,2,2; stroke-dashoffset: 0; stroke: #94a4a2; stroke-width: 2"/>
   </g>
   <g id="line2d_16">
    <path d="M 113.416646 35.557183 
L 117.67348 36.210153 
L 119.801897 36.30425 
L 121.930314 36.544973 
L 126.187148 37.436429 
L 130.443982 38.043614 
L 132.572399 38.126426 
L 136.829233 38.781424 
L 138.95765 38.967405 
L 141.086067 39.022941 
L 143.214484 39.372293 
L 155.984987 40.41383 
L 160.241821 41.108694 
L 162.370238 41.231009 
L 164.498655 41.472235 
L 166.627072 41.52557 
L 173.012323 42.322747 
L 175.14074 42.742668 
L 177.269157 42.851334 
L 179.397574 43.172653 
L 181.525991 43.310119 
L 185.782825 43.912945 
L 187.911242 44.019873 
L 190.039659 44.485201 
L 198.553327 45.432904 
L 200.681744 46.092095 
L 202.810161 46.602541 
L 207.066995 47.068443 
L 211.32383 48.128059 
L 213.452247 48.453978 
L 215.580664 48.485895 
L 217.709081 48.953263 
L 219.837498 49.105594 
L 221.965915 49.798734 
L 226.222749 50.360111 
L 228.351166 50.953081 
L 236.864834 52.583702 
L 238.993251 53.326714 
L 241.121668 53.547031 
L 243.250085 53.63628 
L 245.378502 54.633983 
L 247.506919 54.802361 
L 249.635336 55.55709 
L 251.763753 56.5048 
L 253.89217 56.740271 
L 256.020587 57.276057 
L 258.149004 58.613812 
L 260.277421 59.030824 
L 262.405838 60.05064 
L 264.534255 60.760864 
L 266.662673 60.904068 
L 268.79109 61.491815 
L 270.919507 62.46216 
L 273.047924 63.180022 
L 275.176341 64.107397 
L 277.304758 64.905753 
L 279.433175 65.305633 
L 281.561592 69.36045 
L 283.690009 69.531847 
L 285.818426 69.896646 
L 287.946843 72.31384 
L 290.07526 73.089799 
L 292.203677 74.923267 
L 294.332094 78.212836 
L 296.460511 78.642003 
L 298.588928 82.445642 
L 300.717345 89.150257 
L 302.845762 102.497577 
L 304.974179 107.136939 
L 307.102596 119.521722 
L 309.231013 202.624528 
L 311.35943 215.929516 
L 313.487847 277.27596 
L 315.616264 278.417929 
L 317.744681 279.295236 
L 319.873098 279.966476 
L 322.001516 280.074623 
L 324.129933 280.405105 
L 326.25835 281.163433 
L 328.386767 281.436836 
L 330.515184 281.472325 
L 334.772018 282.615558 
L 336.900435 282.638985 
L 339.028852 283.068299 
L 341.157269 283.25435 
L 343.285686 283.84672 
L 345.414103 284.165019 
L 347.54252 284.635451 
L 349.670937 284.847466 
L 356.056188 285.917763 
L 358.184605 286.315711 
L 360.313022 286.404055 
L 362.441439 287.081274 
L 364.569856 287.183681 
L 368.82669 288.321861 
L 370.955107 288.476897 
L 373.083524 288.958194 
L 375.211941 289.242979 
L 377.340358 289.651688 
L 379.468776 289.902938 
L 385.854027 292.334409 
L 392.239278 295.005325 
L 394.367695 295.882634 
L 396.496112 296.389906 
L 398.624529 297.960515 
L 400.752946 298.62055 
L 405.00978 302.830691 
L 407.138197 304.217343 
L 409.266614 306.823689 
L 411.395031 308.080246 
L 413.523448 313.583728 
L 415.651865 318.617104 
L 417.780282 324.72 
L 417.780282 324.72 
" clip-path="url(#pa0493146a3)" style="fill: none; stroke-dasharray: 10,2; stroke-dashoffset: 0; stroke: #3f90da; stroke-width: 2"/>
   </g>
   <g id="line2d_17">
    <path d="M 113.416646 22.32 
L 115.545063 44.458149 
L 117.67348 45.04121 
L 119.801897 45.287989 
L 121.930314 45.369809 
L 124.058731 45.882708 
L 136.829233 46.592051 
L 138.95765 46.923668 
L 143.214484 47.056321 
L 149.599735 47.516718 
L 153.85657 47.730547 
L 155.984987 47.950742 
L 160.241821 48.022002 
L 162.370238 48.196454 
L 168.755489 48.42357 
L 173.012323 48.836134 
L 175.14074 48.995291 
L 177.269157 49.002686 
L 179.397574 49.156341 
L 181.525991 49.4349 
L 185.782825 49.593563 
L 187.911242 49.801518 
L 190.039659 49.873381 
L 192.168076 50.107722 
L 196.42491 50.211524 
L 198.553327 50.234329 
L 202.810161 50.586097 
L 211.32383 51.132652 
L 213.452247 51.153661 
L 215.580664 51.365472 
L 217.709081 51.401508 
L 219.837498 51.709254 
L 230.479583 52.365117 
L 236.864834 52.59754 
L 243.250085 52.982266 
L 245.378502 53.134667 
L 247.506919 53.456699 
L 249.635336 53.648373 
L 251.763753 53.673948 
L 253.89217 54.03088 
L 258.149004 54.253015 
L 262.405838 54.553156 
L 264.534255 54.709402 
L 266.662673 55.025533 
L 273.047924 55.461864 
L 275.176341 55.496444 
L 277.304758 55.681411 
L 279.433175 55.989331 
L 283.690009 56.340103 
L 285.818426 56.59344 
L 292.203677 56.924906 
L 300.717345 57.77672 
L 302.845762 58.090873 
L 304.974179 58.121833 
L 311.35943 58.679181 
L 315.616264 59.361613 
L 317.744681 59.426394 
L 319.873098 59.676773 
L 322.001516 60.049399 
L 324.129933 60.12593 
L 328.386767 60.952412 
L 336.900435 61.653716 
L 339.028852 62.135951 
L 345.414103 63.146461 
L 347.54252 63.372854 
L 351.799354 64.309832 
L 353.927771 64.644541 
L 356.056188 64.805353 
L 360.313022 65.652238 
L 362.441439 65.790253 
L 364.569856 67.244065 
L 366.698273 67.911852 
L 368.82669 68.113119 
L 370.955107 68.843533 
L 373.083524 69.374032 
L 377.340358 69.924774 
L 381.597193 71.250799 
L 383.72561 71.414401 
L 385.854027 71.842749 
L 387.982444 73.438868 
L 390.110861 73.749928 
L 392.239278 75.783305 
L 394.367695 76.067488 
L 396.496112 77.860214 
L 398.624529 78.728837 
L 400.752946 82.276258 
L 402.881363 83.153025 
L 405.00978 83.680599 
L 407.138197 84.977226 
L 409.266614 93.26986 
L 411.395031 94.600273 
L 413.523448 97.058105 
L 415.651865 100.229508 
L 417.780282 112.119767 
L 417.780282 112.119767 
" clip-path="url(#pa0493146a3)" style="fill: none; stroke-dasharray: 12.8,3.2,2,3.2; stroke-dashoffset: 0; stroke: #bd1f01; stroke-width: 2"/>
   </g>
   <g id="line2d_18">
    <path d="M 113.416646 36.207068 
L 115.545063 36.638095 
L 119.801897 36.95861 
L 130.443982 37.813062 
L 132.572399 38.040653 
L 138.95765 38.3415 
L 141.086067 38.63353 
L 147.471318 38.998745 
L 160.241821 39.907749 
L 175.14074 41.053972 
L 177.269157 41.267374 
L 179.397574 41.363894 
L 181.525991 41.669746 
L 183.654408 41.750809 
L 185.782825 42.270355 
L 187.911242 42.362589 
L 196.42491 43.995323 
L 198.553327 82.481629 
L 200.681744 82.614627 
L 204.938578 83.340885 
L 207.066995 83.460685 
L 209.195413 83.837034 
L 213.452247 84.073463 
L 215.580664 84.391133 
L 228.351166 85.162131 
L 230.479583 85.182309 
L 236.864834 85.721484 
L 238.993251 85.847741 
L 241.121668 86.108054 
L 247.506919 86.547034 
L 249.635336 86.808997 
L 253.89217 87.129656 
L 258.149004 87.484222 
L 262.405838 87.791212 
L 266.662673 88.337229 
L 270.919507 88.547814 
L 275.176341 88.83825 
L 277.304758 88.87373 
L 279.433175 89.232717 
L 281.561592 89.272794 
L 285.818426 89.827599 
L 292.203677 90.382358 
L 294.332094 90.477254 
L 296.460511 90.817478 
L 304.974179 91.401977 
L 309.231013 91.923736 
L 313.487847 92.352565 
L 319.873098 92.858209 
L 322.001516 93.228929 
L 328.386767 93.770335 
L 330.515184 94.324745 
L 341.157269 95.506789 
L 343.285686 96.086879 
L 345.414103 96.527147 
L 349.670937 96.774921 
L 356.056188 97.557899 
L 358.184605 98.418747 
L 360.313022 98.661431 
L 362.441439 99.050766 
L 364.569856 99.734006 
L 366.698273 100.013653 
L 368.82669 100.146265 
L 370.955107 100.985216 
L 373.083524 101.553162 
L 375.211941 101.936443 
L 377.340358 102.816152 
L 379.468776 102.946469 
L 381.597193 103.331448 
L 383.72561 104.175929 
L 385.854027 104.856976 
L 387.982444 105.702202 
L 390.110861 106.140057 
L 392.239278 108.678942 
L 396.496112 109.967042 
L 398.624529 110.550341 
L 400.752946 111.370432 
L 407.138197 115.154899 
L 409.266614 119.148176 
L 413.523448 123.764097 
L 415.651865 128.654492 
L 417.780282 139.258605 
L 417.780282 139.258605 
" clip-path="url(#pa0493146a3)" style="fill: none; stroke: #d3acea; stroke-width: 2; stroke-linecap: square"/>
   </g>
   <g id="line2d_19">
    <path d="M 113.416646 36.43625 
L 115.545063 37.019099 
L 117.67348 37.052386 
L 119.801897 37.215243 
L 121.930314 37.645075 
L 128.315565 37.911921 
L 136.829233 38.545436 
L 147.471318 39.170414 
L 149.599735 39.408413 
L 151.728153 39.487208 
L 158.113404 39.989994 
L 170.883906 40.819406 
L 175.14074 41.294724 
L 177.269157 41.358753 
L 190.039659 42.413709 
L 192.168076 42.528037 
L 196.42491 43.249693 
L 198.553327 43.270808 
L 202.810161 43.912223 
L 204.938578 44.346452 
L 207.066995 141.925986 
L 209.195413 142.090063 
L 211.32383 142.38551 
L 213.452247 142.88391 
L 215.580664 143.190002 
L 217.709081 143.367673 
L 221.965915 143.462413 
L 224.094332 143.804649 
L 228.351166 143.955061 
L 230.479583 144.202774 
L 232.608 144.298273 
L 234.736417 144.639884 
L 241.121668 145.187548 
L 243.250085 145.329645 
L 245.378502 145.703021 
L 256.020587 146.238797 
L 262.405838 146.916639 
L 266.662673 147.234563 
L 273.047924 147.851564 
L 277.304758 147.968439 
L 281.561592 148.351631 
L 283.690009 148.540289 
L 285.818426 148.950105 
L 287.946843 149.086323 
L 290.07526 149.382107 
L 292.203677 149.442044 
L 294.332094 149.805046 
L 296.460511 149.92381 
L 298.588928 150.207306 
L 300.717345 150.370225 
L 302.845762 150.677711 
L 304.974179 150.73519 
L 307.102596 150.937514 
L 309.231013 150.988002 
L 313.487847 151.705364 
L 315.616264 151.741309 
L 317.744681 152.22972 
L 322.001516 152.338717 
L 326.25835 153.104521 
L 328.386767 153.380489 
L 330.515184 153.515669 
L 334.772018 154.038741 
L 339.028852 154.188442 
L 341.157269 154.695626 
L 343.285686 154.757951 
L 345.414103 155.456938 
L 349.670937 155.873976 
L 351.799354 156.22089 
L 353.927771 156.729939 
L 356.056188 157.025911 
L 360.313022 157.176053 
L 362.441439 158.235044 
L 364.569856 158.662581 
L 366.698273 158.866842 
L 368.82669 159.274176 
L 373.083524 159.82987 
L 375.211941 160.378188 
L 377.340358 160.534676 
L 379.468776 161.368852 
L 381.597193 161.900062 
L 383.72561 162.55523 
L 387.982444 164.325576 
L 390.110861 164.861726 
L 392.239278 166.221314 
L 394.367695 166.617205 
L 396.496112 168.419677 
L 398.624529 169.195588 
L 402.881363 171.445116 
L 405.00978 173.678645 
L 407.138197 174.731629 
L 409.266614 176.98432 
L 411.395031 179.846786 
L 413.523448 183.368415 
L 415.651865 187.991508 
L 417.780282 209.34735 
L 417.780282 209.34735 
" clip-path="url(#pa0493146a3)" style="fill: none; stroke: #a759d6; stroke-width: 2; stroke-linecap: square"/>
   </g>
   <g id="line2d_20">
    <path d="M 113.416646 37.045656 
L 115.545063 37.262266 
L 119.801897 37.435327 
L 121.930314 37.759087 
L 136.829233 38.659641 
L 141.086067 39.106815 
L 149.599735 39.606004 
L 153.85657 39.914703 
L 158.113404 40.04816 
L 160.241821 40.161546 
L 164.498655 40.615343 
L 179.397574 41.545854 
L 183.654408 41.805351 
L 185.782825 42.082077 
L 190.039659 42.22614 
L 196.42491 43.258083 
L 198.553327 43.352348 
L 200.681744 43.718585 
L 204.938578 44.039752 
L 209.195413 44.970864 
L 211.32383 45.075042 
L 213.452247 45.616664 
L 215.580664 173.546234 
L 217.709081 174.415811 
L 219.837498 174.45084 
L 221.965915 174.786554 
L 228.351166 175.208852 
L 230.479583 175.601822 
L 234.736417 175.772736 
L 236.864834 175.893217 
L 243.250085 176.575241 
L 260.277421 178.255804 
L 266.662673 178.508764 
L 268.79109 178.641665 
L 279.433175 179.897537 
L 283.690009 180.14567 
L 287.946843 180.382189 
L 290.07526 180.602562 
L 292.203677 180.950587 
L 298.588928 181.218704 
L 302.845762 181.689094 
L 304.974179 182.141638 
L 307.102596 182.33603 
L 309.231013 182.680266 
L 315.616264 183.044842 
L 319.873098 183.58163 
L 322.001516 183.606624 
L 324.129933 183.970256 
L 328.386767 184.238642 
L 330.515184 184.705901 
L 332.643601 184.765017 
L 334.772018 185.313607 
L 336.900435 185.393766 
L 339.028852 185.734199 
L 341.157269 185.878157 
L 343.285686 186.264776 
L 345.414103 186.319573 
L 347.54252 186.541627 
L 349.670937 187.131652 
L 353.927771 187.41271 
L 356.056188 188.22089 
L 358.184605 188.749491 
L 362.441439 189.086963 
L 366.698273 190.311479 
L 368.82669 190.578485 
L 370.955107 191.11724 
L 375.211941 191.614285 
L 377.340358 192.305634 
L 379.468776 192.546696 
L 381.597193 193.268771 
L 383.72561 194.274442 
L 385.854027 195.004128 
L 387.982444 196.048129 
L 390.110861 196.913817 
L 394.367695 198.325098 
L 396.496112 199.731709 
L 400.752946 201.452159 
L 402.881363 203.054414 
L 405.00978 203.516911 
L 407.138197 207.598882 
L 409.266614 210.502888 
L 411.395031 212.822173 
L 413.523448 214.908738 
L 415.651865 219.247314 
L 417.780282 226.959252 
L 417.780282 226.959252 
" clip-path="url(#pa0493146a3)" style="fill: none; stroke: #7328a0; stroke-width: 2; stroke-linecap: square"/>
   </g>
   <g id="patch_3">
    <path d="M 98.198464 339.84 
L 98.198464 7.2 
" style="fill: none; stroke: #000000; stroke-width: 2; stroke-linejoin: miter; stroke-linecap: square"/>
   </g>
   <g id="patch_4">
    <path d="M 432.998464 339.84 
L 432.998464 7.2 
" style="fill: none; stroke: #000000; stroke-width: 2; stroke-linejoin: miter; stroke-linecap: square"/>
   </g>
   <g id="patch_5">
    <path d="M 98.198464 339.84 
L 432.998464 339.84 
" style="fill: none; stroke: #000000; stroke-width: 2; stroke-linejoin: miter; stroke-linecap: square"/>
   </g>
   <g id="patch_6">
    <path d="M 98.198464 7.2 
L 432.998464 7.2 
" style="fill: none; stroke: #000000; stroke-width: 2; stroke-linejoin: miter; stroke-linecap: square"/>
   </g>
   <g id="legend_1">
    <g id="line2d_21">
     <path d="M 471.338464 37.435969 
L 495.338464 37.435969 
L 519.338464 37.435969 
" style="fill: none; stroke-dasharray: 10,2,2,2,2,2; stroke-dashoffset: 0; stroke: #94a4a2; stroke-width: 2"/>
    </g>
    <g id="text_10">
     <!-- Initial -->
     <g transform="translate(538.538464 45.835969) scale(0.24 -0.24)">
      <defs>
       <path id="NimbusSanL-Regu-49" d="M 1242 4672 
L 640 4672 
L 640 0 
L 1242 0 
L 1242 4672 
z
" transform="scale(0.015625)"/>
       <path id="NimbusSanL-Regu-6e" d="M 448 3328 
L 448 0 
L 986 0 
L 986 1835 
C 986 2539 1344 2988 1894 2988 
C 2317 2988 2586 2732 2586 2328 
L 2586 0 
L 3117 0 
L 3117 2539 
C 3117 3097 2701 3456 2054 3456 
C 1555 3456 1235 3263 941 2796 
L 941 3328 
L 448 3328 
z
" transform="scale(0.015625)"/>
       <path id="NimbusSanL-Regu-69" d="M 960 3358 
L 429 3358 
L 429 0 
L 960 0 
L 960 3358 
z
M 960 4672 
L 422 4672 
L 422 3999 
L 960 3999 
L 960 4672 
z
" transform="scale(0.015625)"/>
       <path id="NimbusSanL-Regu-74" d="M 1626 3328 
L 1075 3328 
L 1075 4249 
L 544 4249 
L 544 3328 
L 90 3328 
L 90 2892 
L 544 2892 
L 544 402 
C 544 64 774 -128 1190 -128 
C 1318 -128 1446 -116 1626 -84 
L 1626 364 
C 1555 345 1472 339 1370 339 
C 1139 339 1075 402 1075 634 
L 1075 2892 
L 1626 2892 
L 1626 3328 
z
" transform="scale(0.015625)"/>
       <path id="NimbusSanL-Regu-61" d="M 3424 332 
C 3366 320 3341 320 3309 320 
C 3123 320 3021 415 3021 581 
L 3021 2542 
C 3021 3135 2586 3456 1760 3456 
C 1274 3456 870 3315 646 3065 
C 493 2893 429 2702 416 2370 
L 954 2370 
C 998 2778 1242 2963 1741 2963 
C 2221 2963 2490 2784 2490 2466 
L 2490 2326 
C 2490 2103 2355 2007 1933 1956 
C 1178 1861 1062 1835 858 1753 
C 467 1593 269 1294 269 861 
C 269 256 691 -128 1370 -128 
C 1792 -128 2131 19 2509 364 
C 2547 25 2714 -128 3059 -128 
C 3168 -128 3251 -116 3424 -71 
L 3424 332 
z
M 2490 1071 
C 2490 893 2438 785 2278 638 
C 2061 441 1798 339 1485 339 
C 1069 339 826 536 826 874 
C 826 1224 1062 1402 1632 1485 
C 2195 1562 2310 1587 2490 1670 
L 2490 1071 
z
" transform="scale(0.015625)"/>
       <path id="NimbusSanL-Regu-6c" d="M 973 4672 
L 435 4672 
L 435 0 
L 973 0 
L 973 4672 
z
" transform="scale(0.015625)"/>
      </defs>
      <use xlink:href="#NimbusSanL-Regu-49" transform="scale(0.996264)"/>
      <use xlink:href="#NimbusSanL-Regu-6e" transform="translate(27.69517 0) scale(0.996264)"/>
      <use xlink:href="#NimbusSanL-Regu-69" transform="translate(83.086847 0) scale(0.996264)"/>
      <use xlink:href="#NimbusSanL-Regu-74" transform="translate(105.203631 0) scale(0.996264)"/>
      <use xlink:href="#NimbusSanL-Regu-69" transform="translate(132.898801 0) scale(0.996264)"/>
      <use xlink:href="#NimbusSanL-Regu-61" transform="translate(155.015585 0) scale(0.996264)"/>
      <use xlink:href="#NimbusSanL-Regu-6c" transform="translate(210.407262 0) scale(0.996264)"/>
     </g>
    </g>
    <g id="line2d_22">
     <path d="M 471.338464 72.00718 
L 495.338464 72.00718 
L 519.338464 72.00718 
" style="fill: none; stroke-dasharray: 10,2; stroke-dashoffset: 0; stroke: #3f90da; stroke-width: 2"/>
    </g>
    <g id="text_11">
     <!-- Renyi-1/2 -->
     <g transform="translate(538.538464 80.40718) scale(0.24 -0.24)">
      <defs>
       <path id="NimbusSanL-Regu-52" d="M 1190 2035 
L 2726 2035 
C 3258 2035 3494 1775 3494 1191 
L 3488 770 
C 3488 478 3539 192 3622 0 
L 4346 0 
L 4346 147 
C 4122 303 4077 471 4064 1101 
C 4058 1879 3936 2111 3430 2329 
C 3955 2585 4166 2907 4166 3432 
C 4166 4230 3661 4672 2746 4672 
L 595 4672 
L 595 0 
L 1190 0 
L 1190 2035 
z
M 1190 2560 
L 1190 4147 
L 2630 4147 
C 2963 4147 3155 4096 3302 3970 
C 3462 3837 3546 3628 3546 3350 
C 3546 2806 3264 2560 2630 2560 
L 1190 2560 
z
" transform="scale(0.015625)"/>
       <path id="NimbusSanL-Regu-65" d="M 3283 1484 
C 3283 1998 3245 2311 3149 2565 
C 2931 3123 2419 3456 1792 3456 
C 858 3456 256 2734 256 1619 
C 256 545 838 -128 1779 -128 
C 2547 -128 3078 307 3213 1018 
L 2675 1018 
C 2528 588 2227 364 1798 364 
C 1459 364 1171 514 992 787 
C 864 974 819 1161 813 1484 
L 3283 1484 
z
M 826 1920 
C 870 2552 1248 2963 1786 2963 
C 2310 2963 2714 2519 2714 1959 
C 2714 1946 2714 1933 2707 1920 
L 826 1920 
z
" transform="scale(0.015625)"/>
       <path id="NimbusSanL-Regu-79" d="M 2483 3328 
L 1555 724 
L 698 3328 
L 128 3328 
L 1261 -29 
L 1056 -558 
C 973 -794 851 -884 627 -884 
C 550 -884 461 -871 346 -845 
L 346 -1325 
C 454 -1383 563 -1408 704 -1408 
C 877 -1408 1062 -1351 1203 -1248 
C 1370 -1127 1466 -986 1568 -718 
L 3059 3328 
L 2483 3328 
z
" transform="scale(0.015625)"/>
       <path id="NimbusSanL-Regu-2d" d="M 1818 1996 
L 294 1996 
L 294 1536 
L 1818 1536 
L 1818 1996 
z
" transform="scale(0.015625)"/>
       <path id="NimbusSanL-Regu-31" d="M 1658 3232 
L 1658 0 
L 2221 0 
L 2221 4537 
L 1850 4537 
C 1651 3840 1523 3744 653 3635 
L 653 3232 
L 1658 3232 
z
" transform="scale(0.015625)"/>
       <path id="NimbusSanL-Regu-2f" d="M 1466 4672 
L -51 -128 
L 301 -128 
L 1818 4672 
L 1466 4672 
z
" transform="scale(0.015625)"/>
       <path id="NimbusSanL-Regu-32" d="M 3238 556 
L 851 556 
C 909 928 1114 1165 1670 1493 
L 2310 1839 
C 2944 2185 3270 2653 3270 3211 
C 3270 3589 3117 3942 2848 4185 
C 2579 4428 2246 4544 1818 4544 
C 1242 4544 813 4339 563 3955 
C 403 3711 333 3429 320 2967 
L 883 2967 
C 902 3275 941 3461 1018 3608 
C 1165 3884 1459 4051 1798 4051 
C 2310 4051 2694 3685 2694 3198 
C 2694 2839 2483 2531 2080 2300 
L 1491 1967 
C 544 1428 269 999 218 0 
L 3238 0 
L 3238 556 
z
" transform="scale(0.015625)"/>
      </defs>
      <use xlink:href="#NimbusSanL-Regu-52" transform="scale(0.996264)"/>
      <use xlink:href="#NimbusSanL-Regu-65" transform="translate(71.929985 0) scale(0.996264)"/>
      <use xlink:href="#NimbusSanL-Regu-6e" transform="translate(127.321662 0) scale(0.996264)"/>
      <use xlink:href="#NimbusSanL-Regu-79" transform="translate(181.219946 0) scale(0.996264)"/>
      <use xlink:href="#NimbusSanL-Regu-69" transform="translate(231.033147 0) scale(0.996264)"/>
      <use xlink:href="#NimbusSanL-Regu-2d" transform="translate(253.149931 0) scale(0.996264)"/>
      <use xlink:href="#NimbusSanL-Regu-31" transform="translate(286.325161 0) scale(0.996264)"/>
      <use xlink:href="#NimbusSanL-Regu-2f" transform="translate(341.716838 0) scale(0.996264)"/>
      <use xlink:href="#NimbusSanL-Regu-32" transform="translate(369.412007 0) scale(0.996264)"/>
     </g>
    </g>
    <g id="line2d_23">
     <path d="M 471.338464 106.135913 
L 495.338464 106.135913 
L 519.338464 106.135913 
" style="fill: none; stroke-dasharray: 12.8,3.2,2,3.2; stroke-dashoffset: 0; stroke: #bd1f01; stroke-width: 2"/>
    </g>
    <g id="text_12">
     <!-- Von Neumann -->
     <g transform="translate(538.538464 114.535913) scale(0.24 -0.24)">
      <defs>
       <path id="NimbusSanL-Regu-56" d="M 2509 0 
L 4128 4672 
L 3494 4672 
L 2202 717 
L 832 4672 
L 192 4672 
L 1869 0 
L 2509 0 
z
" transform="scale(0.015625)"/>
       <path id="NimbusSanL-Regu-6f" d="M 1741 3456 
C 800 3456 230 2784 230 1663 
C 230 543 794 -128 1747 -128 
C 2688 -128 3264 543 3264 1638 
C 3264 2791 2707 3456 1741 3456 
z
M 1747 2963 
C 2349 2963 2707 2472 2707 1644 
C 2707 861 2336 364 1747 364 
C 1152 364 787 855 787 1663 
C 787 2466 1152 2963 1747 2963 
z
" transform="scale(0.015625)"/>
       <path id="NimbusSanL-Regu-4e" d="M 4134 4672 
L 3571 4672 
L 3571 852 
L 1133 4672 
L 486 4672 
L 486 0 
L 1050 0 
L 1050 3787 
L 3462 0 
L 4134 0 
L 4134 4672 
z
" transform="scale(0.015625)"/>
       <path id="NimbusSanL-Regu-75" d="M 3085 19 
L 3085 3328 
L 2554 3328 
L 2554 1454 
C 2554 780 2195 339 1638 339 
C 1216 339 947 591 947 988 
L 947 3328 
L 416 3328 
L 416 780 
C 416 230 832 -128 1485 -128 
C 1978 -128 2291 44 2605 484 
L 2605 19 
L 3085 19 
z
" transform="scale(0.015625)"/>
       <path id="NimbusSanL-Regu-6d" d="M 448 3328 
L 448 0 
L 986 0 
L 986 2089 
C 986 2597 1338 2988 1773 2988 
C 2170 2988 2394 2744 2394 2315 
L 2394 0 
L 2931 0 
L 2931 2109 
C 2931 2597 3283 2988 3718 2988 
C 4109 2988 4339 2738 4339 2315 
L 4339 0 
L 4877 0 
L 4877 2520 
C 4877 3123 4531 3456 3904 3456 
C 3456 3456 3187 3321 2874 2943 
C 2675 3302 2406 3456 1971 3456 
C 1523 3456 1229 3289 941 2886 
L 941 3328 
L 448 3328 
z
" transform="scale(0.015625)"/>
      </defs>
      <use xlink:href="#NimbusSanL-Regu-56" transform="scale(0.996264)"/>
      <use xlink:href="#NimbusSanL-Regu-6f" transform="translate(58.480588 0) scale(0.996264)"/>
      <use xlink:href="#NimbusSanL-Regu-6e" transform="translate(113.872265 0) scale(0.996264)"/>
      <use xlink:href="#NimbusSanL-Regu-4e" transform="translate(196.959111 0) scale(0.996264)"/>
      <use xlink:href="#NimbusSanL-Regu-65" transform="translate(268.889096 0) scale(0.996264)"/>
      <use xlink:href="#NimbusSanL-Regu-75" transform="translate(324.280773 0) scale(0.996264)"/>
      <use xlink:href="#NimbusSanL-Regu-6d" transform="translate(379.67245 0) scale(0.996264)"/>
      <use xlink:href="#NimbusSanL-Regu-61" transform="translate(462.66088 0) scale(0.996264)"/>
      <use xlink:href="#NimbusSanL-Regu-6e" transform="translate(518.052557 0) scale(0.996264)"/>
      <use xlink:href="#NimbusSanL-Regu-6e" transform="translate(573.444234 0) scale(0.996264)"/>
     </g>
    </g>
    <g id="line2d_24">
     <path d="M 471.338464 140.264646 
L 495.338464 140.264646 
L 519.338464 140.264646 
" style="fill: none; stroke: #d3acea; stroke-width: 2; stroke-linecap: square"/>
    </g>
    <g id="text_13">
     <!-- Target Rank $k = 40$ -->
     <g transform="translate(538.538464 148.664646) scale(0.24 -0.24)">
      <defs>
       <path id="NimbusSanL-Regu-54" d="M 2266 4147 
L 3795 4147 
L 3795 4672 
L 134 4672 
L 134 4147 
L 1670 4147 
L 1670 0 
L 2266 0 
L 2266 4147 
z
" transform="scale(0.015625)"/>
       <path id="NimbusSanL-Regu-72" d="M 442 3328 
L 442 0 
L 979 0 
L 979 1727 
C 979 2203 1101 2514 1357 2698 
C 1523 2819 1683 2857 2054 2863 
L 2054 3404 
C 1965 3449 1920 3456 1850 3456 
C 1504 3456 1242 3251 934 2750 
L 934 3328 
L 442 3328 
z
" transform="scale(0.015625)"/>
       <path id="NimbusSanL-Regu-67" d="M 2637 3359 
L 2637 2873 
C 2368 3270 2042 3456 1613 3456 
C 762 3456 186 2714 186 1632 
C 186 1084 333 638 608 320 
C 858 38 1216 -128 1568 -128 
C 1990 -128 2285 51 2586 473 
L 2586 300 
C 2586 -155 2528 -441 2394 -634 
C 2253 -841 1978 -960 1651 -960 
C 1408 -960 1190 -894 1043 -774 
C 922 -674 870 -581 838 -375 
L 294 -375 
C 352 -1031 845 -1408 1632 -1408 
C 2131 -1408 2560 -1248 2778 -980 
C 3034 -661 3130 -222 3130 568 
L 3130 3359 
L 2637 3359 
z
M 1670 2963 
C 2246 2963 2586 2479 2586 1644 
C 2586 848 2240 364 1677 364 
C 1094 364 742 855 742 1663 
C 742 2466 1101 2963 1670 2963 
z
" transform="scale(0.015625)"/>
       <path id="NimbusSanL-Regu-6b" d="M 902 4672 
L 371 4672 
L 371 0 
L 902 0 
L 902 1307 
L 1421 1820 
L 2554 0 
L 3213 0 
L 1843 2198 
L 3008 3358 
L 2323 3358 
L 902 1935 
L 902 4672 
z
" transform="scale(0.015625)"/>
       <path id="CMMI12-6b" d="M 1798 4255 
C 1805 4281 1818 4319 1818 4351 
C 1818 4416 1754 4416 1741 4416 
C 1734 4416 1504 4396 1389 4383 
C 1280 4377 1184 4364 1069 4358 
C 915 4345 870 4339 870 4223 
C 870 4159 934 4159 998 4159 
C 1325 4159 1325 4103 1325 4040 
C 1325 4014 1325 4002 1293 3888 
L 378 250 
C 352 153 352 141 352 102 
C 352 -39 461 -64 525 -64 
C 704 -64 742 76 794 275 
L 1094 1476 
C 1555 1425 1830 1232 1830 924 
C 1830 885 1830 860 1811 763 
C 1786 667 1786 590 1786 558 
C 1786 185 2029 -64 2355 -64 
C 2650 -64 2803 205 2854 295 
C 2989 532 3072 892 3072 917 
C 3072 949 3046 975 3008 975 
C 2950 975 2944 949 2918 847 
C 2829 513 2694 64 2368 64 
C 2240 64 2157 128 2157 372 
C 2157 494 2182 635 2208 731 
C 2234 847 2234 853 2234 930 
C 2234 1309 1894 1521 1306 1598 
C 1536 1739 1766 1989 1856 2086 
C 2221 2495 2470 2687 2765 2687 
C 2912 2687 2950 2655 2995 2624 
C 2758 2598 2669 2431 2669 2303 
C 2669 2150 2790 2099 2880 2099 
C 3053 2099 3206 2246 3206 2451 
C 3206 2634 3059 2816 2771 2816 
C 2419 2816 2131 2579 1677 2067 
C 1613 1989 1376 1746 1139 1656 
L 1798 4255 
z
" transform="scale(0.015625)"/>
       <path id="CMR17-3d" d="M 4115 2048 
C 4211 2048 4307 2048 4307 2156 
C 4307 2272 4198 2272 4090 2272 
L 512 2272 
C 403 2272 294 2272 294 2156 
C 294 2048 390 2048 486 2048 
L 4115 2048 
z
M 4090 927 
C 4198 927 4307 927 4307 1043 
C 4307 1152 4211 1152 4115 1152 
L 486 1152 
C 390 1152 294 1152 294 1043 
C 294 927 403 927 512 927 
L 4090 927 
z
" transform="scale(0.015625)"/>
       <path id="CMR17-34" d="M 2150 4147 
C 2150 4281 2144 4288 2029 4288 
L 128 1254 
L 128 1088 
L 1779 1088 
L 1779 460 
C 1779 230 1766 166 1318 166 
L 1197 166 
L 1197 0 
C 1402 12 1747 12 1965 12 
C 2182 12 2528 12 2733 0 
L 2733 166 
L 2611 166 
C 2163 166 2150 230 2150 460 
L 2150 1088 
L 2803 1088 
L 2803 1254 
L 2150 1254 
L 2150 4147 
z
M 1798 3723 
L 1798 1254 
L 256 1254 
L 1798 3723 
z
" transform="scale(0.015625)"/>
      </defs>
      <use xlink:href="#NimbusSanL-Regu-54" transform="scale(0.996264)"/>
      <use xlink:href="#NimbusSanL-Regu-61" transform="translate(48.916949 0) scale(0.996264)"/>
      <use xlink:href="#NimbusSanL-Regu-72" transform="translate(104.308626 0) scale(0.996264)"/>
      <use xlink:href="#NimbusSanL-Regu-67" transform="translate(137.483856 0) scale(0.996264)"/>
      <use xlink:href="#NimbusSanL-Regu-65" transform="translate(192.875533 0) scale(0.996264)"/>
      <use xlink:href="#NimbusSanL-Regu-74" transform="translate(248.26721 0) scale(0.996264)"/>
      <use xlink:href="#NimbusSanL-Regu-52" transform="translate(303.657549 0) scale(0.996264)"/>
      <use xlink:href="#NimbusSanL-Regu-61" transform="translate(375.587534 0) scale(0.996264)"/>
      <use xlink:href="#NimbusSanL-Regu-6e" transform="translate(430.979211 0) scale(0.996264)"/>
      <use xlink:href="#NimbusSanL-Regu-6b" transform="translate(486.370888 0) scale(0.996264)"/>
      <use xlink:href="#CMMI12-6b" transform="translate(563.879258 0) scale(0.996264)"/>
      <use xlink:href="#CMR17-3d" transform="translate(645.632467 0) scale(0.996264)"/>
      <use xlink:href="#CMR17-34" transform="translate(745.021264 0) scale(0.996264)"/>
      <use xlink:href="#CMR17-30" transform="translate(790.711741 0) scale(0.996264)"/>
     </g>
    </g>
    <g id="line2d_25">
     <path d="M 471.338464 174.393379 
L 495.338464 174.393379 
L 519.338464 174.393379 
" style="fill: none; stroke: #a759d6; stroke-width: 2; stroke-linecap: square"/>
    </g>
    <g id="text_14">
     <!-- Target Rank $k = 44$ -->
     <g transform="translate(538.538464 182.793379) scale(0.24 -0.24)">
      <use xlink:href="#NimbusSanL-Regu-54" transform="scale(0.996264)"/>
      <use xlink:href="#NimbusSanL-Regu-61" transform="translate(48.916949 0) scale(0.996264)"/>
      <use xlink:href="#NimbusSanL-Regu-72" transform="translate(104.308626 0) scale(0.996264)"/>
      <use xlink:href="#NimbusSanL-Regu-67" transform="translate(137.483856 0) scale(0.996264)"/>
      <use xlink:href="#NimbusSanL-Regu-65" transform="translate(192.875533 0) scale(0.996264)"/>
      <use xlink:href="#NimbusSanL-Regu-74" transform="translate(248.26721 0) scale(0.996264)"/>
      <use xlink:href="#NimbusSanL-Regu-52" transform="translate(303.657549 0) scale(0.996264)"/>
      <use xlink:href="#NimbusSanL-Regu-61" transform="translate(375.587534 0) scale(0.996264)"/>
      <use xlink:href="#NimbusSanL-Regu-6e" transform="translate(430.979211 0) scale(0.996264)"/>
      <use xlink:href="#NimbusSanL-Regu-6b" transform="translate(486.370888 0) scale(0.996264)"/>
      <use xlink:href="#CMMI12-6b" transform="translate(563.879258 0) scale(0.996264)"/>
      <use xlink:href="#CMR17-3d" transform="translate(645.632467 0) scale(0.996264)"/>
      <use xlink:href="#CMR17-34" transform="translate(745.021264 0) scale(0.996264)"/>
      <use xlink:href="#CMR17-34" transform="translate(790.711741 0) scale(0.996264)"/>
     </g>
    </g>
    <g id="line2d_26">
     <path d="M 471.338464 208.522112 
L 495.338464 208.522112 
L 519.338464 208.522112 
" style="fill: none; stroke: #7328a0; stroke-width: 2; stroke-linecap: square"/>
    </g>
    <g id="text_15">
     <!-- Target Rank $k = 48$ -->
     <g transform="translate(538.538464 216.922112) scale(0.24 -0.24)">
      <use xlink:href="#NimbusSanL-Regu-54" transform="scale(0.996264)"/>
      <use xlink:href="#NimbusSanL-Regu-61" transform="translate(48.916949 0) scale(0.996264)"/>
      <use xlink:href="#NimbusSanL-Regu-72" transform="translate(104.308626 0) scale(0.996264)"/>
      <use xlink:href="#NimbusSanL-Regu-67" transform="translate(137.483856 0) scale(0.996264)"/>
      <use xlink:href="#NimbusSanL-Regu-65" transform="translate(192.875533 0) scale(0.996264)"/>
      <use xlink:href="#NimbusSanL-Regu-74" transform="translate(248.26721 0) scale(0.996264)"/>
      <use xlink:href="#NimbusSanL-Regu-52" transform="translate(303.657549 0) scale(0.996264)"/>
      <use xlink:href="#NimbusSanL-Regu-61" transform="translate(375.587534 0) scale(0.996264)"/>
      <use xlink:href="#NimbusSanL-Regu-6e" transform="translate(430.979211 0) scale(0.996264)"/>
      <use xlink:href="#NimbusSanL-Regu-6b" transform="translate(486.370888 0) scale(0.996264)"/>
      <use xlink:href="#CMMI12-6b" transform="translate(563.879258 0) scale(0.996264)"/>
      <use xlink:href="#CMR17-3d" transform="translate(645.632467 0) scale(0.996264)"/>
      <use xlink:href="#CMR17-34" transform="translate(745.021264 0) scale(0.996264)"/>
      <use xlink:href="#CMR17-38" transform="translate(790.711741 0) scale(0.996264)"/>
     </g>
    </g>
   </g>
  </g>
 </g>
 <defs>
  <clipPath id="pa0493146a3">
   <rect x="98.198464" y="7.2" width="334.8" height="332.64"/>
  </clipPath>
 </defs>
</svg>
