<?xml version="1.0" encoding="utf-8" standalone="no"?>
<!DOCTYPE svg PUBLIC "-//W3C//DTD SVG 1.1//EN"
  "http://www.w3.org/Graphics/SVG/1.1/DTD/svg11.dtd">
<svg xmlns:xlink="http://www.w3.org/1999/xlink" width="716.451849pt" height="421.900739pt" viewBox="0 0 716.451849 421.900739" xmlns="http://www.w3.org/2000/svg" version="1.1">
 <metadata>
  <rdf:RDF xmlns:dc="http://purl.org/dc/elements/1.1/" xmlns:cc="http://creativecommons.org/ns#" xmlns:rdf="http://www.w3.org/1999/02/22-rdf-syntax-ns#">
   <cc:Work>
    <dc:type rdf:resource="http://purl.org/dc/dcmitype/StillImage"/>
    <dc:date>2026-03-19T22:09:07.527796</dc:date>
    <dc:format>image/svg+xml</dc:format>
    <dc:creator>
     <cc:Agent>
      <dc:title>Matplotlib v3.10.0, https://matplotlib.org/</dc:title>
     </cc:Agent>
    </dc:creator>
   </cc:Work>
  </rdf:RDF>
 </metadata>
 <defs>
  <style type="text/css">*{stroke-linejoin: round; stroke-linecap: butt}</style>
 </defs>
 <g id="figure_1">
  <g id="patch_1">
   <path d="M 0 421.900739 
L 716.451849 421.900739 
L 716.451849 0 
L 0 0 
L 0 421.900739 
z
" style="fill: none"/>
  </g>
  <g id="axes_1">
   <g id="patch_2">
    <path d="M 90.004323 348.357984 
L 424.804323 348.357984 
L 424.804323 15.717984 
L 90.004323 15.717984 
L 90.004323 348.357984 
z
" style="fill: none"/>
   </g>
   <g id="matplotlib.axis_1">
    <g id="xtick_1">
     <g id="line2d_1">
      <defs>
       <path id="m38ace58c44" d="M 0 0 
L 0 -10 
" style="stroke: #000000; stroke-width: 2"/>
      </defs>
      <g>
       <use xlink:href="#m38ace58c44" x="105.222505" y="348.357984" style="stroke: #000000; stroke-width: 2"/>
      </g>
     </g>
     <g id="line2d_2">
      <defs>
       <path id="m2de0200ef4" d="M 0 0 
L 0 10 
" style="stroke: #000000; stroke-width: 2"/>
      </defs>
      <g>
       <use xlink:href="#m2de0200ef4" x="105.222505" y="15.717984" style="stroke: #000000; stroke-width: 2"/>
      </g>
     </g>
     <g id="text_1">
      <!-- $\mathdefault{0}$ -->
      <g transform="translate(99.739648 377.393953) scale(0.24 -0.24)">
       <defs>
        <path id="CMR17-30" d="M 2688 2038 
C 2688 2430 2682 3099 2413 3613 
C 2176 4063 1798 4224 1466 4224 
C 1158 4224 768 4082 525 3620 
C 269 3137 243 2539 243 2038 
C 243 1671 250 1112 448 623 
C 723 -39 1216 -128 1466 -128 
C 1760 -128 2208 -7 2470 604 
C 2662 1048 2688 1568 2688 2038 
z
M 1466 -26 
C 1056 -26 813 328 723 816 
C 653 1196 653 1749 653 2109 
C 653 2604 653 3015 736 3407 
C 858 3954 1216 4121 1466 4121 
C 1728 4121 2067 3947 2189 3420 
C 2272 3054 2278 2623 2278 2109 
C 2278 1691 2278 1176 2202 797 
C 2067 96 1690 -26 1466 -26 
z
" transform="scale(0.015625)"/>
       </defs>
       <use xlink:href="#CMR17-30" transform="scale(0.996264)"/>
      </g>
     </g>
    </g>
    <g id="xtick_2">
     <g id="line2d_3">
      <g>
       <use xlink:href="#m38ace58c44" x="202.774953" y="348.357984" style="stroke: #000000; stroke-width: 2"/>
      </g>
     </g>
     <g id="line2d_4">
      <g>
       <use xlink:href="#m2de0200ef4" x="202.774953" y="15.717984" style="stroke: #000000; stroke-width: 2"/>
      </g>
     </g>
     <g id="text_2">
      <!-- $\mathdefault{50}$ -->
      <g transform="translate(191.809238 377.393953) scale(0.24 -0.24)">
       <defs>
        <path id="CMR17-35" d="M 730 3750 
C 794 3724 1056 3641 1325 3641 
C 1920 3641 2246 3961 2432 4140 
C 2432 4191 2432 4224 2394 4224 
C 2387 4224 2374 4224 2323 4198 
C 2099 4102 1837 4032 1517 4032 
C 1325 4032 1037 4055 723 4191 
C 653 4224 640 4224 634 4224 
C 602 4224 595 4217 595 4090 
L 595 2231 
C 595 2113 595 2080 659 2080 
C 691 2080 704 2093 736 2139 
C 941 2435 1222 2560 1542 2560 
C 1766 2560 2246 2415 2246 1293 
C 2246 1087 2246 716 2054 422 
C 1894 159 1645 25 1370 25 
C 947 25 518 319 403 812 
C 429 806 480 793 506 793 
C 589 793 749 838 749 1036 
C 749 1209 627 1280 506 1280 
C 358 1280 262 1190 262 1011 
C 262 454 704 -128 1382 -128 
C 2042 -128 2669 441 2669 1267 
C 2669 2054 2170 2662 1549 2662 
C 1222 2662 947 2540 730 2304 
L 730 3750 
z
" transform="scale(0.015625)"/>
       </defs>
       <use xlink:href="#CMR17-35" transform="scale(0.996264)"/>
       <use xlink:href="#CMR17-30" transform="translate(45.690477 0) scale(0.996264)"/>
      </g>
     </g>
    </g>
    <g id="xtick_3">
     <g id="line2d_5">
      <g>
       <use xlink:href="#m38ace58c44" x="300.3274" y="348.357984" style="stroke: #000000; stroke-width: 2"/>
      </g>
     </g>
     <g id="line2d_6">
      <g>
       <use xlink:href="#m2de0200ef4" x="300.3274" y="15.717984" style="stroke: #000000; stroke-width: 2"/>
      </g>
     </g>
     <g id="text_3">
      <!-- $\mathdefault{100}$ -->
      <g transform="translate(283.878828 377.393953) scale(0.24 -0.24)">
       <defs>
        <path id="CMR17-31" d="M 1702 4083 
C 1702 4217 1696 4224 1606 4224 
C 1357 3927 979 3833 621 3820 
C 602 3820 570 3820 563 3808 
C 557 3795 557 3782 557 3648 
C 755 3648 1088 3686 1344 3839 
L 1344 467 
C 1344 243 1331 166 781 166 
L 589 166 
L 589 0 
C 896 6 1216 12 1523 12 
C 1830 12 2150 6 2458 0 
L 2458 166 
L 2266 166 
C 1715 166 1702 236 1702 467 
L 1702 4083 
z
" transform="scale(0.015625)"/>
       </defs>
       <use xlink:href="#CMR17-31" transform="scale(0.996264)"/>
       <use xlink:href="#CMR17-30" transform="translate(45.690477 0) scale(0.996264)"/>
       <use xlink:href="#CMR17-30" transform="translate(91.380954 0) scale(0.996264)"/>
      </g>
     </g>
    </g>
    <g id="xtick_4">
     <g id="line2d_7">
      <g>
       <use xlink:href="#m38ace58c44" x="397.879848" y="348.357984" style="stroke: #000000; stroke-width: 2"/>
      </g>
     </g>
     <g id="line2d_8">
      <g>
       <use xlink:href="#m2de0200ef4" x="397.879848" y="15.717984" style="stroke: #000000; stroke-width: 2"/>
      </g>
     </g>
     <g id="text_4">
      <!-- $\mathdefault{150}$ -->
      <g transform="translate(381.431276 377.393953) scale(0.24 -0.24)">
       <use xlink:href="#CMR17-31" transform="scale(0.996264)"/>
       <use xlink:href="#CMR17-35" transform="translate(45.690477 0) scale(0.996264)"/>
       <use xlink:href="#CMR17-30" transform="translate(91.380954 0) scale(0.996264)"/>
      </g>
     </g>
    </g>
    <g id="text_5">
     <!-- Time (s) -->
     <g transform="translate(202.620239 408.33478) scale(0.3 -0.3)">
      <defs>
       <path id="NimbusSanL-Regu-54" d="M 2266 4147 
L 3795 4147 
L 3795 4672 
L 134 4672 
L 134 4147 
L 1670 4147 
L 1670 0 
L 2266 0 
L 2266 4147 
z
" transform="scale(0.015625)"/>
       <path id="NimbusSanL-Regu-69" d="M 960 3358 
L 429 3358 
L 429 0 
L 960 0 
L 960 3358 
z
M 960 4672 
L 422 4672 
L 422 3999 
L 960 3999 
L 960 4672 
z
" transform="scale(0.015625)"/>
       <path id="NimbusSanL-Regu-6d" d="M 448 3328 
L 448 0 
L 986 0 
L 986 2089 
C 986 2597 1338 2988 1773 2988 
C 2170 2988 2394 2744 2394 2315 
L 2394 0 
L 2931 0 
L 2931 2109 
C 2931 2597 3283 2988 3718 2988 
C 4109 2988 4339 2738 4339 2315 
L 4339 0 
L 4877 0 
L 4877 2520 
C 4877 3123 4531 3456 3904 3456 
C 3456 3456 3187 3321 2874 2943 
C 2675 3302 2406 3456 1971 3456 
C 1523 3456 1229 3289 941 2886 
L 941 3328 
L 448 3328 
z
" transform="scale(0.015625)"/>
       <path id="NimbusSanL-Regu-65" d="M 3283 1484 
C 3283 1998 3245 2311 3149 2565 
C 2931 3123 2419 3456 1792 3456 
C 858 3456 256 2734 256 1619 
C 256 545 838 -128 1779 -128 
C 2547 -128 3078 307 3213 1018 
L 2675 1018 
C 2528 588 2227 364 1798 364 
C 1459 364 1171 514 992 787 
C 864 974 819 1161 813 1484 
L 3283 1484 
z
M 826 1920 
C 870 2552 1248 2963 1786 2963 
C 2310 2963 2714 2519 2714 1959 
C 2714 1946 2714 1933 2707 1920 
L 826 1920 
z
" transform="scale(0.015625)"/>
       <path id="NimbusSanL-Regu-28" d="M 1510 4672 
C 870 3833 467 2668 467 1663 
C 467 652 870 -513 1510 -1351 
L 1862 -1351 
C 1299 -436 986 639 986 1663 
C 986 2681 1299 3763 1862 4672 
L 1510 4672 
z
" transform="scale(0.015625)"/>
       <path id="NimbusSanL-Regu-73" d="M 2803 2428 
C 2797 3084 2362 3456 1587 3456 
C 806 3456 301 3052 301 2434 
C 301 1912 570 1663 1363 1472 
L 1862 1351 
C 2234 1262 2381 1129 2381 887 
C 2381 574 2067 364 1600 364 
C 1312 364 1069 447 934 587 
C 851 683 813 778 781 1014 
L 218 1014 
C 243 243 678 -128 1555 -128 
C 2400 -128 2938 288 2938 931 
C 2938 1428 2656 1702 1990 1861 
L 1478 1982 
C 1043 2084 858 2224 858 2459 
C 858 2765 1133 2963 1568 2963 
C 1997 2963 2227 2778 2240 2428 
L 2803 2428 
z
" transform="scale(0.015625)"/>
       <path id="NimbusSanL-Regu-29" d="M 595 -1351 
C 1235 -513 1638 652 1638 1657 
C 1638 2668 1235 3833 595 4672 
L 243 4672 
C 806 3756 1120 2681 1120 1657 
C 1120 639 806 -442 243 -1351 
L 595 -1351 
z
" transform="scale(0.015625)"/>
      </defs>
      <use xlink:href="#NimbusSanL-Regu-54" transform="scale(0.996264)"/>
      <use xlink:href="#NimbusSanL-Regu-69" transform="translate(60.871631 0) scale(0.996264)"/>
      <use xlink:href="#NimbusSanL-Regu-6d" transform="translate(82.988415 0) scale(0.996264)"/>
      <use xlink:href="#NimbusSanL-Regu-65" transform="translate(165.976845 0) scale(0.996264)"/>
      <use xlink:href="#NimbusSanL-Regu-28" transform="translate(249.063692 0) scale(0.996264)"/>
      <use xlink:href="#NimbusSanL-Regu-73" transform="translate(282.238922 0) scale(0.996264)"/>
      <use xlink:href="#NimbusSanL-Regu-29" transform="translate(332.052122 0) scale(0.996264)"/>
     </g>
    </g>
   </g>
   <g id="matplotlib.axis_2">
    <g id="ytick_1">
     <g id="line2d_9">
      <defs>
       <path id="mea74c613be" d="M 0 0 
L 10 0 
" style="stroke: #000000; stroke-width: 2"/>
      </defs>
      <g>
       <use xlink:href="#mea74c613be" x="90.004323" y="15.717984" style="stroke: #000000; stroke-width: 2"/>
      </g>
     </g>
     <g id="line2d_10">
      <defs>
       <path id="m38ecf4d58c" d="M 0 0 
L -10 0 
" style="stroke: #000000; stroke-width: 2"/>
      </defs>
      <g>
       <use xlink:href="#m38ecf4d58c" x="424.804323" y="15.717984" style="stroke: #000000; stroke-width: 2"/>
      </g>
     </g>
     <g id="text_6">
      <!-- $\mathdefault{10^{0}}$ -->
      <g transform="translate(51.878754 24.235969) scale(0.24 -0.24)">
       <use xlink:href="#CMR17-31" transform="scale(0.996264)"/>
       <use xlink:href="#CMR17-30" transform="translate(45.690477 0) scale(0.996264)"/>
       <use xlink:href="#CMR17-30" transform="translate(91.380954 36.153639) scale(0.697382)"/>
      </g>
     </g>
    </g>
    <g id="ytick_2">
     <g id="line2d_11">
      <g>
       <use xlink:href="#mea74c613be" x="90.004323" y="83.644797" style="stroke: #000000; stroke-width: 2"/>
      </g>
     </g>
     <g id="line2d_12">
      <g>
       <use xlink:href="#m38ecf4d58c" x="424.804323" y="83.644797" style="stroke: #000000; stroke-width: 2"/>
      </g>
     </g>
     <g id="text_7">
      <!-- $\mathdefault{10^{-2}}$ -->
      <g transform="translate(38.86092 92.162781) scale(0.24 -0.24)">
       <defs>
        <path id="CMSY10-0" d="M 4218 1472 
C 4326 1472 4442 1472 4442 1600 
C 4442 1728 4326 1728 4218 1728 
L 755 1728 
C 646 1728 531 1728 531 1600 
C 531 1472 646 1472 755 1472 
L 4218 1472 
z
" transform="scale(0.015625)"/>
        <path id="CMR17-32" d="M 2669 990 
L 2554 990 
C 2490 537 2438 460 2413 422 
C 2381 371 1920 371 1830 371 
L 602 371 
C 832 620 1280 1073 1824 1596 
C 2214 1966 2669 2400 2669 3033 
C 2669 3788 2067 4224 1395 4224 
C 691 4224 262 3603 262 3027 
C 262 2777 448 2745 525 2745 
C 589 2745 781 2783 781 3007 
C 781 3206 614 3264 525 3264 
C 486 3264 448 3257 422 3244 
C 544 3788 915 4057 1306 4057 
C 1862 4057 2227 3616 2227 3033 
C 2227 2477 1901 1998 1536 1583 
L 262 147 
L 262 0 
L 2515 0 
L 2669 990 
z
" transform="scale(0.015625)"/>
       </defs>
       <use xlink:href="#CMR17-31" transform="scale(0.996264)"/>
       <use xlink:href="#CMR17-30" transform="translate(45.690477 0) scale(0.996264)"/>
       <use xlink:href="#CMSY10-0" transform="translate(91.380954 36.153639) scale(0.697382)"/>
       <use xlink:href="#CMR17-32" transform="translate(145.621947 36.153639) scale(0.697382)"/>
      </g>
     </g>
    </g>
    <g id="ytick_3">
     <g id="line2d_13">
      <g>
       <use xlink:href="#mea74c613be" x="90.004323" y="151.57161" style="stroke: #000000; stroke-width: 2"/>
      </g>
     </g>
     <g id="line2d_14">
      <g>
       <use xlink:href="#m38ecf4d58c" x="424.804323" y="151.57161" style="stroke: #000000; stroke-width: 2"/>
      </g>
     </g>
     <g id="text_8">
      <!-- $\mathdefault{10^{-4}}$ -->
      <g transform="translate(38.86092 160.089594) scale(0.24 -0.24)">
       <defs>
        <path id="CMR17-34" d="M 2150 4147 
C 2150 4281 2144 4288 2029 4288 
L 128 1254 
L 128 1088 
L 1779 1088 
L 1779 460 
C 1779 230 1766 166 1318 166 
L 1197 166 
L 1197 0 
C 1402 12 1747 12 1965 12 
C 2182 12 2528 12 2733 0 
L 2733 166 
L 2611 166 
C 2163 166 2150 230 2150 460 
L 2150 1088 
L 2803 1088 
L 2803 1254 
L 2150 1254 
L 2150 4147 
z
M 1798 3723 
L 1798 1254 
L 256 1254 
L 1798 3723 
z
" transform="scale(0.015625)"/>
       </defs>
       <use xlink:href="#CMR17-31" transform="scale(0.996264)"/>
       <use xlink:href="#CMR17-30" transform="translate(45.690477 0) scale(0.996264)"/>
       <use xlink:href="#CMSY10-0" transform="translate(91.380954 36.153639) scale(0.697382)"/>
       <use xlink:href="#CMR17-34" transform="translate(145.621947 36.153639) scale(0.697382)"/>
      </g>
     </g>
    </g>
    <g id="ytick_4">
     <g id="line2d_15">
      <g>
       <use xlink:href="#mea74c613be" x="90.004323" y="219.498422" style="stroke: #000000; stroke-width: 2"/>
      </g>
     </g>
     <g id="line2d_16">
      <g>
       <use xlink:href="#m38ecf4d58c" x="424.804323" y="219.498422" style="stroke: #000000; stroke-width: 2"/>
      </g>
     </g>
     <g id="text_9">
      <!-- $\mathdefault{10^{-6}}$ -->
      <g transform="translate(38.86092 228.016407) scale(0.24 -0.24)">
       <defs>
        <path id="CMR17-36" d="M 678 2198 
C 678 3712 1395 4076 1811 4076 
C 1946 4076 2272 4049 2400 3782 
C 2298 3782 2106 3782 2106 3558 
C 2106 3385 2246 3328 2336 3328 
C 2394 3328 2566 3353 2566 3571 
C 2566 3987 2246 4224 1805 4224 
C 1043 4224 243 3411 243 2011 
C 243 257 966 -128 1478 -128 
C 2099 -128 2688 431 2688 1295 
C 2688 2101 2170 2688 1517 2688 
C 1126 2688 838 2430 678 1979 
L 678 2198 
z
M 1478 25 
C 691 25 691 1212 691 1450 
C 691 1914 909 2585 1504 2585 
C 1613 2585 1926 2585 2138 2140 
C 2253 1889 2253 1624 2253 1302 
C 2253 954 2253 696 2118 438 
C 1978 173 1773 25 1478 25 
z
" transform="scale(0.015625)"/>
       </defs>
       <use xlink:href="#CMR17-31" transform="scale(0.996264)"/>
       <use xlink:href="#CMR17-30" transform="translate(45.690477 0) scale(0.996264)"/>
       <use xlink:href="#CMSY10-0" transform="translate(91.380954 36.153639) scale(0.697382)"/>
       <use xlink:href="#CMR17-36" transform="translate(145.621947 36.153639) scale(0.697382)"/>
      </g>
     </g>
    </g>
    <g id="ytick_5">
     <g id="line2d_17">
      <g>
       <use xlink:href="#mea74c613be" x="90.004323" y="287.425235" style="stroke: #000000; stroke-width: 2"/>
      </g>
     </g>
     <g id="line2d_18">
      <g>
       <use xlink:href="#m38ecf4d58c" x="424.804323" y="287.425235" style="stroke: #000000; stroke-width: 2"/>
      </g>
     </g>
     <g id="text_10">
      <!-- $\mathdefault{10^{-8}}$ -->
      <g transform="translate(38.86092 295.943219) scale(0.24 -0.24)">
       <defs>
        <path id="CMR17-38" d="M 1741 2289 
C 2144 2494 2554 2803 2554 3298 
C 2554 3884 1990 4224 1472 4224 
C 890 4224 378 3800 378 3215 
C 378 3054 416 2777 666 2533 
C 730 2469 998 2276 1171 2154 
C 883 2006 211 1652 211 945 
C 211 282 838 -128 1459 -128 
C 2144 -128 2720 366 2720 1022 
C 2720 1607 2330 1877 2074 2051 
L 1741 2289 
z
M 902 2855 
C 851 2887 595 3086 595 3388 
C 595 3781 998 4076 1459 4076 
C 1965 4076 2336 3716 2336 3298 
C 2336 2700 1670 2359 1638 2359 
C 1632 2359 1626 2359 1574 2398 
L 902 2855 
z
M 2080 1536 
C 2176 1466 2483 1253 2483 861 
C 2483 385 2010 25 1472 25 
C 890 25 448 443 448 951 
C 448 1459 838 1884 1280 2083 
L 2080 1536 
z
" transform="scale(0.015625)"/>
       </defs>
       <use xlink:href="#CMR17-31" transform="scale(0.996264)"/>
       <use xlink:href="#CMR17-30" transform="translate(45.690477 0) scale(0.996264)"/>
       <use xlink:href="#CMSY10-0" transform="translate(91.380954 36.153639) scale(0.697382)"/>
       <use xlink:href="#CMR17-38" transform="translate(145.621947 36.153639) scale(0.697382)"/>
      </g>
     </g>
    </g>
    <g id="text_11">
     <!-- $c_{44}$ -->
     <g transform="translate(28.494961 197.930422) rotate(-90) scale(0.3 -0.3)">
      <defs>
       <path id="CMMI12-63" d="M 2502 2432 
C 2381 2432 2323 2432 2234 2355 
C 2195 2323 2125 2227 2125 2124 
C 2125 1996 2221 1919 2342 1919 
C 2496 1919 2669 2047 2669 2303 
C 2669 2591 2374 2816 1933 2816 
C 1094 2816 256 1932 256 1011 
C 256 446 602 -64 1254 -64 
C 2125 -64 2675 622 2675 706 
C 2675 745 2637 777 2611 777 
C 2592 777 2586 771 2528 712 
C 2118 161 1510 64 1267 64 
C 826 64 685 453 685 777 
C 685 1004 794 1634 1024 2073 
C 1190 2374 1536 2687 1939 2687 
C 2022 2687 2374 2676 2502 2432 
z
" transform="scale(0.015625)"/>
      </defs>
      <use xlink:href="#CMMI12-63" transform="scale(0.996264)"/>
      <use xlink:href="#CMR17-34" transform="translate(41.983234 -14.943915) scale(0.697382)"/>
      <use xlink:href="#CMR17-34" transform="translate(73.966416 -14.943915) scale(0.697382)"/>
     </g>
    </g>
   </g>
   <g id="line2d_19">
    <path d="M 105.222505 33.786241 
L 106.19803 100.979869 
L 107.173554 113.042743 
L 108.149079 120.483379 
L 109.124603 125.828294 
L 110.100127 129.97627 
L 111.075652 133.333343 
L 113.026701 138.706946 
L 114.97775 143.047862 
L 116.928799 146.666527 
L 118.879848 149.748045 
L 120.830897 152.426001 
L 122.781946 154.813991 
L 125.708519 157.935963 
L 128.635092 160.57844 
L 131.561666 162.877933 
L 134.488239 164.921437 
L 138.390337 167.359771 
L 142.292435 169.546147 
L 147.170058 172.007061 
L 153.023204 174.661479 
L 159.851876 177.478516 
L 167.656072 180.456952 
L 175.460267 183.194679 
L 183.264463 185.683209 
L 191.068659 187.938987 
L 198.872855 189.968627 
L 207.652575 192.015136 
L 218.383344 194.259703 
L 233.016211 197.046193 
L 255.453274 201.073223 
L 277.890337 204.912581 
L 295.449778 207.704667 
L 313.009218 210.273727 
L 332.519708 212.898428 
L 339.348379 213.771745 
L 339.348379 213.771745 
" clip-path="url(#p2d6c57ebc0)" style="fill: none; stroke: #3f90da; stroke-width: 2; stroke-linecap: square"/>
   </g>
   <g id="line2d_20">
    <path d="M 105.222505 33.745659 
L 106.19803 78.672713 
L 107.173554 85.931223 
L 108.149079 112.25749 
L 109.124603 120.691052 
L 110.100127 122.564988 
L 112.051176 131.145234 
L 113.026701 130.620306 
L 114.002225 131.641432 
L 114.97775 148.249781 
L 115.953274 167.228557 
L 116.928799 153.950888 
L 117.904323 154.866322 
L 118.879848 161.59993 
L 119.855372 166.27971 
L 120.830897 166.858494 
L 121.806421 166.504439 
L 122.781946 167.35325 
L 123.75747 169.190561 
L 125.708519 173.715505 
L 126.684044 175.286746 
L 127.659568 176.125201 
L 128.635092 176.242853 
L 129.610617 175.774609 
L 130.586141 175.021533 
L 131.561666 174.462363 
L 132.53719 174.561457 
L 133.512715 175.860915 
L 134.488239 179.298586 
L 135.463764 185.961221 
L 136.439288 195.382046 
L 137.414813 202.304991 
L 138.390337 201.823188 
L 139.365862 198.23284 
L 140.341386 196.121543 
L 141.316911 195.957536 
L 142.292435 197.117251 
L 143.26796 199.194725 
L 145.219009 204.015306 
L 146.194533 205.73807 
L 147.170058 206.850385 
L 148.145582 207.424577 
L 149.121106 207.627704 
L 151.072155 207.810241 
L 152.04768 208.194392 
L 153.023204 208.83712 
L 153.998729 209.697098 
L 155.949778 211.879802 
L 157.900827 214.206701 
L 158.876351 215.177566 
L 159.851876 215.961406 
L 161.802925 217.08071 
L 164.729498 218.391898 
L 166.680547 219.690737 
L 168.631596 221.408468 
L 171.558169 224.186902 
L 173.509218 225.605547 
L 175.460267 226.598386 
L 178.386841 227.97188 
L 179.362365 228.601146 
L 181.313414 230.245957 
L 185.215512 234.06306 
L 186.191037 234.770154 
L 187.166561 235.278138 
L 189.11761 235.853416 
L 191.068659 236.278923 
L 192.044183 236.621077 
L 193.019708 237.152207 
L 193.995232 237.898926 
L 195.946281 239.935225 
L 198.872855 243.41888 
L 199.848379 244.285648 
L 200.823904 244.842888 
L 201.799428 245.110347 
L 202.774953 245.164297 
L 205.701526 244.961811 
L 206.677051 245.079 
L 207.652575 245.405913 
L 208.628099 245.94438 
L 209.603624 246.663437 
L 211.554673 248.505497 
L 214.481246 251.471536 
L 215.456771 252.221084 
L 216.432295 252.813279 
L 218.383344 253.589523 
L 222.285442 254.567965 
L 225.212016 255.715259 
L 232.040687 258.772911 
L 233.991736 259.754136 
L 235.942785 261.02538 
L 241.795932 265.28867 
L 243.746981 266.184799 
L 247.649079 267.66741 
L 249.600127 268.778508 
L 251.551176 270.201113 
L 254.47775 272.447039 
L 256.428799 273.576902 
L 258.379848 274.330065 
L 262.281946 275.521904 
L 264.232995 276.367354 
L 273.012715 280.683434 
L 283.743484 285.446075 
L 290.572155 288.344966 
L 331.544183 305.444263 
L 414.463764 338.250509 
L 530.551176 382.779672 
L 530.551176 382.779672 
" clip-path="url(#p2d6c57ebc0)" style="fill: none; stroke-dasharray: 12.8,3.2,2,3.2; stroke-dashoffset: 0; stroke: #bd1f01; stroke-width: 2"/>
   </g>
   <g id="line2d_21">
    <path d="M 105.222505 33.826826 
L 106.19803 77.675012 
L 107.173554 88.358742 
L 108.149079 102.437048 
L 109.124603 97.10167 
L 110.100127 99.071328 
L 111.075652 113.366374 
L 112.051176 135.002658 
L 113.026701 131.183472 
L 114.002225 124.698584 
L 114.97775 124.888812 
L 115.953274 130.786275 
L 116.928799 137.374953 
L 117.904323 139.630921 
L 118.879848 138.65041 
L 119.855372 137.916826 
L 120.830897 138.485023 
L 121.806421 139.93742 
L 122.781946 141.841396 
L 123.75747 143.388371 
L 124.732995 143.895457 
L 125.708519 143.793877 
L 126.684044 144.093651 
L 127.659568 145.678055 
L 128.635092 149.471446 
L 129.610617 155.937803 
L 130.586141 163.812977 
L 131.561666 169.050502 
L 132.53719 169.168329 
L 134.488239 163.749504 
L 135.463764 162.57272 
L 136.439288 162.611069 
L 137.414813 163.60627 
L 138.390337 165.288689 
L 140.341386 169.344425 
L 141.316911 170.893478 
L 142.292435 171.948297 
L 143.26796 172.565037 
L 144.243484 172.866431 
L 148.145582 173.445487 
L 152.04768 173.476744 
L 156.925302 174.16635 
L 158.876351 174.764779 
L 159.851876 175.277088 
L 160.8274 175.994549 
L 162.778449 177.94482 
L 164.729498 179.995764 
L 165.705023 180.826943 
L 166.680547 181.416356 
L 167.656072 181.754367 
L 168.631596 181.894613 
L 172.533694 181.864626 
L 173.509218 182.089286 
L 175.460267 182.987548 
L 179.362365 185.255783 
L 180.33789 185.680431 
L 181.313414 185.965462 
L 182.288939 186.099026 
L 184.239988 186.0715 
L 186.191037 185.968123 
L 188.142086 186.148023 
L 189.11761 186.43568 
L 191.068659 187.441465 
L 194.970757 189.928563 
L 196.921806 190.742737 
L 197.89733 190.985667 
L 199.848379 191.137847 
L 205.701526 190.954536 
L 206.677051 191.113386 
L 207.652575 191.409858 
L 208.628099 191.868294 
L 210.579148 193.124663 
L 212.530197 194.455887 
L 214.481246 195.38075 
L 218.383344 196.831849 
L 220.334393 198.084932 
L 225.212016 201.825722 
L 226.18754 202.317625 
L 227.163065 202.644748 
L 228.138589 202.822533 
L 230.089638 202.817127 
L 232.040687 202.49966 
L 235.942785 201.754549 
L 237.893834 201.697455 
L 238.869358 201.824762 
L 239.844883 202.089605 
L 240.820407 202.514632 
L 242.771456 203.724521 
L 244.722505 205.07305 
L 246.673554 206.116509 
L 248.624603 206.829678 
L 253.502225 208.344041 
L 256.428799 209.583605 
L 260.330897 211.531891 
L 264.232995 213.510072 
L 267.159568 214.73324 
L 270.086141 215.665751 
L 273.012715 216.345822 
L 276.914813 216.972623 
L 284.719009 218.048166 
L 287.645582 218.702438 
L 291.54768 219.847004 
L 303.253974 223.65107 
L 305.205023 224.029323 
L 307.156072 224.241696 
L 310.082645 224.297231 
L 313.984743 224.075669 
L 319.83789 223.727089 
L 322.764463 223.807582 
L 324.715512 224.040544 
L 326.666561 224.456665 
L 329.593134 225.338968 
L 334.470757 226.886029 
L 336.421806 227.288288 
L 339.348379 227.618861 
L 343.250477 227.760011 
L 348.128099 227.956995 
L 351.054673 228.366417 
L 353.981246 229.109059 
L 356.90782 230.139797 
L 359.834393 231.401157 
L 364.712016 233.79837 
L 368.614113 235.635645 
L 370.565162 236.368587 
L 372.516211 236.884049 
L 374.46726 237.171422 
L 376.418309 237.266728 
L 379.344883 237.152394 
L 387.149079 236.549441 
L 389.100127 236.593544 
L 391.051176 236.812418 
L 393.002225 237.263576 
L 394.953274 237.975368 
L 396.904323 238.916926 
L 399.830897 240.673843 
L 406.659568 245.180897 
L 408.610617 246.049215 
L 410.561666 246.599429 
L 412.512715 246.883387 
L 415.439288 246.976911 
L 420.316911 246.984947 
L 423.243484 247.306952 
L 426.170058 247.894753 
L 429.096631 248.700059 
L 432.998729 250.023367 
L 441.778449 253.170682 
L 445.680547 254.183625 
L 449.582645 254.938005 
L 456.411316 255.94153 
L 461.288939 256.747576 
L 462.264463 256.947243 
L 462.264463 256.947243 
" clip-path="url(#p2d6c57ebc0)" style="fill: none; stroke-dasharray: 20,6; stroke-dashoffset: 10; stroke: #a96b59; stroke-width: 2"/>
   </g>
   <g id="line2d_22">
    <path d="M 105.222505 33.716954 
L 106.19803 85.269573 
L 108.149079 103.982521 
L 109.124603 108.342521 
L 110.100127 114.912684 
L 111.075652 119.348474 
L 113.026701 126.981513 
L 114.002225 129.653337 
L 114.97775 130.097291 
L 115.953274 132.702483 
L 116.928799 143.253967 
L 117.904323 146.207478 
L 118.879848 143.090861 
L 119.855372 142.790496 
L 121.806421 145.018964 
L 122.781946 146.009399 
L 123.75747 147.858458 
L 124.732995 151.682845 
L 126.684044 164.336601 
L 127.659568 168.551658 
L 128.635092 168.787633 
L 130.586141 164.626848 
L 131.561666 163.831039 
L 132.53719 164.056311 
L 133.512715 165.251117 
L 138.390337 175.034599 
L 139.365862 176.465928 
L 140.341386 177.078834 
L 142.292435 177.48311 
L 143.26796 177.845616 
L 146.194533 179.415641 
L 151.072155 182.119328 
L 153.998729 184.093091 
L 156.925302 186.10792 
L 158.876351 187.157695 
L 159.851876 187.526163 
L 161.802925 187.917232 
L 163.753974 187.983691 
L 168.631596 187.72739 
L 174.484743 187.380233 
L 175.460267 187.550568 
L 176.435792 187.866977 
L 177.411316 188.355364 
L 178.386841 189.048515 
L 179.362365 189.98791 
L 180.33789 191.23343 
L 181.313414 192.831056 
L 182.288939 194.763846 
L 184.239988 199.46945 
L 186.191037 204.435259 
L 187.166561 206.348867 
L 188.142086 207.658302 
L 189.11761 208.35523 
L 190.093134 208.521144 
L 191.068659 208.294287 
L 194.970757 206.578784 
L 195.946281 206.451487 
L 197.89733 206.5572 
L 199.848379 207.046179 
L 201.799428 207.865291 
L 203.750477 208.987795 
L 207.652575 211.482646 
L 209.603624 212.455708 
L 211.554673 213.230993 
L 213.505722 213.838641 
L 215.456771 214.285006 
L 218.383344 214.675601 
L 222.285442 214.852633 
L 225.212016 215.050739 
L 227.163065 215.375486 
L 229.114113 215.928848 
L 231.065162 216.683462 
L 233.991736 218.093127 
L 241.795932 222.238488 
L 243.746981 222.869278 
L 245.69803 223.111099 
L 247.649079 223.067341 
L 251.551176 222.897456 
L 253.502225 223.157752 
L 254.47775 223.46394 
L 255.453274 223.929926 
L 256.428799 224.581898 
L 258.379848 226.3643 
L 263.25747 231.556031 
L 264.232995 232.111341 
L 265.208519 232.39106 
L 266.184044 232.445911 
L 268.135092 232.141077 
L 270.086141 231.733474 
L 271.061666 231.650052 
L 272.03719 231.728675 
L 273.012715 232.015255 
L 274.963764 233.014436 
L 276.914813 234.084265 
L 278.865862 234.893208 
L 280.816911 235.441949 
L 282.76796 235.76453 
L 284.719009 235.906898 
L 287.645582 235.883144 
L 295.449778 235.596364 
L 297.400827 235.744786 
L 299.351876 236.084513 
L 301.302925 236.645095 
L 304.229498 237.76842 
L 308.131596 239.329289 
L 311.058169 240.222807 
L 315.935792 241.633046 
L 317.886841 242.397035 
L 320.813414 243.834763 
L 323.739988 245.581346 
L 327.642086 248.25821 
L 332.519708 251.662381 
L 334.470757 252.797055 
L 336.421806 253.635349 
L 338.372855 254.137445 
L 341.299428 254.494955 
L 344.226002 254.79965 
L 346.177051 255.230458 
L 348.128099 255.979528 
L 350.079148 257.010446 
L 353.005722 258.943176 
L 356.90782 261.704694 
L 358.858869 262.786964 
L 360.809918 263.417379 
L 362.760967 263.628485 
L 364.712016 263.538518 
L 371.540687 262.843385 
L 373.491736 263.041008 
L 375.442785 263.462316 
L 378.369358 264.361674 
L 384.222505 266.251658 
L 389.100127 267.563614 
L 395.928799 269.131803 
L 410.561666 272.431195 
L 422.26796 275.300929 
L 427.145582 276.18018 
L 432.998729 276.999877 
L 451.533694 279.395097 
L 481.774953 283.655288 
L 519.820407 288.700425 
L 534.453274 290.618715 
L 556.890337 293.531981 
L 559.816911 293.928312 
L 559.816911 293.928312 
" clip-path="url(#p2d6c57ebc0)" style="fill: none; stroke-dasharray: 2,2; stroke-dashoffset: 0; stroke: #b9ac70; stroke-width: 2"/>
   </g>
   <g id="line2d_23">
    <path d="M 105.222505 33.918889 
L 106.19803 91.934233 
L 107.173554 95.82855 
L 108.149079 103.640111 
L 109.124603 107.227246 
L 111.075652 116.239413 
L 112.051176 118.592986 
L 113.026701 121.690298 
L 114.002225 125.461567 
L 115.953274 133.780188 
L 117.904323 137.214589 
L 118.879848 139.23846 
L 119.855372 140.627834 
L 120.830897 141.657844 
L 121.806421 142.911922 
L 122.781946 143.928702 
L 123.75747 144.641077 
L 124.732995 145.501796 
L 125.708519 145.764693 
L 126.684044 145.662946 
L 127.659568 145.949519 
L 128.635092 147.03824 
L 129.610617 149.627228 
L 130.586141 154.567029 
L 132.53719 169.52793 
L 133.512715 173.271506 
L 134.488239 171.730592 
L 135.463764 168.195769 
L 136.439288 165.624517 
L 137.414813 164.793007 
L 138.390337 165.402473 
L 139.365862 167.175739 
L 141.316911 171.854278 
L 142.292435 173.912005 
L 143.26796 175.676365 
L 144.243484 177.119883 
L 145.219009 178.081475 
L 146.194533 178.557139 
L 147.170058 178.622617 
L 149.121106 178.32254 
L 150.096631 178.390908 
L 151.072155 178.70039 
L 153.023204 179.65089 
L 153.998729 180.247727 
L 154.974253 181.008037 
L 156.925302 182.974271 
L 158.876351 185.02347 
L 159.851876 185.822463 
L 161.802925 186.934863 
L 164.729498 188.1915 
L 167.656072 189.188477 
L 169.60712 189.641442 
L 171.558169 189.806557 
L 173.509218 189.621418 
L 177.411316 188.890541 
L 178.386841 188.845204 
L 179.362365 188.926243 
L 180.33789 189.172184 
L 181.313414 189.602986 
L 182.288939 190.227792 
L 183.264463 191.064358 
L 184.239988 192.168261 
L 185.215512 193.641494 
L 186.191037 195.527707 
L 187.166561 197.846941 
L 188.142086 200.622862 
L 190.093134 207.329134 
L 192.044183 213.841858 
L 193.019708 216.278881 
L 193.995232 217.768536 
L 194.970757 218.159653 
L 195.946281 217.565604 
L 196.921806 216.334483 
L 198.872855 213.354451 
L 199.848379 212.084582 
L 200.823904 211.143345 
L 201.799428 210.519786 
L 202.774953 210.171066 
L 203.750477 210.049076 
L 204.726002 210.116172 
L 205.701526 210.343412 
L 207.652575 211.180764 
L 209.603624 212.371605 
L 211.554673 213.800368 
L 213.505722 215.46667 
L 219.358869 220.883507 
L 221.309918 222.213696 
L 223.260967 223.235037 
L 225.212016 224.01849 
L 228.138589 224.892852 
L 231.065162 225.501563 
L 234.96726 226.311803 
L 236.918309 226.925991 
L 238.869358 227.726006 
L 241.795932 229.27621 
L 247.649079 232.617134 
L 251.551176 234.421395 
L 266.184044 240.91562 
L 274.963764 245.526026 
L 277.890337 246.615285 
L 283.743484 248.666355 
L 286.670058 250.087204 
L 290.572155 252.347084 
L 293.498729 253.982982 
L 295.449778 254.828023 
L 297.400827 255.428673 
L 301.302925 256.251328 
L 303.253974 256.714057 
L 305.205023 257.404971 
L 307.156072 258.384231 
L 310.082645 260.237528 
L 313.984743 262.778167 
L 315.935792 263.658171 
L 317.886841 264.13131 
L 319.83789 264.305101 
L 325.691037 264.469987 
L 327.642086 264.90331 
L 329.593134 265.721788 
L 331.544183 266.870812 
L 333.495232 268.271034 
L 338.372855 271.997566 
L 339.348379 272.560931 
L 340.323904 272.990132 
L 341.299428 273.289316 
L 343.250477 273.549849 
L 345.201526 273.481484 
L 350.079148 272.963243 
L 352.030197 273.028526 
L 353.981246 273.346129 
L 356.90782 274.127307 
L 363.736491 276.141904 
L 372.516211 278.680176 
L 386.173554 283.046359 
L 394.953274 285.299225 
L 398.855372 286.613267 
L 406.659568 289.389128 
L 411.53719 290.747017 
L 416.414813 292.092612 
L 420.316911 293.46618 
L 429.096631 296.846984 
L 432.998729 297.9543 
L 439.8274 299.765432 
L 442.753974 300.788985 
L 447.631596 302.78655 
L 451.533694 304.359934 
L 455.435792 305.657085 
L 463.239988 308.093931 
L 467.142086 309.662114 
L 474.946281 312.923511 
L 478.848379 314.208027 
L 484.701526 316.049985 
L 487.628099 317.185036 
L 492.505722 319.386061 
L 497.383344 321.544588 
L 501.285442 322.969272 
L 508.114113 325.35511 
L 512.016211 327.044458 
L 520.795932 331.024198 
L 525.673554 332.795375 
L 530.551176 334.608227 
L 534.453274 336.388861 
L 538.355372 338.353183 
L 538.355372 338.353183 
" clip-path="url(#p2d6c57ebc0)" style="fill: none; stroke-dasharray: 10,2,2,2,2,2; stroke-dashoffset: 0; stroke: #e76300; stroke-width: 2"/>
   </g>
   <g id="patch_3">
    <path d="M 90.004323 348.357984 
L 90.004323 15.717984 
" style="fill: none; stroke: #000000; stroke-width: 2; stroke-linejoin: miter; stroke-linecap: square"/>
   </g>
   <g id="patch_4">
    <path d="M 424.804323 348.357984 
L 424.804323 15.717984 
" style="fill: none; stroke: #000000; stroke-width: 2; stroke-linejoin: miter; stroke-linecap: square"/>
   </g>
   <g id="patch_5">
    <path d="M 90.004323 348.357984 
L 424.804323 348.357984 
" style="fill: none; stroke: #000000; stroke-width: 2; stroke-linejoin: miter; stroke-linecap: square"/>
   </g>
   <g id="patch_6">
    <path d="M 90.004323 15.717984 
L 424.804323 15.717984 
" style="fill: none; stroke: #000000; stroke-width: 2; stroke-linejoin: miter; stroke-linecap: square"/>
   </g>
   <g id="legend_1">
    <g id="line2d_24">
     <path d="M 463.144323 45.953953 
L 487.144323 45.953953 
L 511.144323 45.953953 
" style="fill: none; stroke: #3f90da; stroke-width: 2; stroke-linecap: square"/>
    </g>
    <g id="text_12">
     <!-- Alt -->
     <g transform="translate(530.344323 54.353953) scale(0.24 -0.24)">
      <defs>
       <path id="NimbusSanL-Regu-41" d="M 3034 1408 
L 3514 0 
L 4179 0 
L 2541 4672 
L 1773 4672 
L 109 0 
L 742 0 
L 1235 1408 
L 3034 1408 
z
M 2867 1907 
L 1382 1907 
L 2150 4032 
L 2867 1907 
z
" transform="scale(0.015625)"/>
       <path id="NimbusSanL-Regu-6c" d="M 973 4672 
L 435 4672 
L 435 0 
L 973 0 
L 973 4672 
z
" transform="scale(0.015625)"/>
       <path id="NimbusSanL-Regu-74" d="M 1626 3328 
L 1075 3328 
L 1075 4249 
L 544 4249 
L 544 3328 
L 90 3328 
L 90 2892 
L 544 2892 
L 544 402 
C 544 64 774 -128 1190 -128 
C 1318 -128 1446 -116 1626 -84 
L 1626 364 
C 1555 345 1472 339 1370 339 
C 1139 339 1075 402 1075 634 
L 1075 2892 
L 1626 2892 
L 1626 3328 
z
" transform="scale(0.015625)"/>
      </defs>
      <use xlink:href="#NimbusSanL-Regu-41" transform="scale(0.996264)"/>
      <use xlink:href="#NimbusSanL-Regu-6c" transform="translate(66.450031 0) scale(0.996264)"/>
      <use xlink:href="#NimbusSanL-Regu-74" transform="translate(88.566815 0) scale(0.996264)"/>
     </g>
    </g>
    <g id="line2d_25">
     <path d="M 463.144323 80.082686 
L 487.144323 80.082686 
L 511.144323 80.082686 
" style="fill: none; stroke-dasharray: 12.8,3.2,2,3.2; stroke-dashoffset: 0; stroke: #bd1f01; stroke-width: 2"/>
    </g>
    <g id="text_13">
     <!-- RTRN -->
     <g transform="translate(530.344323 88.482686) scale(0.24 -0.24)">
      <defs>
       <path id="NimbusSanL-Regu-52" d="M 1190 2035 
L 2726 2035 
C 3258 2035 3494 1775 3494 1191 
L 3488 770 
C 3488 478 3539 192 3622 0 
L 4346 0 
L 4346 147 
C 4122 303 4077 471 4064 1101 
C 4058 1879 3936 2111 3430 2329 
C 3955 2585 4166 2907 4166 3432 
C 4166 4230 3661 4672 2746 4672 
L 595 4672 
L 595 0 
L 1190 0 
L 1190 2035 
z
M 1190 2560 
L 1190 4147 
L 2630 4147 
C 2963 4147 3155 4096 3302 3970 
C 3462 3837 3546 3628 3546 3350 
C 3546 2806 3264 2560 2630 2560 
L 1190 2560 
z
" transform="scale(0.015625)"/>
       <path id="NimbusSanL-Regu-4e" d="M 4134 4672 
L 3571 4672 
L 3571 852 
L 1133 4672 
L 486 4672 
L 486 0 
L 1050 0 
L 1050 3787 
L 3462 0 
L 4134 0 
L 4134 4672 
z
" transform="scale(0.015625)"/>
      </defs>
      <use xlink:href="#NimbusSanL-Regu-52" transform="scale(0.996264)"/>
      <use xlink:href="#NimbusSanL-Regu-54" transform="translate(68.941877 0) scale(0.996264)"/>
      <use xlink:href="#NimbusSanL-Regu-52" transform="translate(129.813508 0) scale(0.996264)"/>
      <use xlink:href="#NimbusSanL-Regu-4e" transform="translate(201.743492 0) scale(0.996264)"/>
     </g>
    </g>
    <g id="line2d_26">
     <path d="M 463.144323 114.211419 
L 487.144323 114.211419 
L 511.144323 114.211419 
" style="fill: none; stroke-dasharray: 20,6; stroke-dashoffset: 10; stroke: #a96b59; stroke-width: 2"/>
    </g>
    <g id="text_14">
     <!-- Alt-iter5-RTRN -->
     <g transform="translate(530.344323 122.611419) scale(0.24 -0.24)">
      <defs>
       <path id="NimbusSanL-Regu-2d" d="M 1818 1996 
L 294 1996 
L 294 1536 
L 1818 1536 
L 1818 1996 
z
" transform="scale(0.015625)"/>
       <path id="NimbusSanL-Regu-72" d="M 442 3328 
L 442 0 
L 979 0 
L 979 1727 
C 979 2203 1101 2514 1357 2698 
C 1523 2819 1683 2857 2054 2863 
L 2054 3404 
C 1965 3449 1920 3456 1850 3456 
C 1504 3456 1242 3251 934 2750 
L 934 3328 
L 442 3328 
z
" transform="scale(0.015625)"/>
       <path id="NimbusSanL-Regu-35" d="M 3046 4544 
L 704 4544 
L 365 2076 
L 883 2076 
C 1146 2387 1363 2496 1715 2496 
C 2323 2496 2707 2082 2707 1414 
C 2707 765 2330 371 1715 371 
C 1222 371 922 619 787 1128 
L 224 1128 
C 301 759 365 581 499 415 
C 755 70 1216 -128 1728 -128 
C 2643 -128 3283 536 3283 1490 
C 3283 2381 2688 2995 1818 2995 
C 1498 2995 1242 2912 979 2720 
L 1158 3987 
L 3046 3987 
L 3046 4544 
z
" transform="scale(0.015625)"/>
      </defs>
      <use xlink:href="#NimbusSanL-Regu-41" transform="scale(0.996264)"/>
      <use xlink:href="#NimbusSanL-Regu-6c" transform="translate(66.450031 0) scale(0.996264)"/>
      <use xlink:href="#NimbusSanL-Regu-74" transform="translate(88.566815 0) scale(0.996264)"/>
      <use xlink:href="#NimbusSanL-Regu-2d" transform="translate(116.261985 0) scale(0.996264)"/>
      <use xlink:href="#NimbusSanL-Regu-69" transform="translate(149.437215 0) scale(0.996264)"/>
      <use xlink:href="#NimbusSanL-Regu-74" transform="translate(171.553999 0) scale(0.996264)"/>
      <use xlink:href="#NimbusSanL-Regu-65" transform="translate(199.249169 0) scale(0.996264)"/>
      <use xlink:href="#NimbusSanL-Regu-72" transform="translate(254.640846 0) scale(0.996264)"/>
      <use xlink:href="#NimbusSanL-Regu-35" transform="translate(287.816075 0) scale(0.996264)"/>
      <use xlink:href="#NimbusSanL-Regu-2d" transform="translate(343.207752 0) scale(0.996264)"/>
      <use xlink:href="#NimbusSanL-Regu-52" transform="translate(376.382982 0) scale(0.996264)"/>
      <use xlink:href="#NimbusSanL-Regu-54" transform="translate(445.324859 0) scale(0.996264)"/>
      <use xlink:href="#NimbusSanL-Regu-52" transform="translate(506.19649 0) scale(0.996264)"/>
      <use xlink:href="#NimbusSanL-Regu-4e" transform="translate(578.126475 0) scale(0.996264)"/>
     </g>
    </g>
    <g id="line2d_27">
     <path d="M 463.144323 148.340152 
L 487.144323 148.340152 
L 511.144323 148.340152 
" style="fill: none; stroke-dasharray: 2,2; stroke-dashoffset: 0; stroke: #b9ac70; stroke-width: 2"/>
    </g>
    <g id="text_15">
     <!-- Alt-iter10-RTRN -->
     <g transform="translate(530.344323 156.740152) scale(0.24 -0.24)">
      <defs>
       <path id="NimbusSanL-Regu-31" d="M 1658 3232 
L 1658 0 
L 2221 0 
L 2221 4537 
L 1850 4537 
C 1651 3840 1523 3744 653 3635 
L 653 3232 
L 1658 3232 
z
" transform="scale(0.015625)"/>
       <path id="NimbusSanL-Regu-30" d="M 1760 4544 
C 1338 4544 954 4358 717 4044 
C 422 3649 275 3043 275 2207 
C 275 683 787 -128 1760 -128 
C 2720 -128 3245 683 3245 2169 
C 3245 3049 3104 3636 2803 4044 
C 2566 4364 2189 4544 1760 4544 
z
M 1760 4044 
C 2368 4044 2669 3432 2669 2220 
C 2669 938 2374 339 1747 339 
C 1152 339 851 964 851 2201 
C 851 3438 1152 4044 1760 4044 
z
" transform="scale(0.015625)"/>
      </defs>
      <use xlink:href="#NimbusSanL-Regu-41" transform="scale(0.996264)"/>
      <use xlink:href="#NimbusSanL-Regu-6c" transform="translate(66.450031 0) scale(0.996264)"/>
      <use xlink:href="#NimbusSanL-Regu-74" transform="translate(88.566815 0) scale(0.996264)"/>
      <use xlink:href="#NimbusSanL-Regu-2d" transform="translate(116.261985 0) scale(0.996264)"/>
      <use xlink:href="#NimbusSanL-Regu-69" transform="translate(149.437215 0) scale(0.996264)"/>
      <use xlink:href="#NimbusSanL-Regu-74" transform="translate(171.553999 0) scale(0.996264)"/>
      <use xlink:href="#NimbusSanL-Regu-65" transform="translate(199.249169 0) scale(0.996264)"/>
      <use xlink:href="#NimbusSanL-Regu-72" transform="translate(254.640846 0) scale(0.996264)"/>
      <use xlink:href="#NimbusSanL-Regu-31" transform="translate(287.816075 0) scale(0.996264)"/>
      <use xlink:href="#NimbusSanL-Regu-30" transform="translate(343.207752 0) scale(0.996264)"/>
      <use xlink:href="#NimbusSanL-Regu-2d" transform="translate(398.599429 0) scale(0.996264)"/>
      <use xlink:href="#NimbusSanL-Regu-52" transform="translate(431.774659 0) scale(0.996264)"/>
      <use xlink:href="#NimbusSanL-Regu-54" transform="translate(500.716536 0) scale(0.996264)"/>
      <use xlink:href="#NimbusSanL-Regu-52" transform="translate(561.588167 0) scale(0.996264)"/>
      <use xlink:href="#NimbusSanL-Regu-4e" transform="translate(633.518152 0) scale(0.996264)"/>
     </g>
    </g>
    <g id="line2d_28">
     <path d="M 463.144323 182.468885 
L 487.144323 182.468885 
L 511.144323 182.468885 
" style="fill: none; stroke-dasharray: 10,2,2,2,2,2; stroke-dashoffset: 0; stroke: #e76300; stroke-width: 2"/>
    </g>
    <g id="text_16">
     <!-- Alt-iter20-RTRN -->
     <g transform="translate(530.344323 190.868885) scale(0.24 -0.24)">
      <defs>
       <path id="NimbusSanL-Regu-32" d="M 3238 556 
L 851 556 
C 909 928 1114 1165 1670 1493 
L 2310 1839 
C 2944 2185 3270 2653 3270 3211 
C 3270 3589 3117 3942 2848 4185 
C 2579 4428 2246 4544 1818 4544 
C 1242 4544 813 4339 563 3955 
C 403 3711 333 3429 320 2967 
L 883 2967 
C 902 3275 941 3461 1018 3608 
C 1165 3884 1459 4051 1798 4051 
C 2310 4051 2694 3685 2694 3198 
C 2694 2839 2483 2531 2080 2300 
L 1491 1967 
C 544 1428 269 999 218 0 
L 3238 0 
L 3238 556 
z
" transform="scale(0.015625)"/>
      </defs>
      <use xlink:href="#NimbusSanL-Regu-41" transform="scale(0.996264)"/>
      <use xlink:href="#NimbusSanL-Regu-6c" transform="translate(66.450031 0) scale(0.996264)"/>
      <use xlink:href="#NimbusSanL-Regu-74" transform="translate(88.566815 0) scale(0.996264)"/>
      <use xlink:href="#NimbusSanL-Regu-2d" transform="translate(116.261985 0) scale(0.996264)"/>
      <use xlink:href="#NimbusSanL-Regu-69" transform="translate(149.437215 0) scale(0.996264)"/>
      <use xlink:href="#NimbusSanL-Regu-74" transform="translate(171.553999 0) scale(0.996264)"/>
      <use xlink:href="#NimbusSanL-Regu-65" transform="translate(199.249169 0) scale(0.996264)"/>
      <use xlink:href="#NimbusSanL-Regu-72" transform="translate(254.640846 0) scale(0.996264)"/>
      <use xlink:href="#NimbusSanL-Regu-32" transform="translate(287.816075 0) scale(0.996264)"/>
      <use xlink:href="#NimbusSanL-Regu-30" transform="translate(343.207752 0) scale(0.996264)"/>
      <use xlink:href="#NimbusSanL-Regu-2d" transform="translate(398.599429 0) scale(0.996264)"/>
      <use xlink:href="#NimbusSanL-Regu-52" transform="translate(431.774659 0) scale(0.996264)"/>
      <use xlink:href="#NimbusSanL-Regu-54" transform="translate(500.716536 0) scale(0.996264)"/>
      <use xlink:href="#NimbusSanL-Regu-52" transform="translate(561.588167 0) scale(0.996264)"/>
      <use xlink:href="#NimbusSanL-Regu-4e" transform="translate(633.518152 0) scale(0.996264)"/>
     </g>
    </g>
   </g>
  </g>
 </g>
 <defs>
  <clipPath id="p2d6c57ebc0">
   <rect x="90.004323" y="15.717984" width="334.8" height="332.64"/>
  </clipPath>
 </defs>
</svg>
