<?xml version="1.0" encoding="utf-8" standalone="no"?>
<!DOCTYPE svg PUBLIC "-//W3C//DTD SVG 1.1//EN"
  "http://www.w3.org/Graphics/SVG/1.1/DTD/svg11.dtd">
<svg xmlns:xlink="http://www.w3.org/1999/xlink" width="703.898627pt" height="421.900739pt" viewBox="0 0 703.898627 421.900739" xmlns="http://www.w3.org/2000/svg" version="1.1">
 <metadata>
  <rdf:RDF xmlns:dc="http://purl.org/dc/elements/1.1/" xmlns:cc="http://creativecommons.org/ns#" xmlns:rdf="http://www.w3.org/1999/02/22-rdf-syntax-ns#">
   <cc:Work>
    <dc:type rdf:resource="http://purl.org/dc/dcmitype/StillImage"/>
    <dc:date>2026-03-19T22:08:13.020165</dc:date>
    <dc:format>image/svg+xml</dc:format>
    <dc:creator>
     <cc:Agent>
      <dc:title>Matplotlib v3.10.0, https://matplotlib.org/</dc:title>
     </cc:Agent>
    </dc:creator>
   </cc:Work>
  </rdf:RDF>
 </metadata>
 <defs>
  <style type="text/css">*{stroke-linejoin: round; stroke-linecap: butt}</style>
 </defs>
 <g id="figure_1">
  <g id="patch_1">
   <path d="M 0 421.900739 
L 703.898627 421.900739 
L 703.898627 0 
L 0 0 
L 0 421.900739 
z
" style="fill: none"/>
  </g>
  <g id="axes_1">
   <g id="patch_2">
    <path d="M 90.004323 348.357984 
L 424.804323 348.357984 
L 424.804323 15.717984 
L 90.004323 15.717984 
L 90.004323 348.357984 
z
" style="fill: none"/>
   </g>
   <g id="matplotlib.axis_1">
    <g id="xtick_1">
     <g id="line2d_1">
      <defs>
       <path id="m7167c118b9" d="M 0 0 
L 0 -10 
" style="stroke: #000000; stroke-width: 2"/>
      </defs>
      <g>
       <use xlink:href="#m7167c118b9" x="105.222505" y="348.357984" style="stroke: #000000; stroke-width: 2"/>
      </g>
     </g>
     <g id="line2d_2">
      <defs>
       <path id="m101f6c0852" d="M 0 0 
L 0 10 
" style="stroke: #000000; stroke-width: 2"/>
      </defs>
      <g>
       <use xlink:href="#m101f6c0852" x="105.222505" y="15.717984" style="stroke: #000000; stroke-width: 2"/>
      </g>
     </g>
     <g id="text_1">
      <!-- $\mathdefault{0}$ -->
      <g transform="translate(99.739648 377.393953) scale(0.24 -0.24)">
       <defs>
        <path id="CMR17-30" d="M 2688 2038 
C 2688 2430 2682 3099 2413 3613 
C 2176 4063 1798 4224 1466 4224 
C 1158 4224 768 4082 525 3620 
C 269 3137 243 2539 243 2038 
C 243 1671 250 1112 448 623 
C 723 -39 1216 -128 1466 -128 
C 1760 -128 2208 -7 2470 604 
C 2662 1048 2688 1568 2688 2038 
z
M 1466 -26 
C 1056 -26 813 328 723 816 
C 653 1196 653 1749 653 2109 
C 653 2604 653 3015 736 3407 
C 858 3954 1216 4121 1466 4121 
C 1728 4121 2067 3947 2189 3420 
C 2272 3054 2278 2623 2278 2109 
C 2278 1691 2278 1176 2202 797 
C 2067 96 1690 -26 1466 -26 
z
" transform="scale(0.015625)"/>
       </defs>
       <use xlink:href="#CMR17-30" transform="scale(0.996264)"/>
      </g>
     </g>
    </g>
    <g id="xtick_2">
     <g id="line2d_3">
      <g>
       <use xlink:href="#m7167c118b9" x="202.774953" y="348.357984" style="stroke: #000000; stroke-width: 2"/>
      </g>
     </g>
     <g id="line2d_4">
      <g>
       <use xlink:href="#m101f6c0852" x="202.774953" y="15.717984" style="stroke: #000000; stroke-width: 2"/>
      </g>
     </g>
     <g id="text_2">
      <!-- $\mathdefault{50}$ -->
      <g transform="translate(191.809238 377.393953) scale(0.24 -0.24)">
       <defs>
        <path id="CMR17-35" d="M 730 3750 
C 794 3724 1056 3641 1325 3641 
C 1920 3641 2246 3961 2432 4140 
C 2432 4191 2432 4224 2394 4224 
C 2387 4224 2374 4224 2323 4198 
C 2099 4102 1837 4032 1517 4032 
C 1325 4032 1037 4055 723 4191 
C 653 4224 640 4224 634 4224 
C 602 4224 595 4217 595 4090 
L 595 2231 
C 595 2113 595 2080 659 2080 
C 691 2080 704 2093 736 2139 
C 941 2435 1222 2560 1542 2560 
C 1766 2560 2246 2415 2246 1293 
C 2246 1087 2246 716 2054 422 
C 1894 159 1645 25 1370 25 
C 947 25 518 319 403 812 
C 429 806 480 793 506 793 
C 589 793 749 838 749 1036 
C 749 1209 627 1280 506 1280 
C 358 1280 262 1190 262 1011 
C 262 454 704 -128 1382 -128 
C 2042 -128 2669 441 2669 1267 
C 2669 2054 2170 2662 1549 2662 
C 1222 2662 947 2540 730 2304 
L 730 3750 
z
" transform="scale(0.015625)"/>
       </defs>
       <use xlink:href="#CMR17-35" transform="scale(0.996264)"/>
       <use xlink:href="#CMR17-30" transform="translate(45.690477 0) scale(0.996264)"/>
      </g>
     </g>
    </g>
    <g id="xtick_3">
     <g id="line2d_5">
      <g>
       <use xlink:href="#m7167c118b9" x="300.3274" y="348.357984" style="stroke: #000000; stroke-width: 2"/>
      </g>
     </g>
     <g id="line2d_6">
      <g>
       <use xlink:href="#m101f6c0852" x="300.3274" y="15.717984" style="stroke: #000000; stroke-width: 2"/>
      </g>
     </g>
     <g id="text_3">
      <!-- $\mathdefault{100}$ -->
      <g transform="translate(283.878828 377.393953) scale(0.24 -0.24)">
       <defs>
        <path id="CMR17-31" d="M 1702 4083 
C 1702 4217 1696 4224 1606 4224 
C 1357 3927 979 3833 621 3820 
C 602 3820 570 3820 563 3808 
C 557 3795 557 3782 557 3648 
C 755 3648 1088 3686 1344 3839 
L 1344 467 
C 1344 243 1331 166 781 166 
L 589 166 
L 589 0 
C 896 6 1216 12 1523 12 
C 1830 12 2150 6 2458 0 
L 2458 166 
L 2266 166 
C 1715 166 1702 236 1702 467 
L 1702 4083 
z
" transform="scale(0.015625)"/>
       </defs>
       <use xlink:href="#CMR17-31" transform="scale(0.996264)"/>
       <use xlink:href="#CMR17-30" transform="translate(45.690477 0) scale(0.996264)"/>
       <use xlink:href="#CMR17-30" transform="translate(91.380954 0) scale(0.996264)"/>
      </g>
     </g>
    </g>
    <g id="xtick_4">
     <g id="line2d_7">
      <g>
       <use xlink:href="#m7167c118b9" x="397.879848" y="348.357984" style="stroke: #000000; stroke-width: 2"/>
      </g>
     </g>
     <g id="line2d_8">
      <g>
       <use xlink:href="#m101f6c0852" x="397.879848" y="15.717984" style="stroke: #000000; stroke-width: 2"/>
      </g>
     </g>
     <g id="text_4">
      <!-- $\mathdefault{150}$ -->
      <g transform="translate(381.431276 377.393953) scale(0.24 -0.24)">
       <use xlink:href="#CMR17-31" transform="scale(0.996264)"/>
       <use xlink:href="#CMR17-35" transform="translate(45.690477 0) scale(0.996264)"/>
       <use xlink:href="#CMR17-30" transform="translate(91.380954 0) scale(0.996264)"/>
      </g>
     </g>
    </g>
    <g id="text_5">
     <!-- Time (s) -->
     <g transform="translate(202.620239 408.33478) scale(0.3 -0.3)">
      <defs>
       <path id="NimbusSanL-Regu-54" d="M 2266 4147 
L 3795 4147 
L 3795 4672 
L 134 4672 
L 134 4147 
L 1670 4147 
L 1670 0 
L 2266 0 
L 2266 4147 
z
" transform="scale(0.015625)"/>
       <path id="NimbusSanL-Regu-69" d="M 960 3358 
L 429 3358 
L 429 0 
L 960 0 
L 960 3358 
z
M 960 4672 
L 422 4672 
L 422 3999 
L 960 3999 
L 960 4672 
z
" transform="scale(0.015625)"/>
       <path id="NimbusSanL-Regu-6d" d="M 448 3328 
L 448 0 
L 986 0 
L 986 2089 
C 986 2597 1338 2988 1773 2988 
C 2170 2988 2394 2744 2394 2315 
L 2394 0 
L 2931 0 
L 2931 2109 
C 2931 2597 3283 2988 3718 2988 
C 4109 2988 4339 2738 4339 2315 
L 4339 0 
L 4877 0 
L 4877 2520 
C 4877 3123 4531 3456 3904 3456 
C 3456 3456 3187 3321 2874 2943 
C 2675 3302 2406 3456 1971 3456 
C 1523 3456 1229 3289 941 2886 
L 941 3328 
L 448 3328 
z
" transform="scale(0.015625)"/>
       <path id="NimbusSanL-Regu-65" d="M 3283 1484 
C 3283 1998 3245 2311 3149 2565 
C 2931 3123 2419 3456 1792 3456 
C 858 3456 256 2734 256 1619 
C 256 545 838 -128 1779 -128 
C 2547 -128 3078 307 3213 1018 
L 2675 1018 
C 2528 588 2227 364 1798 364 
C 1459 364 1171 514 992 787 
C 864 974 819 1161 813 1484 
L 3283 1484 
z
M 826 1920 
C 870 2552 1248 2963 1786 2963 
C 2310 2963 2714 2519 2714 1959 
C 2714 1946 2714 1933 2707 1920 
L 826 1920 
z
" transform="scale(0.015625)"/>
       <path id="NimbusSanL-Regu-28" d="M 1510 4672 
C 870 3833 467 2668 467 1663 
C 467 652 870 -513 1510 -1351 
L 1862 -1351 
C 1299 -436 986 639 986 1663 
C 986 2681 1299 3763 1862 4672 
L 1510 4672 
z
" transform="scale(0.015625)"/>
       <path id="NimbusSanL-Regu-73" d="M 2803 2428 
C 2797 3084 2362 3456 1587 3456 
C 806 3456 301 3052 301 2434 
C 301 1912 570 1663 1363 1472 
L 1862 1351 
C 2234 1262 2381 1129 2381 887 
C 2381 574 2067 364 1600 364 
C 1312 364 1069 447 934 587 
C 851 683 813 778 781 1014 
L 218 1014 
C 243 243 678 -128 1555 -128 
C 2400 -128 2938 288 2938 931 
C 2938 1428 2656 1702 1990 1861 
L 1478 1982 
C 1043 2084 858 2224 858 2459 
C 858 2765 1133 2963 1568 2963 
C 1997 2963 2227 2778 2240 2428 
L 2803 2428 
z
" transform="scale(0.015625)"/>
       <path id="NimbusSanL-Regu-29" d="M 595 -1351 
C 1235 -513 1638 652 1638 1657 
C 1638 2668 1235 3833 595 4672 
L 243 4672 
C 806 3756 1120 2681 1120 1657 
C 1120 639 806 -442 243 -1351 
L 595 -1351 
z
" transform="scale(0.015625)"/>
      </defs>
      <use xlink:href="#NimbusSanL-Regu-54" transform="scale(0.996264)"/>
      <use xlink:href="#NimbusSanL-Regu-69" transform="translate(60.871631 0) scale(0.996264)"/>
      <use xlink:href="#NimbusSanL-Regu-6d" transform="translate(82.988415 0) scale(0.996264)"/>
      <use xlink:href="#NimbusSanL-Regu-65" transform="translate(165.976845 0) scale(0.996264)"/>
      <use xlink:href="#NimbusSanL-Regu-28" transform="translate(249.063692 0) scale(0.996264)"/>
      <use xlink:href="#NimbusSanL-Regu-73" transform="translate(282.238922 0) scale(0.996264)"/>
      <use xlink:href="#NimbusSanL-Regu-29" transform="translate(332.052122 0) scale(0.996264)"/>
     </g>
    </g>
   </g>
   <g id="matplotlib.axis_2">
    <g id="ytick_1">
     <g id="line2d_9">
      <defs>
       <path id="m3210a8d737" d="M 0 0 
L 10 0 
" style="stroke: #000000; stroke-width: 2"/>
      </defs>
      <g>
       <use xlink:href="#m3210a8d737" x="90.004323" y="15.717984" style="stroke: #000000; stroke-width: 2"/>
      </g>
     </g>
     <g id="line2d_10">
      <defs>
       <path id="m45a8fbf156" d="M 0 0 
L -10 0 
" style="stroke: #000000; stroke-width: 2"/>
      </defs>
      <g>
       <use xlink:href="#m45a8fbf156" x="424.804323" y="15.717984" style="stroke: #000000; stroke-width: 2"/>
      </g>
     </g>
     <g id="text_6">
      <!-- $\mathdefault{10^{0}}$ -->
      <g transform="translate(51.878754 24.235969) scale(0.24 -0.24)">
       <use xlink:href="#CMR17-31" transform="scale(0.996264)"/>
       <use xlink:href="#CMR17-30" transform="translate(45.690477 0) scale(0.996264)"/>
       <use xlink:href="#CMR17-30" transform="translate(91.380954 36.153639) scale(0.697382)"/>
      </g>
     </g>
    </g>
    <g id="ytick_2">
     <g id="line2d_11">
      <g>
       <use xlink:href="#m3210a8d737" x="90.004323" y="83.644797" style="stroke: #000000; stroke-width: 2"/>
      </g>
     </g>
     <g id="line2d_12">
      <g>
       <use xlink:href="#m45a8fbf156" x="424.804323" y="83.644797" style="stroke: #000000; stroke-width: 2"/>
      </g>
     </g>
     <g id="text_7">
      <!-- $\mathdefault{10^{-2}}$ -->
      <g transform="translate(38.86092 92.162781) scale(0.24 -0.24)">
       <defs>
        <path id="CMSY10-0" d="M 4218 1472 
C 4326 1472 4442 1472 4442 1600 
C 4442 1728 4326 1728 4218 1728 
L 755 1728 
C 646 1728 531 1728 531 1600 
C 531 1472 646 1472 755 1472 
L 4218 1472 
z
" transform="scale(0.015625)"/>
        <path id="CMR17-32" d="M 2669 990 
L 2554 990 
C 2490 537 2438 460 2413 422 
C 2381 371 1920 371 1830 371 
L 602 371 
C 832 620 1280 1073 1824 1596 
C 2214 1966 2669 2400 2669 3033 
C 2669 3788 2067 4224 1395 4224 
C 691 4224 262 3603 262 3027 
C 262 2777 448 2745 525 2745 
C 589 2745 781 2783 781 3007 
C 781 3206 614 3264 525 3264 
C 486 3264 448 3257 422 3244 
C 544 3788 915 4057 1306 4057 
C 1862 4057 2227 3616 2227 3033 
C 2227 2477 1901 1998 1536 1583 
L 262 147 
L 262 0 
L 2515 0 
L 2669 990 
z
" transform="scale(0.015625)"/>
       </defs>
       <use xlink:href="#CMR17-31" transform="scale(0.996264)"/>
       <use xlink:href="#CMR17-30" transform="translate(45.690477 0) scale(0.996264)"/>
       <use xlink:href="#CMSY10-0" transform="translate(91.380954 36.153639) scale(0.697382)"/>
       <use xlink:href="#CMR17-32" transform="translate(145.621947 36.153639) scale(0.697382)"/>
      </g>
     </g>
    </g>
    <g id="ytick_3">
     <g id="line2d_13">
      <g>
       <use xlink:href="#m3210a8d737" x="90.004323" y="151.57161" style="stroke: #000000; stroke-width: 2"/>
      </g>
     </g>
     <g id="line2d_14">
      <g>
       <use xlink:href="#m45a8fbf156" x="424.804323" y="151.57161" style="stroke: #000000; stroke-width: 2"/>
      </g>
     </g>
     <g id="text_8">
      <!-- $\mathdefault{10^{-4}}$ -->
      <g transform="translate(38.86092 160.089594) scale(0.24 -0.24)">
       <defs>
        <path id="CMR17-34" d="M 2150 4147 
C 2150 4281 2144 4288 2029 4288 
L 128 1254 
L 128 1088 
L 1779 1088 
L 1779 460 
C 1779 230 1766 166 1318 166 
L 1197 166 
L 1197 0 
C 1402 12 1747 12 1965 12 
C 2182 12 2528 12 2733 0 
L 2733 166 
L 2611 166 
C 2163 166 2150 230 2150 460 
L 2150 1088 
L 2803 1088 
L 2803 1254 
L 2150 1254 
L 2150 4147 
z
M 1798 3723 
L 1798 1254 
L 256 1254 
L 1798 3723 
z
" transform="scale(0.015625)"/>
       </defs>
       <use xlink:href="#CMR17-31" transform="scale(0.996264)"/>
       <use xlink:href="#CMR17-30" transform="translate(45.690477 0) scale(0.996264)"/>
       <use xlink:href="#CMSY10-0" transform="translate(91.380954 36.153639) scale(0.697382)"/>
       <use xlink:href="#CMR17-34" transform="translate(145.621947 36.153639) scale(0.697382)"/>
      </g>
     </g>
    </g>
    <g id="ytick_4">
     <g id="line2d_15">
      <g>
       <use xlink:href="#m3210a8d737" x="90.004323" y="219.498422" style="stroke: #000000; stroke-width: 2"/>
      </g>
     </g>
     <g id="line2d_16">
      <g>
       <use xlink:href="#m45a8fbf156" x="424.804323" y="219.498422" style="stroke: #000000; stroke-width: 2"/>
      </g>
     </g>
     <g id="text_9">
      <!-- $\mathdefault{10^{-6}}$ -->
      <g transform="translate(38.86092 228.016407) scale(0.24 -0.24)">
       <defs>
        <path id="CMR17-36" d="M 678 2198 
C 678 3712 1395 4076 1811 4076 
C 1946 4076 2272 4049 2400 3782 
C 2298 3782 2106 3782 2106 3558 
C 2106 3385 2246 3328 2336 3328 
C 2394 3328 2566 3353 2566 3571 
C 2566 3987 2246 4224 1805 4224 
C 1043 4224 243 3411 243 2011 
C 243 257 966 -128 1478 -128 
C 2099 -128 2688 431 2688 1295 
C 2688 2101 2170 2688 1517 2688 
C 1126 2688 838 2430 678 1979 
L 678 2198 
z
M 1478 25 
C 691 25 691 1212 691 1450 
C 691 1914 909 2585 1504 2585 
C 1613 2585 1926 2585 2138 2140 
C 2253 1889 2253 1624 2253 1302 
C 2253 954 2253 696 2118 438 
C 1978 173 1773 25 1478 25 
z
" transform="scale(0.015625)"/>
       </defs>
       <use xlink:href="#CMR17-31" transform="scale(0.996264)"/>
       <use xlink:href="#CMR17-30" transform="translate(45.690477 0) scale(0.996264)"/>
       <use xlink:href="#CMSY10-0" transform="translate(91.380954 36.153639) scale(0.697382)"/>
       <use xlink:href="#CMR17-36" transform="translate(145.621947 36.153639) scale(0.697382)"/>
      </g>
     </g>
    </g>
    <g id="ytick_5">
     <g id="line2d_17">
      <g>
       <use xlink:href="#m3210a8d737" x="90.004323" y="287.425235" style="stroke: #000000; stroke-width: 2"/>
      </g>
     </g>
     <g id="line2d_18">
      <g>
       <use xlink:href="#m45a8fbf156" x="424.804323" y="287.425235" style="stroke: #000000; stroke-width: 2"/>
      </g>
     </g>
     <g id="text_10">
      <!-- $\mathdefault{10^{-8}}$ -->
      <g transform="translate(38.86092 295.943219) scale(0.24 -0.24)">
       <defs>
        <path id="CMR17-38" d="M 1741 2289 
C 2144 2494 2554 2803 2554 3298 
C 2554 3884 1990 4224 1472 4224 
C 890 4224 378 3800 378 3215 
C 378 3054 416 2777 666 2533 
C 730 2469 998 2276 1171 2154 
C 883 2006 211 1652 211 945 
C 211 282 838 -128 1459 -128 
C 2144 -128 2720 366 2720 1022 
C 2720 1607 2330 1877 2074 2051 
L 1741 2289 
z
M 902 2855 
C 851 2887 595 3086 595 3388 
C 595 3781 998 4076 1459 4076 
C 1965 4076 2336 3716 2336 3298 
C 2336 2700 1670 2359 1638 2359 
C 1632 2359 1626 2359 1574 2398 
L 902 2855 
z
M 2080 1536 
C 2176 1466 2483 1253 2483 861 
C 2483 385 2010 25 1472 25 
C 890 25 448 443 448 951 
C 448 1459 838 1884 1280 2083 
L 2080 1536 
z
" transform="scale(0.015625)"/>
       </defs>
       <use xlink:href="#CMR17-31" transform="scale(0.996264)"/>
       <use xlink:href="#CMR17-30" transform="translate(45.690477 0) scale(0.996264)"/>
       <use xlink:href="#CMSY10-0" transform="translate(91.380954 36.153639) scale(0.697382)"/>
       <use xlink:href="#CMR17-38" transform="translate(145.621947 36.153639) scale(0.697382)"/>
      </g>
     </g>
    </g>
    <g id="text_11">
     <!-- $c_{44}$ -->
     <g transform="translate(28.494961 197.930422) rotate(-90) scale(0.3 -0.3)">
      <defs>
       <path id="CMMI12-63" d="M 2502 2432 
C 2381 2432 2323 2432 2234 2355 
C 2195 2323 2125 2227 2125 2124 
C 2125 1996 2221 1919 2342 1919 
C 2496 1919 2669 2047 2669 2303 
C 2669 2591 2374 2816 1933 2816 
C 1094 2816 256 1932 256 1011 
C 256 446 602 -64 1254 -64 
C 2125 -64 2675 622 2675 706 
C 2675 745 2637 777 2611 777 
C 2592 777 2586 771 2528 712 
C 2118 161 1510 64 1267 64 
C 826 64 685 453 685 777 
C 685 1004 794 1634 1024 2073 
C 1190 2374 1536 2687 1939 2687 
C 2022 2687 2374 2676 2502 2432 
z
" transform="scale(0.015625)"/>
      </defs>
      <use xlink:href="#CMMI12-63" transform="scale(0.996264)"/>
      <use xlink:href="#CMR17-34" transform="translate(41.983234 -14.943915) scale(0.697382)"/>
      <use xlink:href="#CMR17-34" transform="translate(73.966416 -14.943915) scale(0.697382)"/>
     </g>
    </g>
   </g>
   <g id="line2d_19">
    <path d="M 105.222505 33.786241 
L 106.19803 100.979869 
L 107.173554 113.042743 
L 108.149079 120.483379 
L 109.124603 125.828294 
L 110.100127 129.97627 
L 111.075652 133.333343 
L 113.026701 138.706946 
L 114.97775 143.047862 
L 116.928799 146.666527 
L 118.879848 149.748045 
L 120.830897 152.426001 
L 122.781946 154.813991 
L 125.708519 157.935963 
L 128.635092 160.57844 
L 131.561666 162.877933 
L 134.488239 164.921437 
L 138.390337 167.359771 
L 142.292435 169.546147 
L 147.170058 172.007061 
L 153.023204 174.661479 
L 159.851876 177.478516 
L 167.656072 180.456952 
L 175.460267 183.194679 
L 183.264463 185.683209 
L 191.068659 187.938987 
L 198.872855 189.968627 
L 207.652575 192.015136 
L 218.383344 194.259703 
L 233.016211 197.046193 
L 255.453274 201.073223 
L 277.890337 204.912581 
L 295.449778 207.704667 
L 313.009218 210.273727 
L 332.519708 212.898428 
L 339.348379 213.771745 
L 339.348379 213.771745 
" clip-path="url(#pe5d5ba513b)" style="fill: none; stroke: #3f90da; stroke-width: 2; stroke-linecap: square"/>
   </g>
   <g id="line2d_20">
    <path d="M 105.222505 33.847242 
L 106.19803 86.276698 
L 107.173554 105.883712 
L 108.149079 117.186584 
L 109.124603 125.787308 
L 110.100127 133.256499 
L 111.075652 139.008284 
L 112.051176 143.084233 
L 113.026701 147.71816 
L 114.002225 150.803409 
L 115.953274 157.983622 
L 116.928799 160.793967 
L 118.879848 164.961673 
L 119.855372 166.766103 
L 120.830897 167.917805 
L 121.806421 171.668197 
L 123.75747 174.662523 
L 124.732995 176.248021 
L 125.708519 177.230315 
L 126.684044 179.314791 
L 127.659568 180.453734 
L 129.610617 183.932263 
L 130.586141 185.567887 
L 131.561666 187.820917 
L 132.53719 188.550057 
L 133.512715 190.56869 
L 134.488239 191.478186 
L 135.463764 192.734839 
L 136.439288 194.579319 
L 138.390337 195.969651 
L 139.365862 198.365772 
L 141.316911 199.804551 
L 142.292435 200.978449 
L 143.26796 201.579578 
L 144.243484 201.911075 
L 145.219009 204.550975 
L 146.194533 206.160338 
L 147.170058 206.671865 
L 148.145582 207.56404 
L 149.121106 208.205588 
L 150.096631 208.997541 
L 151.072155 209.326325 
L 152.04768 209.973463 
L 153.023204 211.170606 
L 153.998729 211.545146 
L 154.974253 212.413612 
L 156.925302 213.969052 
L 157.900827 214.276201 
L 158.876351 215.386751 
L 159.851876 216.897552 
L 161.802925 217.899097 
L 162.778449 220.127721 
L 163.753974 220.829568 
L 164.729498 221.240295 
L 165.705023 222.737954 
L 166.680547 223.392659 
L 167.656072 223.669185 
L 168.631596 225.292312 
L 169.60712 226.568729 
L 171.558169 227.254318 
L 172.533694 228.586472 
L 173.509218 228.889162 
L 174.484743 229.633944 
L 175.460267 229.984283 
L 176.435792 231.077938 
L 177.411316 231.456729 
L 178.386841 231.983075 
L 180.33789 232.795893 
L 181.313414 233.407132 
L 183.264463 234.26903 
L 185.215512 235.387855 
L 186.191037 235.664437 
L 187.166561 236.454632 
L 188.142086 237.064822 
L 189.11761 237.312291 
L 190.093134 237.696472 
L 193.019708 240.401377 
L 193.995232 240.863463 
L 197.89733 242.255666 
L 198.872855 243.004258 
L 199.848379 243.383609 
L 200.823904 243.933481 
L 201.799428 244.911167 
L 202.774953 245.344488 
L 205.701526 246.078922 
L 206.677051 246.499833 
L 207.652575 246.721343 
L 208.628099 247.067468 
L 209.603624 247.660855 
L 210.579148 248.968546 
L 211.554673 249.205018 
L 213.505722 249.975609 
L 214.481246 250.95202 
L 215.456771 251.449114 
L 216.432295 251.65619 
L 217.40782 252.256645 
L 218.383344 253.017192 
L 219.358869 253.316505 
L 220.334393 254.577659 
L 221.309918 255.145353 
L 223.260967 255.657513 
L 225.212016 256.140061 
L 226.18754 257.144421 
L 227.163065 257.674458 
L 228.138589 257.864848 
L 229.114113 258.713656 
L 230.089638 259.092574 
L 231.065162 260.330103 
L 232.040687 260.493156 
L 233.016211 261.335055 
L 233.991736 261.725075 
L 237.893834 262.567764 
L 238.869358 263.772847 
L 239.844883 264.006126 
L 240.820407 265.176698 
L 241.795932 265.928581 
L 242.771456 266.898005 
L 243.746981 267.13958 
L 244.722505 268.67051 
L 245.69803 269.939397 
L 247.649079 270.541195 
L 248.624603 270.969646 
L 249.600127 271.745697 
L 250.575652 272.234769 
L 251.551176 272.384831 
L 253.502225 273.243817 
L 254.47775 273.714119 
L 255.453274 274.768714 
L 256.428799 275.434415 
L 260.330897 276.631652 
L 261.306421 276.986826 
L 262.281946 277.626848 
L 263.25747 278.560337 
L 264.232995 278.834967 
L 265.208519 279.392507 
L 266.184044 279.787652 
L 268.135092 280.358611 
L 269.110617 281.175572 
L 270.086141 283.557152 
L 271.061666 283.895666 
L 272.03719 284.079469 
L 273.012715 284.480767 
L 273.988239 284.619159 
L 274.963764 284.97959 
L 275.939288 285.143204 
L 276.914813 285.90363 
L 277.890337 286.889138 
L 280.816911 287.463316 
L 281.792435 288.764038 
L 282.76796 289.322974 
L 283.743484 290.681041 
L 284.719009 291.20402 
L 285.694533 291.595719 
L 287.645582 291.931071 
L 288.621106 292.44958 
L 289.596631 293.648109 
L 290.572155 293.960045 
L 291.54768 294.460338 
L 293.498729 298.800174 
L 295.449778 299.288382 
L 296.425302 299.380305 
L 297.400827 299.817743 
L 298.376351 300.048783 
L 299.351876 300.589421 
L 301.302925 300.989625 
L 302.278449 301.511755 
L 304.229498 301.869071 
L 306.180547 302.819894 
L 307.156072 304.937564 
L 308.131596 305.287883 
L 309.10712 306.547296 
L 310.082645 307.605536 
L 313.009218 308.293157 
L 313.984743 313.346081 
L 315.935792 314.224806 
L 316.911316 314.429384 
L 317.886841 314.814529 
L 319.83789 315.26184 
L 320.813414 315.641754 
L 321.788939 316.218599 
L 322.764463 316.42427 
L 323.739988 317.022723 
L 325.691037 317.448528 
L 326.666561 317.951889 
L 328.61761 318.299785 
L 329.593134 318.953014 
L 330.568659 319.390802 
L 331.544183 321.282395 
L 333.495232 321.562877 
L 334.470757 322.831656 
L 335.446281 329.408699 
L 335.446281 329.408699 
" clip-path="url(#pe5d5ba513b)" style="fill: none; stroke-dasharray: 10,2; stroke-dashoffset: 0; stroke: #ffa90e; stroke-width: 2"/>
   </g>
   <g id="line2d_21">
    <path d="M 105.222505 33.808331 
L 106.19803 93.93111 
L 107.173554 110.186458 
L 109.124603 127.352072 
L 110.100127 133.635711 
L 111.075652 139.106357 
L 112.051176 145.25975 
L 114.002225 154.059016 
L 114.97775 157.34136 
L 116.928799 161.437854 
L 117.904323 165.021985 
L 119.855372 170.368477 
L 121.806421 173.190862 
L 123.75747 175.573197 
L 125.708519 178.510557 
L 126.684044 180.580671 
L 128.635092 183.618875 
L 129.610617 185.305141 
L 130.586141 187.265204 
L 131.561666 188.849235 
L 132.53719 190.834588 
L 133.512715 191.651602 
L 134.488239 192.923961 
L 135.463764 193.842799 
L 136.439288 195.163514 
L 137.414813 195.812037 
L 138.390337 197.715882 
L 139.365862 198.196644 
L 140.341386 199.331703 
L 141.316911 200.287806 
L 142.292435 201.722945 
L 145.219009 204.760477 
L 146.194533 206.580727 
L 147.170058 207.817569 
L 148.145582 208.702837 
L 149.121106 210.047363 
L 153.998729 214.468227 
L 154.974253 215.804427 
L 156.925302 217.691782 
L 157.900827 218.502484 
L 158.876351 219.834821 
L 159.851876 220.443404 
L 161.802925 221.234549 
L 162.778449 221.942603 
L 163.753974 223.054495 
L 164.729498 223.730053 
L 165.705023 224.768842 
L 166.680547 225.114624 
L 167.656072 225.276702 
L 168.631596 226.962667 
L 169.60712 227.389217 
L 170.582645 227.65061 
L 171.558169 228.202951 
L 172.533694 228.906581 
L 174.484743 229.50119 
L 175.460267 230.429725 
L 176.435792 231.947454 
L 177.411316 233.962613 
L 178.386841 234.41812 
L 179.362365 235.053598 
L 180.33789 235.540162 
L 181.313414 235.877878 
L 184.239988 236.45929 
L 185.215512 237.184378 
L 186.191037 237.37304 
L 187.166561 237.743808 
L 188.142086 238.327226 
L 189.11761 239.730578 
L 191.068659 240.196498 
L 192.044183 241.504588 
L 193.019708 241.79992 
L 193.995232 242.256069 
L 196.921806 242.993206 
L 197.89733 243.560369 
L 198.872855 245.485325 
L 199.848379 245.818908 
L 200.823904 245.973108 
L 202.774953 246.865316 
L 203.750477 247.747234 
L 204.726002 247.88635 
L 205.701526 248.33381 
L 206.677051 249.985988 
L 207.652575 252.347439 
L 208.628099 252.861471 
L 209.603624 253.183731 
L 210.579148 253.344722 
L 211.554673 253.720935 
L 212.530197 255.23903 
L 213.505722 255.885674 
L 215.456771 256.266796 
L 216.432295 256.654843 
L 217.40782 256.913566 
L 218.383344 257.950981 
L 219.358869 258.476439 
L 221.309918 258.770519 
L 222.285442 259.295746 
L 223.260967 259.669839 
L 224.236491 259.842191 
L 225.212016 260.211252 
L 228.138589 260.659043 
L 229.114113 260.818201 
L 230.089638 261.671888 
L 231.065162 262.688612 
L 232.040687 262.898822 
L 233.016211 263.897977 
L 233.991736 264.724129 
L 234.96726 265.091059 
L 235.942785 265.685977 
L 236.918309 265.812613 
L 241.795932 267.25647 
L 242.771456 268.269575 
L 243.746981 268.595473 
L 245.69803 268.971215 
L 246.673554 269.880652 
L 248.624603 270.443754 
L 254.47775 271.738797 
L 255.453274 272.210195 
L 258.379848 272.618369 
L 259.355372 272.85248 
L 260.330897 273.488696 
L 262.281946 273.770701 
L 264.232995 273.979253 
L 265.208519 276.509886 
L 266.184044 281.015461 
L 269.110617 281.499471 
L 270.086141 281.630474 
L 271.061666 282.074016 
L 272.03719 282.238544 
L 273.988239 282.795258 
L 275.939288 283.093448 
L 277.890337 283.454306 
L 278.865862 283.917339 
L 279.841386 284.035627 
L 280.816911 284.32258 
L 281.792435 284.883511 
L 282.76796 285.63338 
L 288.621106 286.493636 
L 289.596631 287.10805 
L 290.572155 287.528652 
L 291.54768 287.632712 
L 292.523204 288.431563 
L 294.474253 289.353037 
L 295.449778 289.509943 
L 296.425302 289.818037 
L 298.376351 290.100742 
L 299.351876 290.419122 
L 302.278449 290.744659 
L 302.278449 290.744659 
" clip-path="url(#pe5d5ba513b)" style="fill: none; stroke-dasharray: 20,6; stroke-dashoffset: 10; stroke: #a96b59; stroke-width: 2"/>
   </g>
   <g id="line2d_22">
    <path d="M 105.222505 33.716954 
L 106.19803 99.204714 
L 107.173554 113.923374 
L 108.149079 125.994778 
L 109.124603 133.71872 
L 111.075652 145.216719 
L 114.97775 160.729236 
L 115.953274 163.591765 
L 116.928799 167.594975 
L 117.904323 170.411494 
L 118.879848 172.649879 
L 119.855372 175.369246 
L 120.830897 177.666018 
L 122.781946 180.776871 
L 124.732995 184.369544 
L 125.708519 185.435408 
L 129.610617 191.666496 
L 130.586141 192.401796 
L 131.561666 194.188544 
L 133.512715 195.828899 
L 134.488239 196.954113 
L 135.463764 198.703078 
L 137.414813 200.62655 
L 138.390337 201.881794 
L 139.365862 202.936171 
L 140.341386 203.555594 
L 141.316911 204.366712 
L 142.292435 206.832425 
L 143.26796 207.418539 
L 144.243484 208.461615 
L 146.194533 209.838142 
L 147.170058 211.180659 
L 148.145582 211.861951 
L 149.121106 212.982231 
L 150.096631 213.793975 
L 151.072155 216.016388 
L 153.998729 217.736969 
L 154.974253 218.110262 
L 156.925302 220.01448 
L 157.900827 220.628699 
L 159.851876 221.56638 
L 160.8274 222.429483 
L 161.802925 222.778197 
L 162.778449 224.160054 
L 164.729498 224.960132 
L 165.705023 225.917571 
L 167.656072 226.614934 
L 168.631596 227.22204 
L 169.60712 227.58013 
L 170.582645 228.649504 
L 171.558169 229.348306 
L 172.533694 230.744786 
L 173.509218 231.168561 
L 174.484743 231.875031 
L 175.460267 232.422326 
L 176.435792 232.730347 
L 178.386841 233.757597 
L 179.362365 235.068662 
L 180.33789 235.383225 
L 181.313414 235.991757 
L 182.288939 236.408286 
L 183.264463 236.61796 
L 184.239988 239.087269 
L 186.191037 240.15558 
L 187.166561 240.340841 
L 188.142086 242.493132 
L 189.11761 243.729439 
L 193.019708 245.43763 
L 193.995232 246.165307 
L 194.970757 246.500947 
L 195.946281 247.126522 
L 198.872855 248.127171 
L 200.823904 249.485693 
L 203.750477 251.164827 
L 204.726002 251.737328 
L 206.677051 252.581102 
L 207.652575 253.316508 
L 208.628099 254.860929 
L 209.603624 256.103487 
L 213.505722 257.108239 
L 214.481246 257.744965 
L 215.456771 258.009447 
L 217.40782 259.204955 
L 220.334393 260.149718 
L 221.309918 260.467415 
L 222.285442 261.168951 
L 223.260967 261.684752 
L 226.18754 262.385473 
L 227.163065 263.168503 
L 230.089638 263.852081 
L 231.065162 264.175852 
L 232.040687 264.74207 
L 233.016211 265.126365 
L 233.991736 265.292782 
L 234.96726 266.025304 
L 235.942785 266.371001 
L 236.918309 268.088877 
L 237.893834 268.267355 
L 240.820407 269.440359 
L 241.795932 269.558045 
L 242.771456 270.585452 
L 244.722505 271.124264 
L 246.673554 272.022668 
L 247.649079 273.004607 
L 248.624603 273.314457 
L 250.575652 273.739477 
L 252.526701 274.469012 
L 253.502225 275.208548 
L 254.47775 275.584396 
L 256.428799 276.115045 
L 259.355372 277.335685 
L 260.330897 280.956209 
L 261.306421 281.644714 
L 263.25747 282.142006 
L 264.232995 282.471502 
L 265.208519 282.585048 
L 267.159568 283.242321 
L 268.135092 283.900369 
L 270.086141 284.45371 
L 272.03719 285.853567 
L 274.963764 286.550045 
L 277.890337 287.114112 
L 278.865862 288.029927 
L 279.841386 288.472273 
L 280.816911 288.65835 
L 281.792435 289.489322 
L 282.76796 290.784775 
L 283.743484 290.883328 
L 284.719009 291.367812 
L 285.694533 292.309808 
L 287.645582 292.683629 
L 288.621106 293.600259 
L 289.596631 294.054574 
L 292.523204 294.433914 
L 293.498729 295.206074 
L 295.449778 295.888555 
L 296.425302 298.049927 
L 297.400827 299.490275 
L 298.376351 299.62949 
L 301.302925 300.532007 
L 304.229498 301.025373 
L 304.229498 301.025373 
" clip-path="url(#pe5d5ba513b)" style="fill: none; stroke-dasharray: 2,2; stroke-dashoffset: 0; stroke: #b9ac70; stroke-width: 2"/>
   </g>
   <g id="line2d_23">
    <path d="M 105.222505 33.745659 
L 106.19803 97.997148 
L 107.173554 113.36238 
L 108.149079 123.935209 
L 109.124603 132.173824 
L 110.100127 139.002006 
L 111.075652 144.687055 
L 112.051176 148.995924 
L 113.026701 154.267478 
L 114.002225 157.776581 
L 114.97775 159.926039 
L 115.953274 163.354188 
L 117.904323 167.416994 
L 118.879848 170.485339 
L 121.806421 175.77932 
L 122.781946 177.515636 
L 123.75747 179.011261 
L 125.708519 183.509188 
L 126.684044 184.265525 
L 127.659568 186.364622 
L 128.635092 188.058789 
L 129.610617 188.847306 
L 131.561666 190.883183 
L 132.53719 191.529023 
L 133.512715 192.35913 
L 134.488239 194.303246 
L 135.463764 195.166921 
L 136.439288 195.855916 
L 137.414813 197.185056 
L 139.365862 198.474749 
L 140.341386 199.466027 
L 141.316911 201.406984 
L 142.292435 202.042291 
L 143.26796 203.186418 
L 144.243484 204.116419 
L 145.219009 204.49236 
L 147.170058 206.057589 
L 149.121106 207.120021 
L 152.04768 210.17424 
L 153.998729 210.954175 
L 154.974253 211.483444 
L 155.949778 212.325291 
L 158.876351 213.805458 
L 160.8274 215.921188 
L 161.802925 216.671503 
L 162.778449 218.260504 
L 164.729498 219.266722 
L 165.705023 219.760221 
L 166.680547 220.039754 
L 168.631596 221.2621 
L 169.60712 221.504953 
L 170.582645 222.110922 
L 171.558169 222.398171 
L 173.509218 223.187874 
L 174.484743 223.521411 
L 175.460267 224.181111 
L 176.435792 225.087266 
L 177.411316 226.29495 
L 178.386841 226.762114 
L 179.362365 227.63403 
L 180.33789 228.796571 
L 181.313414 228.996085 
L 182.288939 229.513951 
L 184.239988 230.130176 
L 185.215512 230.505433 
L 186.191037 231.108696 
L 187.166561 231.281727 
L 188.142086 231.798828 
L 189.11761 231.941201 
L 192.044183 232.762317 
L 193.995232 233.143678 
L 194.970757 235.096245 
L 195.946281 235.998138 
L 196.921806 236.217562 
L 199.848379 237.410739 
L 205.701526 239.084504 
L 206.677051 239.559371 
L 207.652575 239.795652 
L 208.628099 241.162652 
L 209.603624 241.554425 
L 210.579148 241.778536 
L 211.554673 242.255566 
L 212.530197 242.417674 
L 213.505722 243.857849 
L 214.481246 244.75851 
L 215.456771 245.088328 
L 216.432295 245.28034 
L 217.40782 246.141742 
L 218.383344 246.624394 
L 219.358869 247.330981 
L 220.334393 247.769777 
L 223.260967 248.522146 
L 224.236491 248.711153 
L 225.212016 249.788336 
L 226.18754 251.206603 
L 227.163065 251.546561 
L 231.065162 252.391832 
L 233.991736 253.858799 
L 236.918309 254.579096 
L 241.795932 255.897596 
L 242.771456 257.029596 
L 243.746981 257.219165 
L 244.722505 257.556822 
L 245.69803 258.032713 
L 246.673554 258.64646 
L 247.649079 260.804371 
L 249.600127 261.345775 
L 250.575652 261.966052 
L 251.551176 262.145163 
L 252.526701 262.520887 
L 253.502225 262.734331 
L 255.453274 263.347453 
L 257.404323 263.840712 
L 258.379848 264.738652 
L 260.330897 265.144772 
L 261.306421 265.481213 
L 265.208519 266.295681 
L 266.184044 266.670965 
L 269.110617 267.180827 
L 270.086141 268.721214 
L 274.963764 270.639735 
L 276.914813 270.989167 
L 278.865862 271.323725 
L 280.816911 271.988525 
L 281.792435 273.675285 
L 282.76796 274.559609 
L 283.743484 275.975 
L 284.719009 276.131235 
L 285.694533 276.556975 
L 287.645582 277.139768 
L 288.621106 278.658151 
L 289.596631 278.856632 
L 290.572155 279.249524 
L 291.54768 279.415152 
L 292.523204 280.096886 
L 293.498729 281.28585 
L 294.474253 281.392677 
L 295.449778 281.811909 
L 297.400827 282.256595 
L 299.351876 282.774022 
L 300.3274 283.085889 
L 304.229498 283.717467 
L 307.156072 284.593301 
L 308.131596 284.751063 
L 311.058169 285.735288 
L 313.009218 286.093371 
L 313.984743 286.344055 
L 313.984743 286.344055 
" clip-path="url(#pe5d5ba513b)" style="fill: none; stroke-dasharray: 10,2,2,2,2,2; stroke-dashoffset: 0; stroke: #e76300; stroke-width: 2"/>
   </g>
   <g id="patch_3">
    <path d="M 90.004323 348.357984 
L 90.004323 15.717984 
" style="fill: none; stroke: #000000; stroke-width: 2; stroke-linejoin: miter; stroke-linecap: square"/>
   </g>
   <g id="patch_4">
    <path d="M 424.804323 348.357984 
L 424.804323 15.717984 
" style="fill: none; stroke: #000000; stroke-width: 2; stroke-linejoin: miter; stroke-linecap: square"/>
   </g>
   <g id="patch_5">
    <path d="M 90.004323 348.357984 
L 424.804323 348.357984 
" style="fill: none; stroke: #000000; stroke-width: 2; stroke-linejoin: miter; stroke-linecap: square"/>
   </g>
   <g id="patch_6">
    <path d="M 90.004323 15.717984 
L 424.804323 15.717984 
" style="fill: none; stroke: #000000; stroke-width: 2; stroke-linejoin: miter; stroke-linecap: square"/>
   </g>
   <g id="legend_1">
    <g id="line2d_24">
     <path d="M 463.144323 45.953953 
L 487.144323 45.953953 
L 511.144323 45.953953 
" style="fill: none; stroke: #3f90da; stroke-width: 2; stroke-linecap: square"/>
    </g>
    <g id="text_12">
     <!-- Alt -->
     <g transform="translate(530.344323 54.353953) scale(0.24 -0.24)">
      <defs>
       <path id="NimbusSanL-Regu-41" d="M 3034 1408 
L 3514 0 
L 4179 0 
L 2541 4672 
L 1773 4672 
L 109 0 
L 742 0 
L 1235 1408 
L 3034 1408 
z
M 2867 1907 
L 1382 1907 
L 2150 4032 
L 2867 1907 
z
" transform="scale(0.015625)"/>
       <path id="NimbusSanL-Regu-6c" d="M 973 4672 
L 435 4672 
L 435 0 
L 973 0 
L 973 4672 
z
" transform="scale(0.015625)"/>
       <path id="NimbusSanL-Regu-74" d="M 1626 3328 
L 1075 3328 
L 1075 4249 
L 544 4249 
L 544 3328 
L 90 3328 
L 90 2892 
L 544 2892 
L 544 402 
C 544 64 774 -128 1190 -128 
C 1318 -128 1446 -116 1626 -84 
L 1626 364 
C 1555 345 1472 339 1370 339 
C 1139 339 1075 402 1075 634 
L 1075 2892 
L 1626 2892 
L 1626 3328 
z
" transform="scale(0.015625)"/>
      </defs>
      <use xlink:href="#NimbusSanL-Regu-41" transform="scale(0.996264)"/>
      <use xlink:href="#NimbusSanL-Regu-6c" transform="translate(66.450031 0) scale(0.996264)"/>
      <use xlink:href="#NimbusSanL-Regu-74" transform="translate(88.566815 0) scale(0.996264)"/>
     </g>
    </g>
    <g id="line2d_25">
     <path d="M 463.144323 80.082686 
L 487.144323 80.082686 
L 511.144323 80.082686 
" style="fill: none; stroke-dasharray: 10,2; stroke-dashoffset: 0; stroke: #ffa90e; stroke-width: 2"/>
    </g>
    <g id="text_13">
     <!-- RCG -->
     <g transform="translate(530.344323 88.482686) scale(0.24 -0.24)">
      <defs>
       <path id="NimbusSanL-Regu-52" d="M 1190 2035 
L 2726 2035 
C 3258 2035 3494 1775 3494 1191 
L 3488 770 
C 3488 478 3539 192 3622 0 
L 4346 0 
L 4346 147 
C 4122 303 4077 471 4064 1101 
C 4058 1879 3936 2111 3430 2329 
C 3955 2585 4166 2907 4166 3432 
C 4166 4230 3661 4672 2746 4672 
L 595 4672 
L 595 0 
L 1190 0 
L 1190 2035 
z
M 1190 2560 
L 1190 4147 
L 2630 4147 
C 2963 4147 3155 4096 3302 3970 
C 3462 3837 3546 3628 3546 3350 
C 3546 2806 3264 2560 2630 2560 
L 1190 2560 
z
" transform="scale(0.015625)"/>
       <path id="NimbusSanL-Regu-43" d="M 4237 3219 
C 4051 4236 3462 4736 2438 4736 
C 1811 4736 1306 4537 960 4154 
C 538 3696 307 3035 307 2284 
C 307 1522 544 867 986 415 
C 1344 44 1805 -128 2413 -128 
C 3552 -128 4192 485 4333 1712 
L 3718 1712 
C 3667 1394 3603 1178 3507 994 
C 3315 612 2918 396 2419 396 
C 1491 396 902 1134 902 2291 
C 902 3480 1466 4211 2368 4211 
C 2746 4211 3098 4096 3290 3918 
C 3462 3759 3558 3562 3629 3219 
L 4237 3219 
z
" transform="scale(0.015625)"/>
       <path id="NimbusSanL-Regu-47" d="M 4538 2496 
L 2592 2496 
L 2592 1971 
L 4013 1971 
L 4013 1842 
C 4013 1003 3398 396 2547 396 
C 2074 396 1645 571 1370 874 
C 1062 1209 877 1771 877 2348 
C 877 3472 1530 4211 2515 4211 
C 3226 4211 3738 3854 3866 3265 
L 4474 3265 
C 4307 4192 3590 4736 2522 4736 
C 1952 4736 1491 4588 1126 4287 
C 589 3848 282 3140 282 2316 
C 282 874 1158 -128 2419 -128 
C 3053 -128 3558 108 4013 616 
L 4160 -7 
L 4538 -7 
L 4538 2496 
z
" transform="scale(0.015625)"/>
      </defs>
      <use xlink:href="#NimbusSanL-Regu-52" transform="scale(0.996264)"/>
      <use xlink:href="#NimbusSanL-Regu-43" transform="translate(71.929985 0) scale(0.996264)"/>
      <use xlink:href="#NimbusSanL-Regu-47" transform="translate(143.85997 0) scale(0.996264)"/>
     </g>
    </g>
    <g id="line2d_26">
     <path d="M 463.144323 114.211419 
L 487.144323 114.211419 
L 511.144323 114.211419 
" style="fill: none; stroke-dasharray: 20,6; stroke-dashoffset: 10; stroke: #a96b59; stroke-width: 2"/>
    </g>
    <g id="text_14">
     <!-- Alt-iter5-RCG -->
     <g transform="translate(530.344323 122.611419) scale(0.24 -0.24)">
      <defs>
       <path id="NimbusSanL-Regu-2d" d="M 1818 1996 
L 294 1996 
L 294 1536 
L 1818 1536 
L 1818 1996 
z
" transform="scale(0.015625)"/>
       <path id="NimbusSanL-Regu-72" d="M 442 3328 
L 442 0 
L 979 0 
L 979 1727 
C 979 2203 1101 2514 1357 2698 
C 1523 2819 1683 2857 2054 2863 
L 2054 3404 
C 1965 3449 1920 3456 1850 3456 
C 1504 3456 1242 3251 934 2750 
L 934 3328 
L 442 3328 
z
" transform="scale(0.015625)"/>
       <path id="NimbusSanL-Regu-35" d="M 3046 4544 
L 704 4544 
L 365 2076 
L 883 2076 
C 1146 2387 1363 2496 1715 2496 
C 2323 2496 2707 2082 2707 1414 
C 2707 765 2330 371 1715 371 
C 1222 371 922 619 787 1128 
L 224 1128 
C 301 759 365 581 499 415 
C 755 70 1216 -128 1728 -128 
C 2643 -128 3283 536 3283 1490 
C 3283 2381 2688 2995 1818 2995 
C 1498 2995 1242 2912 979 2720 
L 1158 3987 
L 3046 3987 
L 3046 4544 
z
" transform="scale(0.015625)"/>
      </defs>
      <use xlink:href="#NimbusSanL-Regu-41" transform="scale(0.996264)"/>
      <use xlink:href="#NimbusSanL-Regu-6c" transform="translate(66.450031 0) scale(0.996264)"/>
      <use xlink:href="#NimbusSanL-Regu-74" transform="translate(88.566815 0) scale(0.996264)"/>
      <use xlink:href="#NimbusSanL-Regu-2d" transform="translate(116.261985 0) scale(0.996264)"/>
      <use xlink:href="#NimbusSanL-Regu-69" transform="translate(149.437215 0) scale(0.996264)"/>
      <use xlink:href="#NimbusSanL-Regu-74" transform="translate(171.553999 0) scale(0.996264)"/>
      <use xlink:href="#NimbusSanL-Regu-65" transform="translate(199.249169 0) scale(0.996264)"/>
      <use xlink:href="#NimbusSanL-Regu-72" transform="translate(254.640846 0) scale(0.996264)"/>
      <use xlink:href="#NimbusSanL-Regu-35" transform="translate(287.816075 0) scale(0.996264)"/>
      <use xlink:href="#NimbusSanL-Regu-2d" transform="translate(343.207752 0) scale(0.996264)"/>
      <use xlink:href="#NimbusSanL-Regu-52" transform="translate(376.382982 0) scale(0.996264)"/>
      <use xlink:href="#NimbusSanL-Regu-43" transform="translate(448.312967 0) scale(0.996264)"/>
      <use xlink:href="#NimbusSanL-Regu-47" transform="translate(520.242952 0) scale(0.996264)"/>
     </g>
    </g>
    <g id="line2d_27">
     <path d="M 463.144323 148.340152 
L 487.144323 148.340152 
L 511.144323 148.340152 
" style="fill: none; stroke-dasharray: 2,2; stroke-dashoffset: 0; stroke: #b9ac70; stroke-width: 2"/>
    </g>
    <g id="text_15">
     <!-- Alt-iter10-RCG -->
     <g transform="translate(530.344323 156.740152) scale(0.24 -0.24)">
      <defs>
       <path id="NimbusSanL-Regu-31" d="M 1658 3232 
L 1658 0 
L 2221 0 
L 2221 4537 
L 1850 4537 
C 1651 3840 1523 3744 653 3635 
L 653 3232 
L 1658 3232 
z
" transform="scale(0.015625)"/>
       <path id="NimbusSanL-Regu-30" d="M 1760 4544 
C 1338 4544 954 4358 717 4044 
C 422 3649 275 3043 275 2207 
C 275 683 787 -128 1760 -128 
C 2720 -128 3245 683 3245 2169 
C 3245 3049 3104 3636 2803 4044 
C 2566 4364 2189 4544 1760 4544 
z
M 1760 4044 
C 2368 4044 2669 3432 2669 2220 
C 2669 938 2374 339 1747 339 
C 1152 339 851 964 851 2201 
C 851 3438 1152 4044 1760 4044 
z
" transform="scale(0.015625)"/>
      </defs>
      <use xlink:href="#NimbusSanL-Regu-41" transform="scale(0.996264)"/>
      <use xlink:href="#NimbusSanL-Regu-6c" transform="translate(66.450031 0) scale(0.996264)"/>
      <use xlink:href="#NimbusSanL-Regu-74" transform="translate(88.566815 0) scale(0.996264)"/>
      <use xlink:href="#NimbusSanL-Regu-2d" transform="translate(116.261985 0) scale(0.996264)"/>
      <use xlink:href="#NimbusSanL-Regu-69" transform="translate(149.437215 0) scale(0.996264)"/>
      <use xlink:href="#NimbusSanL-Regu-74" transform="translate(171.553999 0) scale(0.996264)"/>
      <use xlink:href="#NimbusSanL-Regu-65" transform="translate(199.249169 0) scale(0.996264)"/>
      <use xlink:href="#NimbusSanL-Regu-72" transform="translate(254.640846 0) scale(0.996264)"/>
      <use xlink:href="#NimbusSanL-Regu-31" transform="translate(287.816075 0) scale(0.996264)"/>
      <use xlink:href="#NimbusSanL-Regu-30" transform="translate(343.207752 0) scale(0.996264)"/>
      <use xlink:href="#NimbusSanL-Regu-2d" transform="translate(398.599429 0) scale(0.996264)"/>
      <use xlink:href="#NimbusSanL-Regu-52" transform="translate(431.774659 0) scale(0.996264)"/>
      <use xlink:href="#NimbusSanL-Regu-43" transform="translate(503.704644 0) scale(0.996264)"/>
      <use xlink:href="#NimbusSanL-Regu-47" transform="translate(575.634629 0) scale(0.996264)"/>
     </g>
    </g>
    <g id="line2d_28">
     <path d="M 463.144323 182.468885 
L 487.144323 182.468885 
L 511.144323 182.468885 
" style="fill: none; stroke-dasharray: 10,2,2,2,2,2; stroke-dashoffset: 0; stroke: #e76300; stroke-width: 2"/>
    </g>
    <g id="text_16">
     <!-- Alt-iter20-RCG -->
     <g transform="translate(530.344323 190.868885) scale(0.24 -0.24)">
      <defs>
       <path id="NimbusSanL-Regu-32" d="M 3238 556 
L 851 556 
C 909 928 1114 1165 1670 1493 
L 2310 1839 
C 2944 2185 3270 2653 3270 3211 
C 3270 3589 3117 3942 2848 4185 
C 2579 4428 2246 4544 1818 4544 
C 1242 4544 813 4339 563 3955 
C 403 3711 333 3429 320 2967 
L 883 2967 
C 902 3275 941 3461 1018 3608 
C 1165 3884 1459 4051 1798 4051 
C 2310 4051 2694 3685 2694 3198 
C 2694 2839 2483 2531 2080 2300 
L 1491 1967 
C 544 1428 269 999 218 0 
L 3238 0 
L 3238 556 
z
" transform="scale(0.015625)"/>
      </defs>
      <use xlink:href="#NimbusSanL-Regu-41" transform="scale(0.996264)"/>
      <use xlink:href="#NimbusSanL-Regu-6c" transform="translate(66.450031 0) scale(0.996264)"/>
      <use xlink:href="#NimbusSanL-Regu-74" transform="translate(88.566815 0) scale(0.996264)"/>
      <use xlink:href="#NimbusSanL-Regu-2d" transform="translate(116.261985 0) scale(0.996264)"/>
      <use xlink:href="#NimbusSanL-Regu-69" transform="translate(149.437215 0) scale(0.996264)"/>
      <use xlink:href="#NimbusSanL-Regu-74" transform="translate(171.553999 0) scale(0.996264)"/>
      <use xlink:href="#NimbusSanL-Regu-65" transform="translate(199.249169 0) scale(0.996264)"/>
      <use xlink:href="#NimbusSanL-Regu-72" transform="translate(254.640846 0) scale(0.996264)"/>
      <use xlink:href="#NimbusSanL-Regu-32" transform="translate(287.816075 0) scale(0.996264)"/>
      <use xlink:href="#NimbusSanL-Regu-30" transform="translate(343.207752 0) scale(0.996264)"/>
      <use xlink:href="#NimbusSanL-Regu-2d" transform="translate(398.599429 0) scale(0.996264)"/>
      <use xlink:href="#NimbusSanL-Regu-52" transform="translate(431.774659 0) scale(0.996264)"/>
      <use xlink:href="#NimbusSanL-Regu-43" transform="translate(503.704644 0) scale(0.996264)"/>
      <use xlink:href="#NimbusSanL-Regu-47" transform="translate(575.634629 0) scale(0.996264)"/>
     </g>
    </g>
   </g>
  </g>
 </g>
 <defs>
  <clipPath id="pe5d5ba513b">
   <rect x="90.004323" y="15.717984" width="334.8" height="332.64"/>
  </clipPath>
 </defs>
</svg>
