<?xml version="1.0" encoding="utf-8" standalone="no"?>
<!DOCTYPE svg PUBLIC "-//W3C//DTD SVG 1.1//EN"
  "http://www.w3.org/Graphics/SVG/1.1/DTD/svg11.dtd">
<svg xmlns:xlink="http://www.w3.org/1999/xlink" width="754.804323pt" height="434.646755pt" viewBox="0 0 754.804323 434.646755" xmlns="http://www.w3.org/2000/svg" version="1.1">
 <metadata>
  <rdf:RDF xmlns:dc="http://purl.org/dc/elements/1.1/" xmlns:cc="http://creativecommons.org/ns#" xmlns:rdf="http://www.w3.org/1999/02/22-rdf-syntax-ns#">
   <cc:Work>
    <dc:type rdf:resource="http://purl.org/dc/dcmitype/StillImage"/>
    <dc:date>2026-03-11T14:23:49.560093</dc:date>
    <dc:format>image/svg+xml</dc:format>
    <dc:creator>
     <cc:Agent>
      <dc:title>Matplotlib v3.8.0, https://matplotlib.org/</dc:title>
     </cc:Agent>
    </dc:creator>
   </cc:Work>
  </rdf:RDF>
 </metadata>
 <defs>
  <style type="text/css">*{stroke-linejoin: round; stroke-linecap: butt}</style>
 </defs>
 <g id="figure_1">
  <g id="patch_1">
   <path d="M 0 434.646755 
L 754.804323 434.646755 
L 754.804323 0 
L 0 0 
L 0 434.646755 
z
" style="fill: none"/>
  </g>
  <g id="axes_1">
   <g id="patch_2">
    <path d="M 90.004323 361.104 
L 424.804323 361.104 
L 424.804323 28.464 
L 90.004323 28.464 
L 90.004323 361.104 
z
" style="fill: none"/>
   </g>
   <g id="matplotlib.axis_1">
    <g id="xtick_1">
     <g id="line2d_1">
      <defs>
       <path id="m7b925ad227" d="M 0 0 
L 0 -10 
" style="stroke: #000000; stroke-width: 2"/>
      </defs>
      <g>
       <use xlink:href="#m7b925ad227" x="105.222505" y="361.104" style="stroke: #000000; stroke-width: 2"/>
      </g>
     </g>
     <g id="line2d_2">
      <defs>
       <path id="m4e3d2daf2e" d="M 0 0 
L 0 10 
" style="stroke: #000000; stroke-width: 2"/>
      </defs>
      <g>
       <use xlink:href="#m4e3d2daf2e" x="105.222505" y="28.464" style="stroke: #000000; stroke-width: 2"/>
      </g>
     </g>
     <g id="text_1">
      <!-- $\mathdefault{0}$ -->
      <g transform="translate(99.739648 390.139969) scale(0.24 -0.24)">
       <defs>
        <path id="CMR17-30" d="M 2688 2038 
C 2688 2430 2682 3099 2413 3613 
C 2176 4063 1798 4224 1466 4224 
C 1158 4224 768 4082 525 3620 
C 269 3137 243 2539 243 2038 
C 243 1671 250 1112 448 623 
C 723 -39 1216 -128 1466 -128 
C 1760 -128 2208 -7 2470 604 
C 2662 1048 2688 1568 2688 2038 
z
M 1466 -26 
C 1056 -26 813 328 723 816 
C 653 1196 653 1749 653 2109 
C 653 2604 653 3015 736 3407 
C 858 3954 1216 4121 1466 4121 
C 1728 4121 2067 3947 2189 3420 
C 2272 3054 2278 2623 2278 2109 
C 2278 1691 2278 1176 2202 797 
C 2067 96 1690 -26 1466 -26 
z
" transform="scale(0.015625)"/>
       </defs>
       <use xlink:href="#CMR17-30" transform="scale(0.996264)"/>
      </g>
     </g>
    </g>
    <g id="xtick_2">
     <g id="line2d_3">
      <g>
       <use xlink:href="#m7b925ad227" x="202.774953" y="361.104" style="stroke: #000000; stroke-width: 2"/>
      </g>
     </g>
     <g id="line2d_4">
      <g>
       <use xlink:href="#m4e3d2daf2e" x="202.774953" y="28.464" style="stroke: #000000; stroke-width: 2"/>
      </g>
     </g>
     <g id="text_2">
      <!-- $\mathdefault{50}$ -->
      <g transform="translate(191.809238 390.139969) scale(0.24 -0.24)">
       <defs>
        <path id="CMR17-35" d="M 730 3750 
C 794 3724 1056 3641 1325 3641 
C 1920 3641 2246 3961 2432 4140 
C 2432 4191 2432 4224 2394 4224 
C 2387 4224 2374 4224 2323 4198 
C 2099 4102 1837 4032 1517 4032 
C 1325 4032 1037 4055 723 4191 
C 653 4224 640 4224 634 4224 
C 602 4224 595 4217 595 4090 
L 595 2231 
C 595 2113 595 2080 659 2080 
C 691 2080 704 2093 736 2139 
C 941 2435 1222 2560 1542 2560 
C 1766 2560 2246 2415 2246 1293 
C 2246 1087 2246 716 2054 422 
C 1894 159 1645 25 1370 25 
C 947 25 518 319 403 812 
C 429 806 480 793 506 793 
C 589 793 749 838 749 1036 
C 749 1209 627 1280 506 1280 
C 358 1280 262 1190 262 1011 
C 262 454 704 -128 1382 -128 
C 2042 -128 2669 441 2669 1267 
C 2669 2054 2170 2662 1549 2662 
C 1222 2662 947 2540 730 2304 
L 730 3750 
z
" transform="scale(0.015625)"/>
       </defs>
       <use xlink:href="#CMR17-35" transform="scale(0.996264)"/>
       <use xlink:href="#CMR17-30" transform="translate(45.690477 0) scale(0.996264)"/>
      </g>
     </g>
    </g>
    <g id="xtick_3">
     <g id="line2d_5">
      <g>
       <use xlink:href="#m7b925ad227" x="300.3274" y="361.104" style="stroke: #000000; stroke-width: 2"/>
      </g>
     </g>
     <g id="line2d_6">
      <g>
       <use xlink:href="#m4e3d2daf2e" x="300.3274" y="28.464" style="stroke: #000000; stroke-width: 2"/>
      </g>
     </g>
     <g id="text_3">
      <!-- $\mathdefault{100}$ -->
      <g transform="translate(283.878828 390.139969) scale(0.24 -0.24)">
       <defs>
        <path id="CMR17-31" d="M 1702 4083 
C 1702 4217 1696 4224 1606 4224 
C 1357 3927 979 3833 621 3820 
C 602 3820 570 3820 563 3808 
C 557 3795 557 3782 557 3648 
C 755 3648 1088 3686 1344 3839 
L 1344 467 
C 1344 243 1331 166 781 166 
L 589 166 
L 589 0 
C 896 6 1216 12 1523 12 
C 1830 12 2150 6 2458 0 
L 2458 166 
L 2266 166 
C 1715 166 1702 236 1702 467 
L 1702 4083 
z
" transform="scale(0.015625)"/>
       </defs>
       <use xlink:href="#CMR17-31" transform="scale(0.996264)"/>
       <use xlink:href="#CMR17-30" transform="translate(45.690477 0) scale(0.996264)"/>
       <use xlink:href="#CMR17-30" transform="translate(91.380954 0) scale(0.996264)"/>
      </g>
     </g>
    </g>
    <g id="xtick_4">
     <g id="line2d_7">
      <g>
       <use xlink:href="#m7b925ad227" x="397.879848" y="361.104" style="stroke: #000000; stroke-width: 2"/>
      </g>
     </g>
     <g id="line2d_8">
      <g>
       <use xlink:href="#m4e3d2daf2e" x="397.879848" y="28.464" style="stroke: #000000; stroke-width: 2"/>
      </g>
     </g>
     <g id="text_4">
      <!-- $\mathdefault{150}$ -->
      <g transform="translate(381.431276 390.139969) scale(0.24 -0.24)">
       <use xlink:href="#CMR17-31" transform="scale(0.996264)"/>
       <use xlink:href="#CMR17-35" transform="translate(45.690477 0) scale(0.996264)"/>
       <use xlink:href="#CMR17-30" transform="translate(91.380954 0) scale(0.996264)"/>
      </g>
     </g>
    </g>
    <g id="text_5">
     <!-- Time (s) -->
     <g transform="translate(202.620239 421.080795) scale(0.3 -0.3)">
      <defs>
       <path id="NimbusSanL-Regu-54" d="M 2266 4147 
L 3795 4147 
L 3795 4672 
L 134 4672 
L 134 4147 
L 1670 4147 
L 1670 0 
L 2266 0 
L 2266 4147 
z
" transform="scale(0.015625)"/>
       <path id="NimbusSanL-Regu-69" d="M 960 3358 
L 429 3358 
L 429 0 
L 960 0 
L 960 3358 
z
M 960 4672 
L 422 4672 
L 422 3999 
L 960 3999 
L 960 4672 
z
" transform="scale(0.015625)"/>
       <path id="NimbusSanL-Regu-6d" d="M 448 3328 
L 448 0 
L 986 0 
L 986 2089 
C 986 2597 1338 2988 1773 2988 
C 2170 2988 2394 2744 2394 2315 
L 2394 0 
L 2931 0 
L 2931 2109 
C 2931 2597 3283 2988 3718 2988 
C 4109 2988 4339 2738 4339 2315 
L 4339 0 
L 4877 0 
L 4877 2520 
C 4877 3123 4531 3456 3904 3456 
C 3456 3456 3187 3321 2874 2943 
C 2675 3302 2406 3456 1971 3456 
C 1523 3456 1229 3289 941 2886 
L 941 3328 
L 448 3328 
z
" transform="scale(0.015625)"/>
       <path id="NimbusSanL-Regu-65" d="M 3283 1484 
C 3283 1998 3245 2311 3149 2565 
C 2931 3123 2419 3456 1792 3456 
C 858 3456 256 2734 256 1619 
C 256 545 838 -128 1779 -128 
C 2547 -128 3078 307 3213 1018 
L 2675 1018 
C 2528 588 2227 364 1798 364 
C 1459 364 1171 514 992 787 
C 864 974 819 1161 813 1484 
L 3283 1484 
z
M 826 1920 
C 870 2552 1248 2963 1786 2963 
C 2310 2963 2714 2519 2714 1959 
C 2714 1946 2714 1933 2707 1920 
L 826 1920 
z
" transform="scale(0.015625)"/>
       <path id="NimbusSanL-Regu-28" d="M 1510 4672 
C 870 3833 467 2668 467 1663 
C 467 652 870 -513 1510 -1351 
L 1862 -1351 
C 1299 -436 986 639 986 1663 
C 986 2681 1299 3763 1862 4672 
L 1510 4672 
z
" transform="scale(0.015625)"/>
       <path id="NimbusSanL-Regu-73" d="M 2803 2428 
C 2797 3084 2362 3456 1587 3456 
C 806 3456 301 3052 301 2434 
C 301 1912 570 1663 1363 1472 
L 1862 1351 
C 2234 1262 2381 1129 2381 887 
C 2381 574 2067 364 1600 364 
C 1312 364 1069 447 934 587 
C 851 683 813 778 781 1014 
L 218 1014 
C 243 243 678 -128 1555 -128 
C 2400 -128 2938 288 2938 931 
C 2938 1428 2656 1702 1990 1861 
L 1478 1982 
C 1043 2084 858 2224 858 2459 
C 858 2765 1133 2963 1568 2963 
C 1997 2963 2227 2778 2240 2428 
L 2803 2428 
z
" transform="scale(0.015625)"/>
       <path id="NimbusSanL-Regu-29" d="M 595 -1351 
C 1235 -513 1638 652 1638 1657 
C 1638 2668 1235 3833 595 4672 
L 243 4672 
C 806 3756 1120 2681 1120 1657 
C 1120 639 806 -442 243 -1351 
L 595 -1351 
z
" transform="scale(0.015625)"/>
      </defs>
      <use xlink:href="#NimbusSanL-Regu-54" transform="scale(0.996264)"/>
      <use xlink:href="#NimbusSanL-Regu-69" transform="translate(60.871631 0) scale(0.996264)"/>
      <use xlink:href="#NimbusSanL-Regu-6d" transform="translate(82.988415 0) scale(0.996264)"/>
      <use xlink:href="#NimbusSanL-Regu-65" transform="translate(165.976845 0) scale(0.996264)"/>
      <use xlink:href="#NimbusSanL-Regu-28" transform="translate(249.063692 0) scale(0.996264)"/>
      <use xlink:href="#NimbusSanL-Regu-73" transform="translate(282.238922 0) scale(0.996264)"/>
      <use xlink:href="#NimbusSanL-Regu-29" transform="translate(332.052122 0) scale(0.996264)"/>
     </g>
    </g>
   </g>
   <g id="matplotlib.axis_2">
    <g id="ytick_1">
     <g id="line2d_9">
      <defs>
       <path id="me300c97c78" d="M 0 0 
L 10 0 
" style="stroke: #000000; stroke-width: 2"/>
      </defs>
      <g>
       <use xlink:href="#me300c97c78" x="90.004323" y="28.464" style="stroke: #000000; stroke-width: 2"/>
      </g>
     </g>
     <g id="line2d_10">
      <defs>
       <path id="m3e9c78a608" d="M 0 0 
L -10 0 
" style="stroke: #000000; stroke-width: 2"/>
      </defs>
      <g>
       <use xlink:href="#m3e9c78a608" x="424.804323" y="28.464" style="stroke: #000000; stroke-width: 2"/>
      </g>
     </g>
     <g id="text_6">
      <!-- $\mathdefault{10^{0}}$ -->
      <g transform="translate(51.878754 36.981984) scale(0.24 -0.24)">
       <use xlink:href="#CMR17-31" transform="scale(0.996264)"/>
       <use xlink:href="#CMR17-30" transform="translate(45.690477 0) scale(0.996264)"/>
       <use xlink:href="#CMR17-30" transform="translate(91.380954 36.153639) scale(0.697382)"/>
      </g>
     </g>
    </g>
    <g id="ytick_2">
     <g id="line2d_11">
      <g>
       <use xlink:href="#me300c97c78" x="90.004323" y="96.390813" style="stroke: #000000; stroke-width: 2"/>
      </g>
     </g>
     <g id="line2d_12">
      <g>
       <use xlink:href="#m3e9c78a608" x="424.804323" y="96.390813" style="stroke: #000000; stroke-width: 2"/>
      </g>
     </g>
     <g id="text_7">
      <!-- $\mathdefault{10^{-2}}$ -->
      <g transform="translate(38.86092 104.908797) scale(0.24 -0.24)">
       <defs>
        <path id="CMSY10-0" d="M 4218 1472 
C 4326 1472 4442 1472 4442 1600 
C 4442 1728 4326 1728 4218 1728 
L 755 1728 
C 646 1728 531 1728 531 1600 
C 531 1472 646 1472 755 1472 
L 4218 1472 
z
" transform="scale(0.015625)"/>
        <path id="CMR17-32" d="M 2669 990 
L 2554 990 
C 2490 537 2438 460 2413 422 
C 2381 371 1920 371 1830 371 
L 602 371 
C 832 620 1280 1073 1824 1596 
C 2214 1966 2669 2400 2669 3033 
C 2669 3788 2067 4224 1395 4224 
C 691 4224 262 3603 262 3027 
C 262 2777 448 2745 525 2745 
C 589 2745 781 2783 781 3007 
C 781 3206 614 3264 525 3264 
C 486 3264 448 3257 422 3244 
C 544 3788 915 4057 1306 4057 
C 1862 4057 2227 3616 2227 3033 
C 2227 2477 1901 1998 1536 1583 
L 262 147 
L 262 0 
L 2515 0 
L 2669 990 
z
" transform="scale(0.015625)"/>
       </defs>
       <use xlink:href="#CMR17-31" transform="scale(0.996264)"/>
       <use xlink:href="#CMR17-30" transform="translate(45.690477 0) scale(0.996264)"/>
       <use xlink:href="#CMSY10-0" transform="translate(91.380954 36.153639) scale(0.697382)"/>
       <use xlink:href="#CMR17-32" transform="translate(145.621947 36.153639) scale(0.697382)"/>
      </g>
     </g>
    </g>
    <g id="ytick_3">
     <g id="line2d_13">
      <g>
       <use xlink:href="#me300c97c78" x="90.004323" y="164.317625" style="stroke: #000000; stroke-width: 2"/>
      </g>
     </g>
     <g id="line2d_14">
      <g>
       <use xlink:href="#m3e9c78a608" x="424.804323" y="164.317625" style="stroke: #000000; stroke-width: 2"/>
      </g>
     </g>
     <g id="text_8">
      <!-- $\mathdefault{10^{-4}}$ -->
      <g transform="translate(38.86092 172.83561) scale(0.24 -0.24)">
       <defs>
        <path id="CMR17-34" d="M 2150 4147 
C 2150 4281 2144 4288 2029 4288 
L 128 1254 
L 128 1088 
L 1779 1088 
L 1779 460 
C 1779 230 1766 166 1318 166 
L 1197 166 
L 1197 0 
C 1402 12 1747 12 1965 12 
C 2182 12 2528 12 2733 0 
L 2733 166 
L 2611 166 
C 2163 166 2150 230 2150 460 
L 2150 1088 
L 2803 1088 
L 2803 1254 
L 2150 1254 
L 2150 4147 
z
M 1798 3723 
L 1798 1254 
L 256 1254 
L 1798 3723 
z
" transform="scale(0.015625)"/>
       </defs>
       <use xlink:href="#CMR17-31" transform="scale(0.996264)"/>
       <use xlink:href="#CMR17-30" transform="translate(45.690477 0) scale(0.996264)"/>
       <use xlink:href="#CMSY10-0" transform="translate(91.380954 36.153639) scale(0.697382)"/>
       <use xlink:href="#CMR17-34" transform="translate(145.621947 36.153639) scale(0.697382)"/>
      </g>
     </g>
    </g>
    <g id="ytick_4">
     <g id="line2d_15">
      <g>
       <use xlink:href="#me300c97c78" x="90.004323" y="232.244438" style="stroke: #000000; stroke-width: 2"/>
      </g>
     </g>
     <g id="line2d_16">
      <g>
       <use xlink:href="#m3e9c78a608" x="424.804323" y="232.244438" style="stroke: #000000; stroke-width: 2"/>
      </g>
     </g>
     <g id="text_9">
      <!-- $\mathdefault{10^{-6}}$ -->
      <g transform="translate(38.86092 240.762422) scale(0.24 -0.24)">
       <defs>
        <path id="CMR17-36" d="M 678 2198 
C 678 3712 1395 4076 1811 4076 
C 1946 4076 2272 4049 2400 3782 
C 2298 3782 2106 3782 2106 3558 
C 2106 3385 2246 3328 2336 3328 
C 2394 3328 2566 3353 2566 3571 
C 2566 3987 2246 4224 1805 4224 
C 1043 4224 243 3411 243 2011 
C 243 257 966 -128 1478 -128 
C 2099 -128 2688 431 2688 1295 
C 2688 2101 2170 2688 1517 2688 
C 1126 2688 838 2430 678 1979 
L 678 2198 
z
M 1478 25 
C 691 25 691 1212 691 1450 
C 691 1914 909 2585 1504 2585 
C 1613 2585 1926 2585 2138 2140 
C 2253 1889 2253 1624 2253 1302 
C 2253 954 2253 696 2118 438 
C 1978 173 1773 25 1478 25 
z
" transform="scale(0.015625)"/>
       </defs>
       <use xlink:href="#CMR17-31" transform="scale(0.996264)"/>
       <use xlink:href="#CMR17-30" transform="translate(45.690477 0) scale(0.996264)"/>
       <use xlink:href="#CMSY10-0" transform="translate(91.380954 36.153639) scale(0.697382)"/>
       <use xlink:href="#CMR17-36" transform="translate(145.621947 36.153639) scale(0.697382)"/>
      </g>
     </g>
    </g>
    <g id="ytick_5">
     <g id="line2d_17">
      <g>
       <use xlink:href="#me300c97c78" x="90.004323" y="300.171251" style="stroke: #000000; stroke-width: 2"/>
      </g>
     </g>
     <g id="line2d_18">
      <g>
       <use xlink:href="#m3e9c78a608" x="424.804323" y="300.171251" style="stroke: #000000; stroke-width: 2"/>
      </g>
     </g>
     <g id="text_10">
      <!-- $\mathdefault{10^{-8}}$ -->
      <g transform="translate(38.86092 308.689235) scale(0.24 -0.24)">
       <defs>
        <path id="CMR17-38" d="M 1741 2289 
C 2144 2494 2554 2803 2554 3298 
C 2554 3884 1990 4224 1472 4224 
C 890 4224 378 3800 378 3215 
C 378 3054 416 2777 666 2533 
C 730 2469 998 2276 1171 2154 
C 883 2006 211 1652 211 945 
C 211 282 838 -128 1459 -128 
C 2144 -128 2720 366 2720 1022 
C 2720 1607 2330 1877 2074 2051 
L 1741 2289 
z
M 902 2855 
C 851 2887 595 3086 595 3388 
C 595 3781 998 4076 1459 4076 
C 1965 4076 2336 3716 2336 3298 
C 2336 2700 1670 2359 1638 2359 
C 1632 2359 1626 2359 1574 2398 
L 902 2855 
z
M 2080 1536 
C 2176 1466 2483 1253 2483 861 
C 2483 385 2010 25 1472 25 
C 890 25 448 443 448 951 
C 448 1459 838 1884 1280 2083 
L 2080 1536 
z
" transform="scale(0.015625)"/>
       </defs>
       <use xlink:href="#CMR17-31" transform="scale(0.996264)"/>
       <use xlink:href="#CMR17-30" transform="translate(45.690477 0) scale(0.996264)"/>
       <use xlink:href="#CMSY10-0" transform="translate(91.380954 36.153639) scale(0.697382)"/>
       <use xlink:href="#CMR17-38" transform="translate(145.621947 36.153639) scale(0.697382)"/>
      </g>
     </g>
    </g>
    <g id="text_11">
     <!-- $c_{44}$ -->
     <g transform="translate(28.494961 210.676437) rotate(-90) scale(0.3 -0.3)">
      <defs>
       <path id="CMMI12-63" d="M 2502 2432 
C 2381 2432 2323 2432 2234 2355 
C 2195 2323 2125 2227 2125 2124 
C 2125 1996 2221 1919 2342 1919 
C 2496 1919 2669 2047 2669 2303 
C 2669 2591 2374 2816 1933 2816 
C 1094 2816 256 1932 256 1011 
C 256 446 602 -64 1254 -64 
C 2125 -64 2675 622 2675 706 
C 2675 745 2637 777 2611 777 
C 2592 777 2586 771 2528 712 
C 2118 161 1510 64 1267 64 
C 826 64 685 453 685 777 
C 685 1004 794 1634 1024 2073 
C 1190 2374 1536 2687 1939 2687 
C 2022 2687 2374 2676 2502 2432 
z
" transform="scale(0.015625)"/>
      </defs>
      <use xlink:href="#CMMI12-63" transform="scale(0.996264)"/>
      <use xlink:href="#CMR17-34" transform="translate(41.983234 -14.943915) scale(0.697382)"/>
      <use xlink:href="#CMR17-34" transform="translate(73.966416 -14.943915) scale(0.697382)"/>
     </g>
    </g>
   </g>
   <g id="line2d_19">
    <path d="M 105.222505 46.532257 
L 106.19803 113.725885 
L 107.173554 125.788759 
L 108.149079 133.229395 
L 109.124603 138.574309 
L 110.100127 142.722286 
L 111.075652 146.079359 
L 113.026701 151.452962 
L 114.97775 155.793877 
L 116.928799 159.412542 
L 118.879848 162.494061 
L 120.830897 165.172017 
L 122.781946 167.560007 
L 125.708519 170.681979 
L 128.635092 173.324456 
L 131.561666 175.623949 
L 134.488239 177.667452 
L 138.390337 180.105787 
L 142.292435 182.292163 
L 147.170058 184.753077 
L 153.023204 187.407495 
L 159.851876 190.224532 
L 167.656072 193.202968 
L 175.460267 195.940695 
L 183.264463 198.429224 
L 191.068659 200.685002 
L 198.872855 202.714643 
L 207.652575 204.761152 
L 218.383344 207.005719 
L 233.016211 209.792208 
L 255.453274 213.819239 
L 277.890337 217.658597 
L 295.449778 220.450682 
L 313.009218 223.019742 
L 332.519708 225.644444 
L 339.348379 226.51776 
L 339.348379 226.51776 
" clip-path="url(#pd0df2f0b91)" style="fill: none; stroke: #3f90da; stroke-width: 2; stroke-linecap: square"/>
   </g>
   <g id="line2d_20">
    <path d="M 105.222505 46.593258 
L 106.19803 99.022714 
L 107.173554 118.629727 
L 108.149079 129.9326 
L 109.124603 138.533324 
L 110.100127 146.002514 
L 111.075652 151.7543 
L 112.051176 155.830249 
L 113.026701 160.464176 
L 114.002225 163.549424 
L 115.953274 170.729638 
L 116.928799 173.539982 
L 118.879848 177.707688 
L 119.855372 179.512119 
L 120.830897 180.66382 
L 121.806421 184.414213 
L 123.75747 187.408538 
L 124.732995 188.994036 
L 125.708519 189.976331 
L 126.684044 192.060806 
L 127.659568 193.199749 
L 129.610617 196.678278 
L 130.586141 198.313903 
L 131.561666 200.566932 
L 132.53719 201.296073 
L 133.512715 203.314706 
L 134.488239 204.224201 
L 135.463764 205.480854 
L 136.439288 207.325335 
L 138.390337 208.715667 
L 139.365862 211.111788 
L 141.316911 212.550567 
L 142.292435 213.724465 
L 143.26796 214.325594 
L 144.243484 214.657091 
L 145.219009 217.29699 
L 146.194533 218.906354 
L 147.170058 219.41788 
L 148.145582 220.310056 
L 149.121106 220.951604 
L 150.096631 221.743557 
L 151.072155 222.072341 
L 152.04768 222.719479 
L 153.023204 223.916621 
L 153.998729 224.291161 
L 154.974253 225.159628 
L 156.925302 226.715068 
L 157.900827 227.022216 
L 158.876351 228.132767 
L 159.851876 229.643568 
L 161.802925 230.645113 
L 162.778449 232.873736 
L 163.753974 233.575583 
L 164.729498 233.986311 
L 165.705023 235.48397 
L 166.680547 236.138674 
L 167.656072 236.415201 
L 168.631596 238.038328 
L 169.60712 239.314745 
L 171.558169 240.000334 
L 172.533694 241.332488 
L 173.509218 241.635178 
L 174.484743 242.379959 
L 175.460267 242.730299 
L 176.435792 243.823953 
L 177.411316 244.202745 
L 178.386841 244.72909 
L 180.33789 245.541909 
L 181.313414 246.153147 
L 183.264463 247.015046 
L 185.215512 248.133871 
L 186.191037 248.410452 
L 187.166561 249.200647 
L 188.142086 249.810838 
L 189.11761 250.058306 
L 190.093134 250.442488 
L 193.019708 253.147393 
L 193.995232 253.609479 
L 197.89733 255.001682 
L 198.872855 255.750273 
L 199.848379 256.129625 
L 200.823904 256.679497 
L 201.799428 257.657182 
L 202.774953 258.090503 
L 205.701526 258.824937 
L 206.677051 259.245848 
L 207.652575 259.467359 
L 208.628099 259.813483 
L 209.603624 260.406871 
L 210.579148 261.714562 
L 211.554673 261.951034 
L 213.505722 262.721624 
L 214.481246 263.698036 
L 215.456771 264.19513 
L 216.432295 264.402205 
L 217.40782 265.002661 
L 218.383344 265.763207 
L 219.358869 266.06252 
L 220.334393 267.323674 
L 221.309918 267.891369 
L 223.260967 268.403529 
L 225.212016 268.886077 
L 226.18754 269.890437 
L 227.163065 270.420474 
L 228.138589 270.610864 
L 229.114113 271.459672 
L 230.089638 271.838589 
L 231.065162 273.076119 
L 232.040687 273.239171 
L 233.016211 274.081071 
L 233.991736 274.471091 
L 237.893834 275.313779 
L 238.869358 276.518863 
L 239.844883 276.752142 
L 240.820407 277.922713 
L 241.795932 278.674596 
L 242.771456 279.64402 
L 243.746981 279.885596 
L 244.722505 281.416525 
L 245.69803 282.685413 
L 247.649079 283.287211 
L 248.624603 283.715661 
L 249.600127 284.491713 
L 250.575652 284.980785 
L 251.551176 285.130847 
L 253.502225 285.989832 
L 254.47775 286.460134 
L 255.453274 287.514729 
L 256.428799 288.180431 
L 260.330897 289.377668 
L 261.306421 289.732842 
L 262.281946 290.372864 
L 263.25747 291.306353 
L 264.232995 291.580983 
L 265.208519 292.138522 
L 266.184044 292.533667 
L 268.135092 293.104627 
L 269.110617 293.921588 
L 270.086141 296.303168 
L 271.061666 296.641682 
L 272.03719 296.825485 
L 273.012715 297.226782 
L 273.988239 297.365175 
L 274.963764 297.725606 
L 275.939288 297.889219 
L 276.914813 298.649646 
L 277.890337 299.635154 
L 280.816911 300.209332 
L 281.792435 301.510054 
L 282.76796 302.06899 
L 283.743484 303.427057 
L 284.719009 303.950036 
L 285.694533 304.341735 
L 287.645582 304.677086 
L 288.621106 305.195596 
L 289.596631 306.394125 
L 290.572155 306.706061 
L 291.54768 307.206353 
L 293.498729 311.546189 
L 295.449778 312.034398 
L 296.425302 312.126321 
L 297.400827 312.563758 
L 298.376351 312.794799 
L 299.351876 313.335437 
L 301.302925 313.735641 
L 302.278449 314.25777 
L 304.229498 314.615087 
L 306.180547 315.565909 
L 307.156072 317.68358 
L 308.131596 318.033899 
L 309.10712 319.293312 
L 310.082645 320.351551 
L 313.009218 321.039173 
L 313.984743 326.092097 
L 315.935792 326.970821 
L 316.911316 327.1754 
L 317.886841 327.560544 
L 319.83789 328.007856 
L 320.813414 328.38777 
L 321.788939 328.964615 
L 322.764463 329.170286 
L 323.739988 329.768739 
L 325.691037 330.194543 
L 326.666561 330.697904 
L 328.61761 331.0458 
L 329.593134 331.69903 
L 330.568659 332.136818 
L 331.544183 334.028411 
L 333.495232 334.308893 
L 334.470757 335.577672 
L 335.446281 342.154715 
L 335.446281 342.154715 
" clip-path="url(#pd0df2f0b91)" style="fill: none; stroke-dasharray: 10,2; stroke-dashoffset: 0; stroke: #ffa90e; stroke-width: 2"/>
   </g>
   <g id="line2d_21">
    <path d="M 105.222505 46.554347 
L 106.19803 106.677125 
L 107.173554 122.932474 
L 109.124603 140.098088 
L 110.100127 146.381727 
L 111.075652 151.852373 
L 112.051176 158.005766 
L 114.002225 166.805032 
L 114.97775 170.087376 
L 116.928799 174.18387 
L 117.904323 177.768001 
L 119.855372 183.114493 
L 121.806421 185.936877 
L 123.75747 188.319212 
L 125.708519 191.256573 
L 126.684044 193.326686 
L 128.635092 196.36489 
L 129.610617 198.051157 
L 130.586141 200.01122 
L 131.561666 201.59525 
L 132.53719 203.580604 
L 133.512715 204.397617 
L 134.488239 205.669977 
L 135.463764 206.588815 
L 136.439288 207.90953 
L 137.414813 208.558053 
L 138.390337 210.461897 
L 139.365862 210.94266 
L 140.341386 212.077719 
L 141.316911 213.033822 
L 142.292435 214.46896 
L 145.219009 217.506492 
L 146.194533 219.326743 
L 147.170058 220.563585 
L 148.145582 221.448853 
L 149.121106 222.793379 
L 153.998729 227.214243 
L 154.974253 228.550443 
L 156.925302 230.437798 
L 157.900827 231.2485 
L 158.876351 232.580836 
L 159.851876 233.18942 
L 161.802925 233.980565 
L 162.778449 234.688619 
L 163.753974 235.800511 
L 164.729498 236.476069 
L 165.705023 237.514858 
L 166.680547 237.860639 
L 167.656072 238.022717 
L 168.631596 239.708682 
L 169.60712 240.135232 
L 170.582645 240.396625 
L 171.558169 240.948966 
L 172.533694 241.652597 
L 174.484743 242.247205 
L 175.460267 243.175741 
L 176.435792 244.693469 
L 177.411316 246.708629 
L 178.386841 247.164136 
L 179.362365 247.799614 
L 180.33789 248.286178 
L 181.313414 248.623894 
L 184.239988 249.205306 
L 185.215512 249.930394 
L 186.191037 250.119055 
L 187.166561 250.489823 
L 188.142086 251.073242 
L 189.11761 252.476594 
L 191.068659 252.942513 
L 192.044183 254.250604 
L 193.019708 254.545935 
L 193.995232 255.002085 
L 196.921806 255.739222 
L 197.89733 256.306384 
L 198.872855 258.231341 
L 199.848379 258.564924 
L 200.823904 258.719124 
L 202.774953 259.611332 
L 203.750477 260.493249 
L 204.726002 260.632366 
L 205.701526 261.079826 
L 206.677051 262.732004 
L 207.652575 265.093455 
L 208.628099 265.607486 
L 209.603624 265.929746 
L 210.579148 266.090738 
L 211.554673 266.466951 
L 212.530197 267.985046 
L 213.505722 268.631689 
L 215.456771 269.012812 
L 216.432295 269.400859 
L 217.40782 269.659581 
L 218.383344 270.696997 
L 219.358869 271.222455 
L 221.309918 271.516535 
L 222.285442 272.041762 
L 223.260967 272.415855 
L 224.236491 272.588207 
L 225.212016 272.957267 
L 228.138589 273.405059 
L 229.114113 273.564216 
L 230.089638 274.417903 
L 231.065162 275.434627 
L 232.040687 275.644837 
L 233.016211 276.643992 
L 233.991736 277.470145 
L 234.96726 277.837075 
L 235.942785 278.431993 
L 236.918309 278.558628 
L 241.795932 280.002485 
L 242.771456 281.015591 
L 243.746981 281.341489 
L 245.69803 281.717231 
L 246.673554 282.626668 
L 248.624603 283.18977 
L 254.47775 284.484813 
L 255.453274 284.956211 
L 258.379848 285.364384 
L 259.355372 285.598496 
L 260.330897 286.234711 
L 262.281946 286.516717 
L 264.232995 286.725269 
L 265.208519 289.255901 
L 266.184044 293.761477 
L 269.110617 294.245486 
L 270.086141 294.37649 
L 271.061666 294.820031 
L 272.03719 294.98456 
L 273.988239 295.541274 
L 275.939288 295.839464 
L 277.890337 296.200322 
L 278.865862 296.663355 
L 279.841386 296.781643 
L 280.816911 297.068596 
L 281.792435 297.629526 
L 282.76796 298.379396 
L 288.621106 299.239652 
L 289.596631 299.854066 
L 290.572155 300.274668 
L 291.54768 300.378728 
L 292.523204 301.177578 
L 294.474253 302.099053 
L 295.449778 302.255958 
L 296.425302 302.564053 
L 298.376351 302.846757 
L 299.351876 303.165138 
L 302.278449 303.490674 
L 302.278449 303.490674 
" clip-path="url(#pd0df2f0b91)" style="fill: none; stroke-dasharray: 20,6; stroke-dashoffset: 10; stroke: #a96b59; stroke-width: 2"/>
   </g>
   <g id="line2d_22">
    <path d="M 105.222505 46.46297 
L 106.19803 111.95073 
L 107.173554 126.66939 
L 108.149079 138.740793 
L 109.124603 146.464736 
L 111.075652 157.962735 
L 114.97775 173.475252 
L 115.953274 176.337781 
L 116.928799 180.34099 
L 117.904323 183.15751 
L 118.879848 185.395895 
L 119.855372 188.115262 
L 120.830897 190.412034 
L 122.781946 193.522887 
L 124.732995 197.11556 
L 125.708519 198.181423 
L 129.610617 204.412512 
L 130.586141 205.147812 
L 131.561666 206.934559 
L 133.512715 208.574915 
L 134.488239 209.700128 
L 135.463764 211.449093 
L 137.414813 213.372566 
L 138.390337 214.62781 
L 139.365862 215.682187 
L 140.341386 216.30161 
L 141.316911 217.112727 
L 142.292435 219.578441 
L 143.26796 220.164555 
L 144.243484 221.207631 
L 146.194533 222.584158 
L 147.170058 223.926675 
L 148.145582 224.607967 
L 149.121106 225.728246 
L 150.096631 226.539991 
L 151.072155 228.762404 
L 153.998729 230.482984 
L 154.974253 230.856278 
L 156.925302 232.760496 
L 157.900827 233.374715 
L 159.851876 234.312396 
L 160.8274 235.175499 
L 161.802925 235.524212 
L 162.778449 236.90607 
L 164.729498 237.706148 
L 165.705023 238.663587 
L 167.656072 239.36095 
L 168.631596 239.968056 
L 169.60712 240.326146 
L 170.582645 241.39552 
L 171.558169 242.094322 
L 172.533694 243.490802 
L 173.509218 243.914577 
L 174.484743 244.621047 
L 175.460267 245.168341 
L 176.435792 245.476362 
L 178.386841 246.503613 
L 179.362365 247.814678 
L 180.33789 248.12924 
L 181.313414 248.737773 
L 182.288939 249.154301 
L 183.264463 249.363976 
L 184.239988 251.833284 
L 186.191037 252.901596 
L 187.166561 253.086856 
L 188.142086 255.239147 
L 189.11761 256.475454 
L 193.019708 258.183646 
L 193.995232 258.911323 
L 194.970757 259.246963 
L 195.946281 259.872538 
L 198.872855 260.873187 
L 200.823904 262.231708 
L 203.750477 263.910843 
L 204.726002 264.483344 
L 206.677051 265.327118 
L 207.652575 266.062524 
L 208.628099 267.606945 
L 209.603624 268.849502 
L 213.505722 269.854255 
L 214.481246 270.490981 
L 215.456771 270.755463 
L 217.40782 271.950971 
L 220.334393 272.895734 
L 221.309918 273.21343 
L 222.285442 273.914967 
L 223.260967 274.430768 
L 226.18754 275.131488 
L 227.163065 275.914519 
L 230.089638 276.598097 
L 231.065162 276.921868 
L 232.040687 277.488085 
L 233.016211 277.872381 
L 233.991736 278.038798 
L 234.96726 278.77132 
L 235.942785 279.117017 
L 236.918309 280.834892 
L 237.893834 281.01337 
L 240.820407 282.186375 
L 241.795932 282.304061 
L 242.771456 283.331468 
L 244.722505 283.870279 
L 246.673554 284.768684 
L 247.649079 285.750622 
L 248.624603 286.060472 
L 250.575652 286.485493 
L 252.526701 287.215027 
L 253.502225 287.954563 
L 254.47775 288.330411 
L 256.428799 288.861061 
L 259.355372 290.0817 
L 260.330897 293.702225 
L 261.306421 294.39073 
L 263.25747 294.888022 
L 264.232995 295.217517 
L 265.208519 295.331064 
L 267.159568 295.988337 
L 268.135092 296.646385 
L 270.086141 297.199725 
L 272.03719 298.599583 
L 274.963764 299.29606 
L 277.890337 299.860128 
L 278.865862 300.775943 
L 279.841386 301.218289 
L 280.816911 301.404366 
L 281.792435 302.235338 
L 282.76796 303.530791 
L 283.743484 303.629344 
L 284.719009 304.113828 
L 285.694533 305.055824 
L 287.645582 305.429644 
L 288.621106 306.346275 
L 289.596631 306.80059 
L 292.523204 307.179929 
L 293.498729 307.952089 
L 295.449778 308.634571 
L 296.425302 310.795942 
L 297.400827 312.23629 
L 298.376351 312.375505 
L 301.302925 313.278022 
L 304.229498 313.771389 
L 304.229498 313.771389 
" clip-path="url(#pd0df2f0b91)" style="fill: none; stroke-dasharray: 2,2; stroke-dashoffset: 0; stroke: #b9ac70; stroke-width: 2"/>
   </g>
   <g id="line2d_23">
    <path d="M 105.222505 46.491675 
L 106.19803 110.743164 
L 107.173554 126.108396 
L 108.149079 136.681224 
L 109.124603 144.91984 
L 110.100127 151.748022 
L 111.075652 157.433071 
L 112.051176 161.74194 
L 113.026701 167.013494 
L 114.002225 170.522597 
L 114.97775 172.672055 
L 115.953274 176.100204 
L 117.904323 180.16301 
L 118.879848 183.231355 
L 121.806421 188.525336 
L 122.781946 190.261652 
L 123.75747 191.757277 
L 125.708519 196.255204 
L 126.684044 197.011541 
L 127.659568 199.110637 
L 128.635092 200.804805 
L 129.610617 201.593321 
L 131.561666 203.629199 
L 132.53719 204.275039 
L 133.512715 205.105146 
L 134.488239 207.049261 
L 135.463764 207.912936 
L 136.439288 208.601931 
L 137.414813 209.931072 
L 139.365862 211.220765 
L 140.341386 212.212043 
L 141.316911 214.153 
L 142.292435 214.788307 
L 143.26796 215.932433 
L 144.243484 216.862434 
L 145.219009 217.238376 
L 147.170058 218.803605 
L 149.121106 219.866037 
L 152.04768 222.920256 
L 153.998729 223.700191 
L 154.974253 224.22946 
L 155.949778 225.071307 
L 158.876351 226.551473 
L 160.8274 228.667204 
L 161.802925 229.417519 
L 162.778449 231.00652 
L 164.729498 232.012737 
L 165.705023 232.506237 
L 166.680547 232.78577 
L 168.631596 234.008115 
L 169.60712 234.250969 
L 170.582645 234.856937 
L 171.558169 235.144187 
L 173.509218 235.933889 
L 174.484743 236.267427 
L 175.460267 236.927127 
L 176.435792 237.833282 
L 177.411316 239.040965 
L 178.386841 239.50813 
L 179.362365 240.380046 
L 180.33789 241.542587 
L 181.313414 241.742101 
L 182.288939 242.259966 
L 184.239988 242.876192 
L 185.215512 243.251448 
L 186.191037 243.854712 
L 187.166561 244.027743 
L 188.142086 244.544844 
L 189.11761 244.687217 
L 192.044183 245.508333 
L 193.995232 245.889694 
L 194.970757 247.842261 
L 195.946281 248.744154 
L 196.921806 248.963577 
L 199.848379 250.156755 
L 205.701526 251.830519 
L 206.677051 252.305386 
L 207.652575 252.541667 
L 208.628099 253.908667 
L 209.603624 254.30044 
L 210.579148 254.524551 
L 211.554673 255.001581 
L 212.530197 255.16369 
L 213.505722 256.603865 
L 214.481246 257.504526 
L 215.456771 257.834344 
L 216.432295 258.026356 
L 217.40782 258.887758 
L 218.383344 259.37041 
L 219.358869 260.076997 
L 220.334393 260.515792 
L 223.260967 261.268162 
L 224.236491 261.457169 
L 225.212016 262.534352 
L 226.18754 263.952619 
L 227.163065 264.292576 
L 231.065162 265.137847 
L 233.991736 266.604815 
L 236.918309 267.325111 
L 241.795932 268.643611 
L 242.771456 269.775612 
L 243.746981 269.96518 
L 244.722505 270.302838 
L 245.69803 270.778728 
L 246.673554 271.392476 
L 247.649079 273.550387 
L 249.600127 274.091791 
L 250.575652 274.712068 
L 251.551176 274.891179 
L 252.526701 275.266903 
L 253.502225 275.480346 
L 255.453274 276.093468 
L 257.404323 276.586728 
L 258.379848 277.484667 
L 260.330897 277.890787 
L 261.306421 278.227229 
L 265.208519 279.041697 
L 266.184044 279.416981 
L 269.110617 279.926843 
L 270.086141 281.467229 
L 274.963764 283.385751 
L 276.914813 283.735182 
L 278.865862 284.06974 
L 280.816911 284.73454 
L 281.792435 286.421301 
L 282.76796 287.305625 
L 283.743484 288.721016 
L 284.719009 288.877251 
L 285.694533 289.302991 
L 287.645582 289.885783 
L 288.621106 291.404167 
L 289.596631 291.602647 
L 290.572155 291.99554 
L 291.54768 292.161168 
L 292.523204 292.842901 
L 293.498729 294.031866 
L 294.474253 294.138693 
L 295.449778 294.557925 
L 297.400827 295.00261 
L 299.351876 295.520037 
L 300.3274 295.831905 
L 304.229498 296.463482 
L 307.156072 297.339317 
L 308.131596 297.497079 
L 311.058169 298.481303 
L 313.009218 298.839387 
L 313.984743 299.09007 
L 313.984743 299.09007 
" clip-path="url(#pd0df2f0b91)" style="fill: none; stroke-dasharray: 10,2,2,2,2,2; stroke-dashoffset: 0; stroke: #e76300; stroke-width: 2"/>
   </g>
   <g id="patch_3">
    <path d="M 90.004323 361.104 
L 90.004323 28.464 
" style="fill: none; stroke: #000000; stroke-width: 2; stroke-linejoin: miter; stroke-linecap: square"/>
   </g>
   <g id="patch_4">
    <path d="M 424.804323 361.104 
L 424.804323 28.464 
" style="fill: none; stroke: #000000; stroke-width: 2; stroke-linejoin: miter; stroke-linecap: square"/>
   </g>
   <g id="patch_5">
    <path d="M 90.004323 361.104 
L 424.804323 361.104 
" style="fill: none; stroke: #000000; stroke-width: 2; stroke-linejoin: miter; stroke-linecap: square"/>
   </g>
   <g id="patch_6">
    <path d="M 90.004323 28.464 
L 424.804323 28.464 
" style="fill: none; stroke: #000000; stroke-width: 2; stroke-linejoin: miter; stroke-linecap: square"/>
   </g>
   <g id="legend_1">
    <g id="line2d_24">
     <path d="M 514.050019 25.435969 
L 538.050019 25.435969 
L 562.050019 25.435969 
" style="fill: none; stroke: #3f90da; stroke-width: 2; stroke-linecap: square"/>
    </g>
    <g id="text_12">
     <!-- Alt -->
     <g transform="translate(581.250019 33.835969) scale(0.24 -0.24)">
      <defs>
       <path id="NimbusSanL-Regu-41" d="M 3034 1408 
L 3514 0 
L 4179 0 
L 2541 4672 
L 1773 4672 
L 109 0 
L 742 0 
L 1235 1408 
L 3034 1408 
z
M 2867 1907 
L 1382 1907 
L 2150 4032 
L 2867 1907 
z
" transform="scale(0.015625)"/>
       <path id="NimbusSanL-Regu-6c" d="M 973 4672 
L 435 4672 
L 435 0 
L 973 0 
L 973 4672 
z
" transform="scale(0.015625)"/>
       <path id="NimbusSanL-Regu-74" d="M 1626 3328 
L 1075 3328 
L 1075 4249 
L 544 4249 
L 544 3328 
L 90 3328 
L 90 2892 
L 544 2892 
L 544 402 
C 544 64 774 -128 1190 -128 
C 1318 -128 1446 -116 1626 -84 
L 1626 364 
C 1555 345 1472 339 1370 339 
C 1139 339 1075 402 1075 634 
L 1075 2892 
L 1626 2892 
L 1626 3328 
z
" transform="scale(0.015625)"/>
      </defs>
      <use xlink:href="#NimbusSanL-Regu-41" transform="scale(0.996264)"/>
      <use xlink:href="#NimbusSanL-Regu-6c" transform="translate(66.450031 0) scale(0.996264)"/>
      <use xlink:href="#NimbusSanL-Regu-74" transform="translate(88.566815 0) scale(0.996264)"/>
     </g>
    </g>
    <g id="line2d_25">
     <path d="M 514.050019 59.564702 
L 538.050019 59.564702 
L 562.050019 59.564702 
" style="fill: none; stroke-dasharray: 10,2; stroke-dashoffset: 0; stroke: #ffa90e; stroke-width: 2"/>
    </g>
    <g id="text_13">
     <!-- RCG -->
     <g transform="translate(581.250019 67.964702) scale(0.24 -0.24)">
      <defs>
       <path id="NimbusSanL-Regu-52" d="M 1190 2035 
L 2726 2035 
C 3258 2035 3494 1775 3494 1191 
L 3488 770 
C 3488 478 3539 192 3622 0 
L 4346 0 
L 4346 147 
C 4122 303 4077 471 4064 1101 
C 4058 1879 3936 2111 3430 2329 
C 3955 2585 4166 2907 4166 3432 
C 4166 4230 3661 4672 2746 4672 
L 595 4672 
L 595 0 
L 1190 0 
L 1190 2035 
z
M 1190 2560 
L 1190 4147 
L 2630 4147 
C 2963 4147 3155 4096 3302 3970 
C 3462 3837 3546 3628 3546 3350 
C 3546 2806 3264 2560 2630 2560 
L 1190 2560 
z
" transform="scale(0.015625)"/>
       <path id="NimbusSanL-Regu-43" d="M 4237 3219 
C 4051 4236 3462 4736 2438 4736 
C 1811 4736 1306 4537 960 4154 
C 538 3696 307 3035 307 2284 
C 307 1522 544 867 986 415 
C 1344 44 1805 -128 2413 -128 
C 3552 -128 4192 485 4333 1712 
L 3718 1712 
C 3667 1394 3603 1178 3507 994 
C 3315 612 2918 396 2419 396 
C 1491 396 902 1134 902 2291 
C 902 3480 1466 4211 2368 4211 
C 2746 4211 3098 4096 3290 3918 
C 3462 3759 3558 3562 3629 3219 
L 4237 3219 
z
" transform="scale(0.015625)"/>
       <path id="NimbusSanL-Regu-47" d="M 4538 2496 
L 2592 2496 
L 2592 1971 
L 4013 1971 
L 4013 1842 
C 4013 1003 3398 396 2547 396 
C 2074 396 1645 571 1370 874 
C 1062 1209 877 1771 877 2348 
C 877 3472 1530 4211 2515 4211 
C 3226 4211 3738 3854 3866 3265 
L 4474 3265 
C 4307 4192 3590 4736 2522 4736 
C 1952 4736 1491 4588 1126 4287 
C 589 3848 282 3140 282 2316 
C 282 874 1158 -128 2419 -128 
C 3053 -128 3558 108 4013 616 
L 4160 -7 
L 4538 -7 
L 4538 2496 
z
" transform="scale(0.015625)"/>
      </defs>
      <use xlink:href="#NimbusSanL-Regu-52" transform="scale(0.996264)"/>
      <use xlink:href="#NimbusSanL-Regu-43" transform="translate(71.929985 0) scale(0.996264)"/>
      <use xlink:href="#NimbusSanL-Regu-47" transform="translate(143.85997 0) scale(0.996264)"/>
     </g>
    </g>
    <g id="line2d_26">
     <path d="M 514.050019 93.693435 
L 538.050019 93.693435 
L 562.050019 93.693435 
" style="fill: none; stroke-dasharray: 20,6; stroke-dashoffset: 10; stroke: #a96b59; stroke-width: 2"/>
    </g>
    <g id="text_14">
     <!-- Alt-iter5-RCG -->
     <g transform="translate(581.250019 102.093435) scale(0.24 -0.24)">
      <defs>
       <path id="NimbusSanL-Regu-2d" d="M 1818 1996 
L 294 1996 
L 294 1536 
L 1818 1536 
L 1818 1996 
z
" transform="scale(0.015625)"/>
       <path id="NimbusSanL-Regu-72" d="M 442 3328 
L 442 0 
L 979 0 
L 979 1727 
C 979 2203 1101 2514 1357 2698 
C 1523 2819 1683 2857 2054 2863 
L 2054 3404 
C 1965 3449 1920 3456 1850 3456 
C 1504 3456 1242 3251 934 2750 
L 934 3328 
L 442 3328 
z
" transform="scale(0.015625)"/>
       <path id="NimbusSanL-Regu-35" d="M 3046 4544 
L 704 4544 
L 365 2076 
L 883 2076 
C 1146 2387 1363 2496 1715 2496 
C 2323 2496 2707 2082 2707 1414 
C 2707 765 2330 371 1715 371 
C 1222 371 922 619 787 1128 
L 224 1128 
C 301 759 365 581 499 415 
C 755 70 1216 -128 1728 -128 
C 2643 -128 3283 536 3283 1490 
C 3283 2381 2688 2995 1818 2995 
C 1498 2995 1242 2912 979 2720 
L 1158 3987 
L 3046 3987 
L 3046 4544 
z
" transform="scale(0.015625)"/>
      </defs>
      <use xlink:href="#NimbusSanL-Regu-41" transform="scale(0.996264)"/>
      <use xlink:href="#NimbusSanL-Regu-6c" transform="translate(66.450031 0) scale(0.996264)"/>
      <use xlink:href="#NimbusSanL-Regu-74" transform="translate(88.566815 0) scale(0.996264)"/>
      <use xlink:href="#NimbusSanL-Regu-2d" transform="translate(116.261985 0) scale(0.996264)"/>
      <use xlink:href="#NimbusSanL-Regu-69" transform="translate(149.437215 0) scale(0.996264)"/>
      <use xlink:href="#NimbusSanL-Regu-74" transform="translate(171.553999 0) scale(0.996264)"/>
      <use xlink:href="#NimbusSanL-Regu-65" transform="translate(199.249169 0) scale(0.996264)"/>
      <use xlink:href="#NimbusSanL-Regu-72" transform="translate(254.640846 0) scale(0.996264)"/>
      <use xlink:href="#NimbusSanL-Regu-35" transform="translate(287.816075 0) scale(0.996264)"/>
      <use xlink:href="#NimbusSanL-Regu-2d" transform="translate(343.207752 0) scale(0.996264)"/>
      <use xlink:href="#NimbusSanL-Regu-52" transform="translate(376.382982 0) scale(0.996264)"/>
      <use xlink:href="#NimbusSanL-Regu-43" transform="translate(448.312967 0) scale(0.996264)"/>
      <use xlink:href="#NimbusSanL-Regu-47" transform="translate(520.242952 0) scale(0.996264)"/>
     </g>
    </g>
    <g id="line2d_27">
     <path d="M 514.050019 127.822167 
L 538.050019 127.822167 
L 562.050019 127.822167 
" style="fill: none; stroke-dasharray: 2,2; stroke-dashoffset: 0; stroke: #b9ac70; stroke-width: 2"/>
    </g>
    <g id="text_15">
     <!-- Alt-iter10-RCG -->
     <g transform="translate(581.250019 136.222167) scale(0.24 -0.24)">
      <defs>
       <path id="NimbusSanL-Regu-31" d="M 1658 3232 
L 1658 0 
L 2221 0 
L 2221 4537 
L 1850 4537 
C 1651 3840 1523 3744 653 3635 
L 653 3232 
L 1658 3232 
z
" transform="scale(0.015625)"/>
       <path id="NimbusSanL-Regu-30" d="M 1760 4544 
C 1338 4544 954 4358 717 4044 
C 422 3649 275 3043 275 2207 
C 275 683 787 -128 1760 -128 
C 2720 -128 3245 683 3245 2169 
C 3245 3049 3104 3636 2803 4044 
C 2566 4364 2189 4544 1760 4544 
z
M 1760 4044 
C 2368 4044 2669 3432 2669 2220 
C 2669 938 2374 339 1747 339 
C 1152 339 851 964 851 2201 
C 851 3438 1152 4044 1760 4044 
z
" transform="scale(0.015625)"/>
      </defs>
      <use xlink:href="#NimbusSanL-Regu-41" transform="scale(0.996264)"/>
      <use xlink:href="#NimbusSanL-Regu-6c" transform="translate(66.450031 0) scale(0.996264)"/>
      <use xlink:href="#NimbusSanL-Regu-74" transform="translate(88.566815 0) scale(0.996264)"/>
      <use xlink:href="#NimbusSanL-Regu-2d" transform="translate(116.261985 0) scale(0.996264)"/>
      <use xlink:href="#NimbusSanL-Regu-69" transform="translate(149.437215 0) scale(0.996264)"/>
      <use xlink:href="#NimbusSanL-Regu-74" transform="translate(171.553999 0) scale(0.996264)"/>
      <use xlink:href="#NimbusSanL-Regu-65" transform="translate(199.249169 0) scale(0.996264)"/>
      <use xlink:href="#NimbusSanL-Regu-72" transform="translate(254.640846 0) scale(0.996264)"/>
      <use xlink:href="#NimbusSanL-Regu-31" transform="translate(287.816075 0) scale(0.996264)"/>
      <use xlink:href="#NimbusSanL-Regu-30" transform="translate(343.207752 0) scale(0.996264)"/>
      <use xlink:href="#NimbusSanL-Regu-2d" transform="translate(398.599429 0) scale(0.996264)"/>
      <use xlink:href="#NimbusSanL-Regu-52" transform="translate(431.774659 0) scale(0.996264)"/>
      <use xlink:href="#NimbusSanL-Regu-43" transform="translate(503.704644 0) scale(0.996264)"/>
      <use xlink:href="#NimbusSanL-Regu-47" transform="translate(575.634629 0) scale(0.996264)"/>
     </g>
    </g>
    <g id="line2d_28">
     <path d="M 514.050019 161.9509 
L 538.050019 161.9509 
L 562.050019 161.9509 
" style="fill: none; stroke-dasharray: 10,2,2,2,2,2; stroke-dashoffset: 0; stroke: #e76300; stroke-width: 2"/>
    </g>
    <g id="text_16">
     <!-- Alt-iter20-RCG -->
     <g transform="translate(581.250019 170.3509) scale(0.24 -0.24)">
      <defs>
       <path id="NimbusSanL-Regu-32" d="M 3238 556 
L 851 556 
C 909 928 1114 1165 1670 1493 
L 2310 1839 
C 2944 2185 3270 2653 3270 3211 
C 3270 3589 3117 3942 2848 4185 
C 2579 4428 2246 4544 1818 4544 
C 1242 4544 813 4339 563 3955 
C 403 3711 333 3429 320 2967 
L 883 2967 
C 902 3275 941 3461 1018 3608 
C 1165 3884 1459 4051 1798 4051 
C 2310 4051 2694 3685 2694 3198 
C 2694 2839 2483 2531 2080 2300 
L 1491 1967 
C 544 1428 269 999 218 0 
L 3238 0 
L 3238 556 
z
" transform="scale(0.015625)"/>
      </defs>
      <use xlink:href="#NimbusSanL-Regu-41" transform="scale(0.996264)"/>
      <use xlink:href="#NimbusSanL-Regu-6c" transform="translate(66.450031 0) scale(0.996264)"/>
      <use xlink:href="#NimbusSanL-Regu-74" transform="translate(88.566815 0) scale(0.996264)"/>
      <use xlink:href="#NimbusSanL-Regu-2d" transform="translate(116.261985 0) scale(0.996264)"/>
      <use xlink:href="#NimbusSanL-Regu-69" transform="translate(149.437215 0) scale(0.996264)"/>
      <use xlink:href="#NimbusSanL-Regu-74" transform="translate(171.553999 0) scale(0.996264)"/>
      <use xlink:href="#NimbusSanL-Regu-65" transform="translate(199.249169 0) scale(0.996264)"/>
      <use xlink:href="#NimbusSanL-Regu-72" transform="translate(254.640846 0) scale(0.996264)"/>
      <use xlink:href="#NimbusSanL-Regu-32" transform="translate(287.816075 0) scale(0.996264)"/>
      <use xlink:href="#NimbusSanL-Regu-30" transform="translate(343.207752 0) scale(0.996264)"/>
      <use xlink:href="#NimbusSanL-Regu-2d" transform="translate(398.599429 0) scale(0.996264)"/>
      <use xlink:href="#NimbusSanL-Regu-52" transform="translate(431.774659 0) scale(0.996264)"/>
      <use xlink:href="#NimbusSanL-Regu-43" transform="translate(503.704644 0) scale(0.996264)"/>
      <use xlink:href="#NimbusSanL-Regu-47" transform="translate(575.634629 0) scale(0.996264)"/>
     </g>
    </g>
   </g>
  </g>
 </g>
 <defs>
  <clipPath id="pd0df2f0b91">
   <rect x="90.004323" y="28.464" width="334.8" height="332.64"/>
  </clipPath>
 </defs>
</svg>
