<?xml version="1.0" encoding="utf-8" standalone="no"?>
<!DOCTYPE svg PUBLIC "-//W3C//DTD SVG 1.1//EN"
  "http://www.w3.org/Graphics/SVG/1.1/DTD/svg11.dtd">
<svg xmlns:xlink="http://www.w3.org/1999/xlink" width="754.804323pt" height="434.646755pt" viewBox="0 0 754.804323 434.646755" xmlns="http://www.w3.org/2000/svg" version="1.1">
 <metadata>
  <rdf:RDF xmlns:dc="http://purl.org/dc/elements/1.1/" xmlns:cc="http://creativecommons.org/ns#" xmlns:rdf="http://www.w3.org/1999/02/22-rdf-syntax-ns#">
   <cc:Work>
    <dc:type rdf:resource="http://purl.org/dc/dcmitype/StillImage"/>
    <dc:date>2026-03-11T14:38:56.592327</dc:date>
    <dc:format>image/svg+xml</dc:format>
    <dc:creator>
     <cc:Agent>
      <dc:title>Matplotlib v3.8.0, https://matplotlib.org/</dc:title>
     </cc:Agent>
    </dc:creator>
   </cc:Work>
  </rdf:RDF>
 </metadata>
 <defs>
  <style type="text/css">*{stroke-linejoin: round; stroke-linecap: butt}</style>
 </defs>
 <g id="figure_1">
  <g id="patch_1">
   <path d="M 0 434.646755 
L 754.804323 434.646755 
L 754.804323 0 
L 0 0 
L 0 434.646755 
z
" style="fill: none"/>
  </g>
  <g id="axes_1">
   <g id="patch_2">
    <path d="M 90.004323 361.104 
L 424.804323 361.104 
L 424.804323 28.464 
L 90.004323 28.464 
L 90.004323 361.104 
z
" style="fill: none"/>
   </g>
   <g id="matplotlib.axis_1">
    <g id="xtick_1">
     <g id="line2d_1">
      <defs>
       <path id="m62d2691726" d="M 0 0 
L 0 -10 
" style="stroke: #000000; stroke-width: 2"/>
      </defs>
      <g>
       <use xlink:href="#m62d2691726" x="105.222505" y="361.104" style="stroke: #000000; stroke-width: 2"/>
      </g>
     </g>
     <g id="line2d_2">
      <defs>
       <path id="m57d6f47dfa" d="M 0 0 
L 0 10 
" style="stroke: #000000; stroke-width: 2"/>
      </defs>
      <g>
       <use xlink:href="#m57d6f47dfa" x="105.222505" y="28.464" style="stroke: #000000; stroke-width: 2"/>
      </g>
     </g>
     <g id="text_1">
      <!-- $\mathdefault{0}$ -->
      <g transform="translate(99.739648 390.139969) scale(0.24 -0.24)">
       <defs>
        <path id="CMR17-30" d="M 2688 2038 
C 2688 2430 2682 3099 2413 3613 
C 2176 4063 1798 4224 1466 4224 
C 1158 4224 768 4082 525 3620 
C 269 3137 243 2539 243 2038 
C 243 1671 250 1112 448 623 
C 723 -39 1216 -128 1466 -128 
C 1760 -128 2208 -7 2470 604 
C 2662 1048 2688 1568 2688 2038 
z
M 1466 -26 
C 1056 -26 813 328 723 816 
C 653 1196 653 1749 653 2109 
C 653 2604 653 3015 736 3407 
C 858 3954 1216 4121 1466 4121 
C 1728 4121 2067 3947 2189 3420 
C 2272 3054 2278 2623 2278 2109 
C 2278 1691 2278 1176 2202 797 
C 2067 96 1690 -26 1466 -26 
z
" transform="scale(0.015625)"/>
       </defs>
       <use xlink:href="#CMR17-30" transform="scale(0.996264)"/>
      </g>
     </g>
    </g>
    <g id="xtick_2">
     <g id="line2d_3">
      <g>
       <use xlink:href="#m62d2691726" x="202.774953" y="361.104" style="stroke: #000000; stroke-width: 2"/>
      </g>
     </g>
     <g id="line2d_4">
      <g>
       <use xlink:href="#m57d6f47dfa" x="202.774953" y="28.464" style="stroke: #000000; stroke-width: 2"/>
      </g>
     </g>
     <g id="text_2">
      <!-- $\mathdefault{50}$ -->
      <g transform="translate(191.809238 390.139969) scale(0.24 -0.24)">
       <defs>
        <path id="CMR17-35" d="M 730 3750 
C 794 3724 1056 3641 1325 3641 
C 1920 3641 2246 3961 2432 4140 
C 2432 4191 2432 4224 2394 4224 
C 2387 4224 2374 4224 2323 4198 
C 2099 4102 1837 4032 1517 4032 
C 1325 4032 1037 4055 723 4191 
C 653 4224 640 4224 634 4224 
C 602 4224 595 4217 595 4090 
L 595 2231 
C 595 2113 595 2080 659 2080 
C 691 2080 704 2093 736 2139 
C 941 2435 1222 2560 1542 2560 
C 1766 2560 2246 2415 2246 1293 
C 2246 1087 2246 716 2054 422 
C 1894 159 1645 25 1370 25 
C 947 25 518 319 403 812 
C 429 806 480 793 506 793 
C 589 793 749 838 749 1036 
C 749 1209 627 1280 506 1280 
C 358 1280 262 1190 262 1011 
C 262 454 704 -128 1382 -128 
C 2042 -128 2669 441 2669 1267 
C 2669 2054 2170 2662 1549 2662 
C 1222 2662 947 2540 730 2304 
L 730 3750 
z
" transform="scale(0.015625)"/>
       </defs>
       <use xlink:href="#CMR17-35" transform="scale(0.996264)"/>
       <use xlink:href="#CMR17-30" transform="translate(45.690477 0) scale(0.996264)"/>
      </g>
     </g>
    </g>
    <g id="xtick_3">
     <g id="line2d_5">
      <g>
       <use xlink:href="#m62d2691726" x="300.3274" y="361.104" style="stroke: #000000; stroke-width: 2"/>
      </g>
     </g>
     <g id="line2d_6">
      <g>
       <use xlink:href="#m57d6f47dfa" x="300.3274" y="28.464" style="stroke: #000000; stroke-width: 2"/>
      </g>
     </g>
     <g id="text_3">
      <!-- $\mathdefault{100}$ -->
      <g transform="translate(283.878828 390.139969) scale(0.24 -0.24)">
       <defs>
        <path id="CMR17-31" d="M 1702 4083 
C 1702 4217 1696 4224 1606 4224 
C 1357 3927 979 3833 621 3820 
C 602 3820 570 3820 563 3808 
C 557 3795 557 3782 557 3648 
C 755 3648 1088 3686 1344 3839 
L 1344 467 
C 1344 243 1331 166 781 166 
L 589 166 
L 589 0 
C 896 6 1216 12 1523 12 
C 1830 12 2150 6 2458 0 
L 2458 166 
L 2266 166 
C 1715 166 1702 236 1702 467 
L 1702 4083 
z
" transform="scale(0.015625)"/>
       </defs>
       <use xlink:href="#CMR17-31" transform="scale(0.996264)"/>
       <use xlink:href="#CMR17-30" transform="translate(45.690477 0) scale(0.996264)"/>
       <use xlink:href="#CMR17-30" transform="translate(91.380954 0) scale(0.996264)"/>
      </g>
     </g>
    </g>
    <g id="xtick_4">
     <g id="line2d_7">
      <g>
       <use xlink:href="#m62d2691726" x="397.879848" y="361.104" style="stroke: #000000; stroke-width: 2"/>
      </g>
     </g>
     <g id="line2d_8">
      <g>
       <use xlink:href="#m57d6f47dfa" x="397.879848" y="28.464" style="stroke: #000000; stroke-width: 2"/>
      </g>
     </g>
     <g id="text_4">
      <!-- $\mathdefault{150}$ -->
      <g transform="translate(381.431276 390.139969) scale(0.24 -0.24)">
       <use xlink:href="#CMR17-31" transform="scale(0.996264)"/>
       <use xlink:href="#CMR17-35" transform="translate(45.690477 0) scale(0.996264)"/>
       <use xlink:href="#CMR17-30" transform="translate(91.380954 0) scale(0.996264)"/>
      </g>
     </g>
    </g>
    <g id="text_5">
     <!-- Time (s) -->
     <g transform="translate(202.620239 421.080795) scale(0.3 -0.3)">
      <defs>
       <path id="NimbusSanL-Regu-54" d="M 2266 4147 
L 3795 4147 
L 3795 4672 
L 134 4672 
L 134 4147 
L 1670 4147 
L 1670 0 
L 2266 0 
L 2266 4147 
z
" transform="scale(0.015625)"/>
       <path id="NimbusSanL-Regu-69" d="M 960 3358 
L 429 3358 
L 429 0 
L 960 0 
L 960 3358 
z
M 960 4672 
L 422 4672 
L 422 3999 
L 960 3999 
L 960 4672 
z
" transform="scale(0.015625)"/>
       <path id="NimbusSanL-Regu-6d" d="M 448 3328 
L 448 0 
L 986 0 
L 986 2089 
C 986 2597 1338 2988 1773 2988 
C 2170 2988 2394 2744 2394 2315 
L 2394 0 
L 2931 0 
L 2931 2109 
C 2931 2597 3283 2988 3718 2988 
C 4109 2988 4339 2738 4339 2315 
L 4339 0 
L 4877 0 
L 4877 2520 
C 4877 3123 4531 3456 3904 3456 
C 3456 3456 3187 3321 2874 2943 
C 2675 3302 2406 3456 1971 3456 
C 1523 3456 1229 3289 941 2886 
L 941 3328 
L 448 3328 
z
" transform="scale(0.015625)"/>
       <path id="NimbusSanL-Regu-65" d="M 3283 1484 
C 3283 1998 3245 2311 3149 2565 
C 2931 3123 2419 3456 1792 3456 
C 858 3456 256 2734 256 1619 
C 256 545 838 -128 1779 -128 
C 2547 -128 3078 307 3213 1018 
L 2675 1018 
C 2528 588 2227 364 1798 364 
C 1459 364 1171 514 992 787 
C 864 974 819 1161 813 1484 
L 3283 1484 
z
M 826 1920 
C 870 2552 1248 2963 1786 2963 
C 2310 2963 2714 2519 2714 1959 
C 2714 1946 2714 1933 2707 1920 
L 826 1920 
z
" transform="scale(0.015625)"/>
       <path id="NimbusSanL-Regu-28" d="M 1510 4672 
C 870 3833 467 2668 467 1663 
C 467 652 870 -513 1510 -1351 
L 1862 -1351 
C 1299 -436 986 639 986 1663 
C 986 2681 1299 3763 1862 4672 
L 1510 4672 
z
" transform="scale(0.015625)"/>
       <path id="NimbusSanL-Regu-73" d="M 2803 2428 
C 2797 3084 2362 3456 1587 3456 
C 806 3456 301 3052 301 2434 
C 301 1912 570 1663 1363 1472 
L 1862 1351 
C 2234 1262 2381 1129 2381 887 
C 2381 574 2067 364 1600 364 
C 1312 364 1069 447 934 587 
C 851 683 813 778 781 1014 
L 218 1014 
C 243 243 678 -128 1555 -128 
C 2400 -128 2938 288 2938 931 
C 2938 1428 2656 1702 1990 1861 
L 1478 1982 
C 1043 2084 858 2224 858 2459 
C 858 2765 1133 2963 1568 2963 
C 1997 2963 2227 2778 2240 2428 
L 2803 2428 
z
" transform="scale(0.015625)"/>
       <path id="NimbusSanL-Regu-29" d="M 595 -1351 
C 1235 -513 1638 652 1638 1657 
C 1638 2668 1235 3833 595 4672 
L 243 4672 
C 806 3756 1120 2681 1120 1657 
C 1120 639 806 -442 243 -1351 
L 595 -1351 
z
" transform="scale(0.015625)"/>
      </defs>
      <use xlink:href="#NimbusSanL-Regu-54" transform="scale(0.996264)"/>
      <use xlink:href="#NimbusSanL-Regu-69" transform="translate(60.871631 0) scale(0.996264)"/>
      <use xlink:href="#NimbusSanL-Regu-6d" transform="translate(82.988415 0) scale(0.996264)"/>
      <use xlink:href="#NimbusSanL-Regu-65" transform="translate(165.976845 0) scale(0.996264)"/>
      <use xlink:href="#NimbusSanL-Regu-28" transform="translate(249.063692 0) scale(0.996264)"/>
      <use xlink:href="#NimbusSanL-Regu-73" transform="translate(282.238922 0) scale(0.996264)"/>
      <use xlink:href="#NimbusSanL-Regu-29" transform="translate(332.052122 0) scale(0.996264)"/>
     </g>
    </g>
   </g>
   <g id="matplotlib.axis_2">
    <g id="ytick_1">
     <g id="line2d_9">
      <defs>
       <path id="m4a23ac2e21" d="M 0 0 
L 10 0 
" style="stroke: #000000; stroke-width: 2"/>
      </defs>
      <g>
       <use xlink:href="#m4a23ac2e21" x="90.004323" y="28.464" style="stroke: #000000; stroke-width: 2"/>
      </g>
     </g>
     <g id="line2d_10">
      <defs>
       <path id="m438417d5e5" d="M 0 0 
L -10 0 
" style="stroke: #000000; stroke-width: 2"/>
      </defs>
      <g>
       <use xlink:href="#m438417d5e5" x="424.804323" y="28.464" style="stroke: #000000; stroke-width: 2"/>
      </g>
     </g>
     <g id="text_6">
      <!-- $\mathdefault{10^{0}}$ -->
      <g transform="translate(51.878754 36.981984) scale(0.24 -0.24)">
       <use xlink:href="#CMR17-31" transform="scale(0.996264)"/>
       <use xlink:href="#CMR17-30" transform="translate(45.690477 0) scale(0.996264)"/>
       <use xlink:href="#CMR17-30" transform="translate(91.380954 36.153639) scale(0.697382)"/>
      </g>
     </g>
    </g>
    <g id="ytick_2">
     <g id="line2d_11">
      <g>
       <use xlink:href="#m4a23ac2e21" x="90.004323" y="96.390813" style="stroke: #000000; stroke-width: 2"/>
      </g>
     </g>
     <g id="line2d_12">
      <g>
       <use xlink:href="#m438417d5e5" x="424.804323" y="96.390813" style="stroke: #000000; stroke-width: 2"/>
      </g>
     </g>
     <g id="text_7">
      <!-- $\mathdefault{10^{-2}}$ -->
      <g transform="translate(38.86092 104.908797) scale(0.24 -0.24)">
       <defs>
        <path id="CMSY10-0" d="M 4218 1472 
C 4326 1472 4442 1472 4442 1600 
C 4442 1728 4326 1728 4218 1728 
L 755 1728 
C 646 1728 531 1728 531 1600 
C 531 1472 646 1472 755 1472 
L 4218 1472 
z
" transform="scale(0.015625)"/>
        <path id="CMR17-32" d="M 2669 990 
L 2554 990 
C 2490 537 2438 460 2413 422 
C 2381 371 1920 371 1830 371 
L 602 371 
C 832 620 1280 1073 1824 1596 
C 2214 1966 2669 2400 2669 3033 
C 2669 3788 2067 4224 1395 4224 
C 691 4224 262 3603 262 3027 
C 262 2777 448 2745 525 2745 
C 589 2745 781 2783 781 3007 
C 781 3206 614 3264 525 3264 
C 486 3264 448 3257 422 3244 
C 544 3788 915 4057 1306 4057 
C 1862 4057 2227 3616 2227 3033 
C 2227 2477 1901 1998 1536 1583 
L 262 147 
L 262 0 
L 2515 0 
L 2669 990 
z
" transform="scale(0.015625)"/>
       </defs>
       <use xlink:href="#CMR17-31" transform="scale(0.996264)"/>
       <use xlink:href="#CMR17-30" transform="translate(45.690477 0) scale(0.996264)"/>
       <use xlink:href="#CMSY10-0" transform="translate(91.380954 36.153639) scale(0.697382)"/>
       <use xlink:href="#CMR17-32" transform="translate(145.621947 36.153639) scale(0.697382)"/>
      </g>
     </g>
    </g>
    <g id="ytick_3">
     <g id="line2d_13">
      <g>
       <use xlink:href="#m4a23ac2e21" x="90.004323" y="164.317625" style="stroke: #000000; stroke-width: 2"/>
      </g>
     </g>
     <g id="line2d_14">
      <g>
       <use xlink:href="#m438417d5e5" x="424.804323" y="164.317625" style="stroke: #000000; stroke-width: 2"/>
      </g>
     </g>
     <g id="text_8">
      <!-- $\mathdefault{10^{-4}}$ -->
      <g transform="translate(38.86092 172.83561) scale(0.24 -0.24)">
       <defs>
        <path id="CMR17-34" d="M 2150 4147 
C 2150 4281 2144 4288 2029 4288 
L 128 1254 
L 128 1088 
L 1779 1088 
L 1779 460 
C 1779 230 1766 166 1318 166 
L 1197 166 
L 1197 0 
C 1402 12 1747 12 1965 12 
C 2182 12 2528 12 2733 0 
L 2733 166 
L 2611 166 
C 2163 166 2150 230 2150 460 
L 2150 1088 
L 2803 1088 
L 2803 1254 
L 2150 1254 
L 2150 4147 
z
M 1798 3723 
L 1798 1254 
L 256 1254 
L 1798 3723 
z
" transform="scale(0.015625)"/>
       </defs>
       <use xlink:href="#CMR17-31" transform="scale(0.996264)"/>
       <use xlink:href="#CMR17-30" transform="translate(45.690477 0) scale(0.996264)"/>
       <use xlink:href="#CMSY10-0" transform="translate(91.380954 36.153639) scale(0.697382)"/>
       <use xlink:href="#CMR17-34" transform="translate(145.621947 36.153639) scale(0.697382)"/>
      </g>
     </g>
    </g>
    <g id="ytick_4">
     <g id="line2d_15">
      <g>
       <use xlink:href="#m4a23ac2e21" x="90.004323" y="232.244438" style="stroke: #000000; stroke-width: 2"/>
      </g>
     </g>
     <g id="line2d_16">
      <g>
       <use xlink:href="#m438417d5e5" x="424.804323" y="232.244438" style="stroke: #000000; stroke-width: 2"/>
      </g>
     </g>
     <g id="text_9">
      <!-- $\mathdefault{10^{-6}}$ -->
      <g transform="translate(38.86092 240.762422) scale(0.24 -0.24)">
       <defs>
        <path id="CMR17-36" d="M 678 2198 
C 678 3712 1395 4076 1811 4076 
C 1946 4076 2272 4049 2400 3782 
C 2298 3782 2106 3782 2106 3558 
C 2106 3385 2246 3328 2336 3328 
C 2394 3328 2566 3353 2566 3571 
C 2566 3987 2246 4224 1805 4224 
C 1043 4224 243 3411 243 2011 
C 243 257 966 -128 1478 -128 
C 2099 -128 2688 431 2688 1295 
C 2688 2101 2170 2688 1517 2688 
C 1126 2688 838 2430 678 1979 
L 678 2198 
z
M 1478 25 
C 691 25 691 1212 691 1450 
C 691 1914 909 2585 1504 2585 
C 1613 2585 1926 2585 2138 2140 
C 2253 1889 2253 1624 2253 1302 
C 2253 954 2253 696 2118 438 
C 1978 173 1773 25 1478 25 
z
" transform="scale(0.015625)"/>
       </defs>
       <use xlink:href="#CMR17-31" transform="scale(0.996264)"/>
       <use xlink:href="#CMR17-30" transform="translate(45.690477 0) scale(0.996264)"/>
       <use xlink:href="#CMSY10-0" transform="translate(91.380954 36.153639) scale(0.697382)"/>
       <use xlink:href="#CMR17-36" transform="translate(145.621947 36.153639) scale(0.697382)"/>
      </g>
     </g>
    </g>
    <g id="ytick_5">
     <g id="line2d_17">
      <g>
       <use xlink:href="#m4a23ac2e21" x="90.004323" y="300.171251" style="stroke: #000000; stroke-width: 2"/>
      </g>
     </g>
     <g id="line2d_18">
      <g>
       <use xlink:href="#m438417d5e5" x="424.804323" y="300.171251" style="stroke: #000000; stroke-width: 2"/>
      </g>
     </g>
     <g id="text_10">
      <!-- $\mathdefault{10^{-8}}$ -->
      <g transform="translate(38.86092 308.689235) scale(0.24 -0.24)">
       <defs>
        <path id="CMR17-38" d="M 1741 2289 
C 2144 2494 2554 2803 2554 3298 
C 2554 3884 1990 4224 1472 4224 
C 890 4224 378 3800 378 3215 
C 378 3054 416 2777 666 2533 
C 730 2469 998 2276 1171 2154 
C 883 2006 211 1652 211 945 
C 211 282 838 -128 1459 -128 
C 2144 -128 2720 366 2720 1022 
C 2720 1607 2330 1877 2074 2051 
L 1741 2289 
z
M 902 2855 
C 851 2887 595 3086 595 3388 
C 595 3781 998 4076 1459 4076 
C 1965 4076 2336 3716 2336 3298 
C 2336 2700 1670 2359 1638 2359 
C 1632 2359 1626 2359 1574 2398 
L 902 2855 
z
M 2080 1536 
C 2176 1466 2483 1253 2483 861 
C 2483 385 2010 25 1472 25 
C 890 25 448 443 448 951 
C 448 1459 838 1884 1280 2083 
L 2080 1536 
z
" transform="scale(0.015625)"/>
       </defs>
       <use xlink:href="#CMR17-31" transform="scale(0.996264)"/>
       <use xlink:href="#CMR17-30" transform="translate(45.690477 0) scale(0.996264)"/>
       <use xlink:href="#CMSY10-0" transform="translate(91.380954 36.153639) scale(0.697382)"/>
       <use xlink:href="#CMR17-38" transform="translate(145.621947 36.153639) scale(0.697382)"/>
      </g>
     </g>
    </g>
    <g id="text_11">
     <!-- $c_{44}$ -->
     <g transform="translate(28.494961 210.676437) rotate(-90) scale(0.3 -0.3)">
      <defs>
       <path id="CMMI12-63" d="M 2502 2432 
C 2381 2432 2323 2432 2234 2355 
C 2195 2323 2125 2227 2125 2124 
C 2125 1996 2221 1919 2342 1919 
C 2496 1919 2669 2047 2669 2303 
C 2669 2591 2374 2816 1933 2816 
C 1094 2816 256 1932 256 1011 
C 256 446 602 -64 1254 -64 
C 2125 -64 2675 622 2675 706 
C 2675 745 2637 777 2611 777 
C 2592 777 2586 771 2528 712 
C 2118 161 1510 64 1267 64 
C 826 64 685 453 685 777 
C 685 1004 794 1634 1024 2073 
C 1190 2374 1536 2687 1939 2687 
C 2022 2687 2374 2676 2502 2432 
z
" transform="scale(0.015625)"/>
      </defs>
      <use xlink:href="#CMMI12-63" transform="scale(0.996264)"/>
      <use xlink:href="#CMR17-34" transform="translate(41.983234 -14.943915) scale(0.697382)"/>
      <use xlink:href="#CMR17-34" transform="translate(73.966416 -14.943915) scale(0.697382)"/>
     </g>
    </g>
   </g>
   <g id="line2d_19">
    <path d="M 105.222505 46.532257 
L 106.19803 113.725885 
L 107.173554 125.788759 
L 108.149079 133.229395 
L 109.124603 138.574309 
L 110.100127 142.722286 
L 111.075652 146.079359 
L 113.026701 151.452962 
L 114.97775 155.793877 
L 116.928799 159.412542 
L 118.879848 162.494061 
L 120.830897 165.172017 
L 122.781946 167.560007 
L 125.708519 170.681979 
L 128.635092 173.324456 
L 131.561666 175.623949 
L 134.488239 177.667452 
L 138.390337 180.105787 
L 142.292435 182.292163 
L 147.170058 184.753077 
L 153.023204 187.407495 
L 159.851876 190.224532 
L 167.656072 193.202968 
L 175.460267 195.940695 
L 183.264463 198.429224 
L 191.068659 200.685002 
L 198.872855 202.714643 
L 207.652575 204.761152 
L 218.383344 207.005719 
L 233.016211 209.792208 
L 255.453274 213.819239 
L 277.890337 217.658597 
L 295.449778 220.450682 
L 313.009218 223.019742 
L 332.519708 225.644444 
L 339.348379 226.51776 
L 339.348379 226.51776 
" clip-path="url(#pe15af3a531)" style="fill: none; stroke: #3f90da; stroke-width: 2; stroke-linecap: square"/>
   </g>
   <g id="line2d_20">
    <path d="M 105.222505 46.491675 
L 106.19803 91.418728 
L 107.173554 98.677238 
L 108.149079 125.003505 
L 109.124603 133.437067 
L 110.100127 135.311004 
L 112.051176 143.89125 
L 113.026701 143.366322 
L 114.002225 144.387448 
L 114.97775 160.995797 
L 115.953274 179.974573 
L 116.928799 166.696904 
L 117.904323 167.612337 
L 118.879848 174.345945 
L 119.855372 179.025725 
L 120.830897 179.60451 
L 121.806421 179.250454 
L 122.781946 180.099266 
L 123.75747 181.936577 
L 125.708519 186.461521 
L 126.684044 188.032761 
L 127.659568 188.871216 
L 128.635092 188.988868 
L 129.610617 188.520625 
L 130.586141 187.767548 
L 131.561666 187.208378 
L 132.53719 187.307473 
L 133.512715 188.606931 
L 134.488239 192.044602 
L 135.463764 198.707237 
L 136.439288 208.128062 
L 137.414813 215.051006 
L 138.390337 214.569204 
L 139.365862 210.978856 
L 140.341386 208.867559 
L 141.316911 208.703551 
L 142.292435 209.863267 
L 143.26796 211.940741 
L 145.219009 216.761321 
L 146.194533 218.484086 
L 147.170058 219.596401 
L 148.145582 220.170593 
L 149.121106 220.37372 
L 151.072155 220.556257 
L 152.04768 220.940408 
L 153.023204 221.583136 
L 153.998729 222.443114 
L 155.949778 224.625817 
L 157.900827 226.952716 
L 158.876351 227.923581 
L 159.851876 228.707421 
L 161.802925 229.826726 
L 164.729498 231.137914 
L 166.680547 232.436752 
L 168.631596 234.154484 
L 171.558169 236.932918 
L 173.509218 238.351563 
L 175.460267 239.344402 
L 178.386841 240.717896 
L 179.362365 241.347162 
L 181.313414 242.991973 
L 185.215512 246.809076 
L 186.191037 247.516169 
L 187.166561 248.024154 
L 189.11761 248.599431 
L 191.068659 249.024939 
L 192.044183 249.367093 
L 193.019708 249.898223 
L 193.995232 250.644942 
L 195.946281 252.68124 
L 198.872855 256.164896 
L 199.848379 257.031664 
L 200.823904 257.588904 
L 201.799428 257.856362 
L 202.774953 257.910313 
L 205.701526 257.707827 
L 206.677051 257.825016 
L 207.652575 258.151928 
L 208.628099 258.690396 
L 209.603624 259.409453 
L 211.554673 261.251512 
L 214.481246 264.217552 
L 215.456771 264.9671 
L 216.432295 265.559295 
L 218.383344 266.335539 
L 222.285442 267.313981 
L 225.212016 268.461275 
L 232.040687 271.518927 
L 233.991736 272.500152 
L 235.942785 273.771395 
L 241.795932 278.034686 
L 243.746981 278.930814 
L 247.649079 280.413425 
L 249.600127 281.524524 
L 251.551176 282.947128 
L 254.47775 285.193054 
L 256.428799 286.322918 
L 258.379848 287.076081 
L 262.281946 288.26792 
L 264.232995 289.11337 
L 273.012715 293.42945 
L 283.743484 298.192091 
L 290.572155 301.090982 
L 331.544183 318.190279 
L 414.463764 350.996525 
L 530.551176 395.525688 
L 530.551176 395.525688 
" clip-path="url(#pe15af3a531)" style="fill: none; stroke-dasharray: 12.8,3.2,2,3.2; stroke-dashoffset: 0; stroke: #bd1f01; stroke-width: 2"/>
   </g>
   <g id="line2d_21">
    <path d="M 105.222505 46.572842 
L 106.19803 90.421028 
L 107.173554 101.104757 
L 108.149079 115.183064 
L 109.124603 109.847685 
L 110.100127 111.817344 
L 111.075652 126.11239 
L 112.051176 147.748673 
L 113.026701 143.929488 
L 114.002225 137.4446 
L 114.97775 137.634827 
L 115.953274 143.532291 
L 116.928799 150.120969 
L 117.904323 152.376937 
L 118.879848 151.396426 
L 119.855372 150.662842 
L 120.830897 151.231039 
L 121.806421 152.683436 
L 122.781946 154.587412 
L 123.75747 156.134387 
L 124.732995 156.641473 
L 125.708519 156.539892 
L 126.684044 156.839666 
L 127.659568 158.424071 
L 128.635092 162.217462 
L 129.610617 168.683818 
L 130.586141 176.558992 
L 131.561666 181.796517 
L 132.53719 181.914345 
L 134.488239 176.495519 
L 135.463764 175.318736 
L 136.439288 175.357085 
L 137.414813 176.352286 
L 138.390337 178.034704 
L 140.341386 182.09044 
L 141.316911 183.639494 
L 142.292435 184.694313 
L 143.26796 185.311053 
L 144.243484 185.612446 
L 148.145582 186.191503 
L 152.04768 186.222759 
L 156.925302 186.912366 
L 158.876351 187.510794 
L 159.851876 188.023103 
L 160.8274 188.740564 
L 162.778449 190.690836 
L 164.729498 192.741779 
L 165.705023 193.572959 
L 166.680547 194.162372 
L 167.656072 194.500383 
L 168.631596 194.640629 
L 172.533694 194.610642 
L 173.509218 194.835302 
L 175.460267 195.733564 
L 179.362365 198.001798 
L 180.33789 198.426447 
L 181.313414 198.711478 
L 182.288939 198.845041 
L 184.239988 198.817516 
L 186.191037 198.714139 
L 188.142086 198.894038 
L 189.11761 199.181696 
L 191.068659 200.18748 
L 194.970757 202.674579 
L 196.921806 203.488753 
L 197.89733 203.731683 
L 199.848379 203.883863 
L 205.701526 203.700551 
L 206.677051 203.859401 
L 207.652575 204.155874 
L 208.628099 204.61431 
L 210.579148 205.870678 
L 212.530197 207.201903 
L 214.481246 208.126766 
L 218.383344 209.577864 
L 220.334393 210.830948 
L 225.212016 214.571738 
L 226.18754 215.063641 
L 227.163065 215.390764 
L 228.138589 215.568548 
L 230.089638 215.563143 
L 232.040687 215.245676 
L 235.942785 214.500565 
L 237.893834 214.443471 
L 238.869358 214.570778 
L 239.844883 214.83562 
L 240.820407 215.260648 
L 242.771456 216.470537 
L 244.722505 217.819066 
L 246.673554 218.862525 
L 248.624603 219.575694 
L 253.502225 221.090057 
L 256.428799 222.329621 
L 260.330897 224.277907 
L 264.232995 226.256087 
L 267.159568 227.479256 
L 270.086141 228.411767 
L 273.012715 229.091837 
L 276.914813 229.718638 
L 284.719009 230.794181 
L 287.645582 231.448454 
L 291.54768 232.59302 
L 303.253974 236.397086 
L 305.205023 236.775339 
L 307.156072 236.987711 
L 310.082645 237.043247 
L 313.984743 236.821685 
L 319.83789 236.473104 
L 322.764463 236.553598 
L 324.715512 236.786559 
L 326.666561 237.202681 
L 329.593134 238.084983 
L 334.470757 239.632045 
L 336.421806 240.034303 
L 339.348379 240.364877 
L 343.250477 240.506026 
L 348.128099 240.703011 
L 351.054673 241.112433 
L 353.981246 241.855075 
L 356.90782 242.885813 
L 359.834393 244.147173 
L 364.712016 246.544386 
L 368.614113 248.381661 
L 370.565162 249.114603 
L 372.516211 249.630065 
L 374.46726 249.917437 
L 376.418309 250.012744 
L 379.344883 249.89841 
L 387.149079 249.295456 
L 389.100127 249.339559 
L 391.051176 249.558433 
L 393.002225 250.009591 
L 394.953274 250.721384 
L 396.904323 251.662942 
L 399.830897 253.419859 
L 406.659568 257.926913 
L 408.610617 258.795231 
L 410.561666 259.345445 
L 412.512715 259.629403 
L 415.439288 259.722926 
L 420.316911 259.730963 
L 423.243484 260.052968 
L 426.170058 260.640769 
L 429.096631 261.446075 
L 432.998729 262.769383 
L 441.778449 265.916698 
L 445.680547 266.929641 
L 449.582645 267.684021 
L 456.411316 268.687545 
L 461.288939 269.493592 
L 462.264463 269.693259 
L 462.264463 269.693259 
" clip-path="url(#pe15af3a531)" style="fill: none; stroke-dasharray: 20,6; stroke-dashoffset: 10; stroke: #a96b59; stroke-width: 2"/>
   </g>
   <g id="line2d_22">
    <path d="M 105.222505 46.46297 
L 106.19803 98.015588 
L 108.149079 116.728536 
L 109.124603 121.088537 
L 110.100127 127.6587 
L 111.075652 132.094489 
L 113.026701 139.727529 
L 114.002225 142.399353 
L 114.97775 142.843306 
L 115.953274 145.448499 
L 116.928799 155.999983 
L 117.904323 158.953494 
L 118.879848 155.836877 
L 119.855372 155.536511 
L 121.806421 157.76498 
L 122.781946 158.755415 
L 123.75747 160.604473 
L 124.732995 164.428861 
L 126.684044 177.082616 
L 127.659568 181.297674 
L 128.635092 181.533648 
L 130.586141 177.372863 
L 131.561666 176.577055 
L 132.53719 176.802327 
L 133.512715 177.997133 
L 138.390337 187.780615 
L 139.365862 189.211944 
L 140.341386 189.824849 
L 142.292435 190.229126 
L 143.26796 190.591631 
L 146.194533 192.161656 
L 151.072155 194.865344 
L 153.998729 196.839107 
L 156.925302 198.853935 
L 158.876351 199.90371 
L 159.851876 200.272179 
L 161.802925 200.663248 
L 163.753974 200.729707 
L 168.631596 200.473406 
L 174.484743 200.126248 
L 175.460267 200.296584 
L 176.435792 200.612993 
L 177.411316 201.10138 
L 178.386841 201.79453 
L 179.362365 202.733926 
L 180.33789 203.979446 
L 181.313414 205.577072 
L 182.288939 207.509862 
L 184.239988 212.215466 
L 186.191037 217.181274 
L 187.166561 219.094883 
L 188.142086 220.404317 
L 189.11761 221.101246 
L 190.093134 221.267159 
L 191.068659 221.040302 
L 194.970757 219.3248 
L 195.946281 219.197503 
L 197.89733 219.303216 
L 199.848379 219.792195 
L 201.799428 220.611307 
L 203.750477 221.73381 
L 207.652575 224.228661 
L 209.603624 225.201724 
L 211.554673 225.977009 
L 213.505722 226.584657 
L 215.456771 227.031021 
L 218.383344 227.421616 
L 222.285442 227.598649 
L 225.212016 227.796755 
L 227.163065 228.121502 
L 229.114113 228.674864 
L 231.065162 229.429478 
L 233.991736 230.839143 
L 241.795932 234.984504 
L 243.746981 235.615293 
L 245.69803 235.857114 
L 247.649079 235.813357 
L 251.551176 235.643472 
L 253.502225 235.903768 
L 254.47775 236.209956 
L 255.453274 236.675942 
L 256.428799 237.327913 
L 258.379848 239.110315 
L 263.25747 244.302046 
L 264.232995 244.857357 
L 265.208519 245.137075 
L 266.184044 245.191927 
L 268.135092 244.887093 
L 270.086141 244.47949 
L 271.061666 244.396068 
L 272.03719 244.474691 
L 273.012715 244.761271 
L 274.963764 245.760452 
L 276.914813 246.830281 
L 278.865862 247.639224 
L 280.816911 248.187965 
L 282.76796 248.510546 
L 284.719009 248.652913 
L 287.645582 248.62916 
L 295.449778 248.34238 
L 297.400827 248.490801 
L 299.351876 248.830529 
L 301.302925 249.391111 
L 304.229498 250.514435 
L 308.131596 252.075305 
L 311.058169 252.968822 
L 315.935792 254.379062 
L 317.886841 255.14305 
L 320.813414 256.580778 
L 323.739988 258.327362 
L 327.642086 261.004225 
L 332.519708 264.408396 
L 334.470757 265.543071 
L 336.421806 266.381365 
L 338.372855 266.88346 
L 341.299428 267.240971 
L 344.226002 267.545665 
L 346.177051 267.976474 
L 348.128099 268.725544 
L 350.079148 269.756462 
L 353.005722 271.689192 
L 356.90782 274.45071 
L 358.858869 275.532979 
L 360.809918 276.163395 
L 362.760967 276.374501 
L 364.712016 276.284533 
L 371.540687 275.589401 
L 373.491736 275.787023 
L 375.442785 276.208332 
L 378.369358 277.10769 
L 384.222505 278.997674 
L 389.100127 280.309629 
L 395.928799 281.877819 
L 410.561666 285.17721 
L 422.26796 288.046944 
L 427.145582 288.926196 
L 432.998729 289.745892 
L 451.533694 292.141113 
L 481.774953 296.401304 
L 519.820407 301.44644 
L 534.453274 303.364731 
L 556.890337 306.277997 
L 559.816911 306.674328 
L 559.816911 306.674328 
" clip-path="url(#pe15af3a531)" style="fill: none; stroke-dasharray: 2,2; stroke-dashoffset: 0; stroke: #b9ac70; stroke-width: 2"/>
   </g>
   <g id="line2d_23">
    <path d="M 105.222505 46.664904 
L 106.19803 104.680249 
L 107.173554 108.574566 
L 108.149079 116.386127 
L 109.124603 119.973262 
L 111.075652 128.985429 
L 112.051176 131.339002 
L 113.026701 134.436314 
L 114.002225 138.207582 
L 115.953274 146.526204 
L 117.904323 149.960605 
L 118.879848 151.984476 
L 119.855372 153.373849 
L 120.830897 154.40386 
L 121.806421 155.657938 
L 122.781946 156.674717 
L 123.75747 157.387092 
L 124.732995 158.247812 
L 125.708519 158.510708 
L 126.684044 158.408962 
L 127.659568 158.695534 
L 128.635092 159.784255 
L 129.610617 162.373243 
L 130.586141 167.313045 
L 132.53719 182.273946 
L 133.512715 186.017522 
L 134.488239 184.476608 
L 135.463764 180.941785 
L 136.439288 178.370533 
L 137.414813 177.539022 
L 138.390337 178.148489 
L 139.365862 179.921755 
L 141.316911 184.600293 
L 142.292435 186.658021 
L 143.26796 188.422381 
L 144.243484 189.865899 
L 145.219009 190.827491 
L 146.194533 191.303154 
L 147.170058 191.368633 
L 149.121106 191.068556 
L 150.096631 191.136923 
L 151.072155 191.446406 
L 153.023204 192.396905 
L 153.998729 192.993743 
L 154.974253 193.754052 
L 156.925302 195.720287 
L 158.876351 197.769485 
L 159.851876 198.568479 
L 161.802925 199.680878 
L 164.729498 200.937516 
L 167.656072 201.934492 
L 169.60712 202.387458 
L 171.558169 202.552573 
L 173.509218 202.367433 
L 177.411316 201.636557 
L 178.386841 201.59122 
L 179.362365 201.672259 
L 180.33789 201.9182 
L 181.313414 202.349001 
L 182.288939 202.973808 
L 183.264463 203.810374 
L 184.239988 204.914276 
L 185.215512 206.387509 
L 186.191037 208.273723 
L 187.166561 210.592957 
L 188.142086 213.368878 
L 190.093134 220.075149 
L 192.044183 226.587874 
L 193.019708 229.024897 
L 193.995232 230.514552 
L 194.970757 230.905669 
L 195.946281 230.311619 
L 196.921806 229.080499 
L 198.872855 226.100467 
L 199.848379 224.830598 
L 200.823904 223.889361 
L 201.799428 223.265801 
L 202.774953 222.917082 
L 203.750477 222.795092 
L 204.726002 222.862188 
L 205.701526 223.089428 
L 207.652575 223.92678 
L 209.603624 225.117621 
L 211.554673 226.546384 
L 213.505722 228.212685 
L 219.358869 233.629522 
L 221.309918 234.959712 
L 223.260967 235.981053 
L 225.212016 236.764506 
L 228.138589 237.638868 
L 231.065162 238.247578 
L 234.96726 239.057818 
L 236.918309 239.672007 
L 238.869358 240.472022 
L 241.795932 242.022226 
L 247.649079 245.36315 
L 251.551176 247.167411 
L 266.184044 253.661635 
L 274.963764 258.272042 
L 277.890337 259.361301 
L 283.743484 261.412371 
L 286.670058 262.833219 
L 290.572155 265.093099 
L 293.498729 266.728998 
L 295.449778 267.574039 
L 297.400827 268.174689 
L 301.302925 268.997343 
L 303.253974 269.460072 
L 305.205023 270.150987 
L 307.156072 271.130247 
L 310.082645 272.983544 
L 313.984743 275.524183 
L 315.935792 276.404186 
L 317.886841 276.877325 
L 319.83789 277.051116 
L 325.691037 277.216003 
L 327.642086 277.649326 
L 329.593134 278.467804 
L 331.544183 279.616827 
L 333.495232 281.017049 
L 338.372855 284.743582 
L 339.348379 285.306947 
L 340.323904 285.736147 
L 341.299428 286.035331 
L 343.250477 286.295865 
L 345.201526 286.2275 
L 350.079148 285.709259 
L 352.030197 285.774542 
L 353.981246 286.092145 
L 356.90782 286.873323 
L 363.736491 288.88792 
L 372.516211 291.426192 
L 386.173554 295.792375 
L 394.953274 298.045241 
L 398.855372 299.359283 
L 406.659568 302.135143 
L 411.53719 303.493033 
L 416.414813 304.838628 
L 420.316911 306.212195 
L 429.096631 309.593 
L 432.998729 310.700315 
L 439.8274 312.511447 
L 442.753974 313.535 
L 447.631596 315.532565 
L 451.533694 317.10595 
L 455.435792 318.4031 
L 463.239988 320.839947 
L 467.142086 322.40813 
L 474.946281 325.669527 
L 478.848379 326.954042 
L 484.701526 328.796001 
L 487.628099 329.931052 
L 492.505722 332.132077 
L 497.383344 334.290603 
L 501.285442 335.715288 
L 508.114113 338.101126 
L 512.016211 339.790474 
L 520.795932 343.770214 
L 525.673554 345.541391 
L 530.551176 347.354243 
L 534.453274 349.134877 
L 538.355372 351.099198 
L 538.355372 351.099198 
" clip-path="url(#pe15af3a531)" style="fill: none; stroke-dasharray: 10,2,2,2,2,2; stroke-dashoffset: 0; stroke: #e76300; stroke-width: 2"/>
   </g>
   <g id="patch_3">
    <path d="M 90.004323 361.104 
L 90.004323 28.464 
" style="fill: none; stroke: #000000; stroke-width: 2; stroke-linejoin: miter; stroke-linecap: square"/>
   </g>
   <g id="patch_4">
    <path d="M 424.804323 361.104 
L 424.804323 28.464 
" style="fill: none; stroke: #000000; stroke-width: 2; stroke-linejoin: miter; stroke-linecap: square"/>
   </g>
   <g id="patch_5">
    <path d="M 90.004323 361.104 
L 424.804323 361.104 
" style="fill: none; stroke: #000000; stroke-width: 2; stroke-linejoin: miter; stroke-linecap: square"/>
   </g>
   <g id="patch_6">
    <path d="M 90.004323 28.464 
L 424.804323 28.464 
" style="fill: none; stroke: #000000; stroke-width: 2; stroke-linejoin: miter; stroke-linecap: square"/>
   </g>
   <g id="legend_1">
    <g id="line2d_24">
     <path d="M 501.496798 25.435969 
L 525.496798 25.435969 
L 549.496798 25.435969 
" style="fill: none; stroke: #3f90da; stroke-width: 2; stroke-linecap: square"/>
    </g>
    <g id="text_12">
     <!-- Alt -->
     <g transform="translate(568.696798 33.835969) scale(0.24 -0.24)">
      <defs>
       <path id="NimbusSanL-Regu-41" d="M 3034 1408 
L 3514 0 
L 4179 0 
L 2541 4672 
L 1773 4672 
L 109 0 
L 742 0 
L 1235 1408 
L 3034 1408 
z
M 2867 1907 
L 1382 1907 
L 2150 4032 
L 2867 1907 
z
" transform="scale(0.015625)"/>
       <path id="NimbusSanL-Regu-6c" d="M 973 4672 
L 435 4672 
L 435 0 
L 973 0 
L 973 4672 
z
" transform="scale(0.015625)"/>
       <path id="NimbusSanL-Regu-74" d="M 1626 3328 
L 1075 3328 
L 1075 4249 
L 544 4249 
L 544 3328 
L 90 3328 
L 90 2892 
L 544 2892 
L 544 402 
C 544 64 774 -128 1190 -128 
C 1318 -128 1446 -116 1626 -84 
L 1626 364 
C 1555 345 1472 339 1370 339 
C 1139 339 1075 402 1075 634 
L 1075 2892 
L 1626 2892 
L 1626 3328 
z
" transform="scale(0.015625)"/>
      </defs>
      <use xlink:href="#NimbusSanL-Regu-41" transform="scale(0.996264)"/>
      <use xlink:href="#NimbusSanL-Regu-6c" transform="translate(66.450031 0) scale(0.996264)"/>
      <use xlink:href="#NimbusSanL-Regu-74" transform="translate(88.566815 0) scale(0.996264)"/>
     </g>
    </g>
    <g id="line2d_25">
     <path d="M 501.496798 59.564702 
L 525.496798 59.564702 
L 549.496798 59.564702 
" style="fill: none; stroke-dasharray: 12.8,3.2,2,3.2; stroke-dashoffset: 0; stroke: #bd1f01; stroke-width: 2"/>
    </g>
    <g id="text_13">
     <!-- RTRN -->
     <g transform="translate(568.696798 67.964702) scale(0.24 -0.24)">
      <defs>
       <path id="NimbusSanL-Regu-52" d="M 1190 2035 
L 2726 2035 
C 3258 2035 3494 1775 3494 1191 
L 3488 770 
C 3488 478 3539 192 3622 0 
L 4346 0 
L 4346 147 
C 4122 303 4077 471 4064 1101 
C 4058 1879 3936 2111 3430 2329 
C 3955 2585 4166 2907 4166 3432 
C 4166 4230 3661 4672 2746 4672 
L 595 4672 
L 595 0 
L 1190 0 
L 1190 2035 
z
M 1190 2560 
L 1190 4147 
L 2630 4147 
C 2963 4147 3155 4096 3302 3970 
C 3462 3837 3546 3628 3546 3350 
C 3546 2806 3264 2560 2630 2560 
L 1190 2560 
z
" transform="scale(0.015625)"/>
       <path id="NimbusSanL-Regu-4e" d="M 4134 4672 
L 3571 4672 
L 3571 852 
L 1133 4672 
L 486 4672 
L 486 0 
L 1050 0 
L 1050 3787 
L 3462 0 
L 4134 0 
L 4134 4672 
z
" transform="scale(0.015625)"/>
      </defs>
      <use xlink:href="#NimbusSanL-Regu-52" transform="scale(0.996264)"/>
      <use xlink:href="#NimbusSanL-Regu-54" transform="translate(68.941877 0) scale(0.996264)"/>
      <use xlink:href="#NimbusSanL-Regu-52" transform="translate(129.813508 0) scale(0.996264)"/>
      <use xlink:href="#NimbusSanL-Regu-4e" transform="translate(201.743492 0) scale(0.996264)"/>
     </g>
    </g>
    <g id="line2d_26">
     <path d="M 501.496798 93.693435 
L 525.496798 93.693435 
L 549.496798 93.693435 
" style="fill: none; stroke-dasharray: 20,6; stroke-dashoffset: 10; stroke: #a96b59; stroke-width: 2"/>
    </g>
    <g id="text_14">
     <!-- Alt-iter5-RTRN -->
     <g transform="translate(568.696798 102.093435) scale(0.24 -0.24)">
      <defs>
       <path id="NimbusSanL-Regu-2d" d="M 1818 1996 
L 294 1996 
L 294 1536 
L 1818 1536 
L 1818 1996 
z
" transform="scale(0.015625)"/>
       <path id="NimbusSanL-Regu-72" d="M 442 3328 
L 442 0 
L 979 0 
L 979 1727 
C 979 2203 1101 2514 1357 2698 
C 1523 2819 1683 2857 2054 2863 
L 2054 3404 
C 1965 3449 1920 3456 1850 3456 
C 1504 3456 1242 3251 934 2750 
L 934 3328 
L 442 3328 
z
" transform="scale(0.015625)"/>
       <path id="NimbusSanL-Regu-35" d="M 3046 4544 
L 704 4544 
L 365 2076 
L 883 2076 
C 1146 2387 1363 2496 1715 2496 
C 2323 2496 2707 2082 2707 1414 
C 2707 765 2330 371 1715 371 
C 1222 371 922 619 787 1128 
L 224 1128 
C 301 759 365 581 499 415 
C 755 70 1216 -128 1728 -128 
C 2643 -128 3283 536 3283 1490 
C 3283 2381 2688 2995 1818 2995 
C 1498 2995 1242 2912 979 2720 
L 1158 3987 
L 3046 3987 
L 3046 4544 
z
" transform="scale(0.015625)"/>
      </defs>
      <use xlink:href="#NimbusSanL-Regu-41" transform="scale(0.996264)"/>
      <use xlink:href="#NimbusSanL-Regu-6c" transform="translate(66.450031 0) scale(0.996264)"/>
      <use xlink:href="#NimbusSanL-Regu-74" transform="translate(88.566815 0) scale(0.996264)"/>
      <use xlink:href="#NimbusSanL-Regu-2d" transform="translate(116.261985 0) scale(0.996264)"/>
      <use xlink:href="#NimbusSanL-Regu-69" transform="translate(149.437215 0) scale(0.996264)"/>
      <use xlink:href="#NimbusSanL-Regu-74" transform="translate(171.553999 0) scale(0.996264)"/>
      <use xlink:href="#NimbusSanL-Regu-65" transform="translate(199.249169 0) scale(0.996264)"/>
      <use xlink:href="#NimbusSanL-Regu-72" transform="translate(254.640846 0) scale(0.996264)"/>
      <use xlink:href="#NimbusSanL-Regu-35" transform="translate(287.816075 0) scale(0.996264)"/>
      <use xlink:href="#NimbusSanL-Regu-2d" transform="translate(343.207752 0) scale(0.996264)"/>
      <use xlink:href="#NimbusSanL-Regu-52" transform="translate(376.382982 0) scale(0.996264)"/>
      <use xlink:href="#NimbusSanL-Regu-54" transform="translate(445.324859 0) scale(0.996264)"/>
      <use xlink:href="#NimbusSanL-Regu-52" transform="translate(506.19649 0) scale(0.996264)"/>
      <use xlink:href="#NimbusSanL-Regu-4e" transform="translate(578.126475 0) scale(0.996264)"/>
     </g>
    </g>
    <g id="line2d_27">
     <path d="M 501.496798 127.822167 
L 525.496798 127.822167 
L 549.496798 127.822167 
" style="fill: none; stroke-dasharray: 2,2; stroke-dashoffset: 0; stroke: #b9ac70; stroke-width: 2"/>
    </g>
    <g id="text_15">
     <!-- Alt-iter10-RTRN -->
     <g transform="translate(568.696798 136.222167) scale(0.24 -0.24)">
      <defs>
       <path id="NimbusSanL-Regu-31" d="M 1658 3232 
L 1658 0 
L 2221 0 
L 2221 4537 
L 1850 4537 
C 1651 3840 1523 3744 653 3635 
L 653 3232 
L 1658 3232 
z
" transform="scale(0.015625)"/>
       <path id="NimbusSanL-Regu-30" d="M 1760 4544 
C 1338 4544 954 4358 717 4044 
C 422 3649 275 3043 275 2207 
C 275 683 787 -128 1760 -128 
C 2720 -128 3245 683 3245 2169 
C 3245 3049 3104 3636 2803 4044 
C 2566 4364 2189 4544 1760 4544 
z
M 1760 4044 
C 2368 4044 2669 3432 2669 2220 
C 2669 938 2374 339 1747 339 
C 1152 339 851 964 851 2201 
C 851 3438 1152 4044 1760 4044 
z
" transform="scale(0.015625)"/>
      </defs>
      <use xlink:href="#NimbusSanL-Regu-41" transform="scale(0.996264)"/>
      <use xlink:href="#NimbusSanL-Regu-6c" transform="translate(66.450031 0) scale(0.996264)"/>
      <use xlink:href="#NimbusSanL-Regu-74" transform="translate(88.566815 0) scale(0.996264)"/>
      <use xlink:href="#NimbusSanL-Regu-2d" transform="translate(116.261985 0) scale(0.996264)"/>
      <use xlink:href="#NimbusSanL-Regu-69" transform="translate(149.437215 0) scale(0.996264)"/>
      <use xlink:href="#NimbusSanL-Regu-74" transform="translate(171.553999 0) scale(0.996264)"/>
      <use xlink:href="#NimbusSanL-Regu-65" transform="translate(199.249169 0) scale(0.996264)"/>
      <use xlink:href="#NimbusSanL-Regu-72" transform="translate(254.640846 0) scale(0.996264)"/>
      <use xlink:href="#NimbusSanL-Regu-31" transform="translate(287.816075 0) scale(0.996264)"/>
      <use xlink:href="#NimbusSanL-Regu-30" transform="translate(343.207752 0) scale(0.996264)"/>
      <use xlink:href="#NimbusSanL-Regu-2d" transform="translate(398.599429 0) scale(0.996264)"/>
      <use xlink:href="#NimbusSanL-Regu-52" transform="translate(431.774659 0) scale(0.996264)"/>
      <use xlink:href="#NimbusSanL-Regu-54" transform="translate(500.716536 0) scale(0.996264)"/>
      <use xlink:href="#NimbusSanL-Regu-52" transform="translate(561.588167 0) scale(0.996264)"/>
      <use xlink:href="#NimbusSanL-Regu-4e" transform="translate(633.518152 0) scale(0.996264)"/>
     </g>
    </g>
    <g id="line2d_28">
     <path d="M 501.496798 161.9509 
L 525.496798 161.9509 
L 549.496798 161.9509 
" style="fill: none; stroke-dasharray: 10,2,2,2,2,2; stroke-dashoffset: 0; stroke: #e76300; stroke-width: 2"/>
    </g>
    <g id="text_16">
     <!-- Alt-iter20-RTRN -->
     <g transform="translate(568.696798 170.3509) scale(0.24 -0.24)">
      <defs>
       <path id="NimbusSanL-Regu-32" d="M 3238 556 
L 851 556 
C 909 928 1114 1165 1670 1493 
L 2310 1839 
C 2944 2185 3270 2653 3270 3211 
C 3270 3589 3117 3942 2848 4185 
C 2579 4428 2246 4544 1818 4544 
C 1242 4544 813 4339 563 3955 
C 403 3711 333 3429 320 2967 
L 883 2967 
C 902 3275 941 3461 1018 3608 
C 1165 3884 1459 4051 1798 4051 
C 2310 4051 2694 3685 2694 3198 
C 2694 2839 2483 2531 2080 2300 
L 1491 1967 
C 544 1428 269 999 218 0 
L 3238 0 
L 3238 556 
z
" transform="scale(0.015625)"/>
      </defs>
      <use xlink:href="#NimbusSanL-Regu-41" transform="scale(0.996264)"/>
      <use xlink:href="#NimbusSanL-Regu-6c" transform="translate(66.450031 0) scale(0.996264)"/>
      <use xlink:href="#NimbusSanL-Regu-74" transform="translate(88.566815 0) scale(0.996264)"/>
      <use xlink:href="#NimbusSanL-Regu-2d" transform="translate(116.261985 0) scale(0.996264)"/>
      <use xlink:href="#NimbusSanL-Regu-69" transform="translate(149.437215 0) scale(0.996264)"/>
      <use xlink:href="#NimbusSanL-Regu-74" transform="translate(171.553999 0) scale(0.996264)"/>
      <use xlink:href="#NimbusSanL-Regu-65" transform="translate(199.249169 0) scale(0.996264)"/>
      <use xlink:href="#NimbusSanL-Regu-72" transform="translate(254.640846 0) scale(0.996264)"/>
      <use xlink:href="#NimbusSanL-Regu-32" transform="translate(287.816075 0) scale(0.996264)"/>
      <use xlink:href="#NimbusSanL-Regu-30" transform="translate(343.207752 0) scale(0.996264)"/>
      <use xlink:href="#NimbusSanL-Regu-2d" transform="translate(398.599429 0) scale(0.996264)"/>
      <use xlink:href="#NimbusSanL-Regu-52" transform="translate(431.774659 0) scale(0.996264)"/>
      <use xlink:href="#NimbusSanL-Regu-54" transform="translate(500.716536 0) scale(0.996264)"/>
      <use xlink:href="#NimbusSanL-Regu-52" transform="translate(561.588167 0) scale(0.996264)"/>
      <use xlink:href="#NimbusSanL-Regu-4e" transform="translate(633.518152 0) scale(0.996264)"/>
     </g>
    </g>
   </g>
  </g>
 </g>
 <defs>
  <clipPath id="pe15af3a531">
   <rect x="90.004323" y="28.464" width="334.8" height="332.64"/>
  </clipPath>
 </defs>
</svg>
