<?xml version="1.0" encoding="utf-8" standalone="no"?>
<!DOCTYPE svg PUBLIC "-//W3C//DTD SVG 1.1//EN"
  "http://www.w3.org/Graphics/SVG/1.1/DTD/svg11.dtd">
<svg xmlns:xlink="http://www.w3.org/1999/xlink" width="664.249338pt" height="421.247836pt" viewBox="0 0 664.249338 421.247836" xmlns="http://www.w3.org/2000/svg" version="1.1">
 <metadata>
  <rdf:RDF xmlns:dc="http://purl.org/dc/elements/1.1/" xmlns:cc="http://creativecommons.org/ns#" xmlns:rdf="http://www.w3.org/1999/02/22-rdf-syntax-ns#">
   <cc:Work>
    <dc:type rdf:resource="http://purl.org/dc/dcmitype/StillImage"/>
    <dc:date>2026-03-11T14:30:52.643121</dc:date>
    <dc:format>image/svg+xml</dc:format>
    <dc:creator>
     <cc:Agent>
      <dc:title>Matplotlib v3.8.0, https://matplotlib.org/</dc:title>
     </cc:Agent>
    </dc:creator>
   </cc:Work>
  </rdf:RDF>
 </metadata>
 <defs>
  <style type="text/css">*{stroke-linejoin: round; stroke-linecap: butt}</style>
 </defs>
 <g id="figure_1">
  <g id="patch_1">
   <path d="M 0 421.247836 
L 664.249338 421.247836 
L 664.249338 0 
L 0 0 
L 0 421.247836 
z
" style="fill: none"/>
  </g>
  <g id="axes_1">
   <g id="patch_2">
    <path d="M 98.198464 348.258183 
L 432.998464 348.258183 
L 432.998464 15.618183 
L 98.198464 15.618183 
L 98.198464 348.258183 
z
" style="fill: none"/>
   </g>
   <g id="matplotlib.axis_1">
    <g id="xtick_1">
     <g id="line2d_1">
      <defs>
       <path id="md8d6160a05" d="M 0 0 
L 0 -10 
" style="stroke: #000000; stroke-width: 2"/>
      </defs>
      <g>
       <use xlink:href="#md8d6160a05" x="106.364318" y="348.258183" style="stroke: #000000; stroke-width: 2"/>
      </g>
     </g>
     <g id="line2d_2">
      <defs>
       <path id="maae7018542" d="M 0 0 
L 0 10 
" style="stroke: #000000; stroke-width: 2"/>
      </defs>
      <g>
       <use xlink:href="#maae7018542" x="106.364318" y="15.618183" style="stroke: #000000; stroke-width: 2"/>
      </g>
     </g>
     <g id="text_1">
      <!-- $\mathdefault{0}$ -->
      <g transform="translate(100.88146 377.294151) scale(0.24 -0.24)">
       <defs>
        <path id="CMR17-30" d="M 2688 2038 
C 2688 2430 2682 3099 2413 3613 
C 2176 4063 1798 4224 1466 4224 
C 1158 4224 768 4082 525 3620 
C 269 3137 243 2539 243 2038 
C 243 1671 250 1112 448 623 
C 723 -39 1216 -128 1466 -128 
C 1760 -128 2208 -7 2470 604 
C 2662 1048 2688 1568 2688 2038 
z
M 1466 -26 
C 1056 -26 813 328 723 816 
C 653 1196 653 1749 653 2109 
C 653 2604 653 3015 736 3407 
C 858 3954 1216 4121 1466 4121 
C 1728 4121 2067 3947 2189 3420 
C 2272 3054 2278 2623 2278 2109 
C 2278 1691 2278 1176 2202 797 
C 2067 96 1690 -26 1466 -26 
z
" transform="scale(0.015625)"/>
       </defs>
       <use xlink:href="#CMR17-30" transform="scale(0.996264)"/>
      </g>
     </g>
    </g>
    <g id="xtick_2">
     <g id="line2d_3">
      <g>
       <use xlink:href="#md8d6160a05" x="269.681391" y="348.258183" style="stroke: #000000; stroke-width: 2"/>
      </g>
     </g>
     <g id="line2d_4">
      <g>
       <use xlink:href="#maae7018542" x="269.681391" y="15.618183" style="stroke: #000000; stroke-width: 2"/>
      </g>
     </g>
     <g id="text_2">
      <!-- $\mathdefault{200}$ -->
      <g transform="translate(253.232819 377.294151) scale(0.24 -0.24)">
       <defs>
        <path id="CMR17-32" d="M 2669 990 
L 2554 990 
C 2490 537 2438 460 2413 422 
C 2381 371 1920 371 1830 371 
L 602 371 
C 832 620 1280 1073 1824 1596 
C 2214 1966 2669 2400 2669 3033 
C 2669 3788 2067 4224 1395 4224 
C 691 4224 262 3603 262 3027 
C 262 2777 448 2745 525 2745 
C 589 2745 781 2783 781 3007 
C 781 3206 614 3264 525 3264 
C 486 3264 448 3257 422 3244 
C 544 3788 915 4057 1306 4057 
C 1862 4057 2227 3616 2227 3033 
C 2227 2477 1901 1998 1536 1583 
L 262 147 
L 262 0 
L 2515 0 
L 2669 990 
z
" transform="scale(0.015625)"/>
       </defs>
       <use xlink:href="#CMR17-32" transform="scale(0.996264)"/>
       <use xlink:href="#CMR17-30" transform="translate(45.690477 0) scale(0.996264)"/>
       <use xlink:href="#CMR17-30" transform="translate(91.380954 0) scale(0.996264)"/>
      </g>
     </g>
    </g>
    <g id="xtick_3">
     <g id="line2d_5">
      <g>
       <use xlink:href="#md8d6160a05" x="432.998464" y="348.258183" style="stroke: #000000; stroke-width: 2"/>
      </g>
     </g>
     <g id="line2d_6">
      <g>
       <use xlink:href="#maae7018542" x="432.998464" y="15.618183" style="stroke: #000000; stroke-width: 2"/>
      </g>
     </g>
     <g id="text_3">
      <!-- $\mathdefault{400}$ -->
      <g transform="translate(416.549892 377.294151) scale(0.24 -0.24)">
       <defs>
        <path id="CMR17-34" d="M 2150 4147 
C 2150 4281 2144 4288 2029 4288 
L 128 1254 
L 128 1088 
L 1779 1088 
L 1779 460 
C 1779 230 1766 166 1318 166 
L 1197 166 
L 1197 0 
C 1402 12 1747 12 1965 12 
C 2182 12 2528 12 2733 0 
L 2733 166 
L 2611 166 
C 2163 166 2150 230 2150 460 
L 2150 1088 
L 2803 1088 
L 2803 1254 
L 2150 1254 
L 2150 4147 
z
M 1798 3723 
L 1798 1254 
L 256 1254 
L 1798 3723 
z
" transform="scale(0.015625)"/>
       </defs>
       <use xlink:href="#CMR17-34" transform="scale(0.996264)"/>
       <use xlink:href="#CMR17-30" transform="translate(45.690477 0) scale(0.996264)"/>
       <use xlink:href="#CMR17-30" transform="translate(91.380954 0) scale(0.996264)"/>
      </g>
     </g>
    </g>
    <g id="text_4">
     <!-- Iteration -->
     <g transform="translate(211.756274 407.681876) scale(0.3 -0.3)">
      <defs>
       <path id="NimbusSanL-Regu-49" d="M 1242 4672 
L 640 4672 
L 640 0 
L 1242 0 
L 1242 4672 
z
" transform="scale(0.015625)"/>
       <path id="NimbusSanL-Regu-74" d="M 1626 3328 
L 1075 3328 
L 1075 4249 
L 544 4249 
L 544 3328 
L 90 3328 
L 90 2892 
L 544 2892 
L 544 402 
C 544 64 774 -128 1190 -128 
C 1318 -128 1446 -116 1626 -84 
L 1626 364 
C 1555 345 1472 339 1370 339 
C 1139 339 1075 402 1075 634 
L 1075 2892 
L 1626 2892 
L 1626 3328 
z
" transform="scale(0.015625)"/>
       <path id="NimbusSanL-Regu-65" d="M 3283 1484 
C 3283 1998 3245 2311 3149 2565 
C 2931 3123 2419 3456 1792 3456 
C 858 3456 256 2734 256 1619 
C 256 545 838 -128 1779 -128 
C 2547 -128 3078 307 3213 1018 
L 2675 1018 
C 2528 588 2227 364 1798 364 
C 1459 364 1171 514 992 787 
C 864 974 819 1161 813 1484 
L 3283 1484 
z
M 826 1920 
C 870 2552 1248 2963 1786 2963 
C 2310 2963 2714 2519 2714 1959 
C 2714 1946 2714 1933 2707 1920 
L 826 1920 
z
" transform="scale(0.015625)"/>
       <path id="NimbusSanL-Regu-72" d="M 442 3328 
L 442 0 
L 979 0 
L 979 1727 
C 979 2203 1101 2514 1357 2698 
C 1523 2819 1683 2857 2054 2863 
L 2054 3404 
C 1965 3449 1920 3456 1850 3456 
C 1504 3456 1242 3251 934 2750 
L 934 3328 
L 442 3328 
z
" transform="scale(0.015625)"/>
       <path id="NimbusSanL-Regu-61" d="M 3424 332 
C 3366 320 3341 320 3309 320 
C 3123 320 3021 415 3021 581 
L 3021 2542 
C 3021 3135 2586 3456 1760 3456 
C 1274 3456 870 3315 646 3065 
C 493 2893 429 2702 416 2370 
L 954 2370 
C 998 2778 1242 2963 1741 2963 
C 2221 2963 2490 2784 2490 2466 
L 2490 2326 
C 2490 2103 2355 2007 1933 1956 
C 1178 1861 1062 1835 858 1753 
C 467 1593 269 1294 269 861 
C 269 256 691 -128 1370 -128 
C 1792 -128 2131 19 2509 364 
C 2547 25 2714 -128 3059 -128 
C 3168 -128 3251 -116 3424 -71 
L 3424 332 
z
M 2490 1071 
C 2490 893 2438 785 2278 638 
C 2061 441 1798 339 1485 339 
C 1069 339 826 536 826 874 
C 826 1224 1062 1402 1632 1485 
C 2195 1562 2310 1587 2490 1670 
L 2490 1071 
z
" transform="scale(0.015625)"/>
       <path id="NimbusSanL-Regu-69" d="M 960 3358 
L 429 3358 
L 429 0 
L 960 0 
L 960 3358 
z
M 960 4672 
L 422 4672 
L 422 3999 
L 960 3999 
L 960 4672 
z
" transform="scale(0.015625)"/>
       <path id="NimbusSanL-Regu-6f" d="M 1741 3456 
C 800 3456 230 2784 230 1663 
C 230 543 794 -128 1747 -128 
C 2688 -128 3264 543 3264 1638 
C 3264 2791 2707 3456 1741 3456 
z
M 1747 2963 
C 2349 2963 2707 2472 2707 1644 
C 2707 861 2336 364 1747 364 
C 1152 364 787 855 787 1663 
C 787 2466 1152 2963 1747 2963 
z
" transform="scale(0.015625)"/>
       <path id="NimbusSanL-Regu-6e" d="M 448 3328 
L 448 0 
L 986 0 
L 986 1835 
C 986 2539 1344 2988 1894 2988 
C 2317 2988 2586 2732 2586 2328 
L 2586 0 
L 3117 0 
L 3117 2539 
C 3117 3097 2701 3456 2054 3456 
C 1555 3456 1235 3263 941 2796 
L 941 3328 
L 448 3328 
z
" transform="scale(0.015625)"/>
      </defs>
      <use xlink:href="#NimbusSanL-Regu-49" transform="scale(0.996264)"/>
      <use xlink:href="#NimbusSanL-Regu-74" transform="translate(27.69517 0) scale(0.996264)"/>
      <use xlink:href="#NimbusSanL-Regu-65" transform="translate(55.390339 0) scale(0.996264)"/>
      <use xlink:href="#NimbusSanL-Regu-72" transform="translate(110.782016 0) scale(0.996264)"/>
      <use xlink:href="#NimbusSanL-Regu-61" transform="translate(142.961149 0) scale(0.996264)"/>
      <use xlink:href="#NimbusSanL-Regu-74" transform="translate(198.352826 0) scale(0.996264)"/>
      <use xlink:href="#NimbusSanL-Regu-69" transform="translate(226.047996 0) scale(0.996264)"/>
      <use xlink:href="#NimbusSanL-Regu-6f" transform="translate(248.16478 0) scale(0.996264)"/>
      <use xlink:href="#NimbusSanL-Regu-6e" transform="translate(303.556457 0) scale(0.996264)"/>
     </g>
    </g>
   </g>
   <g id="matplotlib.axis_2">
    <g id="ytick_1">
     <g id="line2d_7">
      <defs>
       <path id="m5de90dcdd8" d="M 0 0 
L 10 0 
" style="stroke: #000000; stroke-width: 2"/>
      </defs>
      <g>
       <use xlink:href="#m5de90dcdd8" x="98.198464" y="300.450198" style="stroke: #000000; stroke-width: 2"/>
      </g>
     </g>
     <g id="line2d_8">
      <defs>
       <path id="m4d83db8d15" d="M 0 0 
L -10 0 
" style="stroke: #000000; stroke-width: 2"/>
      </defs>
      <g>
       <use xlink:href="#m4d83db8d15" x="432.998464" y="300.450198" style="stroke: #000000; stroke-width: 2"/>
      </g>
     </g>
     <g id="text_5">
      <!-- $\mathdefault{10^{-10}}$ -->
      <g transform="translate(38.86092 308.968182) scale(0.24 -0.24)">
       <defs>
        <path id="CMR17-31" d="M 1702 4083 
C 1702 4217 1696 4224 1606 4224 
C 1357 3927 979 3833 621 3820 
C 602 3820 570 3820 563 3808 
C 557 3795 557 3782 557 3648 
C 755 3648 1088 3686 1344 3839 
L 1344 467 
C 1344 243 1331 166 781 166 
L 589 166 
L 589 0 
C 896 6 1216 12 1523 12 
C 1830 12 2150 6 2458 0 
L 2458 166 
L 2266 166 
C 1715 166 1702 236 1702 467 
L 1702 4083 
z
" transform="scale(0.015625)"/>
        <path id="CMSY10-0" d="M 4218 1472 
C 4326 1472 4442 1472 4442 1600 
C 4442 1728 4326 1728 4218 1728 
L 755 1728 
C 646 1728 531 1728 531 1600 
C 531 1472 646 1472 755 1472 
L 4218 1472 
z
" transform="scale(0.015625)"/>
       </defs>
       <use xlink:href="#CMR17-31" transform="scale(0.996264)"/>
       <use xlink:href="#CMR17-30" transform="translate(45.690477 0) scale(0.996264)"/>
       <use xlink:href="#CMSY10-0" transform="translate(91.380954 36.153639) scale(0.697382)"/>
       <use xlink:href="#CMR17-31" transform="translate(145.621947 36.153639) scale(0.697382)"/>
       <use xlink:href="#CMR17-30" transform="translate(177.605129 36.153639) scale(0.697382)"/>
      </g>
     </g>
    </g>
    <g id="ytick_2">
     <g id="line2d_9">
      <g>
       <use xlink:href="#m5de90dcdd8" x="98.198464" y="243.503755" style="stroke: #000000; stroke-width: 2"/>
      </g>
     </g>
     <g id="line2d_10">
      <g>
       <use xlink:href="#m4d83db8d15" x="432.998464" y="243.503755" style="stroke: #000000; stroke-width: 2"/>
      </g>
     </g>
     <g id="text_6">
      <!-- $\mathdefault{10^{-8}}$ -->
      <g transform="translate(47.055061 252.021739) scale(0.24 -0.24)">
       <defs>
        <path id="CMR17-38" d="M 1741 2289 
C 2144 2494 2554 2803 2554 3298 
C 2554 3884 1990 4224 1472 4224 
C 890 4224 378 3800 378 3215 
C 378 3054 416 2777 666 2533 
C 730 2469 998 2276 1171 2154 
C 883 2006 211 1652 211 945 
C 211 282 838 -128 1459 -128 
C 2144 -128 2720 366 2720 1022 
C 2720 1607 2330 1877 2074 2051 
L 1741 2289 
z
M 902 2855 
C 851 2887 595 3086 595 3388 
C 595 3781 998 4076 1459 4076 
C 1965 4076 2336 3716 2336 3298 
C 2336 2700 1670 2359 1638 2359 
C 1632 2359 1626 2359 1574 2398 
L 902 2855 
z
M 2080 1536 
C 2176 1466 2483 1253 2483 861 
C 2483 385 2010 25 1472 25 
C 890 25 448 443 448 951 
C 448 1459 838 1884 1280 2083 
L 2080 1536 
z
" transform="scale(0.015625)"/>
       </defs>
       <use xlink:href="#CMR17-31" transform="scale(0.996264)"/>
       <use xlink:href="#CMR17-30" transform="translate(45.690477 0) scale(0.996264)"/>
       <use xlink:href="#CMSY10-0" transform="translate(91.380954 36.153639) scale(0.697382)"/>
       <use xlink:href="#CMR17-38" transform="translate(145.621947 36.153639) scale(0.697382)"/>
      </g>
     </g>
    </g>
    <g id="ytick_3">
     <g id="line2d_11">
      <g>
       <use xlink:href="#m5de90dcdd8" x="98.198464" y="186.557312" style="stroke: #000000; stroke-width: 2"/>
      </g>
     </g>
     <g id="line2d_12">
      <g>
       <use xlink:href="#m4d83db8d15" x="432.998464" y="186.557312" style="stroke: #000000; stroke-width: 2"/>
      </g>
     </g>
     <g id="text_7">
      <!-- $\mathdefault{10^{-6}}$ -->
      <g transform="translate(47.055061 195.075297) scale(0.24 -0.24)">
       <defs>
        <path id="CMR17-36" d="M 678 2198 
C 678 3712 1395 4076 1811 4076 
C 1946 4076 2272 4049 2400 3782 
C 2298 3782 2106 3782 2106 3558 
C 2106 3385 2246 3328 2336 3328 
C 2394 3328 2566 3353 2566 3571 
C 2566 3987 2246 4224 1805 4224 
C 1043 4224 243 3411 243 2011 
C 243 257 966 -128 1478 -128 
C 2099 -128 2688 431 2688 1295 
C 2688 2101 2170 2688 1517 2688 
C 1126 2688 838 2430 678 1979 
L 678 2198 
z
M 1478 25 
C 691 25 691 1212 691 1450 
C 691 1914 909 2585 1504 2585 
C 1613 2585 1926 2585 2138 2140 
C 2253 1889 2253 1624 2253 1302 
C 2253 954 2253 696 2118 438 
C 1978 173 1773 25 1478 25 
z
" transform="scale(0.015625)"/>
       </defs>
       <use xlink:href="#CMR17-31" transform="scale(0.996264)"/>
       <use xlink:href="#CMR17-30" transform="translate(45.690477 0) scale(0.996264)"/>
       <use xlink:href="#CMSY10-0" transform="translate(91.380954 36.153639) scale(0.697382)"/>
       <use xlink:href="#CMR17-36" transform="translate(145.621947 36.153639) scale(0.697382)"/>
      </g>
     </g>
    </g>
    <g id="ytick_4">
     <g id="line2d_13">
      <g>
       <use xlink:href="#m5de90dcdd8" x="98.198464" y="129.61087" style="stroke: #000000; stroke-width: 2"/>
      </g>
     </g>
     <g id="line2d_14">
      <g>
       <use xlink:href="#m4d83db8d15" x="432.998464" y="129.61087" style="stroke: #000000; stroke-width: 2"/>
      </g>
     </g>
     <g id="text_8">
      <!-- $\mathdefault{10^{-4}}$ -->
      <g transform="translate(47.055061 138.128854) scale(0.24 -0.24)">
       <use xlink:href="#CMR17-31" transform="scale(0.996264)"/>
       <use xlink:href="#CMR17-30" transform="translate(45.690477 0) scale(0.996264)"/>
       <use xlink:href="#CMSY10-0" transform="translate(91.380954 36.153639) scale(0.697382)"/>
       <use xlink:href="#CMR17-34" transform="translate(145.621947 36.153639) scale(0.697382)"/>
      </g>
     </g>
    </g>
    <g id="ytick_5">
     <g id="line2d_15">
      <g>
       <use xlink:href="#m5de90dcdd8" x="98.198464" y="72.664427" style="stroke: #000000; stroke-width: 2"/>
      </g>
     </g>
     <g id="line2d_16">
      <g>
       <use xlink:href="#m4d83db8d15" x="432.998464" y="72.664427" style="stroke: #000000; stroke-width: 2"/>
      </g>
     </g>
     <g id="text_9">
      <!-- $\mathdefault{10^{-2}}$ -->
      <g transform="translate(47.055061 81.182411) scale(0.24 -0.24)">
       <use xlink:href="#CMR17-31" transform="scale(0.996264)"/>
       <use xlink:href="#CMR17-30" transform="translate(45.690477 0) scale(0.996264)"/>
       <use xlink:href="#CMSY10-0" transform="translate(91.380954 36.153639) scale(0.697382)"/>
       <use xlink:href="#CMR17-32" transform="translate(145.621947 36.153639) scale(0.697382)"/>
      </g>
     </g>
    </g>
    <g id="ytick_6">
     <g id="line2d_17">
      <g>
       <use xlink:href="#m5de90dcdd8" x="98.198464" y="15.717984" style="stroke: #000000; stroke-width: 2"/>
      </g>
     </g>
     <g id="line2d_18">
      <g>
       <use xlink:href="#m4d83db8d15" x="432.998464" y="15.717984" style="stroke: #000000; stroke-width: 2"/>
      </g>
     </g>
     <g id="text_10">
      <!-- $\mathdefault{10^{0}}$ -->
      <g transform="translate(60.072894 24.235969) scale(0.24 -0.24)">
       <use xlink:href="#CMR17-31" transform="scale(0.996264)"/>
       <use xlink:href="#CMR17-30" transform="translate(45.690477 0) scale(0.996264)"/>
       <use xlink:href="#CMR17-30" transform="translate(91.380954 36.153639) scale(0.697382)"/>
      </g>
     </g>
    </g>
    <g id="text_11">
     <!-- $c_{44}$ -->
     <g transform="translate(28.494961 197.83062) rotate(-90) scale(0.3 -0.3)">
      <defs>
       <path id="CMMI12-63" d="M 2502 2432 
C 2381 2432 2323 2432 2234 2355 
C 2195 2323 2125 2227 2125 2124 
C 2125 1996 2221 1919 2342 1919 
C 2496 1919 2669 2047 2669 2303 
C 2669 2591 2374 2816 1933 2816 
C 1094 2816 256 1932 256 1011 
C 256 446 602 -64 1254 -64 
C 2125 -64 2675 622 2675 706 
C 2675 745 2637 777 2611 777 
C 2592 777 2586 771 2528 712 
C 2118 161 1510 64 1267 64 
C 826 64 685 453 685 777 
C 685 1004 794 1634 1024 2073 
C 1190 2374 1536 2687 1939 2687 
C 2022 2687 2374 2676 2502 2432 
z
" transform="scale(0.015625)"/>
      </defs>
      <use xlink:href="#CMMI12-63" transform="scale(0.996264)"/>
      <use xlink:href="#CMR17-34" transform="translate(41.983234 -14.943915) scale(0.697382)"/>
      <use xlink:href="#CMR17-34" transform="translate(73.966416 -14.943915) scale(0.697382)"/>
     </g>
    </g>
   </g>
   <g id="line2d_19">
    <path d="M 106.364318 30.738183 
L 107.180903 44.902128 
L 107.997488 50.860766 
L 108.814074 54.802163 
L 109.630659 57.820732 
L 110.447244 60.26378 
L 112.080415 64.046323 
L 113.713586 66.934848 
L 115.346757 69.292719 
L 116.979927 71.304175 
L 119.429684 73.895085 
L 121.87944 76.143707 
L 124.329196 78.142852 
L 127.595537 80.49393 
L 130.861879 82.548809 
L 134.12822 84.364742 
L 138.211147 86.366993 
L 142.294074 88.138977 
L 147.193586 90.034123 
L 152.909684 92.018515 
L 160.258952 94.316016 
L 168.424805 96.610224 
L 176.590659 98.670858 
L 185.573098 100.697927 
L 195.372123 102.662415 
L 205.987732 104.552634 
L 218.236513 106.489828 
L 231.301879 108.323754 
L 245.18383 110.050721 
L 260.698952 111.748923 
L 277.847244 113.389886 
L 297.445293 115.032576 
L 321.126269 116.78584 
L 350.523342 118.732618 
L 386.453098 120.882207 
L 425.649196 123.004569 
L 433.815049 123.420467 
L 433.815049 123.420467 
" clip-path="url(#pc653aec8ea)" style="fill: none; stroke: #3f90da; stroke-width: 2; stroke-linecap: square"/>
   </g>
   <g id="line2d_20">
    <path d="M 106.364318 30.738183 
L 107.180903 33.068331 
L 107.997488 37.685036 
L 109.630659 51.259711 
L 112.080415 61.673917 
L 112.897001 64.467951 
L 113.713586 66.715214 
L 114.530171 68.340393 
L 115.346757 69.254732 
L 116.163342 70.671759 
L 116.979927 73.500815 
L 117.796513 75.366004 
L 119.429684 77.275896 
L 120.246269 78.537615 
L 121.062854 81.030525 
L 121.87944 82.646182 
L 122.696025 83.971013 
L 125.962366 86.983311 
L 126.778952 88.52183 
L 129.228708 91.732639 
L 130.045293 92.654473 
L 132.495049 94.547381 
L 133.311635 95.537798 
L 134.12822 96.309623 
L 134.944805 96.91076 
L 136.577976 98.473367 
L 138.211147 98.988125 
L 139.027732 99.409758 
L 139.844318 100.09097 
L 142.294074 103.226828 
L 144.74383 105.054045 
L 146.377001 105.625231 
L 148.010171 106.069199 
L 148.826757 106.467355 
L 149.643342 107.025942 
L 150.459927 108.131683 
L 152.093098 109.718507 
L 153.726269 110.164402 
L 154.542854 110.362024 
L 161.075537 113.033508 
L 163.525293 113.255687 
L 164.341879 113.611092 
L 165.158464 114.153996 
L 165.975049 114.845949 
L 166.791635 115.725254 
L 168.424805 116.649443 
L 169.241391 117.236991 
L 170.057976 117.622844 
L 173.324318 118.344151 
L 176.590659 118.797451 
L 178.22383 119.405561 
L 179.857001 120.062712 
L 184.756513 120.931572 
L 187.206269 121.210442 
L 188.022854 121.374101 
L 189.656025 122.051255 
L 197.005293 123.400081 
L 198.638464 123.662439 
L 200.271635 124.000355 
L 202.721391 124.303501 
L 205.171147 124.406128 
L 206.804318 124.769246 
L 210.070659 125.97674 
L 211.70383 126.894088 
L 212.520415 127.215713 
L 214.153586 128.090088 
L 214.970171 128.887969 
L 216.603342 129.304451 
L 223.95261 130.143359 
L 226.402366 130.425721 
L 235.384805 131.253831 
L 237.017976 131.522548 
L 243.550659 131.866991 
L 244.367244 132.079512 
L 245.18383 132.92979 
L 246.000415 134.355092 
L 246.817001 135.124541 
L 247.633586 135.502785 
L 249.266757 135.917137 
L 253.349684 136.258599 
L 256.616025 136.463663 
L 258.249196 136.81918 
L 260.698952 137.772608 
L 262.332123 138.589698 
L 263.148708 138.942548 
L 266.415049 139.822604 
L 268.04822 140.497187 
L 280.297001 141.778958 
L 283.563342 141.962015 
L 287.646269 142.795292 
L 289.27944 143.125399 
L 295.812123 143.65982 
L 298.261879 143.827411 
L 300.711635 144.304853 
L 303.161391 144.845676 
L 305.611147 145.498548 
L 307.244318 145.732962 
L 312.14383 146.008536 
L 313.777001 146.331092 
L 315.410171 146.638758 
L 330.925293 148.561272 
L 335.00822 149.225261 
L 361.955537 150.930274 
L 365.221879 151.118798 
L 367.671635 151.414694 
L 371.754562 151.798105 
L 377.470659 151.97184 
L 380.737001 152.09114 
L 384.003342 152.640076 
L 392.985781 153.41236 
L 396.252123 153.561532 
L 399.518464 153.68174 
L 401.96822 153.787924 
L 406.051147 154.097585 
L 410.950659 154.336969 
L 418.299927 154.681981 
L 421.566269 154.794057 
L 423.19944 155.053083 
L 424.83261 155.590287 
L 425.649196 156.020227 
L 427.282366 156.646695 
L 428.098952 157.050629 
L 428.915537 157.300952 
L 432.998464 157.629217 
L 433.815049 157.656049 
L 433.815049 157.656049 
" clip-path="url(#pc653aec8ea)" style="fill: none; stroke-dasharray: 10,2; stroke-dashoffset: 0; stroke: #ffa90e; stroke-width: 2"/>
   </g>
   <g id="line2d_21">
    <path d="M 106.364318 30.738183 
L 107.180903 40.13018 
L 107.997488 47.313674 
L 108.814074 55.265112 
L 109.630659 62.864007 
L 110.447244 68.413933 
L 111.26383 73.908768 
L 112.080415 76.037766 
L 112.897001 89.655801 
L 113.713586 95.375896 
L 114.530171 100.763447 
L 115.346757 105.425714 
L 116.163342 109.312451 
L 116.979927 112.386578 
L 117.796513 114.391635 
L 118.613098 129.754032 
L 119.429684 133.042098 
L 120.246269 137.170117 
L 121.062854 142.35469 
L 121.87944 146.923378 
L 122.696025 150.081598 
L 123.51261 151.153739 
L 124.329196 165.22455 
L 125.145781 167.639699 
L 125.962366 171.355707 
L 126.778952 176.089918 
L 127.595537 182.394747 
L 128.412123 186.512441 
L 129.228708 191.547425 
L 130.045293 195.366996 
L 130.861879 200.299257 
L 131.678464 203.419955 
L 132.495049 208.081948 
L 133.311635 210.390068 
L 134.12822 214.931388 
L 134.944805 216.75526 
L 135.761391 221.769274 
L 136.577976 223.07983 
L 137.394562 229.309446 
L 138.211147 229.922295 
L 139.027732 237.939498 
L 139.844318 237.939498 
L 140.660903 239.923117 
L 141.477488 242.551926 
L 142.294074 244.623352 
L 143.110659 246.75188 
L 143.927244 248.699499 
L 144.74383 250.824821 
L 145.560415 252.787169 
L 146.377001 254.94353 
L 147.193586 256.898083 
L 148.010171 259.041841 
L 148.826757 261.02099 
L 149.643342 263.176222 
L 150.459927 265.192352 
L 151.276513 267.372451 
L 152.093098 269.425293 
L 152.909684 271.625069 
L 153.726269 273.82571 
L 154.542854 276.171427 
L 155.35944 278.354973 
L 156.176025 280.656394 
L 156.99261 282.850156 
L 157.809196 285.144847 
L 158.625781 287.358908 
L 159.442366 289.659938 
L 160.258952 291.898093 
L 161.075537 294.209914 
L 161.892123 296.471686 
L 162.708708 298.796703 
L 163.525293 301.061343 
L 164.341879 303.374514 
L 165.158464 305.6496 
L 165.975049 307.965058 
L 166.791635 310.257714 
L 167.60822 312.583567 
L 168.424805 314.894601 
L 169.241391 317.237561 
L 170.057976 319.507278 
L 170.874562 321.79284 
L 171.691147 324.057692 
L 172.507732 326.339259 
L 173.324318 328.604592 
L 174.140903 330.884132 
L 174.957488 333.138183 
" clip-path="url(#pc653aec8ea)" style="fill: none; stroke-dasharray: 12.8,3.2,2,3.2; stroke-dashoffset: 0; stroke: #bd1f01; stroke-width: 2"/>
   </g>
   <g id="line2d_22">
    <path d="M 106.364318 30.738183 
L 107.180903 40.13018 
L 108.814074 55.265112 
L 109.630659 62.864007 
L 111.26383 73.908773 
L 112.080415 76.037768 
L 112.897001 89.655803 
L 114.530171 100.763408 
L 115.346757 105.425671 
L 116.163342 109.312281 
L 116.979927 112.386383 
L 117.796513 114.391298 
L 118.613098 129.753357 
L 119.429684 133.041559 
L 120.246269 137.169311 
L 121.87944 146.925004 
L 122.696025 150.122139 
L 123.51261 151.253533 
L 124.329196 165.236249 
L 125.145781 167.622985 
L 125.962366 171.23322 
L 127.595537 180.549847 
L 128.412123 186.2094 
L 129.228708 187.130978 
L 130.045293 194.136804 
L 130.861879 196.155476 
L 131.678464 198.793719 
L 133.311635 201.873238 
L 134.944805 203.997584 
L 136.577976 205.585489 
L 139.027732 207.330517 
L 140.660903 208.246079 
L 142.294074 209.019405 
L 143.927244 209.696933 
L 146.377001 210.55589 
L 150.459927 211.696096 
L 158.625781 213.58866 
L 162.708708 214.378461 
L 166.791635 215.09664 
L 170.874562 215.70518 
L 171.691147 215.922605 
L 172.507732 216.018926 
L 173.324318 216.34918 
L 174.957488 216.34918 
L 175.774074 216.541423 
L 176.590659 218.079382 
L 177.407244 218.592313 
L 178.22383 221.800969 
L 183.939927 222.590166 
L 184.756513 222.863852 
L 185.573098 222.906296 
L 186.389684 223.100181 
L 188.022854 223.166473 
L 188.83944 225.171964 
L 189.656025 225.257819 
L 190.47261 225.665618 
L 194.555537 225.913041 
L 198.638464 226.221265 
L 199.455049 226.403791 
L 200.271635 228.611069 
L 201.08822 228.64871 
L 201.904805 228.847408 
L 206.804318 229.029558 
L 207.620903 229.636287 
L 208.437488 229.758976 
L 209.254074 230.263217 
L 214.153586 230.523279 
L 214.970171 231.832656 
L 215.786757 231.862119 
L 216.603342 232.058885 
L 219.053098 232.142528 
L 220.686269 232.26261 
L 221.502854 232.705728 
L 224.769196 232.819589 
L 228.035537 232.937999 
L 228.852123 233.273435 
L 229.668708 233.393843 
L 230.485293 233.648092 
L 237.834562 233.910908 
L 238.651147 234.577217 
L 245.18383 234.830586 
L 250.899927 234.946166 
L 253.349684 235.29875 
L 255.79944 235.420401 
L 256.616025 235.743622 
L 260.698952 235.867582 
L 264.781879 235.975813 
L 265.598464 236.743014 
L 272.947732 236.9687 
L 274.580903 237.20035 
L 275.397488 237.892485 
L 279.480415 238.0281 
L 285.196513 238.232952 
L 286.013098 238.836358 
L 286.829684 240.007914 
L 288.462854 240.099652 
L 293.362366 240.291607 
L 294.178952 243.928124 
L 295.812123 244.130991 
L 300.711635 244.258699 
L 310.510659 244.402132 
L 311.327244 245.256578 
L 312.14383 246.580524 
L 312.960415 248.259648 
L 314.593586 248.735323 
L 318.676513 248.841495 
L 321.126269 248.886444 
L 321.942854 249.077341 
L 348.073586 249.351361 
L 352.156513 249.590715 
L 355.422854 249.637004 
L 356.23944 249.773379 
L 366.855049 249.928188 
L 385.636513 250.268791 
L 386.453098 250.401501 
L 392.169196 250.47108 
L 392.985781 250.780424 
L 400.335049 250.889901 
L 401.151635 251.1708 
L 412.58383 251.274171 
L 413.400415 251.373242 
L 414.217001 251.963778 
L 418.299927 252.022414 
L 437.897976 252.136916 
L 438.714562 252.235951 
L 439.531147 252.484827 
L 444.430659 252.528093 
L 488.526269 252.725772 
L 494.242366 252.944795 
L 514.657001 253.077858 
L 517.923342 253.172152 
L 536.704805 253.28258 
L 538.337976 253.355072 
L 564.468708 253.537374 
L 566.101879 253.625966 
L 584.883342 253.796346 
L 619.179927 254.026147 
L 620.813098 254.112921 
L 645.310659 254.319558 
L 646.127244 254.505512 
L 655.109684 254.548672 
L 655.926269 254.735265 
L 665.249338 254.819431 
L 665.249338 254.819431 
" clip-path="url(#pc653aec8ea)" style="fill: none; stroke-dasharray: 20,6; stroke-dashoffset: 10; stroke: #832db6; stroke-width: 2"/>
   </g>
   <g id="patch_3">
    <path d="M 98.198464 348.258183 
L 98.198464 15.618183 
" style="fill: none; stroke: #000000; stroke-width: 2; stroke-linejoin: miter; stroke-linecap: square"/>
   </g>
   <g id="patch_4">
    <path d="M 432.998464 348.258183 
L 432.998464 15.618183 
" style="fill: none; stroke: #000000; stroke-width: 2; stroke-linejoin: miter; stroke-linecap: square"/>
   </g>
   <g id="patch_5">
    <path d="M 98.198464 348.258183 
L 432.998464 348.258183 
" style="fill: none; stroke: #000000; stroke-width: 2; stroke-linejoin: miter; stroke-linecap: square"/>
   </g>
   <g id="patch_6">
    <path d="M 98.198464 15.618183 
L 432.998464 15.618183 
" style="fill: none; stroke: #000000; stroke-width: 2; stroke-linejoin: miter; stroke-linecap: square"/>
   </g>
   <g id="legend_1">
    <g id="line2d_23">
     <path d="M 471.338464 45.854151 
L 495.338464 45.854151 
L 519.338464 45.854151 
" style="fill: none; stroke: #3f90da; stroke-width: 2; stroke-linecap: square"/>
    </g>
    <g id="text_12">
     <!-- Alt -->
     <g transform="translate(538.538464 54.254151) scale(0.24 -0.24)">
      <defs>
       <path id="NimbusSanL-Regu-41" d="M 3034 1408 
L 3514 0 
L 4179 0 
L 2541 4672 
L 1773 4672 
L 109 0 
L 742 0 
L 1235 1408 
L 3034 1408 
z
M 2867 1907 
L 1382 1907 
L 2150 4032 
L 2867 1907 
z
" transform="scale(0.015625)"/>
       <path id="NimbusSanL-Regu-6c" d="M 973 4672 
L 435 4672 
L 435 0 
L 973 0 
L 973 4672 
z
" transform="scale(0.015625)"/>
      </defs>
      <use xlink:href="#NimbusSanL-Regu-41" transform="scale(0.996264)"/>
      <use xlink:href="#NimbusSanL-Regu-6c" transform="translate(66.450031 0) scale(0.996264)"/>
      <use xlink:href="#NimbusSanL-Regu-74" transform="translate(88.566815 0) scale(0.996264)"/>
     </g>
    </g>
    <g id="line2d_24">
     <path d="M 471.338464 79.982884 
L 495.338464 79.982884 
L 519.338464 79.982884 
" style="fill: none; stroke-dasharray: 10,2; stroke-dashoffset: 0; stroke: #ffa90e; stroke-width: 2"/>
    </g>
    <g id="text_13">
     <!-- RCG -->
     <g transform="translate(538.538464 88.382884) scale(0.24 -0.24)">
      <defs>
       <path id="NimbusSanL-Regu-52" d="M 1190 2035 
L 2726 2035 
C 3258 2035 3494 1775 3494 1191 
L 3488 770 
C 3488 478 3539 192 3622 0 
L 4346 0 
L 4346 147 
C 4122 303 4077 471 4064 1101 
C 4058 1879 3936 2111 3430 2329 
C 3955 2585 4166 2907 4166 3432 
C 4166 4230 3661 4672 2746 4672 
L 595 4672 
L 595 0 
L 1190 0 
L 1190 2035 
z
M 1190 2560 
L 1190 4147 
L 2630 4147 
C 2963 4147 3155 4096 3302 3970 
C 3462 3837 3546 3628 3546 3350 
C 3546 2806 3264 2560 2630 2560 
L 1190 2560 
z
" transform="scale(0.015625)"/>
       <path id="NimbusSanL-Regu-43" d="M 4237 3219 
C 4051 4236 3462 4736 2438 4736 
C 1811 4736 1306 4537 960 4154 
C 538 3696 307 3035 307 2284 
C 307 1522 544 867 986 415 
C 1344 44 1805 -128 2413 -128 
C 3552 -128 4192 485 4333 1712 
L 3718 1712 
C 3667 1394 3603 1178 3507 994 
C 3315 612 2918 396 2419 396 
C 1491 396 902 1134 902 2291 
C 902 3480 1466 4211 2368 4211 
C 2746 4211 3098 4096 3290 3918 
C 3462 3759 3558 3562 3629 3219 
L 4237 3219 
z
" transform="scale(0.015625)"/>
       <path id="NimbusSanL-Regu-47" d="M 4538 2496 
L 2592 2496 
L 2592 1971 
L 4013 1971 
L 4013 1842 
C 4013 1003 3398 396 2547 396 
C 2074 396 1645 571 1370 874 
C 1062 1209 877 1771 877 2348 
C 877 3472 1530 4211 2515 4211 
C 3226 4211 3738 3854 3866 3265 
L 4474 3265 
C 4307 4192 3590 4736 2522 4736 
C 1952 4736 1491 4588 1126 4287 
C 589 3848 282 3140 282 2316 
C 282 874 1158 -128 2419 -128 
C 3053 -128 3558 108 4013 616 
L 4160 -7 
L 4538 -7 
L 4538 2496 
z
" transform="scale(0.015625)"/>
      </defs>
      <use xlink:href="#NimbusSanL-Regu-52" transform="scale(0.996264)"/>
      <use xlink:href="#NimbusSanL-Regu-43" transform="translate(71.929985 0) scale(0.996264)"/>
      <use xlink:href="#NimbusSanL-Regu-47" transform="translate(143.85997 0) scale(0.996264)"/>
     </g>
    </g>
    <g id="line2d_25">
     <path d="M 471.338464 114.111617 
L 495.338464 114.111617 
L 519.338464 114.111617 
" style="fill: none; stroke-dasharray: 12.8,3.2,2,3.2; stroke-dashoffset: 0; stroke: #bd1f01; stroke-width: 2"/>
    </g>
    <g id="text_14">
     <!-- RNTR -->
     <g transform="translate(538.538464 122.511617) scale(0.24 -0.24)">
      <defs>
       <path id="NimbusSanL-Regu-4e" d="M 4134 4672 
L 3571 4672 
L 3571 852 
L 1133 4672 
L 486 4672 
L 486 0 
L 1050 0 
L 1050 3787 
L 3462 0 
L 4134 0 
L 4134 4672 
z
" transform="scale(0.015625)"/>
       <path id="NimbusSanL-Regu-54" d="M 2266 4147 
L 3795 4147 
L 3795 4672 
L 134 4672 
L 134 4147 
L 1670 4147 
L 1670 0 
L 2266 0 
L 2266 4147 
z
" transform="scale(0.015625)"/>
      </defs>
      <use xlink:href="#NimbusSanL-Regu-52" transform="scale(0.996264)"/>
      <use xlink:href="#NimbusSanL-Regu-4e" transform="translate(71.929985 0) scale(0.996264)"/>
      <use xlink:href="#NimbusSanL-Regu-54" transform="translate(143.85997 0) scale(0.996264)"/>
      <use xlink:href="#NimbusSanL-Regu-52" transform="translate(204.7316 0) scale(0.996264)"/>
     </g>
    </g>
    <g id="line2d_26">
     <path d="M 471.338464 148.24035 
L 495.338464 148.24035 
L 519.338464 148.24035 
" style="fill: none; stroke-dasharray: 20,6; stroke-dashoffset: 10; stroke: #832db6; stroke-width: 2"/>
    </g>
    <g id="text_15">
     <!-- RNTR-reg -->
     <g transform="translate(538.538464 156.64035) scale(0.24 -0.24)">
      <defs>
       <path id="NimbusSanL-Regu-2d" d="M 1818 1996 
L 294 1996 
L 294 1536 
L 1818 1536 
L 1818 1996 
z
" transform="scale(0.015625)"/>
       <path id="NimbusSanL-Regu-67" d="M 2637 3359 
L 2637 2873 
C 2368 3270 2042 3456 1613 3456 
C 762 3456 186 2714 186 1632 
C 186 1084 333 638 608 320 
C 858 38 1216 -128 1568 -128 
C 1990 -128 2285 51 2586 473 
L 2586 300 
C 2586 -155 2528 -441 2394 -634 
C 2253 -841 1978 -960 1651 -960 
C 1408 -960 1190 -894 1043 -774 
C 922 -674 870 -581 838 -375 
L 294 -375 
C 352 -1031 845 -1408 1632 -1408 
C 2131 -1408 2560 -1248 2778 -980 
C 3034 -661 3130 -222 3130 568 
L 3130 3359 
L 2637 3359 
z
M 1670 2963 
C 2246 2963 2586 2479 2586 1644 
C 2586 848 2240 364 1677 364 
C 1094 364 742 855 742 1663 
C 742 2466 1101 2963 1670 2963 
z
" transform="scale(0.015625)"/>
      </defs>
      <use xlink:href="#NimbusSanL-Regu-52" transform="scale(0.996264)"/>
      <use xlink:href="#NimbusSanL-Regu-4e" transform="translate(71.929985 0) scale(0.996264)"/>
      <use xlink:href="#NimbusSanL-Regu-54" transform="translate(143.85997 0) scale(0.996264)"/>
      <use xlink:href="#NimbusSanL-Regu-52" transform="translate(204.7316 0) scale(0.996264)"/>
      <use xlink:href="#NimbusSanL-Regu-2d" transform="translate(276.661585 0) scale(0.996264)"/>
      <use xlink:href="#NimbusSanL-Regu-72" transform="translate(309.836815 0) scale(0.996264)"/>
      <use xlink:href="#NimbusSanL-Regu-65" transform="translate(343.012045 0) scale(0.996264)"/>
      <use xlink:href="#NimbusSanL-Regu-67" transform="translate(398.403722 0) scale(0.996264)"/>
     </g>
    </g>
   </g>
  </g>
 </g>
 <defs>
  <clipPath id="pc653aec8ea">
   <rect x="98.198464" y="15.618183" width="334.8" height="332.64"/>
  </clipPath>
 </defs>
</svg>
