<?xml version="1.0" encoding="utf-8" standalone="no"?>
<!DOCTYPE svg PUBLIC "-//W3C//DTD SVG 1.1//EN"
  "http://www.w3.org/Graphics/SVG/1.1/DTD/svg11.dtd">
<svg xmlns:xlink="http://www.w3.org/1999/xlink" width="660.244687pt" height="421.537664pt" viewBox="0 0 660.244687 421.537664" xmlns="http://www.w3.org/2000/svg" version="1.1">
 <metadata>
  <rdf:RDF xmlns:dc="http://purl.org/dc/elements/1.1/" xmlns:cc="http://creativecommons.org/ns#" xmlns:rdf="http://www.w3.org/1999/02/22-rdf-syntax-ns#">
   <cc:Work>
    <dc:type rdf:resource="http://purl.org/dc/dcmitype/StillImage"/>
    <dc:date>2026-03-09T15:16:55.194778</dc:date>
    <dc:format>image/svg+xml</dc:format>
    <dc:creator>
     <cc:Agent>
      <dc:title>Matplotlib v3.8.0, https://matplotlib.org/</dc:title>
     </cc:Agent>
    </dc:creator>
   </cc:Work>
  </rdf:RDF>
 </metadata>
 <defs>
  <style type="text/css">*{stroke-linejoin: round; stroke-linecap: butt}</style>
 </defs>
 <g id="figure_1">
  <g id="patch_1">
   <path d="M 0 421.537664 
L 660.244687 421.537664 
L 660.244687 0 
L 0 0 
L 0 421.537664 
z
" style="fill: none"/>
  </g>
  <g id="axes_1">
   <g id="patch_2">
    <path d="M 93.773438 348.345476 
L 428.573438 348.345476 
L 428.573438 15.705476 
L 93.773438 15.705476 
L 93.773438 348.345476 
z
" style="fill: none"/>
   </g>
   <g id="matplotlib.axis_1">
    <g id="xtick_1">
     <g id="line2d_1">
      <defs>
       <path id="m9ae64a90e1" d="M 0 0 
L 0 -10 
" style="stroke: #000000; stroke-width: 2"/>
      </defs>
      <g>
       <use xlink:href="#m9ae64a90e1" x="101.939291" y="348.345476" style="stroke: #000000; stroke-width: 2"/>
      </g>
     </g>
     <g id="line2d_2">
      <defs>
       <path id="m987ad99fde" d="M 0 0 
L 0 10 
" style="stroke: #000000; stroke-width: 2"/>
      </defs>
      <g>
       <use xlink:href="#m987ad99fde" x="101.939291" y="15.705476" style="stroke: #000000; stroke-width: 2"/>
      </g>
     </g>
     <g id="text_1">
      <text style="font: 24px 'Helvetica'; text-anchor: middle" x="101.939291" y="377.561726" transform="rotate(-0 101.939291 377.561726)">0</text>
     </g>
    </g>
    <g id="xtick_2">
     <g id="line2d_3">
      <g>
       <use xlink:href="#m9ae64a90e1" x="265.256364" y="348.345476" style="stroke: #000000; stroke-width: 2"/>
      </g>
     </g>
     <g id="line2d_4">
      <g>
       <use xlink:href="#m987ad99fde" x="265.256364" y="15.705476" style="stroke: #000000; stroke-width: 2"/>
      </g>
     </g>
     <g id="text_2">
      <text style="font: 24px 'Helvetica'; text-anchor: middle" x="265.256364" y="377.561726" transform="rotate(-0 265.256364 377.561726)">200</text>
     </g>
    </g>
    <g id="xtick_3">
     <g id="line2d_5">
      <g>
       <use xlink:href="#m9ae64a90e1" x="428.573438" y="348.345476" style="stroke: #000000; stroke-width: 2"/>
      </g>
     </g>
     <g id="line2d_6">
      <g>
       <use xlink:href="#m987ad99fde" x="428.573438" y="15.705476" style="stroke: #000000; stroke-width: 2"/>
      </g>
     </g>
     <g id="text_3">
      <text style="font: 24px 'Helvetica'; text-anchor: middle" x="428.573438" y="377.561726" transform="rotate(-0 428.573438 377.561726)">400</text>
     </g>
    </g>
    <g id="text_4">
     <text style="font: 30px 'Helvetica'; text-anchor: middle" x="261.173437" y="408.084539" transform="rotate(-0 261.173437 408.084539)">Iteration</text>
    </g>
   </g>
   <g id="matplotlib.axis_2">
    <g id="ytick_1">
     <g id="line2d_7">
      <defs>
       <path id="m255024252c" d="M 0 0 
L 10 0 
" style="stroke: #000000; stroke-width: 2"/>
      </defs>
      <g>
       <use xlink:href="#m255024252c" x="93.773438" y="301.716782" style="stroke: #000000; stroke-width: 2"/>
      </g>
     </g>
     <g id="line2d_8">
      <defs>
       <path id="m5d96edd535" d="M 0 0 
L -10 0 
" style="stroke: #000000; stroke-width: 2"/>
      </defs>
      <g>
       <use xlink:href="#m5d96edd535" x="428.573438" y="301.716782" style="stroke: #000000; stroke-width: 2"/>
      </g>
     </g>
     <g id="text_5">
      <!-- $\mathdefault{10^{-4}}$ -->
      <g transform="translate(38.973438 310.324907)">
       <text>
        <tspan style="font: 24px 'Helvetica'" x="0 13.347656" y="-0.4375">10</tspan>
        <tspan style="font: 16.8px 'Helvetica'" x="26.914883 36.72582" y="-9.220312499999999">−4</tspan>
       </text>
      </g>
     </g>
    </g>
    <g id="ytick_2">
     <g id="line2d_9">
      <g>
       <use xlink:href="#m255024252c" x="93.773438" y="15.808125" style="stroke: #000000; stroke-width: 2"/>
      </g>
     </g>
     <g id="line2d_10">
      <g>
       <use xlink:href="#m5d96edd535" x="428.573438" y="15.808125" style="stroke: #000000; stroke-width: 2"/>
      </g>
     </g>
     <g id="text_6">
      <!-- $\mathdefault{10^{-3}}$ -->
      <g transform="translate(38.973438 24.41625)">
       <text>
        <tspan style="font: 24px 'Helvetica'" x="0 13.347656" y="-0.44843750000000426">10</tspan>
        <tspan style="font: 16.8px 'Helvetica'" x="26.914883 36.72582" y="-9.231250000000003">−3</tspan>
       </text>
      </g>
     </g>
    </g>
    <g id="ytick_3">
     <g id="line2d_11">
      <defs>
       <path id="me102d8e69d" d="M 0 0 
L 4 0 
" style="stroke: #000000"/>
      </defs>
      <g>
       <use xlink:href="#me102d8e69d" x="93.773438" y="346.004593" style="stroke: #000000"/>
      </g>
     </g>
     <g id="line2d_12">
      <defs>
       <path id="mac98809bfc" d="M 0 0 
L -4 0 
" style="stroke: #000000"/>
      </defs>
      <g>
       <use xlink:href="#mac98809bfc" x="428.573438" y="346.004593" style="stroke: #000000"/>
      </g>
     </g>
    </g>
    <g id="ytick_4">
     <g id="line2d_13">
      <g>
       <use xlink:href="#me102d8e69d" x="93.773438" y="329.424193" style="stroke: #000000"/>
      </g>
     </g>
     <g id="line2d_14">
      <g>
       <use xlink:href="#mac98809bfc" x="428.573438" y="329.424193" style="stroke: #000000"/>
      </g>
     </g>
    </g>
    <g id="ytick_5">
     <g id="line2d_15">
      <g>
       <use xlink:href="#me102d8e69d" x="93.773438" y="314.799244" style="stroke: #000000"/>
      </g>
     </g>
     <g id="line2d_16">
      <g>
       <use xlink:href="#mac98809bfc" x="428.573438" y="314.799244" style="stroke: #000000"/>
      </g>
     </g>
    </g>
    <g id="ytick_6">
     <g id="line2d_17">
      <g>
       <use xlink:href="#me102d8e69d" x="93.773438" y="215.6497" style="stroke: #000000"/>
      </g>
     </g>
     <g id="line2d_18">
      <g>
       <use xlink:href="#mac98809bfc" x="428.573438" y="215.6497" style="stroke: #000000"/>
      </g>
     </g>
    </g>
    <g id="ytick_7">
     <g id="line2d_19">
      <g>
       <use xlink:href="#me102d8e69d" x="93.773438" y="165.303685" style="stroke: #000000"/>
      </g>
     </g>
     <g id="line2d_20">
      <g>
       <use xlink:href="#mac98809bfc" x="428.573438" y="165.303685" style="stroke: #000000"/>
      </g>
     </g>
    </g>
    <g id="ytick_8">
     <g id="line2d_21">
      <g>
       <use xlink:href="#me102d8e69d" x="93.773438" y="129.582618" style="stroke: #000000"/>
      </g>
     </g>
     <g id="line2d_22">
      <g>
       <use xlink:href="#mac98809bfc" x="428.573438" y="129.582618" style="stroke: #000000"/>
      </g>
     </g>
    </g>
    <g id="ytick_9">
     <g id="line2d_23">
      <g>
       <use xlink:href="#me102d8e69d" x="93.773438" y="101.875207" style="stroke: #000000"/>
      </g>
     </g>
     <g id="line2d_24">
      <g>
       <use xlink:href="#mac98809bfc" x="428.573438" y="101.875207" style="stroke: #000000"/>
      </g>
     </g>
    </g>
    <g id="ytick_10">
     <g id="line2d_25">
      <g>
       <use xlink:href="#me102d8e69d" x="93.773438" y="79.236603" style="stroke: #000000"/>
      </g>
     </g>
     <g id="line2d_26">
      <g>
       <use xlink:href="#mac98809bfc" x="428.573438" y="79.236603" style="stroke: #000000"/>
      </g>
     </g>
    </g>
    <g id="ytick_11">
     <g id="line2d_27">
      <g>
       <use xlink:href="#me102d8e69d" x="93.773438" y="60.095936" style="stroke: #000000"/>
      </g>
     </g>
     <g id="line2d_28">
      <g>
       <use xlink:href="#mac98809bfc" x="428.573438" y="60.095936" style="stroke: #000000"/>
      </g>
     </g>
    </g>
    <g id="ytick_12">
     <g id="line2d_29">
      <g>
       <use xlink:href="#me102d8e69d" x="93.773438" y="43.515537" style="stroke: #000000"/>
      </g>
     </g>
     <g id="line2d_30">
      <g>
       <use xlink:href="#mac98809bfc" x="428.573438" y="43.515537" style="stroke: #000000"/>
      </g>
     </g>
    </g>
    <g id="ytick_13">
     <g id="line2d_31">
      <g>
       <use xlink:href="#me102d8e69d" x="93.773438" y="28.890588" style="stroke: #000000"/>
      </g>
     </g>
     <g id="line2d_32">
      <g>
       <use xlink:href="#mac98809bfc" x="428.573438" y="28.890588" style="stroke: #000000"/>
      </g>
     </g>
    </g>
    <g id="text_7">
     <!-- $c_8$ -->
     <g transform="translate(28.720313 194.775476) rotate(-90)">
      <text>
       <tspan style="font: 30px 'cmmi10'" x="0" y="-0.75">c</tspan>
       <tspan style="font: 21px 'cmr10'" x="12.963867" y="4.351875">8</tspan>
      </text>
     </g>
    </g>
   </g>
   <g id="line2d_33">
    <path d="M 101.939291 30.825476 
L 102.755877 67.518443 
L 103.572462 78.236522 
L 104.389047 86.466386 
L 105.205633 93.159346 
L 106.838803 103.702588 
L 110.105145 122.508822 
L 111.738316 133.494921 
L 113.371486 146.805591 
L 116.637828 176.254251 
L 117.454413 181.273735 
L 118.270998 184.972962 
L 119.087584 187.718892 
L 119.904169 189.87211 
L 121.53734 193.283655 
L 123.170511 196.14265 
L 125.620267 199.893287 
L 128.070023 203.206247 
L 132.15295 208.270534 
L 150.934413 230.988955 
L 158.283681 239.254908 
L 167.26612 249.013943 
L 175.431974 257.573818 
L 184.414413 266.660355 
L 196.663194 278.71401 
L 204.012462 285.688634 
L 208.911974 290.067457 
L 213.811486 294.147568 
L 218.710998 297.90127 
L 223.610511 301.326903 
L 228.510023 304.435038 
L 233.409535 307.239432 
L 238.309047 309.753943 
L 243.208559 311.992775 
L 248.108072 313.971634 
L 253.007584 315.709362 
L 257.907096 317.228138 
L 263.623194 318.755733 
L 269.339291 320.057543 
L 275.871974 321.316374 
L 283.221242 322.499191 
L 291.387096 323.591647 
L 301.18612 324.680195 
L 313.434901 325.8148 
L 329.766608 327.095585 
L 350.181242 328.465567 
L 370.595877 329.61148 
L 390.193925 330.486862 
L 411.425145 331.206798 
L 429.390023 331.659666 
L 429.390023 331.659666 
" clip-path="url(#pd86a0b8d63)" style="fill: none; stroke: #3f90da; stroke-width: 2; stroke-linecap: square"/>
   </g>
   <g id="line2d_34">
    <path d="M 101.939291 30.825476 
L 102.755877 43.772593 
L 103.572462 50.643311 
L 104.389047 67.600138 
L 105.205633 91.598404 
L 106.022218 106.542574 
L 106.838803 113.887803 
L 107.655389 117.678167 
L 108.471974 122.721931 
L 109.288559 130.870683 
L 110.105145 133.723444 
L 110.92173 135.359758 
L 111.738316 137.874795 
L 112.554901 139.388023 
L 113.371486 142.027715 
L 114.188072 143.508002 
L 115.004657 146.199907 
L 115.821242 147.780711 
L 116.637828 149.012427 
L 117.454413 149.799394 
L 119.087584 151.558803 
L 119.904169 152.394865 
L 120.720755 158.833537 
L 121.53734 159.188974 
L 122.353925 159.873945 
L 123.170511 161.098002 
L 123.987096 163.034352 
L 124.803681 165.396399 
L 125.620267 167.294225 
L 126.436852 168.6883 
L 127.253438 171.062736 
L 128.070023 174.267294 
L 128.886608 179.874661 
L 129.703194 181.500962 
L 130.519779 182.720156 
L 131.336364 184.92821 
L 132.15295 185.736485 
L 135.419291 186.804183 
L 136.235877 187.669934 
L 137.052462 189.129719 
L 138.685633 190.415199 
L 141.951974 191.511245 
L 142.768559 192.160892 
L 144.40173 194.434016 
L 146.034901 195.482255 
L 148.484657 195.93913 
L 149.301242 196.016444 
L 150.934413 196.541678 
L 153.384169 198.335424 
L 154.200755 199.26504 
L 155.01734 199.965652 
L 155.833925 200.413244 
L 157.467096 200.913066 
L 159.916852 201.791117 
L 163.999779 202.15216 
L 164.816364 202.493283 
L 168.899291 202.85295 
L 169.715877 203.02484 
L 171.349047 203.703897 
L 172.165633 204.434089 
L 172.982218 205.602225 
L 173.798803 207.875045 
L 175.431974 210.850667 
L 176.248559 214.632551 
L 177.065145 217.045396 
L 177.88173 217.897979 
L 178.698316 220.016382 
L 179.514901 221.805009 
L 181.148072 222.084206 
L 183.597828 222.462782 
L 184.414413 223.383343 
L 186.047584 224.002894 
L 186.864169 224.212075 
L 188.49734 224.495658 
L 189.313925 224.83136 
L 191.763681 225.274055 
L 194.213437 225.597232 
L 195.846608 226.282578 
L 196.663194 226.634042 
L 197.479779 227.595307 
L 198.296364 228.802467 
L 199.11295 230.209457 
L 199.929535 230.765649 
L 201.562706 233.417282 
L 202.379291 235.324471 
L 203.195877 236.581329 
L 204.012462 238.177464 
L 205.645633 239.56225 
L 208.095389 240.642156 
L 208.911974 241.158549 
L 209.728559 241.490081 
L 210.545145 242.014141 
L 212.178316 242.688915 
L 214.628072 243.039053 
L 216.261242 243.461807 
L 219.527584 245.317227 
L 221.160755 246.767259 
L 221.97734 247.925153 
L 223.610511 248.857858 
L 225.243681 249.504875 
L 230.143194 250.727098 
L 235.042706 251.081499 
L 236.675877 251.395495 
L 241.575389 251.989601 
L 243.208559 252.242935 
L 246.474901 252.495307 
L 248.108072 252.847305 
L 252.190998 253.605784 
L 256.273925 253.743982 
L 259.540267 254.135978 
L 261.173438 254.20981 
L 263.623194 254.458496 
L 273.422218 254.922792 
L 278.32173 255.146185 
L 284.854413 255.777347 
L 291.387096 256.059724 
L 293.020267 256.524094 
L 300.369535 256.917488 
L 307.718803 257.075076 
L 308.535389 257.157758 
L 309.351974 257.469816 
L 310.168559 258.205076 
L 310.985145 258.385428 
L 311.80173 258.789181 
L 319.967584 259.176952 
L 331.399779 259.500452 
L 333.03295 259.66881 
L 335.482706 260.258643 
L 336.299291 260.604079 
L 337.115877 261.194364 
L 337.932462 261.620178 
L 338.749047 262.552701 
L 339.565633 263.180034 
L 341.198803 263.404116 
L 343.648559 263.528042 
L 351.814413 263.715432 
L 354.264169 263.985374 
L 356.713925 264.246189 
L 358.347096 264.579442 
L 359.163681 265.034765 
L 361.613438 265.757918 
L 362.430023 266.098098 
L 363.246608 266.255905 
L 364.879779 266.968937 
L 367.329535 268.009494 
L 373.862218 268.792006 
L 382.028072 269.060345 
L 383.661242 269.144135 
L 391.827096 269.357134 
L 395.093438 269.502105 
L 406.525633 269.697987 
L 411.425145 269.82474 
L 417.957828 269.986175 
L 420.407584 270.415078 
L 422.040755 270.941404 
L 423.673925 271.167909 
L 429.390023 271.435452 
L 429.390023 271.435452 
" clip-path="url(#pd86a0b8d63)" style="fill: none; stroke-dasharray: 10,2; stroke-dashoffset: 0; stroke: #ffa90e; stroke-width: 2"/>
   </g>
   <g id="line2d_35">
    <path d="M 101.939291 30.825476 
L 104.389047 30.825476 
L 105.205633 44.765081 
L 106.022218 75.587366 
L 106.838803 75.587366 
L 107.655389 91.387456 
L 108.471974 101.422648 
L 109.288559 106.438919 
L 110.105145 129.355659 
L 110.92173 135.486569 
L 111.738316 135.486569 
L 112.554901 138.298741 
L 113.371486 140.681684 
L 114.188072 143.559057 
L 115.004657 143.559057 
L 115.821242 146.366054 
L 116.637828 148.000137 
L 117.454413 150.950459 
L 118.270998 162.694126 
L 119.087584 162.694126 
L 119.904169 166.938281 
L 120.720755 166.938281 
L 121.53734 172.721454 
L 122.353925 175.519011 
L 123.987096 184.185171 
L 124.803681 187.84636 
L 126.436852 192.259478 
L 127.253438 195.764707 
L 128.070023 201.226973 
L 128.886608 210.273514 
L 129.703194 210.273514 
L 131.336364 223.762732 
L 132.15295 232.089953 
L 132.969535 232.089953 
L 133.78612 237.435744 
L 134.602706 237.435744 
L 135.419291 240.143447 
L 136.235877 243.496773 
L 137.052462 245.626011 
L 137.869047 249.327235 
L 138.685633 249.327235 
L 139.502218 251.188697 
L 141.951974 257.992504 
L 142.768559 261.558556 
L 143.585145 265.703992 
L 145.218316 265.703992 
L 146.034901 268.648129 
L 146.851486 271.168647 
L 147.668072 273.144849 
L 148.484657 275.620469 
L 149.301242 280.038583 
L 150.117828 280.038583 
L 151.750998 286.945491 
L 152.567584 286.945491 
L 154.200755 291.795345 
L 155.01734 291.795345 
L 155.833925 293.701718 
L 156.650511 294.903632 
L 157.467096 294.903632 
L 158.283681 296.893665 
L 159.100267 297.925043 
L 159.916852 299.58897 
L 160.733438 299.58897 
L 161.550023 300.369545 
L 162.366608 300.369545 
L 163.183194 301.396189 
L 163.999779 301.84582 
L 164.816364 302.608808 
L 165.63295 303.637045 
L 166.449535 303.637045 
L 167.26612 304.994068 
L 168.082706 305.666435 
L 168.899291 306.865365 
L 169.715877 306.865365 
L 170.532462 307.604995 
L 171.349047 307.604995 
L 172.165633 308.416605 
L 172.982218 308.754922 
L 173.798803 309.432878 
L 174.615389 309.865472 
L 175.431974 311.999837 
L 177.065145 314.039068 
L 177.88173 314.039068 
L 178.698316 315.315374 
L 179.514901 315.896544 
L 181.148072 318.050844 
L 182.781242 319.397303 
L 183.597828 319.895401 
L 184.414413 319.895401 
L 185.230998 320.089692 
L 186.047584 320.089692 
L 186.864169 320.621711 
L 188.49734 321.162127 
L 190.130511 321.896856 
L 191.763681 322.369617 
L 192.580267 322.369617 
L 197.479779 323.536434 
L 202.379291 324.234843 
L 208.095389 324.807252 
L 218.710998 325.556144 
L 227.693438 325.93113 
L 239.942218 326.28388 
L 264.439779 326.716357 
L 308.535389 327.080079 
L 377.945145 327.268133 
L 552.694413 327.434197 
L 661.244687 327.483691 
L 661.244687 327.483691 
" clip-path="url(#pd86a0b8d63)" style="fill: none; stroke-dasharray: 12.8,3.2,2,3.2; stroke-dashoffset: 0; stroke: #bd1f01; stroke-width: 2"/>
   </g>
   <g id="line2d_36">
    <path d="M 101.939291 30.825476 
L 104.389047 30.825476 
L 105.205633 44.765081 
L 106.022218 75.587366 
L 106.838803 75.587366 
L 107.655389 91.387456 
L 108.471974 101.422648 
L 109.288559 106.438919 
L 110.105145 129.355659 
L 110.92173 135.486569 
L 111.738316 135.486569 
L 112.554901 138.298741 
L 113.371486 140.681684 
L 114.188072 143.559057 
L 115.004657 143.559057 
L 115.821242 146.366054 
L 116.637828 148.000137 
L 117.454413 150.950459 
L 118.270998 162.694126 
L 119.087584 162.694126 
L 119.904169 166.938281 
L 120.720755 166.938281 
L 121.53734 172.721453 
L 122.353925 175.519011 
L 123.987096 184.185171 
L 124.803681 187.84636 
L 126.436852 192.259478 
L 127.253438 195.764707 
L 128.070023 201.226973 
L 128.886608 210.273515 
L 129.703194 210.273515 
L 131.336364 223.762736 
L 132.15295 232.089964 
L 132.969535 232.089964 
L 133.78612 237.435809 
L 134.602706 237.435809 
L 135.419291 240.143653 
L 136.235877 243.496807 
L 137.052462 245.626037 
L 137.869047 249.327346 
L 138.685633 249.327346 
L 139.502218 251.188053 
L 141.951974 257.99292 
L 142.768559 261.561669 
L 143.585145 265.70032 
L 145.218316 265.70032 
L 146.034901 268.64752 
L 146.851486 271.168959 
L 147.668072 273.149486 
L 148.484657 275.597721 
L 149.301242 279.934743 
L 150.117828 279.934743 
L 151.750998 286.717828 
L 152.567584 286.717828 
L 153.384169 289.15229 
L 154.200755 291.102768 
L 155.01734 291.102768 
L 155.833925 293.08732 
L 156.650511 294.099115 
L 157.467096 295.883181 
L 158.283681 295.883181 
L 159.100267 297.274462 
L 159.916852 298.095846 
L 160.733438 298.512139 
L 161.550023 299.922929 
L 162.366608 300.419273 
L 163.183194 301.193163 
L 163.999779 301.193163 
L 165.63295 302.59405 
L 166.449535 303.465297 
L 167.26612 303.465297 
L 168.082706 304.908128 
L 168.899291 305.628032 
L 169.715877 305.628032 
L 171.349047 306.831043 
L 172.165633 306.831043 
L 173.798803 307.985804 
L 174.615389 307.985804 
L 176.248559 309.209127 
L 177.065145 309.209127 
L 177.88173 309.928451 
L 178.698316 310.476757 
L 179.514901 310.769885 
L 180.331486 312.216466 
L 181.148072 312.718822 
L 181.964657 313.467125 
L 182.781242 314.58058 
L 183.597828 314.58058 
L 184.414413 315.702903 
L 185.230998 316.282684 
L 186.047584 316.282684 
L 190.130511 318.988387 
L 191.763681 319.771988 
L 194.213437 320.722769 
L 196.663194 321.432923 
L 199.929535 322.17379 
L 206.462218 323.374409 
L 215.444657 324.340751 
L 222.793925 324.809033 
L 236.675877 325.480939 
L 252.190998 325.888568 
L 278.32173 326.326623 
L 315.884657 326.67424 
L 377.128559 326.945894 
L 489.81734 327.169028 
L 661.244687 327.317146 
L 661.244687 327.317146 
" clip-path="url(#pd86a0b8d63)" style="fill: none; stroke-dasharray: 20,6; stroke-dashoffset: 10; stroke: #832db6; stroke-width: 2"/>
   </g>
   <g id="patch_3">
    <path d="M 93.773438 348.345476 
L 93.773438 15.705476 
" style="fill: none; stroke: #000000; stroke-width: 2; stroke-linejoin: miter; stroke-linecap: square"/>
   </g>
   <g id="patch_4">
    <path d="M 428.573438 348.345476 
L 428.573438 15.705476 
" style="fill: none; stroke: #000000; stroke-width: 2; stroke-linejoin: miter; stroke-linecap: square"/>
   </g>
   <g id="patch_5">
    <path d="M 93.773438 348.345476 
L 428.573438 348.345476 
" style="fill: none; stroke: #000000; stroke-width: 2; stroke-linejoin: miter; stroke-linecap: square"/>
   </g>
   <g id="patch_6">
    <path d="M 93.773438 15.705476 
L 428.573438 15.705476 
" style="fill: none; stroke: #000000; stroke-width: 2; stroke-linejoin: miter; stroke-linecap: square"/>
   </g>
   <g id="legend_1">
    <g id="line2d_37">
     <path d="M 466.913438 46.121726 
L 490.913438 46.121726 
L 514.913438 46.121726 
" style="fill: none; stroke: #3f90da; stroke-width: 2; stroke-linecap: square"/>
    </g>
    <g id="text_8">
     <text style="font: 24px 'Helvetica'; text-anchor: start" x="534.113438" y="54.521726" transform="rotate(-0 534.113438 54.521726)">Alt</text>
    </g>
    <g id="line2d_38">
     <path d="M 466.913438 80.340476 
L 490.913438 80.340476 
L 514.913438 80.340476 
" style="fill: none; stroke-dasharray: 10,2; stroke-dashoffset: 0; stroke: #ffa90e; stroke-width: 2"/>
    </g>
    <g id="text_9">
     <text style="font: 24px 'Helvetica'; text-anchor: start" x="534.113438" y="88.740476" transform="rotate(-0 534.113438 88.740476)">RCG</text>
    </g>
    <g id="line2d_39">
     <path d="M 466.913438 114.559226 
L 490.913438 114.559226 
L 514.913438 114.559226 
" style="fill: none; stroke-dasharray: 12.8,3.2,2,3.2; stroke-dashoffset: 0; stroke: #bd1f01; stroke-width: 2"/>
    </g>
    <g id="text_10">
     <text style="font: 24px 'Helvetica'; text-anchor: start" x="534.113438" y="122.959226" transform="rotate(-0 534.113438 122.959226)">RNTR</text>
    </g>
    <g id="line2d_40">
     <path d="M 466.913438 148.777976 
L 490.913438 148.777976 
L 514.913438 148.777976 
" style="fill: none; stroke-dasharray: 20,6; stroke-dashoffset: 10; stroke: #832db6; stroke-width: 2"/>
    </g>
    <g id="text_11">
     <text style="font: 24px 'Helvetica'; text-anchor: start" x="534.113438" y="157.177976" transform="rotate(-0 534.113438 157.177976)">RNTR-reg</text>
    </g>
   </g>
  </g>
 </g>
 <defs>
  <clipPath id="pd86a0b8d63">
   <rect x="93.773438" y="15.705476" width="334.8" height="332.64"/>
  </clipPath>
 </defs>
</svg>
