<?xml version="1.0" encoding="utf-8" standalone="no"?>
<!DOCTYPE svg PUBLIC "-//W3C//DTD SVG 1.1//EN"
  "http://www.w3.org/Graphics/SVG/1.1/DTD/svg11.dtd">
<svg xmlns:xlink="http://www.w3.org/1999/xlink" width="660.244687pt" height="421.757976pt" viewBox="0 0 660.244687 421.757976" xmlns="http://www.w3.org/2000/svg" version="1.1">
 <metadata>
  <rdf:RDF xmlns:dc="http://purl.org/dc/elements/1.1/" xmlns:cc="http://creativecommons.org/ns#" xmlns:rdf="http://www.w3.org/1999/02/22-rdf-syntax-ns#">
   <cc:Work>
    <dc:type rdf:resource="http://purl.org/dc/dcmitype/StillImage"/>
    <dc:date>2026-03-09T15:36:31.716226</dc:date>
    <dc:format>image/svg+xml</dc:format>
    <dc:creator>
     <cc:Agent>
      <dc:title>Matplotlib v3.8.0, https://matplotlib.org/</dc:title>
     </cc:Agent>
    </dc:creator>
   </cc:Work>
  </rdf:RDF>
 </metadata>
 <defs>
  <style type="text/css">*{stroke-linejoin: round; stroke-linecap: butt}</style>
 </defs>
 <g id="figure_1">
  <g id="patch_1">
   <path d="M 0 421.757976 
L 660.244687 421.757976 
L 660.244687 0 
L 0 0 
L 0 421.757976 
z
" style="fill: none"/>
  </g>
  <g id="axes_1">
   <g id="patch_2">
    <path d="M 93.773438 348.345476 
L 428.573438 348.345476 
L 428.573438 15.705476 
L 93.773438 15.705476 
L 93.773438 348.345476 
z
" style="fill: none"/>
   </g>
   <g id="matplotlib.axis_1">
    <g id="xtick_1">
     <g id="line2d_1">
      <defs>
       <path id="md148798ad0" d="M 0 0 
L 0 -10 
" style="stroke: #000000; stroke-width: 2"/>
      </defs>
      <g>
       <use xlink:href="#md148798ad0" x="108.329959" y="348.345476" style="stroke: #000000; stroke-width: 2"/>
      </g>
     </g>
     <g id="line2d_2">
      <defs>
       <path id="mce581532f5" d="M 0 0 
L 0 10 
" style="stroke: #000000; stroke-width: 2"/>
      </defs>
      <g>
       <use xlink:href="#mce581532f5" x="108.329959" y="15.705476" style="stroke: #000000; stroke-width: 2"/>
      </g>
     </g>
     <g id="text_1">
      <text style="font: 24px 'Helvetica'; text-anchor: middle" x="108.329959" y="377.561726" transform="rotate(-0 108.329959 377.561726)">0</text>
     </g>
    </g>
    <g id="xtick_2">
     <g id="line2d_3">
      <g>
       <use xlink:href="#md148798ad0" x="253.895177" y="348.345476" style="stroke: #000000; stroke-width: 2"/>
      </g>
     </g>
     <g id="line2d_4">
      <g>
       <use xlink:href="#mce581532f5" x="253.895177" y="15.705476" style="stroke: #000000; stroke-width: 2"/>
      </g>
     </g>
     <g id="text_2">
      <text style="font: 24px 'Helvetica'; text-anchor: middle" x="253.895177" y="377.561726" transform="rotate(-0 253.895177 377.561726)">5</text>
     </g>
    </g>
    <g id="xtick_3">
     <g id="line2d_5">
      <g>
       <use xlink:href="#md148798ad0" x="399.460394" y="348.345476" style="stroke: #000000; stroke-width: 2"/>
      </g>
     </g>
     <g id="line2d_6">
      <g>
       <use xlink:href="#mce581532f5" x="399.460394" y="15.705476" style="stroke: #000000; stroke-width: 2"/>
      </g>
     </g>
     <g id="text_3">
      <text style="font: 24px 'Helvetica'; text-anchor: middle" x="399.460394" y="377.561726" transform="rotate(-0 399.460394 377.561726)">10</text>
     </g>
    </g>
    <g id="text_4">
     <text style="font: 30px 'Helvetica'; text-anchor: middle" x="261.173437" y="408.304851" transform="rotate(-0 261.173437 408.304851)">Time (s)</text>
    </g>
   </g>
   <g id="matplotlib.axis_2">
    <g id="ytick_1">
     <g id="line2d_7">
      <defs>
       <path id="mced698df1a" d="M 0 0 
L 10 0 
" style="stroke: #000000; stroke-width: 2"/>
      </defs>
      <g>
       <use xlink:href="#mced698df1a" x="93.773438" y="301.716782" style="stroke: #000000; stroke-width: 2"/>
      </g>
     </g>
     <g id="line2d_8">
      <defs>
       <path id="m5dbf8e14a0" d="M 0 0 
L -10 0 
" style="stroke: #000000; stroke-width: 2"/>
      </defs>
      <g>
       <use xlink:href="#m5dbf8e14a0" x="428.573438" y="301.716782" style="stroke: #000000; stroke-width: 2"/>
      </g>
     </g>
     <g id="text_5">
      <!-- $\mathdefault{10^{-4}}$ -->
      <g transform="translate(38.973438 310.324907)">
       <text>
        <tspan style="font: 24px 'Helvetica'" x="0 13.347656" y="-0.4375">10</tspan>
        <tspan style="font: 16.8px 'Helvetica'" x="26.914883 36.72582" y="-9.220312499999999">−4</tspan>
       </text>
      </g>
     </g>
    </g>
    <g id="ytick_2">
     <g id="line2d_9">
      <g>
       <use xlink:href="#mced698df1a" x="93.773438" y="15.808125" style="stroke: #000000; stroke-width: 2"/>
      </g>
     </g>
     <g id="line2d_10">
      <g>
       <use xlink:href="#m5dbf8e14a0" x="428.573438" y="15.808125" style="stroke: #000000; stroke-width: 2"/>
      </g>
     </g>
     <g id="text_6">
      <!-- $\mathdefault{10^{-3}}$ -->
      <g transform="translate(38.973438 24.41625)">
       <text>
        <tspan style="font: 24px 'Helvetica'" x="0 13.347656" y="-0.44843750000000426">10</tspan>
        <tspan style="font: 16.8px 'Helvetica'" x="26.914883 36.72582" y="-9.231250000000003">−3</tspan>
       </text>
      </g>
     </g>
    </g>
    <g id="ytick_3">
     <g id="line2d_11">
      <defs>
       <path id="me51e371afa" d="M 0 0 
L 4 0 
" style="stroke: #000000"/>
      </defs>
      <g>
       <use xlink:href="#me51e371afa" x="93.773438" y="346.004593" style="stroke: #000000"/>
      </g>
     </g>
     <g id="line2d_12">
      <defs>
       <path id="mc8814cc1d5" d="M 0 0 
L -4 0 
" style="stroke: #000000"/>
      </defs>
      <g>
       <use xlink:href="#mc8814cc1d5" x="428.573438" y="346.004593" style="stroke: #000000"/>
      </g>
     </g>
    </g>
    <g id="ytick_4">
     <g id="line2d_13">
      <g>
       <use xlink:href="#me51e371afa" x="93.773438" y="329.424193" style="stroke: #000000"/>
      </g>
     </g>
     <g id="line2d_14">
      <g>
       <use xlink:href="#mc8814cc1d5" x="428.573438" y="329.424193" style="stroke: #000000"/>
      </g>
     </g>
    </g>
    <g id="ytick_5">
     <g id="line2d_15">
      <g>
       <use xlink:href="#me51e371afa" x="93.773438" y="314.799244" style="stroke: #000000"/>
      </g>
     </g>
     <g id="line2d_16">
      <g>
       <use xlink:href="#mc8814cc1d5" x="428.573438" y="314.799244" style="stroke: #000000"/>
      </g>
     </g>
    </g>
    <g id="ytick_6">
     <g id="line2d_17">
      <g>
       <use xlink:href="#me51e371afa" x="93.773438" y="215.6497" style="stroke: #000000"/>
      </g>
     </g>
     <g id="line2d_18">
      <g>
       <use xlink:href="#mc8814cc1d5" x="428.573438" y="215.6497" style="stroke: #000000"/>
      </g>
     </g>
    </g>
    <g id="ytick_7">
     <g id="line2d_19">
      <g>
       <use xlink:href="#me51e371afa" x="93.773438" y="165.303685" style="stroke: #000000"/>
      </g>
     </g>
     <g id="line2d_20">
      <g>
       <use xlink:href="#mc8814cc1d5" x="428.573438" y="165.303685" style="stroke: #000000"/>
      </g>
     </g>
    </g>
    <g id="ytick_8">
     <g id="line2d_21">
      <g>
       <use xlink:href="#me51e371afa" x="93.773438" y="129.582618" style="stroke: #000000"/>
      </g>
     </g>
     <g id="line2d_22">
      <g>
       <use xlink:href="#mc8814cc1d5" x="428.573438" y="129.582618" style="stroke: #000000"/>
      </g>
     </g>
    </g>
    <g id="ytick_9">
     <g id="line2d_23">
      <g>
       <use xlink:href="#me51e371afa" x="93.773438" y="101.875207" style="stroke: #000000"/>
      </g>
     </g>
     <g id="line2d_24">
      <g>
       <use xlink:href="#mc8814cc1d5" x="428.573438" y="101.875207" style="stroke: #000000"/>
      </g>
     </g>
    </g>
    <g id="ytick_10">
     <g id="line2d_25">
      <g>
       <use xlink:href="#me51e371afa" x="93.773438" y="79.236603" style="stroke: #000000"/>
      </g>
     </g>
     <g id="line2d_26">
      <g>
       <use xlink:href="#mc8814cc1d5" x="428.573438" y="79.236603" style="stroke: #000000"/>
      </g>
     </g>
    </g>
    <g id="ytick_11">
     <g id="line2d_27">
      <g>
       <use xlink:href="#me51e371afa" x="93.773438" y="60.095936" style="stroke: #000000"/>
      </g>
     </g>
     <g id="line2d_28">
      <g>
       <use xlink:href="#mc8814cc1d5" x="428.573438" y="60.095936" style="stroke: #000000"/>
      </g>
     </g>
    </g>
    <g id="ytick_12">
     <g id="line2d_29">
      <g>
       <use xlink:href="#me51e371afa" x="93.773438" y="43.515537" style="stroke: #000000"/>
      </g>
     </g>
     <g id="line2d_30">
      <g>
       <use xlink:href="#mc8814cc1d5" x="428.573438" y="43.515537" style="stroke: #000000"/>
      </g>
     </g>
    </g>
    <g id="ytick_13">
     <g id="line2d_31">
      <g>
       <use xlink:href="#me51e371afa" x="93.773438" y="28.890588" style="stroke: #000000"/>
      </g>
     </g>
     <g id="line2d_32">
      <g>
       <use xlink:href="#mc8814cc1d5" x="428.573438" y="28.890588" style="stroke: #000000"/>
      </g>
     </g>
    </g>
    <g id="text_7">
     <!-- $c_8$ -->
     <g transform="translate(28.720313 194.775476) rotate(-90)">
      <text>
       <tspan style="font: 30px 'cmmi10'" x="0" y="-0.75">c</tspan>
       <tspan style="font: 21px 'cmr10'" x="12.963867" y="4.351875">8</tspan>
      </text>
     </g>
    </g>
   </g>
   <g id="line2d_33">
    <path d="M 108.329959 30.825476 
L 108.529627 67.518443 
L 109.04149 93.159346 
L 109.715394 112.925257 
L 110.391533 133.494921 
L 111.066082 162.284365 
L 111.572864 181.273735 
L 111.901775 187.718892 
L 112.403324 193.283655 
L 113.223671 199.893287 
L 114.395667 207.275989 
L 120.167767 241.055917 
L 123.648418 259.249459 
L 127.119616 276.327732 
L 130.43137 291.462727 
L 132.060027 297.90127 
L 133.688643 303.433433 
L 134.861 306.792537 
L 136.8332 311.638145 
L 138.169443 314.277439 
L 140.169109 317.461669 
L 141.650039 319.33906 
L 143.155659 320.869902 
L 144.957608 322.378159 
L 146.91453 323.690517 
L 148.902868 324.762482 
L 151.849055 326.087986 
L 156.105547 327.670417 
L 160.055243 328.904971 
L 164.321355 330.002634 
L 168.430016 330.818366 
L 172.748866 331.449286 
L 177.850686 331.971048 
L 184.599098 332.402015 
L 200.82514 333.089668 
L 216.771386 333.154469 
L 326.287668 333.221018 
L 419.861883 333.225476 
L 419.861883 333.225476 
" clip-path="url(#p6eb60037aa)" style="fill: none; stroke: #3f90da; stroke-width: 2; stroke-linecap: square"/>
   </g>
   <g id="line2d_34">
    <path d="M 108.329959 30.825476 
L 109.972818 43.772593 
L 110.564886 50.643311 
L 111.150353 67.600138 
L 112.12339 91.598404 
L 113.089597 106.542574 
L 113.863626 113.887803 
L 114.485103 117.678167 
L 115.095246 122.721931 
L 115.717848 130.870683 
L 117.479073 135.359758 
L 118.243363 137.874795 
L 118.844247 139.388023 
L 119.427826 142.027715 
L 120.389979 143.508002 
L 120.984657 146.199907 
L 123.420056 149.799394 
L 124.724322 151.558803 
L 125.314773 152.394865 
L 126.112908 158.833537 
L 128.14984 159.188974 
L 128.790059 159.873945 
L 129.402332 161.098002 
L 129.984267 163.034352 
L 131.090197 167.294225 
L 131.655417 168.6883 
L 132.216278 171.062736 
L 133.106799 174.267294 
L 133.654937 179.874661 
L 134.723025 181.500962 
L 135.261966 182.720156 
L 135.827429 184.92821 
L 136.865101 185.736485 
L 138.534434 186.375434 
L 139.063775 186.804183 
L 139.632653 187.669934 
L 140.765134 189.129719 
L 142.119833 190.415199 
L 142.907029 190.711749 
L 143.50837 191.064803 
L 144.895353 191.511245 
L 145.500922 192.160892 
L 147.696215 194.942352 
L 148.295585 195.482255 
L 151.706368 196.016444 
L 153.095301 196.541678 
L 153.699488 197.113511 
L 154.537416 197.57637 
L 155.151376 198.335424 
L 157.601054 200.413244 
L 158.411065 200.6339 
L 160.354397 201.584279 
L 162.083673 201.861626 
L 163.871017 202.011618 
L 167.005725 202.699761 
L 169.092557 202.85295 
L 169.713659 203.02484 
L 171.646288 203.703897 
L 172.242708 204.434089 
L 172.824559 205.602225 
L 173.754852 207.875045 
L 174.681384 209.41676 
L 175.265095 210.850667 
L 175.847119 214.632551 
L 177.72206 217.897979 
L 178.318647 220.016382 
L 179.275081 221.805009 
L 182.842253 222.462782 
L 183.40251 223.383343 
L 187.160396 224.495658 
L 188.429498 225.004917 
L 191.561568 225.597232 
L 192.28147 225.886359 
L 192.831711 226.282578 
L 193.520968 226.634042 
L 194.041161 227.595307 
L 194.908416 228.802467 
L 195.45384 230.209457 
L 196.303609 230.765649 
L 196.821908 232.107989 
L 197.49552 233.417282 
L 199.251123 238.177464 
L 201.805812 240.315583 
L 202.641866 240.642156 
L 203.14057 241.158549 
L 203.947305 241.490081 
L 204.433264 242.014141 
L 205.989915 242.688915 
L 207.958103 243.039053 
L 208.503492 243.274348 
L 209.267637 243.461807 
L 209.837806 243.947646 
L 210.737586 244.320408 
L 211.270718 244.903173 
L 211.954901 245.317227 
L 212.505017 246.047916 
L 213.435415 246.767259 
L 213.995651 247.925153 
L 215.683405 248.857858 
L 216.838069 249.504875 
L 218.759745 250.163587 
L 219.273406 250.396156 
L 222.01883 250.831939 
L 223.109323 250.9276 
L 223.664465 251.031742 
L 224.747782 251.081499 
L 225.309288 251.270347 
L 234.15661 252.495307 
L 234.731013 252.711214 
L 236.502428 253.003714 
L 237.095461 253.213125 
L 239.506886 253.605784 
L 244.142459 253.852272 
L 245.69482 254.05511 
L 251.500292 254.557746 
L 263.423357 255.146185 
L 267.218579 255.697066 
L 274.71992 255.964794 
L 275.302228 256.059724 
L 275.89817 256.314095 
L 278.059264 256.579483 
L 290.527274 257.157758 
L 291.456263 257.469816 
L 292.183481 258.205076 
L 292.911289 258.385428 
L 293.471206 258.789181 
L 305.729602 259.362841 
L 307.671442 259.418935 
L 309.746807 259.66881 
L 310.250244 259.862279 
L 311.207726 260.007421 
L 312.1694 260.604079 
L 313.126972 261.194364 
L 313.603152 261.620178 
L 314.115286 262.552701 
L 315.227797 263.180034 
L 316.394775 263.404116 
L 318.003754 263.528042 
L 324.087398 263.715432 
L 324.582124 263.830482 
L 327.454049 264.147965 
L 328.897969 264.384159 
L 329.590628 264.579442 
L 330.103227 265.034765 
L 330.960514 265.266879 
L 331.459496 265.552167 
L 332.32135 265.757918 
L 332.822212 266.098098 
L 333.644426 266.255905 
L 335.63141 267.308214 
L 336.197817 267.554024 
L 336.753486 268.009494 
L 342.540745 268.792006 
L 357.830531 269.357134 
L 360.481146 269.502105 
L 369.958976 269.674163 
L 381.303126 270.105809 
L 383.46935 270.690141 
L 384.853688 271.093257 
L 386.358732 271.208732 
L 391.159016 271.456539 
L 397.772175 271.577324 
L 400.715052 271.73855 
L 414.960043 271.955893 
L 419.500204 272.057367 
L 421.034948 272.567442 
L 421.517882 272.877773 
L 421.990861 273.948207 
L 425.177787 274.967665 
L 429.085864 275.146814 
L 429.085864 275.146814 
" clip-path="url(#p6eb60037aa)" style="fill: none; stroke-dasharray: 10,2; stroke-dashoffset: 0; stroke: #ffa90e; stroke-width: 2"/>
   </g>
   <g id="line2d_35">
    <path d="M 108.329959 30.825476 
L 121.204252 30.825476 
L 124.1469 44.765081 
L 127.088312 75.587366 
L 130.759871 75.587366 
L 132.835083 91.387456 
L 134.915259 101.422648 
L 137.902607 106.438919 
L 139.099112 129.355659 
L 142.105097 135.486569 
L 144.925651 135.486569 
L 147.001606 138.298741 
L 149.07255 140.681684 
L 152.909085 143.559057 
L 156.658745 143.559057 
L 158.730945 146.366054 
L 164.659025 150.950459 
L 169.359914 162.694126 
L 173.960017 162.694126 
L 177.822255 166.938281 
L 180.66164 166.938281 
L 181.864503 172.721454 
L 183.956326 175.519011 
L 186.026686 180.016151 
L 189.001561 184.185171 
L 191.960472 187.84636 
L 195.813409 189.903251 
L 200.553715 192.259478 
L 217.114859 201.226973 
L 230.808999 210.273514 
L 251.374332 210.273514 
L 267.688303 217.110494 
L 300.175397 232.089953 
L 321.7102 232.089953 
L 337.06435 237.435744 
L 348.727117 237.435744 
L 356.10501 240.143447 
L 364.474834 243.496773 
L 374.472933 245.626011 
L 386.361182 249.327235 
L 407.813066 249.327235 
L 422.376397 251.188697 
L 435.975888 253.493301 
L 451.349314 255.751318 
L 468.574317 257.992504 
L 492.832658 261.558556 
L 532.432217 265.703992 
L 584.29828 265.703992 
L 592.570616 268.648129 
L 607.068111 271.168647 
L 661.244687 275.181836 
L 661.244687 275.181836 
" clip-path="url(#p6eb60037aa)" style="fill: none; stroke-dasharray: 12.8,3.2,2,3.2; stroke-dashoffset: 0; stroke: #bd1f01; stroke-width: 2"/>
   </g>
   <g id="line2d_36">
    <path d="M 108.329959 30.825476 
L 121.3144 30.825476 
L 124.281841 44.765081 
L 127.260062 75.587366 
L 130.95114 75.587366 
L 133.027546 91.387456 
L 135.105285 101.422648 
L 138.099338 106.438919 
L 139.292144 129.355659 
L 142.284844 135.486569 
L 145.096416 135.486569 
L 147.184726 138.298741 
L 149.268969 140.681684 
L 153.133157 143.559057 
L 156.890835 143.559057 
L 158.98231 146.366054 
L 164.941861 150.950459 
L 169.658797 162.694126 
L 174.254042 162.694126 
L 178.135 166.938281 
L 180.977057 166.938281 
L 182.176207 172.721453 
L 184.29215 175.519011 
L 186.358901 180.016151 
L 189.371966 184.185171 
L 192.405639 187.84636 
L 196.272777 189.903251 
L 201.018095 192.259478 
L 217.639217 201.226973 
L 231.428567 210.273515 
L 251.927468 210.273515 
L 268.288458 217.110497 
L 282.863214 223.762736 
L 300.829366 232.089964 
L 322.446309 232.089964 
L 337.828099 237.435809 
L 349.480357 237.435809 
L 356.889145 240.143653 
L 365.208729 243.496807 
L 375.238411 245.626037 
L 387.144789 249.327346 
L 408.644713 249.327346 
L 423.397744 251.188053 
L 437.141214 253.49304 
L 452.528348 255.75264 
L 469.751526 257.99292 
L 494.057448 261.561669 
L 533.659118 265.70032 
L 585.701325 265.70032 
L 594.01158 268.64752 
L 608.49858 271.168959 
L 661.244687 275.054165 
L 661.244687 275.054165 
" clip-path="url(#p6eb60037aa)" style="fill: none; stroke-dasharray: 20,6; stroke-dashoffset: 10; stroke: #832db6; stroke-width: 2"/>
   </g>
   <g id="patch_3">
    <path d="M 93.773438 348.345476 
L 93.773438 15.705476 
" style="fill: none; stroke: #000000; stroke-width: 2; stroke-linejoin: miter; stroke-linecap: square"/>
   </g>
   <g id="patch_4">
    <path d="M 428.573438 348.345476 
L 428.573438 15.705476 
" style="fill: none; stroke: #000000; stroke-width: 2; stroke-linejoin: miter; stroke-linecap: square"/>
   </g>
   <g id="patch_5">
    <path d="M 93.773438 348.345476 
L 428.573437 348.345476 
" style="fill: none; stroke: #000000; stroke-width: 2; stroke-linejoin: miter; stroke-linecap: square"/>
   </g>
   <g id="patch_6">
    <path d="M 93.773438 15.705476 
L 428.573437 15.705476 
" style="fill: none; stroke: #000000; stroke-width: 2; stroke-linejoin: miter; stroke-linecap: square"/>
   </g>
   <g id="legend_1">
    <g id="line2d_37">
     <path d="M 466.913438 46.121726 
L 490.913438 46.121726 
L 514.913438 46.121726 
" style="fill: none; stroke: #3f90da; stroke-width: 2; stroke-linecap: square"/>
    </g>
    <g id="text_8">
     <text style="font: 24px 'Helvetica'; text-anchor: start" x="534.113438" y="54.521726" transform="rotate(-0 534.113438 54.521726)">Alt</text>
    </g>
    <g id="line2d_38">
     <path d="M 466.913438 80.340476 
L 490.913438 80.340476 
L 514.913438 80.340476 
" style="fill: none; stroke-dasharray: 10,2; stroke-dashoffset: 0; stroke: #ffa90e; stroke-width: 2"/>
    </g>
    <g id="text_9">
     <text style="font: 24px 'Helvetica'; text-anchor: start" x="534.113438" y="88.740476" transform="rotate(-0 534.113438 88.740476)">RCG</text>
    </g>
    <g id="line2d_39">
     <path d="M 466.913438 114.559226 
L 490.913438 114.559226 
L 514.913438 114.559226 
" style="fill: none; stroke-dasharray: 12.8,3.2,2,3.2; stroke-dashoffset: 0; stroke: #bd1f01; stroke-width: 2"/>
    </g>
    <g id="text_10">
     <text style="font: 24px 'Helvetica'; text-anchor: start" x="534.113438" y="122.959226" transform="rotate(-0 534.113438 122.959226)">RNTR</text>
    </g>
    <g id="line2d_40">
     <path d="M 466.913438 148.777976 
L 490.913438 148.777976 
L 514.913438 148.777976 
" style="fill: none; stroke-dasharray: 20,6; stroke-dashoffset: 10; stroke: #832db6; stroke-width: 2"/>
    </g>
    <g id="text_11">
     <text style="font: 24px 'Helvetica'; text-anchor: start" x="534.113438" y="157.177976" transform="rotate(-0 534.113438 157.177976)">RNTR-reg</text>
    </g>
   </g>
  </g>
 </g>
 <defs>
  <clipPath id="p6eb60037aa">
   <rect x="93.773438" y="15.705476" width="334.8" height="332.64"/>
  </clipPath>
 </defs>
</svg>
