<?xml version="1.0" encoding="utf-8" standalone="no"?>
<!DOCTYPE svg PUBLIC "-//W3C//DTD SVG 1.1//EN"
  "http://www.w3.org/Graphics/SVG/1.1/DTD/svg11.dtd">
<svg xmlns:xlink="http://www.w3.org/1999/xlink" width="660.244687pt" height="421.860625pt" viewBox="0 0 660.244687 421.860625" xmlns="http://www.w3.org/2000/svg" version="1.1">
 <metadata>
  <rdf:RDF xmlns:dc="http://purl.org/dc/elements/1.1/" xmlns:cc="http://creativecommons.org/ns#" xmlns:rdf="http://www.w3.org/1999/02/22-rdf-syntax-ns#">
   <cc:Work>
    <dc:type rdf:resource="http://purl.org/dc/dcmitype/StillImage"/>
    <dc:date>2026-03-09T15:26:37.659196</dc:date>
    <dc:format>image/svg+xml</dc:format>
    <dc:creator>
     <cc:Agent>
      <dc:title>Matplotlib v3.8.0, https://matplotlib.org/</dc:title>
     </cc:Agent>
    </dc:creator>
   </cc:Work>
  </rdf:RDF>
 </metadata>
 <defs>
  <style type="text/css">*{stroke-linejoin: round; stroke-linecap: butt}</style>
 </defs>
 <g id="figure_1">
  <g id="patch_1">
   <path d="M 0 421.860625 
L 660.244687 421.860625 
L 660.244687 0 
L 0 0 
L 0 421.860625 
z
" style="fill: none"/>
  </g>
  <g id="axes_1">
   <g id="patch_2">
    <path d="M 93.773438 348.448125 
L 428.573438 348.448125 
L 428.573438 15.808125 
L 93.773438 15.808125 
L 93.773438 348.448125 
z
" style="fill: none"/>
   </g>
   <g id="matplotlib.axis_1">
    <g id="xtick_1">
     <g id="line2d_1">
      <defs>
       <path id="meb0d24aa0d" d="M 0 0 
L 0 -10 
" style="stroke: #000000; stroke-width: 2"/>
      </defs>
      <g>
       <use xlink:href="#meb0d24aa0d" x="104.573437" y="348.448125" style="stroke: #000000; stroke-width: 2"/>
      </g>
     </g>
     <g id="line2d_2">
      <defs>
       <path id="meabbccac2a" d="M 0 0 
L 0 10 
" style="stroke: #000000; stroke-width: 2"/>
      </defs>
      <g>
       <use xlink:href="#meabbccac2a" x="104.573437" y="15.808125" style="stroke: #000000; stroke-width: 2"/>
      </g>
     </g>
     <g id="text_1">
      <text style="font: 24px 'Helvetica'; text-anchor: middle" x="104.573437" y="377.664375" transform="rotate(-0 104.573437 377.664375)">0</text>
     </g>
    </g>
    <g id="xtick_2">
     <g id="line2d_3">
      <g>
       <use xlink:href="#meb0d24aa0d" x="239.573438" y="348.448125" style="stroke: #000000; stroke-width: 2"/>
      </g>
     </g>
     <g id="line2d_4">
      <g>
       <use xlink:href="#meabbccac2a" x="239.573438" y="15.808125" style="stroke: #000000; stroke-width: 2"/>
      </g>
     </g>
     <g id="text_2">
      <text style="font: 24px 'Helvetica'; text-anchor: middle" x="239.573438" y="377.664375" transform="rotate(-0 239.573438 377.664375)">50</text>
     </g>
    </g>
    <g id="xtick_3">
     <g id="line2d_5">
      <g>
       <use xlink:href="#meb0d24aa0d" x="374.573438" y="348.448125" style="stroke: #000000; stroke-width: 2"/>
      </g>
     </g>
     <g id="line2d_6">
      <g>
       <use xlink:href="#meabbccac2a" x="374.573438" y="15.808125" style="stroke: #000000; stroke-width: 2"/>
      </g>
     </g>
     <g id="text_3">
      <text style="font: 24px 'Helvetica'; text-anchor: middle" x="374.573438" y="377.664375" transform="rotate(-0 374.573438 377.664375)">100</text>
     </g>
    </g>
    <g id="text_4">
     <text style="font: 30px 'Helvetica'; text-anchor: middle" x="261.173437" y="408.4075" transform="rotate(-0 261.173437 408.4075)">Time (s)</text>
    </g>
   </g>
   <g id="matplotlib.axis_2">
    <g id="ytick_1">
     <g id="line2d_7">
      <defs>
       <path id="mfbe5a2f5c9" d="M 0 0 
L 10 0 
" style="stroke: #000000; stroke-width: 2"/>
      </defs>
      <g>
       <use xlink:href="#mfbe5a2f5c9" x="93.773438" y="290.179527" style="stroke: #000000; stroke-width: 2"/>
      </g>
     </g>
     <g id="line2d_8">
      <defs>
       <path id="m6a4c6c1767" d="M 0 0 
L -10 0 
" style="stroke: #000000; stroke-width: 2"/>
      </defs>
      <g>
       <use xlink:href="#m6a4c6c1767" x="428.573438" y="290.179527" style="stroke: #000000; stroke-width: 2"/>
      </g>
     </g>
     <g id="text_5">
      <!-- $\mathdefault{10^{-8}}$ -->
      <g transform="translate(38.973438 298.787652)">
       <text>
        <tspan style="font: 24px 'Helvetica'" x="0 13.347656" y="-0.4375">10</tspan>
        <tspan style="font: 16.8px 'Helvetica'" x="26.914883 36.72582" y="-9.220312499999999">−8</tspan>
       </text>
      </g>
     </g>
    </g>
    <g id="ytick_2">
     <g id="line2d_9">
      <g>
       <use xlink:href="#mfbe5a2f5c9" x="93.773438" y="221.586677" style="stroke: #000000; stroke-width: 2"/>
      </g>
     </g>
     <g id="line2d_10">
      <g>
       <use xlink:href="#m6a4c6c1767" x="428.573438" y="221.586677" style="stroke: #000000; stroke-width: 2"/>
      </g>
     </g>
     <g id="text_6">
      <!-- $\mathdefault{10^{-6}}$ -->
      <g transform="translate(38.973438 230.194802)">
       <text>
        <tspan style="font: 24px 'Helvetica'" x="0 13.347656" y="-0.41562500000000213">10</tspan>
        <tspan style="font: 16.8px 'Helvetica'" x="26.914883 36.72582" y="-9.1984375">−6</tspan>
       </text>
      </g>
     </g>
    </g>
    <g id="ytick_3">
     <g id="line2d_11">
      <g>
       <use xlink:href="#mfbe5a2f5c9" x="93.773438" y="152.993826" style="stroke: #000000; stroke-width: 2"/>
      </g>
     </g>
     <g id="line2d_12">
      <g>
       <use xlink:href="#m6a4c6c1767" x="428.573438" y="152.993826" style="stroke: #000000; stroke-width: 2"/>
      </g>
     </g>
     <g id="text_7">
      <!-- $\mathdefault{10^{-4}}$ -->
      <g transform="translate(38.973438 161.601951)">
       <text>
        <tspan style="font: 24px 'Helvetica'" x="0 13.347656" y="-0.4375">10</tspan>
        <tspan style="font: 16.8px 'Helvetica'" x="26.914883 36.72582" y="-9.220312499999999">−4</tspan>
       </text>
      </g>
     </g>
    </g>
    <g id="ytick_4">
     <g id="line2d_13">
      <g>
       <use xlink:href="#mfbe5a2f5c9" x="93.773438" y="84.400976" style="stroke: #000000; stroke-width: 2"/>
      </g>
     </g>
     <g id="line2d_14">
      <g>
       <use xlink:href="#m6a4c6c1767" x="428.573438" y="84.400976" style="stroke: #000000; stroke-width: 2"/>
      </g>
     </g>
     <g id="text_8">
      <!-- $\mathdefault{10^{-2}}$ -->
      <g transform="translate(38.973438 93.009101)">
       <text>
        <tspan style="font: 24px 'Helvetica'" x="0 13.347656" y="-0.42656250000000284">10</tspan>
        <tspan style="font: 16.8px 'Helvetica'" x="26.914883 36.72582" y="-9.209375000000001">−2</tspan>
       </text>
      </g>
     </g>
    </g>
    <g id="ytick_5">
     <g id="line2d_15">
      <g>
       <use xlink:href="#mfbe5a2f5c9" x="93.773438" y="15.808125" style="stroke: #000000; stroke-width: 2"/>
      </g>
     </g>
     <g id="line2d_16">
      <g>
       <use xlink:href="#m6a4c6c1767" x="428.573438" y="15.808125" style="stroke: #000000; stroke-width: 2"/>
      </g>
     </g>
     <g id="text_9">
      <!-- $\mathdefault{10^{0}}$ -->
      <g transform="translate(48.813437 24.41625)">
       <text>
        <tspan style="font: 24px 'Helvetica'" x="0 13.347656" y="-0.47031250000000213">10</tspan>
        <tspan style="font: 16.8px 'Helvetica'" x="26.914883" y="-9.253125">0</tspan>
       </text>
      </g>
     </g>
    </g>
    <g id="text_10">
     <!-- $c_{44}$ -->
     <g transform="translate(28.720313 200.128125) rotate(-90)">
      <text>
       <tspan style="font: 30px 'cmmi10'" x="0" y="-0.75">c</tspan>
       <tspan style="font: 21px 'cmr10'" x="12.963867 23.463867" y="4.351875">44</tspan>
      </text>
     </g>
    </g>
   </g>
   <g id="line2d_17">
    <path d="M 104.573437 33.900181 
L 104.751849 69.464209 
L 105.055095 83.860048 
L 105.529314 95.109238 
L 106.098512 103.439352 
L 106.876259 111.057606 
L 107.681 117.093005 
L 108.709171 122.975393 
L 109.643716 127.091149 
L 110.766365 131.070388 
L 111.826851 134.05946 
L 113.086688 136.987377 
L 115.248083 141.158948 
L 117.428773 144.782012 
L 119.513513 147.803086 
L 121.634014 150.50797 
L 124.34147 153.554377 
L 126.562637 155.768403 
L 130.505706 159.199422 
L 133.434837 161.408136 
L 136.397434 163.372748 
L 140.653663 165.889036 
L 144.476371 167.891205 
L 150.03237 170.432842 
L 155.612153 172.619246 
L 161.625577 174.678932 
L 168.271387 176.696326 
L 175.516978 178.6736 
L 185.229037 181.072678 
L 194.279531 183.10329 
L 203.906511 185.06487 
L 215.232673 187.184979 
L 227.884495 189.377302 
L 242.580999 191.700391 
L 311.743675 201.740493 
L 359.623348 208.924022 
L 377.558437 211.327302 
L 395.275216 213.470539 
L 413.599787 215.460642 
L 428.581776 216.944898 
L 428.581776 216.944898 
" clip-path="url(#p661b408cda)" style="fill: none; stroke: #3f90da; stroke-width: 2; stroke-linecap: square"/>
   </g>
   <g id="line2d_18">
    <path d="M 104.573437 33.900181 
L 104.724525 42.267771 
L 104.992094 62.906624 
L 105.254438 74.528196 
L 106.028622 91.47532 
L 106.190499 96.42415 
L 106.67236 103.501457 
L 106.8984 106.289202 
L 107.377073 110.759324 
L 107.635095 113.60605 
L 107.954212 116.108268 
L 108.11226 117.43666 
L 108.647906 123.41476 
L 108.962796 124.637528 
L 109.120098 125.789939 
L 109.403918 129.033175 
L 109.970843 131.346558 
L 110.189007 132.382959 
L 110.379707 133.026144 
L 110.599363 133.293761 
L 111.548261 139.259797 
L 112.020349 140.281855 
L 112.336537 141.672189 
L 112.649352 142.407072 
L 112.90282 142.710702 
L 113.065519 143.072514 
L 113.286004 143.888156 
L 113.881457 145.341257 
L 114.262332 146.05791 
L 114.609877 146.60102 
L 114.829115 146.724636 
L 115.333544 148.616462 
L 115.994729 152.62474 
L 116.432373 153.08022 
L 117.550841 154.513703 
L 117.894414 154.972798 
L 118.20461 155.394073 
L 118.668311 155.711359 
L 118.730393 155.967344 
L 119.262817 160.58982 
L 119.511315 160.85524 
L 120.066979 161.403172 
L 121.283365 166.314422 
L 121.563655 166.523566 
L 122.189479 167.534674 
L 122.721445 168.046376 
L 123.317435 169.364928 
L 123.628877 169.730012 
L 124.283758 170.277249 
L 124.531579 170.891767 
L 124.781414 171.648031 
L 125.00077 172.290742 
L 125.376216 172.515556 
L 125.626359 172.745063 
L 126.338233 174.004584 
L 127.330894 175.290839 
L 127.796924 176.256767 
L 128.106241 176.747391 
L 128.445163 177.00954 
L 128.814389 177.308805 
L 130.514716 178.620404 
L 130.852561 178.753311 
L 131.098498 178.984187 
L 131.34356 179.370013 
L 131.649767 179.718686 
L 132.605394 180.262504 
L 133.064503 180.900242 
L 133.806173 181.663081 
L 134.144202 181.842761 
L 134.420286 181.975737 
L 134.726297 182.115453 
L 135.378302 182.655569 
L 135.719183 182.837562 
L 136.057901 183.079506 
L 136.611516 183.253277 
L 136.887809 183.639356 
L 137.532439 186.446454 
L 137.784295 186.685311 
L 139.011214 187.341562 
L 139.318076 188.351853 
L 139.564238 189.44138 
L 139.657096 189.73321 
L 139.841797 190.688819 
L 140.37106 192.252119 
L 141.3226 192.662319 
L 142.425103 193.109575 
L 143.34999 194.982365 
L 144.732195 195.776067 
L 145.372066 195.979769 
L 145.524472 196.265866 
L 145.744877 197.161293 
L 145.928821 197.572572 
L 147.098712 198.24163 
L 150.578998 199.350731 
L 151.287892 203.807384 
L 151.532679 204.304695 
L 151.995371 204.617596 
L 152.24121 204.813919 
L 152.60864 205.017758 
L 153.312535 205.273831 
L 153.958521 205.759639 
L 155.300559 206.080957 
L 155.454338 206.229132 
L 155.824648 207.731981 
L 156.066815 208.410299 
L 156.524817 208.965717 
L 157.015225 209.142715 
L 157.226657 209.293821 
L 157.561709 209.386343 
L 158.254662 209.584189 
L 158.557215 209.718923 
L 159.861744 209.995562 
L 160.073925 210.525287 
L 160.530615 212.020913 
L 160.926623 212.247467 
L 162.97074 212.906032 
L 163.579644 213.148225 
L 164.843813 213.364941 
L 165.709604 213.604501 
L 167.308669 214.28917 
L 167.733405 214.40461 
L 168.098665 214.655621 
L 168.584076 214.830256 
L 169.337963 214.955418 
L 169.701847 215.093284 
L 171.246071 215.316494 
L 172.391078 215.640457 
L 173.547258 216.103902 
L 174.211759 216.23904 
L 175.795912 216.675351 
L 176.290731 217.066192 
L 176.874726 217.214761 
L 177.757568 217.342005 
L 178.124973 217.677295 
L 178.708529 217.770977 
L 179.072889 217.836412 
L 179.688769 218.731425 
L 179.84634 219.394865 
L 180.154906 220.718009 
L 180.617476 221.819974 
L 182.004277 222.384306 
L 182.458412 222.511623 
L 182.672947 222.639787 
L 183.34173 222.967573 
L 183.676596 223.147982 
L 187.449385 223.892356 
L 187.816191 224.036983 
L 188.901108 224.243101 
L 189.995048 224.573941 
L 190.626442 224.697249 
L 192.044286 224.995461 
L 192.258501 225.520109 
L 192.566345 228.520062 
L 193.322632 229.576424 
L 193.805279 229.717234 
L 195.579696 230.089413 
L 195.882324 230.526526 
L 196.397824 230.785766 
L 197.726842 231.059596 
L 198.085566 231.19604 
L 199.013872 231.327223 
L 199.671007 231.466584 
L 199.820873 231.615895 
L 200.194441 232.669403 
L 200.71086 233.341254 
L 201.58565 233.60886 
L 203.690818 233.937139 
L 204.021782 234.191515 
L 204.263699 234.437829 
L 205.381797 234.723923 
L 206.677031 235.022502 
L 207.641565 235.651665 
L 209.004564 235.937134 
L 209.427524 236.190571 
L 210.36466 236.444717 
L 211.366017 236.612794 
L 212.33712 237.235851 
L 212.939772 237.373128 
L 213.797045 237.555265 
L 215.033529 237.83603 
L 215.276048 237.989171 
L 215.876775 238.287369 
L 217.306245 238.585871 
L 217.637787 238.78429 
L 218.543502 238.981515 
L 220.569831 239.287454 
L 220.781244 239.408852 
L 221.2047 239.832338 
L 221.595728 239.965875 
L 223.648829 240.328205 
L 224.375281 241.246641 
L 224.989507 241.404044 
L 226.57202 241.585057 
L 227.510346 242.059266 
L 228.859975 242.252867 
L 230.065143 242.410724 
L 232.316549 242.633586 
L 233.646385 242.93741 
L 233.768914 243.390746 
L 234.318306 244.557294 
L 236.098335 244.7521 
L 236.911143 244.878193 
L 237.032468 244.99638 
L 237.094214 245.23829 
L 237.490751 245.578145 
L 237.672332 245.787863 
L 239.304502 246.100944 
L 239.998429 246.724971 
L 243.401889 247.132861 
L 243.81525 247.195023 
L 244.38108 247.330961 
L 245.818951 247.489503 
L 246.591549 247.611115 
L 246.890327 247.798143 
L 247.142217 248.19649 
L 248.046209 248.349974 
L 249.142994 248.457207 
L 249.384419 248.628276 
L 249.596508 249.280212 
L 249.909968 250.373572 
L 250.240793 250.969156 
L 250.629719 251.137116 
L 250.99013 251.244534 
L 252.204578 251.398988 
L 252.690614 251.525834 
L 254.980942 251.802736 
L 255.531892 252.331018 
L 258.619914 252.903412 
L 259.511613 253.066664 
L 259.661287 253.204923 
L 260.593323 255.780089 
L 261.012155 256.012185 
L 261.263741 256.077752 
L 263.153159 256.256583 
L 263.300451 256.381251 
L 263.573596 257.353706 
L 263.93896 260.834304 
L 264.523837 261.502255 
L 264.97379 261.749931 
L 265.213637 262.017839 
L 265.995514 262.214887 
L 269.082071 262.766012 
L 269.671695 262.840778 
L 271.116549 262.983309 
L 271.587559 263.104322 
L 271.880573 263.217728 
L 274.300288 263.428719 
L 275.144268 263.541443 
L 275.38217 263.764875 
L 275.741863 264.615587 
L 276.011121 265.511551 
L 276.339711 265.742721 
L 280.125299 266.216008 
L 280.48269 266.346447 
L 281.225124 266.419118 
L 282.28584 266.552526 
L 282.800387 266.612198 
L 284.141365 266.720155 
L 286.501294 266.966792 
L 287.644058 267.209179 
L 288.375649 267.335314 
L 288.612813 267.428193 
L 289.866171 267.565147 
L 291.338688 267.846549 
L 291.577206 268.091594 
L 291.831581 268.209496 
L 292.976149 268.329434 
L 293.12745 268.491631 
L 293.457845 269.074308 
L 293.82515 273.096148 
L 294.036979 274.324635 
L 294.480979 274.649044 
L 295.938686 274.821053 
L 297.053707 274.969762 
L 298.588849 275.118481 
L 301.445565 275.504585 
L 301.959982 276.468762 
L 304.181439 277.038673 
L 304.5695 277.505191 
L 305.284151 277.971119 
L 306.312136 278.057022 
L 307.175204 278.171208 
L 307.680484 278.606969 
L 308.183526 279.403552 
L 309.507351 279.920819 
L 310.533263 280.019288 
L 310.999508 280.12286 
L 312.803822 280.436449 
L 313.520312 280.583726 
L 314.234675 281.157476 
L 315.608612 281.402002 
L 317.180622 281.530548 
L 318.397865 281.784437 
L 318.659742 281.868943 
L 318.985163 282.018579 
L 319.287429 282.475539 
L 319.482333 282.804714 
L 321.685799 283.27908 
L 322.598234 283.390238 
L 322.952568 283.501626 
L 323.946376 283.696776 
L 324.211518 283.813015 
L 324.507495 284.014034 
L 325.095862 284.115562 
L 325.63883 284.176213 
L 326.888244 284.314407 
L 327.238015 284.407879 
L 329.688493 284.756326 
L 329.838916 284.964932 
L 330.048929 285.504864 
L 330.438261 285.964876 
L 332.317052 286.275518 
L 332.639518 286.433857 
L 334.026069 286.652717 
L 337.23453 286.949609 
L 338.364245 287.068228 
L 339.322973 287.4359 
L 340.215877 287.602665 
L 340.738733 287.681174 
L 342.522892 287.820392 
L 342.729579 288.017939 
L 343.057799 288.651524 
L 343.64987 288.989843 
L 345.238387 289.212558 
L 348.060939 289.421193 
L 348.299051 289.594273 
L 348.419448 290.023013 
L 349.34641 293.342888 
L 349.698088 293.566778 
L 353.196499 294.176935 
L 353.405305 294.413879 
L 353.910158 294.778399 
L 355.009436 294.947998 
L 356.35294 295.107232 
L 357.779018 295.19354 
L 358.208852 295.253271 
L 358.448484 295.914529 
L 359.456732 299.829312 
L 359.816178 300.547243 
L 360.112399 300.78263 
L 362.761069 301.416378 
L 362.968761 301.710349 
L 363.407593 301.952535 
L 365.988001 302.40268 
L 366.886573 302.603443 
L 367.754157 302.725872 
L 368.242634 302.804698 
L 373.172285 303.401502 
L 374.289159 303.535158 
L 374.8062 303.771143 
L 375.066911 303.89616 
L 376.190158 304.01066 
L 378.411786 304.242803 
L 379.360004 304.361476 
L 380.651887 304.548025 
L 381.452568 305.941285 
L 381.781149 306.843092 
L 382.076914 307.195082 
L 382.309213 307.274363 
L 386.210768 307.617194 
L 386.419533 307.920326 
L 386.599475 308.828212 
L 386.872836 313.568433 
L 387.486952 315.897405 
L 388.826939 316.17642 
L 390.679075 316.413759 
L 391.540889 316.673023 
L 394.769396 317.014538 
L 395.004042 317.268722 
L 395.239653 317.564092 
L 395.677147 317.988498 
L 396.524018 318.293259 
L 398.198414 318.450676 
L 398.623306 318.570492 
L 399.06058 318.896707 
L 399.749877 318.968339 
L 401.920539 319.136752 
L 402.429905 319.258624 
L 402.927084 319.633178 
L 403.134134 320.045142 
L 403.372152 320.967885 
L 403.781138 321.520427 
L 406.269105 321.835312 
L 408.075174 322.003843 
L 409.331451 322.145714 
L 410.132012 322.235047 
L 410.337832 322.396173 
L 411.143538 322.851322 
L 412.688644 323.081673 
L 414.0983 323.173132 
L 414.629381 323.228106 
L 415.642053 324.659257 
L 416.802513 324.754833 
L 419.996817 324.968706 
L 420.672905 325.106835 
L 421.150077 325.211469 
L 421.525281 325.720585 
L 421.929276 326.09001 
L 422.412626 326.302818 
L 423.354776 326.387446 
L 423.354776 326.387446 
" clip-path="url(#p661b408cda)" style="fill: none; stroke-dasharray: 10,2; stroke-dashoffset: 0; stroke: #ffa90e; stroke-width: 2"/>
   </g>
   <g id="line2d_19">
    <path d="M 104.573437 33.900181 
L 104.739877 45.212983 
L 104.89338 53.865611 
L 105.149578 63.443237 
L 105.496973 72.596222 
L 105.937349 79.281192 
L 106.565647 85.899803 
L 107.381519 88.464214 
L 107.721012 104.867343 
L 108.631905 111.757283 
L 109.731025 118.246669 
L 111.125171 123.86244 
L 112.799494 128.544074 
L 114.883344 132.246906 
L 117.131299 134.662029 
L 118.24234 153.166267 
L 120.500651 157.126793 
L 123.311906 162.099053 
L 127.118093 168.34395 
L 132.057526 173.847004 
L 138.368262 177.651127 
L 145.144659 178.942538 
L 148.048879 195.891042 
L 152.797531 198.800126 
L 158.928108 203.276114 
L 167.577025 208.978542 
L 177.187985 216.572803 
L 186.815207 221.532629 
L 196.448714 227.597343 
L 206.033167 232.198073 
L 215.639406 238.139056 
L 225.207694 241.897985 
L 234.878059 247.513425 
L 244.430971 250.293591 
L 254.043169 255.76368 
L 263.600672 257.960561 
L 273.205509 264.000017 
L 282.767216 265.578601 
L 292.381831 273.082267 
L 301.987569 273.820454 
L 311.628231 283.477296 
L 321.223078 283.477296 
L 328.800317 285.866595 
L 338.493794 289.033035 
L 348.080251 291.528099 
L 357.653476 294.091943 
L 367.177075 296.437879 
L 376.762452 298.997861 
L 386.365984 301.361539 
L 395.90715 303.958909 
L 405.545141 306.313197 
L 415.048534 308.895387 
L 424.636856 311.279302 
L 434.289415 313.875311 
L 443.814914 316.30377 
L 453.42708 318.929732 
L 462.971891 321.402411 
L 472.589953 324.052074 
L 482.155709 326.70278 
L 491.721816 329.528232 
L 501.419053 332.158346 
L 510.993164 334.930442 
L 520.577659 337.572862 
L 530.201134 340.336851 
L 539.808093 343.003721 
L 549.418905 345.775347 
L 559.034806 348.471238 
L 568.633642 351.255862 
L 578.336103 353.9802 
L 588.001075 356.780718 
L 597.625503 359.508512 
L 607.196948 362.294761 
L 616.795766 365.035136 
L 626.356971 367.824141 
L 635.980611 370.585679 
L 645.560079 373.387204 
L 655.139084 376.17088 
L 661.244687 377.978528 
" clip-path="url(#p661b408cda)" style="fill: none; stroke-dasharray: 12.8,3.2,2,3.2; stroke-dashoffset: 0; stroke: #bd1f01; stroke-width: 2"/>
   </g>
   <g id="line2d_20">
    <path d="M 104.573437 33.900181 
L 105.239339 63.443237 
L 105.594629 72.596222 
L 106.037602 79.281194 
L 106.675289 85.899809 
L 107.52771 88.464215 
L 107.871646 104.867345 
L 108.806284 111.757283 
L 109.937923 118.246623 
L 111.406727 123.862388 
L 113.18125 128.543869 
L 115.362498 132.246672 
L 117.714517 134.661622 
L 118.891117 153.165454 
L 127.800699 168.344167 
L 132.893218 173.848962 
L 139.347388 177.699959 
L 146.290614 179.062741 
L 149.357289 195.905133 
L 154.36471 198.779993 
L 160.478294 203.128576 
L 168.257945 208.424231 
L 177.230107 214.350594 
L 185.119915 221.16761 
L 193.279838 222.277666 
L 200.256671 230.716289 
L 206.570545 233.14781 
L 212.3423 236.325613 
L 217.635329 238.140872 
L 222.3994 240.034941 
L 235.077122 243.551383 
L 238.81193 244.506403 
L 252.466966 247.222754 
L 270.118607 249.833538 
L 285.574884 251.606288 
L 297.529579 252.831072 
L 309.120984 253.871465 
L 313.601557 254.314145 
L 320.150034 254.944856 
L 330.795348 255.766385 
L 336.822722 256.266155 
L 342.972927 256.695723 
L 345.019354 256.957615 
L 347.258283 257.073636 
L 349.300665 257.471432 
L 355.835666 257.471432 
L 358.341551 257.70299 
L 360.501746 259.555486 
L 363.154568 260.173318 
L 365.809684 264.038194 
L 375.079326 264.671757 
L 376.785414 264.935387 
L 378.685814 264.988794 
L 380.38449 265.318453 
L 382.180845 265.369576 
L 383.806727 265.603115 
L 388.103949 265.682964 
L 389.920668 268.098609 
L 391.926918 268.202021 
L 393.83488 268.693221 
L 402.315017 269.063274 
L 406.563002 269.219778 
L 409.719519 269.582363 
L 411.235359 272.241062 
L 412.818596 272.286401 
L 414.286396 272.525735 
L 422.285788 272.745139 
L 423.574198 273.475952 
L 425.231265 273.623733 
L 426.975681 274.231099 
L 434.776925 274.544348 
L 436.266493 276.121512 
L 437.747745 276.157001 
L 439.023141 276.394008 
L 442.499846 276.494757 
L 443.595238 276.63192 
L 445.069185 276.639399 
L 446.760265 277.173141 
L 452.047963 277.335154 
L 455.327233 277.452914 
L 456.318001 277.856952 
L 457.501547 278.001986 
L 458.692295 278.308233 
L 468.165292 278.624798 
L 469.178634 279.427377 
L 481.567474 279.816891 
L 484.619469 279.871782 
L 485.542838 280.056251 
L 486.653834 280.115697 
L 487.778164 280.296475 
L 491.038949 280.443005 
L 492.534052 280.83233 
L 497.607433 280.981641 
L 502.466267 281.112008 
L 503.460643 282.036113 
L 511.938278 282.307955 
L 514.05128 282.58698 
L 515.049729 283.420667 
L 518.242239 283.534686 
L 526.235997 283.830765 
L 527.514304 284.557577 
L 529.158078 285.968734 
L 531.153311 286.079233 
L 536.66287 286.310446 
L 538.335308 290.690685 
L 541.71639 290.981273 
L 552.206495 291.187501 
L 554.455905 291.261635 
L 555.929946 292.290829 
L 558.479099 293.885542 
L 560.276759 295.908072 
L 562.988016 296.48103 
L 568.102565 296.644017 
L 569.008237 296.663057 
L 569.734304 296.892996 
L 588.89306 297.223057 
L 591.75595 297.505064 
L 594.759434 297.567118 
L 595.476407 297.731384 
L 600.536598 297.871491 
L 622.547042 298.571776 
L 623.358624 298.944384 
L 628.622282 299.076252 
L 629.334475 299.414599 
L 637.421891 299.53911 
L 638.336429 299.658444 
L 639.428338 300.369753 
L 643.530523 300.464937 
L 655.133472 300.5783 
L 655.855689 300.697589 
L 656.867786 300.997364 
L 661.244687 301.054961 
L 661.244687 301.054961 
" clip-path="url(#p661b408cda)" style="fill: none; stroke-dasharray: 20,6; stroke-dashoffset: 10; stroke: #832db6; stroke-width: 2"/>
   </g>
   <g id="patch_3">
    <path d="M 93.773438 348.448125 
L 93.773438 15.808125 
" style="fill: none; stroke: #000000; stroke-width: 2; stroke-linejoin: miter; stroke-linecap: square"/>
   </g>
   <g id="patch_4">
    <path d="M 428.573438 348.448125 
L 428.573438 15.808125 
" style="fill: none; stroke: #000000; stroke-width: 2; stroke-linejoin: miter; stroke-linecap: square"/>
   </g>
   <g id="patch_5">
    <path d="M 93.773438 348.448125 
L 428.573438 348.448125 
" style="fill: none; stroke: #000000; stroke-width: 2; stroke-linejoin: miter; stroke-linecap: square"/>
   </g>
   <g id="patch_6">
    <path d="M 93.773438 15.808125 
L 428.573438 15.808125 
" style="fill: none; stroke: #000000; stroke-width: 2; stroke-linejoin: miter; stroke-linecap: square"/>
   </g>
   <g id="legend_1">
    <g id="line2d_21">
     <path d="M 466.913438 46.224375 
L 490.913438 46.224375 
L 514.913438 46.224375 
" style="fill: none; stroke: #3f90da; stroke-width: 2; stroke-linecap: square"/>
    </g>
    <g id="text_11">
     <text style="font: 24px 'Helvetica'; text-anchor: start" x="534.113438" y="54.624375" transform="rotate(-0 534.113438 54.624375)">Alt</text>
    </g>
    <g id="line2d_22">
     <path d="M 466.913438 80.443125 
L 490.913438 80.443125 
L 514.913438 80.443125 
" style="fill: none; stroke-dasharray: 10,2; stroke-dashoffset: 0; stroke: #ffa90e; stroke-width: 2"/>
    </g>
    <g id="text_12">
     <text style="font: 24px 'Helvetica'; text-anchor: start" x="534.113438" y="88.843125" transform="rotate(-0 534.113438 88.843125)">RCG</text>
    </g>
    <g id="line2d_23">
     <path d="M 466.913438 114.661875 
L 490.913438 114.661875 
L 514.913438 114.661875 
" style="fill: none; stroke-dasharray: 12.8,3.2,2,3.2; stroke-dashoffset: 0; stroke: #bd1f01; stroke-width: 2"/>
    </g>
    <g id="text_13">
     <text style="font: 24px 'Helvetica'; text-anchor: start" x="534.113438" y="123.061875" transform="rotate(-0 534.113438 123.061875)">RNTR</text>
    </g>
    <g id="line2d_24">
     <path d="M 466.913438 148.880625 
L 490.913438 148.880625 
L 514.913438 148.880625 
" style="fill: none; stroke-dasharray: 20,6; stroke-dashoffset: 10; stroke: #832db6; stroke-width: 2"/>
    </g>
    <g id="text_14">
     <text style="font: 24px 'Helvetica'; text-anchor: start" x="534.113438" y="157.280625" transform="rotate(-0 534.113438 157.280625)">RNTR-reg</text>
    </g>
   </g>
  </g>
 </g>
 <defs>
  <clipPath id="p661b408cda">
   <rect x="93.773438" y="15.808125" width="334.8" height="332.64"/>
  </clipPath>
 </defs>
</svg>
