<?xml version="1.0" encoding="utf-8" standalone="no"?>
<!DOCTYPE svg PUBLIC "-//W3C//DTD SVG 1.1//EN"
  "http://www.w3.org/Graphics/SVG/1.1/DTD/svg11.dtd">
<svg xmlns:xlink="http://www.w3.org/1999/xlink" width="656.055198pt" height="412.829653pt" viewBox="0 0 656.055198 412.829653" xmlns="http://www.w3.org/2000/svg" version="1.1">
 <metadata>
  <rdf:RDF xmlns:dc="http://purl.org/dc/elements/1.1/" xmlns:cc="http://creativecommons.org/ns#" xmlns:rdf="http://www.w3.org/1999/02/22-rdf-syntax-ns#">
   <cc:Work>
    <dc:type rdf:resource="http://purl.org/dc/dcmitype/StillImage"/>
    <dc:date>2026-03-09T16:32:58.049334</dc:date>
    <dc:format>image/svg+xml</dc:format>
    <dc:creator>
     <cc:Agent>
      <dc:title>Matplotlib v3.8.0, https://matplotlib.org/</dc:title>
     </cc:Agent>
    </dc:creator>
   </cc:Work>
  </rdf:RDF>
 </metadata>
 <defs>
  <style type="text/css">*{stroke-linejoin: round; stroke-linecap: butt}</style>
 </defs>
 <g id="figure_1">
  <g id="patch_1">
   <path d="M 0 412.829653 
L 656.055198 412.829653 
L 656.055198 0 
L 0 0 
L 0 412.829653 
z
" style="fill: none"/>
  </g>
  <g id="axes_1">
   <g id="patch_2">
    <path d="M 90.004323 339.84 
L 424.804323 339.84 
L 424.804323 7.2 
L 90.004323 7.2 
L 90.004323 339.84 
z
" style="fill: none"/>
   </g>
   <g id="line2d_1">
    <path d="M 130.853127 339.84 
L 130.853127 7.2 
" clip-path="url(#p4fc4e89e8f)" style="fill: none; stroke-dasharray: 7.4,3.2; stroke-dashoffset: 0; stroke: #b9ac70; stroke-width: 2"/>
   </g>
   <g id="matplotlib.axis_1">
    <g id="xtick_1">
     <g id="line2d_2">
      <defs>
       <path id="me1ac082f1e" d="M 0 0 
L 0 -10 
" style="stroke: #000000; stroke-width: 2"/>
      </defs>
      <g>
       <use xlink:href="#me1ac082f1e" x="105.222505" y="339.84" style="stroke: #000000; stroke-width: 2"/>
      </g>
     </g>
     <g id="line2d_3">
      <defs>
       <path id="m0e48c95fba" d="M 0 0 
L 0 10 
" style="stroke: #000000; stroke-width: 2"/>
      </defs>
      <g>
       <use xlink:href="#m0e48c95fba" x="105.222505" y="7.2" style="stroke: #000000; stroke-width: 2"/>
      </g>
     </g>
     <g id="text_1">
      <!-- $\mathdefault{0}$ -->
      <g transform="translate(99.739648 368.875969) scale(0.24 -0.24)">
       <defs>
        <path id="CMR17-30" d="M 2688 2038 
C 2688 2430 2682 3099 2413 3613 
C 2176 4063 1798 4224 1466 4224 
C 1158 4224 768 4082 525 3620 
C 269 3137 243 2539 243 2038 
C 243 1671 250 1112 448 623 
C 723 -39 1216 -128 1466 -128 
C 1760 -128 2208 -7 2470 604 
C 2662 1048 2688 1568 2688 2038 
z
M 1466 -26 
C 1056 -26 813 328 723 816 
C 653 1196 653 1749 653 2109 
C 653 2604 653 3015 736 3407 
C 858 3954 1216 4121 1466 4121 
C 1728 4121 2067 3947 2189 3420 
C 2272 3054 2278 2623 2278 2109 
C 2278 1691 2278 1176 2202 797 
C 2067 96 1690 -26 1466 -26 
z
" transform="scale(0.015625)"/>
       </defs>
       <use xlink:href="#CMR17-30" transform="scale(0.996264)"/>
      </g>
     </g>
    </g>
    <g id="xtick_2">
     <g id="line2d_4">
      <g>
       <use xlink:href="#me1ac082f1e" x="265.413893" y="339.84" style="stroke: #000000; stroke-width: 2"/>
      </g>
     </g>
     <g id="line2d_5">
      <g>
       <use xlink:href="#m0e48c95fba" x="265.413893" y="7.2" style="stroke: #000000; stroke-width: 2"/>
      </g>
     </g>
     <g id="text_2">
      <!-- $\mathdefault{50}$ -->
      <g transform="translate(254.448178 368.875969) scale(0.24 -0.24)">
       <defs>
        <path id="CMR17-35" d="M 730 3750 
C 794 3724 1056 3641 1325 3641 
C 1920 3641 2246 3961 2432 4140 
C 2432 4191 2432 4224 2394 4224 
C 2387 4224 2374 4224 2323 4198 
C 2099 4102 1837 4032 1517 4032 
C 1325 4032 1037 4055 723 4191 
C 653 4224 640 4224 634 4224 
C 602 4224 595 4217 595 4090 
L 595 2231 
C 595 2113 595 2080 659 2080 
C 691 2080 704 2093 736 2139 
C 941 2435 1222 2560 1542 2560 
C 1766 2560 2246 2415 2246 1293 
C 2246 1087 2246 716 2054 422 
C 1894 159 1645 25 1370 25 
C 947 25 518 319 403 812 
C 429 806 480 793 506 793 
C 589 793 749 838 749 1036 
C 749 1209 627 1280 506 1280 
C 358 1280 262 1190 262 1011 
C 262 454 704 -128 1382 -128 
C 2042 -128 2669 441 2669 1267 
C 2669 2054 2170 2662 1549 2662 
C 1222 2662 947 2540 730 2304 
L 730 3750 
z
" transform="scale(0.015625)"/>
       </defs>
       <use xlink:href="#CMR17-35" transform="scale(0.996264)"/>
       <use xlink:href="#CMR17-30" transform="translate(45.690477 0) scale(0.996264)"/>
      </g>
     </g>
    </g>
    <g id="text_3">
     <!-- $i$ -->
     <g transform="translate(252.412537 399.263694) scale(0.3 -0.3)">
      <defs>
       <path id="CMMI12-69" d="M 1811 913 
C 1811 945 1786 970 1747 970 
C 1690 970 1683 951 1651 842 
C 1485 261 1222 64 1011 64 
C 934 64 845 83 845 274 
C 845 447 922 638 992 830 
L 1440 2017 
C 1459 2068 1504 2183 1504 2305 
C 1504 2573 1312 2816 998 2816 
C 410 2816 173 1890 173 1838 
C 173 1813 198 1781 243 1781 
C 301 1781 307 1807 333 1896 
C 486 2432 730 2687 979 2687 
C 1037 2687 1146 2681 1146 2477 
C 1146 2311 1062 2100 1011 1960 
L 563 772 
C 525 670 486 568 486 453 
C 486 166 685 -64 992 -64 
C 1581 -64 1811 868 1811 913 
z
M 1760 4012 
C 1760 4108 1683 4224 1542 4224 
C 1395 4224 1229 4083 1229 3916 
C 1229 3756 1363 3705 1440 3705 
C 1613 3705 1760 3871 1760 4012 
z
" transform="scale(0.015625)"/>
      </defs>
      <use xlink:href="#CMMI12-69" transform="scale(0.996264)"/>
     </g>
    </g>
   </g>
   <g id="matplotlib.axis_2">
    <g id="ytick_1">
     <g id="line2d_6">
      <defs>
       <path id="m37988aaacb" d="M 0 0 
L 10 0 
" style="stroke: #000000; stroke-width: 2"/>
      </defs>
      <g>
       <use xlink:href="#m37988aaacb" x="90.004323" y="325.588014" style="stroke: #000000; stroke-width: 2"/>
      </g>
     </g>
     <g id="line2d_7">
      <defs>
       <path id="mf56779a49c" d="M 0 0 
L -10 0 
" style="stroke: #000000; stroke-width: 2"/>
      </defs>
      <g>
       <use xlink:href="#mf56779a49c" x="424.804323" y="325.588014" style="stroke: #000000; stroke-width: 2"/>
      </g>
     </g>
     <g id="text_4">
      <!-- $\mathdefault{10^{-5}}$ -->
      <g transform="translate(38.86092 334.105999) scale(0.24 -0.24)">
       <defs>
        <path id="CMR17-31" d="M 1702 4083 
C 1702 4217 1696 4224 1606 4224 
C 1357 3927 979 3833 621 3820 
C 602 3820 570 3820 563 3808 
C 557 3795 557 3782 557 3648 
C 755 3648 1088 3686 1344 3839 
L 1344 467 
C 1344 243 1331 166 781 166 
L 589 166 
L 589 0 
C 896 6 1216 12 1523 12 
C 1830 12 2150 6 2458 0 
L 2458 166 
L 2266 166 
C 1715 166 1702 236 1702 467 
L 1702 4083 
z
" transform="scale(0.015625)"/>
        <path id="CMSY10-0" d="M 4218 1472 
C 4326 1472 4442 1472 4442 1600 
C 4442 1728 4326 1728 4218 1728 
L 755 1728 
C 646 1728 531 1728 531 1600 
C 531 1472 646 1472 755 1472 
L 4218 1472 
z
" transform="scale(0.015625)"/>
       </defs>
       <use xlink:href="#CMR17-31" transform="scale(0.996264)"/>
       <use xlink:href="#CMR17-30" transform="translate(45.690477 0) scale(0.996264)"/>
       <use xlink:href="#CMSY10-0" transform="translate(91.380954 36.153639) scale(0.697382)"/>
       <use xlink:href="#CMR17-35" transform="translate(145.621947 36.153639) scale(0.697382)"/>
      </g>
     </g>
    </g>
    <g id="ytick_2">
     <g id="line2d_8">
      <g>
       <use xlink:href="#m37988aaacb" x="90.004323" y="264.869353" style="stroke: #000000; stroke-width: 2"/>
      </g>
     </g>
     <g id="line2d_9">
      <g>
       <use xlink:href="#mf56779a49c" x="424.804323" y="264.869353" style="stroke: #000000; stroke-width: 2"/>
      </g>
     </g>
     <g id="text_5">
      <!-- $\mathdefault{10^{-4}}$ -->
      <g transform="translate(38.86092 273.387337) scale(0.24 -0.24)">
       <defs>
        <path id="CMR17-34" d="M 2150 4147 
C 2150 4281 2144 4288 2029 4288 
L 128 1254 
L 128 1088 
L 1779 1088 
L 1779 460 
C 1779 230 1766 166 1318 166 
L 1197 166 
L 1197 0 
C 1402 12 1747 12 1965 12 
C 2182 12 2528 12 2733 0 
L 2733 166 
L 2611 166 
C 2163 166 2150 230 2150 460 
L 2150 1088 
L 2803 1088 
L 2803 1254 
L 2150 1254 
L 2150 4147 
z
M 1798 3723 
L 1798 1254 
L 256 1254 
L 1798 3723 
z
" transform="scale(0.015625)"/>
       </defs>
       <use xlink:href="#CMR17-31" transform="scale(0.996264)"/>
       <use xlink:href="#CMR17-30" transform="translate(45.690477 0) scale(0.996264)"/>
       <use xlink:href="#CMSY10-0" transform="translate(91.380954 36.153639) scale(0.697382)"/>
       <use xlink:href="#CMR17-34" transform="translate(145.621947 36.153639) scale(0.697382)"/>
      </g>
     </g>
    </g>
    <g id="ytick_3">
     <g id="line2d_10">
      <g>
       <use xlink:href="#m37988aaacb" x="90.004323" y="204.150691" style="stroke: #000000; stroke-width: 2"/>
      </g>
     </g>
     <g id="line2d_11">
      <g>
       <use xlink:href="#mf56779a49c" x="424.804323" y="204.150691" style="stroke: #000000; stroke-width: 2"/>
      </g>
     </g>
     <g id="text_6">
      <!-- $\mathdefault{10^{-3}}$ -->
      <g transform="translate(38.86092 212.668675) scale(0.24 -0.24)">
       <defs>
        <path id="CMR17-33" d="M 1414 2176 
C 1984 2176 2234 1673 2234 1094 
C 2234 322 1824 25 1453 25 
C 1114 25 563 193 390 691 
C 422 678 454 678 486 678 
C 640 678 755 780 755 947 
C 755 1132 614 1216 486 1216 
C 378 1216 211 1164 211 927 
C 211 335 787 -128 1466 -128 
C 2176 -128 2720 432 2720 1087 
C 2720 1718 2208 2176 1600 2246 
C 2086 2347 2554 2776 2554 3353 
C 2554 3856 2048 4224 1472 4224 
C 890 4224 378 3862 378 3347 
C 378 3123 544 3084 627 3084 
C 762 3084 877 3167 877 3334 
C 877 3500 762 3584 627 3584 
C 602 3584 570 3584 544 3571 
C 730 3999 1235 4076 1459 4076 
C 1683 4076 2106 3966 2106 3347 
C 2106 3167 2080 2851 1862 2574 
C 1670 2329 1453 2316 1242 2297 
C 1210 2297 1062 2284 1037 2284 
C 992 2278 966 2272 966 2227 
C 966 2182 973 2176 1101 2176 
L 1414 2176 
z
" transform="scale(0.015625)"/>
       </defs>
       <use xlink:href="#CMR17-31" transform="scale(0.996264)"/>
       <use xlink:href="#CMR17-30" transform="translate(45.690477 0) scale(0.996264)"/>
       <use xlink:href="#CMSY10-0" transform="translate(91.380954 36.153639) scale(0.697382)"/>
       <use xlink:href="#CMR17-33" transform="translate(145.621947 36.153639) scale(0.697382)"/>
      </g>
     </g>
    </g>
    <g id="ytick_4">
     <g id="line2d_12">
      <g>
       <use xlink:href="#m37988aaacb" x="90.004323" y="143.432029" style="stroke: #000000; stroke-width: 2"/>
      </g>
     </g>
     <g id="line2d_13">
      <g>
       <use xlink:href="#mf56779a49c" x="424.804323" y="143.432029" style="stroke: #000000; stroke-width: 2"/>
      </g>
     </g>
     <g id="text_7">
      <!-- $\mathdefault{10^{-2}}$ -->
      <g transform="translate(38.86092 151.950014) scale(0.24 -0.24)">
       <defs>
        <path id="CMR17-32" d="M 2669 990 
L 2554 990 
C 2490 537 2438 460 2413 422 
C 2381 371 1920 371 1830 371 
L 602 371 
C 832 620 1280 1073 1824 1596 
C 2214 1966 2669 2400 2669 3033 
C 2669 3788 2067 4224 1395 4224 
C 691 4224 262 3603 262 3027 
C 262 2777 448 2745 525 2745 
C 589 2745 781 2783 781 3007 
C 781 3206 614 3264 525 3264 
C 486 3264 448 3257 422 3244 
C 544 3788 915 4057 1306 4057 
C 1862 4057 2227 3616 2227 3033 
C 2227 2477 1901 1998 1536 1583 
L 262 147 
L 262 0 
L 2515 0 
L 2669 990 
z
" transform="scale(0.015625)"/>
       </defs>
       <use xlink:href="#CMR17-31" transform="scale(0.996264)"/>
       <use xlink:href="#CMR17-30" transform="translate(45.690477 0) scale(0.996264)"/>
       <use xlink:href="#CMSY10-0" transform="translate(91.380954 36.153639) scale(0.697382)"/>
       <use xlink:href="#CMR17-32" transform="translate(145.621947 36.153639) scale(0.697382)"/>
      </g>
     </g>
    </g>
    <g id="ytick_5">
     <g id="line2d_14">
      <g>
       <use xlink:href="#m37988aaacb" x="90.004323" y="82.713368" style="stroke: #000000; stroke-width: 2"/>
      </g>
     </g>
     <g id="line2d_15">
      <g>
       <use xlink:href="#mf56779a49c" x="424.804323" y="82.713368" style="stroke: #000000; stroke-width: 2"/>
      </g>
     </g>
     <g id="text_8">
      <!-- $\mathdefault{10^{-1}}$ -->
      <g transform="translate(38.86092 91.231352) scale(0.24 -0.24)">
       <use xlink:href="#CMR17-31" transform="scale(0.996264)"/>
       <use xlink:href="#CMR17-30" transform="translate(45.690477 0) scale(0.996264)"/>
       <use xlink:href="#CMSY10-0" transform="translate(91.380954 36.153639) scale(0.697382)"/>
       <use xlink:href="#CMR17-31" transform="translate(145.621947 36.153639) scale(0.697382)"/>
      </g>
     </g>
    </g>
    <g id="ytick_6">
     <g id="line2d_16">
      <g>
       <use xlink:href="#m37988aaacb" x="90.004323" y="21.994706" style="stroke: #000000; stroke-width: 2"/>
      </g>
     </g>
     <g id="line2d_17">
      <g>
       <use xlink:href="#mf56779a49c" x="424.804323" y="21.994706" style="stroke: #000000; stroke-width: 2"/>
      </g>
     </g>
     <g id="text_9">
      <!-- $\mathdefault{10^{0}}$ -->
      <g transform="translate(51.878754 30.512691) scale(0.24 -0.24)">
       <use xlink:href="#CMR17-31" transform="scale(0.996264)"/>
       <use xlink:href="#CMR17-30" transform="translate(45.690477 0) scale(0.996264)"/>
       <use xlink:href="#CMR17-30" transform="translate(91.380954 36.153639) scale(0.697382)"/>
      </g>
     </g>
    </g>
    <g id="ytick_7">
     <g id="line2d_18">
      <defs>
       <path id="m2924bce47b" d="M 0 0 
L 4 0 
" style="stroke: #000000"/>
      </defs>
      <g>
       <use xlink:href="#m2924bce47b" x="90.004323" y="339.058373" style="stroke: #000000"/>
      </g>
     </g>
     <g id="line2d_19">
      <defs>
       <path id="mdb7690fed9" d="M 0 0 
L -4 0 
" style="stroke: #000000"/>
      </defs>
      <g>
       <use xlink:href="#mdb7690fed9" x="424.804323" y="339.058373" style="stroke: #000000"/>
      </g>
     </g>
    </g>
    <g id="ytick_8">
     <g id="line2d_20">
      <g>
       <use xlink:href="#m2924bce47b" x="90.004323" y="334.993454" style="stroke: #000000"/>
      </g>
     </g>
     <g id="line2d_21">
      <g>
       <use xlink:href="#mdb7690fed9" x="424.804323" y="334.993454" style="stroke: #000000"/>
      </g>
     </g>
    </g>
    <g id="ytick_9">
     <g id="line2d_22">
      <g>
       <use xlink:href="#m2924bce47b" x="90.004323" y="331.472261" style="stroke: #000000"/>
      </g>
     </g>
     <g id="line2d_23">
      <g>
       <use xlink:href="#mdb7690fed9" x="424.804323" y="331.472261" style="stroke: #000000"/>
      </g>
     </g>
    </g>
    <g id="ytick_10">
     <g id="line2d_24">
      <g>
       <use xlink:href="#m2924bce47b" x="90.004323" y="328.366348" style="stroke: #000000"/>
      </g>
     </g>
     <g id="line2d_25">
      <g>
       <use xlink:href="#mdb7690fed9" x="424.804323" y="328.366348" style="stroke: #000000"/>
      </g>
     </g>
    </g>
    <g id="ytick_11">
     <g id="line2d_26">
      <g>
       <use xlink:href="#m2924bce47b" x="90.004323" y="307.309876" style="stroke: #000000"/>
      </g>
     </g>
     <g id="line2d_27">
      <g>
       <use xlink:href="#mdb7690fed9" x="424.804323" y="307.309876" style="stroke: #000000"/>
      </g>
     </g>
    </g>
    <g id="ytick_12">
     <g id="line2d_28">
      <g>
       <use xlink:href="#m2924bce47b" x="90.004323" y="296.61785" style="stroke: #000000"/>
      </g>
     </g>
     <g id="line2d_29">
      <g>
       <use xlink:href="#mdb7690fed9" x="424.804323" y="296.61785" style="stroke: #000000"/>
      </g>
     </g>
    </g>
    <g id="ytick_13">
     <g id="line2d_30">
      <g>
       <use xlink:href="#m2924bce47b" x="90.004323" y="289.031737" style="stroke: #000000"/>
      </g>
     </g>
     <g id="line2d_31">
      <g>
       <use xlink:href="#mdb7690fed9" x="424.804323" y="289.031737" style="stroke: #000000"/>
      </g>
     </g>
    </g>
    <g id="ytick_14">
     <g id="line2d_32">
      <g>
       <use xlink:href="#m2924bce47b" x="90.004323" y="283.147491" style="stroke: #000000"/>
      </g>
     </g>
     <g id="line2d_33">
      <g>
       <use xlink:href="#mdb7690fed9" x="424.804323" y="283.147491" style="stroke: #000000"/>
      </g>
     </g>
    </g>
    <g id="ytick_15">
     <g id="line2d_34">
      <g>
       <use xlink:href="#m2924bce47b" x="90.004323" y="278.339712" style="stroke: #000000"/>
      </g>
     </g>
     <g id="line2d_35">
      <g>
       <use xlink:href="#mdb7690fed9" x="424.804323" y="278.339712" style="stroke: #000000"/>
      </g>
     </g>
    </g>
    <g id="ytick_16">
     <g id="line2d_36">
      <g>
       <use xlink:href="#m2924bce47b" x="90.004323" y="274.274792" style="stroke: #000000"/>
      </g>
     </g>
     <g id="line2d_37">
      <g>
       <use xlink:href="#mdb7690fed9" x="424.804323" y="274.274792" style="stroke: #000000"/>
      </g>
     </g>
    </g>
    <g id="ytick_17">
     <g id="line2d_38">
      <g>
       <use xlink:href="#m2924bce47b" x="90.004323" y="270.753599" style="stroke: #000000"/>
      </g>
     </g>
     <g id="line2d_39">
      <g>
       <use xlink:href="#mdb7690fed9" x="424.804323" y="270.753599" style="stroke: #000000"/>
      </g>
     </g>
    </g>
    <g id="ytick_18">
     <g id="line2d_40">
      <g>
       <use xlink:href="#m2924bce47b" x="90.004323" y="267.647686" style="stroke: #000000"/>
      </g>
     </g>
     <g id="line2d_41">
      <g>
       <use xlink:href="#mdb7690fed9" x="424.804323" y="267.647686" style="stroke: #000000"/>
      </g>
     </g>
    </g>
    <g id="ytick_19">
     <g id="line2d_42">
      <g>
       <use xlink:href="#m2924bce47b" x="90.004323" y="246.591214" style="stroke: #000000"/>
      </g>
     </g>
     <g id="line2d_43">
      <g>
       <use xlink:href="#mdb7690fed9" x="424.804323" y="246.591214" style="stroke: #000000"/>
      </g>
     </g>
    </g>
    <g id="ytick_20">
     <g id="line2d_44">
      <g>
       <use xlink:href="#m2924bce47b" x="90.004323" y="235.899189" style="stroke: #000000"/>
      </g>
     </g>
     <g id="line2d_45">
      <g>
       <use xlink:href="#mdb7690fed9" x="424.804323" y="235.899189" style="stroke: #000000"/>
      </g>
     </g>
    </g>
    <g id="ytick_21">
     <g id="line2d_46">
      <g>
       <use xlink:href="#m2924bce47b" x="90.004323" y="228.313076" style="stroke: #000000"/>
      </g>
     </g>
     <g id="line2d_47">
      <g>
       <use xlink:href="#mdb7690fed9" x="424.804323" y="228.313076" style="stroke: #000000"/>
      </g>
     </g>
    </g>
    <g id="ytick_22">
     <g id="line2d_48">
      <g>
       <use xlink:href="#m2924bce47b" x="90.004323" y="222.42883" style="stroke: #000000"/>
      </g>
     </g>
     <g id="line2d_49">
      <g>
       <use xlink:href="#mdb7690fed9" x="424.804323" y="222.42883" style="stroke: #000000"/>
      </g>
     </g>
    </g>
    <g id="ytick_23">
     <g id="line2d_50">
      <g>
       <use xlink:href="#m2924bce47b" x="90.004323" y="217.62105" style="stroke: #000000"/>
      </g>
     </g>
     <g id="line2d_51">
      <g>
       <use xlink:href="#mdb7690fed9" x="424.804323" y="217.62105" style="stroke: #000000"/>
      </g>
     </g>
    </g>
    <g id="ytick_24">
     <g id="line2d_52">
      <g>
       <use xlink:href="#m2924bce47b" x="90.004323" y="213.556131" style="stroke: #000000"/>
      </g>
     </g>
     <g id="line2d_53">
      <g>
       <use xlink:href="#mdb7690fed9" x="424.804323" y="213.556131" style="stroke: #000000"/>
      </g>
     </g>
    </g>
    <g id="ytick_25">
     <g id="line2d_54">
      <g>
       <use xlink:href="#m2924bce47b" x="90.004323" y="210.034937" style="stroke: #000000"/>
      </g>
     </g>
     <g id="line2d_55">
      <g>
       <use xlink:href="#mdb7690fed9" x="424.804323" y="210.034937" style="stroke: #000000"/>
      </g>
     </g>
    </g>
    <g id="ytick_26">
     <g id="line2d_56">
      <g>
       <use xlink:href="#m2924bce47b" x="90.004323" y="206.929025" style="stroke: #000000"/>
      </g>
     </g>
     <g id="line2d_57">
      <g>
       <use xlink:href="#mdb7690fed9" x="424.804323" y="206.929025" style="stroke: #000000"/>
      </g>
     </g>
    </g>
    <g id="ytick_27">
     <g id="line2d_58">
      <g>
       <use xlink:href="#m2924bce47b" x="90.004323" y="185.872553" style="stroke: #000000"/>
      </g>
     </g>
     <g id="line2d_59">
      <g>
       <use xlink:href="#mdb7690fed9" x="424.804323" y="185.872553" style="stroke: #000000"/>
      </g>
     </g>
    </g>
    <g id="ytick_28">
     <g id="line2d_60">
      <g>
       <use xlink:href="#m2924bce47b" x="90.004323" y="175.180527" style="stroke: #000000"/>
      </g>
     </g>
     <g id="line2d_61">
      <g>
       <use xlink:href="#mdb7690fed9" x="424.804323" y="175.180527" style="stroke: #000000"/>
      </g>
     </g>
    </g>
    <g id="ytick_29">
     <g id="line2d_62">
      <g>
       <use xlink:href="#m2924bce47b" x="90.004323" y="167.594414" style="stroke: #000000"/>
      </g>
     </g>
     <g id="line2d_63">
      <g>
       <use xlink:href="#mdb7690fed9" x="424.804323" y="167.594414" style="stroke: #000000"/>
      </g>
     </g>
    </g>
    <g id="ytick_30">
     <g id="line2d_64">
      <g>
       <use xlink:href="#m2924bce47b" x="90.004323" y="161.710168" style="stroke: #000000"/>
      </g>
     </g>
     <g id="line2d_65">
      <g>
       <use xlink:href="#mdb7690fed9" x="424.804323" y="161.710168" style="stroke: #000000"/>
      </g>
     </g>
    </g>
    <g id="ytick_31">
     <g id="line2d_66">
      <g>
       <use xlink:href="#m2924bce47b" x="90.004323" y="156.902389" style="stroke: #000000"/>
      </g>
     </g>
     <g id="line2d_67">
      <g>
       <use xlink:href="#mdb7690fed9" x="424.804323" y="156.902389" style="stroke: #000000"/>
      </g>
     </g>
    </g>
    <g id="ytick_32">
     <g id="line2d_68">
      <g>
       <use xlink:href="#m2924bce47b" x="90.004323" y="152.837469" style="stroke: #000000"/>
      </g>
     </g>
     <g id="line2d_69">
      <g>
       <use xlink:href="#mdb7690fed9" x="424.804323" y="152.837469" style="stroke: #000000"/>
      </g>
     </g>
    </g>
    <g id="ytick_33">
     <g id="line2d_70">
      <g>
       <use xlink:href="#m2924bce47b" x="90.004323" y="149.316276" style="stroke: #000000"/>
      </g>
     </g>
     <g id="line2d_71">
      <g>
       <use xlink:href="#mdb7690fed9" x="424.804323" y="149.316276" style="stroke: #000000"/>
      </g>
     </g>
    </g>
    <g id="ytick_34">
     <g id="line2d_72">
      <g>
       <use xlink:href="#m2924bce47b" x="90.004323" y="146.210363" style="stroke: #000000"/>
      </g>
     </g>
     <g id="line2d_73">
      <g>
       <use xlink:href="#mdb7690fed9" x="424.804323" y="146.210363" style="stroke: #000000"/>
      </g>
     </g>
    </g>
    <g id="ytick_35">
     <g id="line2d_74">
      <g>
       <use xlink:href="#m2924bce47b" x="90.004323" y="125.153891" style="stroke: #000000"/>
      </g>
     </g>
     <g id="line2d_75">
      <g>
       <use xlink:href="#mdb7690fed9" x="424.804323" y="125.153891" style="stroke: #000000"/>
      </g>
     </g>
    </g>
    <g id="ytick_36">
     <g id="line2d_76">
      <g>
       <use xlink:href="#m2924bce47b" x="90.004323" y="114.461865" style="stroke: #000000"/>
      </g>
     </g>
     <g id="line2d_77">
      <g>
       <use xlink:href="#mdb7690fed9" x="424.804323" y="114.461865" style="stroke: #000000"/>
      </g>
     </g>
    </g>
    <g id="ytick_37">
     <g id="line2d_78">
      <g>
       <use xlink:href="#m2924bce47b" x="90.004323" y="106.875753" style="stroke: #000000"/>
      </g>
     </g>
     <g id="line2d_79">
      <g>
       <use xlink:href="#mdb7690fed9" x="424.804323" y="106.875753" style="stroke: #000000"/>
      </g>
     </g>
    </g>
    <g id="ytick_38">
     <g id="line2d_80">
      <g>
       <use xlink:href="#m2924bce47b" x="90.004323" y="100.991506" style="stroke: #000000"/>
      </g>
     </g>
     <g id="line2d_81">
      <g>
       <use xlink:href="#mdb7690fed9" x="424.804323" y="100.991506" style="stroke: #000000"/>
      </g>
     </g>
    </g>
    <g id="ytick_39">
     <g id="line2d_82">
      <g>
       <use xlink:href="#m2924bce47b" x="90.004323" y="96.183727" style="stroke: #000000"/>
      </g>
     </g>
     <g id="line2d_83">
      <g>
       <use xlink:href="#mdb7690fed9" x="424.804323" y="96.183727" style="stroke: #000000"/>
      </g>
     </g>
    </g>
    <g id="ytick_40">
     <g id="line2d_84">
      <g>
       <use xlink:href="#m2924bce47b" x="90.004323" y="92.118808" style="stroke: #000000"/>
      </g>
     </g>
     <g id="line2d_85">
      <g>
       <use xlink:href="#mdb7690fed9" x="424.804323" y="92.118808" style="stroke: #000000"/>
      </g>
     </g>
    </g>
    <g id="ytick_41">
     <g id="line2d_86">
      <g>
       <use xlink:href="#m2924bce47b" x="90.004323" y="88.597614" style="stroke: #000000"/>
      </g>
     </g>
     <g id="line2d_87">
      <g>
       <use xlink:href="#mdb7690fed9" x="424.804323" y="88.597614" style="stroke: #000000"/>
      </g>
     </g>
    </g>
    <g id="ytick_42">
     <g id="line2d_88">
      <g>
       <use xlink:href="#m2924bce47b" x="90.004323" y="85.491701" style="stroke: #000000"/>
      </g>
     </g>
     <g id="line2d_89">
      <g>
       <use xlink:href="#mdb7690fed9" x="424.804323" y="85.491701" style="stroke: #000000"/>
      </g>
     </g>
    </g>
    <g id="ytick_43">
     <g id="line2d_90">
      <g>
       <use xlink:href="#m2924bce47b" x="90.004323" y="64.435229" style="stroke: #000000"/>
      </g>
     </g>
     <g id="line2d_91">
      <g>
       <use xlink:href="#mdb7690fed9" x="424.804323" y="64.435229" style="stroke: #000000"/>
      </g>
     </g>
    </g>
    <g id="ytick_44">
     <g id="line2d_92">
      <g>
       <use xlink:href="#m2924bce47b" x="90.004323" y="53.743204" style="stroke: #000000"/>
      </g>
     </g>
     <g id="line2d_93">
      <g>
       <use xlink:href="#mdb7690fed9" x="424.804323" y="53.743204" style="stroke: #000000"/>
      </g>
     </g>
    </g>
    <g id="ytick_45">
     <g id="line2d_94">
      <g>
       <use xlink:href="#m2924bce47b" x="90.004323" y="46.157091" style="stroke: #000000"/>
      </g>
     </g>
     <g id="line2d_95">
      <g>
       <use xlink:href="#mdb7690fed9" x="424.804323" y="46.157091" style="stroke: #000000"/>
      </g>
     </g>
    </g>
    <g id="ytick_46">
     <g id="line2d_96">
      <g>
       <use xlink:href="#m2924bce47b" x="90.004323" y="40.272845" style="stroke: #000000"/>
      </g>
     </g>
     <g id="line2d_97">
      <g>
       <use xlink:href="#mdb7690fed9" x="424.804323" y="40.272845" style="stroke: #000000"/>
      </g>
     </g>
    </g>
    <g id="ytick_47">
     <g id="line2d_98">
      <g>
       <use xlink:href="#m2924bce47b" x="90.004323" y="35.465065" style="stroke: #000000"/>
      </g>
     </g>
     <g id="line2d_99">
      <g>
       <use xlink:href="#mdb7690fed9" x="424.804323" y="35.465065" style="stroke: #000000"/>
      </g>
     </g>
    </g>
    <g id="ytick_48">
     <g id="line2d_100">
      <g>
       <use xlink:href="#m2924bce47b" x="90.004323" y="31.400146" style="stroke: #000000"/>
      </g>
     </g>
     <g id="line2d_101">
      <g>
       <use xlink:href="#mdb7690fed9" x="424.804323" y="31.400146" style="stroke: #000000"/>
      </g>
     </g>
    </g>
    <g id="ytick_49">
     <g id="line2d_102">
      <g>
       <use xlink:href="#m2924bce47b" x="90.004323" y="27.878953" style="stroke: #000000"/>
      </g>
     </g>
     <g id="line2d_103">
      <g>
       <use xlink:href="#mdb7690fed9" x="424.804323" y="27.878953" style="stroke: #000000"/>
      </g>
     </g>
    </g>
    <g id="ytick_50">
     <g id="line2d_104">
      <g>
       <use xlink:href="#m2924bce47b" x="90.004323" y="24.77304" style="stroke: #000000"/>
      </g>
     </g>
     <g id="line2d_105">
      <g>
       <use xlink:href="#mdb7690fed9" x="424.804323" y="24.77304" style="stroke: #000000"/>
      </g>
     </g>
    </g>
    <g id="text_10">
     <!-- $\sigma_i$ -->
     <g transform="translate(28.494961 185.331055) rotate(-90) scale(0.3 -0.3)">
      <defs>
       <path id="CMMI12-1b" d="M 3251 2406 
C 3334 2406 3546 2406 3546 2611 
C 3546 2752 3424 2752 3309 2752 
L 1894 2752 
C 934 2752 243 1685 243 932 
C 243 389 595 -64 1171 -64 
C 1926 -64 2752 746 2752 1704 
C 2752 1953 2694 2195 2541 2406 
L 3251 2406 
z
M 1178 64 
C 851 64 614 312 614 753 
C 614 1136 845 2406 1786 2406 
C 2061 2406 2368 2272 2368 1780 
C 2368 1557 2266 1021 2042 651 
C 1811 274 1466 64 1178 64 
z
" transform="scale(0.015625)"/>
      </defs>
      <use xlink:href="#CMMI12-1b" transform="scale(0.996264)"/>
      <use xlink:href="#CMMI12-69" transform="translate(55.445461 -14.943915) scale(0.697382)"/>
     </g>
    </g>
   </g>
   <g id="line2d_106">
    <path d="M 105.222505 22.554234 
L 108.426333 72.387953 
L 111.630161 80.904896 
L 114.833988 99.573303 
L 118.037816 107.011464 
L 121.241644 109.464028 
L 124.445472 115.296939 
L 127.649299 116.299981 
L 130.853127 128.568455 
L 134.056955 140.497734 
L 137.260783 141.235887 
L 140.46461 148.425189 
L 143.668438 154.803918 
L 146.872266 157.057699 
L 150.076094 161.031177 
L 153.279921 161.708364 
L 156.483749 163.381955 
L 159.687577 167.036124 
L 162.891405 168.844162 
L 166.095232 169.418551 
L 169.29906 172.392529 
L 172.502888 176.891845 
L 175.706716 178.967206 
L 178.910543 181.925725 
L 182.114371 182.635967 
L 185.318199 184.891068 
L 188.522027 187.279499 
L 191.725854 192.269131 
L 194.929682 194.713227 
L 198.13351 195.858949 
L 201.337338 196.467605 
L 204.541165 197.450271 
L 207.744993 198.495442 
L 210.948821 200.269866 
L 214.152649 201.122686 
L 217.356476 202.193078 
L 220.560304 202.726126 
L 223.764132 206.603531 
L 226.96796 207.337366 
L 230.171787 209.338811 
L 233.375615 210.495998 
L 236.579443 211.684344 
L 239.783271 212.707507 
L 242.987098 214.236859 
L 246.190926 215.49546 
L 249.394754 215.793666 
L 252.598582 217.410376 
L 255.802409 217.636246 
L 259.006237 222.152324 
L 262.210065 222.223893 
L 265.413893 223.907186 
L 268.61772 225.878539 
L 271.821548 226.279576 
L 275.025376 227.027166 
L 278.229204 228.955134 
L 281.433031 229.398073 
L 284.636859 231.566692 
L 287.840687 232.847906 
L 291.044515 233.678628 
L 294.248342 235.517704 
L 297.45217 236.07005 
L 300.655998 238.14088 
L 303.859826 238.708847 
L 307.063653 239.136583 
L 310.267481 240.140102 
L 313.471309 240.896693 
L 316.675137 242.234817 
L 319.878964 242.967044 
L 323.082792 244.312423 
L 326.28662 247.236055 
L 329.490448 247.949324 
L 332.694275 248.745509 
L 335.898103 248.762769 
L 339.101931 249.786166 
L 342.305759 251.290643 
L 345.509586 253.330401 
L 348.713414 253.574583 
L 351.917242 254.901823 
L 355.12107 256.810142 
L 358.324897 257.11927 
L 361.528725 259.082672 
L 364.732553 260.447585 
L 367.936381 261.011787 
L 371.140208 261.72955 
L 374.344036 263.274602 
L 377.547864 264.762346 
L 380.751692 266.022703 
L 383.955519 266.731433 
L 387.159347 268.375409 
L 390.363175 271.931253 
L 393.567003 275.870868 
L 396.77083 279.461985 
L 399.974658 281.290007 
L 403.178486 282.491354 
L 406.382314 286.08483 
L 409.586141 286.895005 
" clip-path="url(#p4fc4e89e8f)" style="fill: none; stroke-dasharray: 10,2,2,2,2,2; stroke-dashoffset: 0; stroke: #94a4a2; stroke-width: 2"/>
   </g>
   <g id="line2d_107">
    <path d="M 105.222505 22.32 
L 108.426333 74.122623 
L 111.630161 103.02734 
L 114.833988 109.680972 
L 118.037816 114.104485 
L 121.241644 125.591624 
L 124.445472 133.270135 
L 127.649299 138.672262 
L 130.853127 164.847562 
L 134.056955 165.707675 
L 137.260783 173.381952 
L 140.46461 179.319915 
L 143.668438 184.031035 
L 146.872266 186.960003 
L 150.076094 190.192377 
L 153.279921 193.004448 
L 156.483749 198.892211 
L 159.687577 201.939489 
L 162.891405 203.649994 
L 166.095232 207.173818 
L 169.29906 211.648405 
L 172.502888 214.476272 
L 175.706716 216.155393 
L 178.910543 217.674634 
L 182.114371 219.855796 
L 185.318199 221.382629 
L 188.522027 222.339447 
L 191.725854 223.083348 
L 194.929682 227.390616 
L 198.13351 227.970625 
L 201.337338 229.241555 
L 204.541165 230.682014 
L 207.744993 231.973581 
L 210.948821 234.677621 
L 214.152649 235.736636 
L 217.356476 236.668398 
L 220.560304 238.46787 
L 223.764132 239.341993 
L 226.96796 241.933834 
L 230.171787 243.951162 
L 233.375615 245.399627 
L 236.579443 247.756706 
L 239.783271 248.600447 
L 242.987098 250.980273 
L 246.190926 253.542792 
L 249.394754 254.350313 
L 252.598582 255.081957 
L 255.802409 258.051656 
L 259.006237 258.250587 
L 262.210065 260.29165 
L 265.413893 260.474835 
L 268.61772 261.278776 
L 271.821548 263.805096 
L 275.025376 263.966391 
L 278.229204 264.918212 
L 281.433031 266.762785 
L 284.636859 267.095819 
L 287.840687 268.141935 
L 291.044515 269.398361 
L 294.248342 270.700039 
L 297.45217 271.263128 
L 300.655998 274.123248 
L 303.859826 274.575191 
L 307.063653 275.309028 
L 310.267481 277.269055 
L 313.471309 277.767301 
L 316.675137 278.485456 
L 319.878964 280.442113 
L 323.082792 281.491628 
L 326.28662 282.89846 
L 329.490448 283.830312 
L 332.694275 284.329762 
L 335.898103 284.952936 
L 339.101931 286.807118 
L 342.305759 288.763523 
L 345.509586 290.549035 
L 348.713414 291.417699 
L 351.917242 292.094456 
L 355.12107 294.831505 
L 358.324897 296.400837 
L 361.528725 298.816216 
L 364.732553 299.389104 
L 367.936381 302.186408 
L 371.140208 302.542776 
L 374.344036 303.964962 
L 377.547864 305.159487 
L 380.751692 306.765556 
L 383.955519 308.181665 
L 387.159347 308.818603 
L 390.363175 310.821421 
L 393.567003 312.56364 
L 396.77083 313.835255 
L 399.974658 316.090332 
L 403.178486 318.779892 
L 406.382314 322.310969 
L 409.586141 324.72 
" clip-path="url(#p4fc4e89e8f)" style="fill: none; stroke: #3f90da; stroke-width: 2; stroke-linecap: square"/>
   </g>
   <g id="line2d_108">
    <path d="M 105.222505 22.321757 
L 108.426333 74.313195 
L 111.630161 102.153528 
L 114.833988 108.198256 
L 118.037816 115.133886 
L 121.241644 122.382366 
L 124.445472 132.111539 
L 127.649299 138.822471 
L 130.853127 163.709372 
L 134.056955 165.116715 
L 137.260783 169.848226 
L 140.46461 174.73789 
L 143.668438 176.432643 
L 146.872266 177.108713 
L 150.076094 180.054716 
L 153.279921 180.98432 
L 156.483749 181.520112 
L 159.687577 186.34173 
L 162.891405 187.108178 
L 166.095232 191.047614 
L 169.29906 192.996508 
L 172.502888 194.394059 
L 175.706716 196.246154 
L 178.910543 198.065697 
L 182.114371 199.129788 
L 185.318199 201.333932 
L 188.522027 202.841683 
L 191.725854 206.837781 
L 194.929682 207.738029 
L 198.13351 208.301077 
L 201.337338 210.910624 
L 204.541165 211.30459 
L 207.744993 212.842593 
L 210.948821 216.574777 
L 214.152649 218.051857 
L 217.356476 221.195621 
L 220.560304 222.348366 
L 223.764132 224.282821 
L 226.96796 224.843636 
L 230.171787 225.119554 
L 233.375615 226.92204 
L 236.579443 228.473894 
L 239.783271 229.839965 
L 242.987098 232.083236 
L 246.190926 232.836738 
L 249.394754 234.490015 
L 252.598582 235.508648 
L 255.802409 235.937622 
L 259.006237 237.916638 
L 262.210065 238.491709 
L 265.413893 239.442317 
L 268.61772 240.536381 
L 271.821548 241.436455 
L 275.025376 242.921213 
L 278.229204 244.715012 
L 281.433031 246.40206 
L 284.636859 247.496888 
L 287.840687 248.8132 
L 291.044515 249.769177 
L 294.248342 250.266632 
L 297.45217 251.75207 
L 300.655998 252.411475 
L 303.859826 253.955435 
L 307.063653 254.43422 
L 310.267481 255.335892 
L 313.471309 256.900268 
L 316.675137 258.982552 
L 319.878964 259.69702 
L 323.082792 262.291503 
L 326.28662 263.534088 
L 329.490448 264.45376 
L 332.694275 265.610118 
L 335.898103 266.417985 
L 339.101931 268.179899 
L 342.305759 269.419601 
L 345.509586 270.610285 
L 348.713414 270.970337 
L 351.917242 271.895875 
L 355.12107 274.506312 
L 358.324897 275.110476 
L 361.528725 277.622388 
L 364.732553 278.376862 
L 367.936381 280.555671 
L 371.140208 280.901451 
L 374.344036 282.302384 
L 377.547864 283.427068 
L 380.751692 285.146622 
L 383.955519 285.898342 
L 387.159347 287.425146 
L 390.363175 290.322283 
L 393.567003 291.458719 
L 396.77083 294.912281 
L 399.974658 295.542203 
L 403.178486 301.850212 
L 406.382314 308.380564 
L 409.586141 312.57795 
" clip-path="url(#p4fc4e89e8f)" style="fill: none; stroke-dasharray: 10,2; stroke-dashoffset: 0; stroke: #ffa90e; stroke-width: 2"/>
   </g>
   <g id="line2d_109">
    <path d="M 105.222505 22.322846 
L 108.426333 74.352174 
L 111.630161 102.300701 
L 114.833988 107.005601 
L 118.037816 114.780583 
L 121.241644 122.702897 
L 124.445472 132.693823 
L 127.649299 138.80667 
L 130.853127 162.636421 
L 134.056955 164.784922 
L 137.260783 166.221963 
L 140.46461 171.347044 
L 143.668438 173.46323 
L 146.872266 174.968367 
L 150.076094 175.478987 
L 153.279921 177.304476 
L 156.483749 179.169351 
L 159.687577 183.654111 
L 162.891405 185.95887 
L 166.095232 189.351705 
L 169.29906 191.240461 
L 172.502888 191.664079 
L 175.706716 194.294579 
L 178.910543 195.762014 
L 182.114371 197.243082 
L 185.318199 200.02889 
L 188.522027 201.486699 
L 191.725854 202.915597 
L 194.929682 204.172273 
L 198.13351 206.295634 
L 201.337338 208.751881 
L 204.541165 209.961723 
L 207.744993 211.418298 
L 210.948821 213.662679 
L 214.152649 215.863534 
L 217.356476 218.441253 
L 220.560304 219.806195 
L 223.764132 219.984382 
L 226.96796 221.389551 
L 230.171787 222.702663 
L 233.375615 223.262668 
L 236.579443 226.547932 
L 239.783271 228.902854 
L 242.987098 229.723307 
L 246.190926 230.211626 
L 249.394754 231.44869 
L 252.598582 232.543681 
L 255.802409 234.411787 
L 259.006237 235.674775 
L 262.210065 236.963822 
L 265.413893 237.43357 
L 268.61772 238.548493 
L 271.821548 239.881528 
L 275.025376 240.829873 
L 278.229204 242.013356 
L 281.433031 242.423644 
L 284.636859 244.225207 
L 287.840687 245.615126 
L 291.044515 246.492912 
L 294.248342 247.824684 
L 297.45217 249.099916 
L 300.655998 250.564899 
L 303.859826 251.273046 
L 307.063653 252.269934 
L 310.267481 253.306492 
L 313.471309 254.177249 
L 316.675137 256.10756 
L 319.878964 258.005992 
L 323.082792 258.821787 
L 326.28662 259.922417 
L 329.490448 260.859352 
L 332.694275 263.100732 
L 335.898103 264.052792 
L 339.101931 264.306895 
L 342.305759 265.438097 
L 345.509586 267.151325 
L 348.713414 268.499796 
L 351.917242 270.179028 
L 355.12107 271.256205 
L 358.324897 273.647141 
L 361.528725 275.036159 
L 364.732553 276.174681 
L 367.936381 277.367741 
L 371.140208 279.678562 
L 374.344036 281.259332 
L 377.547864 282.512127 
L 380.751692 283.003546 
L 383.955519 284.559017 
L 387.159347 285.616167 
L 390.363175 286.363536 
L 393.567003 286.961045 
L 396.77083 291.191456 
L 399.974658 293.223832 
L 403.178486 301.490216 
L 406.382314 304.092426 
L 409.586141 309.451448 
" clip-path="url(#p4fc4e89e8f)" style="fill: none; stroke-dasharray: 12.8,3.2,2,3.2; stroke-dashoffset: 0; stroke: #bd1f01; stroke-width: 2"/>
   </g>
   <g id="line2d_110">
    <path d="M 105.222505 22.322847 
L 108.426333 74.352175 
L 111.630161 102.300715 
L 114.833988 107.005438 
L 118.037816 114.780536 
L 121.241644 122.702441 
L 124.445472 132.693599 
L 127.649299 138.806669 
L 130.853127 162.636269 
L 134.056955 164.784929 
L 137.260783 166.222097 
L 140.46461 171.34779 
L 143.668438 173.46293 
L 146.872266 174.967653 
L 150.076094 175.478341 
L 153.279921 177.304215 
L 156.483749 179.169379 
L 159.687577 183.654998 
L 162.891405 185.958507 
L 166.095232 189.35185 
L 169.29906 191.240101 
L 172.502888 191.664042 
L 175.706716 194.293802 
L 178.910543 195.761772 
L 182.114371 197.242961 
L 185.318199 200.028967 
L 188.522027 201.486476 
L 191.725854 202.915608 
L 194.929682 204.172266 
L 198.13351 206.295217 
L 201.337338 208.751686 
L 204.541165 209.961593 
L 207.744993 211.418276 
L 210.948821 213.662514 
L 214.152649 215.86342 
L 217.356476 218.441479 
L 220.560304 219.806555 
L 223.764132 219.984494 
L 226.96796 221.389606 
L 230.171787 222.703238 
L 233.375615 223.262438 
L 236.579443 226.547448 
L 239.783271 228.903052 
L 242.987098 229.723323 
L 246.190926 230.211248 
L 249.394754 231.448299 
L 252.598582 232.543403 
L 255.802409 234.411383 
L 259.006237 235.674468 
L 262.210065 236.963905 
L 265.413893 237.433413 
L 268.61772 238.548495 
L 271.821548 239.881192 
L 275.025376 240.829587 
L 278.229204 242.013057 
L 281.433031 242.423138 
L 284.636859 244.224912 
L 287.840687 245.615124 
L 291.044515 246.492762 
L 294.248342 247.825055 
L 297.45217 249.099653 
L 300.655998 250.564825 
L 303.859826 251.273169 
L 307.063653 252.270102 
L 310.267481 253.305977 
L 313.471309 254.177313 
L 316.675137 256.107721 
L 319.878964 258.00595 
L 323.082792 258.821619 
L 326.28662 259.921815 
L 329.490448 260.858814 
L 332.694275 263.100621 
L 335.898103 264.052499 
L 339.101931 264.306856 
L 342.305759 265.438155 
L 345.509586 267.151579 
L 348.713414 268.499758 
L 351.917242 270.178521 
L 355.12107 271.256227 
L 358.324897 273.647097 
L 361.528725 275.035966 
L 364.732553 276.174707 
L 367.936381 277.367997 
L 371.140208 279.678593 
L 374.344036 281.258962 
L 377.547864 282.512084 
L 380.751692 283.002838 
L 383.955519 284.558732 
L 387.159347 285.616707 
L 390.363175 286.363675 
L 393.567003 286.960665 
L 396.77083 291.190995 
L 399.974658 293.223251 
L 403.178486 301.490072 
L 406.382314 304.092549 
L 409.586141 309.451325 
" clip-path="url(#p4fc4e89e8f)" style="fill: none; stroke-dasharray: 20,6; stroke-dashoffset: 10; stroke: #832db6; stroke-width: 2"/>
   </g>
   <g id="patch_3">
    <path d="M 90.004323 339.84 
L 90.004323 7.2 
" style="fill: none; stroke: #000000; stroke-width: 2; stroke-linejoin: miter; stroke-linecap: square"/>
   </g>
   <g id="patch_4">
    <path d="M 424.804323 339.84 
L 424.804323 7.2 
" style="fill: none; stroke: #000000; stroke-width: 2; stroke-linejoin: miter; stroke-linecap: square"/>
   </g>
   <g id="patch_5">
    <path d="M 90.004323 339.84 
L 424.804323 339.84 
" style="fill: none; stroke: #000000; stroke-width: 2; stroke-linejoin: miter; stroke-linecap: square"/>
   </g>
   <g id="patch_6">
    <path d="M 90.004323 7.2 
L 424.804323 7.2 
" style="fill: none; stroke: #000000; stroke-width: 2; stroke-linejoin: miter; stroke-linecap: square"/>
   </g>
   <g id="legend_1">
    <g id="line2d_111">
     <path d="M 463.144323 37.435969 
L 487.144323 37.435969 
L 511.144323 37.435969 
" style="fill: none; stroke-dasharray: 10,2,2,2,2,2; stroke-dashoffset: 0; stroke: #94a4a2; stroke-width: 2"/>
    </g>
    <g id="text_11">
     <!-- Initial -->
     <g transform="translate(530.344323 45.835969) scale(0.24 -0.24)">
      <defs>
       <path id="NimbusSanL-Regu-49" d="M 1242 4672 
L 640 4672 
L 640 0 
L 1242 0 
L 1242 4672 
z
" transform="scale(0.015625)"/>
       <path id="NimbusSanL-Regu-6e" d="M 448 3328 
L 448 0 
L 986 0 
L 986 1835 
C 986 2539 1344 2988 1894 2988 
C 2317 2988 2586 2732 2586 2328 
L 2586 0 
L 3117 0 
L 3117 2539 
C 3117 3097 2701 3456 2054 3456 
C 1555 3456 1235 3263 941 2796 
L 941 3328 
L 448 3328 
z
" transform="scale(0.015625)"/>
       <path id="NimbusSanL-Regu-69" d="M 960 3358 
L 429 3358 
L 429 0 
L 960 0 
L 960 3358 
z
M 960 4672 
L 422 4672 
L 422 3999 
L 960 3999 
L 960 4672 
z
" transform="scale(0.015625)"/>
       <path id="NimbusSanL-Regu-74" d="M 1626 3328 
L 1075 3328 
L 1075 4249 
L 544 4249 
L 544 3328 
L 90 3328 
L 90 2892 
L 544 2892 
L 544 402 
C 544 64 774 -128 1190 -128 
C 1318 -128 1446 -116 1626 -84 
L 1626 364 
C 1555 345 1472 339 1370 339 
C 1139 339 1075 402 1075 634 
L 1075 2892 
L 1626 2892 
L 1626 3328 
z
" transform="scale(0.015625)"/>
       <path id="NimbusSanL-Regu-61" d="M 3424 332 
C 3366 320 3341 320 3309 320 
C 3123 320 3021 415 3021 581 
L 3021 2542 
C 3021 3135 2586 3456 1760 3456 
C 1274 3456 870 3315 646 3065 
C 493 2893 429 2702 416 2370 
L 954 2370 
C 998 2778 1242 2963 1741 2963 
C 2221 2963 2490 2784 2490 2466 
L 2490 2326 
C 2490 2103 2355 2007 1933 1956 
C 1178 1861 1062 1835 858 1753 
C 467 1593 269 1294 269 861 
C 269 256 691 -128 1370 -128 
C 1792 -128 2131 19 2509 364 
C 2547 25 2714 -128 3059 -128 
C 3168 -128 3251 -116 3424 -71 
L 3424 332 
z
M 2490 1071 
C 2490 893 2438 785 2278 638 
C 2061 441 1798 339 1485 339 
C 1069 339 826 536 826 874 
C 826 1224 1062 1402 1632 1485 
C 2195 1562 2310 1587 2490 1670 
L 2490 1071 
z
" transform="scale(0.015625)"/>
       <path id="NimbusSanL-Regu-6c" d="M 973 4672 
L 435 4672 
L 435 0 
L 973 0 
L 973 4672 
z
" transform="scale(0.015625)"/>
      </defs>
      <use xlink:href="#NimbusSanL-Regu-49" transform="scale(0.996264)"/>
      <use xlink:href="#NimbusSanL-Regu-6e" transform="translate(27.69517 0) scale(0.996264)"/>
      <use xlink:href="#NimbusSanL-Regu-69" transform="translate(83.086847 0) scale(0.996264)"/>
      <use xlink:href="#NimbusSanL-Regu-74" transform="translate(105.203631 0) scale(0.996264)"/>
      <use xlink:href="#NimbusSanL-Regu-69" transform="translate(132.898801 0) scale(0.996264)"/>
      <use xlink:href="#NimbusSanL-Regu-61" transform="translate(155.015585 0) scale(0.996264)"/>
      <use xlink:href="#NimbusSanL-Regu-6c" transform="translate(210.407262 0) scale(0.996264)"/>
     </g>
    </g>
    <g id="line2d_112">
     <path d="M 463.144323 71.564702 
L 487.144323 71.564702 
L 511.144323 71.564702 
" style="fill: none; stroke: #3f90da; stroke-width: 2; stroke-linecap: square"/>
    </g>
    <g id="text_12">
     <!-- Alt -->
     <g transform="translate(530.344323 79.964702) scale(0.24 -0.24)">
      <defs>
       <path id="NimbusSanL-Regu-41" d="M 3034 1408 
L 3514 0 
L 4179 0 
L 2541 4672 
L 1773 4672 
L 109 0 
L 742 0 
L 1235 1408 
L 3034 1408 
z
M 2867 1907 
L 1382 1907 
L 2150 4032 
L 2867 1907 
z
" transform="scale(0.015625)"/>
      </defs>
      <use xlink:href="#NimbusSanL-Regu-41" transform="scale(0.996264)"/>
      <use xlink:href="#NimbusSanL-Regu-6c" transform="translate(66.450031 0) scale(0.996264)"/>
      <use xlink:href="#NimbusSanL-Regu-74" transform="translate(88.566815 0) scale(0.996264)"/>
     </g>
    </g>
    <g id="line2d_113">
     <path d="M 463.144323 105.693435 
L 487.144323 105.693435 
L 511.144323 105.693435 
" style="fill: none; stroke-dasharray: 10,2; stroke-dashoffset: 0; stroke: #ffa90e; stroke-width: 2"/>
    </g>
    <g id="text_13">
     <!-- RCG -->
     <g transform="translate(530.344323 114.093435) scale(0.24 -0.24)">
      <defs>
       <path id="NimbusSanL-Regu-52" d="M 1190 2035 
L 2726 2035 
C 3258 2035 3494 1775 3494 1191 
L 3488 770 
C 3488 478 3539 192 3622 0 
L 4346 0 
L 4346 147 
C 4122 303 4077 471 4064 1101 
C 4058 1879 3936 2111 3430 2329 
C 3955 2585 4166 2907 4166 3432 
C 4166 4230 3661 4672 2746 4672 
L 595 4672 
L 595 0 
L 1190 0 
L 1190 2035 
z
M 1190 2560 
L 1190 4147 
L 2630 4147 
C 2963 4147 3155 4096 3302 3970 
C 3462 3837 3546 3628 3546 3350 
C 3546 2806 3264 2560 2630 2560 
L 1190 2560 
z
" transform="scale(0.015625)"/>
       <path id="NimbusSanL-Regu-43" d="M 4237 3219 
C 4051 4236 3462 4736 2438 4736 
C 1811 4736 1306 4537 960 4154 
C 538 3696 307 3035 307 2284 
C 307 1522 544 867 986 415 
C 1344 44 1805 -128 2413 -128 
C 3552 -128 4192 485 4333 1712 
L 3718 1712 
C 3667 1394 3603 1178 3507 994 
C 3315 612 2918 396 2419 396 
C 1491 396 902 1134 902 2291 
C 902 3480 1466 4211 2368 4211 
C 2746 4211 3098 4096 3290 3918 
C 3462 3759 3558 3562 3629 3219 
L 4237 3219 
z
" transform="scale(0.015625)"/>
       <path id="NimbusSanL-Regu-47" d="M 4538 2496 
L 2592 2496 
L 2592 1971 
L 4013 1971 
L 4013 1842 
C 4013 1003 3398 396 2547 396 
C 2074 396 1645 571 1370 874 
C 1062 1209 877 1771 877 2348 
C 877 3472 1530 4211 2515 4211 
C 3226 4211 3738 3854 3866 3265 
L 4474 3265 
C 4307 4192 3590 4736 2522 4736 
C 1952 4736 1491 4588 1126 4287 
C 589 3848 282 3140 282 2316 
C 282 874 1158 -128 2419 -128 
C 3053 -128 3558 108 4013 616 
L 4160 -7 
L 4538 -7 
L 4538 2496 
z
" transform="scale(0.015625)"/>
      </defs>
      <use xlink:href="#NimbusSanL-Regu-52" transform="scale(0.996264)"/>
      <use xlink:href="#NimbusSanL-Regu-43" transform="translate(71.929985 0) scale(0.996264)"/>
      <use xlink:href="#NimbusSanL-Regu-47" transform="translate(143.85997 0) scale(0.996264)"/>
     </g>
    </g>
    <g id="line2d_114">
     <path d="M 463.144323 139.822167 
L 487.144323 139.822167 
L 511.144323 139.822167 
" style="fill: none; stroke-dasharray: 12.8,3.2,2,3.2; stroke-dashoffset: 0; stroke: #bd1f01; stroke-width: 2"/>
    </g>
    <g id="text_14">
     <!-- RNTR -->
     <g transform="translate(530.344323 148.222167) scale(0.24 -0.24)">
      <defs>
       <path id="NimbusSanL-Regu-4e" d="M 4134 4672 
L 3571 4672 
L 3571 852 
L 1133 4672 
L 486 4672 
L 486 0 
L 1050 0 
L 1050 3787 
L 3462 0 
L 4134 0 
L 4134 4672 
z
" transform="scale(0.015625)"/>
       <path id="NimbusSanL-Regu-54" d="M 2266 4147 
L 3795 4147 
L 3795 4672 
L 134 4672 
L 134 4147 
L 1670 4147 
L 1670 0 
L 2266 0 
L 2266 4147 
z
" transform="scale(0.015625)"/>
      </defs>
      <use xlink:href="#NimbusSanL-Regu-52" transform="scale(0.996264)"/>
      <use xlink:href="#NimbusSanL-Regu-4e" transform="translate(71.929985 0) scale(0.996264)"/>
      <use xlink:href="#NimbusSanL-Regu-54" transform="translate(143.85997 0) scale(0.996264)"/>
      <use xlink:href="#NimbusSanL-Regu-52" transform="translate(204.7316 0) scale(0.996264)"/>
     </g>
    </g>
    <g id="line2d_115">
     <path d="M 463.144323 173.9509 
L 487.144323 173.9509 
L 511.144323 173.9509 
" style="fill: none; stroke-dasharray: 20,6; stroke-dashoffset: 10; stroke: #832db6; stroke-width: 2"/>
    </g>
    <g id="text_15">
     <!-- RNTR-reg -->
     <g transform="translate(530.344323 182.3509) scale(0.24 -0.24)">
      <defs>
       <path id="NimbusSanL-Regu-2d" d="M 1818 1996 
L 294 1996 
L 294 1536 
L 1818 1536 
L 1818 1996 
z
" transform="scale(0.015625)"/>
       <path id="NimbusSanL-Regu-72" d="M 442 3328 
L 442 0 
L 979 0 
L 979 1727 
C 979 2203 1101 2514 1357 2698 
C 1523 2819 1683 2857 2054 2863 
L 2054 3404 
C 1965 3449 1920 3456 1850 3456 
C 1504 3456 1242 3251 934 2750 
L 934 3328 
L 442 3328 
z
" transform="scale(0.015625)"/>
       <path id="NimbusSanL-Regu-65" d="M 3283 1484 
C 3283 1998 3245 2311 3149 2565 
C 2931 3123 2419 3456 1792 3456 
C 858 3456 256 2734 256 1619 
C 256 545 838 -128 1779 -128 
C 2547 -128 3078 307 3213 1018 
L 2675 1018 
C 2528 588 2227 364 1798 364 
C 1459 364 1171 514 992 787 
C 864 974 819 1161 813 1484 
L 3283 1484 
z
M 826 1920 
C 870 2552 1248 2963 1786 2963 
C 2310 2963 2714 2519 2714 1959 
C 2714 1946 2714 1933 2707 1920 
L 826 1920 
z
" transform="scale(0.015625)"/>
       <path id="NimbusSanL-Regu-67" d="M 2637 3359 
L 2637 2873 
C 2368 3270 2042 3456 1613 3456 
C 762 3456 186 2714 186 1632 
C 186 1084 333 638 608 320 
C 858 38 1216 -128 1568 -128 
C 1990 -128 2285 51 2586 473 
L 2586 300 
C 2586 -155 2528 -441 2394 -634 
C 2253 -841 1978 -960 1651 -960 
C 1408 -960 1190 -894 1043 -774 
C 922 -674 870 -581 838 -375 
L 294 -375 
C 352 -1031 845 -1408 1632 -1408 
C 2131 -1408 2560 -1248 2778 -980 
C 3034 -661 3130 -222 3130 568 
L 3130 3359 
L 2637 3359 
z
M 1670 2963 
C 2246 2963 2586 2479 2586 1644 
C 2586 848 2240 364 1677 364 
C 1094 364 742 855 742 1663 
C 742 2466 1101 2963 1670 2963 
z
" transform="scale(0.015625)"/>
      </defs>
      <use xlink:href="#NimbusSanL-Regu-52" transform="scale(0.996264)"/>
      <use xlink:href="#NimbusSanL-Regu-4e" transform="translate(71.929985 0) scale(0.996264)"/>
      <use xlink:href="#NimbusSanL-Regu-54" transform="translate(143.85997 0) scale(0.996264)"/>
      <use xlink:href="#NimbusSanL-Regu-52" transform="translate(204.7316 0) scale(0.996264)"/>
      <use xlink:href="#NimbusSanL-Regu-2d" transform="translate(276.661585 0) scale(0.996264)"/>
      <use xlink:href="#NimbusSanL-Regu-72" transform="translate(309.836815 0) scale(0.996264)"/>
      <use xlink:href="#NimbusSanL-Regu-65" transform="translate(343.012045 0) scale(0.996264)"/>
      <use xlink:href="#NimbusSanL-Regu-67" transform="translate(398.403722 0) scale(0.996264)"/>
     </g>
    </g>
   </g>
  </g>
 </g>
 <defs>
  <clipPath id="p4fc4e89e8f">
   <rect x="90.004323" y="7.2" width="334.8" height="332.64"/>
  </clipPath>
 </defs>
</svg>
