<?xml version="1.0" encoding="utf-8" standalone="no"?>
<!DOCTYPE svg PUBLIC "-//W3C//DTD SVG 1.1//EN"
  "http://www.w3.org/Graphics/SVG/1.1/DTD/svg11.dtd">
<svg xmlns:xlink="http://www.w3.org/1999/xlink" width="656.055198pt" height="412.829653pt" viewBox="0 0 656.055198 412.829653" xmlns="http://www.w3.org/2000/svg" version="1.1">
 <metadata>
  <rdf:RDF xmlns:dc="http://purl.org/dc/elements/1.1/" xmlns:cc="http://creativecommons.org/ns#" xmlns:rdf="http://www.w3.org/1999/02/22-rdf-syntax-ns#">
   <cc:Work>
    <dc:type rdf:resource="http://purl.org/dc/dcmitype/StillImage"/>
    <dc:date>2026-03-09T16:19:29.878526</dc:date>
    <dc:format>image/svg+xml</dc:format>
    <dc:creator>
     <cc:Agent>
      <dc:title>Matplotlib v3.8.0, https://matplotlib.org/</dc:title>
     </cc:Agent>
    </dc:creator>
   </cc:Work>
  </rdf:RDF>
 </metadata>
 <defs>
  <style type="text/css">*{stroke-linejoin: round; stroke-linecap: butt}</style>
 </defs>
 <g id="figure_1">
  <g id="patch_1">
   <path d="M 0 412.829653 
L 656.055198 412.829653 
L 656.055198 0 
L 0 0 
L 0 412.829653 
z
" style="fill: none"/>
  </g>
  <g id="axes_1">
   <g id="patch_2">
    <path d="M 90.004323 339.84 
L 424.804323 339.84 
L 424.804323 7.2 
L 90.004323 7.2 
L 90.004323 339.84 
z
" style="fill: none"/>
   </g>
   <g id="line2d_1">
    <path d="M 198.872855 339.84 
L 198.872855 7.2 
" clip-path="url(#p9aaab30206)" style="fill: none; stroke-dasharray: 7.4,3.2; stroke-dashoffset: 0; stroke: #b9ac70; stroke-width: 2"/>
   </g>
   <g id="matplotlib.axis_1">
    <g id="xtick_1">
     <g id="line2d_2">
      <defs>
       <path id="mc0518de14e" d="M 0 0 
L 0 -10 
" style="stroke: #000000; stroke-width: 2"/>
      </defs>
      <g>
       <use xlink:href="#mc0518de14e" x="105.222505" y="339.84" style="stroke: #000000; stroke-width: 2"/>
      </g>
     </g>
     <g id="line2d_3">
      <defs>
       <path id="mf71e955da8" d="M 0 0 
L 0 10 
" style="stroke: #000000; stroke-width: 2"/>
      </defs>
      <g>
       <use xlink:href="#mf71e955da8" x="105.222505" y="7.2" style="stroke: #000000; stroke-width: 2"/>
      </g>
     </g>
     <g id="text_1">
      <!-- $\mathdefault{0}$ -->
      <g transform="translate(99.739648 368.875969) scale(0.24 -0.24)">
       <defs>
        <path id="CMR17-30" d="M 2688 2038 
C 2688 2430 2682 3099 2413 3613 
C 2176 4063 1798 4224 1466 4224 
C 1158 4224 768 4082 525 3620 
C 269 3137 243 2539 243 2038 
C 243 1671 250 1112 448 623 
C 723 -39 1216 -128 1466 -128 
C 1760 -128 2208 -7 2470 604 
C 2662 1048 2688 1568 2688 2038 
z
M 1466 -26 
C 1056 -26 813 328 723 816 
C 653 1196 653 1749 653 2109 
C 653 2604 653 3015 736 3407 
C 858 3954 1216 4121 1466 4121 
C 1728 4121 2067 3947 2189 3420 
C 2272 3054 2278 2623 2278 2109 
C 2278 1691 2278 1176 2202 797 
C 2067 96 1690 -26 1466 -26 
z
" transform="scale(0.015625)"/>
       </defs>
       <use xlink:href="#CMR17-30" transform="scale(0.996264)"/>
      </g>
     </g>
    </g>
    <g id="xtick_2">
     <g id="line2d_4">
      <g>
       <use xlink:href="#mc0518de14e" x="211.643357" y="339.84" style="stroke: #000000; stroke-width: 2"/>
      </g>
     </g>
     <g id="line2d_5">
      <g>
       <use xlink:href="#mf71e955da8" x="211.643357" y="7.2" style="stroke: #000000; stroke-width: 2"/>
      </g>
     </g>
     <g id="text_2">
      <!-- $\mathdefault{50}$ -->
      <g transform="translate(200.677642 368.875969) scale(0.24 -0.24)">
       <defs>
        <path id="CMR17-35" d="M 730 3750 
C 794 3724 1056 3641 1325 3641 
C 1920 3641 2246 3961 2432 4140 
C 2432 4191 2432 4224 2394 4224 
C 2387 4224 2374 4224 2323 4198 
C 2099 4102 1837 4032 1517 4032 
C 1325 4032 1037 4055 723 4191 
C 653 4224 640 4224 634 4224 
C 602 4224 595 4217 595 4090 
L 595 2231 
C 595 2113 595 2080 659 2080 
C 691 2080 704 2093 736 2139 
C 941 2435 1222 2560 1542 2560 
C 1766 2560 2246 2415 2246 1293 
C 2246 1087 2246 716 2054 422 
C 1894 159 1645 25 1370 25 
C 947 25 518 319 403 812 
C 429 806 480 793 506 793 
C 589 793 749 838 749 1036 
C 749 1209 627 1280 506 1280 
C 358 1280 262 1190 262 1011 
C 262 454 704 -128 1382 -128 
C 2042 -128 2669 441 2669 1267 
C 2669 2054 2170 2662 1549 2662 
C 1222 2662 947 2540 730 2304 
L 730 3750 
z
" transform="scale(0.015625)"/>
       </defs>
       <use xlink:href="#CMR17-35" transform="scale(0.996264)"/>
       <use xlink:href="#CMR17-30" transform="translate(45.690477 0) scale(0.996264)"/>
      </g>
     </g>
    </g>
    <g id="xtick_3">
     <g id="line2d_6">
      <g>
       <use xlink:href="#mc0518de14e" x="318.064209" y="339.84" style="stroke: #000000; stroke-width: 2"/>
      </g>
     </g>
     <g id="line2d_7">
      <g>
       <use xlink:href="#mf71e955da8" x="318.064209" y="7.2" style="stroke: #000000; stroke-width: 2"/>
      </g>
     </g>
     <g id="text_3">
      <!-- $\mathdefault{100}$ -->
      <g transform="translate(301.615637 368.875969) scale(0.24 -0.24)">
       <defs>
        <path id="CMR17-31" d="M 1702 4083 
C 1702 4217 1696 4224 1606 4224 
C 1357 3927 979 3833 621 3820 
C 602 3820 570 3820 563 3808 
C 557 3795 557 3782 557 3648 
C 755 3648 1088 3686 1344 3839 
L 1344 467 
C 1344 243 1331 166 781 166 
L 589 166 
L 589 0 
C 896 6 1216 12 1523 12 
C 1830 12 2150 6 2458 0 
L 2458 166 
L 2266 166 
C 1715 166 1702 236 1702 467 
L 1702 4083 
z
" transform="scale(0.015625)"/>
       </defs>
       <use xlink:href="#CMR17-31" transform="scale(0.996264)"/>
       <use xlink:href="#CMR17-30" transform="translate(45.690477 0) scale(0.996264)"/>
       <use xlink:href="#CMR17-30" transform="translate(91.380954 0) scale(0.996264)"/>
      </g>
     </g>
    </g>
    <g id="xtick_4">
     <g id="line2d_8">
      <g>
       <use xlink:href="#mc0518de14e" x="424.485061" y="339.84" style="stroke: #000000; stroke-width: 2"/>
      </g>
     </g>
     <g id="line2d_9">
      <g>
       <use xlink:href="#mf71e955da8" x="424.485061" y="7.2" style="stroke: #000000; stroke-width: 2"/>
      </g>
     </g>
     <g id="text_4">
      <!-- $\mathdefault{150}$ -->
      <g transform="translate(408.036489 368.875969) scale(0.24 -0.24)">
       <use xlink:href="#CMR17-31" transform="scale(0.996264)"/>
       <use xlink:href="#CMR17-35" transform="translate(45.690477 0) scale(0.996264)"/>
       <use xlink:href="#CMR17-30" transform="translate(91.380954 0) scale(0.996264)"/>
      </g>
     </g>
    </g>
    <g id="text_5">
     <!-- $i$ -->
     <g transform="translate(252.412537 399.263694) scale(0.3 -0.3)">
      <defs>
       <path id="CMMI12-69" d="M 1811 913 
C 1811 945 1786 970 1747 970 
C 1690 970 1683 951 1651 842 
C 1485 261 1222 64 1011 64 
C 934 64 845 83 845 274 
C 845 447 922 638 992 830 
L 1440 2017 
C 1459 2068 1504 2183 1504 2305 
C 1504 2573 1312 2816 998 2816 
C 410 2816 173 1890 173 1838 
C 173 1813 198 1781 243 1781 
C 301 1781 307 1807 333 1896 
C 486 2432 730 2687 979 2687 
C 1037 2687 1146 2681 1146 2477 
C 1146 2311 1062 2100 1011 1960 
L 563 772 
C 525 670 486 568 486 453 
C 486 166 685 -64 992 -64 
C 1581 -64 1811 868 1811 913 
z
M 1760 4012 
C 1760 4108 1683 4224 1542 4224 
C 1395 4224 1229 4083 1229 3916 
C 1229 3756 1363 3705 1440 3705 
C 1613 3705 1760 3871 1760 4012 
z
" transform="scale(0.015625)"/>
      </defs>
      <use xlink:href="#CMMI12-69" transform="scale(0.996264)"/>
     </g>
    </g>
   </g>
   <g id="matplotlib.axis_2">
    <g id="ytick_1">
     <g id="line2d_10">
      <defs>
       <path id="m6648f99543" d="M 0 0 
L 10 0 
" style="stroke: #000000; stroke-width: 2"/>
      </defs>
      <g>
       <use xlink:href="#m6648f99543" x="90.004323" y="271.768207" style="stroke: #000000; stroke-width: 2"/>
      </g>
     </g>
     <g id="line2d_11">
      <defs>
       <path id="m176780756f" d="M 0 0 
L -10 0 
" style="stroke: #000000; stroke-width: 2"/>
      </defs>
      <g>
       <use xlink:href="#m176780756f" x="424.804323" y="271.768207" style="stroke: #000000; stroke-width: 2"/>
      </g>
     </g>
     <g id="text_6">
      <!-- $\mathdefault{10^{-7}}$ -->
      <g transform="translate(38.86092 280.286192) scale(0.24 -0.24)">
       <defs>
        <path id="CMSY10-0" d="M 4218 1472 
C 4326 1472 4442 1472 4442 1600 
C 4442 1728 4326 1728 4218 1728 
L 755 1728 
C 646 1728 531 1728 531 1600 
C 531 1472 646 1472 755 1472 
L 4218 1472 
z
" transform="scale(0.015625)"/>
        <path id="CMR17-37" d="M 2886 3955 
L 2886 4096 
L 1382 4096 
C 634 4096 621 4166 595 4288 
L 480 4288 
L 294 3104 
L 410 3104 
C 429 3226 474 3552 550 3673 
C 589 3724 1062 3724 1171 3724 
L 2579 3724 
L 1869 2670 
C 1395 1961 1069 1003 1069 166 
C 1069 89 1069 -128 1299 -128 
C 1530 -128 1530 89 1530 172 
L 1530 466 
C 1530 1514 1709 2204 2003 2644 
L 2886 3955 
z
" transform="scale(0.015625)"/>
       </defs>
       <use xlink:href="#CMR17-31" transform="scale(0.996264)"/>
       <use xlink:href="#CMR17-30" transform="translate(45.690477 0) scale(0.996264)"/>
       <use xlink:href="#CMSY10-0" transform="translate(91.380954 36.153639) scale(0.697382)"/>
       <use xlink:href="#CMR17-37" transform="translate(145.621947 36.153639) scale(0.697382)"/>
      </g>
     </g>
    </g>
    <g id="ytick_2">
     <g id="line2d_12">
      <g>
       <use xlink:href="#m6648f99543" x="90.004323" y="192.84798" style="stroke: #000000; stroke-width: 2"/>
      </g>
     </g>
     <g id="line2d_13">
      <g>
       <use xlink:href="#m176780756f" x="424.804323" y="192.84798" style="stroke: #000000; stroke-width: 2"/>
      </g>
     </g>
     <g id="text_7">
      <!-- $\mathdefault{10^{-5}}$ -->
      <g transform="translate(38.86092 201.365965) scale(0.24 -0.24)">
       <use xlink:href="#CMR17-31" transform="scale(0.996264)"/>
       <use xlink:href="#CMR17-30" transform="translate(45.690477 0) scale(0.996264)"/>
       <use xlink:href="#CMSY10-0" transform="translate(91.380954 36.153639) scale(0.697382)"/>
       <use xlink:href="#CMR17-35" transform="translate(145.621947 36.153639) scale(0.697382)"/>
      </g>
     </g>
    </g>
    <g id="ytick_3">
     <g id="line2d_14">
      <g>
       <use xlink:href="#m6648f99543" x="90.004323" y="113.927753" style="stroke: #000000; stroke-width: 2"/>
      </g>
     </g>
     <g id="line2d_15">
      <g>
       <use xlink:href="#m176780756f" x="424.804323" y="113.927753" style="stroke: #000000; stroke-width: 2"/>
      </g>
     </g>
     <g id="text_8">
      <!-- $\mathdefault{10^{-3}}$ -->
      <g transform="translate(38.86092 122.445738) scale(0.24 -0.24)">
       <defs>
        <path id="CMR17-33" d="M 1414 2176 
C 1984 2176 2234 1673 2234 1094 
C 2234 322 1824 25 1453 25 
C 1114 25 563 193 390 691 
C 422 678 454 678 486 678 
C 640 678 755 780 755 947 
C 755 1132 614 1216 486 1216 
C 378 1216 211 1164 211 927 
C 211 335 787 -128 1466 -128 
C 2176 -128 2720 432 2720 1087 
C 2720 1718 2208 2176 1600 2246 
C 2086 2347 2554 2776 2554 3353 
C 2554 3856 2048 4224 1472 4224 
C 890 4224 378 3862 378 3347 
C 378 3123 544 3084 627 3084 
C 762 3084 877 3167 877 3334 
C 877 3500 762 3584 627 3584 
C 602 3584 570 3584 544 3571 
C 730 3999 1235 4076 1459 4076 
C 1683 4076 2106 3966 2106 3347 
C 2106 3167 2080 2851 1862 2574 
C 1670 2329 1453 2316 1242 2297 
C 1210 2297 1062 2284 1037 2284 
C 992 2278 966 2272 966 2227 
C 966 2182 973 2176 1101 2176 
L 1414 2176 
z
" transform="scale(0.015625)"/>
       </defs>
       <use xlink:href="#CMR17-31" transform="scale(0.996264)"/>
       <use xlink:href="#CMR17-30" transform="translate(45.690477 0) scale(0.996264)"/>
       <use xlink:href="#CMSY10-0" transform="translate(91.380954 36.153639) scale(0.697382)"/>
       <use xlink:href="#CMR17-33" transform="translate(145.621947 36.153639) scale(0.697382)"/>
      </g>
     </g>
    </g>
    <g id="ytick_4">
     <g id="line2d_16">
      <g>
       <use xlink:href="#m6648f99543" x="90.004323" y="35.007526" style="stroke: #000000; stroke-width: 2"/>
      </g>
     </g>
     <g id="line2d_17">
      <g>
       <use xlink:href="#m176780756f" x="424.804323" y="35.007526" style="stroke: #000000; stroke-width: 2"/>
      </g>
     </g>
     <g id="text_9">
      <!-- $\mathdefault{10^{-1}}$ -->
      <g transform="translate(38.86092 43.525511) scale(0.24 -0.24)">
       <use xlink:href="#CMR17-31" transform="scale(0.996264)"/>
       <use xlink:href="#CMR17-30" transform="translate(45.690477 0) scale(0.996264)"/>
       <use xlink:href="#CMSY10-0" transform="translate(91.380954 36.153639) scale(0.697382)"/>
       <use xlink:href="#CMR17-31" transform="translate(145.621947 36.153639) scale(0.697382)"/>
      </g>
     </g>
    </g>
    <g id="text_10">
     <!-- $\sigma_i$ -->
     <g transform="translate(28.494961 185.331055) rotate(-90) scale(0.3 -0.3)">
      <defs>
       <path id="CMMI12-1b" d="M 3251 2406 
C 3334 2406 3546 2406 3546 2611 
C 3546 2752 3424 2752 3309 2752 
L 1894 2752 
C 934 2752 243 1685 243 932 
C 243 389 595 -64 1171 -64 
C 1926 -64 2752 746 2752 1704 
C 2752 1953 2694 2195 2541 2406 
L 3251 2406 
z
M 1178 64 
C 851 64 614 312 614 753 
C 614 1136 845 2406 1786 2406 
C 2061 2406 2368 2272 2368 1780 
C 2368 1557 2266 1021 2042 651 
C 1811 274 1466 64 1178 64 
z
" transform="scale(0.015625)"/>
      </defs>
      <use xlink:href="#CMMI12-1b" transform="scale(0.996264)"/>
      <use xlink:href="#CMMI12-69" transform="translate(55.445461 -14.943915) scale(0.697382)"/>
     </g>
    </g>
   </g>
   <g id="line2d_18">
    <path d="M 105.222505 26.951424 
L 107.350922 27.233252 
L 109.479339 27.332432 
L 111.607756 27.592928 
L 113.736173 27.692008 
L 117.993007 28.529403 
L 122.249841 28.779063 
L 126.506675 29.217723 
L 128.635092 29.475835 
L 137.148761 30.152689 
L 141.405595 30.572576 
L 145.662429 30.902461 
L 147.790846 31.276896 
L 149.919263 31.381184 
L 152.04768 31.625802 
L 156.304514 31.902028 
L 173.33185 33.279764 
L 175.460267 33.674019 
L 186.102353 34.219114 
L 188.23077 34.662444 
L 190.359187 34.763227 
L 192.487604 35.261339 
L 194.616021 35.281663 
L 196.744438 35.557996 
L 198.872855 35.664271 
L 203.129689 36.146518 
L 205.258106 36.201586 
L 207.386523 36.371765 
L 209.51494 36.660241 
L 222.285442 37.661287 
L 224.413859 38.038352 
L 226.542276 38.084215 
L 228.670693 38.582334 
L 230.79911 38.699017 
L 243.569613 40.183295 
L 249.954864 41.010694 
L 254.211698 41.130943 
L 256.340115 41.635393 
L 258.468532 41.909013 
L 260.596949 42.002923 
L 269.110617 43.118337 
L 271.239034 43.21304 
L 273.367451 43.605681 
L 275.495868 43.80986 
L 279.752702 44.667435 
L 281.881119 44.686201 
L 284.009536 45.082051 
L 288.26637 45.47965 
L 290.394787 46.193547 
L 292.523204 46.500811 
L 294.651621 46.944987 
L 296.780038 47.192903 
L 298.908455 47.751378 
L 307.422124 48.932828 
L 309.550541 49.46201 
L 311.678958 50.120395 
L 313.807375 50.349496 
L 318.064209 51.429273 
L 320.192626 51.585619 
L 322.321043 52.166726 
L 332.963128 53.949072 
L 335.091545 54.404231 
L 337.219962 55.144755 
L 339.348379 55.289081 
L 341.476796 56.12815 
L 345.73363 57.554171 
L 347.862047 57.690915 
L 349.990464 58.083355 
L 352.118881 59.164755 
L 358.504133 60.034674 
L 360.63255 60.413072 
L 362.760967 61.837534 
L 364.889384 62.708639 
L 367.017801 63.212736 
L 369.146218 64.305715 
L 373.403052 65.20463 
L 375.531469 66.030086 
L 379.788303 68.25007 
L 381.91672 70.247792 
L 384.045137 70.890383 
L 386.173554 73.659264 
L 388.301971 74.808475 
L 390.430388 76.971488 
L 392.558805 78.714797 
L 394.687222 80.869281 
L 396.815639 82.230048 
L 398.944056 83.435945 
L 401.072473 87.241585 
L 403.20089 96.667787 
L 405.329307 99.999133 
L 407.457724 123.338306 
L 409.586141 137.183474 
L 409.586141 137.183474 
" clip-path="url(#p9aaab30206)" style="fill: none; stroke-dasharray: 10,2,2,2,2,2; stroke-dashoffset: 0; stroke: #94a4a2; stroke-width: 2"/>
   </g>
   <g id="line2d_19">
    <path d="M 105.222505 22.677753 
L 107.350922 23.134962 
L 113.736173 23.900482 
L 115.86459 24.308888 
L 117.993007 24.383814 
L 120.121424 24.753512 
L 122.249841 24.943961 
L 124.378258 25.446369 
L 126.506675 25.686169 
L 128.635092 25.790768 
L 130.76351 26.261025 
L 135.020344 26.606716 
L 137.148761 26.895588 
L 139.277178 26.963196 
L 141.405595 27.410986 
L 145.662429 27.676253 
L 147.790846 27.969132 
L 149.919263 28.083231 
L 152.04768 28.441278 
L 154.176097 29.009156 
L 156.304514 29.224359 
L 158.432931 29.631962 
L 160.561348 29.663677 
L 162.689765 29.835334 
L 164.818182 30.150951 
L 169.075016 30.481866 
L 171.203433 31.175057 
L 173.33185 31.372804 
L 175.460267 31.444544 
L 177.588684 32.124083 
L 179.717101 32.265851 
L 181.845518 32.923454 
L 183.973935 33.280105 
L 186.102353 33.36355 
L 188.23077 33.656073 
L 190.359187 34.191948 
L 192.487604 34.990748 
L 194.616021 35.651952 
L 196.744438 36.904469 
L 198.872855 138.403716 
L 201.001272 138.89495 
L 203.129689 139.144341 
L 205.258106 139.884653 
L 207.386523 140.481474 
L 209.51494 140.943272 
L 213.771774 141.49501 
L 215.900191 141.992604 
L 224.413859 142.930381 
L 226.542276 143.051075 
L 228.670693 143.50552 
L 230.79911 143.725981 
L 232.927527 144.100344 
L 235.055944 144.209361 
L 241.441195 145.154103 
L 243.569613 145.250249 
L 245.69803 145.728429 
L 247.826447 145.806949 
L 249.954864 146.190369 
L 252.083281 146.425957 
L 254.211698 146.791855 
L 256.340115 147.013684 
L 258.468532 147.490302 
L 260.596949 147.733294 
L 262.725366 147.849789 
L 264.853783 148.260856 
L 271.239034 148.650992 
L 275.495868 149.949632 
L 279.752702 150.58635 
L 281.881119 151.115273 
L 290.394787 152.145003 
L 292.523204 152.192208 
L 294.651621 152.773645 
L 296.780038 152.997616 
L 298.908455 153.621555 
L 303.16529 154.228778 
L 305.293707 154.570615 
L 307.422124 155.391036 
L 311.678958 155.639396 
L 313.807375 156.011832 
L 315.935792 156.568729 
L 318.064209 156.785402 
L 320.192626 157.517872 
L 322.321043 157.85717 
L 324.44946 158.448415 
L 326.577877 158.636606 
L 328.706294 159.269279 
L 330.834711 159.60811 
L 332.963128 160.472444 
L 337.219962 160.715283 
L 339.348379 161.722464 
L 345.73363 163.735459 
L 347.862047 163.857544 
L 349.990464 164.680293 
L 354.247298 165.569551 
L 356.375716 166.476786 
L 358.504133 168.040124 
L 360.63255 168.897147 
L 362.760967 169.185348 
L 364.889384 169.922735 
L 367.017801 171.106496 
L 371.274635 172.080329 
L 373.403052 173.058573 
L 375.531469 174.768917 
L 377.659886 174.943794 
L 379.788303 177.168047 
L 381.91672 177.934398 
L 384.045137 179.788291 
L 386.173554 181.903855 
L 388.301971 182.622751 
L 390.430388 183.62257 
L 392.558805 186.573284 
L 396.815639 195.496285 
L 398.944056 196.356875 
L 401.072473 198.596157 
L 403.20089 205.702347 
L 405.329307 209.271304 
L 407.457724 231.753863 
L 409.586141 266.831137 
L 409.586141 266.831137 
" clip-path="url(#p9aaab30206)" style="fill: none; stroke: #3f90da; stroke-width: 2; stroke-linecap: square"/>
   </g>
   <g id="line2d_20">
    <path d="M 105.222505 22.32 
L 107.350922 23.31116 
L 109.479339 23.367767 
L 111.607756 23.644711 
L 113.736173 24.37566 
L 120.121424 24.829443 
L 124.378258 25.363929 
L 135.020344 26.437746 
L 137.148761 26.89943 
L 139.277178 26.969566 
L 141.405595 27.374293 
L 143.534012 27.508288 
L 147.790846 28.082485 
L 152.04768 28.585161 
L 156.304514 29.02849 
L 158.432931 29.408146 
L 160.561348 29.650603 
L 162.689765 29.773749 
L 166.946599 30.582047 
L 169.075016 30.690931 
L 171.203433 31.01484 
L 173.33185 31.476404 
L 175.460267 31.633648 
L 177.588684 32.02674 
L 183.973935 32.67935 
L 188.23077 33.906558 
L 190.359187 33.942464 
L 192.487604 34.419568 
L 194.616021 35.033219 
L 196.744438 35.771645 
L 198.872855 201.709905 
L 201.001272 201.988924 
L 203.129689 202.491345 
L 205.258106 203.338896 
L 207.386523 203.859419 
L 209.51494 204.161556 
L 213.771774 204.322665 
L 215.900191 204.904653 
L 220.157025 205.160435 
L 222.285442 205.581681 
L 224.413859 205.744081 
L 226.542276 206.325007 
L 230.79911 206.973097 
L 235.055944 207.497974 
L 237.184361 208.132916 
L 243.569613 208.531259 
L 245.69803 208.915527 
L 247.826447 209.044028 
L 254.211698 210.196727 
L 258.468532 210.737371 
L 262.725366 211.590947 
L 264.853783 211.786608 
L 269.110617 211.985359 
L 271.239034 212.226987 
L 275.495868 212.957815 
L 277.624285 213.654726 
L 279.752702 213.88637 
L 281.881119 214.389363 
L 284.009536 214.491288 
L 286.137953 215.10859 
L 288.26637 215.310553 
L 290.394787 215.79265 
L 292.523204 216.069701 
L 294.651621 216.592595 
L 296.780038 216.690341 
L 298.908455 217.034401 
L 301.036873 217.120259 
L 303.16529 217.811925 
L 305.293707 218.340164 
L 307.422124 218.401289 
L 309.550541 219.231854 
L 313.807375 219.417208 
L 318.064209 220.719491 
L 320.192626 221.188787 
L 322.321043 221.418666 
L 326.577877 222.308173 
L 330.834711 222.562746 
L 332.963128 223.425235 
L 335.091545 223.53122 
L 337.219962 224.719879 
L 341.476796 225.429071 
L 343.605213 226.019012 
L 345.73363 226.884673 
L 347.862047 227.387985 
L 349.990464 227.58071 
L 352.118881 227.643309 
L 354.247298 229.444169 
L 356.375716 230.171214 
L 358.504133 230.518569 
L 360.63255 231.211258 
L 364.889384 232.15624 
L 367.017801 233.088679 
L 369.146218 233.354794 
L 371.274635 234.773347 
L 373.403052 235.676693 
L 375.531469 236.790835 
L 379.788303 239.801385 
L 381.91672 240.713132 
L 384.045137 243.025171 
L 386.173554 243.698401 
L 388.301971 246.763582 
L 390.430388 248.083053 
L 394.687222 251.908473 
L 396.815639 255.706687 
L 398.944056 257.497333 
L 401.072473 261.328132 
L 403.20089 266.19588 
L 405.329307 272.184564 
L 407.457724 280.046336 
L 409.586141 316.362878 
L 409.586141 316.362878 
" clip-path="url(#p9aaab30206)" style="fill: none; stroke-dasharray: 10,2; stroke-dashoffset: 0; stroke: #ffa90e; stroke-width: 2"/>
   </g>
   <g id="line2d_21">
    <path d="M 105.222505 22.688851 
L 107.350922 22.992296 
L 111.607756 23.384366 
L 113.736173 23.848845 
L 115.86459 23.990687 
L 120.121424 24.769066 
L 122.249841 24.811223 
L 130.76351 26.242128 
L 135.020344 26.601885 
L 137.148761 26.782344 
L 139.277178 27.160178 
L 141.405595 27.236097 
L 143.534012 27.749115 
L 145.662429 28.119825 
L 152.04768 28.369425 
L 154.176097 28.651345 
L 156.304514 29.179476 
L 160.561348 29.948041 
L 164.818182 30.27667 
L 171.203433 31.572773 
L 177.588684 32.078236 
L 181.845518 32.74726 
L 183.973935 32.963048 
L 186.102353 33.36593 
L 190.359187 34.327253 
L 192.487604 34.822577 
L 194.616021 35.074403 
L 196.744438 36.182997 
L 198.872855 193.449447 
L 201.001272 194.16056 
L 203.129689 194.31761 
L 205.258106 194.713079 
L 207.386523 195.329282 
L 211.643357 195.722987 
L 213.771774 195.912243 
L 215.900191 196.345717 
L 220.157025 196.840677 
L 226.542276 197.395429 
L 228.670693 197.497379 
L 232.927527 198.777514 
L 237.184361 199.305612 
L 245.69803 199.953254 
L 249.954864 200.653485 
L 252.083281 201.269229 
L 258.468532 201.887509 
L 260.596949 202.168371 
L 262.725366 202.217824 
L 264.853783 202.979347 
L 266.9822 203.291302 
L 271.239034 203.670543 
L 273.367451 203.882974 
L 275.495868 204.244445 
L 279.752702 205.140719 
L 284.009536 205.610448 
L 288.26637 206.464157 
L 290.394787 206.538156 
L 294.651621 206.939361 
L 296.780038 207.528439 
L 298.908455 207.916318 
L 301.036873 208.135074 
L 303.16529 208.574388 
L 305.293707 208.715856 
L 309.550541 209.912817 
L 313.807375 210.787724 
L 318.064209 211.264149 
L 320.192626 211.890033 
L 322.321043 212.274635 
L 324.44946 212.773753 
L 326.577877 213.088525 
L 328.706294 213.967525 
L 332.963128 214.481527 
L 335.091545 214.85897 
L 337.219962 215.892809 
L 339.348379 216.1611 
L 343.605213 216.99611 
L 345.73363 217.13184 
L 347.862047 218.021828 
L 349.990464 218.320924 
L 352.118881 219.29967 
L 354.247298 219.770074 
L 356.375716 221.311482 
L 358.504133 221.748905 
L 360.63255 221.82078 
L 362.760967 223.412387 
L 364.889384 223.895038 
L 369.146218 225.462748 
L 371.274635 226.665689 
L 373.403052 227.342879 
L 375.531469 228.681501 
L 377.659886 229.090363 
L 379.788303 230.046351 
L 381.91672 230.738384 
L 384.045137 232.340602 
L 392.558805 241.33081 
L 394.687222 243.0256 
L 398.944056 246.89784 
L 401.072473 253.690639 
L 403.20089 261.491406 
L 405.329307 264.840235 
L 407.457724 279.516163 
L 409.586141 324.72 
L 409.586141 324.72 
" clip-path="url(#p9aaab30206)" style="fill: none; stroke-dasharray: 12.8,3.2,2,3.2; stroke-dashoffset: 0; stroke: #bd1f01; stroke-width: 2"/>
   </g>
   <g id="line2d_22">
    <path d="M 105.222505 22.681634 
L 109.479339 23.172173 
L 111.607756 23.432407 
L 113.736173 23.875221 
L 115.86459 24.038951 
L 120.121424 24.744977 
L 122.249841 24.810806 
L 132.891927 26.476144 
L 137.148761 26.760641 
L 139.277178 27.10656 
L 141.405595 27.262797 
L 143.534012 27.754806 
L 145.662429 28.066049 
L 152.04768 28.398974 
L 154.176097 28.68028 
L 156.304514 29.219087 
L 162.689765 30.155189 
L 164.818182 30.281532 
L 166.946599 30.782285 
L 171.203433 31.580118 
L 177.588684 32.038668 
L 181.845518 32.715462 
L 183.973935 32.857057 
L 188.23077 33.886153 
L 192.487604 34.805725 
L 194.616021 35.050748 
L 196.744438 36.181954 
L 198.872855 171.526154 
L 201.001272 172.283452 
L 203.129689 172.803797 
L 205.258106 172.905817 
L 207.386523 173.164755 
L 211.643357 173.874632 
L 220.157025 175.004969 
L 222.285442 175.08504 
L 224.413859 175.626047 
L 226.542276 175.791015 
L 230.79911 176.321568 
L 232.927527 176.901775 
L 235.055944 177.054774 
L 237.184361 177.392246 
L 243.569613 178.042033 
L 252.083281 179.403686 
L 256.340115 179.633363 
L 262.725366 180.753204 
L 264.853783 181.320852 
L 266.9822 181.41072 
L 269.110617 181.855459 
L 271.239034 182.037755 
L 273.367451 182.418119 
L 275.495868 182.594182 
L 277.624285 182.942937 
L 279.752702 183.069735 
L 286.137953 183.935075 
L 288.26637 184.584608 
L 294.651621 185.457995 
L 298.908455 186.169233 
L 303.16529 187.096285 
L 305.293707 187.414323 
L 307.422124 187.433759 
L 309.550541 187.746846 
L 311.678958 188.405552 
L 313.807375 188.844939 
L 315.935792 189.572523 
L 318.064209 190.043625 
L 320.192626 190.164844 
L 324.44946 191.390682 
L 326.577877 191.652418 
L 335.091545 193.32899 
L 337.219962 194.503741 
L 341.476796 195.583669 
L 345.73363 196.123082 
L 347.862047 197.211981 
L 349.990464 198.039708 
L 354.247298 198.852701 
L 356.375716 199.768372 
L 358.504133 201.260005 
L 360.63255 201.772938 
L 362.760967 203.306228 
L 364.889384 203.864168 
L 367.017801 205.400916 
L 369.146218 205.871451 
L 371.274635 206.753513 
L 373.403052 207.132986 
L 377.659886 208.479481 
L 379.788303 209.450028 
L 381.91672 210.169003 
L 384.045137 211.193384 
L 386.173554 212.669767 
L 388.301971 215.425743 
L 390.430388 217.021114 
L 392.558805 217.319451 
L 394.687222 220.404311 
L 396.815639 223.758784 
L 398.944056 224.392526 
L 401.072473 225.645307 
L 405.329307 237.151987 
L 407.457724 251.75596 
L 409.586141 274.34806 
L 409.586141 274.34806 
" clip-path="url(#p9aaab30206)" style="fill: none; stroke-dasharray: 20,6; stroke-dashoffset: 10; stroke: #832db6; stroke-width: 2"/>
   </g>
   <g id="patch_3">
    <path d="M 90.004323 339.84 
L 90.004323 7.2 
" style="fill: none; stroke: #000000; stroke-width: 2; stroke-linejoin: miter; stroke-linecap: square"/>
   </g>
   <g id="patch_4">
    <path d="M 424.804323 339.84 
L 424.804323 7.2 
" style="fill: none; stroke: #000000; stroke-width: 2; stroke-linejoin: miter; stroke-linecap: square"/>
   </g>
   <g id="patch_5">
    <path d="M 90.004323 339.84 
L 424.804323 339.84 
" style="fill: none; stroke: #000000; stroke-width: 2; stroke-linejoin: miter; stroke-linecap: square"/>
   </g>
   <g id="patch_6">
    <path d="M 90.004323 7.2 
L 424.804323 7.2 
" style="fill: none; stroke: #000000; stroke-width: 2; stroke-linejoin: miter; stroke-linecap: square"/>
   </g>
   <g id="legend_1">
    <g id="line2d_23">
     <path d="M 463.144323 37.435969 
L 487.144323 37.435969 
L 511.144323 37.435969 
" style="fill: none; stroke-dasharray: 10,2,2,2,2,2; stroke-dashoffset: 0; stroke: #94a4a2; stroke-width: 2"/>
    </g>
    <g id="text_11">
     <!-- Initial -->
     <g transform="translate(530.344323 45.835969) scale(0.24 -0.24)">
      <defs>
       <path id="NimbusSanL-Regu-49" d="M 1242 4672 
L 640 4672 
L 640 0 
L 1242 0 
L 1242 4672 
z
" transform="scale(0.015625)"/>
       <path id="NimbusSanL-Regu-6e" d="M 448 3328 
L 448 0 
L 986 0 
L 986 1835 
C 986 2539 1344 2988 1894 2988 
C 2317 2988 2586 2732 2586 2328 
L 2586 0 
L 3117 0 
L 3117 2539 
C 3117 3097 2701 3456 2054 3456 
C 1555 3456 1235 3263 941 2796 
L 941 3328 
L 448 3328 
z
" transform="scale(0.015625)"/>
       <path id="NimbusSanL-Regu-69" d="M 960 3358 
L 429 3358 
L 429 0 
L 960 0 
L 960 3358 
z
M 960 4672 
L 422 4672 
L 422 3999 
L 960 3999 
L 960 4672 
z
" transform="scale(0.015625)"/>
       <path id="NimbusSanL-Regu-74" d="M 1626 3328 
L 1075 3328 
L 1075 4249 
L 544 4249 
L 544 3328 
L 90 3328 
L 90 2892 
L 544 2892 
L 544 402 
C 544 64 774 -128 1190 -128 
C 1318 -128 1446 -116 1626 -84 
L 1626 364 
C 1555 345 1472 339 1370 339 
C 1139 339 1075 402 1075 634 
L 1075 2892 
L 1626 2892 
L 1626 3328 
z
" transform="scale(0.015625)"/>
       <path id="NimbusSanL-Regu-61" d="M 3424 332 
C 3366 320 3341 320 3309 320 
C 3123 320 3021 415 3021 581 
L 3021 2542 
C 3021 3135 2586 3456 1760 3456 
C 1274 3456 870 3315 646 3065 
C 493 2893 429 2702 416 2370 
L 954 2370 
C 998 2778 1242 2963 1741 2963 
C 2221 2963 2490 2784 2490 2466 
L 2490 2326 
C 2490 2103 2355 2007 1933 1956 
C 1178 1861 1062 1835 858 1753 
C 467 1593 269 1294 269 861 
C 269 256 691 -128 1370 -128 
C 1792 -128 2131 19 2509 364 
C 2547 25 2714 -128 3059 -128 
C 3168 -128 3251 -116 3424 -71 
L 3424 332 
z
M 2490 1071 
C 2490 893 2438 785 2278 638 
C 2061 441 1798 339 1485 339 
C 1069 339 826 536 826 874 
C 826 1224 1062 1402 1632 1485 
C 2195 1562 2310 1587 2490 1670 
L 2490 1071 
z
" transform="scale(0.015625)"/>
       <path id="NimbusSanL-Regu-6c" d="M 973 4672 
L 435 4672 
L 435 0 
L 973 0 
L 973 4672 
z
" transform="scale(0.015625)"/>
      </defs>
      <use xlink:href="#NimbusSanL-Regu-49" transform="scale(0.996264)"/>
      <use xlink:href="#NimbusSanL-Regu-6e" transform="translate(27.69517 0) scale(0.996264)"/>
      <use xlink:href="#NimbusSanL-Regu-69" transform="translate(83.086847 0) scale(0.996264)"/>
      <use xlink:href="#NimbusSanL-Regu-74" transform="translate(105.203631 0) scale(0.996264)"/>
      <use xlink:href="#NimbusSanL-Regu-69" transform="translate(132.898801 0) scale(0.996264)"/>
      <use xlink:href="#NimbusSanL-Regu-61" transform="translate(155.015585 0) scale(0.996264)"/>
      <use xlink:href="#NimbusSanL-Regu-6c" transform="translate(210.407262 0) scale(0.996264)"/>
     </g>
    </g>
    <g id="line2d_24">
     <path d="M 463.144323 71.564702 
L 487.144323 71.564702 
L 511.144323 71.564702 
" style="fill: none; stroke: #3f90da; stroke-width: 2; stroke-linecap: square"/>
    </g>
    <g id="text_12">
     <!-- Alt -->
     <g transform="translate(530.344323 79.964702) scale(0.24 -0.24)">
      <defs>
       <path id="NimbusSanL-Regu-41" d="M 3034 1408 
L 3514 0 
L 4179 0 
L 2541 4672 
L 1773 4672 
L 109 0 
L 742 0 
L 1235 1408 
L 3034 1408 
z
M 2867 1907 
L 1382 1907 
L 2150 4032 
L 2867 1907 
z
" transform="scale(0.015625)"/>
      </defs>
      <use xlink:href="#NimbusSanL-Regu-41" transform="scale(0.996264)"/>
      <use xlink:href="#NimbusSanL-Regu-6c" transform="translate(66.450031 0) scale(0.996264)"/>
      <use xlink:href="#NimbusSanL-Regu-74" transform="translate(88.566815 0) scale(0.996264)"/>
     </g>
    </g>
    <g id="line2d_25">
     <path d="M 463.144323 105.693435 
L 487.144323 105.693435 
L 511.144323 105.693435 
" style="fill: none; stroke-dasharray: 10,2; stroke-dashoffset: 0; stroke: #ffa90e; stroke-width: 2"/>
    </g>
    <g id="text_13">
     <!-- RCG -->
     <g transform="translate(530.344323 114.093435) scale(0.24 -0.24)">
      <defs>
       <path id="NimbusSanL-Regu-52" d="M 1190 2035 
L 2726 2035 
C 3258 2035 3494 1775 3494 1191 
L 3488 770 
C 3488 478 3539 192 3622 0 
L 4346 0 
L 4346 147 
C 4122 303 4077 471 4064 1101 
C 4058 1879 3936 2111 3430 2329 
C 3955 2585 4166 2907 4166 3432 
C 4166 4230 3661 4672 2746 4672 
L 595 4672 
L 595 0 
L 1190 0 
L 1190 2035 
z
M 1190 2560 
L 1190 4147 
L 2630 4147 
C 2963 4147 3155 4096 3302 3970 
C 3462 3837 3546 3628 3546 3350 
C 3546 2806 3264 2560 2630 2560 
L 1190 2560 
z
" transform="scale(0.015625)"/>
       <path id="NimbusSanL-Regu-43" d="M 4237 3219 
C 4051 4236 3462 4736 2438 4736 
C 1811 4736 1306 4537 960 4154 
C 538 3696 307 3035 307 2284 
C 307 1522 544 867 986 415 
C 1344 44 1805 -128 2413 -128 
C 3552 -128 4192 485 4333 1712 
L 3718 1712 
C 3667 1394 3603 1178 3507 994 
C 3315 612 2918 396 2419 396 
C 1491 396 902 1134 902 2291 
C 902 3480 1466 4211 2368 4211 
C 2746 4211 3098 4096 3290 3918 
C 3462 3759 3558 3562 3629 3219 
L 4237 3219 
z
" transform="scale(0.015625)"/>
       <path id="NimbusSanL-Regu-47" d="M 4538 2496 
L 2592 2496 
L 2592 1971 
L 4013 1971 
L 4013 1842 
C 4013 1003 3398 396 2547 396 
C 2074 396 1645 571 1370 874 
C 1062 1209 877 1771 877 2348 
C 877 3472 1530 4211 2515 4211 
C 3226 4211 3738 3854 3866 3265 
L 4474 3265 
C 4307 4192 3590 4736 2522 4736 
C 1952 4736 1491 4588 1126 4287 
C 589 3848 282 3140 282 2316 
C 282 874 1158 -128 2419 -128 
C 3053 -128 3558 108 4013 616 
L 4160 -7 
L 4538 -7 
L 4538 2496 
z
" transform="scale(0.015625)"/>
      </defs>
      <use xlink:href="#NimbusSanL-Regu-52" transform="scale(0.996264)"/>
      <use xlink:href="#NimbusSanL-Regu-43" transform="translate(71.929985 0) scale(0.996264)"/>
      <use xlink:href="#NimbusSanL-Regu-47" transform="translate(143.85997 0) scale(0.996264)"/>
     </g>
    </g>
    <g id="line2d_26">
     <path d="M 463.144323 139.822167 
L 487.144323 139.822167 
L 511.144323 139.822167 
" style="fill: none; stroke-dasharray: 12.8,3.2,2,3.2; stroke-dashoffset: 0; stroke: #bd1f01; stroke-width: 2"/>
    </g>
    <g id="text_14">
     <!-- RNTR -->
     <g transform="translate(530.344323 148.222167) scale(0.24 -0.24)">
      <defs>
       <path id="NimbusSanL-Regu-4e" d="M 4134 4672 
L 3571 4672 
L 3571 852 
L 1133 4672 
L 486 4672 
L 486 0 
L 1050 0 
L 1050 3787 
L 3462 0 
L 4134 0 
L 4134 4672 
z
" transform="scale(0.015625)"/>
       <path id="NimbusSanL-Regu-54" d="M 2266 4147 
L 3795 4147 
L 3795 4672 
L 134 4672 
L 134 4147 
L 1670 4147 
L 1670 0 
L 2266 0 
L 2266 4147 
z
" transform="scale(0.015625)"/>
      </defs>
      <use xlink:href="#NimbusSanL-Regu-52" transform="scale(0.996264)"/>
      <use xlink:href="#NimbusSanL-Regu-4e" transform="translate(71.929985 0) scale(0.996264)"/>
      <use xlink:href="#NimbusSanL-Regu-54" transform="translate(143.85997 0) scale(0.996264)"/>
      <use xlink:href="#NimbusSanL-Regu-52" transform="translate(204.7316 0) scale(0.996264)"/>
     </g>
    </g>
    <g id="line2d_27">
     <path d="M 463.144323 173.9509 
L 487.144323 173.9509 
L 511.144323 173.9509 
" style="fill: none; stroke-dasharray: 20,6; stroke-dashoffset: 10; stroke: #832db6; stroke-width: 2"/>
    </g>
    <g id="text_15">
     <!-- RNTR-reg -->
     <g transform="translate(530.344323 182.3509) scale(0.24 -0.24)">
      <defs>
       <path id="NimbusSanL-Regu-2d" d="M 1818 1996 
L 294 1996 
L 294 1536 
L 1818 1536 
L 1818 1996 
z
" transform="scale(0.015625)"/>
       <path id="NimbusSanL-Regu-72" d="M 442 3328 
L 442 0 
L 979 0 
L 979 1727 
C 979 2203 1101 2514 1357 2698 
C 1523 2819 1683 2857 2054 2863 
L 2054 3404 
C 1965 3449 1920 3456 1850 3456 
C 1504 3456 1242 3251 934 2750 
L 934 3328 
L 442 3328 
z
" transform="scale(0.015625)"/>
       <path id="NimbusSanL-Regu-65" d="M 3283 1484 
C 3283 1998 3245 2311 3149 2565 
C 2931 3123 2419 3456 1792 3456 
C 858 3456 256 2734 256 1619 
C 256 545 838 -128 1779 -128 
C 2547 -128 3078 307 3213 1018 
L 2675 1018 
C 2528 588 2227 364 1798 364 
C 1459 364 1171 514 992 787 
C 864 974 819 1161 813 1484 
L 3283 1484 
z
M 826 1920 
C 870 2552 1248 2963 1786 2963 
C 2310 2963 2714 2519 2714 1959 
C 2714 1946 2714 1933 2707 1920 
L 826 1920 
z
" transform="scale(0.015625)"/>
       <path id="NimbusSanL-Regu-67" d="M 2637 3359 
L 2637 2873 
C 2368 3270 2042 3456 1613 3456 
C 762 3456 186 2714 186 1632 
C 186 1084 333 638 608 320 
C 858 38 1216 -128 1568 -128 
C 1990 -128 2285 51 2586 473 
L 2586 300 
C 2586 -155 2528 -441 2394 -634 
C 2253 -841 1978 -960 1651 -960 
C 1408 -960 1190 -894 1043 -774 
C 922 -674 870 -581 838 -375 
L 294 -375 
C 352 -1031 845 -1408 1632 -1408 
C 2131 -1408 2560 -1248 2778 -980 
C 3034 -661 3130 -222 3130 568 
L 3130 3359 
L 2637 3359 
z
M 1670 2963 
C 2246 2963 2586 2479 2586 1644 
C 2586 848 2240 364 1677 364 
C 1094 364 742 855 742 1663 
C 742 2466 1101 2963 1670 2963 
z
" transform="scale(0.015625)"/>
      </defs>
      <use xlink:href="#NimbusSanL-Regu-52" transform="scale(0.996264)"/>
      <use xlink:href="#NimbusSanL-Regu-4e" transform="translate(71.929985 0) scale(0.996264)"/>
      <use xlink:href="#NimbusSanL-Regu-54" transform="translate(143.85997 0) scale(0.996264)"/>
      <use xlink:href="#NimbusSanL-Regu-52" transform="translate(204.7316 0) scale(0.996264)"/>
      <use xlink:href="#NimbusSanL-Regu-2d" transform="translate(276.661585 0) scale(0.996264)"/>
      <use xlink:href="#NimbusSanL-Regu-72" transform="translate(309.836815 0) scale(0.996264)"/>
      <use xlink:href="#NimbusSanL-Regu-65" transform="translate(343.012045 0) scale(0.996264)"/>
      <use xlink:href="#NimbusSanL-Regu-67" transform="translate(398.403722 0) scale(0.996264)"/>
     </g>
    </g>
   </g>
  </g>
 </g>
 <defs>
  <clipPath id="p9aaab30206">
   <rect x="90.004323" y="7.2" width="334.8" height="332.64"/>
  </clipPath>
 </defs>
</svg>
